G04 #@! TF.GenerationSoftware,KiCad,Pcbnew,(6.0.7-1)-1*
G04 #@! TF.CreationDate,2023-01-06T03:53:42-05:00*
G04 #@! TF.ProjectId,O32controller,4f333263-6f6e-4747-926f-6c6c65722e6b,rev?*
G04 #@! TF.SameCoordinates,Original*
G04 #@! TF.FileFunction,Legend,Top*
G04 #@! TF.FilePolarity,Positive*
%FSLAX46Y46*%
G04 Gerber Fmt 4.6, Leading zero omitted, Abs format (unit mm)*
G04 Created by KiCad (PCBNEW (6.0.7-1)-1) date 2023-01-06 03:53:42*
%MOMM*%
%LPD*%
G01*
G04 APERTURE LIST*
G04 Aperture macros list*
%AMRoundRect*
0 Rectangle with rounded corners*
0 $1 Rounding radius*
0 $2 $3 $4 $5 $6 $7 $8 $9 X,Y pos of 4 corners*
0 Add a 4 corners polygon primitive as box body*
4,1,4,$2,$3,$4,$5,$6,$7,$8,$9,$2,$3,0*
0 Add four circle primitives for the rounded corners*
1,1,$1+$1,$2,$3*
1,1,$1+$1,$4,$5*
1,1,$1+$1,$6,$7*
1,1,$1+$1,$8,$9*
0 Add four rect primitives between the rounded corners*
20,1,$1+$1,$2,$3,$4,$5,0*
20,1,$1+$1,$4,$5,$6,$7,0*
20,1,$1+$1,$6,$7,$8,$9,0*
20,1,$1+$1,$8,$9,$2,$3,0*%
%AMFreePoly0*
4,1,78,0.535355,2.120355,0.550000,2.085000,0.550000,1.935000,0.535355,1.899645,0.500000,1.885000,0.150000,1.885000,0.150000,1.635000,0.500000,1.635000,0.535355,1.620355,0.550000,1.585000,0.550000,1.435000,0.535355,1.399645,0.500000,1.385000,0.150000,1.385000,0.150000,1.135000,0.500000,1.135000,0.535355,1.120355,0.550000,1.085000,0.550000,0.935000,0.535355,0.899645,
0.500000,0.885000,0.150000,0.885000,0.150000,0.635000,0.500000,0.635000,0.535355,0.620355,0.550000,0.585000,0.550000,0.435000,0.535355,0.399645,0.500000,0.385000,0.150000,0.385000,0.150000,0.135000,0.500000,0.135000,0.535355,0.120355,0.550000,0.085000,0.550000,-0.065000,0.535355,-0.100355,0.500000,-0.115000,0.150000,-0.115000,0.150000,-0.365000,0.500000,-0.365000,
0.535355,-0.379645,0.550000,-0.415000,0.550000,-0.565000,0.535355,-0.600355,0.500000,-0.615000,0.150000,-0.615000,0.150000,-0.865000,0.500000,-0.865000,0.535355,-0.879645,0.550000,-0.915000,0.550000,-1.065000,0.535355,-1.100355,0.500000,-1.115000,0.150000,-1.115000,0.150000,-1.365000,0.500000,-1.365000,0.535355,-1.379645,0.550000,-1.415000,0.550000,-1.565000,0.535355,-1.600355,
0.500000,-1.615000,0.150000,-1.615000,0.150000,-1.865000,0.500000,-1.865000,0.535355,-1.879645,0.550000,-1.915000,0.550000,-2.065000,0.535355,-2.100355,0.500000,-2.115000,-0.100000,-2.115000,-0.102414,-2.114000,-0.150000,-2.114000,-0.150000,2.114000,-0.137987,2.114000,-0.135355,2.120355,-0.100000,2.135000,0.500000,2.135000,0.535355,2.120355,0.535355,2.120355,$1*%
G04 Aperture macros list end*
%ADD10C,0.150000*%
%ADD11C,0.225000*%
%ADD12C,0.120000*%
%ADD13C,0.200000*%
%ADD14C,0.127000*%
%ADD15R,0.700001X0.249999*%
%ADD16FreePoly0,0.000000*%
%ADD17FreePoly0,180.000000*%
%ADD18R,0.429999X0.375001*%
%ADD19R,3.300001X5.399999*%
%ADD20R,0.385000X0.690000*%
%ADD21R,1.035000X0.690000*%
%ADD22RoundRect,0.269607X-1.105393X-1.105393X1.105393X-1.105393X1.105393X1.105393X-1.105393X1.105393X0*%
%ADD23RoundRect,0.218750X0.256250X-0.218750X0.256250X0.218750X-0.256250X0.218750X-0.256250X-0.218750X0*%
%ADD24RoundRect,0.140000X0.140000X0.170000X-0.140000X0.170000X-0.140000X-0.170000X0.140000X-0.170000X0*%
%ADD25RoundRect,0.225000X0.250000X-0.225000X0.250000X0.225000X-0.250000X0.225000X-0.250000X-0.225000X0*%
%ADD26C,0.700000*%
%ADD27R,1.050000X1.400000*%
%ADD28RoundRect,0.135000X0.135000X0.185000X-0.135000X0.185000X-0.135000X-0.185000X0.135000X-0.185000X0*%
%ADD29RoundRect,0.062500X-0.375000X-0.062500X0.375000X-0.062500X0.375000X0.062500X-0.375000X0.062500X0*%
%ADD30RoundRect,0.062500X-0.062500X-0.375000X0.062500X-0.375000X0.062500X0.375000X-0.062500X0.375000X0*%
%ADD31R,2.800000X2.800000*%
%ADD32RoundRect,0.135000X0.185000X-0.135000X0.185000X0.135000X-0.185000X0.135000X-0.185000X-0.135000X0*%
%ADD33RoundRect,0.140000X-0.170000X0.140000X-0.170000X-0.140000X0.170000X-0.140000X0.170000X0.140000X0*%
%ADD34R,3.200000X1.600000*%
%ADD35RoundRect,0.135000X-0.135000X-0.185000X0.135000X-0.185000X0.135000X0.185000X-0.135000X0.185000X0*%
%ADD36RoundRect,0.176470X-0.723530X-0.723530X0.723530X-0.723530X0.723530X0.723530X-0.723530X0.723530X0*%
%ADD37R,1.600000X0.650000*%
%ADD38RoundRect,0.135000X-0.185000X0.135000X-0.185000X-0.135000X0.185000X-0.135000X0.185000X0.135000X0*%
%ADD39RoundRect,0.140000X0.170000X-0.140000X0.170000X0.140000X-0.170000X0.140000X-0.170000X-0.140000X0*%
%ADD40R,0.690000X0.385000*%
%ADD41R,0.690000X1.035000*%
%ADD42RoundRect,0.225000X-0.250000X0.225000X-0.250000X-0.225000X0.250000X-0.225000X0.250000X0.225000X0*%
G04 APERTURE END LIST*
D10*
X39700000Y-38700000D02*
X42450000Y-38700000D01*
X48000000Y-50000000D02*
X52000000Y-50000000D01*
X51000000Y-50000000D02*
G75*
G03*
X51000000Y-50000000I-1000000J0D01*
G01*
X50000000Y-48000000D02*
X50000000Y-52000000D01*
X66000000Y-50000000D02*
G75*
G03*
X66000000Y-50000000I-16000000J0D01*
G01*
X37800000Y-39750000D02*
X42650000Y-43850000D01*
X59350000Y-54261904D02*
X59302380Y-54357142D01*
X59302380Y-54500000D01*
X59350000Y-54642857D01*
X59445238Y-54738095D01*
X59540476Y-54785714D01*
X59730952Y-54833333D01*
X59873809Y-54833333D01*
X60064285Y-54785714D01*
X60159523Y-54738095D01*
X60254761Y-54642857D01*
X60302380Y-54500000D01*
X60302380Y-54404761D01*
X60254761Y-54261904D01*
X60207142Y-54214285D01*
X59873809Y-54214285D01*
X59873809Y-54404761D01*
X60302380Y-53785714D02*
X59302380Y-53785714D01*
X60302380Y-53214285D01*
X59302380Y-53214285D01*
X60302380Y-52738095D02*
X59302380Y-52738095D01*
X59302380Y-52500000D01*
X59350000Y-52357142D01*
X59445238Y-52261904D01*
X59540476Y-52214285D01*
X59730952Y-52166666D01*
X59873809Y-52166666D01*
X60064285Y-52214285D01*
X60159523Y-52261904D01*
X60254761Y-52357142D01*
X60302380Y-52500000D01*
X60302380Y-52738095D01*
X40840476Y-38452380D02*
X40840476Y-37452380D01*
X41173809Y-38166666D01*
X41507142Y-37452380D01*
X41507142Y-38452380D01*
X41935714Y-37547619D02*
X41983333Y-37500000D01*
X42078571Y-37452380D01*
X42316666Y-37452380D01*
X42411904Y-37500000D01*
X42459523Y-37547619D01*
X42507142Y-37642857D01*
X42507142Y-37738095D01*
X42459523Y-37880952D01*
X41888095Y-38452380D01*
X42507142Y-38452380D01*
X59302380Y-57228571D02*
X60302380Y-56990476D01*
X59588095Y-56800000D01*
X60302380Y-56609523D01*
X59302380Y-56371428D01*
X39919047Y-59921428D02*
X40680952Y-59921428D01*
X40300000Y-60302380D02*
X40300000Y-59540476D01*
X59350000Y-47111904D02*
X59302380Y-47207142D01*
X59302380Y-47350000D01*
X59350000Y-47492857D01*
X59445238Y-47588095D01*
X59540476Y-47635714D01*
X59730952Y-47683333D01*
X59873809Y-47683333D01*
X60064285Y-47635714D01*
X60159523Y-47588095D01*
X60254761Y-47492857D01*
X60302380Y-47350000D01*
X60302380Y-47254761D01*
X60254761Y-47111904D01*
X60207142Y-47064285D01*
X59873809Y-47064285D01*
X59873809Y-47254761D01*
X60302380Y-46635714D02*
X59302380Y-46635714D01*
X60302380Y-46064285D01*
X59302380Y-46064285D01*
X60302380Y-45588095D02*
X59302380Y-45588095D01*
X59302380Y-45350000D01*
X59350000Y-45207142D01*
X59445238Y-45111904D01*
X59540476Y-45064285D01*
X59730952Y-45016666D01*
X59873809Y-45016666D01*
X60064285Y-45064285D01*
X60159523Y-45111904D01*
X60254761Y-45207142D01*
X60302380Y-45350000D01*
X60302380Y-45588095D01*
D11*
X40871394Y-39969788D02*
X39031733Y-40384240D01*
X39360038Y-40659721D02*
X39296517Y-40513176D01*
X39278908Y-40311915D01*
X39407845Y-40047131D01*
X39729238Y-39664109D01*
X39967609Y-39491153D01*
X40168871Y-39473545D01*
X40324219Y-39510654D01*
X40543089Y-39694307D01*
X40606611Y-39840852D01*
X40624219Y-40042113D01*
X40495283Y-40306897D01*
X40173889Y-40689919D01*
X39935518Y-40862875D01*
X39734256Y-40880484D01*
X39578908Y-40843374D01*
X39360038Y-40659721D01*
X41199699Y-40245268D02*
X41911026Y-40842143D01*
X41160696Y-40958488D01*
X41324849Y-41096229D01*
X41388370Y-41242773D01*
X41397174Y-41343404D01*
X41360065Y-41498752D01*
X41130498Y-41772339D01*
X40983954Y-41835861D01*
X40883323Y-41844665D01*
X40727975Y-41807556D01*
X40399670Y-41532075D01*
X40336148Y-41385531D01*
X40327344Y-41284900D01*
X42256939Y-41318885D02*
X42357570Y-41310081D01*
X42512918Y-41347190D01*
X42786505Y-41576757D01*
X42850027Y-41723301D01*
X42858831Y-41823932D01*
X42821721Y-41979280D01*
X42729895Y-42088715D01*
X42537437Y-42206954D01*
X41329867Y-42312603D01*
X42041194Y-42909477D01*
D10*
X52554761Y-37802380D02*
X52888095Y-38802380D01*
X53221428Y-37802380D01*
X53554761Y-38802380D02*
X53554761Y-37802380D01*
X54030952Y-38802380D02*
X54030952Y-37802380D01*
X54602380Y-38802380D01*
X54602380Y-37802380D01*
X52454761Y-61252380D02*
X52788095Y-62252380D01*
X53121428Y-61252380D01*
X53454761Y-62252380D02*
X53454761Y-61252380D01*
X53930952Y-62252380D02*
X53930952Y-61252380D01*
X54502380Y-62252380D01*
X54502380Y-61252380D01*
X39969047Y-62021428D02*
X40730952Y-62021428D01*
X59152380Y-49983333D02*
X60152380Y-49650000D01*
X59152380Y-49316666D01*
X39640565Y-42176713D02*
X39394432Y-42840454D01*
X40005348Y-42482802D01*
X40413741Y-42514673D02*
X40480828Y-42508804D01*
X40584394Y-42533544D01*
X40766785Y-42686588D01*
X40809133Y-42784284D01*
X40815002Y-42851372D01*
X40790263Y-42954937D01*
X40729045Y-43027894D01*
X40600740Y-43106720D01*
X39795693Y-43177152D01*
X40269911Y-43575068D01*
X59202380Y-42835714D02*
X60011904Y-42835714D01*
X60107142Y-42788095D01*
X60154761Y-42740476D01*
X60202380Y-42645238D01*
X60202380Y-42454761D01*
X60154761Y-42359523D01*
X60107142Y-42311904D01*
X60011904Y-42264285D01*
X59202380Y-42264285D01*
X40247619Y-56802380D02*
X40723809Y-56469047D01*
X40247619Y-56230952D02*
X41247619Y-56230952D01*
X41247619Y-56611904D01*
X41200000Y-56707142D01*
X41152380Y-56754761D01*
X41057142Y-56802380D01*
X40914285Y-56802380D01*
X40819047Y-56754761D01*
X40771428Y-56707142D01*
X40723809Y-56611904D01*
X40723809Y-56230952D01*
X40295238Y-57183333D02*
X40247619Y-57326190D01*
X40247619Y-57564285D01*
X40295238Y-57659523D01*
X40342857Y-57707142D01*
X40438095Y-57754761D01*
X40533333Y-57754761D01*
X40628571Y-57707142D01*
X40676190Y-57659523D01*
X40723809Y-57564285D01*
X40771428Y-57373809D01*
X40819047Y-57278571D01*
X40866666Y-57230952D01*
X40961904Y-57183333D01*
X41057142Y-57183333D01*
X41152380Y-57230952D01*
X41200000Y-57278571D01*
X41247619Y-57373809D01*
X41247619Y-57611904D01*
X41200000Y-57754761D01*
X41247619Y-58040476D02*
X41247619Y-58611904D01*
X40247619Y-58326190D02*
X41247619Y-58326190D01*
X43711904Y-45704761D02*
X43854761Y-45752380D01*
X44092857Y-45752380D01*
X44188095Y-45704761D01*
X44235714Y-45657142D01*
X44283333Y-45561904D01*
X44283333Y-45466666D01*
X44235714Y-45371428D01*
X44188095Y-45323809D01*
X44092857Y-45276190D01*
X43902380Y-45228571D01*
X43807142Y-45180952D01*
X43759523Y-45133333D01*
X43711904Y-45038095D01*
X43711904Y-44942857D01*
X43759523Y-44847619D01*
X43807142Y-44800000D01*
X43902380Y-44752380D01*
X44140476Y-44752380D01*
X44283333Y-44800000D01*
X44569047Y-44752380D02*
X45140476Y-44752380D01*
X44854761Y-45752380D02*
X44854761Y-44752380D01*
X45426190Y-45704761D02*
X45569047Y-45752380D01*
X45807142Y-45752380D01*
X45902380Y-45704761D01*
X45950000Y-45657142D01*
X45997619Y-45561904D01*
X45997619Y-45466666D01*
X45950000Y-45371428D01*
X45902380Y-45323809D01*
X45807142Y-45276190D01*
X45616666Y-45228571D01*
X45521428Y-45180952D01*
X45473809Y-45133333D01*
X45426190Y-45038095D01*
X45426190Y-44942857D01*
X45473809Y-44847619D01*
X45521428Y-44800000D01*
X45616666Y-44752380D01*
X45854761Y-44752380D01*
X45997619Y-44800000D01*
X46426190Y-45752380D02*
X46426190Y-44752380D01*
X46807142Y-44752380D01*
X46902380Y-44800000D01*
X46950000Y-44847619D01*
X46997619Y-44942857D01*
X46997619Y-45085714D01*
X46950000Y-45180952D01*
X46902380Y-45228571D01*
X46807142Y-45276190D01*
X46426190Y-45276190D01*
X47426190Y-45752380D02*
X47426190Y-44752380D01*
X47902380Y-45752380D02*
X47902380Y-44752380D01*
X48473809Y-45752380D01*
X48473809Y-44752380D01*
X49283333Y-45228571D02*
X48950000Y-45228571D01*
X48950000Y-45752380D02*
X48950000Y-44752380D01*
X49426190Y-44752380D01*
X49997619Y-44752380D02*
X50092857Y-44752380D01*
X50188095Y-44800000D01*
X50235714Y-44847619D01*
X50283333Y-44942857D01*
X50330952Y-45133333D01*
X50330952Y-45371428D01*
X50283333Y-45561904D01*
X50235714Y-45657142D01*
X50188095Y-45704761D01*
X50092857Y-45752380D01*
X49997619Y-45752380D01*
X49902380Y-45704761D01*
X49854761Y-45657142D01*
X49807142Y-45561904D01*
X49759523Y-45371428D01*
X49759523Y-45133333D01*
X49807142Y-44942857D01*
X49854761Y-44847619D01*
X49902380Y-44800000D01*
X49997619Y-44752380D01*
X50711904Y-45466666D02*
X51188095Y-45466666D01*
X50616666Y-45752380D02*
X50950000Y-44752380D01*
X51283333Y-45752380D01*
D12*
X58049999Y-46850001D02*
X54850001Y-46850001D01*
X58049999Y-53149999D02*
X54850001Y-53149999D01*
X59100000Y-52750000D02*
X59100000Y-53150000D01*
X59100000Y-53150000D02*
X58900000Y-53150000D01*
X58049999Y-53850001D02*
X54850001Y-53850001D01*
X58049999Y-60149999D02*
X54850001Y-60149999D01*
X59100000Y-59750000D02*
X59100000Y-60150000D01*
X59100000Y-60150000D02*
X58900000Y-60150000D01*
X58049999Y-39850001D02*
X54850001Y-39850001D01*
X58049999Y-46149999D02*
X54850001Y-46149999D01*
X59100000Y-45750000D02*
X59100000Y-46150000D01*
X59100000Y-46150000D02*
X58900000Y-46150000D01*
X36850000Y-46337500D02*
X37650000Y-46337500D01*
X42807836Y-44090000D02*
X42592164Y-44090000D01*
X42807836Y-44810000D02*
X42592164Y-44810000D01*
X38060000Y-50290580D02*
X38060000Y-50009420D01*
X37040000Y-50290580D02*
X37040000Y-50009420D01*
X50703641Y-49580000D02*
X50396359Y-49580000D01*
X50703641Y-48820000D02*
X50396359Y-48820000D01*
X44953641Y-55280000D02*
X44646359Y-55280000D01*
X44953641Y-54520000D02*
X44646359Y-54520000D01*
X48610000Y-53610000D02*
X48610000Y-53135000D01*
X48610000Y-46390000D02*
X48610000Y-46865000D01*
X41390000Y-53610000D02*
X41390000Y-53135000D01*
X41865000Y-46390000D02*
X41390000Y-46390000D01*
X48135000Y-46390000D02*
X48610000Y-46390000D01*
X41865000Y-53610000D02*
X41390000Y-53610000D01*
X48135000Y-53610000D02*
X48610000Y-53610000D01*
D13*
X41150000Y-46900000D02*
G75*
G03*
X41150000Y-46900000I-100000J0D01*
G01*
D12*
X44907836Y-55490000D02*
X44692164Y-55490000D01*
X44907836Y-56210000D02*
X44692164Y-56210000D01*
X47980000Y-55563641D02*
X47980000Y-55256359D01*
X47220000Y-55563641D02*
X47220000Y-55256359D01*
X50910000Y-50492164D02*
X50910000Y-50707836D01*
X50190000Y-50492164D02*
X50190000Y-50707836D01*
D14*
X43950000Y-36800000D02*
X43950000Y-38980000D01*
X49550000Y-43400000D02*
X50550000Y-42400000D01*
X43950000Y-41220000D02*
X43950000Y-43400000D01*
X50550000Y-37800000D02*
X49550000Y-36800000D01*
X43950000Y-43400000D02*
X49550000Y-43400000D01*
X50550000Y-42400000D02*
X50550000Y-41220000D01*
X49550000Y-36800000D02*
X43950000Y-36800000D01*
X50550000Y-38980000D02*
X50550000Y-37800000D01*
D12*
X42506359Y-55690000D02*
X42813641Y-55690000D01*
X42506359Y-56450000D02*
X42813641Y-56450000D01*
X49896359Y-53920000D02*
X50203641Y-53920000D01*
X49896359Y-54680000D02*
X50203641Y-54680000D01*
X38830000Y-42453641D02*
X38830000Y-42146359D01*
X38070000Y-42453641D02*
X38070000Y-42146359D01*
X50260000Y-47012164D02*
X50260000Y-47227836D01*
X49540000Y-47012164D02*
X49540000Y-47227836D01*
X38070000Y-44503641D02*
X38070000Y-44196359D01*
X38830000Y-44503641D02*
X38830000Y-44196359D01*
X42853641Y-45780000D02*
X42546359Y-45780000D01*
X42853641Y-45020000D02*
X42546359Y-45020000D01*
X40580000Y-47316359D02*
X40580000Y-47623641D01*
X39820000Y-47316359D02*
X39820000Y-47623641D01*
X40890000Y-45027836D02*
X40890000Y-44812164D01*
X41610000Y-45027836D02*
X41610000Y-44812164D01*
X48960000Y-55312164D02*
X48960000Y-55527836D01*
X48240000Y-55312164D02*
X48240000Y-55527836D01*
X40760000Y-52272164D02*
X40760000Y-52487836D01*
X40040000Y-52272164D02*
X40040000Y-52487836D01*
X51286359Y-47170000D02*
X51593641Y-47170000D01*
X51286359Y-47930000D02*
X51593641Y-47930000D01*
X36850000Y-43362500D02*
X37650000Y-43362500D01*
X42803641Y-54740000D02*
X42496359Y-54740000D01*
X42803641Y-55500000D02*
X42496359Y-55500000D01*
X52403641Y-44820000D02*
X52096359Y-44820000D01*
X52403641Y-45580000D02*
X52096359Y-45580000D01*
D14*
X49550000Y-56600000D02*
X43950000Y-56600000D01*
X50550000Y-58780000D02*
X50550000Y-57600000D01*
X43950000Y-56600000D02*
X43950000Y-58780000D01*
X49550000Y-63200000D02*
X50550000Y-62200000D01*
X43950000Y-61020000D02*
X43950000Y-63200000D01*
X50550000Y-62200000D02*
X50550000Y-61020000D01*
X50550000Y-57600000D02*
X49550000Y-56600000D01*
X43950000Y-63200000D02*
X49550000Y-63200000D01*
D12*
X39560000Y-50009420D02*
X39560000Y-50290580D01*
X38540000Y-50009420D02*
X38540000Y-50290580D01*
X38890000Y-47342164D02*
X38890000Y-47557836D01*
X39610000Y-47342164D02*
X39610000Y-47557836D01*
X50203641Y-52970000D02*
X49896359Y-52970000D01*
X50203641Y-53730000D02*
X49896359Y-53730000D01*
X52246359Y-53630000D02*
X52553641Y-53630000D01*
X52246359Y-52870000D02*
X52553641Y-52870000D01*
%LPC*%
D15*
X58800000Y-52500000D03*
X58800000Y-52000001D03*
D16*
X58600000Y-49511000D03*
D17*
X54300000Y-49490000D03*
D15*
X54100000Y-52000001D03*
X54100000Y-52500000D03*
D18*
X58565000Y-53012999D03*
X58565000Y-46987001D03*
X54335000Y-46987001D03*
X54335000Y-53012999D03*
D19*
X56450000Y-50000000D03*
D15*
X58800000Y-59500000D03*
X58800000Y-59000001D03*
D16*
X58600000Y-56511000D03*
D17*
X54300000Y-56490000D03*
D15*
X54100000Y-59000001D03*
X54100000Y-59500000D03*
D18*
X58565000Y-60012999D03*
X58565000Y-53987001D03*
X54335000Y-53987001D03*
X54335000Y-60012999D03*
D19*
X56450000Y-57000000D03*
D15*
X58800000Y-45500000D03*
X58800000Y-45000001D03*
D16*
X58600000Y-42511000D03*
D17*
X54300000Y-42490000D03*
D15*
X54100000Y-45000001D03*
X54100000Y-45500000D03*
D18*
X58565000Y-46012999D03*
X58565000Y-39987001D03*
X54335000Y-39987001D03*
X54335000Y-46012999D03*
D19*
X56450000Y-43000000D03*
D20*
X40108500Y-45900000D03*
D21*
X39116500Y-45900000D03*
D22*
X61850000Y-53550000D03*
X61850000Y-49750000D03*
X56450000Y-38100000D03*
D23*
X37250000Y-45775000D03*
X37250000Y-44200000D03*
D24*
X43180000Y-44450000D03*
X42220000Y-44450000D03*
D25*
X37550000Y-50925000D03*
X37550000Y-49375000D03*
D26*
X37750000Y-56750000D03*
X39550000Y-56750000D03*
D27*
X39375000Y-58550000D03*
X39375000Y-54950000D03*
X37925000Y-54950000D03*
X37925000Y-58550000D03*
D28*
X51060000Y-49200000D03*
X50040000Y-49200000D03*
X45310000Y-54900000D03*
X44290000Y-54900000D03*
D29*
X41562500Y-47250000D03*
X41562500Y-47750000D03*
X41562500Y-48250000D03*
X41562500Y-48750000D03*
X41562500Y-49250000D03*
X41562500Y-49750000D03*
X41562500Y-50250000D03*
X41562500Y-50750000D03*
X41562500Y-51250000D03*
X41562500Y-51750000D03*
X41562500Y-52250000D03*
X41562500Y-52750000D03*
D30*
X42250000Y-53437500D03*
X42750000Y-53437500D03*
X43250000Y-53437500D03*
X43750000Y-53437500D03*
X44250000Y-53437500D03*
X44750000Y-53437500D03*
X45250000Y-53437500D03*
X45750000Y-53437500D03*
X46250000Y-53437500D03*
X46750000Y-53437500D03*
X47250000Y-53437500D03*
X47750000Y-53437500D03*
D29*
X48437500Y-52750000D03*
X48437500Y-52250000D03*
X48437500Y-51750000D03*
X48437500Y-51250000D03*
X48437500Y-50750000D03*
X48437500Y-50250000D03*
X48437500Y-49750000D03*
X48437500Y-49250000D03*
X48437500Y-48750000D03*
X48437500Y-48250000D03*
X48437500Y-47750000D03*
X48437500Y-47250000D03*
D30*
X47750000Y-46562500D03*
X47250000Y-46562500D03*
X46750000Y-46562500D03*
X46250000Y-46562500D03*
X45750000Y-46562500D03*
X45250000Y-46562500D03*
X44750000Y-46562500D03*
X44250000Y-46562500D03*
X43750000Y-46562500D03*
X43250000Y-46562500D03*
X42750000Y-46562500D03*
X42250000Y-46562500D03*
D31*
X45000000Y-50000000D03*
D24*
X45280000Y-55850000D03*
X44320000Y-55850000D03*
D32*
X47600000Y-55920000D03*
X47600000Y-54900000D03*
D33*
X50550000Y-50120000D03*
X50550000Y-51080000D03*
D34*
X49750000Y-40100000D03*
X44750000Y-40100000D03*
D35*
X42150000Y-56070000D03*
X43170000Y-56070000D03*
X49540000Y-54300000D03*
X50560000Y-54300000D03*
D32*
X38450000Y-42810000D03*
X38450000Y-41790000D03*
D33*
X49900000Y-46640000D03*
X49900000Y-47600000D03*
D36*
X41800000Y-60100000D03*
D37*
X37800000Y-52225000D03*
X37800000Y-53575000D03*
D22*
X61850000Y-46350000D03*
D32*
X38450000Y-44860000D03*
X38450000Y-43840000D03*
D28*
X43210000Y-45400000D03*
X42190000Y-45400000D03*
D22*
X61850000Y-42550000D03*
D38*
X40200000Y-46960000D03*
X40200000Y-47980000D03*
D39*
X41250000Y-45400000D03*
X41250000Y-44440000D03*
D33*
X48600000Y-54940000D03*
X48600000Y-55900000D03*
X40400000Y-51900000D03*
X40400000Y-52860000D03*
D35*
X50930000Y-47550000D03*
X51950000Y-47550000D03*
D23*
X37250000Y-42800000D03*
X37250000Y-41225000D03*
D36*
X41800000Y-62350000D03*
D28*
X43160000Y-55120000D03*
X42140000Y-55120000D03*
X52760000Y-45200000D03*
X51740000Y-45200000D03*
D40*
X40700000Y-54525500D03*
D41*
X40700000Y-55517500D03*
D22*
X56450000Y-61900000D03*
D34*
X49750000Y-59900000D03*
X44750000Y-59900000D03*
D42*
X39050000Y-49375000D03*
X39050000Y-50925000D03*
D40*
X37500000Y-48224500D03*
D41*
X37500000Y-47232500D03*
D22*
X61850000Y-56950000D03*
D33*
X39250000Y-46970000D03*
X39250000Y-47930000D03*
D28*
X50560000Y-53350000D03*
X49540000Y-53350000D03*
D35*
X51890000Y-53250000D03*
X52910000Y-53250000D03*
M02*
