M48
; DRILL file {KiCad (6.0.7-1)-1} date Friday, January 06, 2023 at 03:53:44 AM
; FORMAT={-:-/ absolute / metric / decimal}
; #@! TF.CreationDate,2023-01-06T03:53:44-05:00
; #@! TF.GenerationSoftware,Kicad,Pcbnew,(6.0.7-1)-1
; #@! TF.FileFunction,Plated,1,4,PTH
FMAT,2
METRIC
; #@! TA.AperFunction,Plated,PTH,ViaDrill
T1C0.200
; #@! TA.AperFunction,Plated,PTH,ComponentDrill
T2C1.250
; #@! TA.AperFunction,Plated,PTH,ComponentDrill
T3C1.700
%
G90
G05
T1
X37.1Y-40.2
X38.0Y-55.85
X38.15Y-51.35
X38.948Y-44.121
X38.95Y-50.3
X39.0Y-41.05
X39.55Y-49.85
X39.7Y-42.95
X39.7Y-50.75
X39.75Y-53.0
X39.75Y-57.7
X39.8Y-55.8
X39.9Y-52.2
X40.0Y-49.15
X40.3Y-44.45
X40.35Y-40.25
X40.45Y-42.8
X40.5Y-50.55
X40.6Y-56.8
X40.65Y-46.75
X41.1Y-45.9
X41.2Y-53.0
X41.35Y-46.6
X41.8Y-58.3
X42.3Y-57.8
X42.75Y-54.4
X43.1Y-47.55
X43.15Y-56.6
X43.35Y-41.75
X43.35Y-60.9
X43.4Y-39.05
X43.8Y-47.8
X43.85Y-60.9
X43.9Y-39.05
X43.9Y-42.55
X43.9Y-43.25
X43.95Y-45.5
X44.35Y-52.35
X44.35Y-60.9
X44.4Y-39.05
X44.557Y-56.893
X44.85Y-60.9
X44.9Y-39.05
X45.05Y-43.2
X45.05Y-52.3
X45.35Y-60.9
X45.4Y-39.05
X45.75Y-54.2
X45.85Y-60.9
X45.9Y-39.05
X46.1Y-54.85
X46.15Y-47.45
X46.35Y-60.9
X46.4Y-39.05
X46.6Y-39.55
X46.6Y-40.05
X46.6Y-40.55
X46.6Y-59.45
X46.6Y-59.95
X46.6Y-60.45
X46.625Y-48.05
X46.8Y-45.675
X46.8Y-54.8
X47.05Y-55.85
X47.25Y-37.25
X47.25Y-43.6
X47.3Y-44.3
X47.3Y-62.85
X47.35Y-50.65
X47.35Y-58.5
X47.4Y-52.25
X47.45Y-51.35
X47.9Y-42.45
X47.9Y-43.25
X48.1Y-54.05
X48.6Y-37.25
X48.6Y-62.85
X48.8Y-57.95
X49.35Y-41.35
X49.35Y-55.3
X49.4Y-42.05
X49.45Y-45.2
X49.6Y-43.7
X49.6Y-56.0
X49.65Y-56.7
X50.05Y-52.6
X50.2Y-45.15
X50.65Y-55.15
X50.7Y-57.55
X50.7Y-58.65
X51.35Y-46.85
X51.35Y-52.05
X51.85Y-40.4
X51.85Y-40.9
X51.85Y-41.4
X51.85Y-41.9
X51.85Y-42.4
X51.85Y-42.9
X51.85Y-43.4
X51.85Y-43.9
X51.85Y-48.55
X51.85Y-54.4
X51.85Y-54.9
X51.85Y-55.4
X51.85Y-55.9
X51.85Y-56.4
X51.85Y-56.9
X51.85Y-57.4
X51.85Y-57.9
X52.05Y-45.95
X52.2Y-47.1
X52.3Y-40.65
X52.3Y-41.15
X52.3Y-41.65
X52.3Y-42.15
X52.3Y-42.65
X52.3Y-43.15
X52.3Y-43.65
X52.3Y-44.15
X52.3Y-48.3
X52.3Y-48.8
X52.3Y-49.3
X52.3Y-49.8
X52.3Y-50.3
X52.3Y-50.8
X52.3Y-51.3
X52.3Y-54.65
X52.3Y-55.15
X52.3Y-55.65
X52.3Y-56.15
X52.3Y-56.65
X52.3Y-57.15
X52.3Y-57.65
X52.3Y-58.15
X52.7Y-52.75
X52.75Y-40.4
X52.75Y-40.9
X52.75Y-41.4
X52.75Y-41.9
X52.75Y-42.4
X52.75Y-42.9
X52.75Y-43.4
X52.75Y-43.9
X52.75Y-44.4
X52.75Y-47.55
X52.75Y-48.05
X52.75Y-48.55
X52.75Y-49.05
X52.75Y-49.55
X52.75Y-50.05
X52.75Y-50.55
X52.75Y-51.05
X52.75Y-51.55
X52.75Y-54.4
X52.75Y-54.9
X52.75Y-55.4
X52.75Y-55.9
X52.75Y-56.4
X52.75Y-56.9
X52.75Y-57.4
X52.75Y-57.9
X52.75Y-58.4
X53.2Y-47.3
X53.2Y-47.8
X53.2Y-48.3
X53.2Y-48.8
X53.2Y-49.3
X53.2Y-49.8
X53.2Y-50.3
X53.2Y-50.8
X53.2Y-51.3
X53.25Y-43.9
X53.25Y-44.4
X53.25Y-57.9
X53.25Y-58.4
X53.35Y-37.2
X53.4Y-62.9
X53.65Y-47.55
X53.65Y-51.05
X53.75Y-44.25
X53.75Y-58.25
X53.85Y-37.2
X53.9Y-62.9
X54.35Y-37.2
X54.4Y-62.9
X55.05Y-41.7
X55.05Y-43.0
X55.05Y-44.35
X55.05Y-48.7
X55.05Y-50.0
X55.05Y-51.35
X55.05Y-55.7
X55.05Y-57.0
X55.05Y-58.3
X55.05Y-59.45
X55.35Y-47.75
X55.45Y-45.25
X56.4Y-56.95
X56.45Y-40.55
X56.45Y-41.7
X56.45Y-43.0
X56.45Y-44.3
X56.45Y-45.45
X56.45Y-47.55
X56.45Y-48.7
X56.45Y-50.0
X56.45Y-51.35
X56.45Y-52.45
X56.45Y-54.55
X56.45Y-55.7
X56.45Y-58.3
X56.45Y-59.45
X57.45Y-46.15
X57.9Y-46.85
X57.9Y-53.65
X58.45Y-39.3
X58.55Y-60.65
X59.35Y-59.75
X59.4Y-59.0
X59.7Y-46.45
X59.7Y-53.5
T2
X41.8Y-60.1
X41.8Y-62.35
T3
X56.45Y-38.1
X56.45Y-61.9
X61.85Y-42.55
X61.85Y-46.35
X61.85Y-49.75
X61.85Y-53.55
X61.85Y-56.95
T0
M30
