G04 #@! TF.GenerationSoftware,KiCad,Pcbnew,(6.0.7-1)-1*
G04 #@! TF.CreationDate,2023-01-06T02:07:53-05:00*
G04 #@! TF.ProjectId,O32controller,4f333263-6f6e-4747-926f-6c6c65722e6b,rev?*
G04 #@! TF.SameCoordinates,Original*
G04 #@! TF.FileFunction,Copper,L3,Inr*
G04 #@! TF.FilePolarity,Positive*
%FSLAX46Y46*%
G04 Gerber Fmt 4.6, Leading zero omitted, Abs format (unit mm)*
G04 Created by KiCad (PCBNEW (6.0.7-1)-1) date 2023-01-06 02:07:53*
%MOMM*%
%LPD*%
G01*
G04 APERTURE LIST*
G04 Aperture macros list*
%AMRoundRect*
0 Rectangle with rounded corners*
0 $1 Rounding radius*
0 $2 $3 $4 $5 $6 $7 $8 $9 X,Y pos of 4 corners*
0 Add a 4 corners polygon primitive as box body*
4,1,4,$2,$3,$4,$5,$6,$7,$8,$9,$2,$3,0*
0 Add four circle primitives for the rounded corners*
1,1,$1+$1,$2,$3*
1,1,$1+$1,$4,$5*
1,1,$1+$1,$6,$7*
1,1,$1+$1,$8,$9*
0 Add four rect primitives between the rounded corners*
20,1,$1+$1,$2,$3,$4,$5,0*
20,1,$1+$1,$4,$5,$6,$7,0*
20,1,$1+$1,$6,$7,$8,$9,0*
20,1,$1+$1,$8,$9,$2,$3,0*%
G04 Aperture macros list end*
G04 #@! TA.AperFunction,ComponentPad*
%ADD10RoundRect,0.269607X-1.105393X-1.105393X1.105393X-1.105393X1.105393X1.105393X-1.105393X1.105393X0*%
G04 #@! TD*
G04 #@! TA.AperFunction,ComponentPad*
%ADD11C,0.499999*%
G04 #@! TD*
G04 #@! TA.AperFunction,ComponentPad*
%ADD12RoundRect,0.176470X-0.723530X-0.723530X0.723530X-0.723530X0.723530X0.723530X-0.723530X0.723530X0*%
G04 #@! TD*
G04 #@! TA.AperFunction,ViaPad*
%ADD13C,0.500000*%
G04 #@! TD*
G04 APERTURE END LIST*
D10*
X61850000Y-53550000D03*
X61850000Y-49750000D03*
X56450000Y-38100000D03*
D11*
X55050000Y-48680000D03*
X55050000Y-50000000D03*
X55050000Y-51320000D03*
X56450000Y-50000000D03*
X56450000Y-51320002D03*
X56450000Y-52450000D03*
X56450000Y-48679998D03*
X56450000Y-47550000D03*
D12*
X41800000Y-60100000D03*
D10*
X61850000Y-46350000D03*
D11*
X56450000Y-54550000D03*
X55050000Y-55680000D03*
X56450000Y-58320002D03*
X56450000Y-57000000D03*
X55050000Y-57000000D03*
X56450000Y-55679998D03*
X56450000Y-59450000D03*
X55050000Y-58320000D03*
D10*
X61850000Y-42550000D03*
D12*
X41800000Y-62350000D03*
D11*
X55050000Y-41680000D03*
X55050000Y-44320000D03*
X56450000Y-43000000D03*
X56450000Y-44320002D03*
X56450000Y-40550000D03*
X55050000Y-43000000D03*
X56450000Y-45450000D03*
X56450000Y-41679998D03*
D10*
X56450000Y-61900000D03*
X61850000Y-56950000D03*
D13*
X50700000Y-57550000D03*
X58550000Y-60650000D03*
X49450000Y-45200000D03*
X57450000Y-46150000D03*
X58450000Y-39300000D03*
X49350000Y-41350000D03*
X42300000Y-57800000D03*
X55450000Y-45250000D03*
X39550000Y-49850000D03*
X55350000Y-47750000D03*
X38948342Y-44120808D03*
X44557370Y-56892630D03*
X39000000Y-41050000D03*
X47050000Y-55850000D03*
X41100000Y-45900000D03*
X39900000Y-52200000D03*
X38150000Y-51350000D03*
X47250000Y-43600000D03*
X41350000Y-46600000D03*
X40650000Y-46750000D03*
X47300000Y-44300000D03*
X40500000Y-50550000D03*
X38000000Y-55850000D03*
X46100000Y-54850000D03*
X47900000Y-43250000D03*
X46800000Y-54800000D03*
X49400000Y-42050000D03*
X49600000Y-43700000D03*
X48100000Y-54050000D03*
X39700000Y-42950000D03*
X43350000Y-41750000D03*
X53350000Y-37200000D03*
X53400000Y-62900000D03*
X46600000Y-40050000D03*
X46600000Y-39550000D03*
X38950000Y-50300000D03*
X49350000Y-55300000D03*
X45400000Y-39050000D03*
X44350000Y-60900000D03*
X43900000Y-39050000D03*
X46600000Y-59950000D03*
X47900000Y-42450000D03*
X53900000Y-62900000D03*
X43350000Y-60900000D03*
X41800000Y-58300000D03*
X46600000Y-40550000D03*
X46350000Y-60900000D03*
X46600000Y-59450000D03*
X53850000Y-37200000D03*
X54350000Y-37200000D03*
X39800000Y-55800000D03*
X47350000Y-58500000D03*
X42750000Y-54400000D03*
X54400000Y-62900000D03*
X43400000Y-39050000D03*
X44900000Y-39050000D03*
X44400000Y-39050000D03*
X48600000Y-62850000D03*
X45850000Y-60900000D03*
X51350000Y-46850000D03*
X43950000Y-45500000D03*
X44850000Y-60900000D03*
X45900000Y-39050000D03*
X40350000Y-40250000D03*
X48800000Y-57950000D03*
X43850000Y-60900000D03*
X46400000Y-39050000D03*
X45350000Y-60900000D03*
X45750000Y-54200000D03*
X37100000Y-40200000D03*
X39750000Y-57700000D03*
X50700000Y-58650000D03*
X50200000Y-45150000D03*
X47250000Y-37250000D03*
X39750000Y-53000000D03*
X47300000Y-62850000D03*
X39700000Y-50750000D03*
X46600000Y-60450000D03*
X45050000Y-43200000D03*
X48600000Y-37250000D03*
X46800000Y-45675000D03*
X46625000Y-48050000D03*
X43900000Y-42550000D03*
X43900000Y-43250000D03*
X49600000Y-56000000D03*
X43800000Y-47800000D03*
X49650000Y-56700000D03*
X43100000Y-47550000D03*
X57900000Y-46850000D03*
X52200000Y-47100000D03*
X52700000Y-52750000D03*
X57900000Y-53650000D03*
X50650000Y-55150000D03*
X59350000Y-59750000D03*
X52050000Y-45950000D03*
X59700000Y-46450000D03*
X47450000Y-51350000D03*
X51350000Y-52050000D03*
X59700000Y-53500000D03*
X59400000Y-59000000D03*
X47400000Y-52250000D03*
X51850000Y-43900000D03*
X52750000Y-43400000D03*
X52300000Y-42150000D03*
X51850000Y-43400000D03*
X53750000Y-44250000D03*
X52750000Y-44400000D03*
X52750000Y-41400000D03*
X52300000Y-43650000D03*
X52750000Y-42400000D03*
X52750000Y-42900000D03*
X52750000Y-40400000D03*
X52300000Y-44150000D03*
X52300000Y-42650000D03*
X53250000Y-44400000D03*
X51850000Y-42900000D03*
X52300000Y-41650000D03*
X51850000Y-40900000D03*
X52750000Y-40900000D03*
X51850000Y-41900000D03*
X51850000Y-40400000D03*
X51850000Y-42400000D03*
X52300000Y-41150000D03*
X52300000Y-43150000D03*
X52300000Y-40650000D03*
X51850000Y-41400000D03*
X52750000Y-41900000D03*
X53250000Y-43900000D03*
X52750000Y-43900000D03*
X46150000Y-47450000D03*
X43150000Y-56600000D03*
X53200000Y-50800000D03*
X51850000Y-48550000D03*
X52750000Y-50050000D03*
X53650000Y-51050000D03*
X52300000Y-49300000D03*
X52750000Y-51550000D03*
X52300000Y-51300000D03*
X52750000Y-50550000D03*
X52300000Y-48800000D03*
X53200000Y-48300000D03*
X52750000Y-51050000D03*
X53200000Y-51300000D03*
X52750000Y-48550000D03*
X52300000Y-50800000D03*
X52300000Y-50300000D03*
X53200000Y-47300000D03*
X52750000Y-48050000D03*
X52750000Y-49050000D03*
X52300000Y-48300000D03*
X53650000Y-47550000D03*
X53200000Y-49800000D03*
X53200000Y-50300000D03*
X52750000Y-49550000D03*
X53200000Y-47800000D03*
X53200000Y-48800000D03*
X52300000Y-49800000D03*
X52750000Y-47550000D03*
X53200000Y-49300000D03*
X52750000Y-57400000D03*
X52750000Y-57900000D03*
X51850000Y-57400000D03*
X52750000Y-56900000D03*
X51850000Y-54900000D03*
X52300000Y-56650000D03*
X51850000Y-54400000D03*
X52300000Y-55650000D03*
X52750000Y-58400000D03*
X53250000Y-58400000D03*
X52750000Y-55400000D03*
X52300000Y-57650000D03*
X52300000Y-55150000D03*
X52300000Y-56150000D03*
X52300000Y-57150000D03*
X51850000Y-55400000D03*
X53750000Y-58250000D03*
X52750000Y-56400000D03*
X51850000Y-57900000D03*
X53250000Y-57900000D03*
X52300000Y-54650000D03*
X51850000Y-55900000D03*
X51850000Y-56400000D03*
X52300000Y-58150000D03*
X51850000Y-56900000D03*
X52750000Y-55900000D03*
X52750000Y-54400000D03*
X52750000Y-54900000D03*
X40000000Y-49150000D03*
X50050000Y-52600000D03*
X40300000Y-44450000D03*
X40450000Y-42800000D03*
X45050000Y-52300000D03*
X44350000Y-52350000D03*
X47350000Y-50650000D03*
X40600000Y-56800000D03*
X41200000Y-53000000D03*
G04 #@! TA.AperFunction,Conductor*
G36*
X54839090Y-36720502D02*
G01*
X54885583Y-36774158D01*
X54895687Y-36844432D01*
X54888952Y-36870727D01*
X54880745Y-36892620D01*
X54874500Y-36950108D01*
X54874500Y-39249892D01*
X54880745Y-39307380D01*
X54928014Y-39433471D01*
X54933394Y-39440650D01*
X54933396Y-39440653D01*
X54984911Y-39509388D01*
X55008773Y-39541227D01*
X55015954Y-39546609D01*
X55109347Y-39616604D01*
X55109350Y-39616606D01*
X55116529Y-39621986D01*
X55173977Y-39643522D01*
X55235219Y-39666481D01*
X55235223Y-39666482D01*
X55242620Y-39669255D01*
X55250475Y-39670108D01*
X55250478Y-39670109D01*
X55296709Y-39675131D01*
X55296713Y-39675131D01*
X55300108Y-39675500D01*
X57599892Y-39675500D01*
X57603287Y-39675131D01*
X57603291Y-39675131D01*
X57649522Y-39670109D01*
X57649525Y-39670108D01*
X57657380Y-39669255D01*
X57664777Y-39666482D01*
X57664781Y-39666481D01*
X57726023Y-39643522D01*
X57783471Y-39621986D01*
X57790650Y-39616606D01*
X57790653Y-39616604D01*
X57884046Y-39546609D01*
X57891227Y-39541227D01*
X57891233Y-39541234D01*
X57949553Y-39509388D01*
X58020368Y-39514453D01*
X58072786Y-39551433D01*
X58146639Y-39639291D01*
X58254060Y-39710796D01*
X58377233Y-39749278D01*
X58386203Y-39749442D01*
X58386207Y-39749443D01*
X58444942Y-39750519D01*
X58506255Y-39751643D01*
X58568505Y-39734672D01*
X58622092Y-39720062D01*
X58622093Y-39720062D01*
X58630755Y-39717700D01*
X58638405Y-39713003D01*
X58638407Y-39713002D01*
X58733072Y-39654878D01*
X58733075Y-39654875D01*
X58740724Y-39650179D01*
X58746750Y-39643522D01*
X58821300Y-39561161D01*
X58821303Y-39561157D01*
X58827322Y-39554507D01*
X58883588Y-39438375D01*
X58887674Y-39414092D01*
X58904190Y-39315917D01*
X58904997Y-39311120D01*
X58905133Y-39300000D01*
X58890799Y-39199909D01*
X58888112Y-39181145D01*
X58888111Y-39181142D01*
X58886839Y-39172259D01*
X58883125Y-39164090D01*
X58837145Y-39062962D01*
X58837143Y-39062959D01*
X58833428Y-39054788D01*
X58804618Y-39021352D01*
X58755051Y-38963826D01*
X58755049Y-38963824D01*
X58749193Y-38957028D01*
X58640906Y-38886841D01*
X58632311Y-38884271D01*
X58632310Y-38884270D01*
X58525874Y-38852438D01*
X58525872Y-38852438D01*
X58517273Y-38849866D01*
X58508298Y-38849811D01*
X58508297Y-38849811D01*
X58453641Y-38849477D01*
X58388231Y-38849078D01*
X58376475Y-38852438D01*
X58272786Y-38882072D01*
X58272784Y-38882073D01*
X58264155Y-38884539D01*
X58256564Y-38889329D01*
X58256561Y-38889330D01*
X58218735Y-38913196D01*
X58150450Y-38932630D01*
X58082498Y-38912061D01*
X58036454Y-38858019D01*
X58025500Y-38806634D01*
X58025500Y-38654440D01*
X60108770Y-38654440D01*
X60110107Y-38674837D01*
X60123200Y-38874604D01*
X60124621Y-38880200D01*
X60124622Y-38880205D01*
X60168961Y-39054788D01*
X60177511Y-39088452D01*
X60179928Y-39093694D01*
X60179928Y-39093695D01*
X60216147Y-39172259D01*
X60269883Y-39288821D01*
X60397222Y-39469002D01*
X60555264Y-39622961D01*
X60560060Y-39626166D01*
X60560063Y-39626168D01*
X60644261Y-39682427D01*
X60738717Y-39745540D01*
X60744020Y-39747818D01*
X60744023Y-39747820D01*
X60936129Y-39830355D01*
X60941436Y-39832635D01*
X61021088Y-39850658D01*
X61150995Y-39880054D01*
X61151001Y-39880055D01*
X61156632Y-39881329D01*
X61162403Y-39881556D01*
X61162405Y-39881556D01*
X61230211Y-39884220D01*
X61377098Y-39889991D01*
X61486275Y-39874161D01*
X61589738Y-39859160D01*
X61589743Y-39859159D01*
X61595452Y-39858331D01*
X61600916Y-39856476D01*
X61600921Y-39856475D01*
X61798907Y-39789268D01*
X61798912Y-39789266D01*
X61804379Y-39787410D01*
X61996884Y-39679602D01*
X62001817Y-39675500D01*
X62156790Y-39546609D01*
X62166518Y-39538518D01*
X62220985Y-39473029D01*
X62303908Y-39373326D01*
X62303910Y-39373323D01*
X62307602Y-39368884D01*
X62415410Y-39176379D01*
X62417266Y-39170912D01*
X62417268Y-39170907D01*
X62484475Y-38972921D01*
X62484476Y-38972916D01*
X62486331Y-38967452D01*
X62487159Y-38961743D01*
X62487160Y-38961738D01*
X62517458Y-38752772D01*
X62517991Y-38749098D01*
X62519643Y-38686000D01*
X62499454Y-38466289D01*
X62439565Y-38253936D01*
X62341980Y-38056053D01*
X62209967Y-37879267D01*
X62047949Y-37729499D01*
X61861350Y-37611764D01*
X61656421Y-37530006D01*
X61650761Y-37528880D01*
X61650757Y-37528879D01*
X61445691Y-37488089D01*
X61445688Y-37488089D01*
X61440024Y-37486962D01*
X61434249Y-37486886D01*
X61434245Y-37486886D01*
X61323504Y-37485437D01*
X61219406Y-37484074D01*
X61213709Y-37485053D01*
X61213708Y-37485053D01*
X61007654Y-37520459D01*
X61007653Y-37520459D01*
X61001957Y-37521438D01*
X60794957Y-37597804D01*
X60605341Y-37710614D01*
X60439457Y-37856090D01*
X60302863Y-38029360D01*
X60200131Y-38224620D01*
X60134703Y-38435333D01*
X60108770Y-38654440D01*
X58025500Y-38654440D01*
X58025500Y-36950108D01*
X58019255Y-36892620D01*
X58011048Y-36870727D01*
X58005867Y-36799920D01*
X58039789Y-36737551D01*
X58102045Y-36703424D01*
X58129031Y-36700500D01*
X61276920Y-36700500D01*
X61294242Y-36702466D01*
X61299811Y-36702476D01*
X61313641Y-36705656D01*
X61327484Y-36702524D01*
X61341348Y-36702548D01*
X61349356Y-36702818D01*
X61498779Y-36712611D01*
X61564918Y-36716946D01*
X61581258Y-36719097D01*
X61674033Y-36737551D01*
X61819790Y-36766544D01*
X61835700Y-36770807D01*
X62052593Y-36844432D01*
X62065994Y-36848981D01*
X62081221Y-36855288D01*
X62299346Y-36962856D01*
X62313619Y-36971097D01*
X62515831Y-37106210D01*
X62528906Y-37116243D01*
X62711759Y-37276600D01*
X62723400Y-37288241D01*
X62758124Y-37327836D01*
X62883757Y-37471094D01*
X62893790Y-37484169D01*
X63028903Y-37686381D01*
X63037144Y-37700654D01*
X63144712Y-37918779D01*
X63151018Y-37934005D01*
X63229193Y-38164300D01*
X63233457Y-38180213D01*
X63280903Y-38418742D01*
X63283054Y-38435082D01*
X63297274Y-38652038D01*
X63297544Y-38660499D01*
X63297524Y-38671811D01*
X63294344Y-38685641D01*
X63297475Y-38699480D01*
X63297467Y-38704311D01*
X63299500Y-38722504D01*
X63299500Y-40889714D01*
X63279498Y-40957835D01*
X63225842Y-41004328D01*
X63155568Y-41014432D01*
X63129277Y-41007698D01*
X63057380Y-40980745D01*
X63049525Y-40979892D01*
X63049522Y-40979891D01*
X63003291Y-40974869D01*
X63003287Y-40974869D01*
X62999892Y-40974500D01*
X60700108Y-40974500D01*
X60696713Y-40974869D01*
X60696709Y-40974869D01*
X60650478Y-40979891D01*
X60650475Y-40979892D01*
X60642620Y-40980745D01*
X60635223Y-40983518D01*
X60635219Y-40983519D01*
X60586877Y-41001642D01*
X60516529Y-41028014D01*
X60509350Y-41033394D01*
X60509347Y-41033396D01*
X60420984Y-41099621D01*
X60408773Y-41108773D01*
X60403391Y-41115954D01*
X60333396Y-41209347D01*
X60333394Y-41209350D01*
X60328014Y-41216529D01*
X60310016Y-41264540D01*
X60303362Y-41282290D01*
X60280745Y-41342620D01*
X60279892Y-41350475D01*
X60279891Y-41350478D01*
X60275035Y-41395184D01*
X60274500Y-41400108D01*
X60274500Y-43699892D01*
X60274869Y-43703287D01*
X60274869Y-43703291D01*
X60275720Y-43711120D01*
X60280745Y-43757380D01*
X60283518Y-43764777D01*
X60283519Y-43764781D01*
X60296672Y-43799866D01*
X60328014Y-43883471D01*
X60333394Y-43890650D01*
X60333396Y-43890653D01*
X60400072Y-43979617D01*
X60408773Y-43991227D01*
X60415954Y-43996609D01*
X60509347Y-44066604D01*
X60509350Y-44066606D01*
X60516529Y-44071986D01*
X60556902Y-44087121D01*
X60635219Y-44116481D01*
X60635223Y-44116482D01*
X60642620Y-44119255D01*
X60650475Y-44120108D01*
X60650478Y-44120109D01*
X60696709Y-44125131D01*
X60696713Y-44125131D01*
X60700108Y-44125500D01*
X62999892Y-44125500D01*
X63003287Y-44125131D01*
X63003291Y-44125131D01*
X63049522Y-44120109D01*
X63049525Y-44120108D01*
X63057380Y-44119255D01*
X63129273Y-44092304D01*
X63200077Y-44087121D01*
X63262446Y-44121042D01*
X63296576Y-44183297D01*
X63299500Y-44210286D01*
X63299500Y-48089714D01*
X63279498Y-48157835D01*
X63225842Y-48204328D01*
X63155568Y-48214432D01*
X63129277Y-48207698D01*
X63057380Y-48180745D01*
X63049525Y-48179892D01*
X63049522Y-48179891D01*
X63003291Y-48174869D01*
X63003287Y-48174869D01*
X62999892Y-48174500D01*
X60700108Y-48174500D01*
X60696713Y-48174869D01*
X60696709Y-48174869D01*
X60650478Y-48179891D01*
X60650475Y-48179892D01*
X60642620Y-48180745D01*
X60635223Y-48183518D01*
X60635219Y-48183519D01*
X60594970Y-48198608D01*
X60516529Y-48228014D01*
X60509350Y-48233394D01*
X60509347Y-48233396D01*
X60425239Y-48296432D01*
X60408773Y-48308773D01*
X60403391Y-48315954D01*
X60333396Y-48409347D01*
X60333394Y-48409350D01*
X60328014Y-48416529D01*
X60313284Y-48455821D01*
X60284838Y-48531703D01*
X60280745Y-48542620D01*
X60279892Y-48550475D01*
X60279891Y-48550478D01*
X60278732Y-48561147D01*
X60274500Y-48600108D01*
X60274500Y-50899892D01*
X60274869Y-50903287D01*
X60274869Y-50903291D01*
X60278514Y-50936841D01*
X60280745Y-50957380D01*
X60283518Y-50964777D01*
X60283519Y-50964781D01*
X60301905Y-51013826D01*
X60328014Y-51083471D01*
X60333394Y-51090650D01*
X60333396Y-51090653D01*
X60400500Y-51180188D01*
X60408773Y-51191227D01*
X60415954Y-51196609D01*
X60509347Y-51266604D01*
X60509350Y-51266606D01*
X60516529Y-51271986D01*
X60580340Y-51295907D01*
X60635219Y-51316481D01*
X60635223Y-51316482D01*
X60642620Y-51319255D01*
X60650475Y-51320108D01*
X60650478Y-51320109D01*
X60696709Y-51325131D01*
X60696713Y-51325131D01*
X60700108Y-51325500D01*
X62999892Y-51325500D01*
X63003287Y-51325131D01*
X63003291Y-51325131D01*
X63049522Y-51320109D01*
X63049525Y-51320108D01*
X63057380Y-51319255D01*
X63129273Y-51292304D01*
X63200077Y-51287121D01*
X63262446Y-51321042D01*
X63296576Y-51383297D01*
X63299500Y-51410286D01*
X63299500Y-55289714D01*
X63279498Y-55357835D01*
X63225842Y-55404328D01*
X63155568Y-55414432D01*
X63129277Y-55407698D01*
X63057380Y-55380745D01*
X63049525Y-55379892D01*
X63049522Y-55379891D01*
X63003291Y-55374869D01*
X63003287Y-55374869D01*
X62999892Y-55374500D01*
X60700108Y-55374500D01*
X60696713Y-55374869D01*
X60696709Y-55374869D01*
X60650478Y-55379891D01*
X60650475Y-55379892D01*
X60642620Y-55380745D01*
X60635223Y-55383518D01*
X60635219Y-55383519D01*
X60584753Y-55402438D01*
X60516529Y-55428014D01*
X60509350Y-55433394D01*
X60509347Y-55433396D01*
X60429122Y-55493522D01*
X60408773Y-55508773D01*
X60403391Y-55515954D01*
X60333396Y-55609347D01*
X60333394Y-55609350D01*
X60328014Y-55616529D01*
X60309631Y-55665567D01*
X60285047Y-55731145D01*
X60280745Y-55742620D01*
X60279892Y-55750475D01*
X60279891Y-55750478D01*
X60278104Y-55766932D01*
X60274500Y-55800108D01*
X60274500Y-58099892D01*
X60274869Y-58103287D01*
X60274869Y-58103291D01*
X60279321Y-58144268D01*
X60280745Y-58157380D01*
X60283518Y-58164777D01*
X60283519Y-58164781D01*
X60300770Y-58210796D01*
X60328014Y-58283471D01*
X60333394Y-58290650D01*
X60333396Y-58290653D01*
X60400500Y-58380188D01*
X60408773Y-58391227D01*
X60415954Y-58396609D01*
X60509347Y-58466604D01*
X60509350Y-58466606D01*
X60516529Y-58471986D01*
X60570728Y-58492304D01*
X60635219Y-58516481D01*
X60635223Y-58516482D01*
X60642620Y-58519255D01*
X60650475Y-58520108D01*
X60650478Y-58520109D01*
X60696709Y-58525131D01*
X60696713Y-58525131D01*
X60700108Y-58525500D01*
X62999892Y-58525500D01*
X63003287Y-58525131D01*
X63003291Y-58525131D01*
X63049522Y-58520109D01*
X63049525Y-58520108D01*
X63057380Y-58519255D01*
X63129273Y-58492304D01*
X63200077Y-58487121D01*
X63262446Y-58521042D01*
X63296576Y-58583297D01*
X63299500Y-58610286D01*
X63299500Y-61276920D01*
X63297534Y-61294242D01*
X63297524Y-61299811D01*
X63294344Y-61313641D01*
X63297476Y-61327484D01*
X63297452Y-61341348D01*
X63297182Y-61349356D01*
X63288605Y-61480225D01*
X63283054Y-61564918D01*
X63280903Y-61581258D01*
X63237033Y-61801811D01*
X63233457Y-61819787D01*
X63229193Y-61835700D01*
X63159133Y-62042092D01*
X63151019Y-62065994D01*
X63144712Y-62081221D01*
X63037144Y-62299346D01*
X63028903Y-62313619D01*
X62893790Y-62515831D01*
X62883757Y-62528906D01*
X62723400Y-62711759D01*
X62711759Y-62723400D01*
X62529299Y-62883412D01*
X62528906Y-62883757D01*
X62515831Y-62893790D01*
X62313619Y-63028903D01*
X62299346Y-63037144D01*
X62081221Y-63144712D01*
X62065995Y-63151018D01*
X61835700Y-63229193D01*
X61819790Y-63233456D01*
X61700522Y-63257180D01*
X61581258Y-63280903D01*
X61564918Y-63283054D01*
X61361361Y-63296396D01*
X61349366Y-63297182D01*
X61347962Y-63297274D01*
X61339501Y-63297544D01*
X61328189Y-63297524D01*
X61314359Y-63294344D01*
X61300520Y-63297475D01*
X61295689Y-63297467D01*
X61277496Y-63299500D01*
X58129031Y-63299500D01*
X58060910Y-63279498D01*
X58014417Y-63225842D01*
X58004313Y-63155568D01*
X58011048Y-63129273D01*
X58016481Y-63114780D01*
X58016481Y-63114779D01*
X58019255Y-63107380D01*
X58025500Y-63049892D01*
X58025500Y-61282440D01*
X60108770Y-61282440D01*
X60110107Y-61302837D01*
X60123200Y-61502604D01*
X60124621Y-61508200D01*
X60124622Y-61508205D01*
X60176090Y-61710857D01*
X60177511Y-61716452D01*
X60179928Y-61721694D01*
X60179928Y-61721695D01*
X60216862Y-61801811D01*
X60269883Y-61916821D01*
X60397222Y-62097002D01*
X60555264Y-62250961D01*
X60560060Y-62254166D01*
X60560063Y-62254168D01*
X60706226Y-62351830D01*
X60738717Y-62373540D01*
X60744020Y-62375818D01*
X60744023Y-62375820D01*
X60858700Y-62425089D01*
X60941436Y-62460635D01*
X61021088Y-62478658D01*
X61150995Y-62508054D01*
X61151001Y-62508055D01*
X61156632Y-62509329D01*
X61162403Y-62509556D01*
X61162405Y-62509556D01*
X61230211Y-62512220D01*
X61377098Y-62517991D01*
X61486275Y-62502161D01*
X61589738Y-62487160D01*
X61589743Y-62487159D01*
X61595452Y-62486331D01*
X61600916Y-62484476D01*
X61600921Y-62484475D01*
X61798907Y-62417268D01*
X61798912Y-62417266D01*
X61804379Y-62415410D01*
X61996884Y-62307602D01*
X62166518Y-62166518D01*
X62220985Y-62101029D01*
X62303908Y-62001326D01*
X62303910Y-62001323D01*
X62307602Y-61996884D01*
X62415410Y-61804379D01*
X62417266Y-61798912D01*
X62417268Y-61798907D01*
X62484475Y-61600921D01*
X62484476Y-61600916D01*
X62486331Y-61595452D01*
X62487159Y-61589743D01*
X62487160Y-61589738D01*
X62517458Y-61380772D01*
X62517991Y-61377098D01*
X62519643Y-61314000D01*
X62499454Y-61094289D01*
X62492622Y-61070062D01*
X62466548Y-60977610D01*
X62439565Y-60881936D01*
X62341980Y-60684053D01*
X62321225Y-60656258D01*
X62213420Y-60511891D01*
X62213420Y-60511890D01*
X62209967Y-60507267D01*
X62112586Y-60417249D01*
X62052189Y-60361418D01*
X62052186Y-60361416D01*
X62047949Y-60357499D01*
X61861350Y-60239764D01*
X61656421Y-60158006D01*
X61650761Y-60156880D01*
X61650757Y-60156879D01*
X61445691Y-60116089D01*
X61445688Y-60116089D01*
X61440024Y-60114962D01*
X61434249Y-60114886D01*
X61434245Y-60114886D01*
X61323504Y-60113437D01*
X61219406Y-60112074D01*
X61213709Y-60113053D01*
X61213708Y-60113053D01*
X61007654Y-60148459D01*
X61007653Y-60148459D01*
X61001957Y-60149438D01*
X60794957Y-60225804D01*
X60789996Y-60228756D01*
X60789995Y-60228756D01*
X60618568Y-60330745D01*
X60605341Y-60338614D01*
X60439457Y-60484090D01*
X60302863Y-60657360D01*
X60200131Y-60852620D01*
X60167250Y-60958514D01*
X60137036Y-61055821D01*
X60134703Y-61063333D01*
X60108770Y-61282440D01*
X58025500Y-61282440D01*
X58025500Y-61071539D01*
X58045502Y-61003418D01*
X58099158Y-60956925D01*
X58169432Y-60946821D01*
X58235484Y-60977610D01*
X58240863Y-60982419D01*
X58246639Y-60989291D01*
X58254110Y-60994264D01*
X58254111Y-60994265D01*
X58270055Y-61004878D01*
X58354060Y-61060796D01*
X58477233Y-61099278D01*
X58486203Y-61099442D01*
X58486207Y-61099443D01*
X58544942Y-61100519D01*
X58606255Y-61101643D01*
X58716674Y-61071539D01*
X58722092Y-61070062D01*
X58722093Y-61070062D01*
X58730755Y-61067700D01*
X58738405Y-61063003D01*
X58738407Y-61063002D01*
X58833072Y-61004878D01*
X58833075Y-61004875D01*
X58840724Y-61000179D01*
X58846750Y-60993522D01*
X58921300Y-60911161D01*
X58921303Y-60911157D01*
X58927322Y-60904507D01*
X58983588Y-60788375D01*
X59004997Y-60661120D01*
X59005133Y-60650000D01*
X58993179Y-60566529D01*
X58988112Y-60531145D01*
X58988111Y-60531142D01*
X58986839Y-60522259D01*
X58978242Y-60503351D01*
X58937145Y-60412962D01*
X58937143Y-60412959D01*
X58933428Y-60404788D01*
X58896058Y-60361418D01*
X58855051Y-60313826D01*
X58855049Y-60313824D01*
X58849193Y-60307028D01*
X58740906Y-60236841D01*
X58732311Y-60234271D01*
X58732310Y-60234270D01*
X58625874Y-60202438D01*
X58625872Y-60202438D01*
X58617273Y-60199866D01*
X58608298Y-60199811D01*
X58608297Y-60199811D01*
X58553641Y-60199477D01*
X58488231Y-60199078D01*
X58476475Y-60202438D01*
X58372786Y-60232072D01*
X58372784Y-60232073D01*
X58364155Y-60234539D01*
X58255019Y-60303399D01*
X58169596Y-60400122D01*
X58165781Y-60408247D01*
X58165780Y-60408249D01*
X58134568Y-60474729D01*
X58087512Y-60527892D01*
X58019184Y-60547174D01*
X57951278Y-60526455D01*
X57919688Y-60496747D01*
X57896610Y-60465955D01*
X57896609Y-60465954D01*
X57891227Y-60458773D01*
X57830102Y-60412962D01*
X57790653Y-60383396D01*
X57790650Y-60383394D01*
X57783471Y-60378014D01*
X57719660Y-60354093D01*
X57664781Y-60333519D01*
X57664777Y-60333518D01*
X57657380Y-60330745D01*
X57649525Y-60329892D01*
X57649522Y-60329891D01*
X57603291Y-60324869D01*
X57603287Y-60324869D01*
X57599892Y-60324500D01*
X55300108Y-60324500D01*
X55296713Y-60324869D01*
X55296709Y-60324869D01*
X55250478Y-60329891D01*
X55250475Y-60329892D01*
X55242620Y-60330745D01*
X55235223Y-60333518D01*
X55235219Y-60333519D01*
X55180340Y-60354093D01*
X55116529Y-60378014D01*
X55109350Y-60383394D01*
X55109347Y-60383396D01*
X55069898Y-60412962D01*
X55008773Y-60458773D01*
X55003391Y-60465954D01*
X54933396Y-60559347D01*
X54933394Y-60559350D01*
X54928014Y-60566529D01*
X54924864Y-60574933D01*
X54883957Y-60684053D01*
X54880745Y-60692620D01*
X54874500Y-60750108D01*
X54874500Y-63049892D01*
X54880745Y-63107380D01*
X54883519Y-63114779D01*
X54883519Y-63114780D01*
X54888952Y-63129273D01*
X54894133Y-63200080D01*
X54860211Y-63262449D01*
X54797955Y-63296576D01*
X54770969Y-63299500D01*
X38723080Y-63299500D01*
X38705758Y-63297534D01*
X38700189Y-63297524D01*
X38686359Y-63294344D01*
X38672516Y-63297476D01*
X38658652Y-63297452D01*
X38650644Y-63297182D01*
X38501221Y-63287389D01*
X38435082Y-63283054D01*
X38418742Y-63280903D01*
X38299478Y-63257180D01*
X38180210Y-63233456D01*
X38164300Y-63229193D01*
X37934005Y-63151018D01*
X37918779Y-63144712D01*
X37700654Y-63037144D01*
X37686381Y-63028903D01*
X37484169Y-62893790D01*
X37471094Y-62883757D01*
X37470701Y-62883412D01*
X37288241Y-62723400D01*
X37276600Y-62711759D01*
X37116243Y-62528906D01*
X37106210Y-62515831D01*
X36971097Y-62313619D01*
X36962856Y-62299346D01*
X36855288Y-62081221D01*
X36848981Y-62065994D01*
X36840867Y-62042092D01*
X36770807Y-61835700D01*
X36766543Y-61819787D01*
X36762968Y-61801811D01*
X36719097Y-61581258D01*
X36716946Y-61564918D01*
X36702850Y-61349855D01*
X36703406Y-61327209D01*
X36704043Y-61321673D01*
X36705655Y-61314718D01*
X36705656Y-61314000D01*
X36703654Y-61305225D01*
X36701089Y-61282440D01*
X37480770Y-61282440D01*
X37482107Y-61302837D01*
X37495200Y-61502604D01*
X37496621Y-61508200D01*
X37496622Y-61508205D01*
X37548090Y-61710857D01*
X37549511Y-61716452D01*
X37551928Y-61721694D01*
X37551928Y-61721695D01*
X37588862Y-61801811D01*
X37641883Y-61916821D01*
X37769222Y-62097002D01*
X37927264Y-62250961D01*
X37932060Y-62254166D01*
X37932063Y-62254168D01*
X38078226Y-62351830D01*
X38110717Y-62373540D01*
X38116020Y-62375818D01*
X38116023Y-62375820D01*
X38230700Y-62425089D01*
X38313436Y-62460635D01*
X38393088Y-62478658D01*
X38522995Y-62508054D01*
X38523001Y-62508055D01*
X38528632Y-62509329D01*
X38534403Y-62509556D01*
X38534405Y-62509556D01*
X38602211Y-62512220D01*
X38749098Y-62517991D01*
X38858275Y-62502161D01*
X38961738Y-62487160D01*
X38961743Y-62487159D01*
X38967452Y-62486331D01*
X38972916Y-62484476D01*
X38972921Y-62484475D01*
X39170907Y-62417268D01*
X39170912Y-62417266D01*
X39176379Y-62415410D01*
X39368884Y-62307602D01*
X39538518Y-62166518D01*
X39592985Y-62101029D01*
X39675908Y-62001326D01*
X39675910Y-62001323D01*
X39679602Y-61996884D01*
X39787410Y-61804379D01*
X39789266Y-61798912D01*
X39789268Y-61798907D01*
X39856475Y-61600921D01*
X39856476Y-61600916D01*
X39858331Y-61595452D01*
X39859159Y-61589743D01*
X39859160Y-61589738D01*
X39889458Y-61380772D01*
X39889991Y-61377098D01*
X39891643Y-61314000D01*
X39871454Y-61094289D01*
X39864622Y-61070062D01*
X39838548Y-60977610D01*
X39811565Y-60881936D01*
X39800381Y-60859258D01*
X40699500Y-60859258D01*
X40700170Y-60863806D01*
X40700170Y-60863813D01*
X40702075Y-60876753D01*
X40710407Y-60933354D01*
X40765718Y-61046007D01*
X40854536Y-61134670D01*
X40967285Y-61189784D01*
X40976962Y-61191196D01*
X40976963Y-61191196D01*
X41036215Y-61199840D01*
X41036221Y-61199840D01*
X41040742Y-61200500D01*
X42559258Y-61200500D01*
X42563806Y-61199830D01*
X42563813Y-61199830D01*
X42604825Y-61193793D01*
X42633354Y-61189593D01*
X42642144Y-61185277D01*
X42642145Y-61185277D01*
X42688851Y-61162345D01*
X42746007Y-61134282D01*
X42834670Y-61045464D01*
X42889784Y-60932715D01*
X42891196Y-60923037D01*
X42899840Y-60863785D01*
X42899840Y-60863779D01*
X42900500Y-60859258D01*
X42900500Y-59444440D01*
X55994902Y-59444440D01*
X55996066Y-59453342D01*
X55996066Y-59453345D01*
X56010469Y-59563489D01*
X56010470Y-59563493D01*
X56011634Y-59572394D01*
X56063606Y-59690509D01*
X56069383Y-59697382D01*
X56069384Y-59697383D01*
X56080967Y-59711163D01*
X56146640Y-59789290D01*
X56254061Y-59860795D01*
X56377233Y-59899277D01*
X56386203Y-59899441D01*
X56386207Y-59899442D01*
X56444942Y-59900518D01*
X56506255Y-59901642D01*
X56587375Y-59879526D01*
X56622092Y-59870061D01*
X56622093Y-59870061D01*
X56630755Y-59867699D01*
X56638405Y-59863002D01*
X56638407Y-59863001D01*
X56733076Y-59804874D01*
X56733077Y-59804874D01*
X56740724Y-59800178D01*
X56791176Y-59744440D01*
X58894901Y-59744440D01*
X58896065Y-59753342D01*
X58896065Y-59753345D01*
X58910468Y-59863489D01*
X58910469Y-59863493D01*
X58911633Y-59872394D01*
X58963605Y-59990510D01*
X59046639Y-60089291D01*
X59154060Y-60160796D01*
X59277233Y-60199278D01*
X59286203Y-60199442D01*
X59286207Y-60199443D01*
X59344942Y-60200519D01*
X59406255Y-60201643D01*
X59468505Y-60184671D01*
X59522092Y-60170062D01*
X59522093Y-60170062D01*
X59530755Y-60167700D01*
X59538405Y-60163003D01*
X59538407Y-60163002D01*
X59633072Y-60104878D01*
X59633075Y-60104875D01*
X59640724Y-60100179D01*
X59646750Y-60093522D01*
X59721300Y-60011161D01*
X59721303Y-60011157D01*
X59727322Y-60004507D01*
X59783588Y-59888375D01*
X59787067Y-59867699D01*
X59804190Y-59765917D01*
X59804997Y-59761120D01*
X59805133Y-59750000D01*
X59786839Y-59622259D01*
X59733428Y-59504788D01*
X59727568Y-59497987D01*
X59727564Y-59497981D01*
X59716989Y-59485708D01*
X59687677Y-59421045D01*
X59697977Y-59350800D01*
X59719029Y-59318908D01*
X59771300Y-59261160D01*
X59777322Y-59254507D01*
X59833588Y-59138375D01*
X59846584Y-59061130D01*
X59854190Y-59015917D01*
X59854997Y-59011120D01*
X59855133Y-59000000D01*
X59836839Y-58872259D01*
X59830724Y-58858809D01*
X59787145Y-58762962D01*
X59787143Y-58762959D01*
X59783428Y-58754788D01*
X59737636Y-58701643D01*
X59705051Y-58663826D01*
X59705049Y-58663824D01*
X59699193Y-58657028D01*
X59590906Y-58586841D01*
X59582311Y-58584271D01*
X59582310Y-58584270D01*
X59475874Y-58552438D01*
X59475872Y-58552438D01*
X59467273Y-58549866D01*
X59458298Y-58549811D01*
X59458297Y-58549811D01*
X59403641Y-58549477D01*
X59338231Y-58549078D01*
X59287864Y-58563473D01*
X59222786Y-58582072D01*
X59222784Y-58582073D01*
X59214155Y-58584539D01*
X59105019Y-58653399D01*
X59099076Y-58660128D01*
X59099075Y-58660129D01*
X59090200Y-58670178D01*
X59019596Y-58750122D01*
X59015782Y-58758245D01*
X59015781Y-58758247D01*
X59010603Y-58769277D01*
X58964754Y-58866932D01*
X58955626Y-58925558D01*
X58946282Y-58985567D01*
X58946282Y-58985571D01*
X58944901Y-58994440D01*
X58946065Y-59003342D01*
X58946065Y-59003345D01*
X58960468Y-59113489D01*
X58960469Y-59113493D01*
X58961633Y-59122394D01*
X59013605Y-59240510D01*
X59034096Y-59264887D01*
X59062615Y-59329901D01*
X59051459Y-59400016D01*
X59032084Y-59429368D01*
X58969596Y-59500122D01*
X58965782Y-59508245D01*
X58965781Y-59508247D01*
X58939845Y-59563489D01*
X58914754Y-59616932D01*
X58913374Y-59625798D01*
X58896282Y-59735567D01*
X58896282Y-59735571D01*
X58894901Y-59744440D01*
X56791176Y-59744440D01*
X56827322Y-59704507D01*
X56865456Y-59625798D01*
X56879673Y-59596454D01*
X56879673Y-59596453D01*
X56883587Y-59588375D01*
X56904996Y-59461120D01*
X56905132Y-59450000D01*
X56902178Y-59429368D01*
X56888111Y-59331147D01*
X56888110Y-59331145D01*
X56886838Y-59322260D01*
X56833427Y-59204788D01*
X56749193Y-59107029D01*
X56640906Y-59036841D01*
X56535194Y-59005227D01*
X56475662Y-58966546D01*
X56446676Y-58902228D01*
X56440601Y-58939868D01*
X56393191Y-58992716D01*
X56361530Y-59006710D01*
X56278543Y-59030428D01*
X56264156Y-59034540D01*
X56256566Y-59039329D01*
X56203065Y-59073086D01*
X56155020Y-59103400D01*
X56069597Y-59200122D01*
X56065783Y-59208245D01*
X56065782Y-59208247D01*
X56042190Y-59258497D01*
X56014755Y-59316932D01*
X56005627Y-59375558D01*
X55996283Y-59435567D01*
X55996283Y-59435571D01*
X55994902Y-59444440D01*
X42900500Y-59444440D01*
X42900500Y-59340742D01*
X42899830Y-59336194D01*
X42899830Y-59336187D01*
X42893793Y-59295175D01*
X42889593Y-59266646D01*
X42834282Y-59153993D01*
X42745464Y-59065330D01*
X42632715Y-59010216D01*
X42623038Y-59008804D01*
X42623037Y-59008804D01*
X42563785Y-59000160D01*
X42563779Y-59000160D01*
X42559258Y-58999500D01*
X41040742Y-58999500D01*
X41036194Y-59000170D01*
X41036187Y-59000170D01*
X40995175Y-59006207D01*
X40966646Y-59010407D01*
X40957856Y-59014723D01*
X40957855Y-59014723D01*
X40922518Y-59032073D01*
X40853993Y-59065718D01*
X40765330Y-59154536D01*
X40710216Y-59267285D01*
X40708804Y-59276962D01*
X40708804Y-59276963D01*
X40700900Y-59331147D01*
X40699500Y-59340742D01*
X40699500Y-60859258D01*
X39800381Y-60859258D01*
X39713980Y-60684053D01*
X39693225Y-60656258D01*
X39585420Y-60511891D01*
X39585420Y-60511890D01*
X39581967Y-60507267D01*
X39484586Y-60417249D01*
X39424189Y-60361418D01*
X39424186Y-60361416D01*
X39419949Y-60357499D01*
X39233350Y-60239764D01*
X39028421Y-60158006D01*
X39022761Y-60156880D01*
X39022757Y-60156879D01*
X38817691Y-60116089D01*
X38817688Y-60116089D01*
X38812024Y-60114962D01*
X38806249Y-60114886D01*
X38806245Y-60114886D01*
X38695504Y-60113437D01*
X38591406Y-60112074D01*
X38585709Y-60113053D01*
X38585708Y-60113053D01*
X38379654Y-60148459D01*
X38379653Y-60148459D01*
X38373957Y-60149438D01*
X38166957Y-60225804D01*
X38161996Y-60228756D01*
X38161995Y-60228756D01*
X37990568Y-60330745D01*
X37977341Y-60338614D01*
X37811457Y-60484090D01*
X37674863Y-60657360D01*
X37572131Y-60852620D01*
X37539250Y-60958514D01*
X37509036Y-61055821D01*
X37506703Y-61063333D01*
X37480770Y-61282440D01*
X36701089Y-61282440D01*
X36700500Y-61277210D01*
X36700500Y-57794440D01*
X41844901Y-57794440D01*
X41846065Y-57803342D01*
X41846065Y-57803345D01*
X41860468Y-57913489D01*
X41860469Y-57913493D01*
X41861633Y-57922394D01*
X41865250Y-57930614D01*
X41901716Y-58013489D01*
X41913605Y-58040510D01*
X41919382Y-58047383D01*
X41919383Y-58047384D01*
X41990754Y-58132290D01*
X41996639Y-58139291D01*
X42104060Y-58210796D01*
X42227233Y-58249278D01*
X42236203Y-58249442D01*
X42236207Y-58249443D01*
X42294942Y-58250519D01*
X42356255Y-58251643D01*
X42426782Y-58232415D01*
X42472092Y-58220062D01*
X42472093Y-58220062D01*
X42480755Y-58217700D01*
X42488405Y-58213003D01*
X42488407Y-58213002D01*
X42583072Y-58154878D01*
X42583075Y-58154875D01*
X42590724Y-58150179D01*
X42599476Y-58140510D01*
X42671300Y-58061161D01*
X42671303Y-58061157D01*
X42677322Y-58054507D01*
X42733588Y-57938375D01*
X42738475Y-57909331D01*
X42754190Y-57815917D01*
X42754997Y-57811120D01*
X42755133Y-57800000D01*
X42741373Y-57703916D01*
X42738112Y-57681145D01*
X42738111Y-57681142D01*
X42736839Y-57672259D01*
X42730724Y-57658809D01*
X42687145Y-57562962D01*
X42687143Y-57562959D01*
X42683428Y-57554788D01*
X42674512Y-57544440D01*
X50244901Y-57544440D01*
X50246065Y-57553342D01*
X50246065Y-57553345D01*
X50260468Y-57663489D01*
X50260469Y-57663493D01*
X50261633Y-57672394D01*
X50265250Y-57680614D01*
X50307132Y-57775798D01*
X50313605Y-57790510D01*
X50319382Y-57797383D01*
X50319383Y-57797384D01*
X50330929Y-57811120D01*
X50396639Y-57889291D01*
X50504060Y-57960796D01*
X50627233Y-57999278D01*
X50636203Y-57999442D01*
X50636207Y-57999443D01*
X50694942Y-58000519D01*
X50756255Y-58001643D01*
X50859848Y-57973400D01*
X50872092Y-57970062D01*
X50872093Y-57970062D01*
X50880755Y-57967700D01*
X50888405Y-57963003D01*
X50888407Y-57963002D01*
X50983072Y-57904878D01*
X50983075Y-57904875D01*
X50990724Y-57900179D01*
X50995919Y-57894440D01*
X51394901Y-57894440D01*
X51396065Y-57903342D01*
X51396065Y-57903345D01*
X51410468Y-58013489D01*
X51410469Y-58013493D01*
X51411633Y-58022394D01*
X51463605Y-58140510D01*
X51469382Y-58147383D01*
X51469383Y-58147384D01*
X51522686Y-58210796D01*
X51546639Y-58239291D01*
X51554116Y-58244268D01*
X51646208Y-58305569D01*
X51654060Y-58310796D01*
X51777233Y-58349278D01*
X51786205Y-58349442D01*
X51786208Y-58349443D01*
X51823260Y-58350122D01*
X51891003Y-58371370D01*
X51917401Y-58395026D01*
X51977569Y-58466604D01*
X51996639Y-58489291D01*
X52104060Y-58560796D01*
X52187425Y-58586841D01*
X52203045Y-58591721D01*
X52227233Y-58599278D01*
X52236205Y-58599442D01*
X52236208Y-58599443D01*
X52273260Y-58600122D01*
X52341003Y-58621370D01*
X52367401Y-58645026D01*
X52414993Y-58701643D01*
X52446639Y-58739291D01*
X52554060Y-58810796D01*
X52677233Y-58849278D01*
X52686203Y-58849442D01*
X52686207Y-58849443D01*
X52744942Y-58850519D01*
X52806255Y-58851643D01*
X52879786Y-58831596D01*
X52922092Y-58820062D01*
X52922093Y-58820062D01*
X52930755Y-58817700D01*
X52938407Y-58813002D01*
X52946642Y-58809438D01*
X52947751Y-58812001D01*
X53002434Y-58797155D01*
X53050790Y-58808619D01*
X53054060Y-58810796D01*
X53177233Y-58849278D01*
X53186203Y-58849442D01*
X53186207Y-58849443D01*
X53244942Y-58850519D01*
X53306255Y-58851643D01*
X53379786Y-58831596D01*
X53422092Y-58820062D01*
X53422093Y-58820062D01*
X53430755Y-58817700D01*
X53438405Y-58813003D01*
X53438407Y-58813002D01*
X53533072Y-58754878D01*
X53533075Y-58754875D01*
X53540724Y-58750179D01*
X53553420Y-58736153D01*
X53613960Y-58699071D01*
X53666983Y-58696328D01*
X53668661Y-58696600D01*
X53677233Y-58699278D01*
X53686207Y-58699442D01*
X53686210Y-58699443D01*
X53741744Y-58700461D01*
X53806255Y-58701643D01*
X53904434Y-58674876D01*
X53922092Y-58670062D01*
X53922093Y-58670062D01*
X53930755Y-58667700D01*
X53938405Y-58663003D01*
X53938407Y-58663002D01*
X54033072Y-58604878D01*
X54033075Y-58604875D01*
X54040724Y-58600179D01*
X54054881Y-58584539D01*
X54121300Y-58511161D01*
X54121303Y-58511157D01*
X54127322Y-58504507D01*
X54183588Y-58388375D01*
X54192414Y-58335917D01*
X54196027Y-58314440D01*
X54594902Y-58314440D01*
X54596066Y-58323342D01*
X54596066Y-58323345D01*
X54610469Y-58433489D01*
X54610470Y-58433491D01*
X54611634Y-58442394D01*
X54615251Y-58450614D01*
X54645830Y-58520109D01*
X54663606Y-58560509D01*
X54669383Y-58567382D01*
X54669384Y-58567383D01*
X54740860Y-58652414D01*
X54746640Y-58659290D01*
X54854061Y-58730795D01*
X54977233Y-58769277D01*
X54986203Y-58769441D01*
X54986207Y-58769442D01*
X55044942Y-58770518D01*
X55106255Y-58771642D01*
X55168505Y-58754671D01*
X55222092Y-58740061D01*
X55222093Y-58740061D01*
X55230755Y-58737699D01*
X55238405Y-58733002D01*
X55238407Y-58733001D01*
X55333076Y-58674874D01*
X55333077Y-58674874D01*
X55340724Y-58670178D01*
X55427322Y-58574507D01*
X55467149Y-58492304D01*
X55479673Y-58466454D01*
X55479673Y-58466453D01*
X55483587Y-58458375D01*
X55504996Y-58331120D01*
X55505132Y-58320000D01*
X55504337Y-58314442D01*
X55994902Y-58314442D01*
X55996066Y-58323344D01*
X55996066Y-58323347D01*
X56010469Y-58433491D01*
X56010470Y-58433495D01*
X56011634Y-58442396D01*
X56015250Y-58450614D01*
X56015251Y-58450616D01*
X56058600Y-58549133D01*
X56063606Y-58560511D01*
X56069383Y-58567383D01*
X56069384Y-58567385D01*
X56093943Y-58596601D01*
X56146640Y-58659292D01*
X56254061Y-58730797D01*
X56364480Y-58765295D01*
X56423536Y-58804700D01*
X56451427Y-58868665D01*
X56456946Y-58831596D01*
X56503707Y-58778173D01*
X56538155Y-58762947D01*
X56622092Y-58740063D01*
X56622093Y-58740063D01*
X56630755Y-58737701D01*
X56638405Y-58733004D01*
X56638407Y-58733003D01*
X56733076Y-58674876D01*
X56733077Y-58674876D01*
X56740724Y-58670180D01*
X56827322Y-58574509D01*
X56867150Y-58492304D01*
X56879673Y-58466456D01*
X56879674Y-58466454D01*
X56883587Y-58458377D01*
X56904996Y-58331122D01*
X56905132Y-58320002D01*
X56904441Y-58315173D01*
X56888111Y-58201149D01*
X56888110Y-58201147D01*
X56886838Y-58192262D01*
X56833427Y-58074790D01*
X56767248Y-57997985D01*
X56755054Y-57983833D01*
X56755052Y-57983831D01*
X56749193Y-57977031D01*
X56640906Y-57906843D01*
X56517273Y-57869869D01*
X56508297Y-57869814D01*
X56508296Y-57869814D01*
X56454563Y-57869486D01*
X56388232Y-57869081D01*
X56326194Y-57886811D01*
X56272787Y-57902075D01*
X56272785Y-57902076D01*
X56264156Y-57904542D01*
X56155020Y-57973402D01*
X56069597Y-58070124D01*
X56014755Y-58186934D01*
X56011040Y-58210796D01*
X55996283Y-58305569D01*
X55996283Y-58305573D01*
X55994902Y-58314442D01*
X55504337Y-58314442D01*
X55504198Y-58313473D01*
X55488111Y-58201147D01*
X55488110Y-58201145D01*
X55486838Y-58192260D01*
X55465018Y-58144268D01*
X55437143Y-58082961D01*
X55433427Y-58074788D01*
X55349193Y-57977029D01*
X55240906Y-57906841D01*
X55117273Y-57869867D01*
X55108297Y-57869812D01*
X55108296Y-57869812D01*
X55054563Y-57869484D01*
X54988232Y-57869079D01*
X54926194Y-57886809D01*
X54872787Y-57902073D01*
X54872785Y-57902074D01*
X54864156Y-57904540D01*
X54755020Y-57973400D01*
X54669597Y-58070122D01*
X54614755Y-58186932D01*
X54609597Y-58220062D01*
X54596283Y-58305567D01*
X54596283Y-58305569D01*
X54594902Y-58314440D01*
X54196027Y-58314440D01*
X54204190Y-58265917D01*
X54204997Y-58261120D01*
X54205133Y-58250000D01*
X54191869Y-58157380D01*
X54188112Y-58131145D01*
X54188111Y-58131142D01*
X54186839Y-58122259D01*
X54178215Y-58103291D01*
X54137145Y-58012962D01*
X54137143Y-58012959D01*
X54133428Y-58004788D01*
X54106384Y-57973402D01*
X54055051Y-57913826D01*
X54055049Y-57913824D01*
X54049193Y-57907028D01*
X53940906Y-57836841D01*
X53932311Y-57834271D01*
X53932310Y-57834270D01*
X53825874Y-57802438D01*
X53825872Y-57802438D01*
X53817273Y-57799866D01*
X53808298Y-57799811D01*
X53808297Y-57799811D01*
X53779641Y-57799636D01*
X53711644Y-57779218D01*
X53665710Y-57725789D01*
X53655765Y-57703916D01*
X53633428Y-57654788D01*
X53607625Y-57624842D01*
X53555051Y-57563826D01*
X53555049Y-57563824D01*
X53549193Y-57557028D01*
X53440906Y-57486841D01*
X53432311Y-57484271D01*
X53432310Y-57484270D01*
X53397852Y-57473965D01*
X53317273Y-57449866D01*
X53308296Y-57449811D01*
X53302964Y-57449014D01*
X53238549Y-57419161D01*
X53200499Y-57359222D01*
X53196864Y-57342260D01*
X53188112Y-57281145D01*
X53188111Y-57281142D01*
X53186839Y-57272259D01*
X53178133Y-57253110D01*
X53154891Y-57201993D01*
X53144905Y-57131703D01*
X53156200Y-57094903D01*
X53175592Y-57054878D01*
X53183588Y-57038375D01*
X53185103Y-57029373D01*
X53190980Y-56994440D01*
X54594902Y-56994440D01*
X54596066Y-57003342D01*
X54596066Y-57003345D01*
X54610469Y-57113489D01*
X54610470Y-57113493D01*
X54611634Y-57122394D01*
X54616043Y-57132415D01*
X54646659Y-57201993D01*
X54663606Y-57240509D01*
X54669383Y-57247382D01*
X54669384Y-57247383D01*
X54724282Y-57312692D01*
X54746640Y-57339290D01*
X54854061Y-57410795D01*
X54977233Y-57449277D01*
X54986203Y-57449441D01*
X54986207Y-57449442D01*
X55044942Y-57450518D01*
X55106255Y-57451642D01*
X55201049Y-57425798D01*
X55222092Y-57420061D01*
X55222093Y-57420061D01*
X55230755Y-57417699D01*
X55238405Y-57413002D01*
X55238407Y-57413001D01*
X55333076Y-57354874D01*
X55333077Y-57354874D01*
X55340724Y-57350178D01*
X55427322Y-57254507D01*
X55462121Y-57182681D01*
X55479673Y-57146454D01*
X55479673Y-57146453D01*
X55483587Y-57138375D01*
X55504996Y-57011120D01*
X55505132Y-57000000D01*
X55504336Y-56994440D01*
X55994902Y-56994440D01*
X55996066Y-57003342D01*
X55996066Y-57003345D01*
X56010469Y-57113489D01*
X56010470Y-57113493D01*
X56011634Y-57122394D01*
X56016043Y-57132415D01*
X56046659Y-57201993D01*
X56063606Y-57240509D01*
X56069383Y-57247382D01*
X56069384Y-57247383D01*
X56124282Y-57312692D01*
X56146640Y-57339290D01*
X56254061Y-57410795D01*
X56377233Y-57449277D01*
X56386203Y-57449441D01*
X56386207Y-57449442D01*
X56444942Y-57450518D01*
X56506255Y-57451642D01*
X56601049Y-57425798D01*
X56622092Y-57420061D01*
X56622093Y-57420061D01*
X56630755Y-57417699D01*
X56638405Y-57413002D01*
X56638407Y-57413001D01*
X56733076Y-57354874D01*
X56733077Y-57354874D01*
X56740724Y-57350178D01*
X56827322Y-57254507D01*
X56862121Y-57182681D01*
X56879673Y-57146454D01*
X56879673Y-57146453D01*
X56883587Y-57138375D01*
X56904996Y-57011120D01*
X56905132Y-57000000D01*
X56897461Y-56946432D01*
X56888111Y-56881147D01*
X56888110Y-56881145D01*
X56886838Y-56872260D01*
X56859040Y-56811120D01*
X56839629Y-56768428D01*
X56833427Y-56754788D01*
X56749193Y-56657029D01*
X56640906Y-56586841D01*
X56517273Y-56549867D01*
X56508297Y-56549812D01*
X56508296Y-56549812D01*
X56454563Y-56549484D01*
X56388232Y-56549079D01*
X56326194Y-56566809D01*
X56272787Y-56582073D01*
X56272785Y-56582074D01*
X56264156Y-56584540D01*
X56235136Y-56602850D01*
X56189408Y-56631703D01*
X56155020Y-56653400D01*
X56069597Y-56750122D01*
X56065783Y-56758245D01*
X56065782Y-56758247D01*
X56046179Y-56800000D01*
X56014755Y-56866932D01*
X56008850Y-56904859D01*
X55996283Y-56985567D01*
X55996283Y-56985571D01*
X55994902Y-56994440D01*
X55504336Y-56994440D01*
X55497461Y-56946432D01*
X55488111Y-56881147D01*
X55488110Y-56881145D01*
X55486838Y-56872260D01*
X55459040Y-56811120D01*
X55439629Y-56768428D01*
X55433427Y-56754788D01*
X55349193Y-56657029D01*
X55240906Y-56586841D01*
X55117273Y-56549867D01*
X55108297Y-56549812D01*
X55108296Y-56549812D01*
X55054563Y-56549484D01*
X54988232Y-56549079D01*
X54926194Y-56566809D01*
X54872787Y-56582073D01*
X54872785Y-56582074D01*
X54864156Y-56584540D01*
X54835136Y-56602850D01*
X54789408Y-56631703D01*
X54755020Y-56653400D01*
X54669597Y-56750122D01*
X54665783Y-56758245D01*
X54665782Y-56758247D01*
X54646179Y-56800000D01*
X54614755Y-56866932D01*
X54608850Y-56904859D01*
X54596283Y-56985567D01*
X54596283Y-56985571D01*
X54594902Y-56994440D01*
X53190980Y-56994440D01*
X53204190Y-56915917D01*
X53204997Y-56911120D01*
X53205133Y-56900000D01*
X53194019Y-56822394D01*
X53188112Y-56781145D01*
X53188111Y-56781142D01*
X53186839Y-56772259D01*
X53182612Y-56762961D01*
X53154891Y-56701993D01*
X53144905Y-56631703D01*
X53156200Y-56594903D01*
X53167171Y-56572259D01*
X53183588Y-56538375D01*
X53193080Y-56481958D01*
X53204190Y-56415917D01*
X53204997Y-56411120D01*
X53205133Y-56400000D01*
X53190709Y-56299281D01*
X53188112Y-56281145D01*
X53188111Y-56281142D01*
X53186839Y-56272259D01*
X53175305Y-56246890D01*
X53154891Y-56201993D01*
X53144905Y-56131703D01*
X53156200Y-56094903D01*
X53166260Y-56074139D01*
X53183588Y-56038375D01*
X53185962Y-56024267D01*
X53204190Y-55915917D01*
X53204997Y-55911120D01*
X53205133Y-55900000D01*
X53197176Y-55844440D01*
X53188112Y-55781145D01*
X53188111Y-55781142D01*
X53186839Y-55772259D01*
X53178896Y-55754788D01*
X53154891Y-55701993D01*
X53150977Y-55674440D01*
X54594902Y-55674440D01*
X54596066Y-55683342D01*
X54596066Y-55683345D01*
X54610469Y-55793489D01*
X54610470Y-55793493D01*
X54611634Y-55802394D01*
X54663606Y-55920509D01*
X54669383Y-55927381D01*
X54669384Y-55927383D01*
X54680966Y-55941161D01*
X54746640Y-56019290D01*
X54854061Y-56090795D01*
X54977233Y-56129277D01*
X54986203Y-56129441D01*
X54986207Y-56129442D01*
X55044942Y-56130518D01*
X55106255Y-56131642D01*
X55205784Y-56104507D01*
X55222092Y-56100061D01*
X55222093Y-56100061D01*
X55230755Y-56097699D01*
X55238405Y-56093002D01*
X55238407Y-56093001D01*
X55333076Y-56034874D01*
X55333077Y-56034874D01*
X55340724Y-56030178D01*
X55427322Y-55934507D01*
X55460553Y-55865917D01*
X55479673Y-55826454D01*
X55479674Y-55826452D01*
X55483587Y-55818375D01*
X55504996Y-55691120D01*
X55505132Y-55680000D01*
X55504441Y-55675171D01*
X55504336Y-55674438D01*
X55994902Y-55674438D01*
X55996066Y-55683340D01*
X55996066Y-55683343D01*
X56010469Y-55793487D01*
X56010470Y-55793489D01*
X56011634Y-55802392D01*
X56015251Y-55810612D01*
X56056055Y-55903345D01*
X56063606Y-55920507D01*
X56069383Y-55927380D01*
X56069384Y-55927381D01*
X56134511Y-56004859D01*
X56146640Y-56019288D01*
X56254061Y-56090793D01*
X56377233Y-56129275D01*
X56386203Y-56129439D01*
X56386207Y-56129440D01*
X56444942Y-56130516D01*
X56506255Y-56131640D01*
X56605777Y-56104507D01*
X56622092Y-56100059D01*
X56622093Y-56100059D01*
X56630755Y-56097697D01*
X56638405Y-56093000D01*
X56638407Y-56092999D01*
X56733076Y-56034872D01*
X56733077Y-56034872D01*
X56740724Y-56030176D01*
X56827322Y-55934505D01*
X56860552Y-55865917D01*
X56879673Y-55826452D01*
X56879673Y-55826451D01*
X56883587Y-55818373D01*
X56904996Y-55691118D01*
X56905132Y-55679998D01*
X56903066Y-55665567D01*
X56888111Y-55561145D01*
X56888110Y-55561143D01*
X56886838Y-55552258D01*
X56876503Y-55529526D01*
X56837143Y-55442959D01*
X56833427Y-55434786D01*
X56749193Y-55337027D01*
X56640906Y-55266839D01*
X56535194Y-55235225D01*
X56475662Y-55196544D01*
X56446676Y-55132226D01*
X56440601Y-55169866D01*
X56393191Y-55222714D01*
X56361530Y-55236708D01*
X56294656Y-55255821D01*
X56264156Y-55264538D01*
X56155020Y-55333398D01*
X56069597Y-55430120D01*
X56014755Y-55546930D01*
X56008941Y-55584270D01*
X55996283Y-55665565D01*
X55996283Y-55665567D01*
X55994902Y-55674438D01*
X55504336Y-55674438D01*
X55488111Y-55561147D01*
X55488110Y-55561145D01*
X55486838Y-55552260D01*
X55433427Y-55434788D01*
X55349193Y-55337029D01*
X55240906Y-55266841D01*
X55117273Y-55229867D01*
X55108297Y-55229812D01*
X55108296Y-55229812D01*
X55054563Y-55229484D01*
X54988232Y-55229079D01*
X54926924Y-55246601D01*
X54872787Y-55262073D01*
X54872785Y-55262074D01*
X54864156Y-55264540D01*
X54856566Y-55269329D01*
X54805352Y-55301643D01*
X54755020Y-55333400D01*
X54669597Y-55430122D01*
X54665783Y-55438245D01*
X54665782Y-55438247D01*
X54664151Y-55441721D01*
X54614755Y-55546932D01*
X54605747Y-55604788D01*
X54596283Y-55665567D01*
X54596283Y-55665571D01*
X54594902Y-55674440D01*
X53150977Y-55674440D01*
X53144905Y-55631703D01*
X53156200Y-55594903D01*
X53161352Y-55584270D01*
X53183588Y-55538375D01*
X53189224Y-55504878D01*
X53204190Y-55415917D01*
X53204997Y-55411120D01*
X53205133Y-55400000D01*
X53190709Y-55299281D01*
X53188112Y-55281145D01*
X53188111Y-55281142D01*
X53186839Y-55272259D01*
X53177466Y-55251643D01*
X53154891Y-55201993D01*
X53144905Y-55131703D01*
X53156200Y-55094903D01*
X53172548Y-55061161D01*
X53183588Y-55038375D01*
X53186300Y-55022259D01*
X53204190Y-54915917D01*
X53204997Y-54911120D01*
X53205065Y-54905530D01*
X53205074Y-54904859D01*
X53205074Y-54904853D01*
X53205133Y-54900000D01*
X53197176Y-54844440D01*
X53188112Y-54781145D01*
X53188111Y-54781142D01*
X53186839Y-54772259D01*
X53170736Y-54736841D01*
X53154891Y-54701993D01*
X53144905Y-54631703D01*
X53156200Y-54594903D01*
X53158955Y-54589216D01*
X53180649Y-54544440D01*
X55994902Y-54544440D01*
X55996066Y-54553342D01*
X55996066Y-54553345D01*
X56010469Y-54663489D01*
X56010470Y-54663493D01*
X56011634Y-54672394D01*
X56063606Y-54790509D01*
X56069383Y-54797382D01*
X56069384Y-54797383D01*
X56101481Y-54835567D01*
X56146640Y-54889290D01*
X56254061Y-54960795D01*
X56364480Y-54995293D01*
X56423536Y-55034698D01*
X56451427Y-55098663D01*
X56456946Y-55061594D01*
X56503707Y-55008171D01*
X56538155Y-54992945D01*
X56622092Y-54970061D01*
X56622093Y-54970061D01*
X56630755Y-54967699D01*
X56638405Y-54963002D01*
X56638407Y-54963001D01*
X56733076Y-54904874D01*
X56733077Y-54904874D01*
X56740724Y-54900178D01*
X56827322Y-54804507D01*
X56878020Y-54699866D01*
X56879673Y-54696454D01*
X56879673Y-54696453D01*
X56883587Y-54688375D01*
X56904996Y-54561120D01*
X56905132Y-54550000D01*
X56903777Y-54540534D01*
X56888111Y-54431147D01*
X56888110Y-54431145D01*
X56886838Y-54422260D01*
X56876799Y-54400179D01*
X56837143Y-54312961D01*
X56833427Y-54304788D01*
X56749193Y-54207029D01*
X56640906Y-54136841D01*
X56517273Y-54099867D01*
X56508297Y-54099812D01*
X56508296Y-54099812D01*
X56454563Y-54099484D01*
X56388232Y-54099079D01*
X56326194Y-54116809D01*
X56272787Y-54132073D01*
X56272785Y-54132074D01*
X56264156Y-54134540D01*
X56155020Y-54203400D01*
X56069597Y-54300122D01*
X56014755Y-54416932D01*
X56007631Y-54462687D01*
X55996283Y-54535567D01*
X55996283Y-54535571D01*
X55994902Y-54544440D01*
X53180649Y-54544440D01*
X53183588Y-54538375D01*
X53189796Y-54501478D01*
X53204190Y-54415917D01*
X53204997Y-54411120D01*
X53205065Y-54405530D01*
X53205074Y-54404859D01*
X53205074Y-54404853D01*
X53205133Y-54400000D01*
X53191498Y-54304788D01*
X53188112Y-54281145D01*
X53188111Y-54281142D01*
X53186839Y-54272259D01*
X53180724Y-54258809D01*
X53137145Y-54162962D01*
X53137143Y-54162959D01*
X53133428Y-54154788D01*
X53087552Y-54101546D01*
X53055051Y-54063826D01*
X53055049Y-54063824D01*
X53049193Y-54057028D01*
X52940906Y-53986841D01*
X52932311Y-53984271D01*
X52932310Y-53984270D01*
X52825874Y-53952438D01*
X52825872Y-53952438D01*
X52817273Y-53949866D01*
X52808298Y-53949811D01*
X52808297Y-53949811D01*
X52753641Y-53949477D01*
X52688231Y-53949078D01*
X52676475Y-53952438D01*
X52572786Y-53982072D01*
X52572784Y-53982073D01*
X52564155Y-53984539D01*
X52455019Y-54053399D01*
X52442389Y-54067700D01*
X52394249Y-54122207D01*
X52334163Y-54160025D01*
X52263169Y-54159354D01*
X52204355Y-54121046D01*
X52155054Y-54063829D01*
X52155050Y-54063826D01*
X52149193Y-54057028D01*
X52040906Y-53986841D01*
X52032311Y-53984271D01*
X52032310Y-53984270D01*
X51925874Y-53952438D01*
X51925872Y-53952438D01*
X51917273Y-53949866D01*
X51908298Y-53949811D01*
X51908297Y-53949811D01*
X51853641Y-53949477D01*
X51788231Y-53949078D01*
X51776475Y-53952438D01*
X51672786Y-53982072D01*
X51672784Y-53982073D01*
X51664155Y-53984539D01*
X51555019Y-54053399D01*
X51549076Y-54060128D01*
X51549075Y-54060129D01*
X51516864Y-54096601D01*
X51469596Y-54150122D01*
X51465782Y-54158245D01*
X51465781Y-54158247D01*
X51463320Y-54163489D01*
X51414754Y-54266932D01*
X51408904Y-54304507D01*
X51396282Y-54385567D01*
X51396282Y-54385571D01*
X51394901Y-54394440D01*
X51396065Y-54403342D01*
X51396065Y-54403345D01*
X51410468Y-54513489D01*
X51410469Y-54513493D01*
X51411633Y-54522394D01*
X51430784Y-54565917D01*
X51445614Y-54599621D01*
X51454742Y-54670028D01*
X51444340Y-54703915D01*
X51414754Y-54766932D01*
X51409271Y-54802148D01*
X51396282Y-54885567D01*
X51396282Y-54885571D01*
X51394901Y-54894440D01*
X51396065Y-54903342D01*
X51396065Y-54903345D01*
X51410468Y-55013489D01*
X51410469Y-55013493D01*
X51411633Y-55022394D01*
X51444630Y-55097384D01*
X51445614Y-55099621D01*
X51454742Y-55170028D01*
X51444340Y-55203915D01*
X51414754Y-55266932D01*
X51408027Y-55310139D01*
X51396282Y-55385567D01*
X51396282Y-55385571D01*
X51394901Y-55394440D01*
X51396065Y-55403342D01*
X51396065Y-55403345D01*
X51410468Y-55513489D01*
X51410469Y-55513493D01*
X51411633Y-55522394D01*
X51445536Y-55599443D01*
X51445614Y-55599621D01*
X51454742Y-55670028D01*
X51444340Y-55703915D01*
X51414754Y-55766932D01*
X51408123Y-55809521D01*
X51396282Y-55885567D01*
X51396282Y-55885571D01*
X51394901Y-55894440D01*
X51396065Y-55903342D01*
X51396065Y-55903345D01*
X51410468Y-56013489D01*
X51410469Y-56013493D01*
X51411633Y-56022394D01*
X51444630Y-56097384D01*
X51445614Y-56099621D01*
X51454742Y-56170028D01*
X51444340Y-56203915D01*
X51414754Y-56266932D01*
X51406909Y-56317319D01*
X51396282Y-56385567D01*
X51396282Y-56385571D01*
X51394901Y-56394440D01*
X51396065Y-56403342D01*
X51396065Y-56403345D01*
X51410468Y-56513489D01*
X51410469Y-56513493D01*
X51411633Y-56522394D01*
X51443662Y-56595184D01*
X51445614Y-56599621D01*
X51454742Y-56670028D01*
X51444340Y-56703915D01*
X51414754Y-56766932D01*
X51408849Y-56804859D01*
X51396282Y-56885567D01*
X51396282Y-56885571D01*
X51394901Y-56894440D01*
X51396065Y-56903342D01*
X51396065Y-56903345D01*
X51410468Y-57013489D01*
X51410469Y-57013493D01*
X51411633Y-57022394D01*
X51423464Y-57049281D01*
X51445614Y-57099621D01*
X51454742Y-57170028D01*
X51444340Y-57203915D01*
X51414754Y-57266932D01*
X51408655Y-57306103D01*
X51396282Y-57385567D01*
X51396282Y-57385571D01*
X51394901Y-57394440D01*
X51396065Y-57403342D01*
X51396065Y-57403345D01*
X51410468Y-57513489D01*
X51410469Y-57513493D01*
X51411633Y-57522394D01*
X51430784Y-57565917D01*
X51445614Y-57599621D01*
X51454742Y-57670028D01*
X51444340Y-57703915D01*
X51414754Y-57766932D01*
X51408904Y-57804507D01*
X51396282Y-57885567D01*
X51396282Y-57885571D01*
X51394901Y-57894440D01*
X50995919Y-57894440D01*
X50996750Y-57893522D01*
X51071300Y-57811161D01*
X51071303Y-57811157D01*
X51077322Y-57804507D01*
X51133588Y-57688375D01*
X51136300Y-57672259D01*
X51154190Y-57565917D01*
X51154997Y-57561120D01*
X51155133Y-57550000D01*
X51142792Y-57463826D01*
X51138112Y-57431145D01*
X51138111Y-57431142D01*
X51136839Y-57422259D01*
X51132630Y-57413001D01*
X51087145Y-57312962D01*
X51087143Y-57312959D01*
X51083428Y-57304788D01*
X51048361Y-57264090D01*
X51005051Y-57213826D01*
X51005049Y-57213824D01*
X50999193Y-57207028D01*
X50890906Y-57136841D01*
X50882311Y-57134271D01*
X50882310Y-57134270D01*
X50775874Y-57102438D01*
X50775872Y-57102438D01*
X50767273Y-57099866D01*
X50758298Y-57099811D01*
X50758297Y-57099811D01*
X50703641Y-57099477D01*
X50638231Y-57099078D01*
X50589512Y-57113002D01*
X50522786Y-57132072D01*
X50522784Y-57132073D01*
X50514155Y-57134539D01*
X50506565Y-57139328D01*
X50445027Y-57178156D01*
X50405019Y-57203399D01*
X50399076Y-57210128D01*
X50399075Y-57210129D01*
X50366063Y-57247508D01*
X50319596Y-57300122D01*
X50315782Y-57308245D01*
X50315781Y-57308247D01*
X50299976Y-57341911D01*
X50264754Y-57416932D01*
X50259350Y-57451642D01*
X50246282Y-57535567D01*
X50246282Y-57535571D01*
X50244901Y-57544440D01*
X42674512Y-57544440D01*
X42647843Y-57513489D01*
X42605051Y-57463826D01*
X42605049Y-57463824D01*
X42599193Y-57457028D01*
X42490906Y-57386841D01*
X42482311Y-57384271D01*
X42482310Y-57384270D01*
X42375874Y-57352438D01*
X42375872Y-57352438D01*
X42367273Y-57349866D01*
X42358298Y-57349811D01*
X42358297Y-57349811D01*
X42303641Y-57349477D01*
X42238231Y-57349078D01*
X42202738Y-57359222D01*
X42122786Y-57382072D01*
X42122784Y-57382073D01*
X42114155Y-57384539D01*
X42106565Y-57389328D01*
X42015795Y-57446600D01*
X42005019Y-57453399D01*
X41999076Y-57460128D01*
X41999075Y-57460129D01*
X41975484Y-57486841D01*
X41919596Y-57550122D01*
X41915782Y-57558245D01*
X41915781Y-57558247D01*
X41913162Y-57563826D01*
X41864754Y-57666932D01*
X41860158Y-57696450D01*
X41846282Y-57785567D01*
X41846282Y-57785571D01*
X41844901Y-57794440D01*
X36700500Y-57794440D01*
X36700500Y-56784891D01*
X37195420Y-56784891D01*
X37197117Y-56793306D01*
X37197117Y-56793309D01*
X37206635Y-56840510D01*
X37225233Y-56932743D01*
X37293707Y-57067132D01*
X37395799Y-57178156D01*
X37448442Y-57210796D01*
X37516687Y-57253110D01*
X37516690Y-57253111D01*
X37523986Y-57257635D01*
X37668825Y-57299715D01*
X37675803Y-57300227D01*
X37677208Y-57300331D01*
X37677219Y-57300331D01*
X37679515Y-57300500D01*
X37787785Y-57300500D01*
X37792030Y-57299918D01*
X37792037Y-57299918D01*
X37852522Y-57291632D01*
X37899432Y-57285206D01*
X37907317Y-57281794D01*
X38029971Y-57228717D01*
X38029973Y-57228716D01*
X38037855Y-57225305D01*
X38138848Y-57143522D01*
X38148393Y-57135793D01*
X38155070Y-57130386D01*
X38242442Y-57007442D01*
X38293533Y-56865532D01*
X38299455Y-56784891D01*
X38995420Y-56784891D01*
X38997117Y-56793306D01*
X38997117Y-56793309D01*
X39006635Y-56840510D01*
X39025233Y-56932743D01*
X39093707Y-57067132D01*
X39195799Y-57178156D01*
X39248442Y-57210796D01*
X39316687Y-57253110D01*
X39316690Y-57253111D01*
X39323986Y-57257635D01*
X39468825Y-57299715D01*
X39475803Y-57300227D01*
X39477208Y-57300331D01*
X39477219Y-57300331D01*
X39479515Y-57300500D01*
X39587785Y-57300500D01*
X39592030Y-57299918D01*
X39592037Y-57299918D01*
X39652522Y-57291632D01*
X39699432Y-57285206D01*
X39707317Y-57281794D01*
X39829971Y-57228717D01*
X39829973Y-57228716D01*
X39837855Y-57225305D01*
X39938848Y-57143522D01*
X39948393Y-57135793D01*
X39955070Y-57130386D01*
X39960046Y-57123384D01*
X39960048Y-57123382D01*
X40013863Y-57047657D01*
X40069628Y-57003716D01*
X40140297Y-56996900D01*
X40203432Y-57029373D01*
X40212953Y-57041058D01*
X40213605Y-57040510D01*
X40289154Y-57130386D01*
X40296639Y-57139291D01*
X40311642Y-57149278D01*
X40392948Y-57203399D01*
X40404060Y-57210796D01*
X40527233Y-57249278D01*
X40536203Y-57249442D01*
X40536207Y-57249443D01*
X40594942Y-57250519D01*
X40656255Y-57251643D01*
X40752861Y-57225305D01*
X40772092Y-57220062D01*
X40772093Y-57220062D01*
X40780755Y-57217700D01*
X40788405Y-57213003D01*
X40788407Y-57213002D01*
X40883072Y-57154878D01*
X40883075Y-57154875D01*
X40890724Y-57150179D01*
X40900546Y-57139328D01*
X40971300Y-57061161D01*
X40971303Y-57061157D01*
X40977322Y-57054507D01*
X41033588Y-56938375D01*
X41037367Y-56915917D01*
X41054190Y-56815917D01*
X41054997Y-56811120D01*
X41055133Y-56800000D01*
X41044019Y-56722394D01*
X41038112Y-56681145D01*
X41038111Y-56681142D01*
X41036839Y-56672259D01*
X41031325Y-56660131D01*
X41001457Y-56594440D01*
X42694901Y-56594440D01*
X42696065Y-56603342D01*
X42696065Y-56603345D01*
X42710468Y-56713489D01*
X42710469Y-56713493D01*
X42711633Y-56722394D01*
X42715250Y-56730614D01*
X42751716Y-56813489D01*
X42763605Y-56840510D01*
X42769382Y-56847383D01*
X42769383Y-56847384D01*
X42834059Y-56924325D01*
X42846639Y-56939291D01*
X42954060Y-57010796D01*
X43018745Y-57031005D01*
X43068124Y-57046432D01*
X43077233Y-57049278D01*
X43086203Y-57049442D01*
X43086207Y-57049443D01*
X43144942Y-57050519D01*
X43206255Y-57051643D01*
X43276782Y-57032415D01*
X43322092Y-57020062D01*
X43322093Y-57020062D01*
X43330755Y-57017700D01*
X43338405Y-57013003D01*
X43338407Y-57013002D01*
X43433072Y-56954878D01*
X43433075Y-56954875D01*
X43440724Y-56950179D01*
X43449581Y-56940394D01*
X43497848Y-56887070D01*
X44102271Y-56887070D01*
X44103435Y-56895972D01*
X44103435Y-56895975D01*
X44117838Y-57006119D01*
X44117839Y-57006123D01*
X44119003Y-57015024D01*
X44135043Y-57051478D01*
X44165221Y-57120062D01*
X44170975Y-57133140D01*
X44176752Y-57140013D01*
X44176753Y-57140014D01*
X44242055Y-57217700D01*
X44254009Y-57231921D01*
X44296238Y-57260031D01*
X44328933Y-57281794D01*
X44361430Y-57303426D01*
X44484603Y-57341908D01*
X44493573Y-57342072D01*
X44493577Y-57342073D01*
X44552312Y-57343149D01*
X44613625Y-57344273D01*
X44675875Y-57327302D01*
X44729462Y-57312692D01*
X44729463Y-57312692D01*
X44738125Y-57310330D01*
X44745775Y-57305633D01*
X44745777Y-57305632D01*
X44840442Y-57247508D01*
X44840445Y-57247505D01*
X44848094Y-57242809D01*
X44854120Y-57236152D01*
X44928670Y-57153791D01*
X44928673Y-57153787D01*
X44934692Y-57147137D01*
X44990958Y-57031005D01*
X44993197Y-57017700D01*
X45011560Y-56908547D01*
X45012367Y-56903750D01*
X45012503Y-56892630D01*
X45003466Y-56829526D01*
X44995482Y-56773775D01*
X44995481Y-56773772D01*
X44994209Y-56764889D01*
X44990495Y-56756720D01*
X44944515Y-56655592D01*
X44944513Y-56655589D01*
X44940798Y-56647418D01*
X44909522Y-56611120D01*
X44862421Y-56556456D01*
X44862419Y-56556454D01*
X44856563Y-56549658D01*
X44748276Y-56479471D01*
X44739681Y-56476901D01*
X44739680Y-56476900D01*
X44633244Y-56445068D01*
X44633242Y-56445068D01*
X44624643Y-56442496D01*
X44615668Y-56442441D01*
X44615667Y-56442441D01*
X44561011Y-56442107D01*
X44495601Y-56441708D01*
X44435766Y-56458809D01*
X44380156Y-56474702D01*
X44380154Y-56474703D01*
X44371525Y-56477169D01*
X44347135Y-56492558D01*
X44288545Y-56529526D01*
X44262389Y-56546029D01*
X44256446Y-56552758D01*
X44256445Y-56552759D01*
X44230556Y-56582073D01*
X44176966Y-56642752D01*
X44173152Y-56650875D01*
X44173151Y-56650877D01*
X44148518Y-56703345D01*
X44122124Y-56759562D01*
X44114096Y-56811120D01*
X44103652Y-56878197D01*
X44103652Y-56878201D01*
X44102271Y-56887070D01*
X43497848Y-56887070D01*
X43521300Y-56861161D01*
X43521303Y-56861157D01*
X43527322Y-56854507D01*
X43583588Y-56738375D01*
X43587367Y-56715917D01*
X43604190Y-56615917D01*
X43604997Y-56611120D01*
X43605133Y-56600000D01*
X43589746Y-56492558D01*
X43588112Y-56481145D01*
X43588111Y-56481142D01*
X43586839Y-56472259D01*
X43582612Y-56462962D01*
X43537145Y-56362962D01*
X43537143Y-56362959D01*
X43533428Y-56354788D01*
X43487636Y-56301643D01*
X43455051Y-56263826D01*
X43455049Y-56263824D01*
X43449193Y-56257028D01*
X43340906Y-56186841D01*
X43332311Y-56184271D01*
X43332310Y-56184270D01*
X43225874Y-56152438D01*
X43225872Y-56152438D01*
X43217273Y-56149866D01*
X43208298Y-56149811D01*
X43208297Y-56149811D01*
X43153641Y-56149477D01*
X43088231Y-56149078D01*
X43026193Y-56166808D01*
X42972786Y-56182072D01*
X42972784Y-56182073D01*
X42964155Y-56184539D01*
X42956565Y-56189328D01*
X42888475Y-56232290D01*
X42855019Y-56253399D01*
X42849076Y-56260128D01*
X42849075Y-56260129D01*
X42817680Y-56295677D01*
X42769596Y-56350122D01*
X42765782Y-56358245D01*
X42765781Y-56358247D01*
X42746178Y-56400000D01*
X42714754Y-56466932D01*
X42710764Y-56492558D01*
X42696282Y-56585567D01*
X42696282Y-56585571D01*
X42694901Y-56594440D01*
X41001457Y-56594440D01*
X40987145Y-56562962D01*
X40987143Y-56562959D01*
X40983428Y-56554788D01*
X40936772Y-56500641D01*
X40905051Y-56463826D01*
X40905049Y-56463824D01*
X40899193Y-56457028D01*
X40790906Y-56386841D01*
X40782311Y-56384271D01*
X40782310Y-56384270D01*
X40675874Y-56352438D01*
X40675872Y-56352438D01*
X40667273Y-56349866D01*
X40658298Y-56349811D01*
X40658297Y-56349811D01*
X40603641Y-56349477D01*
X40538231Y-56349078D01*
X40478256Y-56366219D01*
X40422786Y-56382072D01*
X40422784Y-56382073D01*
X40414155Y-56384539D01*
X40406565Y-56389328D01*
X40313600Y-56447985D01*
X40305019Y-56453399D01*
X40286205Y-56474702D01*
X40244832Y-56521547D01*
X40184746Y-56559365D01*
X40113752Y-56558694D01*
X40054391Y-56519748D01*
X40038124Y-56495341D01*
X40036706Y-56492558D01*
X40006293Y-56432868D01*
X39904201Y-56321844D01*
X39828157Y-56274695D01*
X39783313Y-56246890D01*
X39783310Y-56246889D01*
X39776014Y-56242365D01*
X39631175Y-56200285D01*
X39624197Y-56199773D01*
X39622792Y-56199669D01*
X39622781Y-56199669D01*
X39620485Y-56199500D01*
X39512215Y-56199500D01*
X39507970Y-56200082D01*
X39507963Y-56200082D01*
X39447478Y-56208368D01*
X39400568Y-56214794D01*
X39392684Y-56218206D01*
X39392683Y-56218206D01*
X39270029Y-56271283D01*
X39270027Y-56271284D01*
X39262145Y-56274695D01*
X39232461Y-56298733D01*
X39153145Y-56362962D01*
X39144930Y-56369614D01*
X39057558Y-56492558D01*
X39006467Y-56634468D01*
X39005838Y-56643030D01*
X39005838Y-56643031D01*
X39004083Y-56666932D01*
X38995420Y-56784891D01*
X38299455Y-56784891D01*
X38304580Y-56715109D01*
X38302796Y-56706258D01*
X38284579Y-56615917D01*
X38274767Y-56567257D01*
X38206293Y-56432868D01*
X38200475Y-56426541D01*
X38195576Y-56419492D01*
X38197703Y-56418014D01*
X38172172Y-56366219D01*
X38180194Y-56295677D01*
X38230377Y-56237232D01*
X38283072Y-56204878D01*
X38283075Y-56204875D01*
X38290724Y-56200179D01*
X38300546Y-56189328D01*
X38371300Y-56111161D01*
X38371303Y-56111157D01*
X38377322Y-56104507D01*
X38433588Y-55988375D01*
X38443850Y-55927381D01*
X38454190Y-55865917D01*
X38454997Y-55861120D01*
X38455133Y-55850000D01*
X38445272Y-55781145D01*
X38438112Y-55731145D01*
X38438111Y-55731142D01*
X38436839Y-55722259D01*
X38422680Y-55691118D01*
X38387145Y-55612962D01*
X38387143Y-55612959D01*
X38383428Y-55604788D01*
X38338167Y-55552260D01*
X38305051Y-55513826D01*
X38305049Y-55513824D01*
X38299193Y-55507028D01*
X38190906Y-55436841D01*
X38182311Y-55434271D01*
X38182310Y-55434270D01*
X38075874Y-55402438D01*
X38075872Y-55402438D01*
X38067273Y-55399866D01*
X38058298Y-55399811D01*
X38058297Y-55399811D01*
X38003641Y-55399477D01*
X37938231Y-55399078D01*
X37891198Y-55412520D01*
X37822786Y-55432072D01*
X37822784Y-55432073D01*
X37814155Y-55434539D01*
X37806565Y-55439328D01*
X37719491Y-55494268D01*
X37705019Y-55503399D01*
X37699076Y-55510128D01*
X37699075Y-55510129D01*
X37664628Y-55549133D01*
X37619596Y-55600122D01*
X37615782Y-55608245D01*
X37615781Y-55608247D01*
X37595170Y-55652148D01*
X37564754Y-55716932D01*
X37556969Y-55766932D01*
X37546282Y-55835567D01*
X37546282Y-55835571D01*
X37544901Y-55844440D01*
X37546065Y-55853342D01*
X37546065Y-55853345D01*
X37560468Y-55963489D01*
X37560469Y-55963493D01*
X37561633Y-55972394D01*
X37594219Y-56046450D01*
X37606402Y-56074139D01*
X37615530Y-56144546D01*
X37585143Y-56208711D01*
X37541114Y-56240522D01*
X37470029Y-56271283D01*
X37470027Y-56271284D01*
X37462145Y-56274695D01*
X37432461Y-56298733D01*
X37353145Y-56362962D01*
X37344930Y-56369614D01*
X37257558Y-56492558D01*
X37206467Y-56634468D01*
X37205838Y-56643030D01*
X37205838Y-56643031D01*
X37204083Y-56666932D01*
X37195420Y-56784891D01*
X36700500Y-56784891D01*
X36700500Y-54844440D01*
X45644901Y-54844440D01*
X45646065Y-54853342D01*
X45646065Y-54853345D01*
X45660468Y-54963489D01*
X45660469Y-54963493D01*
X45661633Y-54972394D01*
X45713605Y-55090510D01*
X45719382Y-55097383D01*
X45719383Y-55097384D01*
X45780447Y-55170028D01*
X45796639Y-55189291D01*
X45804116Y-55194268D01*
X45890310Y-55251643D01*
X45904060Y-55260796D01*
X46027233Y-55299278D01*
X46036203Y-55299442D01*
X46036207Y-55299443D01*
X46094942Y-55300519D01*
X46156255Y-55301643D01*
X46237378Y-55279526D01*
X46272092Y-55270062D01*
X46272093Y-55270062D01*
X46280755Y-55267700D01*
X46288405Y-55263003D01*
X46288407Y-55263002D01*
X46383076Y-55204875D01*
X46383077Y-55204875D01*
X46390724Y-55200179D01*
X46396745Y-55193527D01*
X46403657Y-55187789D01*
X46405748Y-55190308D01*
X46452632Y-55161597D01*
X46523612Y-55163139D01*
X46555313Y-55178348D01*
X46604060Y-55210796D01*
X46727233Y-55249278D01*
X46736208Y-55249443D01*
X46742731Y-55250499D01*
X46806777Y-55281135D01*
X46844093Y-55341534D01*
X46842831Y-55412520D01*
X46803392Y-55471554D01*
X46789822Y-55481439D01*
X46765751Y-55496627D01*
X46755019Y-55503399D01*
X46749076Y-55510128D01*
X46749075Y-55510129D01*
X46714628Y-55549133D01*
X46669596Y-55600122D01*
X46665782Y-55608245D01*
X46665781Y-55608247D01*
X46645170Y-55652148D01*
X46614754Y-55716932D01*
X46606969Y-55766932D01*
X46596282Y-55835567D01*
X46596282Y-55835571D01*
X46594901Y-55844440D01*
X46596065Y-55853342D01*
X46596065Y-55853345D01*
X46610468Y-55963489D01*
X46610469Y-55963493D01*
X46611633Y-55972394D01*
X46663605Y-56090510D01*
X46669382Y-56097383D01*
X46669383Y-56097384D01*
X46713499Y-56149866D01*
X46746639Y-56189291D01*
X46762230Y-56199669D01*
X46842948Y-56253399D01*
X46854060Y-56260796D01*
X46977233Y-56299278D01*
X46986203Y-56299442D01*
X46986207Y-56299443D01*
X47044942Y-56300519D01*
X47106255Y-56301643D01*
X47185262Y-56280103D01*
X47222092Y-56270062D01*
X47222093Y-56270062D01*
X47230755Y-56267700D01*
X47238405Y-56263003D01*
X47238407Y-56263002D01*
X47333072Y-56204878D01*
X47333075Y-56204875D01*
X47340724Y-56200179D01*
X47350546Y-56189328D01*
X47421300Y-56111161D01*
X47421303Y-56111157D01*
X47427322Y-56104507D01*
X47480650Y-55994440D01*
X49144901Y-55994440D01*
X49146065Y-56003342D01*
X49146065Y-56003345D01*
X49160468Y-56113489D01*
X49160469Y-56113493D01*
X49161633Y-56122394D01*
X49165250Y-56130614D01*
X49191085Y-56189328D01*
X49213605Y-56240510D01*
X49262805Y-56299041D01*
X49291325Y-56364054D01*
X49280169Y-56434169D01*
X49274003Y-56445132D01*
X49269596Y-56450122D01*
X49214754Y-56566932D01*
X49208849Y-56604859D01*
X49196282Y-56685567D01*
X49196282Y-56685571D01*
X49194901Y-56694440D01*
X49196065Y-56703342D01*
X49196065Y-56703345D01*
X49210468Y-56813489D01*
X49210469Y-56813493D01*
X49211633Y-56822394D01*
X49263605Y-56940510D01*
X49269382Y-56947383D01*
X49269383Y-56947384D01*
X49333150Y-57023244D01*
X49346639Y-57039291D01*
X49454060Y-57110796D01*
X49534070Y-57135793D01*
X49568194Y-57146454D01*
X49577233Y-57149278D01*
X49586203Y-57149442D01*
X49586207Y-57149443D01*
X49644942Y-57150519D01*
X49706255Y-57151643D01*
X49813538Y-57122394D01*
X49822092Y-57120062D01*
X49822093Y-57120062D01*
X49830755Y-57117700D01*
X49838405Y-57113003D01*
X49838407Y-57113002D01*
X49933072Y-57054878D01*
X49933075Y-57054875D01*
X49940724Y-57050179D01*
X49949476Y-57040510D01*
X50021300Y-56961161D01*
X50021303Y-56961157D01*
X50027322Y-56954507D01*
X50083588Y-56838375D01*
X50087367Y-56815917D01*
X50104190Y-56715917D01*
X50104997Y-56711120D01*
X50105133Y-56700000D01*
X50094591Y-56626388D01*
X50088112Y-56581145D01*
X50088111Y-56581142D01*
X50086839Y-56572259D01*
X50081086Y-56559606D01*
X50037145Y-56462962D01*
X50037143Y-56462959D01*
X50033428Y-56454788D01*
X49999935Y-56415917D01*
X49988148Y-56402237D01*
X49958835Y-56337574D01*
X49969135Y-56267328D01*
X49974743Y-56257357D01*
X49977322Y-56254507D01*
X50033588Y-56138375D01*
X50035119Y-56129278D01*
X50054190Y-56015917D01*
X50054997Y-56011120D01*
X50055133Y-56000000D01*
X50045753Y-55934505D01*
X50038112Y-55881145D01*
X50038111Y-55881142D01*
X50036839Y-55872259D01*
X50033125Y-55864090D01*
X49987145Y-55762962D01*
X49987143Y-55762959D01*
X49983428Y-55754788D01*
X49932700Y-55695915D01*
X49905051Y-55663826D01*
X49905049Y-55663824D01*
X49899193Y-55657028D01*
X49790906Y-55586841D01*
X49782311Y-55584271D01*
X49782310Y-55584270D01*
X49675874Y-55552438D01*
X49675872Y-55552438D01*
X49667273Y-55549866D01*
X49658298Y-55549811D01*
X49658297Y-55549811D01*
X49603641Y-55549477D01*
X49538231Y-55549078D01*
X49489512Y-55563002D01*
X49422786Y-55582072D01*
X49422784Y-55582073D01*
X49414155Y-55584539D01*
X49305019Y-55653399D01*
X49299076Y-55660128D01*
X49299075Y-55660129D01*
X49275999Y-55686258D01*
X49219596Y-55750122D01*
X49215782Y-55758245D01*
X49215781Y-55758247D01*
X49196128Y-55800108D01*
X49164754Y-55866932D01*
X49158849Y-55904859D01*
X49146282Y-55985567D01*
X49146282Y-55985571D01*
X49144901Y-55994440D01*
X47480650Y-55994440D01*
X47483588Y-55988375D01*
X47493850Y-55927381D01*
X47504190Y-55865917D01*
X47504997Y-55861120D01*
X47505133Y-55850000D01*
X47495272Y-55781145D01*
X47488112Y-55731145D01*
X47488111Y-55731142D01*
X47486839Y-55722259D01*
X47472680Y-55691118D01*
X47437145Y-55612962D01*
X47437143Y-55612959D01*
X47433428Y-55604788D01*
X47388167Y-55552260D01*
X47355051Y-55513826D01*
X47355049Y-55513824D01*
X47349193Y-55507028D01*
X47240906Y-55436841D01*
X47232311Y-55434271D01*
X47232310Y-55434270D01*
X47125874Y-55402438D01*
X47125872Y-55402438D01*
X47117273Y-55399866D01*
X47108848Y-55399815D01*
X47044683Y-55370078D01*
X47006633Y-55310139D01*
X47007028Y-55239144D01*
X47045744Y-55179632D01*
X47061787Y-55167947D01*
X47090724Y-55150179D01*
X47095919Y-55144440D01*
X50194901Y-55144440D01*
X50196065Y-55153342D01*
X50196065Y-55153345D01*
X50210468Y-55263489D01*
X50210469Y-55263493D01*
X50211633Y-55272394D01*
X50223535Y-55299443D01*
X50258933Y-55379891D01*
X50263605Y-55390510D01*
X50269382Y-55397383D01*
X50269383Y-55397384D01*
X50340039Y-55481439D01*
X50346639Y-55489291D01*
X50392490Y-55519812D01*
X50446552Y-55555798D01*
X50454060Y-55560796D01*
X50537425Y-55586841D01*
X50563230Y-55594903D01*
X50577233Y-55599278D01*
X50586203Y-55599442D01*
X50586207Y-55599443D01*
X50644942Y-55600519D01*
X50706255Y-55601643D01*
X50778040Y-55582072D01*
X50822092Y-55570062D01*
X50822093Y-55570062D01*
X50830755Y-55567700D01*
X50838405Y-55563003D01*
X50838407Y-55563002D01*
X50933072Y-55504878D01*
X50933075Y-55504875D01*
X50940724Y-55500179D01*
X50946750Y-55493522D01*
X51021300Y-55411161D01*
X51021303Y-55411157D01*
X51027322Y-55404507D01*
X51083588Y-55288375D01*
X51086300Y-55272259D01*
X51104190Y-55165917D01*
X51104997Y-55161120D01*
X51105065Y-55155530D01*
X51105074Y-55154859D01*
X51105074Y-55154853D01*
X51105133Y-55150000D01*
X51092410Y-55061161D01*
X51088112Y-55031145D01*
X51088111Y-55031142D01*
X51086839Y-55022259D01*
X51052371Y-54946450D01*
X51037145Y-54912962D01*
X51037143Y-54912959D01*
X51033428Y-54904788D01*
X50973784Y-54835567D01*
X50955051Y-54813826D01*
X50955049Y-54813824D01*
X50949193Y-54807028D01*
X50840906Y-54736841D01*
X50832311Y-54734271D01*
X50832310Y-54734270D01*
X50725874Y-54702438D01*
X50725872Y-54702438D01*
X50717273Y-54699866D01*
X50708298Y-54699811D01*
X50708297Y-54699811D01*
X50653641Y-54699477D01*
X50588231Y-54699078D01*
X50554183Y-54708809D01*
X50472786Y-54732072D01*
X50472784Y-54732073D01*
X50464155Y-54734539D01*
X50355019Y-54803399D01*
X50269596Y-54900122D01*
X50265782Y-54908245D01*
X50265781Y-54908247D01*
X50262180Y-54915917D01*
X50214754Y-55016932D01*
X50210161Y-55046432D01*
X50196282Y-55135567D01*
X50196282Y-55135571D01*
X50194901Y-55144440D01*
X47095919Y-55144440D01*
X47099476Y-55140510D01*
X47171300Y-55061161D01*
X47171303Y-55061157D01*
X47177322Y-55054507D01*
X47233588Y-54938375D01*
X47237367Y-54915917D01*
X47254190Y-54815917D01*
X47254997Y-54811120D01*
X47255133Y-54800000D01*
X47245405Y-54732072D01*
X47238112Y-54681145D01*
X47238111Y-54681142D01*
X47236839Y-54672259D01*
X47232852Y-54663489D01*
X47187145Y-54562962D01*
X47187143Y-54562959D01*
X47183428Y-54554788D01*
X47137636Y-54501643D01*
X47105051Y-54463826D01*
X47105049Y-54463824D01*
X47099193Y-54457028D01*
X46990906Y-54386841D01*
X46982311Y-54384271D01*
X46982310Y-54384270D01*
X46875874Y-54352438D01*
X46875872Y-54352438D01*
X46867273Y-54349866D01*
X46858298Y-54349811D01*
X46858297Y-54349811D01*
X46803641Y-54349477D01*
X46738231Y-54349078D01*
X46726475Y-54352438D01*
X46622786Y-54382072D01*
X46622784Y-54382073D01*
X46614155Y-54384539D01*
X46606565Y-54389328D01*
X46531262Y-54436841D01*
X46505019Y-54453399D01*
X46499078Y-54460126D01*
X46496069Y-54462687D01*
X46431230Y-54491607D01*
X46361048Y-54480880D01*
X46345872Y-54472467D01*
X46298439Y-54441723D01*
X46298436Y-54441722D01*
X46290906Y-54436841D01*
X46282311Y-54434271D01*
X46282310Y-54434270D01*
X46175874Y-54402438D01*
X46175872Y-54402438D01*
X46167273Y-54399866D01*
X46158298Y-54399811D01*
X46158297Y-54399811D01*
X46103641Y-54399477D01*
X46038231Y-54399078D01*
X45979312Y-54415917D01*
X45922786Y-54432072D01*
X45922784Y-54432073D01*
X45914155Y-54434539D01*
X45805019Y-54503399D01*
X45799076Y-54510128D01*
X45799075Y-54510129D01*
X45765642Y-54547985D01*
X45719596Y-54600122D01*
X45715782Y-54608245D01*
X45715781Y-54608247D01*
X45693930Y-54654788D01*
X45664754Y-54716932D01*
X45656969Y-54766932D01*
X45646282Y-54835567D01*
X45646282Y-54835571D01*
X45644901Y-54844440D01*
X36700500Y-54844440D01*
X36700500Y-54044440D01*
X47644901Y-54044440D01*
X47646065Y-54053342D01*
X47646065Y-54053345D01*
X47660468Y-54163489D01*
X47660469Y-54163493D01*
X47661633Y-54172394D01*
X47665250Y-54180614D01*
X47707132Y-54275798D01*
X47713605Y-54290510D01*
X47719382Y-54297383D01*
X47719383Y-54297384D01*
X47763499Y-54349866D01*
X47796639Y-54389291D01*
X47804116Y-54394268D01*
X47892948Y-54453399D01*
X47904060Y-54460796D01*
X48027233Y-54499278D01*
X48036203Y-54499442D01*
X48036207Y-54499443D01*
X48094942Y-54500519D01*
X48156255Y-54501643D01*
X48232412Y-54480880D01*
X48272092Y-54470062D01*
X48272093Y-54470062D01*
X48280755Y-54467700D01*
X48288405Y-54463003D01*
X48288407Y-54463002D01*
X48383072Y-54404878D01*
X48383075Y-54404875D01*
X48390724Y-54400179D01*
X48400546Y-54389328D01*
X48471300Y-54311161D01*
X48471303Y-54311157D01*
X48477322Y-54304507D01*
X48533588Y-54188375D01*
X48537864Y-54162962D01*
X48554190Y-54065917D01*
X48554997Y-54061120D01*
X48555133Y-54050000D01*
X48540709Y-53949281D01*
X48538112Y-53931145D01*
X48538111Y-53931142D01*
X48536839Y-53922259D01*
X48506203Y-53854878D01*
X48487145Y-53812962D01*
X48487143Y-53812959D01*
X48483428Y-53804788D01*
X48433966Y-53747384D01*
X48405051Y-53713826D01*
X48405049Y-53713824D01*
X48399193Y-53707028D01*
X48302630Y-53644440D01*
X57444901Y-53644440D01*
X57446065Y-53653342D01*
X57446065Y-53653345D01*
X57460468Y-53763489D01*
X57460469Y-53763493D01*
X57461633Y-53772394D01*
X57513605Y-53890510D01*
X57519382Y-53897383D01*
X57519383Y-53897384D01*
X57565661Y-53952438D01*
X57596639Y-53989291D01*
X57604116Y-53994268D01*
X57692948Y-54053399D01*
X57704060Y-54060796D01*
X57827233Y-54099278D01*
X57836203Y-54099442D01*
X57836207Y-54099443D01*
X57894942Y-54100519D01*
X57956255Y-54101643D01*
X58018505Y-54084671D01*
X58072092Y-54070062D01*
X58072093Y-54070062D01*
X58080755Y-54067700D01*
X58088405Y-54063003D01*
X58088407Y-54063002D01*
X58183072Y-54004878D01*
X58183075Y-54004875D01*
X58190724Y-54000179D01*
X58200546Y-53989328D01*
X58271300Y-53911161D01*
X58271303Y-53911157D01*
X58277322Y-53904507D01*
X58333588Y-53788375D01*
X58338167Y-53761161D01*
X58354190Y-53665917D01*
X58354997Y-53661120D01*
X58355133Y-53650000D01*
X58336839Y-53522259D01*
X58333125Y-53514090D01*
X58324191Y-53494440D01*
X59244901Y-53494440D01*
X59246065Y-53503342D01*
X59246065Y-53503345D01*
X59260468Y-53613489D01*
X59260469Y-53613493D01*
X59261633Y-53622394D01*
X59313605Y-53740510D01*
X59319382Y-53747383D01*
X59319383Y-53747384D01*
X59360627Y-53796450D01*
X59396639Y-53839291D01*
X59504060Y-53910796D01*
X59627233Y-53949278D01*
X59636203Y-53949442D01*
X59636207Y-53949443D01*
X59694942Y-53950519D01*
X59756255Y-53951643D01*
X59831440Y-53931145D01*
X59872092Y-53920062D01*
X59872093Y-53920062D01*
X59880755Y-53917700D01*
X59888405Y-53913003D01*
X59888407Y-53913002D01*
X59983072Y-53854878D01*
X59983075Y-53854875D01*
X59990724Y-53850179D01*
X59996750Y-53843522D01*
X60071300Y-53761161D01*
X60071303Y-53761157D01*
X60077322Y-53754507D01*
X60133588Y-53638375D01*
X60154997Y-53511120D01*
X60155133Y-53500000D01*
X60143347Y-53417700D01*
X60138112Y-53381145D01*
X60138111Y-53381142D01*
X60136839Y-53372259D01*
X60130724Y-53358809D01*
X60087145Y-53262962D01*
X60087143Y-53262959D01*
X60083428Y-53254788D01*
X60037551Y-53201545D01*
X60005051Y-53163826D01*
X60005049Y-53163824D01*
X59999193Y-53157028D01*
X59890906Y-53086841D01*
X59882311Y-53084271D01*
X59882310Y-53084270D01*
X59775874Y-53052438D01*
X59775872Y-53052438D01*
X59767273Y-53049866D01*
X59758298Y-53049811D01*
X59758297Y-53049811D01*
X59703641Y-53049477D01*
X59638231Y-53049078D01*
X59626475Y-53052438D01*
X59522786Y-53082072D01*
X59522784Y-53082073D01*
X59514155Y-53084539D01*
X59405019Y-53153399D01*
X59399076Y-53160128D01*
X59399075Y-53160129D01*
X59364628Y-53199133D01*
X59319596Y-53250122D01*
X59315782Y-53258245D01*
X59315781Y-53258247D01*
X59296832Y-53298608D01*
X59264754Y-53366932D01*
X59257587Y-53412962D01*
X59246282Y-53485567D01*
X59246282Y-53485571D01*
X59244901Y-53494440D01*
X58324191Y-53494440D01*
X58287145Y-53412962D01*
X58287143Y-53412959D01*
X58283428Y-53404788D01*
X58230638Y-53343522D01*
X58205051Y-53313826D01*
X58205049Y-53313824D01*
X58199193Y-53307028D01*
X58090906Y-53236841D01*
X58082311Y-53234271D01*
X58082310Y-53234270D01*
X57975874Y-53202438D01*
X57975872Y-53202438D01*
X57967273Y-53199866D01*
X57958298Y-53199811D01*
X57958297Y-53199811D01*
X57903641Y-53199477D01*
X57838231Y-53199078D01*
X57826475Y-53202438D01*
X57722786Y-53232072D01*
X57722784Y-53232073D01*
X57714155Y-53234539D01*
X57605019Y-53303399D01*
X57599076Y-53310128D01*
X57599075Y-53310129D01*
X57568925Y-53344268D01*
X57519596Y-53400122D01*
X57515782Y-53408245D01*
X57515781Y-53408247D01*
X57511343Y-53417700D01*
X57464754Y-53516932D01*
X57463374Y-53525798D01*
X57446282Y-53635567D01*
X57446282Y-53635571D01*
X57444901Y-53644440D01*
X48302630Y-53644440D01*
X48290906Y-53636841D01*
X48282311Y-53634271D01*
X48282310Y-53634270D01*
X48175874Y-53602438D01*
X48175872Y-53602438D01*
X48167273Y-53599866D01*
X48158298Y-53599811D01*
X48158297Y-53599811D01*
X48103641Y-53599477D01*
X48038231Y-53599078D01*
X48026475Y-53602438D01*
X47922786Y-53632072D01*
X47922784Y-53632073D01*
X47914155Y-53634539D01*
X47805019Y-53703399D01*
X47799076Y-53710128D01*
X47799075Y-53710129D01*
X47767013Y-53746432D01*
X47719596Y-53800122D01*
X47715782Y-53808245D01*
X47715781Y-53808247D01*
X47696094Y-53850179D01*
X47664754Y-53916932D01*
X47659226Y-53952438D01*
X47646282Y-54035567D01*
X47646282Y-54035571D01*
X47644901Y-54044440D01*
X36700500Y-54044440D01*
X36700500Y-52994440D01*
X40744901Y-52994440D01*
X40746065Y-53003342D01*
X40746065Y-53003345D01*
X40760468Y-53113489D01*
X40760469Y-53113493D01*
X40761633Y-53122394D01*
X40813605Y-53240510D01*
X40896639Y-53339291D01*
X40904116Y-53344268D01*
X40988025Y-53400122D01*
X41004060Y-53410796D01*
X41127233Y-53449278D01*
X41136203Y-53449442D01*
X41136207Y-53449443D01*
X41194942Y-53450519D01*
X41256255Y-53451643D01*
X41318505Y-53434671D01*
X41372092Y-53420062D01*
X41372093Y-53420062D01*
X41380755Y-53417700D01*
X41388405Y-53413003D01*
X41388407Y-53413002D01*
X41483072Y-53354878D01*
X41483075Y-53354875D01*
X41490724Y-53350179D01*
X41496750Y-53343522D01*
X41571300Y-53261161D01*
X41571303Y-53261157D01*
X41577322Y-53254507D01*
X41633588Y-53138375D01*
X41639224Y-53104878D01*
X41654190Y-53015917D01*
X41654997Y-53011120D01*
X41655133Y-53000000D01*
X41641047Y-52901642D01*
X41638112Y-52881145D01*
X41638111Y-52881142D01*
X41636839Y-52872259D01*
X41604066Y-52800178D01*
X41587145Y-52762962D01*
X41587143Y-52762959D01*
X41583428Y-52754788D01*
X41547423Y-52713002D01*
X41505051Y-52663826D01*
X41505049Y-52663824D01*
X41499193Y-52657028D01*
X41390906Y-52586841D01*
X41382311Y-52584271D01*
X41382310Y-52584270D01*
X41275874Y-52552438D01*
X41275872Y-52552438D01*
X41267273Y-52549866D01*
X41258298Y-52549811D01*
X41258297Y-52549811D01*
X41203641Y-52549477D01*
X41138231Y-52549078D01*
X41087808Y-52563489D01*
X41022786Y-52582072D01*
X41022784Y-52582073D01*
X41014155Y-52584539D01*
X40905019Y-52653399D01*
X40899076Y-52660128D01*
X40899075Y-52660129D01*
X40864500Y-52699278D01*
X40819596Y-52750122D01*
X40815782Y-52758245D01*
X40815781Y-52758247D01*
X40812180Y-52765917D01*
X40764754Y-52866932D01*
X40759350Y-52901642D01*
X40746282Y-52985567D01*
X40746282Y-52985571D01*
X40744901Y-52994440D01*
X36700500Y-52994440D01*
X36700500Y-52194440D01*
X39444901Y-52194440D01*
X39446065Y-52203342D01*
X39446065Y-52203345D01*
X39460468Y-52313489D01*
X39460469Y-52313493D01*
X39461633Y-52322394D01*
X39513605Y-52440510D01*
X39519382Y-52447383D01*
X39519383Y-52447384D01*
X39567400Y-52504507D01*
X39596639Y-52539291D01*
X39604116Y-52544268D01*
X39678110Y-52593522D01*
X39704060Y-52610796D01*
X39827233Y-52649278D01*
X39836203Y-52649442D01*
X39836207Y-52649443D01*
X39894942Y-52650519D01*
X39956255Y-52651643D01*
X40031440Y-52631145D01*
X40072092Y-52620062D01*
X40072093Y-52620062D01*
X40080755Y-52617700D01*
X40088405Y-52613003D01*
X40088407Y-52613002D01*
X40183072Y-52554878D01*
X40183075Y-52554875D01*
X40190724Y-52550179D01*
X40196750Y-52543522D01*
X40271300Y-52461161D01*
X40271303Y-52461157D01*
X40277322Y-52454507D01*
X40330650Y-52344440D01*
X43894901Y-52344440D01*
X43896065Y-52353342D01*
X43896065Y-52353345D01*
X43910468Y-52463489D01*
X43910469Y-52463493D01*
X43911633Y-52472394D01*
X43923535Y-52499443D01*
X43951716Y-52563489D01*
X43963605Y-52590510D01*
X43969382Y-52597383D01*
X43969383Y-52597384D01*
X44019519Y-52657028D01*
X44046639Y-52689291D01*
X44054116Y-52694268D01*
X44140310Y-52751643D01*
X44154060Y-52760796D01*
X44223255Y-52782414D01*
X44261194Y-52794267D01*
X44277233Y-52799278D01*
X44286203Y-52799442D01*
X44286207Y-52799443D01*
X44344942Y-52800519D01*
X44406255Y-52801643D01*
X44476785Y-52782414D01*
X44522092Y-52770062D01*
X44522093Y-52770062D01*
X44530755Y-52767700D01*
X44538405Y-52763003D01*
X44538407Y-52763002D01*
X44633076Y-52704875D01*
X44633077Y-52704875D01*
X44640724Y-52700179D01*
X44646745Y-52693527D01*
X44653657Y-52687789D01*
X44655748Y-52690308D01*
X44702632Y-52661597D01*
X44773612Y-52663139D01*
X44805313Y-52678348D01*
X44854060Y-52710796D01*
X44933347Y-52735567D01*
X44961748Y-52744440D01*
X44977233Y-52749278D01*
X44986203Y-52749442D01*
X44986207Y-52749443D01*
X45044942Y-52750519D01*
X45106255Y-52751643D01*
X45213538Y-52722394D01*
X45222092Y-52720062D01*
X45222093Y-52720062D01*
X45230755Y-52717700D01*
X45238405Y-52713003D01*
X45238407Y-52713002D01*
X45333072Y-52654878D01*
X45333075Y-52654875D01*
X45340724Y-52650179D01*
X45346750Y-52643522D01*
X45421300Y-52561161D01*
X45421303Y-52561157D01*
X45427322Y-52554507D01*
X45483588Y-52438375D01*
X45489224Y-52404878D01*
X45504190Y-52315917D01*
X45504997Y-52311120D01*
X45505133Y-52300000D01*
X45497176Y-52244440D01*
X45488112Y-52181145D01*
X45488111Y-52181142D01*
X45486839Y-52172259D01*
X45477421Y-52151545D01*
X45437145Y-52062962D01*
X45437143Y-52062959D01*
X45433428Y-52054788D01*
X45390724Y-52005227D01*
X45355051Y-51963826D01*
X45355049Y-51963824D01*
X45349193Y-51957028D01*
X45240906Y-51886841D01*
X45232311Y-51884271D01*
X45232310Y-51884270D01*
X45125874Y-51852438D01*
X45125872Y-51852438D01*
X45117273Y-51849866D01*
X45108298Y-51849811D01*
X45108297Y-51849811D01*
X45053641Y-51849477D01*
X44988231Y-51849078D01*
X44936629Y-51863826D01*
X44872786Y-51882072D01*
X44872784Y-51882073D01*
X44864155Y-51884539D01*
X44856565Y-51889328D01*
X44763600Y-51947985D01*
X44755019Y-51953399D01*
X44749078Y-51960126D01*
X44746069Y-51962687D01*
X44681230Y-51991607D01*
X44611048Y-51980880D01*
X44595872Y-51972467D01*
X44548439Y-51941723D01*
X44548436Y-51941722D01*
X44540906Y-51936841D01*
X44532311Y-51934271D01*
X44532310Y-51934270D01*
X44425874Y-51902438D01*
X44425872Y-51902438D01*
X44417273Y-51899866D01*
X44408298Y-51899811D01*
X44408297Y-51899811D01*
X44353641Y-51899477D01*
X44288231Y-51899078D01*
X44235705Y-51914090D01*
X44172786Y-51932072D01*
X44172784Y-51932073D01*
X44164155Y-51934539D01*
X44141852Y-51948611D01*
X44063600Y-51997985D01*
X44055019Y-52003399D01*
X44049076Y-52010128D01*
X44049075Y-52010129D01*
X44022222Y-52040534D01*
X43969596Y-52100122D01*
X43965782Y-52108245D01*
X43965781Y-52108247D01*
X43957541Y-52125798D01*
X43914754Y-52216932D01*
X43909076Y-52253399D01*
X43896282Y-52335567D01*
X43896282Y-52335571D01*
X43894901Y-52344440D01*
X40330650Y-52344440D01*
X40333588Y-52338375D01*
X40337367Y-52315917D01*
X40354190Y-52215917D01*
X40354997Y-52211120D01*
X40355133Y-52200000D01*
X40345272Y-52131145D01*
X40338112Y-52081145D01*
X40338111Y-52081142D01*
X40336839Y-52072259D01*
X40332612Y-52062962D01*
X40287145Y-51962962D01*
X40287143Y-51962959D01*
X40283428Y-51954788D01*
X40236374Y-51900179D01*
X40205051Y-51863826D01*
X40205049Y-51863824D01*
X40199193Y-51857028D01*
X40090906Y-51786841D01*
X40082311Y-51784271D01*
X40082310Y-51784270D01*
X39975874Y-51752438D01*
X39975872Y-51752438D01*
X39967273Y-51749866D01*
X39958298Y-51749811D01*
X39958297Y-51749811D01*
X39903641Y-51749477D01*
X39838231Y-51749078D01*
X39795075Y-51761412D01*
X39722786Y-51782072D01*
X39722784Y-51782073D01*
X39714155Y-51784539D01*
X39691112Y-51799078D01*
X39639575Y-51831596D01*
X39605019Y-51853399D01*
X39599076Y-51860128D01*
X39599075Y-51860129D01*
X39564628Y-51899133D01*
X39519596Y-51950122D01*
X39515782Y-51958245D01*
X39515781Y-51958247D01*
X39513162Y-51963826D01*
X39464754Y-52066932D01*
X39456969Y-52116932D01*
X39446282Y-52185567D01*
X39446282Y-52185571D01*
X39444901Y-52194440D01*
X36700500Y-52194440D01*
X36700500Y-51344440D01*
X37694901Y-51344440D01*
X37696065Y-51353342D01*
X37696065Y-51353345D01*
X37710468Y-51463489D01*
X37710469Y-51463493D01*
X37711633Y-51472394D01*
X37723677Y-51499766D01*
X37756564Y-51574507D01*
X37763605Y-51590510D01*
X37769382Y-51597383D01*
X37769383Y-51597384D01*
X37834520Y-51674874D01*
X37846639Y-51689291D01*
X37854116Y-51694268D01*
X37940310Y-51751643D01*
X37954060Y-51760796D01*
X38037425Y-51786841D01*
X38058400Y-51793394D01*
X38077233Y-51799278D01*
X38086203Y-51799442D01*
X38086207Y-51799443D01*
X38144942Y-51800519D01*
X38206255Y-51801643D01*
X38269978Y-51784270D01*
X38322092Y-51770062D01*
X38322093Y-51770062D01*
X38330755Y-51767700D01*
X38338405Y-51763003D01*
X38338407Y-51763002D01*
X38433072Y-51704878D01*
X38433077Y-51704874D01*
X38440724Y-51700179D01*
X38446750Y-51693522D01*
X38521300Y-51611161D01*
X38521303Y-51611157D01*
X38527322Y-51604507D01*
X38583588Y-51488375D01*
X38587067Y-51467700D01*
X38604190Y-51365917D01*
X38604997Y-51361120D01*
X38605133Y-51350000D01*
X38596128Y-51287121D01*
X38588112Y-51231145D01*
X38588111Y-51231142D01*
X38586839Y-51222259D01*
X38580724Y-51208809D01*
X38537145Y-51112962D01*
X38537143Y-51112959D01*
X38533428Y-51104788D01*
X38497761Y-51063394D01*
X38455051Y-51013826D01*
X38455049Y-51013824D01*
X38449193Y-51007028D01*
X38340906Y-50936841D01*
X38332311Y-50934271D01*
X38332310Y-50934270D01*
X38225874Y-50902438D01*
X38225872Y-50902438D01*
X38217273Y-50899866D01*
X38208298Y-50899811D01*
X38208297Y-50899811D01*
X38153641Y-50899477D01*
X38088231Y-50899078D01*
X38043973Y-50911727D01*
X37972786Y-50932072D01*
X37972784Y-50932073D01*
X37964155Y-50934539D01*
X37936606Y-50951921D01*
X37896810Y-50977031D01*
X37855019Y-51003399D01*
X37849076Y-51010128D01*
X37849075Y-51010129D01*
X37791724Y-51075067D01*
X37769596Y-51100122D01*
X37765782Y-51108245D01*
X37765781Y-51108247D01*
X37742043Y-51158809D01*
X37714754Y-51216932D01*
X37713374Y-51225798D01*
X37696282Y-51335567D01*
X37696282Y-51335571D01*
X37694901Y-51344440D01*
X36700500Y-51344440D01*
X36700500Y-50544440D01*
X40044901Y-50544440D01*
X40046065Y-50553342D01*
X40046065Y-50553345D01*
X40060468Y-50663489D01*
X40060469Y-50663493D01*
X40061633Y-50672394D01*
X40065250Y-50680614D01*
X40101716Y-50763489D01*
X40113605Y-50790510D01*
X40196639Y-50889291D01*
X40304060Y-50960796D01*
X40427233Y-50999278D01*
X40436203Y-50999442D01*
X40436207Y-50999443D01*
X40494942Y-51000519D01*
X40556255Y-51001643D01*
X40659848Y-50973400D01*
X40672092Y-50970062D01*
X40672093Y-50970062D01*
X40680755Y-50967700D01*
X40688405Y-50963003D01*
X40688407Y-50963002D01*
X40783072Y-50904878D01*
X40783075Y-50904875D01*
X40790724Y-50900179D01*
X40799476Y-50890510D01*
X40871300Y-50811161D01*
X40871303Y-50811157D01*
X40877322Y-50804507D01*
X40933588Y-50688375D01*
X40937367Y-50665917D01*
X40940980Y-50644440D01*
X46894901Y-50644440D01*
X46896065Y-50653342D01*
X46896065Y-50653345D01*
X46910468Y-50763489D01*
X46910469Y-50763493D01*
X46911633Y-50772394D01*
X46922210Y-50796432D01*
X46955262Y-50871548D01*
X46963605Y-50890510D01*
X46969382Y-50897383D01*
X46969383Y-50897384D01*
X47042906Y-50984850D01*
X47071427Y-51049865D01*
X47060510Y-51119473D01*
X47022165Y-51201147D01*
X47014754Y-51216932D01*
X47013374Y-51225798D01*
X46996282Y-51335567D01*
X46996282Y-51335571D01*
X46994901Y-51344440D01*
X46996065Y-51353342D01*
X46996065Y-51353345D01*
X47010468Y-51463489D01*
X47010469Y-51463493D01*
X47011633Y-51472394D01*
X47023677Y-51499766D01*
X47056564Y-51574507D01*
X47063605Y-51590510D01*
X47069382Y-51597383D01*
X47069383Y-51597384D01*
X47075371Y-51604507D01*
X47146639Y-51689291D01*
X47148264Y-51690373D01*
X47183847Y-51747686D01*
X47182742Y-51818674D01*
X47143432Y-51877795D01*
X47129647Y-51887859D01*
X47112617Y-51898604D01*
X47112612Y-51898608D01*
X47105019Y-51903399D01*
X47099076Y-51910128D01*
X47099075Y-51910129D01*
X47052415Y-51962962D01*
X47019596Y-52000122D01*
X47015782Y-52008245D01*
X47015781Y-52008247D01*
X46997124Y-52047985D01*
X46964754Y-52116932D01*
X46956140Y-52172259D01*
X46946282Y-52235567D01*
X46946282Y-52235571D01*
X46944901Y-52244440D01*
X46946065Y-52253342D01*
X46946065Y-52253345D01*
X46960468Y-52363489D01*
X46960469Y-52363493D01*
X46961633Y-52372394D01*
X46975926Y-52404878D01*
X47007132Y-52475798D01*
X47013605Y-52490510D01*
X47019382Y-52497383D01*
X47019383Y-52497384D01*
X47088428Y-52579523D01*
X47096639Y-52589291D01*
X47104116Y-52594268D01*
X47192948Y-52653399D01*
X47204060Y-52660796D01*
X47327233Y-52699278D01*
X47336203Y-52699442D01*
X47336207Y-52699443D01*
X47394942Y-52700519D01*
X47456255Y-52701643D01*
X47541699Y-52678348D01*
X47572092Y-52670062D01*
X47572093Y-52670062D01*
X47580755Y-52667700D01*
X47588405Y-52663003D01*
X47588407Y-52663002D01*
X47683072Y-52604878D01*
X47683075Y-52604875D01*
X47690724Y-52600179D01*
X47695919Y-52594440D01*
X49594901Y-52594440D01*
X49596065Y-52603342D01*
X49596065Y-52603345D01*
X49610468Y-52713489D01*
X49610469Y-52713493D01*
X49611633Y-52722394D01*
X49663605Y-52840510D01*
X49669382Y-52847383D01*
X49669383Y-52847384D01*
X49713004Y-52899277D01*
X49746639Y-52939291D01*
X49854060Y-53010796D01*
X49977233Y-53049278D01*
X49986203Y-53049442D01*
X49986207Y-53049443D01*
X50044942Y-53050519D01*
X50106255Y-53051643D01*
X50168505Y-53034671D01*
X50222092Y-53020062D01*
X50222093Y-53020062D01*
X50230755Y-53017700D01*
X50238405Y-53013003D01*
X50238407Y-53013002D01*
X50333072Y-52954878D01*
X50333075Y-52954875D01*
X50340724Y-52950179D01*
X50346750Y-52943522D01*
X50421300Y-52861161D01*
X50421303Y-52861157D01*
X50427322Y-52854507D01*
X50480650Y-52744440D01*
X52244901Y-52744440D01*
X52246065Y-52753342D01*
X52246065Y-52753345D01*
X52260468Y-52863489D01*
X52260469Y-52863493D01*
X52261633Y-52872394D01*
X52313605Y-52990510D01*
X52319382Y-52997383D01*
X52319383Y-52997384D01*
X52365661Y-53052438D01*
X52396639Y-53089291D01*
X52404116Y-53094268D01*
X52492948Y-53153399D01*
X52504060Y-53160796D01*
X52627233Y-53199278D01*
X52636203Y-53199442D01*
X52636207Y-53199443D01*
X52694942Y-53200519D01*
X52756255Y-53201643D01*
X52818505Y-53184671D01*
X52872092Y-53170062D01*
X52872093Y-53170062D01*
X52880755Y-53167700D01*
X52888405Y-53163003D01*
X52888407Y-53163002D01*
X52983072Y-53104878D01*
X52983075Y-53104875D01*
X52990724Y-53100179D01*
X53000546Y-53089328D01*
X53071300Y-53011161D01*
X53071303Y-53011157D01*
X53077322Y-53004507D01*
X53133588Y-52888375D01*
X53136300Y-52872259D01*
X53154190Y-52765917D01*
X53154997Y-52761120D01*
X53155133Y-52750000D01*
X53142792Y-52663826D01*
X53138112Y-52631145D01*
X53138111Y-52631142D01*
X53136839Y-52622259D01*
X53132630Y-52613002D01*
X53087145Y-52512962D01*
X53087143Y-52512959D01*
X53083428Y-52504788D01*
X53045837Y-52461161D01*
X53031429Y-52444440D01*
X55994902Y-52444440D01*
X55996066Y-52453342D01*
X55996066Y-52453345D01*
X56010469Y-52563489D01*
X56010470Y-52563493D01*
X56011634Y-52572394D01*
X56063606Y-52690509D01*
X56069383Y-52697382D01*
X56069384Y-52697383D01*
X56126993Y-52765917D01*
X56146640Y-52789290D01*
X56254061Y-52860795D01*
X56377233Y-52899277D01*
X56386203Y-52899441D01*
X56386207Y-52899442D01*
X56444942Y-52900518D01*
X56506255Y-52901642D01*
X56601049Y-52875798D01*
X56622092Y-52870061D01*
X56622093Y-52870061D01*
X56630755Y-52867699D01*
X56638405Y-52863002D01*
X56638407Y-52863001D01*
X56733076Y-52804874D01*
X56733077Y-52804874D01*
X56740724Y-52800178D01*
X56827322Y-52704507D01*
X56865456Y-52625798D01*
X56879673Y-52596454D01*
X56879673Y-52596453D01*
X56883587Y-52588375D01*
X56904996Y-52461120D01*
X56905132Y-52450000D01*
X56899952Y-52413826D01*
X56888111Y-52331147D01*
X56888110Y-52331145D01*
X56886838Y-52322260D01*
X56859040Y-52261120D01*
X56842980Y-52225798D01*
X56833427Y-52204788D01*
X56749193Y-52107029D01*
X56640906Y-52036841D01*
X56535194Y-52005227D01*
X56475662Y-51966546D01*
X56446676Y-51902228D01*
X56440601Y-51939868D01*
X56393191Y-51992716D01*
X56361530Y-52006710D01*
X56278543Y-52030428D01*
X56264156Y-52034540D01*
X56155020Y-52103400D01*
X56069597Y-52200122D01*
X56065783Y-52208245D01*
X56065782Y-52208247D01*
X56046833Y-52248608D01*
X56014755Y-52316932D01*
X56008861Y-52354788D01*
X55996283Y-52435567D01*
X55996283Y-52435571D01*
X55994902Y-52444440D01*
X53031429Y-52444440D01*
X53005051Y-52413826D01*
X53005049Y-52413824D01*
X52999193Y-52407028D01*
X52890906Y-52336841D01*
X52882311Y-52334271D01*
X52882310Y-52334270D01*
X52775874Y-52302438D01*
X52775872Y-52302438D01*
X52767273Y-52299866D01*
X52758298Y-52299811D01*
X52758297Y-52299811D01*
X52703641Y-52299477D01*
X52638231Y-52299078D01*
X52579312Y-52315917D01*
X52522786Y-52332072D01*
X52522784Y-52332073D01*
X52514155Y-52334539D01*
X52489458Y-52350122D01*
X52419491Y-52394268D01*
X52405019Y-52403399D01*
X52399076Y-52410128D01*
X52399075Y-52410129D01*
X52366173Y-52447384D01*
X52319596Y-52500122D01*
X52315782Y-52508245D01*
X52315781Y-52508247D01*
X52296611Y-52549078D01*
X52264754Y-52616932D01*
X52257800Y-52661597D01*
X52246282Y-52735567D01*
X52246282Y-52735571D01*
X52244901Y-52744440D01*
X50480650Y-52744440D01*
X50483588Y-52738375D01*
X50487067Y-52717700D01*
X50504190Y-52615917D01*
X50504997Y-52611120D01*
X50505065Y-52605530D01*
X50505074Y-52604859D01*
X50505074Y-52604853D01*
X50505133Y-52600000D01*
X50491498Y-52504788D01*
X50488112Y-52481145D01*
X50488111Y-52481142D01*
X50486839Y-52472259D01*
X50481793Y-52461161D01*
X50437145Y-52362962D01*
X50437143Y-52362959D01*
X50433428Y-52354788D01*
X50395837Y-52311161D01*
X50355051Y-52263826D01*
X50355049Y-52263824D01*
X50349193Y-52257028D01*
X50240906Y-52186841D01*
X50232311Y-52184271D01*
X50232310Y-52184270D01*
X50125874Y-52152438D01*
X50125872Y-52152438D01*
X50117273Y-52149866D01*
X50108298Y-52149811D01*
X50108297Y-52149811D01*
X50053641Y-52149477D01*
X49988231Y-52149078D01*
X49976475Y-52152438D01*
X49872786Y-52182072D01*
X49872784Y-52182073D01*
X49864155Y-52184539D01*
X49755019Y-52253399D01*
X49749076Y-52260128D01*
X49749075Y-52260129D01*
X49714628Y-52299133D01*
X49669596Y-52350122D01*
X49665782Y-52358245D01*
X49665781Y-52358247D01*
X49647845Y-52396450D01*
X49614754Y-52466932D01*
X49608904Y-52504507D01*
X49596282Y-52585567D01*
X49596282Y-52585571D01*
X49594901Y-52594440D01*
X47695919Y-52594440D01*
X47700546Y-52589328D01*
X47771300Y-52511161D01*
X47771303Y-52511157D01*
X47777322Y-52504507D01*
X47833588Y-52388375D01*
X47837864Y-52362962D01*
X47854190Y-52265917D01*
X47854997Y-52261120D01*
X47855133Y-52250000D01*
X47846088Y-52186841D01*
X47838112Y-52131145D01*
X47838111Y-52131142D01*
X47836839Y-52122259D01*
X47830468Y-52108247D01*
X47801457Y-52044440D01*
X50894901Y-52044440D01*
X50896065Y-52053342D01*
X50896065Y-52053345D01*
X50910468Y-52163489D01*
X50910469Y-52163493D01*
X50911633Y-52172394D01*
X50963605Y-52290510D01*
X50969382Y-52297383D01*
X50969383Y-52297384D01*
X51038431Y-52379526D01*
X51046639Y-52389291D01*
X51154060Y-52460796D01*
X51219193Y-52481145D01*
X51268124Y-52496432D01*
X51277233Y-52499278D01*
X51286203Y-52499442D01*
X51286207Y-52499443D01*
X51344942Y-52500519D01*
X51406255Y-52501643D01*
X51483388Y-52480614D01*
X51522092Y-52470062D01*
X51522093Y-52470062D01*
X51530755Y-52467700D01*
X51538405Y-52463003D01*
X51538407Y-52463002D01*
X51633072Y-52404878D01*
X51633075Y-52404875D01*
X51640724Y-52400179D01*
X51646750Y-52393522D01*
X51721300Y-52311161D01*
X51721303Y-52311157D01*
X51727322Y-52304507D01*
X51783588Y-52188375D01*
X51786300Y-52172259D01*
X51804190Y-52065917D01*
X51804997Y-52061120D01*
X51805133Y-52050000D01*
X51795234Y-51980880D01*
X51788112Y-51931145D01*
X51788111Y-51931142D01*
X51786839Y-51922259D01*
X51779515Y-51906150D01*
X51737145Y-51812962D01*
X51737143Y-51812959D01*
X51733428Y-51804788D01*
X51702972Y-51769442D01*
X51655051Y-51713826D01*
X51655049Y-51713824D01*
X51649193Y-51707028D01*
X51540906Y-51636841D01*
X51532311Y-51634271D01*
X51532310Y-51634270D01*
X51425874Y-51602438D01*
X51425872Y-51602438D01*
X51417273Y-51599866D01*
X51408298Y-51599811D01*
X51408297Y-51599811D01*
X51353641Y-51599477D01*
X51288231Y-51599078D01*
X51226193Y-51616808D01*
X51172786Y-51632072D01*
X51172784Y-51632073D01*
X51164155Y-51634539D01*
X51156565Y-51639328D01*
X51069491Y-51694268D01*
X51055019Y-51703399D01*
X51049076Y-51710128D01*
X51049075Y-51710129D01*
X51002428Y-51762947D01*
X50969596Y-51800122D01*
X50965782Y-51808245D01*
X50965781Y-51808247D01*
X50946832Y-51848608D01*
X50914754Y-51916932D01*
X50907630Y-51962687D01*
X50896282Y-52035567D01*
X50896282Y-52035571D01*
X50894901Y-52044440D01*
X47801457Y-52044440D01*
X47787145Y-52012962D01*
X47787143Y-52012959D01*
X47783428Y-52004788D01*
X47699193Y-51907028D01*
X47700212Y-51906150D01*
X47667001Y-51854088D01*
X47667240Y-51783092D01*
X47705824Y-51723495D01*
X47722079Y-51711627D01*
X47740724Y-51700179D01*
X47746750Y-51693522D01*
X47821300Y-51611161D01*
X47821303Y-51611157D01*
X47827322Y-51604507D01*
X47883588Y-51488375D01*
X47887067Y-51467700D01*
X47904190Y-51365917D01*
X47904997Y-51361120D01*
X47905133Y-51350000D01*
X47896128Y-51287121D01*
X47888112Y-51231145D01*
X47888111Y-51231142D01*
X47886839Y-51222259D01*
X47880724Y-51208809D01*
X47837145Y-51112962D01*
X47837143Y-51112959D01*
X47833428Y-51104788D01*
X47827568Y-51097987D01*
X47827564Y-51097981D01*
X47757427Y-51016583D01*
X47728113Y-50951921D01*
X47739488Y-50879398D01*
X47779674Y-50796454D01*
X47779675Y-50796452D01*
X47783588Y-50788375D01*
X47804997Y-50661120D01*
X47805133Y-50650000D01*
X47793680Y-50570028D01*
X47788112Y-50531145D01*
X47788111Y-50531142D01*
X47786839Y-50522259D01*
X47776546Y-50499621D01*
X47737145Y-50412962D01*
X47737143Y-50412959D01*
X47733428Y-50404788D01*
X47671067Y-50332414D01*
X47655051Y-50313826D01*
X47655049Y-50313824D01*
X47649193Y-50307028D01*
X47540906Y-50236841D01*
X47532311Y-50234271D01*
X47532310Y-50234270D01*
X47425874Y-50202438D01*
X47425872Y-50202438D01*
X47417273Y-50199866D01*
X47408298Y-50199811D01*
X47408297Y-50199811D01*
X47353641Y-50199477D01*
X47288231Y-50199078D01*
X47236629Y-50213826D01*
X47172786Y-50232072D01*
X47172784Y-50232073D01*
X47164155Y-50234539D01*
X47156565Y-50239328D01*
X47063600Y-50297985D01*
X47055019Y-50303399D01*
X47049076Y-50310128D01*
X47049075Y-50310129D01*
X47013705Y-50350178D01*
X46969596Y-50400122D01*
X46965782Y-50408245D01*
X46965781Y-50408247D01*
X46959139Y-50422394D01*
X46914754Y-50516932D01*
X46908860Y-50554788D01*
X46896282Y-50635567D01*
X46896282Y-50635571D01*
X46894901Y-50644440D01*
X40940980Y-50644440D01*
X40954190Y-50565917D01*
X40954997Y-50561120D01*
X40955133Y-50550000D01*
X40941047Y-50451642D01*
X40938112Y-50431145D01*
X40938111Y-50431142D01*
X40936839Y-50422259D01*
X40929365Y-50405820D01*
X40887145Y-50312962D01*
X40887143Y-50312959D01*
X40883428Y-50304788D01*
X40847423Y-50263002D01*
X40805051Y-50213826D01*
X40805049Y-50213824D01*
X40799193Y-50207028D01*
X40690906Y-50136841D01*
X40682311Y-50134271D01*
X40682310Y-50134270D01*
X40575874Y-50102438D01*
X40575872Y-50102438D01*
X40567273Y-50099866D01*
X40558298Y-50099811D01*
X40558297Y-50099811D01*
X40503641Y-50099477D01*
X40438231Y-50099078D01*
X40387808Y-50113489D01*
X40322786Y-50132072D01*
X40322784Y-50132073D01*
X40314155Y-50134539D01*
X40306565Y-50139328D01*
X40219491Y-50194268D01*
X40205019Y-50203399D01*
X40199076Y-50210128D01*
X40199075Y-50210129D01*
X40159882Y-50254507D01*
X40119596Y-50300122D01*
X40115782Y-50308245D01*
X40115781Y-50308247D01*
X40113162Y-50313826D01*
X40064754Y-50416932D01*
X40059350Y-50451642D01*
X40046282Y-50535567D01*
X40046282Y-50535571D01*
X40044901Y-50544440D01*
X36700500Y-50544440D01*
X36700500Y-49844440D01*
X39094901Y-49844440D01*
X39096065Y-49853342D01*
X39096065Y-49853345D01*
X39110468Y-49963489D01*
X39110469Y-49963493D01*
X39111633Y-49972394D01*
X39163605Y-50090510D01*
X39169382Y-50097383D01*
X39169383Y-50097384D01*
X39240859Y-50182415D01*
X39246639Y-50189291D01*
X39354060Y-50260796D01*
X39433347Y-50285567D01*
X39461748Y-50294440D01*
X39477233Y-50299278D01*
X39486203Y-50299442D01*
X39486207Y-50299443D01*
X39544942Y-50300519D01*
X39606255Y-50301643D01*
X39668505Y-50284671D01*
X39722092Y-50270062D01*
X39722093Y-50270062D01*
X39730755Y-50267700D01*
X39738405Y-50263003D01*
X39738407Y-50263002D01*
X39833072Y-50204878D01*
X39833075Y-50204875D01*
X39840724Y-50200179D01*
X39846750Y-50193522D01*
X39921300Y-50111161D01*
X39921303Y-50111157D01*
X39927322Y-50104507D01*
X39983588Y-49988375D01*
X39990642Y-49946450D01*
X40004190Y-49865917D01*
X40004997Y-49861120D01*
X40005133Y-49850000D01*
X39988598Y-49734543D01*
X39998740Y-49664276D01*
X40045263Y-49610646D01*
X40080181Y-49595120D01*
X40128036Y-49582073D01*
X40172093Y-49570062D01*
X40172096Y-49570061D01*
X40180755Y-49567700D01*
X40188405Y-49563003D01*
X40188407Y-49563002D01*
X40283072Y-49504878D01*
X40283075Y-49504875D01*
X40290724Y-49500179D01*
X40296750Y-49493522D01*
X40371300Y-49411161D01*
X40371303Y-49411157D01*
X40377322Y-49404507D01*
X40433588Y-49288375D01*
X40454997Y-49161120D01*
X40455133Y-49150000D01*
X40441498Y-49054788D01*
X40438112Y-49031145D01*
X40438111Y-49031142D01*
X40436839Y-49022259D01*
X40427384Y-49001463D01*
X40387145Y-48912962D01*
X40387143Y-48912959D01*
X40383428Y-48904788D01*
X40357625Y-48874842D01*
X40305051Y-48813826D01*
X40305049Y-48813824D01*
X40299193Y-48807028D01*
X40190906Y-48736841D01*
X40182311Y-48734271D01*
X40182310Y-48734270D01*
X40075874Y-48702438D01*
X40075872Y-48702438D01*
X40067273Y-48699866D01*
X40058298Y-48699811D01*
X40058297Y-48699811D01*
X40003641Y-48699477D01*
X39938231Y-48699078D01*
X39926475Y-48702438D01*
X39822786Y-48732072D01*
X39822784Y-48732073D01*
X39814155Y-48734539D01*
X39806565Y-48739328D01*
X39738475Y-48782290D01*
X39705019Y-48803399D01*
X39699076Y-48810128D01*
X39699075Y-48810129D01*
X39684659Y-48826452D01*
X39619596Y-48900122D01*
X39615782Y-48908245D01*
X39615781Y-48908247D01*
X39610025Y-48920507D01*
X39564754Y-49016932D01*
X39559582Y-49050151D01*
X39546282Y-49135567D01*
X39546282Y-49135571D01*
X39544901Y-49144440D01*
X39546065Y-49153342D01*
X39546065Y-49153344D01*
X39549701Y-49181145D01*
X39560881Y-49266641D01*
X39549881Y-49336778D01*
X39502707Y-49389836D01*
X39470570Y-49404125D01*
X39449367Y-49410185D01*
X39372788Y-49432071D01*
X39372784Y-49432073D01*
X39364155Y-49434539D01*
X39255019Y-49503399D01*
X39249076Y-49510128D01*
X39249075Y-49510129D01*
X39213729Y-49550151D01*
X39169596Y-49600122D01*
X39114754Y-49716932D01*
X39108860Y-49754788D01*
X39096282Y-49835567D01*
X39096282Y-49835571D01*
X39094901Y-49844440D01*
X36700500Y-49844440D01*
X36700500Y-48544440D01*
X51394901Y-48544440D01*
X51396065Y-48553342D01*
X51396065Y-48553345D01*
X51410468Y-48663489D01*
X51410469Y-48663493D01*
X51411633Y-48672394D01*
X51421983Y-48695917D01*
X51441085Y-48739328D01*
X51463605Y-48790510D01*
X51469382Y-48797383D01*
X51469383Y-48797384D01*
X51477490Y-48807028D01*
X51546639Y-48889291D01*
X51654060Y-48960796D01*
X51763230Y-48994903D01*
X51777233Y-48999278D01*
X51776835Y-49000552D01*
X51832575Y-49027215D01*
X51869891Y-49087614D01*
X51868877Y-49157797D01*
X51868567Y-49158810D01*
X51864754Y-49166932D01*
X51863374Y-49175798D01*
X51846282Y-49285567D01*
X51846282Y-49285571D01*
X51844901Y-49294440D01*
X51846065Y-49303342D01*
X51846065Y-49303345D01*
X51860468Y-49413489D01*
X51860469Y-49413493D01*
X51861633Y-49422394D01*
X51865250Y-49430614D01*
X51895614Y-49499621D01*
X51904742Y-49570028D01*
X51894340Y-49603915D01*
X51864754Y-49666932D01*
X51863374Y-49675798D01*
X51846282Y-49785567D01*
X51846282Y-49785571D01*
X51844901Y-49794440D01*
X51846065Y-49803342D01*
X51846065Y-49803345D01*
X51860468Y-49913489D01*
X51860469Y-49913493D01*
X51861633Y-49922394D01*
X51894219Y-49996450D01*
X51895614Y-49999621D01*
X51904742Y-50070028D01*
X51894340Y-50103915D01*
X51864754Y-50166932D01*
X51859365Y-50201545D01*
X51846282Y-50285567D01*
X51846282Y-50285571D01*
X51844901Y-50294440D01*
X51846065Y-50303342D01*
X51846065Y-50303345D01*
X51860468Y-50413489D01*
X51860469Y-50413493D01*
X51861633Y-50422394D01*
X51874503Y-50451642D01*
X51895614Y-50499621D01*
X51904742Y-50570028D01*
X51894340Y-50603915D01*
X51864754Y-50666932D01*
X51860158Y-50696450D01*
X51846282Y-50785567D01*
X51846282Y-50785571D01*
X51844901Y-50794440D01*
X51846065Y-50803342D01*
X51846065Y-50803345D01*
X51860468Y-50913489D01*
X51860469Y-50913493D01*
X51861633Y-50922394D01*
X51895536Y-50999443D01*
X51895614Y-50999621D01*
X51904742Y-51070028D01*
X51894340Y-51103915D01*
X51864754Y-51166932D01*
X51856969Y-51216932D01*
X51846282Y-51285567D01*
X51846282Y-51285571D01*
X51844901Y-51294440D01*
X51846065Y-51303342D01*
X51846065Y-51303345D01*
X51860468Y-51413489D01*
X51860469Y-51413493D01*
X51861633Y-51422394D01*
X51913605Y-51540510D01*
X51919382Y-51547383D01*
X51919383Y-51547384D01*
X51963499Y-51599866D01*
X51996639Y-51639291D01*
X52004116Y-51644268D01*
X52092948Y-51703399D01*
X52104060Y-51710796D01*
X52227233Y-51749278D01*
X52236205Y-51749442D01*
X52236208Y-51749443D01*
X52273260Y-51750122D01*
X52341003Y-51771370D01*
X52367401Y-51795026D01*
X52436976Y-51877795D01*
X52446639Y-51889291D01*
X52454116Y-51894268D01*
X52542948Y-51953399D01*
X52554060Y-51960796D01*
X52618345Y-51980880D01*
X52658400Y-51993394D01*
X52677233Y-51999278D01*
X52686203Y-51999442D01*
X52686207Y-51999443D01*
X52744942Y-52000519D01*
X52806255Y-52001643D01*
X52882412Y-51980880D01*
X52922092Y-51970062D01*
X52922093Y-51970062D01*
X52930755Y-51967700D01*
X52938405Y-51963003D01*
X52938407Y-51963002D01*
X53033072Y-51904878D01*
X53033075Y-51904875D01*
X53040724Y-51900179D01*
X53050580Y-51889291D01*
X53102802Y-51831596D01*
X53127322Y-51804507D01*
X53127567Y-51804000D01*
X53178981Y-51761412D01*
X53231074Y-51751181D01*
X53256255Y-51751643D01*
X53332724Y-51730795D01*
X53372092Y-51720062D01*
X53372093Y-51720062D01*
X53380755Y-51717700D01*
X53388405Y-51713003D01*
X53388407Y-51713002D01*
X53483072Y-51654878D01*
X53483075Y-51654875D01*
X53490724Y-51650179D01*
X53500580Y-51639291D01*
X53565667Y-51567383D01*
X53577322Y-51554507D01*
X53577567Y-51554000D01*
X53628981Y-51511412D01*
X53681074Y-51501181D01*
X53706255Y-51501643D01*
X53813538Y-51472394D01*
X53822092Y-51470062D01*
X53822093Y-51470062D01*
X53830755Y-51467700D01*
X53838405Y-51463003D01*
X53838407Y-51463002D01*
X53933072Y-51404878D01*
X53933075Y-51404875D01*
X53940724Y-51400179D01*
X53956005Y-51383297D01*
X54018332Y-51314440D01*
X54594902Y-51314440D01*
X54596066Y-51323342D01*
X54596066Y-51323345D01*
X54610469Y-51433489D01*
X54610470Y-51433491D01*
X54611634Y-51442394D01*
X54663606Y-51560509D01*
X54669383Y-51567382D01*
X54669384Y-51567383D01*
X54734013Y-51644268D01*
X54746640Y-51659290D01*
X54754117Y-51664267D01*
X54834389Y-51717700D01*
X54854061Y-51730795D01*
X54977233Y-51769277D01*
X54986203Y-51769441D01*
X54986207Y-51769442D01*
X55044942Y-51770518D01*
X55106255Y-51771642D01*
X55185189Y-51750122D01*
X55222092Y-51740061D01*
X55222093Y-51740061D01*
X55230755Y-51737699D01*
X55238405Y-51733002D01*
X55238407Y-51733001D01*
X55333076Y-51674874D01*
X55333077Y-51674874D01*
X55340724Y-51670178D01*
X55427322Y-51574507D01*
X55469052Y-51488375D01*
X55479673Y-51466454D01*
X55479673Y-51466453D01*
X55483587Y-51458375D01*
X55504996Y-51331120D01*
X55505132Y-51320000D01*
X55504336Y-51314442D01*
X55994902Y-51314442D01*
X55996066Y-51323344D01*
X55996066Y-51323347D01*
X56010469Y-51433491D01*
X56010470Y-51433495D01*
X56011634Y-51442396D01*
X56063606Y-51560511D01*
X56069383Y-51567383D01*
X56069384Y-51567385D01*
X56131870Y-51641721D01*
X56146640Y-51659292D01*
X56154117Y-51664269D01*
X56234386Y-51717700D01*
X56254061Y-51730797D01*
X56364480Y-51765295D01*
X56423536Y-51804700D01*
X56451427Y-51868665D01*
X56456946Y-51831596D01*
X56503707Y-51778173D01*
X56538155Y-51762947D01*
X56622092Y-51740063D01*
X56622093Y-51740063D01*
X56630755Y-51737701D01*
X56638405Y-51733004D01*
X56638407Y-51733003D01*
X56733076Y-51674876D01*
X56733077Y-51674876D01*
X56740724Y-51670180D01*
X56827322Y-51574509D01*
X56869053Y-51488375D01*
X56879673Y-51466456D01*
X56879674Y-51466454D01*
X56883587Y-51458377D01*
X56904996Y-51331122D01*
X56905132Y-51320002D01*
X56904441Y-51315173D01*
X56888111Y-51201149D01*
X56888110Y-51201147D01*
X56886838Y-51192262D01*
X56883103Y-51184046D01*
X56837143Y-51082963D01*
X56837142Y-51082961D01*
X56833427Y-51074790D01*
X56767785Y-50998608D01*
X56755054Y-50983833D01*
X56755052Y-50983831D01*
X56749193Y-50977031D01*
X56640906Y-50906843D01*
X56517273Y-50869869D01*
X56508297Y-50869814D01*
X56508296Y-50869814D01*
X56454563Y-50869486D01*
X56388232Y-50869081D01*
X56341577Y-50882415D01*
X56272787Y-50902075D01*
X56272785Y-50902076D01*
X56264156Y-50904542D01*
X56155020Y-50973402D01*
X56069597Y-51070124D01*
X56065783Y-51078247D01*
X56065782Y-51078249D01*
X56058672Y-51093394D01*
X56014755Y-51186934D01*
X56009255Y-51222259D01*
X55996283Y-51305569D01*
X55996283Y-51305573D01*
X55994902Y-51314442D01*
X55504336Y-51314442D01*
X55503066Y-51305569D01*
X55488111Y-51201147D01*
X55488110Y-51201145D01*
X55486838Y-51192260D01*
X55433427Y-51074788D01*
X55349193Y-50977029D01*
X55240906Y-50906841D01*
X55117273Y-50869867D01*
X55108297Y-50869812D01*
X55108296Y-50869812D01*
X55054563Y-50869484D01*
X54988232Y-50869079D01*
X54941570Y-50882415D01*
X54872787Y-50902073D01*
X54872785Y-50902074D01*
X54864156Y-50904540D01*
X54755020Y-50973400D01*
X54669597Y-51070122D01*
X54665783Y-51078245D01*
X54665782Y-51078247D01*
X54658671Y-51093394D01*
X54614755Y-51186932D01*
X54610084Y-51216932D01*
X54596283Y-51305567D01*
X54596283Y-51305569D01*
X54594902Y-51314440D01*
X54018332Y-51314440D01*
X54021300Y-51311161D01*
X54021303Y-51311157D01*
X54027322Y-51304507D01*
X54083588Y-51188375D01*
X54085198Y-51178809D01*
X54104190Y-51065917D01*
X54104997Y-51061120D01*
X54105133Y-51050000D01*
X54093984Y-50972148D01*
X54088112Y-50931145D01*
X54088111Y-50931142D01*
X54086839Y-50922259D01*
X54082852Y-50913489D01*
X54037145Y-50812962D01*
X54037143Y-50812959D01*
X54033428Y-50804788D01*
X53949193Y-50707028D01*
X53840906Y-50636841D01*
X53832311Y-50634271D01*
X53832310Y-50634270D01*
X53717273Y-50599866D01*
X53718227Y-50596674D01*
X53668521Y-50573624D01*
X53630485Y-50513675D01*
X53631521Y-50442642D01*
X53633588Y-50438375D01*
X53654997Y-50311120D01*
X53655133Y-50300000D01*
X53642792Y-50213826D01*
X53638112Y-50181145D01*
X53638111Y-50181142D01*
X53636839Y-50172259D01*
X53620736Y-50136841D01*
X53604891Y-50101993D01*
X53594905Y-50031703D01*
X53606200Y-49994903D01*
X53606424Y-49994440D01*
X54594902Y-49994440D01*
X54596066Y-50003342D01*
X54596066Y-50003345D01*
X54610469Y-50113489D01*
X54610470Y-50113493D01*
X54611634Y-50122394D01*
X54663606Y-50240509D01*
X54669383Y-50247382D01*
X54669384Y-50247383D01*
X54717638Y-50304788D01*
X54746640Y-50339290D01*
X54854061Y-50410795D01*
X54977233Y-50449277D01*
X54986203Y-50449441D01*
X54986207Y-50449442D01*
X55044942Y-50450518D01*
X55106255Y-50451642D01*
X55201049Y-50425798D01*
X55222092Y-50420061D01*
X55222093Y-50420061D01*
X55230755Y-50417699D01*
X55238405Y-50413002D01*
X55238407Y-50413001D01*
X55333076Y-50354874D01*
X55333077Y-50354874D01*
X55340724Y-50350178D01*
X55427322Y-50254507D01*
X55465456Y-50175798D01*
X55479673Y-50146454D01*
X55479673Y-50146453D01*
X55483587Y-50138375D01*
X55504996Y-50011120D01*
X55505132Y-50000000D01*
X55504336Y-49994440D01*
X55994902Y-49994440D01*
X55996066Y-50003342D01*
X55996066Y-50003345D01*
X56010469Y-50113489D01*
X56010470Y-50113493D01*
X56011634Y-50122394D01*
X56063606Y-50240509D01*
X56069383Y-50247382D01*
X56069384Y-50247383D01*
X56117638Y-50304788D01*
X56146640Y-50339290D01*
X56254061Y-50410795D01*
X56377233Y-50449277D01*
X56386203Y-50449441D01*
X56386207Y-50449442D01*
X56444942Y-50450518D01*
X56506255Y-50451642D01*
X56601049Y-50425798D01*
X56622092Y-50420061D01*
X56622093Y-50420061D01*
X56630755Y-50417699D01*
X56638405Y-50413002D01*
X56638407Y-50413001D01*
X56733076Y-50354874D01*
X56733077Y-50354874D01*
X56740724Y-50350178D01*
X56827322Y-50254507D01*
X56865456Y-50175798D01*
X56879673Y-50146454D01*
X56879673Y-50146453D01*
X56883587Y-50138375D01*
X56904996Y-50011120D01*
X56905132Y-50000000D01*
X56901179Y-49972394D01*
X56888111Y-49881147D01*
X56888110Y-49881145D01*
X56886838Y-49872260D01*
X56859040Y-49811120D01*
X56837143Y-49762961D01*
X56833427Y-49754788D01*
X56749193Y-49657029D01*
X56640906Y-49586841D01*
X56517273Y-49549867D01*
X56508297Y-49549812D01*
X56508296Y-49549812D01*
X56454563Y-49549484D01*
X56388232Y-49549079D01*
X56368257Y-49554788D01*
X56272787Y-49582073D01*
X56272785Y-49582074D01*
X56264156Y-49584540D01*
X56155020Y-49653400D01*
X56069597Y-49750122D01*
X56065783Y-49758245D01*
X56065782Y-49758247D01*
X56046179Y-49800000D01*
X56014755Y-49866932D01*
X56013375Y-49875798D01*
X55996283Y-49985567D01*
X55996283Y-49985571D01*
X55994902Y-49994440D01*
X55504336Y-49994440D01*
X55501179Y-49972394D01*
X55488111Y-49881147D01*
X55488110Y-49881145D01*
X55486838Y-49872260D01*
X55459040Y-49811120D01*
X55437143Y-49762961D01*
X55433427Y-49754788D01*
X55349193Y-49657029D01*
X55240906Y-49586841D01*
X55117273Y-49549867D01*
X55108297Y-49549812D01*
X55108296Y-49549812D01*
X55054563Y-49549484D01*
X54988232Y-49549079D01*
X54968257Y-49554788D01*
X54872787Y-49582073D01*
X54872785Y-49582074D01*
X54864156Y-49584540D01*
X54755020Y-49653400D01*
X54669597Y-49750122D01*
X54665783Y-49758245D01*
X54665782Y-49758247D01*
X54646179Y-49800000D01*
X54614755Y-49866932D01*
X54613375Y-49875798D01*
X54596283Y-49985567D01*
X54596283Y-49985571D01*
X54594902Y-49994440D01*
X53606424Y-49994440D01*
X53613650Y-49979526D01*
X53633588Y-49938375D01*
X53647639Y-49854859D01*
X53654190Y-49815917D01*
X53654997Y-49811120D01*
X53655133Y-49800000D01*
X53645759Y-49734545D01*
X53638112Y-49681145D01*
X53638111Y-49681142D01*
X53636839Y-49672259D01*
X53629915Y-49657029D01*
X53604891Y-49601993D01*
X53594905Y-49531703D01*
X53606200Y-49494903D01*
X53608955Y-49489216D01*
X53633588Y-49438375D01*
X53638167Y-49411161D01*
X53654190Y-49315917D01*
X53654997Y-49311120D01*
X53655133Y-49300000D01*
X53636839Y-49172259D01*
X53631775Y-49161120D01*
X53604891Y-49101993D01*
X53594905Y-49031703D01*
X53606200Y-48994903D01*
X53625135Y-48955821D01*
X53633588Y-48938375D01*
X53635438Y-48927383D01*
X53654190Y-48815917D01*
X53654997Y-48811120D01*
X53655133Y-48800000D01*
X53638844Y-48686256D01*
X53638112Y-48681145D01*
X53638111Y-48681142D01*
X53637151Y-48674440D01*
X54594902Y-48674440D01*
X54596066Y-48683342D01*
X54596066Y-48683345D01*
X54610469Y-48793489D01*
X54610470Y-48793493D01*
X54611634Y-48802394D01*
X54615250Y-48810612D01*
X54615251Y-48810614D01*
X54658211Y-48908247D01*
X54663606Y-48920509D01*
X54669383Y-48927381D01*
X54669384Y-48927383D01*
X54729818Y-48999278D01*
X54746640Y-49019290D01*
X54854061Y-49090795D01*
X54977233Y-49129277D01*
X54986203Y-49129441D01*
X54986207Y-49129442D01*
X55044942Y-49130518D01*
X55106255Y-49131642D01*
X55168505Y-49114671D01*
X55222092Y-49100061D01*
X55222093Y-49100061D01*
X55230755Y-49097699D01*
X55238405Y-49093002D01*
X55238407Y-49093001D01*
X55333076Y-49034874D01*
X55333077Y-49034874D01*
X55340724Y-49030178D01*
X55427322Y-48934507D01*
X55483587Y-48818375D01*
X55504996Y-48691120D01*
X55505132Y-48680000D01*
X55504441Y-48675171D01*
X55504336Y-48674438D01*
X55994902Y-48674438D01*
X55996066Y-48683340D01*
X55996066Y-48683343D01*
X56010469Y-48793487D01*
X56010470Y-48793489D01*
X56011634Y-48802392D01*
X56016665Y-48813826D01*
X56052061Y-48894268D01*
X56063606Y-48920507D01*
X56069383Y-48927380D01*
X56069384Y-48927381D01*
X56137831Y-49008809D01*
X56146640Y-49019288D01*
X56254061Y-49090793D01*
X56377233Y-49129275D01*
X56386203Y-49129439D01*
X56386207Y-49129440D01*
X56444942Y-49130516D01*
X56506255Y-49131640D01*
X56614998Y-49101993D01*
X56622092Y-49100059D01*
X56622093Y-49100059D01*
X56630755Y-49097697D01*
X56638405Y-49093000D01*
X56638407Y-49092999D01*
X56733076Y-49034872D01*
X56733077Y-49034872D01*
X56740724Y-49030176D01*
X56827322Y-48934505D01*
X56883587Y-48818373D01*
X56904996Y-48691118D01*
X56905132Y-48679998D01*
X56903066Y-48665567D01*
X56888111Y-48561145D01*
X56888110Y-48561143D01*
X56886838Y-48552258D01*
X56833427Y-48434786D01*
X56749193Y-48337027D01*
X56640906Y-48266839D01*
X56535194Y-48235225D01*
X56475662Y-48196544D01*
X56446676Y-48132226D01*
X56440601Y-48169866D01*
X56393191Y-48222714D01*
X56361530Y-48236708D01*
X56292735Y-48256370D01*
X56264156Y-48264538D01*
X56256566Y-48269327D01*
X56182726Y-48315917D01*
X56155020Y-48333398D01*
X56069597Y-48430120D01*
X56065783Y-48438243D01*
X56065782Y-48438245D01*
X56054159Y-48463002D01*
X56014755Y-48546930D01*
X56007004Y-48596709D01*
X55996283Y-48665565D01*
X55996283Y-48665567D01*
X55994902Y-48674438D01*
X55504336Y-48674438D01*
X55488111Y-48561147D01*
X55488110Y-48561145D01*
X55486838Y-48552260D01*
X55460760Y-48494903D01*
X55437143Y-48442961D01*
X55437142Y-48442959D01*
X55433427Y-48434788D01*
X55395935Y-48391276D01*
X55366623Y-48326615D01*
X55376923Y-48256370D01*
X55423565Y-48202844D01*
X55458248Y-48187468D01*
X55522092Y-48170062D01*
X55522093Y-48170062D01*
X55530755Y-48167700D01*
X55538405Y-48163003D01*
X55538407Y-48163002D01*
X55633072Y-48104878D01*
X55633075Y-48104875D01*
X55640724Y-48100179D01*
X55646750Y-48093522D01*
X55721300Y-48011161D01*
X55721303Y-48011157D01*
X55727322Y-48004507D01*
X55783588Y-47888375D01*
X55787778Y-47863473D01*
X55803051Y-47772688D01*
X55834078Y-47708830D01*
X55894703Y-47671883D01*
X55965680Y-47673578D01*
X56024472Y-47713377D01*
X56042633Y-47742844D01*
X56063606Y-47790509D01*
X56069383Y-47797382D01*
X56069384Y-47797383D01*
X56139347Y-47880614D01*
X56146640Y-47889290D01*
X56254061Y-47960795D01*
X56364480Y-47995293D01*
X56423536Y-48034698D01*
X56451427Y-48098663D01*
X56456946Y-48061594D01*
X56503707Y-48008171D01*
X56538155Y-47992945D01*
X56622092Y-47970061D01*
X56622093Y-47970061D01*
X56630755Y-47967699D01*
X56638405Y-47963002D01*
X56638407Y-47963001D01*
X56733076Y-47904874D01*
X56733077Y-47904874D01*
X56740724Y-47900178D01*
X56827322Y-47804507D01*
X56883587Y-47688375D01*
X56904996Y-47561120D01*
X56905132Y-47550000D01*
X56903838Y-47540959D01*
X56888111Y-47431147D01*
X56888110Y-47431145D01*
X56886838Y-47422260D01*
X56881323Y-47410129D01*
X56840460Y-47320256D01*
X56833427Y-47304788D01*
X56749193Y-47207029D01*
X56640906Y-47136841D01*
X56517273Y-47099867D01*
X56508297Y-47099812D01*
X56508296Y-47099812D01*
X56454563Y-47099484D01*
X56388232Y-47099079D01*
X56349569Y-47110129D01*
X56272787Y-47132073D01*
X56272785Y-47132074D01*
X56264156Y-47134540D01*
X56256568Y-47139328D01*
X56256566Y-47139329D01*
X56165796Y-47196601D01*
X56155020Y-47203400D01*
X56069597Y-47300122D01*
X56065783Y-47308245D01*
X56065782Y-47308247D01*
X56051216Y-47339272D01*
X56014755Y-47416932D01*
X56013375Y-47425796D01*
X56013374Y-47425799D01*
X56003694Y-47487971D01*
X56000141Y-47510796D01*
X55997620Y-47526985D01*
X55967376Y-47591218D01*
X55907207Y-47628903D01*
X55836215Y-47628075D01*
X55776940Y-47588998D01*
X55758420Y-47559753D01*
X55737147Y-47512965D01*
X55737143Y-47512959D01*
X55733428Y-47504788D01*
X55698133Y-47463826D01*
X55655051Y-47413826D01*
X55655049Y-47413824D01*
X55649193Y-47407028D01*
X55540906Y-47336841D01*
X55532311Y-47334271D01*
X55532310Y-47334270D01*
X55425874Y-47302438D01*
X55425872Y-47302438D01*
X55417273Y-47299866D01*
X55408298Y-47299811D01*
X55408297Y-47299811D01*
X55353641Y-47299477D01*
X55288231Y-47299078D01*
X55254183Y-47308809D01*
X55172786Y-47332072D01*
X55172784Y-47332073D01*
X55164155Y-47334539D01*
X55055019Y-47403399D01*
X55049076Y-47410128D01*
X55049075Y-47410129D01*
X55030513Y-47431147D01*
X54969596Y-47500122D01*
X54965782Y-47508245D01*
X54965781Y-47508247D01*
X54945407Y-47551643D01*
X54914754Y-47616932D01*
X54906198Y-47671883D01*
X54896282Y-47735567D01*
X54896282Y-47735571D01*
X54894901Y-47744440D01*
X54896065Y-47753342D01*
X54896065Y-47753345D01*
X54910468Y-47863489D01*
X54910469Y-47863493D01*
X54911633Y-47872394D01*
X54925926Y-47904878D01*
X54951709Y-47963473D01*
X54963605Y-47990510D01*
X55004986Y-48039739D01*
X55033506Y-48104752D01*
X55022350Y-48174866D01*
X54975058Y-48227819D01*
X54943158Y-48241961D01*
X54872789Y-48262072D01*
X54872785Y-48262074D01*
X54864156Y-48264540D01*
X54856566Y-48269329D01*
X54765774Y-48326615D01*
X54755020Y-48333400D01*
X54669597Y-48430122D01*
X54665783Y-48438245D01*
X54665782Y-48438247D01*
X54654160Y-48463002D01*
X54614755Y-48546932D01*
X54606182Y-48601993D01*
X54596283Y-48665567D01*
X54596283Y-48665571D01*
X54594902Y-48674440D01*
X53637151Y-48674440D01*
X53636839Y-48672259D01*
X53604891Y-48601993D01*
X53594905Y-48531703D01*
X53606200Y-48494903D01*
X53625135Y-48455821D01*
X53633588Y-48438375D01*
X53635336Y-48427989D01*
X53654190Y-48315917D01*
X53654997Y-48311120D01*
X53655133Y-48300000D01*
X53646069Y-48236708D01*
X53638112Y-48181145D01*
X53638111Y-48181142D01*
X53636839Y-48172259D01*
X53633125Y-48164091D01*
X53630604Y-48155469D01*
X53634249Y-48154403D01*
X53626761Y-48101816D01*
X53656343Y-48037276D01*
X53718312Y-47998356D01*
X53822092Y-47970062D01*
X53822093Y-47970062D01*
X53830755Y-47967700D01*
X53838405Y-47963003D01*
X53838407Y-47963002D01*
X53933072Y-47904878D01*
X53933077Y-47904874D01*
X53940724Y-47900179D01*
X53950546Y-47889328D01*
X54021300Y-47811161D01*
X54021303Y-47811157D01*
X54027322Y-47804507D01*
X54083588Y-47688375D01*
X54085078Y-47679523D01*
X54104190Y-47565917D01*
X54104997Y-47561120D01*
X54105065Y-47555530D01*
X54105074Y-47554859D01*
X54105074Y-47554853D01*
X54105133Y-47550000D01*
X54092792Y-47463826D01*
X54088112Y-47431145D01*
X54088111Y-47431142D01*
X54086839Y-47422259D01*
X54083125Y-47414090D01*
X54037145Y-47312962D01*
X54037143Y-47312959D01*
X54033428Y-47304788D01*
X53969516Y-47230614D01*
X53955051Y-47213826D01*
X53955049Y-47213824D01*
X53949193Y-47207028D01*
X53840906Y-47136841D01*
X53832311Y-47134271D01*
X53832310Y-47134270D01*
X53725874Y-47102438D01*
X53725872Y-47102438D01*
X53717273Y-47099866D01*
X53708298Y-47099811D01*
X53708297Y-47099811D01*
X53678810Y-47099631D01*
X53610813Y-47079213D01*
X53585133Y-47053318D01*
X53583428Y-47054788D01*
X53505051Y-46963826D01*
X53505049Y-46963824D01*
X53499193Y-46957028D01*
X53390906Y-46886841D01*
X53382311Y-46884271D01*
X53382310Y-46884270D01*
X53275874Y-46852438D01*
X53275872Y-46852438D01*
X53267273Y-46849866D01*
X53258298Y-46849811D01*
X53258297Y-46849811D01*
X53203641Y-46849477D01*
X53138231Y-46849078D01*
X53089652Y-46862962D01*
X53022786Y-46882072D01*
X53022784Y-46882073D01*
X53014155Y-46884539D01*
X52905019Y-46953399D01*
X52879503Y-46982290D01*
X52849656Y-47016085D01*
X52789570Y-47053903D01*
X52718576Y-47053232D01*
X52659215Y-47014286D01*
X52636942Y-46972978D01*
X52636839Y-46972259D01*
X52604657Y-46901478D01*
X52587145Y-46862962D01*
X52587143Y-46862959D01*
X52583428Y-46854788D01*
X52530638Y-46793522D01*
X52505051Y-46763826D01*
X52505049Y-46763824D01*
X52499193Y-46757028D01*
X52390906Y-46686841D01*
X52382311Y-46684271D01*
X52382310Y-46684270D01*
X52275874Y-46652438D01*
X52275872Y-46652438D01*
X52267273Y-46649866D01*
X52258298Y-46649811D01*
X52258297Y-46649811D01*
X52181209Y-46649340D01*
X52138231Y-46649078D01*
X52129599Y-46651545D01*
X52022786Y-46682072D01*
X52022784Y-46682073D01*
X52014155Y-46684539D01*
X52006565Y-46689328D01*
X51929289Y-46738086D01*
X51905019Y-46753399D01*
X51899076Y-46760128D01*
X51899075Y-46760129D01*
X51868925Y-46794268D01*
X51819596Y-46850122D01*
X51815782Y-46858245D01*
X51815781Y-46858247D01*
X51801189Y-46889328D01*
X51764754Y-46966932D01*
X51757581Y-47013002D01*
X51746282Y-47085567D01*
X51746282Y-47085571D01*
X51744901Y-47094440D01*
X51746065Y-47103342D01*
X51746065Y-47103345D01*
X51760468Y-47213489D01*
X51760469Y-47213493D01*
X51761633Y-47222394D01*
X51765250Y-47230614D01*
X51807132Y-47325798D01*
X51813605Y-47340510D01*
X51819382Y-47347383D01*
X51819383Y-47347384D01*
X51889793Y-47431147D01*
X51896639Y-47439291D01*
X51904116Y-47444268D01*
X51988025Y-47500122D01*
X52004060Y-47510796D01*
X52055878Y-47526985D01*
X52111748Y-47544440D01*
X52127233Y-47549278D01*
X52136205Y-47549442D01*
X52136208Y-47549443D01*
X52187389Y-47550381D01*
X52255132Y-47571629D01*
X52300633Y-47626128D01*
X52310015Y-47660019D01*
X52311633Y-47672394D01*
X52315250Y-47680614D01*
X52317663Y-47689257D01*
X52315784Y-47689782D01*
X52323446Y-47748919D01*
X52293054Y-47813082D01*
X52233616Y-47850397D01*
X52122786Y-47882072D01*
X52122784Y-47882073D01*
X52114155Y-47884539D01*
X52106565Y-47889328D01*
X52047100Y-47926848D01*
X52005019Y-47953399D01*
X51999076Y-47960128D01*
X51999075Y-47960129D01*
X51970093Y-47992945D01*
X51919596Y-48050122D01*
X51918384Y-48049052D01*
X51872041Y-48088404D01*
X51820078Y-48099272D01*
X51803365Y-48099170D01*
X51788231Y-48099078D01*
X51726193Y-48116809D01*
X51672786Y-48132072D01*
X51672784Y-48132073D01*
X51664155Y-48134539D01*
X51555019Y-48203399D01*
X51549076Y-48210128D01*
X51549075Y-48210129D01*
X51494675Y-48271725D01*
X51469596Y-48300122D01*
X51465782Y-48308245D01*
X51465781Y-48308247D01*
X51456222Y-48328607D01*
X51414754Y-48416932D01*
X51407581Y-48463002D01*
X51396282Y-48535567D01*
X51396282Y-48535571D01*
X51394901Y-48544440D01*
X36700500Y-48544440D01*
X36700500Y-47544440D01*
X42644901Y-47544440D01*
X42646065Y-47553342D01*
X42646065Y-47553345D01*
X42660468Y-47663489D01*
X42660469Y-47663493D01*
X42661633Y-47672394D01*
X42713605Y-47790510D01*
X42719382Y-47797383D01*
X42719383Y-47797384D01*
X42788431Y-47879526D01*
X42796639Y-47889291D01*
X42804116Y-47894268D01*
X42896585Y-47955820D01*
X42904060Y-47960796D01*
X42943155Y-47973010D01*
X43018124Y-47996432D01*
X43027233Y-47999278D01*
X43036203Y-47999442D01*
X43036207Y-47999443D01*
X43094942Y-48000519D01*
X43156255Y-48001643D01*
X43266340Y-47971630D01*
X43337323Y-47973010D01*
X43396292Y-48012547D01*
X43406453Y-48026611D01*
X43409989Y-48032293D01*
X43413605Y-48040510D01*
X43419380Y-48047380D01*
X43419381Y-48047382D01*
X43463391Y-48099738D01*
X43496639Y-48139291D01*
X43504116Y-48144268D01*
X43592948Y-48203399D01*
X43604060Y-48210796D01*
X43727233Y-48249278D01*
X43736203Y-48249442D01*
X43736207Y-48249443D01*
X43794942Y-48250519D01*
X43856255Y-48251643D01*
X43923183Y-48233396D01*
X43972092Y-48220062D01*
X43972093Y-48220062D01*
X43980755Y-48217700D01*
X43988405Y-48213003D01*
X43988407Y-48213002D01*
X44083072Y-48154878D01*
X44083075Y-48154875D01*
X44090724Y-48150179D01*
X44100546Y-48139328D01*
X44171300Y-48061161D01*
X44171303Y-48061157D01*
X44177322Y-48054507D01*
X44233588Y-47938375D01*
X44235528Y-47926848D01*
X44254190Y-47815917D01*
X44254997Y-47811120D01*
X44255133Y-47800000D01*
X44246948Y-47742846D01*
X44238112Y-47681145D01*
X44238111Y-47681142D01*
X44236839Y-47672259D01*
X44222954Y-47641721D01*
X44187145Y-47562962D01*
X44187143Y-47562959D01*
X44183428Y-47554788D01*
X44141236Y-47505821D01*
X44105051Y-47463826D01*
X44105049Y-47463824D01*
X44099193Y-47457028D01*
X44079772Y-47444440D01*
X45694901Y-47444440D01*
X45696065Y-47453342D01*
X45696065Y-47453345D01*
X45710468Y-47563489D01*
X45710469Y-47563493D01*
X45711633Y-47572394D01*
X45715250Y-47580614D01*
X45751716Y-47663489D01*
X45763605Y-47690510D01*
X45769382Y-47697383D01*
X45769383Y-47697384D01*
X45816423Y-47753345D01*
X45846639Y-47789291D01*
X45954060Y-47860796D01*
X46045267Y-47889291D01*
X46077233Y-47899278D01*
X46076638Y-47901181D01*
X46130292Y-47926848D01*
X46167606Y-47987249D01*
X46169835Y-48026574D01*
X46171392Y-48026593D01*
X46171282Y-48035569D01*
X46169901Y-48044440D01*
X46171065Y-48053342D01*
X46171065Y-48053345D01*
X46185468Y-48163489D01*
X46185469Y-48163493D01*
X46186633Y-48172394D01*
X46200684Y-48204328D01*
X46228190Y-48266839D01*
X46238605Y-48290510D01*
X46244382Y-48297383D01*
X46244383Y-48297384D01*
X46277708Y-48337029D01*
X46321639Y-48389291D01*
X46329116Y-48394268D01*
X46389989Y-48434788D01*
X46429060Y-48460796D01*
X46517938Y-48488564D01*
X46538230Y-48494903D01*
X46552233Y-48499278D01*
X46561203Y-48499442D01*
X46561207Y-48499443D01*
X46619942Y-48500519D01*
X46681255Y-48501643D01*
X46743505Y-48484671D01*
X46797092Y-48470062D01*
X46797093Y-48470062D01*
X46805755Y-48467700D01*
X46813405Y-48463003D01*
X46813407Y-48463002D01*
X46908072Y-48404878D01*
X46908075Y-48404875D01*
X46915724Y-48400179D01*
X46923781Y-48391278D01*
X46996300Y-48311161D01*
X46996303Y-48311157D01*
X47002322Y-48304507D01*
X47058588Y-48188375D01*
X47060923Y-48174500D01*
X47079190Y-48065917D01*
X47079997Y-48061120D01*
X47080133Y-48050000D01*
X47068347Y-47967699D01*
X47063112Y-47931145D01*
X47063111Y-47931142D01*
X47061839Y-47922259D01*
X47058125Y-47914090D01*
X47012145Y-47812962D01*
X47012143Y-47812959D01*
X47008428Y-47804788D01*
X46980769Y-47772688D01*
X46930051Y-47713826D01*
X46930049Y-47713824D01*
X46924193Y-47707028D01*
X46815906Y-47636841D01*
X46807311Y-47634271D01*
X46807310Y-47634270D01*
X46738779Y-47613774D01*
X46693376Y-47600196D01*
X46633843Y-47561514D01*
X46604673Y-47496786D01*
X46603983Y-47468219D01*
X46604189Y-47465921D01*
X46604997Y-47461120D01*
X46605133Y-47450000D01*
X46595720Y-47384270D01*
X46588112Y-47331145D01*
X46588111Y-47331142D01*
X46586839Y-47322259D01*
X46582612Y-47312962D01*
X46537145Y-47212962D01*
X46537143Y-47212959D01*
X46533428Y-47204788D01*
X46491236Y-47155821D01*
X46455051Y-47113826D01*
X46455049Y-47113824D01*
X46449193Y-47107028D01*
X46340906Y-47036841D01*
X46332311Y-47034271D01*
X46332310Y-47034270D01*
X46225874Y-47002438D01*
X46225872Y-47002438D01*
X46217273Y-46999866D01*
X46208298Y-46999811D01*
X46208297Y-46999811D01*
X46153641Y-46999477D01*
X46088231Y-46999078D01*
X46026193Y-47016809D01*
X45972786Y-47032072D01*
X45972784Y-47032073D01*
X45964155Y-47034539D01*
X45956565Y-47039328D01*
X45869491Y-47094268D01*
X45855019Y-47103399D01*
X45849076Y-47110128D01*
X45849075Y-47110129D01*
X45821174Y-47141721D01*
X45769596Y-47200122D01*
X45765782Y-47208245D01*
X45765781Y-47208247D01*
X45759139Y-47222394D01*
X45714754Y-47316932D01*
X45709635Y-47349811D01*
X45696282Y-47435567D01*
X45696282Y-47435571D01*
X45694901Y-47444440D01*
X44079772Y-47444440D01*
X43990906Y-47386841D01*
X43982311Y-47384271D01*
X43982310Y-47384270D01*
X43875874Y-47352438D01*
X43875872Y-47352438D01*
X43867273Y-47349866D01*
X43858298Y-47349811D01*
X43858297Y-47349811D01*
X43803641Y-47349477D01*
X43738231Y-47349078D01*
X43729600Y-47351545D01*
X43729598Y-47351545D01*
X43634941Y-47378598D01*
X43563947Y-47378086D01*
X43504499Y-47339272D01*
X43492397Y-47320256D01*
X43491980Y-47320523D01*
X43487145Y-47312962D01*
X43483428Y-47304788D01*
X43419516Y-47230614D01*
X43405051Y-47213826D01*
X43405049Y-47213824D01*
X43399193Y-47207028D01*
X43290906Y-47136841D01*
X43282311Y-47134271D01*
X43282310Y-47134270D01*
X43175874Y-47102438D01*
X43175872Y-47102438D01*
X43167273Y-47099866D01*
X43158298Y-47099811D01*
X43158297Y-47099811D01*
X43103641Y-47099477D01*
X43038231Y-47099078D01*
X42986629Y-47113826D01*
X42922786Y-47132072D01*
X42922784Y-47132073D01*
X42914155Y-47134539D01*
X42906565Y-47139328D01*
X42813600Y-47197985D01*
X42805019Y-47203399D01*
X42719596Y-47300122D01*
X42715782Y-47308245D01*
X42715781Y-47308247D01*
X42701215Y-47339272D01*
X42664754Y-47416932D01*
X42658511Y-47457028D01*
X42646282Y-47535567D01*
X42646282Y-47535571D01*
X42644901Y-47544440D01*
X36700500Y-47544440D01*
X36700500Y-46744440D01*
X40194901Y-46744440D01*
X40196065Y-46753342D01*
X40196065Y-46753345D01*
X40210468Y-46863489D01*
X40210469Y-46863493D01*
X40211633Y-46872394D01*
X40223535Y-46899443D01*
X40257132Y-46975798D01*
X40263605Y-46990510D01*
X40269382Y-46997383D01*
X40269383Y-46997384D01*
X40340754Y-47082290D01*
X40346639Y-47089291D01*
X40454060Y-47160796D01*
X40523258Y-47182415D01*
X40558400Y-47193394D01*
X40577233Y-47199278D01*
X40586203Y-47199442D01*
X40586207Y-47199443D01*
X40644942Y-47200519D01*
X40706255Y-47201643D01*
X40776782Y-47182415D01*
X40822092Y-47170062D01*
X40822093Y-47170062D01*
X40830755Y-47167700D01*
X40838405Y-47163003D01*
X40838407Y-47163002D01*
X40933072Y-47104878D01*
X40933075Y-47104875D01*
X40940724Y-47100179D01*
X40999488Y-47035257D01*
X41060030Y-46998177D01*
X41131010Y-46999715D01*
X41146756Y-47005934D01*
X41154060Y-47010796D01*
X41232358Y-47035258D01*
X41253045Y-47041721D01*
X41277233Y-47049278D01*
X41286203Y-47049442D01*
X41286207Y-47049443D01*
X41344942Y-47050519D01*
X41406255Y-47051643D01*
X41478040Y-47032072D01*
X41522092Y-47020062D01*
X41522093Y-47020062D01*
X41530755Y-47017700D01*
X41538405Y-47013003D01*
X41538407Y-47013002D01*
X41633072Y-46954878D01*
X41633075Y-46954875D01*
X41640724Y-46950179D01*
X41684657Y-46901643D01*
X41721300Y-46861161D01*
X41721303Y-46861157D01*
X41727322Y-46854507D01*
X41783588Y-46738375D01*
X41786300Y-46722259D01*
X41804190Y-46615917D01*
X41804997Y-46611120D01*
X41805133Y-46600000D01*
X41791993Y-46508247D01*
X41788112Y-46481145D01*
X41788111Y-46481142D01*
X41786839Y-46472259D01*
X41783125Y-46464090D01*
X41737145Y-46362962D01*
X41737143Y-46362959D01*
X41733428Y-46354788D01*
X41686374Y-46300179D01*
X41655051Y-46263826D01*
X41655049Y-46263824D01*
X41649193Y-46257028D01*
X41621828Y-46239291D01*
X41573977Y-46208276D01*
X41527693Y-46154440D01*
X41517862Y-46084127D01*
X41529115Y-46047609D01*
X41529674Y-46046455D01*
X41529675Y-46046450D01*
X41533588Y-46038375D01*
X41536300Y-46022259D01*
X41554190Y-45915917D01*
X41554997Y-45911120D01*
X41555133Y-45900000D01*
X41545272Y-45831145D01*
X41538112Y-45781145D01*
X41538111Y-45781142D01*
X41536839Y-45772259D01*
X41521866Y-45739328D01*
X41490090Y-45669440D01*
X46344901Y-45669440D01*
X46346065Y-45678342D01*
X46346065Y-45678345D01*
X46360468Y-45788489D01*
X46360469Y-45788493D01*
X46361633Y-45797394D01*
X46413605Y-45915510D01*
X46419382Y-45922383D01*
X46419383Y-45922384D01*
X46490859Y-46007415D01*
X46496639Y-46014291D01*
X46604060Y-46085796D01*
X46727233Y-46124278D01*
X46736203Y-46124442D01*
X46736207Y-46124443D01*
X46794942Y-46125519D01*
X46856255Y-46126643D01*
X46959085Y-46098608D01*
X46972092Y-46095062D01*
X46972093Y-46095062D01*
X46980755Y-46092700D01*
X46988405Y-46088003D01*
X46988407Y-46088002D01*
X47083072Y-46029878D01*
X47083075Y-46029875D01*
X47090724Y-46025179D01*
X47098189Y-46016932D01*
X47163806Y-45944440D01*
X51594901Y-45944440D01*
X51596065Y-45953342D01*
X51596065Y-45953345D01*
X51610468Y-46063489D01*
X51610469Y-46063493D01*
X51611633Y-46072394D01*
X51663605Y-46190510D01*
X51669382Y-46197383D01*
X51669383Y-46197384D01*
X51739345Y-46280614D01*
X51746639Y-46289291D01*
X51754116Y-46294268D01*
X51838025Y-46350122D01*
X51854060Y-46360796D01*
X51977233Y-46399278D01*
X51986203Y-46399442D01*
X51986207Y-46399443D01*
X52044942Y-46400519D01*
X52106255Y-46401643D01*
X52177240Y-46382290D01*
X52222093Y-46370062D01*
X52222096Y-46370061D01*
X52230755Y-46367700D01*
X52238405Y-46363003D01*
X52238407Y-46363002D01*
X52333072Y-46304878D01*
X52333075Y-46304875D01*
X52340724Y-46300179D01*
X52346750Y-46293522D01*
X52421300Y-46211161D01*
X52421303Y-46211157D01*
X52427322Y-46204507D01*
X52456424Y-46144440D01*
X56994901Y-46144440D01*
X56996065Y-46153342D01*
X56996065Y-46153345D01*
X57010468Y-46263489D01*
X57010469Y-46263493D01*
X57011633Y-46272394D01*
X57022410Y-46296887D01*
X57051709Y-46363473D01*
X57063605Y-46390510D01*
X57069382Y-46397383D01*
X57069383Y-46397384D01*
X57140859Y-46482415D01*
X57146639Y-46489291D01*
X57254060Y-46560796D01*
X57337436Y-46586844D01*
X57374534Y-46598435D01*
X57433591Y-46637841D01*
X57461968Y-46702920D01*
X57461460Y-46738086D01*
X57446282Y-46835566D01*
X57446282Y-46835571D01*
X57444901Y-46844440D01*
X57446065Y-46853342D01*
X57446065Y-46853345D01*
X57460468Y-46963489D01*
X57460469Y-46963493D01*
X57461633Y-46972394D01*
X57473697Y-46999811D01*
X57491085Y-47039328D01*
X57513605Y-47090510D01*
X57519382Y-47097383D01*
X57519383Y-47097384D01*
X57572686Y-47160796D01*
X57596639Y-47189291D01*
X57704060Y-47260796D01*
X57792938Y-47288564D01*
X57808400Y-47293394D01*
X57827233Y-47299278D01*
X57836203Y-47299442D01*
X57836207Y-47299443D01*
X57894942Y-47300519D01*
X57956255Y-47301643D01*
X58018505Y-47284671D01*
X58072092Y-47270062D01*
X58072093Y-47270062D01*
X58080755Y-47267700D01*
X58088405Y-47263003D01*
X58088407Y-47263002D01*
X58183072Y-47204878D01*
X58183075Y-47204875D01*
X58190724Y-47200179D01*
X58196750Y-47193522D01*
X58271300Y-47111161D01*
X58271303Y-47111157D01*
X58277322Y-47104507D01*
X58333588Y-46988375D01*
X58336300Y-46972259D01*
X58354190Y-46865917D01*
X58354997Y-46861120D01*
X58355133Y-46850000D01*
X58342792Y-46763826D01*
X58338112Y-46731145D01*
X58338111Y-46731142D01*
X58336839Y-46722259D01*
X58321866Y-46689328D01*
X58287145Y-46612962D01*
X58287143Y-46612959D01*
X58283428Y-46604788D01*
X58199193Y-46507028D01*
X58102630Y-46444440D01*
X59244901Y-46444440D01*
X59246065Y-46453342D01*
X59246065Y-46453345D01*
X59260468Y-46563489D01*
X59260469Y-46563493D01*
X59261633Y-46572394D01*
X59313605Y-46690510D01*
X59319382Y-46697383D01*
X59319383Y-46697384D01*
X59325371Y-46704507D01*
X59396639Y-46789291D01*
X59404116Y-46794268D01*
X59488025Y-46850122D01*
X59504060Y-46860796D01*
X59587425Y-46886841D01*
X59603045Y-46891721D01*
X59627233Y-46899278D01*
X59636203Y-46899442D01*
X59636207Y-46899443D01*
X59694942Y-46900519D01*
X59756255Y-46901643D01*
X59863538Y-46872394D01*
X59872092Y-46870062D01*
X59872093Y-46870062D01*
X59880755Y-46867700D01*
X59888405Y-46863003D01*
X59888407Y-46863002D01*
X59983072Y-46804878D01*
X59983075Y-46804875D01*
X59990724Y-46800179D01*
X59996750Y-46793522D01*
X60071300Y-46711161D01*
X60071303Y-46711157D01*
X60077322Y-46704507D01*
X60133588Y-46588375D01*
X60137778Y-46563473D01*
X60154190Y-46465917D01*
X60154997Y-46461120D01*
X60155133Y-46450000D01*
X60143347Y-46367700D01*
X60138112Y-46331145D01*
X60138111Y-46331142D01*
X60136839Y-46322259D01*
X60130724Y-46308809D01*
X60087145Y-46212962D01*
X60087143Y-46212959D01*
X60083428Y-46204788D01*
X60049134Y-46164988D01*
X60005051Y-46113826D01*
X60005049Y-46113824D01*
X59999193Y-46107028D01*
X59890906Y-46036841D01*
X59882311Y-46034271D01*
X59882310Y-46034270D01*
X59775874Y-46002438D01*
X59775872Y-46002438D01*
X59767273Y-45999866D01*
X59758298Y-45999811D01*
X59758297Y-45999811D01*
X59703641Y-45999477D01*
X59638231Y-45999078D01*
X59604183Y-46008809D01*
X59522786Y-46032072D01*
X59522784Y-46032073D01*
X59514155Y-46034539D01*
X59506565Y-46039328D01*
X59429422Y-46088002D01*
X59405019Y-46103399D01*
X59399076Y-46110128D01*
X59399075Y-46110129D01*
X59368773Y-46144440D01*
X59319596Y-46200122D01*
X59315782Y-46208245D01*
X59315781Y-46208247D01*
X59301206Y-46239291D01*
X59264754Y-46316932D01*
X59257587Y-46362962D01*
X59246282Y-46435567D01*
X59246282Y-46435571D01*
X59244901Y-46444440D01*
X58102630Y-46444440D01*
X58090906Y-46436841D01*
X58082311Y-46434271D01*
X58082310Y-46434270D01*
X57976351Y-46402581D01*
X57916818Y-46363899D01*
X57887648Y-46299171D01*
X57888200Y-46260960D01*
X57900053Y-46190510D01*
X57904997Y-46161120D01*
X57905133Y-46150000D01*
X57892744Y-46063489D01*
X57888112Y-46031145D01*
X57888111Y-46031142D01*
X57886839Y-46022259D01*
X57877421Y-46001545D01*
X57837145Y-45912962D01*
X57837143Y-45912959D01*
X57833428Y-45904788D01*
X57797422Y-45863001D01*
X57755051Y-45813826D01*
X57755049Y-45813824D01*
X57749193Y-45807028D01*
X57640906Y-45736841D01*
X57632311Y-45734271D01*
X57632310Y-45734270D01*
X57525874Y-45702438D01*
X57525872Y-45702438D01*
X57517273Y-45699866D01*
X57508298Y-45699811D01*
X57508297Y-45699811D01*
X57453641Y-45699477D01*
X57388231Y-45699078D01*
X57339652Y-45712962D01*
X57272786Y-45732072D01*
X57272784Y-45732073D01*
X57264155Y-45734539D01*
X57256565Y-45739328D01*
X57170667Y-45793526D01*
X57155019Y-45803399D01*
X57149076Y-45810128D01*
X57149075Y-45810129D01*
X57108722Y-45855820D01*
X57069596Y-45900122D01*
X57065782Y-45908245D01*
X57065781Y-45908247D01*
X57046178Y-45950000D01*
X57014754Y-46016932D01*
X57009978Y-46047609D01*
X56996282Y-46135567D01*
X56996282Y-46135571D01*
X56994901Y-46144440D01*
X52456424Y-46144440D01*
X52483588Y-46088375D01*
X52490447Y-46047609D01*
X52504190Y-45965917D01*
X52504997Y-45961120D01*
X52505133Y-45950000D01*
X52497684Y-45897985D01*
X52488112Y-45831145D01*
X52488111Y-45831142D01*
X52486839Y-45822259D01*
X52479271Y-45805614D01*
X52437145Y-45712962D01*
X52437143Y-45712959D01*
X52433428Y-45704788D01*
X52391236Y-45655821D01*
X52355051Y-45613826D01*
X52355049Y-45613824D01*
X52349193Y-45607028D01*
X52240906Y-45536841D01*
X52232311Y-45534271D01*
X52232310Y-45534270D01*
X52125874Y-45502438D01*
X52125872Y-45502438D01*
X52117273Y-45499866D01*
X52108298Y-45499811D01*
X52108297Y-45499811D01*
X52053641Y-45499477D01*
X51988231Y-45499078D01*
X51926193Y-45516809D01*
X51872786Y-45532072D01*
X51872784Y-45532073D01*
X51864155Y-45534539D01*
X51856565Y-45539328D01*
X51769491Y-45594268D01*
X51755019Y-45603399D01*
X51749076Y-45610128D01*
X51749075Y-45610129D01*
X51712557Y-45651478D01*
X51669596Y-45700122D01*
X51665782Y-45708245D01*
X51665781Y-45708247D01*
X51651189Y-45739328D01*
X51614754Y-45816932D01*
X51613374Y-45825798D01*
X51596282Y-45935567D01*
X51596282Y-45935571D01*
X51594901Y-45944440D01*
X47163806Y-45944440D01*
X47171300Y-45936161D01*
X47171303Y-45936157D01*
X47177322Y-45929507D01*
X47233588Y-45813375D01*
X47235267Y-45803399D01*
X47254190Y-45690917D01*
X47254997Y-45686120D01*
X47255133Y-45675000D01*
X47243465Y-45593525D01*
X47238112Y-45556145D01*
X47238111Y-45556142D01*
X47236839Y-45547259D01*
X47215266Y-45499811D01*
X47187145Y-45437962D01*
X47187143Y-45437959D01*
X47183428Y-45429788D01*
X47157625Y-45399842D01*
X47105051Y-45338826D01*
X47105049Y-45338824D01*
X47099193Y-45332028D01*
X46990906Y-45261841D01*
X46982311Y-45259271D01*
X46982310Y-45259270D01*
X46875874Y-45227438D01*
X46875872Y-45227438D01*
X46867273Y-45224866D01*
X46858298Y-45224811D01*
X46858297Y-45224811D01*
X46803641Y-45224477D01*
X46738231Y-45224078D01*
X46726475Y-45227438D01*
X46622786Y-45257072D01*
X46622784Y-45257073D01*
X46614155Y-45259539D01*
X46606565Y-45264328D01*
X46514749Y-45322260D01*
X46505019Y-45328399D01*
X46499076Y-45335128D01*
X46499075Y-45335129D01*
X46466164Y-45372394D01*
X46419596Y-45425122D01*
X46415782Y-45433245D01*
X46415781Y-45433247D01*
X46407979Y-45449866D01*
X46364754Y-45541932D01*
X46362541Y-45556145D01*
X46346282Y-45660567D01*
X46346282Y-45660571D01*
X46344901Y-45669440D01*
X41490090Y-45669440D01*
X41487145Y-45662962D01*
X41487143Y-45662959D01*
X41483428Y-45654788D01*
X41436374Y-45600179D01*
X41405051Y-45563826D01*
X41405049Y-45563824D01*
X41399193Y-45557028D01*
X41290906Y-45486841D01*
X41282311Y-45484271D01*
X41282310Y-45484270D01*
X41175874Y-45452438D01*
X41175872Y-45452438D01*
X41167273Y-45449866D01*
X41158298Y-45449811D01*
X41158297Y-45449811D01*
X41103641Y-45449477D01*
X41038231Y-45449078D01*
X40979312Y-45465917D01*
X40922786Y-45482072D01*
X40922784Y-45482073D01*
X40914155Y-45484539D01*
X40906565Y-45489328D01*
X40819491Y-45544268D01*
X40805019Y-45553399D01*
X40719596Y-45650122D01*
X40715782Y-45658245D01*
X40715781Y-45658247D01*
X40702695Y-45686120D01*
X40664754Y-45766932D01*
X40656969Y-45816932D01*
X40646282Y-45885567D01*
X40646282Y-45885571D01*
X40644901Y-45894440D01*
X40646065Y-45903342D01*
X40646065Y-45903345D01*
X40660468Y-46013489D01*
X40660469Y-46013493D01*
X40661633Y-46022394D01*
X40686772Y-46079526D01*
X40705611Y-46122342D01*
X40714739Y-46192750D01*
X40684352Y-46256915D01*
X40624098Y-46294465D01*
X40605961Y-46296887D01*
X40606102Y-46297914D01*
X40597206Y-46299133D01*
X40588231Y-46299078D01*
X40535705Y-46314090D01*
X40472786Y-46332072D01*
X40472784Y-46332073D01*
X40464155Y-46334539D01*
X40439458Y-46350122D01*
X40388475Y-46382290D01*
X40355019Y-46403399D01*
X40349076Y-46410128D01*
X40349075Y-46410129D01*
X40326609Y-46435567D01*
X40269596Y-46500122D01*
X40214754Y-46616932D01*
X40209749Y-46649078D01*
X40196282Y-46735567D01*
X40196282Y-46735571D01*
X40194901Y-46744440D01*
X36700500Y-46744440D01*
X36700500Y-45194440D01*
X48994901Y-45194440D01*
X48996065Y-45203342D01*
X48996065Y-45203345D01*
X49010468Y-45313489D01*
X49010469Y-45313493D01*
X49011633Y-45322394D01*
X49063605Y-45440510D01*
X49069382Y-45447383D01*
X49069383Y-45447384D01*
X49113499Y-45499866D01*
X49146639Y-45539291D01*
X49154116Y-45544268D01*
X49242948Y-45603399D01*
X49254060Y-45610796D01*
X49342938Y-45638564D01*
X49358400Y-45643394D01*
X49377233Y-45649278D01*
X49386203Y-45649442D01*
X49386207Y-45649443D01*
X49444942Y-45650519D01*
X49506255Y-45651643D01*
X49568505Y-45634672D01*
X49622092Y-45620062D01*
X49622093Y-45620062D01*
X49630755Y-45617700D01*
X49638405Y-45613003D01*
X49638407Y-45613002D01*
X49733072Y-45554878D01*
X49733075Y-45554875D01*
X49740724Y-45550179D01*
X49750546Y-45539328D01*
X49821300Y-45461161D01*
X49821303Y-45461157D01*
X49827322Y-45454507D01*
X49883588Y-45338375D01*
X49885267Y-45328399D01*
X49904190Y-45215917D01*
X49904997Y-45211120D01*
X49905133Y-45200000D01*
X49897748Y-45148433D01*
X49888112Y-45081145D01*
X49888111Y-45081142D01*
X49886839Y-45072259D01*
X49871867Y-45039329D01*
X49837145Y-44962962D01*
X49837143Y-44962959D01*
X49833428Y-44954788D01*
X49787636Y-44901643D01*
X49755051Y-44863826D01*
X49755049Y-44863824D01*
X49749193Y-44857028D01*
X49640906Y-44786841D01*
X49632311Y-44784271D01*
X49632310Y-44784270D01*
X49525874Y-44752438D01*
X49525872Y-44752438D01*
X49517273Y-44749866D01*
X49508298Y-44749811D01*
X49508297Y-44749811D01*
X49453641Y-44749477D01*
X49388231Y-44749078D01*
X49339704Y-44762947D01*
X49272786Y-44782072D01*
X49272784Y-44782073D01*
X49264155Y-44784539D01*
X49256565Y-44789328D01*
X49167746Y-44845369D01*
X49155019Y-44853399D01*
X49149076Y-44860128D01*
X49149075Y-44860129D01*
X49116864Y-44896601D01*
X49069596Y-44950122D01*
X49065782Y-44958245D01*
X49065781Y-44958247D01*
X49049598Y-44992716D01*
X49014754Y-45066932D01*
X49013374Y-45075798D01*
X48996282Y-45185567D01*
X48996282Y-45185571D01*
X48994901Y-45194440D01*
X36700500Y-45194440D01*
X36700500Y-44115248D01*
X38493243Y-44115248D01*
X38494407Y-44124150D01*
X38494407Y-44124153D01*
X38508810Y-44234297D01*
X38508811Y-44234301D01*
X38509975Y-44243202D01*
X38513592Y-44251422D01*
X38548661Y-44331122D01*
X38561947Y-44361318D01*
X38567724Y-44368191D01*
X38567725Y-44368192D01*
X38573713Y-44375315D01*
X38644981Y-44460099D01*
X38752402Y-44531604D01*
X38818617Y-44552291D01*
X38866930Y-44567385D01*
X38875575Y-44570086D01*
X38884545Y-44570250D01*
X38884549Y-44570251D01*
X38943284Y-44571327D01*
X39004597Y-44572451D01*
X39078542Y-44552291D01*
X39120434Y-44540870D01*
X39120435Y-44540870D01*
X39129097Y-44538508D01*
X39136747Y-44533811D01*
X39136749Y-44533810D01*
X39231414Y-44475686D01*
X39231417Y-44475683D01*
X39239066Y-44470987D01*
X39245092Y-44464330D01*
X39263096Y-44444440D01*
X39844901Y-44444440D01*
X39846065Y-44453342D01*
X39846065Y-44453345D01*
X39860468Y-44563489D01*
X39860469Y-44563493D01*
X39861633Y-44572394D01*
X39913605Y-44690510D01*
X39919382Y-44697383D01*
X39919383Y-44697384D01*
X39976467Y-44765294D01*
X39996639Y-44789291D01*
X40012428Y-44799801D01*
X40092948Y-44853399D01*
X40104060Y-44860796D01*
X40227233Y-44899278D01*
X40236203Y-44899442D01*
X40236207Y-44899443D01*
X40294942Y-44900519D01*
X40356255Y-44901643D01*
X40418505Y-44884671D01*
X40472092Y-44870062D01*
X40472093Y-44870062D01*
X40480755Y-44867700D01*
X40488405Y-44863003D01*
X40488407Y-44863002D01*
X40583072Y-44804878D01*
X40583075Y-44804875D01*
X40590724Y-44800179D01*
X40600546Y-44789328D01*
X40671300Y-44711161D01*
X40671303Y-44711157D01*
X40677322Y-44704507D01*
X40733588Y-44588375D01*
X40736665Y-44570089D01*
X40754190Y-44465917D01*
X40754997Y-44461120D01*
X40755133Y-44450000D01*
X40741256Y-44353098D01*
X40738112Y-44331145D01*
X40738111Y-44331142D01*
X40736839Y-44322259D01*
X40732844Y-44313473D01*
X40687145Y-44212962D01*
X40687143Y-44212959D01*
X40683428Y-44204788D01*
X40637636Y-44151643D01*
X40605051Y-44113826D01*
X40605049Y-44113824D01*
X40599193Y-44107028D01*
X40490906Y-44036841D01*
X40482311Y-44034271D01*
X40482310Y-44034270D01*
X40375874Y-44002438D01*
X40375872Y-44002438D01*
X40367273Y-43999866D01*
X40358298Y-43999811D01*
X40358297Y-43999811D01*
X40303641Y-43999477D01*
X40238231Y-43999078D01*
X40189652Y-44012962D01*
X40122786Y-44032072D01*
X40122784Y-44032073D01*
X40114155Y-44034539D01*
X40090771Y-44049293D01*
X40061147Y-44067985D01*
X40005019Y-44103399D01*
X39999076Y-44110128D01*
X39999075Y-44110129D01*
X39966864Y-44146601D01*
X39919596Y-44200122D01*
X39915782Y-44208245D01*
X39915781Y-44208247D01*
X39896178Y-44250000D01*
X39864754Y-44316932D01*
X39859378Y-44351463D01*
X39846282Y-44435567D01*
X39846282Y-44435571D01*
X39844901Y-44444440D01*
X39263096Y-44444440D01*
X39319642Y-44381969D01*
X39319645Y-44381965D01*
X39325664Y-44375315D01*
X39381930Y-44259183D01*
X39384440Y-44244268D01*
X39402532Y-44136725D01*
X39403339Y-44131928D01*
X39403475Y-44120808D01*
X39391082Y-44034270D01*
X39386454Y-44001953D01*
X39386453Y-44001950D01*
X39385181Y-43993067D01*
X39381467Y-43984898D01*
X39335487Y-43883770D01*
X39335485Y-43883767D01*
X39331770Y-43875596D01*
X39301538Y-43840510D01*
X39253393Y-43784634D01*
X39253391Y-43784632D01*
X39247535Y-43777836D01*
X39139248Y-43707649D01*
X39130653Y-43705079D01*
X39130652Y-43705078D01*
X39024216Y-43673246D01*
X39024214Y-43673246D01*
X39015615Y-43670674D01*
X39006640Y-43670619D01*
X39006639Y-43670619D01*
X38951983Y-43670285D01*
X38886573Y-43669886D01*
X38874817Y-43673246D01*
X38771128Y-43702880D01*
X38771126Y-43702881D01*
X38762497Y-43705347D01*
X38653361Y-43774207D01*
X38647418Y-43780936D01*
X38647417Y-43780937D01*
X38604505Y-43829526D01*
X38567938Y-43870930D01*
X38564124Y-43879053D01*
X38564123Y-43879055D01*
X38553281Y-43902148D01*
X38513096Y-43987740D01*
X38506421Y-44030614D01*
X38494624Y-44106375D01*
X38494624Y-44106379D01*
X38493243Y-44115248D01*
X36700500Y-44115248D01*
X36700500Y-42794440D01*
X39994901Y-42794440D01*
X39996065Y-42803342D01*
X39996065Y-42803345D01*
X40010468Y-42913489D01*
X40010469Y-42913493D01*
X40011633Y-42922394D01*
X40015250Y-42930614D01*
X40051716Y-43013489D01*
X40063605Y-43040510D01*
X40069382Y-43047383D01*
X40069383Y-43047384D01*
X40140261Y-43131703D01*
X40146639Y-43139291D01*
X40254060Y-43210796D01*
X40322855Y-43232289D01*
X40361748Y-43244440D01*
X40377233Y-43249278D01*
X40386203Y-43249442D01*
X40386207Y-43249443D01*
X40444942Y-43250519D01*
X40506255Y-43251643D01*
X40532675Y-43244440D01*
X43444901Y-43244440D01*
X43446065Y-43253342D01*
X43446065Y-43253345D01*
X43460468Y-43363489D01*
X43460469Y-43363493D01*
X43461633Y-43372394D01*
X43472218Y-43396450D01*
X43507132Y-43475798D01*
X43513605Y-43490510D01*
X43519382Y-43497383D01*
X43519383Y-43497384D01*
X43590859Y-43582415D01*
X43596639Y-43589291D01*
X43604116Y-43594268D01*
X43688025Y-43650122D01*
X43704060Y-43660796D01*
X43783347Y-43685567D01*
X43811748Y-43694440D01*
X43827233Y-43699278D01*
X43836203Y-43699442D01*
X43836207Y-43699443D01*
X43894942Y-43700519D01*
X43956255Y-43701643D01*
X44060413Y-43673246D01*
X44072092Y-43670062D01*
X44072093Y-43670062D01*
X44080755Y-43667700D01*
X44088405Y-43663003D01*
X44088407Y-43663002D01*
X44183072Y-43604878D01*
X44183075Y-43604875D01*
X44190724Y-43600179D01*
X44195919Y-43594440D01*
X46794901Y-43594440D01*
X46796065Y-43603342D01*
X46796065Y-43603345D01*
X46810468Y-43713489D01*
X46810469Y-43713493D01*
X46811633Y-43722394D01*
X46815250Y-43730614D01*
X46851716Y-43813489D01*
X46863605Y-43840510D01*
X46912805Y-43899041D01*
X46941325Y-43964054D01*
X46930169Y-44034169D01*
X46924003Y-44045132D01*
X46919596Y-44050122D01*
X46864754Y-44166932D01*
X46858860Y-44204788D01*
X46846282Y-44285567D01*
X46846282Y-44285571D01*
X46844901Y-44294440D01*
X46846065Y-44303342D01*
X46846065Y-44303345D01*
X46860468Y-44413489D01*
X46860469Y-44413493D01*
X46861633Y-44422394D01*
X46913605Y-44540510D01*
X46919382Y-44547383D01*
X46919383Y-44547384D01*
X46963143Y-44599443D01*
X46996639Y-44639291D01*
X47004116Y-44644268D01*
X47090310Y-44701643D01*
X47104060Y-44710796D01*
X47227233Y-44749278D01*
X47236203Y-44749442D01*
X47236207Y-44749443D01*
X47294942Y-44750519D01*
X47356255Y-44751643D01*
X47432724Y-44730795D01*
X47472092Y-44720062D01*
X47472093Y-44720062D01*
X47480755Y-44717700D01*
X47488405Y-44713003D01*
X47488407Y-44713002D01*
X47583072Y-44654878D01*
X47583075Y-44654875D01*
X47590724Y-44650179D01*
X47599476Y-44640510D01*
X47671300Y-44561161D01*
X47671303Y-44561157D01*
X47677322Y-44554507D01*
X47733588Y-44438375D01*
X47740642Y-44396450D01*
X47754190Y-44315917D01*
X47754997Y-44311120D01*
X47755133Y-44300000D01*
X47741498Y-44204788D01*
X47738112Y-44181145D01*
X47738111Y-44181142D01*
X47736839Y-44172259D01*
X47730724Y-44158809D01*
X47687145Y-44062962D01*
X47687143Y-44062959D01*
X47683428Y-44054788D01*
X47663855Y-44032072D01*
X47638148Y-44002237D01*
X47608835Y-43937574D01*
X47619135Y-43867328D01*
X47624743Y-43857357D01*
X47627322Y-43854507D01*
X47631234Y-43846432D01*
X47631237Y-43846428D01*
X47671587Y-43763145D01*
X47719289Y-43710562D01*
X47787848Y-43692116D01*
X47809717Y-43695708D01*
X47809805Y-43695166D01*
X47818666Y-43696601D01*
X47827233Y-43699278D01*
X47836203Y-43699442D01*
X47836207Y-43699443D01*
X47894942Y-43700519D01*
X47956255Y-43701643D01*
X47982675Y-43694440D01*
X49144901Y-43694440D01*
X49146065Y-43703342D01*
X49146065Y-43703345D01*
X49160468Y-43813489D01*
X49160469Y-43813493D01*
X49161633Y-43822394D01*
X49165250Y-43830614D01*
X49191668Y-43890653D01*
X49213605Y-43940510D01*
X49219382Y-43947383D01*
X49219383Y-43947384D01*
X49289345Y-44030614D01*
X49296639Y-44039291D01*
X49304116Y-44044268D01*
X49392948Y-44103399D01*
X49404060Y-44110796D01*
X49527233Y-44149278D01*
X49536203Y-44149442D01*
X49536207Y-44149443D01*
X49594942Y-44150519D01*
X49656255Y-44151643D01*
X49731440Y-44131145D01*
X49772092Y-44120062D01*
X49772093Y-44120062D01*
X49780755Y-44117700D01*
X49788405Y-44113003D01*
X49788407Y-44113002D01*
X49883072Y-44054878D01*
X49883075Y-44054875D01*
X49890724Y-44050179D01*
X49900546Y-44039328D01*
X49971300Y-43961161D01*
X49971303Y-43961157D01*
X49977322Y-43954507D01*
X50006424Y-43894440D01*
X51394901Y-43894440D01*
X51396065Y-43903342D01*
X51396065Y-43903345D01*
X51410468Y-44013489D01*
X51410469Y-44013493D01*
X51411633Y-44022394D01*
X51421258Y-44044268D01*
X51457690Y-44127066D01*
X51463605Y-44140510D01*
X51469382Y-44147383D01*
X51469383Y-44147384D01*
X51510079Y-44195798D01*
X51546639Y-44239291D01*
X51579432Y-44261120D01*
X51646208Y-44305569D01*
X51654060Y-44310796D01*
X51777233Y-44349278D01*
X51786205Y-44349442D01*
X51786208Y-44349443D01*
X51823260Y-44350122D01*
X51891003Y-44371370D01*
X51917401Y-44395026D01*
X51977443Y-44466454D01*
X51996639Y-44489291D01*
X52104060Y-44560796D01*
X52227233Y-44599278D01*
X52236205Y-44599442D01*
X52236208Y-44599443D01*
X52273260Y-44600122D01*
X52341003Y-44621370D01*
X52367401Y-44645026D01*
X52418505Y-44705821D01*
X52446639Y-44739291D01*
X52454116Y-44744268D01*
X52528110Y-44793522D01*
X52554060Y-44810796D01*
X52637425Y-44836841D01*
X52653045Y-44841721D01*
X52677233Y-44849278D01*
X52686203Y-44849442D01*
X52686207Y-44849443D01*
X52744942Y-44850519D01*
X52806255Y-44851643D01*
X52879786Y-44831596D01*
X52922092Y-44820062D01*
X52922093Y-44820062D01*
X52930755Y-44817700D01*
X52938407Y-44813002D01*
X52946642Y-44809438D01*
X52947751Y-44812001D01*
X53002434Y-44797155D01*
X53050790Y-44808619D01*
X53054060Y-44810796D01*
X53137425Y-44836841D01*
X53153045Y-44841721D01*
X53177233Y-44849278D01*
X53186203Y-44849442D01*
X53186207Y-44849443D01*
X53244942Y-44850519D01*
X53306255Y-44851643D01*
X53379786Y-44831596D01*
X53422092Y-44820062D01*
X53422093Y-44820062D01*
X53430755Y-44817700D01*
X53438405Y-44813003D01*
X53438407Y-44813002D01*
X53533072Y-44754878D01*
X53533075Y-44754875D01*
X53540724Y-44750179D01*
X53553420Y-44736153D01*
X53613960Y-44699071D01*
X53666983Y-44696328D01*
X53668661Y-44696600D01*
X53677233Y-44699278D01*
X53686207Y-44699442D01*
X53686210Y-44699443D01*
X53741744Y-44700460D01*
X53806255Y-44701643D01*
X53921659Y-44670180D01*
X53922092Y-44670062D01*
X53922093Y-44670062D01*
X53930755Y-44667700D01*
X53938405Y-44663003D01*
X53938407Y-44663002D01*
X54033072Y-44604878D01*
X54033075Y-44604875D01*
X54040724Y-44600179D01*
X54046750Y-44593522D01*
X54121300Y-44511161D01*
X54121303Y-44511157D01*
X54127322Y-44504507D01*
X54183588Y-44388375D01*
X54192414Y-44335917D01*
X54196027Y-44314440D01*
X54594902Y-44314440D01*
X54596066Y-44323342D01*
X54596066Y-44323345D01*
X54610469Y-44433489D01*
X54610470Y-44433491D01*
X54611634Y-44442394D01*
X54663606Y-44560509D01*
X54669383Y-44567382D01*
X54669384Y-44567383D01*
X54734013Y-44644268D01*
X54746640Y-44659290D01*
X54754117Y-44664267D01*
X54834389Y-44717700D01*
X54854061Y-44730795D01*
X54977233Y-44769277D01*
X54996110Y-44769623D01*
X55063853Y-44790870D01*
X55109355Y-44845369D01*
X55118169Y-44915816D01*
X55088241Y-44979010D01*
X55069596Y-45000122D01*
X55065782Y-45008245D01*
X55065781Y-45008247D01*
X55042043Y-45058809D01*
X55014754Y-45116932D01*
X55013374Y-45125798D01*
X54996282Y-45235567D01*
X54996282Y-45235571D01*
X54994901Y-45244440D01*
X54996065Y-45253342D01*
X54996065Y-45253345D01*
X55010468Y-45363489D01*
X55010469Y-45363493D01*
X55011633Y-45372394D01*
X55015250Y-45380614D01*
X55047924Y-45454871D01*
X55063605Y-45490510D01*
X55069382Y-45497383D01*
X55069383Y-45497384D01*
X55132879Y-45572922D01*
X55146639Y-45589291D01*
X55154116Y-45594268D01*
X55240310Y-45651643D01*
X55254060Y-45660796D01*
X55310231Y-45678345D01*
X55358400Y-45693394D01*
X55377233Y-45699278D01*
X55386203Y-45699442D01*
X55386207Y-45699443D01*
X55444942Y-45700519D01*
X55506255Y-45701643D01*
X55577244Y-45682289D01*
X55622092Y-45670062D01*
X55622093Y-45670062D01*
X55630755Y-45667700D01*
X55638405Y-45663003D01*
X55638407Y-45663002D01*
X55733072Y-45604878D01*
X55733075Y-45604875D01*
X55740724Y-45600179D01*
X55801379Y-45533168D01*
X55861922Y-45496088D01*
X55932902Y-45497626D01*
X55991782Y-45537294D01*
X56010435Y-45572922D01*
X56011634Y-45572394D01*
X56063606Y-45690509D01*
X56069383Y-45697382D01*
X56069384Y-45697383D01*
X56106654Y-45741721D01*
X56146640Y-45789290D01*
X56254061Y-45860795D01*
X56377233Y-45899277D01*
X56386203Y-45899441D01*
X56386207Y-45899442D01*
X56444942Y-45900518D01*
X56506255Y-45901642D01*
X56568505Y-45884671D01*
X56622092Y-45870061D01*
X56622093Y-45870061D01*
X56630755Y-45867699D01*
X56638405Y-45863002D01*
X56638407Y-45863001D01*
X56733076Y-45804874D01*
X56733077Y-45804874D01*
X56740724Y-45800178D01*
X56827322Y-45704507D01*
X56871427Y-45613473D01*
X56879673Y-45596454D01*
X56879673Y-45596453D01*
X56883587Y-45588375D01*
X56904996Y-45461120D01*
X56905132Y-45450000D01*
X56902238Y-45429788D01*
X56888111Y-45331147D01*
X56888110Y-45331145D01*
X56886838Y-45322260D01*
X56859040Y-45261120D01*
X56837143Y-45212961D01*
X56833427Y-45204788D01*
X56749193Y-45107029D01*
X56640906Y-45036841D01*
X56535194Y-45005227D01*
X56475662Y-44966546D01*
X56446676Y-44902228D01*
X56440601Y-44939868D01*
X56393191Y-44992716D01*
X56361530Y-45006710D01*
X56278543Y-45030428D01*
X56264156Y-45034540D01*
X56155020Y-45103400D01*
X56135239Y-45125798D01*
X56099657Y-45166086D01*
X56039571Y-45203904D01*
X55968577Y-45203233D01*
X55909216Y-45164287D01*
X55886942Y-45122979D01*
X55886839Y-45122259D01*
X55883126Y-45114093D01*
X55883125Y-45114089D01*
X55837145Y-45012962D01*
X55837143Y-45012959D01*
X55833428Y-45004788D01*
X55793326Y-44958247D01*
X55755051Y-44913826D01*
X55755049Y-44913824D01*
X55749193Y-44907028D01*
X55640906Y-44836841D01*
X55632311Y-44834271D01*
X55632310Y-44834270D01*
X55525874Y-44802438D01*
X55525872Y-44802438D01*
X55517273Y-44799866D01*
X55508298Y-44799811D01*
X55508297Y-44799811D01*
X55506760Y-44799802D01*
X55506626Y-44799801D01*
X55505038Y-44799324D01*
X55499417Y-44798484D01*
X55499538Y-44797673D01*
X55438628Y-44779383D01*
X55392464Y-44725445D01*
X55382789Y-44655110D01*
X55413980Y-44589248D01*
X55421294Y-44581167D01*
X55421295Y-44581165D01*
X55427322Y-44574507D01*
X55466197Y-44494268D01*
X55479673Y-44466454D01*
X55479673Y-44466453D01*
X55483587Y-44458375D01*
X55504996Y-44331120D01*
X55505132Y-44320000D01*
X55504337Y-44314442D01*
X55994902Y-44314442D01*
X55996066Y-44323344D01*
X55996066Y-44323347D01*
X56010469Y-44433491D01*
X56010470Y-44433495D01*
X56011634Y-44442396D01*
X56021984Y-44465917D01*
X56048698Y-44526629D01*
X56063606Y-44560511D01*
X56069383Y-44567383D01*
X56069384Y-44567385D01*
X56129827Y-44639291D01*
X56146640Y-44659292D01*
X56154117Y-44664269D01*
X56234386Y-44717700D01*
X56254061Y-44730797D01*
X56364480Y-44765295D01*
X56423536Y-44804700D01*
X56451427Y-44868665D01*
X56456946Y-44831596D01*
X56503707Y-44778173D01*
X56538155Y-44762947D01*
X56622092Y-44740063D01*
X56622093Y-44740063D01*
X56630755Y-44737701D01*
X56638405Y-44733004D01*
X56638407Y-44733003D01*
X56733076Y-44674876D01*
X56733077Y-44674876D01*
X56740724Y-44670180D01*
X56827322Y-44574509D01*
X56866198Y-44494268D01*
X56879673Y-44466456D01*
X56879674Y-44466454D01*
X56883587Y-44458377D01*
X56904996Y-44331122D01*
X56905132Y-44320002D01*
X56904441Y-44315173D01*
X56888111Y-44201149D01*
X56888110Y-44201147D01*
X56886838Y-44192262D01*
X56881784Y-44181145D01*
X56837143Y-44082963D01*
X56837142Y-44082961D01*
X56833427Y-44074790D01*
X56755972Y-43984898D01*
X56755054Y-43983833D01*
X56755052Y-43983831D01*
X56749193Y-43977031D01*
X56640906Y-43906843D01*
X56517273Y-43869869D01*
X56508297Y-43869814D01*
X56508296Y-43869814D01*
X56454563Y-43869486D01*
X56388232Y-43869081D01*
X56326194Y-43886812D01*
X56272787Y-43902075D01*
X56272785Y-43902076D01*
X56264156Y-43904542D01*
X56256566Y-43909331D01*
X56169836Y-43964054D01*
X56155020Y-43973402D01*
X56069597Y-44070124D01*
X56065783Y-44078247D01*
X56065782Y-44078249D01*
X56043771Y-44125131D01*
X56014755Y-44186934D01*
X56007674Y-44232415D01*
X55996283Y-44305569D01*
X55996283Y-44305573D01*
X55994902Y-44314442D01*
X55504337Y-44314442D01*
X55504198Y-44313473D01*
X55488111Y-44201147D01*
X55488110Y-44201145D01*
X55486838Y-44192260D01*
X55449496Y-44110129D01*
X55437143Y-44082961D01*
X55433427Y-44074788D01*
X55370317Y-44001545D01*
X55355054Y-43983831D01*
X55349193Y-43977029D01*
X55240906Y-43906841D01*
X55117273Y-43869867D01*
X55108297Y-43869812D01*
X55108296Y-43869812D01*
X55054563Y-43869484D01*
X54988232Y-43869079D01*
X54926194Y-43886809D01*
X54872787Y-43902073D01*
X54872785Y-43902074D01*
X54864156Y-43904540D01*
X54856566Y-43909329D01*
X54774418Y-43961161D01*
X54755020Y-43973400D01*
X54669597Y-44070122D01*
X54665783Y-44078245D01*
X54665782Y-44078247D01*
X54647259Y-44117700D01*
X54614755Y-44186932D01*
X54611119Y-44210286D01*
X54596283Y-44305567D01*
X54596283Y-44305569D01*
X54594902Y-44314440D01*
X54196027Y-44314440D01*
X54204190Y-44265917D01*
X54204997Y-44261120D01*
X54205133Y-44250000D01*
X54194938Y-44178809D01*
X54188112Y-44131145D01*
X54188111Y-44131142D01*
X54186839Y-44122259D01*
X54176086Y-44098608D01*
X54137145Y-44012962D01*
X54137143Y-44012959D01*
X54133428Y-44004788D01*
X54106384Y-43973402D01*
X54055051Y-43913826D01*
X54055049Y-43913824D01*
X54049193Y-43907028D01*
X53940906Y-43836841D01*
X53932311Y-43834271D01*
X53932310Y-43834270D01*
X53825874Y-43802438D01*
X53825872Y-43802438D01*
X53817273Y-43799866D01*
X53808298Y-43799811D01*
X53808297Y-43799811D01*
X53779641Y-43799636D01*
X53711644Y-43779218D01*
X53665710Y-43725789D01*
X53633428Y-43654788D01*
X53586374Y-43600179D01*
X53555051Y-43563826D01*
X53555049Y-43563824D01*
X53549193Y-43557028D01*
X53440906Y-43486841D01*
X53432311Y-43484271D01*
X53432310Y-43484270D01*
X53374336Y-43466932D01*
X53317273Y-43449866D01*
X53308296Y-43449811D01*
X53302964Y-43449014D01*
X53238549Y-43419161D01*
X53200499Y-43359222D01*
X53196864Y-43342260D01*
X53188112Y-43281145D01*
X53188111Y-43281142D01*
X53186839Y-43272259D01*
X53181775Y-43261120D01*
X53154891Y-43201993D01*
X53144905Y-43131703D01*
X53156200Y-43094903D01*
X53172548Y-43061161D01*
X53183588Y-43038375D01*
X53187367Y-43015917D01*
X53190980Y-42994440D01*
X54594902Y-42994440D01*
X54596066Y-43003342D01*
X54596066Y-43003345D01*
X54610469Y-43113489D01*
X54610470Y-43113493D01*
X54611634Y-43122394D01*
X54623698Y-43149811D01*
X54646659Y-43201993D01*
X54663606Y-43240509D01*
X54669383Y-43247382D01*
X54669384Y-43247383D01*
X54706654Y-43291721D01*
X54746640Y-43339290D01*
X54854061Y-43410795D01*
X54977233Y-43449277D01*
X54986203Y-43449441D01*
X54986207Y-43449442D01*
X55044942Y-43450518D01*
X55106255Y-43451642D01*
X55168505Y-43434670D01*
X55222092Y-43420061D01*
X55222093Y-43420061D01*
X55230755Y-43417699D01*
X55238405Y-43413002D01*
X55238407Y-43413001D01*
X55333076Y-43354874D01*
X55333077Y-43354874D01*
X55340724Y-43350178D01*
X55427322Y-43254507D01*
X55473762Y-43158655D01*
X55479673Y-43146454D01*
X55479673Y-43146453D01*
X55483587Y-43138375D01*
X55504996Y-43011120D01*
X55505132Y-43000000D01*
X55504336Y-42994440D01*
X55994902Y-42994440D01*
X55996066Y-43003342D01*
X55996066Y-43003345D01*
X56010469Y-43113489D01*
X56010470Y-43113493D01*
X56011634Y-43122394D01*
X56023698Y-43149811D01*
X56046659Y-43201993D01*
X56063606Y-43240509D01*
X56069383Y-43247382D01*
X56069384Y-43247383D01*
X56106654Y-43291721D01*
X56146640Y-43339290D01*
X56254061Y-43410795D01*
X56377233Y-43449277D01*
X56386203Y-43449441D01*
X56386207Y-43449442D01*
X56444942Y-43450518D01*
X56506255Y-43451642D01*
X56568505Y-43434670D01*
X56622092Y-43420061D01*
X56622093Y-43420061D01*
X56630755Y-43417699D01*
X56638405Y-43413002D01*
X56638407Y-43413001D01*
X56733076Y-43354874D01*
X56733077Y-43354874D01*
X56740724Y-43350178D01*
X56827322Y-43254507D01*
X56873762Y-43158655D01*
X56879673Y-43146454D01*
X56879673Y-43146453D01*
X56883587Y-43138375D01*
X56904996Y-43011120D01*
X56905132Y-43000000D01*
X56893091Y-42915917D01*
X56888111Y-42881147D01*
X56888110Y-42881145D01*
X56886838Y-42872260D01*
X56859040Y-42811120D01*
X56841371Y-42772259D01*
X56833427Y-42754788D01*
X56749193Y-42657029D01*
X56640906Y-42586841D01*
X56517273Y-42549867D01*
X56508297Y-42549812D01*
X56508296Y-42549812D01*
X56454563Y-42549484D01*
X56388232Y-42549079D01*
X56339656Y-42562962D01*
X56272787Y-42582073D01*
X56272785Y-42582074D01*
X56264156Y-42584540D01*
X56256566Y-42589329D01*
X56189408Y-42631703D01*
X56155020Y-42653400D01*
X56069597Y-42750122D01*
X56065783Y-42758245D01*
X56065782Y-42758247D01*
X56047408Y-42797384D01*
X56014755Y-42866932D01*
X56009077Y-42903399D01*
X55996283Y-42985567D01*
X55996283Y-42985571D01*
X55994902Y-42994440D01*
X55504336Y-42994440D01*
X55493091Y-42915917D01*
X55488111Y-42881147D01*
X55488110Y-42881145D01*
X55486838Y-42872260D01*
X55459040Y-42811120D01*
X55441371Y-42772259D01*
X55433427Y-42754788D01*
X55349193Y-42657029D01*
X55240906Y-42586841D01*
X55117273Y-42549867D01*
X55108297Y-42549812D01*
X55108296Y-42549812D01*
X55054563Y-42549484D01*
X54988232Y-42549079D01*
X54939656Y-42562962D01*
X54872787Y-42582073D01*
X54872785Y-42582074D01*
X54864156Y-42584540D01*
X54856566Y-42589329D01*
X54789408Y-42631703D01*
X54755020Y-42653400D01*
X54669597Y-42750122D01*
X54665783Y-42758245D01*
X54665782Y-42758247D01*
X54647408Y-42797384D01*
X54614755Y-42866932D01*
X54609077Y-42903399D01*
X54596283Y-42985567D01*
X54596283Y-42985571D01*
X54594902Y-42994440D01*
X53190980Y-42994440D01*
X53204190Y-42915917D01*
X53204997Y-42911120D01*
X53205133Y-42900000D01*
X53193135Y-42816222D01*
X53188112Y-42781145D01*
X53188111Y-42781142D01*
X53186839Y-42772259D01*
X53182612Y-42762961D01*
X53154891Y-42701993D01*
X53144905Y-42631703D01*
X53156200Y-42594903D01*
X53162416Y-42582073D01*
X53183588Y-42538375D01*
X53189796Y-42501478D01*
X53204190Y-42415917D01*
X53204997Y-42411120D01*
X53205065Y-42405530D01*
X53205074Y-42404859D01*
X53205074Y-42404853D01*
X53205133Y-42400000D01*
X53191498Y-42304788D01*
X53188112Y-42281145D01*
X53188111Y-42281142D01*
X53186839Y-42272259D01*
X53154891Y-42201993D01*
X53144905Y-42131703D01*
X53156200Y-42094903D01*
X53160602Y-42085818D01*
X53183588Y-42038375D01*
X53185962Y-42024267D01*
X53204190Y-41915917D01*
X53204997Y-41911120D01*
X53205133Y-41900000D01*
X53194600Y-41826452D01*
X53188112Y-41781145D01*
X53188111Y-41781142D01*
X53186839Y-41772259D01*
X53154891Y-41701993D01*
X53150977Y-41674440D01*
X54594902Y-41674440D01*
X54596066Y-41683342D01*
X54596066Y-41683345D01*
X54610469Y-41793489D01*
X54610470Y-41793493D01*
X54611634Y-41802394D01*
X54663606Y-41920509D01*
X54669383Y-41927381D01*
X54669384Y-41927383D01*
X54680966Y-41941161D01*
X54746640Y-42019290D01*
X54854061Y-42090795D01*
X54977233Y-42129277D01*
X54986203Y-42129441D01*
X54986207Y-42129442D01*
X55044942Y-42130518D01*
X55106255Y-42131642D01*
X55213373Y-42102438D01*
X55222092Y-42100061D01*
X55222093Y-42100061D01*
X55230755Y-42097699D01*
X55238405Y-42093002D01*
X55238407Y-42093001D01*
X55333076Y-42034874D01*
X55333077Y-42034874D01*
X55340724Y-42030178D01*
X55427322Y-41934507D01*
X55483587Y-41818375D01*
X55504996Y-41691120D01*
X55505132Y-41680000D01*
X55504441Y-41675171D01*
X55504336Y-41674438D01*
X55994902Y-41674438D01*
X55996066Y-41683340D01*
X55996066Y-41683343D01*
X56010469Y-41793487D01*
X56010470Y-41793489D01*
X56011634Y-41802392D01*
X56015251Y-41810612D01*
X56056055Y-41903345D01*
X56063606Y-41920507D01*
X56069383Y-41927380D01*
X56069384Y-41927381D01*
X56075374Y-41934507D01*
X56146640Y-42019288D01*
X56254061Y-42090793D01*
X56377233Y-42129275D01*
X56386203Y-42129439D01*
X56386207Y-42129440D01*
X56444942Y-42130516D01*
X56506255Y-42131640D01*
X56568505Y-42114668D01*
X56622092Y-42100059D01*
X56622093Y-42100059D01*
X56630755Y-42097697D01*
X56638405Y-42093000D01*
X56638407Y-42092999D01*
X56733076Y-42034872D01*
X56733077Y-42034872D01*
X56740724Y-42030176D01*
X56827322Y-41934505D01*
X56883587Y-41818373D01*
X56904996Y-41691118D01*
X56905132Y-41679998D01*
X56903066Y-41665567D01*
X56888111Y-41561145D01*
X56888110Y-41561143D01*
X56886838Y-41552258D01*
X56876503Y-41529526D01*
X56837143Y-41442959D01*
X56833427Y-41434786D01*
X56760371Y-41350000D01*
X56755054Y-41343829D01*
X56749193Y-41337027D01*
X56640906Y-41266839D01*
X56535194Y-41235225D01*
X56475662Y-41196544D01*
X56446676Y-41132226D01*
X56440601Y-41169866D01*
X56393191Y-41222714D01*
X56361530Y-41236708D01*
X56284201Y-41258809D01*
X56264156Y-41264538D01*
X56155020Y-41333398D01*
X56069597Y-41430120D01*
X56065783Y-41438243D01*
X56065782Y-41438245D01*
X56054159Y-41463002D01*
X56014755Y-41546930D01*
X56007970Y-41590510D01*
X55996283Y-41665565D01*
X55996283Y-41665567D01*
X55994902Y-41674438D01*
X55504336Y-41674438D01*
X55488111Y-41561147D01*
X55488110Y-41561145D01*
X55486838Y-41552260D01*
X55433427Y-41434788D01*
X55349193Y-41337029D01*
X55240906Y-41266841D01*
X55117273Y-41229867D01*
X55108297Y-41229812D01*
X55108296Y-41229812D01*
X55054563Y-41229484D01*
X54988232Y-41229079D01*
X54961539Y-41236708D01*
X54872787Y-41262073D01*
X54872785Y-41262074D01*
X54864156Y-41264540D01*
X54856566Y-41269329D01*
X54790267Y-41311161D01*
X54755020Y-41333400D01*
X54669597Y-41430122D01*
X54665783Y-41438245D01*
X54665782Y-41438247D01*
X54654160Y-41463002D01*
X54614755Y-41546932D01*
X54613375Y-41555798D01*
X54596283Y-41665567D01*
X54596283Y-41665571D01*
X54594902Y-41674440D01*
X53150977Y-41674440D01*
X53144905Y-41631703D01*
X53156200Y-41594903D01*
X53162311Y-41582290D01*
X53183588Y-41538375D01*
X53189796Y-41501478D01*
X53204190Y-41415917D01*
X53204997Y-41411120D01*
X53205065Y-41405530D01*
X53205074Y-41404859D01*
X53205074Y-41404853D01*
X53205133Y-41400000D01*
X53196115Y-41337027D01*
X53188112Y-41281145D01*
X53188111Y-41281142D01*
X53186839Y-41272259D01*
X53168735Y-41232440D01*
X53154891Y-41201993D01*
X53144905Y-41131703D01*
X53156200Y-41094903D01*
X53158955Y-41089216D01*
X53183588Y-41038375D01*
X53188670Y-41008171D01*
X53204190Y-40915917D01*
X53204997Y-40911120D01*
X53205065Y-40905530D01*
X53205074Y-40904859D01*
X53205074Y-40904853D01*
X53205133Y-40900000D01*
X53191498Y-40804788D01*
X53188112Y-40781145D01*
X53188111Y-40781142D01*
X53186839Y-40772259D01*
X53154891Y-40701993D01*
X53144905Y-40631703D01*
X53156200Y-40594903D01*
X53158955Y-40589216D01*
X53180649Y-40544440D01*
X55994902Y-40544440D01*
X55996066Y-40553342D01*
X55996066Y-40553345D01*
X56010469Y-40663489D01*
X56010470Y-40663493D01*
X56011634Y-40672394D01*
X56063606Y-40790509D01*
X56069383Y-40797382D01*
X56069384Y-40797383D01*
X56075609Y-40804788D01*
X56146640Y-40889290D01*
X56254061Y-40960795D01*
X56364480Y-40995293D01*
X56423536Y-41034698D01*
X56451427Y-41098663D01*
X56456946Y-41061594D01*
X56503707Y-41008171D01*
X56538155Y-40992945D01*
X56622092Y-40970061D01*
X56622093Y-40970061D01*
X56630755Y-40967699D01*
X56638405Y-40963002D01*
X56638407Y-40963001D01*
X56733076Y-40904874D01*
X56733077Y-40904874D01*
X56740724Y-40900178D01*
X56827322Y-40804507D01*
X56871256Y-40713826D01*
X56879673Y-40696454D01*
X56879673Y-40696453D01*
X56883587Y-40688375D01*
X56904996Y-40561120D01*
X56905132Y-40550000D01*
X56901179Y-40522394D01*
X56888111Y-40431147D01*
X56888110Y-40431145D01*
X56886838Y-40422260D01*
X56833427Y-40304788D01*
X56749193Y-40207029D01*
X56640906Y-40136841D01*
X56517273Y-40099867D01*
X56508297Y-40099812D01*
X56508296Y-40099812D01*
X56454563Y-40099484D01*
X56388232Y-40099079D01*
X56326194Y-40116810D01*
X56272787Y-40132073D01*
X56272785Y-40132074D01*
X56264156Y-40134540D01*
X56155020Y-40203400D01*
X56069597Y-40300122D01*
X56014755Y-40416932D01*
X56013375Y-40425798D01*
X55996283Y-40535567D01*
X55996283Y-40535571D01*
X55994902Y-40544440D01*
X53180649Y-40544440D01*
X53183588Y-40538375D01*
X53204997Y-40411120D01*
X53205133Y-40400000D01*
X53191498Y-40304788D01*
X53188112Y-40281145D01*
X53188111Y-40281142D01*
X53186839Y-40272259D01*
X53180724Y-40258809D01*
X53137145Y-40162962D01*
X53137143Y-40162959D01*
X53133428Y-40154788D01*
X53085426Y-40099079D01*
X53055051Y-40063826D01*
X53055049Y-40063824D01*
X53049193Y-40057028D01*
X52940906Y-39986841D01*
X52932311Y-39984271D01*
X52932310Y-39984270D01*
X52825874Y-39952438D01*
X52825872Y-39952438D01*
X52817273Y-39949866D01*
X52808298Y-39949811D01*
X52808297Y-39949811D01*
X52753641Y-39949477D01*
X52688231Y-39949078D01*
X52676475Y-39952438D01*
X52572786Y-39982072D01*
X52572784Y-39982073D01*
X52564155Y-39984539D01*
X52455019Y-40053399D01*
X52445808Y-40063829D01*
X52394249Y-40122207D01*
X52334163Y-40160025D01*
X52263169Y-40159354D01*
X52204355Y-40121046D01*
X52155054Y-40063829D01*
X52155050Y-40063826D01*
X52149193Y-40057028D01*
X52040906Y-39986841D01*
X52032311Y-39984271D01*
X52032310Y-39984270D01*
X51925874Y-39952438D01*
X51925872Y-39952438D01*
X51917273Y-39949866D01*
X51908298Y-39949811D01*
X51908297Y-39949811D01*
X51853641Y-39949477D01*
X51788231Y-39949078D01*
X51776475Y-39952438D01*
X51672786Y-39982072D01*
X51672784Y-39982073D01*
X51664155Y-39984539D01*
X51555019Y-40053399D01*
X51549076Y-40060128D01*
X51549075Y-40060129D01*
X51514676Y-40099079D01*
X51469596Y-40150122D01*
X51465782Y-40158245D01*
X51465781Y-40158247D01*
X51446831Y-40198609D01*
X51414754Y-40266932D01*
X51408860Y-40304788D01*
X51396282Y-40385567D01*
X51396282Y-40385571D01*
X51394901Y-40394440D01*
X51396065Y-40403342D01*
X51396065Y-40403345D01*
X51410468Y-40513489D01*
X51410469Y-40513493D01*
X51411633Y-40522394D01*
X51430784Y-40565917D01*
X51445614Y-40599621D01*
X51454742Y-40670028D01*
X51444340Y-40703915D01*
X51414754Y-40766932D01*
X51408904Y-40804507D01*
X51396282Y-40885567D01*
X51396282Y-40885571D01*
X51394901Y-40894440D01*
X51396065Y-40903342D01*
X51396065Y-40903345D01*
X51410468Y-41013489D01*
X51410469Y-41013493D01*
X51411633Y-41022394D01*
X51430784Y-41065917D01*
X51445614Y-41099621D01*
X51454742Y-41170028D01*
X51444340Y-41203915D01*
X51414754Y-41266932D01*
X51413374Y-41275798D01*
X51396282Y-41385567D01*
X51396282Y-41385571D01*
X51394901Y-41394440D01*
X51396065Y-41403342D01*
X51396065Y-41403345D01*
X51410468Y-41513489D01*
X51410469Y-41513493D01*
X51411633Y-41522394D01*
X51445575Y-41599532D01*
X51445614Y-41599621D01*
X51454742Y-41670028D01*
X51444340Y-41703915D01*
X51414754Y-41766932D01*
X51408123Y-41809521D01*
X51396282Y-41885567D01*
X51396282Y-41885571D01*
X51394901Y-41894440D01*
X51396065Y-41903342D01*
X51396065Y-41903345D01*
X51410468Y-42013489D01*
X51410469Y-42013493D01*
X51411633Y-42022394D01*
X51441730Y-42090793D01*
X51445614Y-42099621D01*
X51454742Y-42170028D01*
X51444340Y-42203915D01*
X51414754Y-42266932D01*
X51408904Y-42304507D01*
X51396282Y-42385567D01*
X51396282Y-42385571D01*
X51394901Y-42394440D01*
X51396065Y-42403342D01*
X51396065Y-42403345D01*
X51410468Y-42513489D01*
X51410469Y-42513493D01*
X51411633Y-42522394D01*
X51442141Y-42591727D01*
X51445614Y-42599621D01*
X51454742Y-42670028D01*
X51444340Y-42703915D01*
X51414754Y-42766932D01*
X51408904Y-42804507D01*
X51396282Y-42885567D01*
X51396282Y-42885571D01*
X51394901Y-42894440D01*
X51396065Y-42903342D01*
X51396065Y-42903345D01*
X51410468Y-43013489D01*
X51410469Y-43013493D01*
X51411633Y-43022394D01*
X51415250Y-43030614D01*
X51445614Y-43099621D01*
X51454742Y-43170028D01*
X51444340Y-43203915D01*
X51414754Y-43266932D01*
X51405626Y-43325558D01*
X51396282Y-43385567D01*
X51396282Y-43385571D01*
X51394901Y-43394440D01*
X51396065Y-43403342D01*
X51396065Y-43403345D01*
X51410468Y-43513489D01*
X51410469Y-43513493D01*
X51411633Y-43522394D01*
X51443259Y-43594268D01*
X51445614Y-43599621D01*
X51454742Y-43670028D01*
X51444340Y-43703915D01*
X51414754Y-43766932D01*
X51411998Y-43784634D01*
X51396282Y-43885567D01*
X51396282Y-43885571D01*
X51394901Y-43894440D01*
X50006424Y-43894440D01*
X50033588Y-43838375D01*
X50040106Y-43799636D01*
X50054190Y-43715917D01*
X50054997Y-43711120D01*
X50055133Y-43700000D01*
X50046613Y-43640510D01*
X50038112Y-43581145D01*
X50038111Y-43581142D01*
X50036839Y-43572259D01*
X50010118Y-43513489D01*
X49987145Y-43462962D01*
X49987143Y-43462959D01*
X49983428Y-43454788D01*
X49947422Y-43413001D01*
X49905051Y-43363826D01*
X49905049Y-43363824D01*
X49899193Y-43357028D01*
X49790906Y-43286841D01*
X49782311Y-43284271D01*
X49782310Y-43284270D01*
X49675874Y-43252438D01*
X49675872Y-43252438D01*
X49667273Y-43249866D01*
X49658298Y-43249811D01*
X49658297Y-43249811D01*
X49603641Y-43249477D01*
X49538231Y-43249078D01*
X49485705Y-43264090D01*
X49422786Y-43282072D01*
X49422784Y-43282073D01*
X49414155Y-43284539D01*
X49406565Y-43289328D01*
X49320667Y-43343526D01*
X49305019Y-43353399D01*
X49299076Y-43360128D01*
X49299075Y-43360129D01*
X49263862Y-43400000D01*
X49219596Y-43450122D01*
X49215782Y-43458245D01*
X49215781Y-43458247D01*
X49197407Y-43497384D01*
X49164754Y-43566932D01*
X49158846Y-43604878D01*
X49146282Y-43685567D01*
X49146282Y-43685571D01*
X49144901Y-43694440D01*
X47982675Y-43694440D01*
X48060413Y-43673246D01*
X48072092Y-43670062D01*
X48072093Y-43670062D01*
X48080755Y-43667700D01*
X48088405Y-43663003D01*
X48088407Y-43663002D01*
X48183072Y-43604878D01*
X48183075Y-43604875D01*
X48190724Y-43600179D01*
X48196750Y-43593522D01*
X48271300Y-43511161D01*
X48271303Y-43511157D01*
X48277322Y-43504507D01*
X48333588Y-43388375D01*
X48341156Y-43343394D01*
X48354190Y-43265917D01*
X48354997Y-43261120D01*
X48355133Y-43250000D01*
X48343680Y-43170028D01*
X48338112Y-43131145D01*
X48338111Y-43131142D01*
X48336839Y-43122259D01*
X48320449Y-43086211D01*
X48287145Y-43012962D01*
X48287143Y-43012959D01*
X48283428Y-43004788D01*
X48219516Y-42930614D01*
X48205051Y-42913826D01*
X48205049Y-42913824D01*
X48199193Y-42907028D01*
X48090906Y-42836841D01*
X48082311Y-42834271D01*
X48082310Y-42834270D01*
X47975874Y-42802438D01*
X47975872Y-42802438D01*
X47967273Y-42799866D01*
X47958298Y-42799811D01*
X47958297Y-42799811D01*
X47903641Y-42799477D01*
X47838231Y-42799078D01*
X47818004Y-42804859D01*
X47722786Y-42832072D01*
X47722784Y-42832073D01*
X47714155Y-42834539D01*
X47605019Y-42903399D01*
X47599076Y-42910128D01*
X47599075Y-42910129D01*
X47534695Y-42983026D01*
X47519596Y-43000122D01*
X47515782Y-43008245D01*
X47515781Y-43008247D01*
X47479177Y-43086211D01*
X47432120Y-43139373D01*
X47363792Y-43158655D01*
X47329021Y-43153379D01*
X47317273Y-43149866D01*
X47308298Y-43149811D01*
X47308297Y-43149811D01*
X47253641Y-43149477D01*
X47188231Y-43149078D01*
X47154722Y-43158655D01*
X47072786Y-43182072D01*
X47072784Y-43182073D01*
X47064155Y-43184539D01*
X46955019Y-43253399D01*
X46949076Y-43260128D01*
X46949075Y-43260129D01*
X46921174Y-43291721D01*
X46869596Y-43350122D01*
X46865782Y-43358245D01*
X46865781Y-43358247D01*
X46851636Y-43388375D01*
X46814754Y-43466932D01*
X46810161Y-43496432D01*
X46796282Y-43585567D01*
X46796282Y-43585571D01*
X46794901Y-43594440D01*
X44195919Y-43594440D01*
X44196750Y-43593522D01*
X44271300Y-43511161D01*
X44271303Y-43511157D01*
X44277322Y-43504507D01*
X44333588Y-43388375D01*
X44341156Y-43343394D01*
X44354190Y-43265917D01*
X44354997Y-43261120D01*
X44355133Y-43250000D01*
X44343680Y-43170028D01*
X44338112Y-43131145D01*
X44338111Y-43131142D01*
X44336839Y-43122259D01*
X44320449Y-43086211D01*
X44287145Y-43012962D01*
X44287143Y-43012959D01*
X44283428Y-43004788D01*
X44264677Y-42983026D01*
X44235364Y-42918363D01*
X44245664Y-42848117D01*
X44266714Y-42816227D01*
X44277322Y-42804507D01*
X44333588Y-42688375D01*
X44336300Y-42672259D01*
X44354190Y-42565917D01*
X44354997Y-42561120D01*
X44355133Y-42550000D01*
X44342792Y-42463826D01*
X44338112Y-42431145D01*
X44338111Y-42431142D01*
X44336839Y-42422259D01*
X44333125Y-42414090D01*
X44287145Y-42312962D01*
X44287143Y-42312959D01*
X44283428Y-42304788D01*
X44199193Y-42207028D01*
X44090906Y-42136841D01*
X44082311Y-42134271D01*
X44082310Y-42134270D01*
X43975874Y-42102438D01*
X43975872Y-42102438D01*
X43967273Y-42099866D01*
X43958298Y-42099811D01*
X43958297Y-42099811D01*
X43903641Y-42099477D01*
X43838231Y-42099078D01*
X43826475Y-42102438D01*
X43722786Y-42132072D01*
X43722784Y-42132073D01*
X43714155Y-42134539D01*
X43605019Y-42203399D01*
X43519596Y-42300122D01*
X43515782Y-42308245D01*
X43515781Y-42308247D01*
X43496611Y-42349078D01*
X43464754Y-42416932D01*
X43457581Y-42463002D01*
X43446282Y-42535567D01*
X43446282Y-42535571D01*
X43444901Y-42544440D01*
X43446065Y-42553342D01*
X43446065Y-42553345D01*
X43460468Y-42663489D01*
X43460469Y-42663493D01*
X43461633Y-42672394D01*
X43465250Y-42680614D01*
X43507132Y-42775798D01*
X43513605Y-42790510D01*
X43519382Y-42797383D01*
X43519383Y-42797384D01*
X43536943Y-42818274D01*
X43565464Y-42883289D01*
X43554308Y-42953404D01*
X43534932Y-42982757D01*
X43519596Y-43000122D01*
X43515782Y-43008245D01*
X43515781Y-43008247D01*
X43497845Y-43046450D01*
X43464754Y-43116932D01*
X43459365Y-43151545D01*
X43446282Y-43235567D01*
X43446282Y-43235571D01*
X43444901Y-43244440D01*
X40532675Y-43244440D01*
X40577244Y-43232289D01*
X40622092Y-43220062D01*
X40622093Y-43220062D01*
X40630755Y-43217700D01*
X40638405Y-43213003D01*
X40638407Y-43213002D01*
X40733072Y-43154878D01*
X40733075Y-43154875D01*
X40740724Y-43150179D01*
X40749476Y-43140510D01*
X40821300Y-43061161D01*
X40821303Y-43061157D01*
X40827322Y-43054507D01*
X40883588Y-42938375D01*
X40887367Y-42915917D01*
X40904190Y-42815917D01*
X40904997Y-42811120D01*
X40905133Y-42800000D01*
X40891373Y-42703916D01*
X40888112Y-42681145D01*
X40888111Y-42681142D01*
X40886839Y-42672259D01*
X40880724Y-42658809D01*
X40837145Y-42562962D01*
X40837143Y-42562959D01*
X40833428Y-42554788D01*
X40787636Y-42501643D01*
X40755051Y-42463826D01*
X40755049Y-42463824D01*
X40749193Y-42457028D01*
X40640906Y-42386841D01*
X40632311Y-42384271D01*
X40632310Y-42384270D01*
X40525874Y-42352438D01*
X40525872Y-42352438D01*
X40517273Y-42349866D01*
X40508298Y-42349811D01*
X40508297Y-42349811D01*
X40453641Y-42349477D01*
X40388231Y-42349078D01*
X40376475Y-42352438D01*
X40272786Y-42382072D01*
X40272784Y-42382073D01*
X40264155Y-42384539D01*
X40155019Y-42453399D01*
X40149076Y-42460128D01*
X40149075Y-42460129D01*
X40116864Y-42496601D01*
X40069596Y-42550122D01*
X40065782Y-42558245D01*
X40065781Y-42558247D01*
X40048571Y-42594903D01*
X40014754Y-42666932D01*
X40010158Y-42696450D01*
X39996282Y-42785567D01*
X39996282Y-42785571D01*
X39994901Y-42794440D01*
X36700500Y-42794440D01*
X36700500Y-41044440D01*
X38544901Y-41044440D01*
X38546065Y-41053342D01*
X38546065Y-41053345D01*
X38560468Y-41163489D01*
X38560469Y-41163493D01*
X38561633Y-41172394D01*
X38565250Y-41180614D01*
X38607132Y-41275798D01*
X38613605Y-41290510D01*
X38619382Y-41297383D01*
X38619383Y-41297384D01*
X38664013Y-41350478D01*
X38696639Y-41389291D01*
X38704116Y-41394268D01*
X38764989Y-41434788D01*
X38804060Y-41460796D01*
X38927233Y-41499278D01*
X38936203Y-41499442D01*
X38936207Y-41499443D01*
X38994942Y-41500519D01*
X39056255Y-41501643D01*
X39163538Y-41472394D01*
X39172092Y-41470062D01*
X39172093Y-41470062D01*
X39180755Y-41467700D01*
X39188405Y-41463003D01*
X39188407Y-41463002D01*
X39283072Y-41404878D01*
X39283075Y-41404875D01*
X39290724Y-41400179D01*
X39296750Y-41393522D01*
X39341177Y-41344440D01*
X48894901Y-41344440D01*
X48896065Y-41353342D01*
X48896065Y-41353345D01*
X48910468Y-41463489D01*
X48910469Y-41463493D01*
X48911633Y-41472394D01*
X48923535Y-41499443D01*
X48948331Y-41555796D01*
X48963605Y-41590510D01*
X49012805Y-41649041D01*
X49041325Y-41714054D01*
X49030169Y-41784169D01*
X49024003Y-41795132D01*
X49019596Y-41800122D01*
X48964754Y-41916932D01*
X48955626Y-41975558D01*
X48946282Y-42035567D01*
X48946282Y-42035571D01*
X48944901Y-42044440D01*
X48946065Y-42053342D01*
X48946065Y-42053345D01*
X48960468Y-42163489D01*
X48960469Y-42163493D01*
X48961633Y-42172394D01*
X48975503Y-42203916D01*
X49007132Y-42275798D01*
X49013605Y-42290510D01*
X49019382Y-42297383D01*
X49019383Y-42297384D01*
X49063499Y-42349866D01*
X49096639Y-42389291D01*
X49104116Y-42394268D01*
X49192948Y-42453399D01*
X49204060Y-42460796D01*
X49327233Y-42499278D01*
X49336203Y-42499442D01*
X49336207Y-42499443D01*
X49394942Y-42500519D01*
X49456255Y-42501643D01*
X49518505Y-42484671D01*
X49572092Y-42470062D01*
X49572093Y-42470062D01*
X49580755Y-42467700D01*
X49588405Y-42463003D01*
X49588407Y-42463002D01*
X49683072Y-42404878D01*
X49683075Y-42404875D01*
X49690724Y-42400179D01*
X49700546Y-42389328D01*
X49771300Y-42311161D01*
X49771303Y-42311157D01*
X49777322Y-42304507D01*
X49833588Y-42188375D01*
X49840228Y-42148910D01*
X49854190Y-42065917D01*
X49854997Y-42061120D01*
X49855133Y-42050000D01*
X49847748Y-41998433D01*
X49838112Y-41931145D01*
X49838111Y-41931142D01*
X49836839Y-41922259D01*
X49832305Y-41912287D01*
X49787145Y-41812962D01*
X49787143Y-41812959D01*
X49783428Y-41804788D01*
X49758449Y-41775798D01*
X49738148Y-41752237D01*
X49708835Y-41687574D01*
X49719135Y-41617328D01*
X49724743Y-41607357D01*
X49727322Y-41604507D01*
X49783588Y-41488375D01*
X49787067Y-41467700D01*
X49804190Y-41365917D01*
X49804997Y-41361120D01*
X49805133Y-41350000D01*
X49795272Y-41281145D01*
X49788112Y-41231145D01*
X49788111Y-41231142D01*
X49786839Y-41222259D01*
X49775147Y-41196544D01*
X49737145Y-41112962D01*
X49737143Y-41112959D01*
X49733428Y-41104788D01*
X49696210Y-41061594D01*
X49655051Y-41013826D01*
X49655049Y-41013824D01*
X49649193Y-41007028D01*
X49540906Y-40936841D01*
X49532311Y-40934271D01*
X49532310Y-40934270D01*
X49425874Y-40902438D01*
X49425872Y-40902438D01*
X49417273Y-40899866D01*
X49408298Y-40899811D01*
X49408297Y-40899811D01*
X49353641Y-40899477D01*
X49288231Y-40899078D01*
X49263109Y-40906258D01*
X49172786Y-40932072D01*
X49172784Y-40932073D01*
X49164155Y-40934539D01*
X49156565Y-40939328D01*
X49071588Y-40992945D01*
X49055019Y-41003399D01*
X49049076Y-41010128D01*
X49049075Y-41010129D01*
X49013862Y-41050000D01*
X48969596Y-41100122D01*
X48965782Y-41108245D01*
X48965781Y-41108247D01*
X48943930Y-41154788D01*
X48914754Y-41216932D01*
X48906983Y-41266841D01*
X48896282Y-41335567D01*
X48896282Y-41335571D01*
X48894901Y-41344440D01*
X39341177Y-41344440D01*
X39371300Y-41311161D01*
X39371303Y-41311157D01*
X39377322Y-41304507D01*
X39433588Y-41188375D01*
X39440228Y-41148910D01*
X39454190Y-41065917D01*
X39454997Y-41061120D01*
X39455133Y-41050000D01*
X39445093Y-40979891D01*
X39438112Y-40931145D01*
X39438111Y-40931142D01*
X39436839Y-40922259D01*
X39433125Y-40914090D01*
X39387145Y-40812962D01*
X39387143Y-40812959D01*
X39383428Y-40804788D01*
X39299193Y-40707028D01*
X39190906Y-40636841D01*
X39182311Y-40634271D01*
X39182310Y-40634270D01*
X39075874Y-40602438D01*
X39075872Y-40602438D01*
X39067273Y-40599866D01*
X39058298Y-40599811D01*
X39058297Y-40599811D01*
X39003641Y-40599477D01*
X38938231Y-40599078D01*
X38926475Y-40602438D01*
X38822786Y-40632072D01*
X38822784Y-40632073D01*
X38814155Y-40634539D01*
X38705019Y-40703399D01*
X38619596Y-40800122D01*
X38615782Y-40808245D01*
X38615781Y-40808247D01*
X38589794Y-40863598D01*
X38564754Y-40916932D01*
X38557925Y-40960795D01*
X38546282Y-41035567D01*
X38546282Y-41035571D01*
X38544901Y-41044440D01*
X36700500Y-41044440D01*
X36700500Y-38723371D01*
X36703755Y-38694918D01*
X36704043Y-38693676D01*
X36704044Y-38693669D01*
X36705655Y-38686718D01*
X36705656Y-38686000D01*
X36704074Y-38679066D01*
X36703349Y-38672586D01*
X36702932Y-38654440D01*
X37480770Y-38654440D01*
X37482107Y-38674837D01*
X37495200Y-38874604D01*
X37496621Y-38880200D01*
X37496622Y-38880205D01*
X37540961Y-39054788D01*
X37549511Y-39088452D01*
X37551928Y-39093694D01*
X37551928Y-39093695D01*
X37588147Y-39172259D01*
X37641883Y-39288821D01*
X37769222Y-39469002D01*
X37927264Y-39622961D01*
X37932060Y-39626166D01*
X37932063Y-39626168D01*
X38016261Y-39682427D01*
X38110717Y-39745540D01*
X38116020Y-39747818D01*
X38116023Y-39747820D01*
X38308129Y-39830355D01*
X38313436Y-39832635D01*
X38393088Y-39850658D01*
X38522995Y-39880054D01*
X38523001Y-39880055D01*
X38528632Y-39881329D01*
X38534403Y-39881556D01*
X38534405Y-39881556D01*
X38602211Y-39884220D01*
X38749098Y-39889991D01*
X38858275Y-39874161D01*
X38961738Y-39859160D01*
X38961743Y-39859159D01*
X38967452Y-39858331D01*
X38972916Y-39856476D01*
X38972921Y-39856475D01*
X39170907Y-39789268D01*
X39170912Y-39789266D01*
X39176379Y-39787410D01*
X39368884Y-39679602D01*
X39373817Y-39675500D01*
X39528790Y-39546609D01*
X39538518Y-39538518D01*
X39592985Y-39473029D01*
X39675908Y-39373326D01*
X39675910Y-39373323D01*
X39679602Y-39368884D01*
X39787410Y-39176379D01*
X39789266Y-39170912D01*
X39789268Y-39170907D01*
X39856475Y-38972921D01*
X39856476Y-38972916D01*
X39858331Y-38967452D01*
X39859159Y-38961743D01*
X39859160Y-38961738D01*
X39889458Y-38752772D01*
X39889991Y-38749098D01*
X39891643Y-38686000D01*
X39871454Y-38466289D01*
X39811565Y-38253936D01*
X39713980Y-38056053D01*
X39581967Y-37879267D01*
X39419949Y-37729499D01*
X39233350Y-37611764D01*
X39028421Y-37530006D01*
X39022761Y-37528880D01*
X39022757Y-37528879D01*
X38817691Y-37488089D01*
X38817688Y-37488089D01*
X38812024Y-37486962D01*
X38806249Y-37486886D01*
X38806245Y-37486886D01*
X38695504Y-37485437D01*
X38591406Y-37484074D01*
X38585709Y-37485053D01*
X38585708Y-37485053D01*
X38379654Y-37520459D01*
X38379653Y-37520459D01*
X38373957Y-37521438D01*
X38166957Y-37597804D01*
X37977341Y-37710614D01*
X37811457Y-37856090D01*
X37674863Y-38029360D01*
X37572131Y-38224620D01*
X37506703Y-38435333D01*
X37480770Y-38654440D01*
X36702932Y-38654440D01*
X36702838Y-38650335D01*
X36716946Y-38435082D01*
X36719097Y-38418742D01*
X36766543Y-38180213D01*
X36770807Y-38164300D01*
X36848982Y-37934005D01*
X36855288Y-37918779D01*
X36962856Y-37700654D01*
X36971097Y-37686381D01*
X37106210Y-37484169D01*
X37116243Y-37471094D01*
X37241876Y-37327836D01*
X37276600Y-37288241D01*
X37288241Y-37276600D01*
X37471094Y-37116243D01*
X37484169Y-37106210D01*
X37686381Y-36971097D01*
X37700654Y-36962856D01*
X37918779Y-36855288D01*
X37934006Y-36848981D01*
X37947407Y-36844432D01*
X38164300Y-36770807D01*
X38180210Y-36766544D01*
X38325967Y-36737551D01*
X38418742Y-36719097D01*
X38435082Y-36716946D01*
X38641389Y-36703424D01*
X38652038Y-36702726D01*
X38660499Y-36702456D01*
X38671811Y-36702476D01*
X38685641Y-36705656D01*
X38699480Y-36702525D01*
X38704311Y-36702533D01*
X38722504Y-36700500D01*
X54770969Y-36700500D01*
X54839090Y-36720502D01*
G37*
G04 #@! TD.AperFunction*
M02*
