G04 #@! TF.GenerationSoftware,KiCad,Pcbnew,(6.0.7-1)-1*
G04 #@! TF.CreationDate,2023-01-06T03:53:41-05:00*
G04 #@! TF.ProjectId,O32controller,4f333263-6f6e-4747-926f-6c6c65722e6b,rev?*
G04 #@! TF.SameCoordinates,Original*
G04 #@! TF.FileFunction,Copper,L4,Bot*
G04 #@! TF.FilePolarity,Positive*
%FSLAX46Y46*%
G04 Gerber Fmt 4.6, Leading zero omitted, Abs format (unit mm)*
G04 Created by KiCad (PCBNEW (6.0.7-1)-1) date 2023-01-06 03:53:41*
%MOMM*%
%LPD*%
G01*
G04 APERTURE LIST*
G04 Aperture macros list*
%AMRoundRect*
0 Rectangle with rounded corners*
0 $1 Rounding radius*
0 $2 $3 $4 $5 $6 $7 $8 $9 X,Y pos of 4 corners*
0 Add a 4 corners polygon primitive as box body*
4,1,4,$2,$3,$4,$5,$6,$7,$8,$9,$2,$3,0*
0 Add four circle primitives for the rounded corners*
1,1,$1+$1,$2,$3*
1,1,$1+$1,$4,$5*
1,1,$1+$1,$6,$7*
1,1,$1+$1,$8,$9*
0 Add four rect primitives between the rounded corners*
20,1,$1+$1,$2,$3,$4,$5,0*
20,1,$1+$1,$4,$5,$6,$7,0*
20,1,$1+$1,$6,$7,$8,$9,0*
20,1,$1+$1,$8,$9,$2,$3,0*%
G04 Aperture macros list end*
G04 #@! TA.AperFunction,EtchedComponent*
%ADD10C,0.050000*%
G04 #@! TD*
G04 #@! TA.AperFunction,ComponentPad*
%ADD11RoundRect,0.269607X-1.105393X-1.105393X1.105393X-1.105393X1.105393X1.105393X-1.105393X1.105393X0*%
G04 #@! TD*
G04 #@! TA.AperFunction,ComponentPad*
%ADD12RoundRect,0.176470X-0.723530X-0.723530X0.723530X-0.723530X0.723530X0.723530X-0.723530X0.723530X0*%
G04 #@! TD*
G04 #@! TA.AperFunction,SMDPad,CuDef*
%ADD13RoundRect,0.135000X0.135000X0.185000X-0.135000X0.185000X-0.135000X-0.185000X0.135000X-0.185000X0*%
G04 #@! TD*
G04 #@! TA.AperFunction,SMDPad,CuDef*
%ADD14RoundRect,0.140000X0.140000X0.170000X-0.140000X0.170000X-0.140000X-0.170000X0.140000X-0.170000X0*%
G04 #@! TD*
G04 #@! TA.AperFunction,SMDPad,CuDef*
%ADD15RoundRect,0.140000X-0.140000X-0.170000X0.140000X-0.170000X0.140000X0.170000X-0.140000X0.170000X0*%
G04 #@! TD*
G04 #@! TA.AperFunction,SMDPad,CuDef*
%ADD16RoundRect,0.025000X-0.250000X-0.100000X0.250000X-0.100000X0.250000X0.100000X-0.250000X0.100000X0*%
G04 #@! TD*
G04 #@! TA.AperFunction,SMDPad,CuDef*
%ADD17R,0.711200X0.254000*%
G04 #@! TD*
G04 #@! TA.AperFunction,SMDPad,CuDef*
%ADD18R,0.254000X0.711200*%
G04 #@! TD*
G04 #@! TA.AperFunction,SMDPad,CuDef*
%ADD19R,1.701800X1.701800*%
G04 #@! TD*
G04 #@! TA.AperFunction,SMDPad,CuDef*
%ADD20RoundRect,0.135000X-0.185000X0.135000X-0.185000X-0.135000X0.185000X-0.135000X0.185000X0.135000X0*%
G04 #@! TD*
G04 #@! TA.AperFunction,SMDPad,CuDef*
%ADD21RoundRect,0.050000X0.100000X-0.285000X0.100000X0.285000X-0.100000X0.285000X-0.100000X-0.285000X0*%
G04 #@! TD*
G04 #@! TA.AperFunction,SMDPad,CuDef*
%ADD22RoundRect,0.135000X-0.135000X-0.185000X0.135000X-0.185000X0.135000X0.185000X-0.135000X0.185000X0*%
G04 #@! TD*
G04 #@! TA.AperFunction,SMDPad,CuDef*
%ADD23RoundRect,0.140000X-0.170000X0.140000X-0.170000X-0.140000X0.170000X-0.140000X0.170000X0.140000X0*%
G04 #@! TD*
G04 #@! TA.AperFunction,SMDPad,CuDef*
%ADD24R,1.550000X0.600000*%
G04 #@! TD*
G04 #@! TA.AperFunction,SMDPad,CuDef*
%ADD25R,1.800000X1.200000*%
G04 #@! TD*
G04 #@! TA.AperFunction,SMDPad,CuDef*
%ADD26RoundRect,0.025000X0.250000X0.100000X-0.250000X0.100000X-0.250000X-0.100000X0.250000X-0.100000X0*%
G04 #@! TD*
G04 #@! TA.AperFunction,SMDPad,CuDef*
%ADD27RoundRect,0.255000X0.595000X1.445000X-0.595000X1.445000X-0.595000X-1.445000X0.595000X-1.445000X0*%
G04 #@! TD*
G04 #@! TA.AperFunction,SMDPad,CuDef*
%ADD28RoundRect,0.087500X-0.212500X0.087500X-0.212500X-0.087500X0.212500X-0.087500X0.212500X0.087500X0*%
G04 #@! TD*
G04 #@! TA.AperFunction,SMDPad,CuDef*
%ADD29C,1.000000*%
G04 #@! TD*
G04 #@! TA.AperFunction,SMDPad,CuDef*
%ADD30RoundRect,0.135000X0.185000X-0.135000X0.185000X0.135000X-0.185000X0.135000X-0.185000X-0.135000X0*%
G04 #@! TD*
G04 #@! TA.AperFunction,ViaPad*
%ADD31C,0.500000*%
G04 #@! TD*
G04 #@! TA.AperFunction,Conductor*
%ADD32C,0.250000*%
G04 #@! TD*
G04 #@! TA.AperFunction,Conductor*
%ADD33C,0.200000*%
G04 #@! TD*
G04 #@! TA.AperFunction,Conductor*
%ADD34C,0.500000*%
G04 #@! TD*
G04 APERTURE END LIST*
D10*
X57800000Y-41850000D02*
X57700000Y-41850000D01*
X57700000Y-41850000D02*
X57700000Y-41550000D01*
X57700000Y-41550000D02*
X57800000Y-41550000D01*
X57800000Y-41550000D02*
X57800000Y-41850000D01*
G36*
X57800000Y-41850000D02*
G01*
X57700000Y-41850000D01*
X57700000Y-41550000D01*
X57800000Y-41550000D01*
X57800000Y-41850000D01*
G37*
X43000000Y-43100000D02*
X43100000Y-43100000D01*
X43100000Y-43100000D02*
X43100000Y-43400000D01*
X43100000Y-43400000D02*
X43000000Y-43400000D01*
X43000000Y-43400000D02*
X43000000Y-43100000D01*
G36*
X43000000Y-43100000D02*
G01*
X43100000Y-43100000D01*
X43100000Y-43400000D01*
X43000000Y-43400000D01*
X43000000Y-43100000D01*
G37*
X57800000Y-49500000D02*
X57700000Y-49500000D01*
X57700000Y-49500000D02*
X57700000Y-49200000D01*
X57700000Y-49200000D02*
X57800000Y-49200000D01*
X57800000Y-49200000D02*
X57800000Y-49500000D01*
G36*
X57800000Y-49500000D02*
G01*
X57700000Y-49500000D01*
X57700000Y-49200000D01*
X57800000Y-49200000D01*
X57800000Y-49500000D01*
G37*
X43000000Y-42200000D02*
X43100000Y-42200000D01*
X43100000Y-42200000D02*
X43100000Y-42500000D01*
X43100000Y-42500000D02*
X43000000Y-42500000D01*
X43000000Y-42500000D02*
X43000000Y-42200000D01*
G36*
X43000000Y-42200000D02*
G01*
X43100000Y-42200000D01*
X43100000Y-42500000D01*
X43000000Y-42500000D01*
X43000000Y-42200000D01*
G37*
X57900000Y-56650000D02*
X57800000Y-56650000D01*
X57800000Y-56650000D02*
X57800000Y-56350000D01*
X57800000Y-56350000D02*
X57900000Y-56350000D01*
X57900000Y-56350000D02*
X57900000Y-56650000D01*
G36*
X57900000Y-56650000D02*
G01*
X57800000Y-56650000D01*
X57800000Y-56350000D01*
X57900000Y-56350000D01*
X57900000Y-56650000D01*
G37*
D11*
X61850000Y-53550000D03*
X61850000Y-49750000D03*
X56450000Y-38100000D03*
D12*
X41800000Y-60100000D03*
D11*
X61850000Y-46350000D03*
X61850000Y-42550000D03*
D12*
X41800000Y-62350000D03*
D11*
X56450000Y-61900000D03*
X61850000Y-56950000D03*
D13*
X51110000Y-44350000D03*
X50090000Y-44350000D03*
D14*
X62985000Y-44450000D03*
X62025000Y-44450000D03*
X55280000Y-53650000D03*
X54320000Y-53650000D03*
D13*
X51110000Y-41510000D03*
X50090000Y-41510000D03*
D15*
X49270000Y-47450000D03*
X50230000Y-47450000D03*
D14*
X54630000Y-39650000D03*
X53670000Y-39650000D03*
X62980000Y-58850000D03*
X62020000Y-58850000D03*
D16*
X57450000Y-41700000D03*
X58050000Y-41700000D03*
D17*
X51450000Y-49249999D03*
X51450000Y-49750000D03*
X51450000Y-50250000D03*
X51450000Y-50750001D03*
D18*
X50750001Y-51450000D03*
X50250000Y-51450000D03*
X49750000Y-51450000D03*
X49249999Y-51450000D03*
D17*
X48550000Y-50750001D03*
X48550000Y-50250000D03*
X48550000Y-49750000D03*
X48550000Y-49249999D03*
D18*
X49249999Y-48550000D03*
X49750000Y-48550000D03*
X50250000Y-48550000D03*
X50750001Y-48550000D03*
D19*
X50000000Y-50000000D03*
D20*
X48700000Y-41490000D03*
X48700000Y-42510000D03*
D21*
X42750000Y-51990000D03*
X42250000Y-51990000D03*
X41750000Y-51990000D03*
X41250000Y-51990000D03*
X41250000Y-50510000D03*
X41750000Y-50510000D03*
X42250000Y-50510000D03*
X42750000Y-50510000D03*
D22*
X50090000Y-43400000D03*
X51110000Y-43400000D03*
D23*
X46850000Y-51370000D03*
X46850000Y-52330000D03*
D13*
X51110000Y-56000000D03*
X50090000Y-56000000D03*
D20*
X42800000Y-45490000D03*
X42800000Y-46510000D03*
D24*
X41500000Y-57050000D03*
X41500000Y-56050000D03*
X41500000Y-55050000D03*
X41500000Y-54050000D03*
D25*
X37625000Y-58350000D03*
X37625000Y-52750000D03*
D14*
X63000000Y-51650000D03*
X62040000Y-51650000D03*
D26*
X43350000Y-43250000D03*
X42750000Y-43250000D03*
D27*
X59150000Y-56050000D03*
X53750000Y-56050000D03*
D20*
X44400000Y-45190000D03*
X44400000Y-46210000D03*
D15*
X45320000Y-56600000D03*
X46280000Y-56600000D03*
D24*
X41480000Y-48500000D03*
X41480000Y-47500000D03*
D25*
X37605000Y-49800000D03*
X37605000Y-46200000D03*
D13*
X61160000Y-51650000D03*
X60140000Y-51650000D03*
D16*
X57450000Y-49350000D03*
X58050000Y-49350000D03*
D14*
X55250000Y-46850000D03*
X54290000Y-46850000D03*
D26*
X43350000Y-42350000D03*
X42750000Y-42350000D03*
D22*
X50090000Y-42460000D03*
X51110000Y-42460000D03*
D20*
X47850000Y-54790000D03*
X47850000Y-55810000D03*
D13*
X61160000Y-58850000D03*
X60140000Y-58850000D03*
D22*
X44340000Y-47150000D03*
X45360000Y-47150000D03*
D13*
X49260000Y-45650000D03*
X48240000Y-45650000D03*
D24*
X41480000Y-43500000D03*
X41480000Y-42500000D03*
D25*
X37605000Y-44800000D03*
X37605000Y-41200000D03*
D22*
X50090000Y-54400000D03*
X51110000Y-54400000D03*
D27*
X59150000Y-42050000D03*
X53750000Y-42050000D03*
D13*
X51110000Y-57000000D03*
X50090000Y-57000000D03*
D28*
X53850000Y-37550000D03*
X53850000Y-38200000D03*
D22*
X45290000Y-55650000D03*
X46310000Y-55650000D03*
D16*
X57550000Y-56500000D03*
X58150000Y-56500000D03*
D13*
X61165000Y-44450000D03*
X60145000Y-44450000D03*
D29*
X44550000Y-59000000D03*
D30*
X41800000Y-46510000D03*
X41800000Y-45490000D03*
D27*
X59150000Y-49250000D03*
X53750000Y-49250000D03*
D31*
X55050000Y-59450000D03*
X55050000Y-55700000D03*
X56450000Y-59450000D03*
X56450000Y-58300000D03*
X55050000Y-58300000D03*
X56400000Y-56950000D03*
X55050000Y-57000000D03*
X56450000Y-55700000D03*
X56450000Y-54550000D03*
X56450000Y-52450000D03*
X55050000Y-51350000D03*
X56450000Y-51350000D03*
X56450000Y-50000000D03*
X55050000Y-50000000D03*
X55050000Y-48700000D03*
X56450000Y-48700000D03*
X56450000Y-47550000D03*
X56450000Y-45450000D03*
X55050000Y-44350000D03*
X56450000Y-44300000D03*
X56450000Y-40550000D03*
X55050000Y-43000000D03*
X56450000Y-43000000D03*
X56450000Y-41700000D03*
X55050000Y-41700000D03*
X50700000Y-57550000D03*
X58550000Y-60650000D03*
X49450000Y-45200000D03*
X57450000Y-46150000D03*
X58450000Y-39300000D03*
X49350000Y-41350000D03*
X42300000Y-57800000D03*
X55450000Y-45250000D03*
X39550000Y-49850000D03*
X55350000Y-47750000D03*
X38948342Y-44120808D03*
X44557370Y-56892630D03*
X39000000Y-41050000D03*
X47050000Y-55850000D03*
X41100000Y-45900000D03*
X39900000Y-52200000D03*
X38150000Y-51350000D03*
X47250000Y-43600000D03*
X41350000Y-46600000D03*
X40650000Y-46750000D03*
X47300000Y-44300000D03*
X40500000Y-50550000D03*
X38000000Y-55850000D03*
X46100000Y-54850000D03*
X47900000Y-43250000D03*
X46800000Y-54800000D03*
X49400000Y-42050000D03*
X49600000Y-43700000D03*
X48100000Y-54050000D03*
X39700000Y-42950000D03*
X43350000Y-41750000D03*
X53350000Y-37200000D03*
X53400000Y-62900000D03*
X46600000Y-40050000D03*
X46600000Y-39550000D03*
X38950000Y-50300000D03*
X49350000Y-55300000D03*
X45400000Y-39050000D03*
X44350000Y-60900000D03*
X43900000Y-39050000D03*
X46600000Y-59950000D03*
X47900000Y-42450000D03*
X53900000Y-62900000D03*
X43350000Y-60900000D03*
X41800000Y-58300000D03*
X46600000Y-40550000D03*
X46350000Y-60900000D03*
X46600000Y-59450000D03*
X53850000Y-37200000D03*
X54350000Y-37200000D03*
X39800000Y-55800000D03*
X47350000Y-58500000D03*
X42750000Y-54400000D03*
X54400000Y-62900000D03*
X43400000Y-39050000D03*
X44900000Y-39050000D03*
X44400000Y-39050000D03*
X48600000Y-62850000D03*
X45850000Y-60900000D03*
X51350000Y-46850000D03*
X43950000Y-45500000D03*
X44850000Y-60900000D03*
X45900000Y-39050000D03*
X40350000Y-40250000D03*
X48800000Y-57950000D03*
X43850000Y-60900000D03*
X46400000Y-39050000D03*
X45350000Y-60900000D03*
X45750000Y-54200000D03*
X37100000Y-40200000D03*
X39750000Y-57700000D03*
X50700000Y-58650000D03*
X50200000Y-45150000D03*
X47250000Y-37250000D03*
X39750000Y-53000000D03*
X47300000Y-62850000D03*
X39700000Y-50750000D03*
X46600000Y-60450000D03*
X45050000Y-43200000D03*
X48600000Y-37250000D03*
X46800000Y-45675000D03*
X46625000Y-48050000D03*
X43900000Y-42550000D03*
X43900000Y-43250000D03*
X49600000Y-56000000D03*
X43800000Y-47800000D03*
X49650000Y-56700000D03*
X43100000Y-47550000D03*
X57900000Y-46850000D03*
X52200000Y-47100000D03*
X52700000Y-52750000D03*
X57900000Y-53650000D03*
X50650000Y-55150000D03*
X59350000Y-59750000D03*
X52050000Y-45950000D03*
X59700000Y-46450000D03*
X47450000Y-51350000D03*
X51350000Y-52050000D03*
X59700000Y-53500000D03*
X59400000Y-59000000D03*
X47400000Y-52250000D03*
X51850000Y-43900000D03*
X52750000Y-43400000D03*
X52300000Y-42150000D03*
X51850000Y-43400000D03*
X53750000Y-44250000D03*
X52750000Y-44400000D03*
X52750000Y-41400000D03*
X52300000Y-43650000D03*
X52750000Y-42400000D03*
X52750000Y-42900000D03*
X52750000Y-40400000D03*
X52300000Y-44150000D03*
X52300000Y-42650000D03*
X53250000Y-44400000D03*
X51850000Y-42900000D03*
X52300000Y-41650000D03*
X51850000Y-40900000D03*
X52750000Y-40900000D03*
X51850000Y-41900000D03*
X51850000Y-40400000D03*
X51850000Y-42400000D03*
X52300000Y-41150000D03*
X52300000Y-43150000D03*
X52300000Y-40650000D03*
X51850000Y-41400000D03*
X52750000Y-41900000D03*
X53250000Y-43900000D03*
X52750000Y-43900000D03*
X46150000Y-47450000D03*
X43150000Y-56600000D03*
X53200000Y-50800000D03*
X51850000Y-48550000D03*
X52750000Y-50050000D03*
X53650000Y-51050000D03*
X52300000Y-49300000D03*
X52750000Y-51550000D03*
X52300000Y-51300000D03*
X52750000Y-50550000D03*
X52300000Y-48800000D03*
X53200000Y-48300000D03*
X52750000Y-51050000D03*
X53200000Y-51300000D03*
X52750000Y-48550000D03*
X52300000Y-50800000D03*
X52300000Y-50300000D03*
X53200000Y-47300000D03*
X52750000Y-48050000D03*
X52750000Y-49050000D03*
X52300000Y-48300000D03*
X53650000Y-47550000D03*
X53200000Y-49800000D03*
X53200000Y-50300000D03*
X52750000Y-49550000D03*
X53200000Y-47800000D03*
X53200000Y-48800000D03*
X52300000Y-49800000D03*
X52750000Y-47550000D03*
X53200000Y-49300000D03*
X52750000Y-57400000D03*
X52750000Y-57900000D03*
X51850000Y-57400000D03*
X52750000Y-56900000D03*
X51850000Y-54900000D03*
X52300000Y-56650000D03*
X51850000Y-54400000D03*
X52300000Y-55650000D03*
X52750000Y-58400000D03*
X53250000Y-58400000D03*
X52750000Y-55400000D03*
X52300000Y-57650000D03*
X52300000Y-55150000D03*
X52300000Y-56150000D03*
X52300000Y-57150000D03*
X51850000Y-55400000D03*
X53750000Y-58250000D03*
X52750000Y-56400000D03*
X51850000Y-57900000D03*
X53250000Y-57900000D03*
X52300000Y-54650000D03*
X51850000Y-55900000D03*
X51850000Y-56400000D03*
X52300000Y-58150000D03*
X51850000Y-56900000D03*
X52750000Y-55900000D03*
X52750000Y-54400000D03*
X52750000Y-54900000D03*
X40000000Y-49150000D03*
X50050000Y-52600000D03*
X40300000Y-44450000D03*
X40450000Y-42800000D03*
X45050000Y-52300000D03*
X44350000Y-52350000D03*
X47350000Y-50650000D03*
X40600000Y-56800000D03*
X41200000Y-53000000D03*
D32*
X51110000Y-57140000D02*
X50700000Y-57550000D01*
X51110000Y-57000000D02*
X51110000Y-57140000D01*
D33*
X58216332Y-60650000D02*
X57050000Y-59483668D01*
X57200000Y-56500000D02*
X57050000Y-56650000D01*
X57550000Y-56500000D02*
X57200000Y-56500000D01*
X57050000Y-56650000D02*
X57050000Y-59483668D01*
X58550000Y-60650000D02*
X58216332Y-60650000D01*
X57450000Y-46150000D02*
X57472182Y-46150000D01*
X57472182Y-46150000D02*
X57000000Y-46622182D01*
X49260000Y-45650000D02*
X49260000Y-45390000D01*
X57000000Y-46622182D02*
X57000000Y-48900000D01*
X57000000Y-48900000D02*
X57450000Y-49350000D01*
X49260000Y-45390000D02*
X49450000Y-45200000D01*
D32*
X57850000Y-39900000D02*
X58450000Y-39300000D01*
D33*
X57100000Y-41700000D02*
X57000000Y-41600000D01*
D32*
X49210000Y-41490000D02*
X49350000Y-41350000D01*
D33*
X57450000Y-41700000D02*
X57100000Y-41700000D01*
X57000000Y-41600000D02*
X57000000Y-39900000D01*
D32*
X48700000Y-41490000D02*
X49210000Y-41490000D01*
X57000000Y-39900000D02*
X57850000Y-39900000D01*
D34*
X62985000Y-43685000D02*
X61850000Y-42550000D01*
X62985000Y-44450000D02*
X62985000Y-43685000D01*
X63000000Y-51650000D02*
X63000000Y-50900000D01*
X63000000Y-50900000D02*
X61850000Y-49750000D01*
X62980000Y-58080000D02*
X61850000Y-56950000D01*
X62980000Y-58850000D02*
X62980000Y-58080000D01*
X54630000Y-39650000D02*
X54900000Y-39650000D01*
X53850000Y-38200000D02*
X56350000Y-38200000D01*
X54900000Y-39650000D02*
X56450000Y-38100000D01*
X56350000Y-38200000D02*
X56450000Y-38100000D01*
D32*
X49270000Y-47450000D02*
X49270000Y-48529999D01*
D34*
X41100000Y-45850000D02*
X42775000Y-44175000D01*
X44200000Y-49050000D02*
X44200000Y-48437315D01*
X42850000Y-50400000D02*
X44200000Y-49050000D01*
D32*
X49270000Y-48529999D02*
X49249999Y-48550000D01*
X47090000Y-55810000D02*
X47050000Y-55850000D01*
D34*
X49270000Y-47450000D02*
X48850000Y-47450000D01*
X48850000Y-47450000D02*
X47500000Y-46100000D01*
D32*
X47850000Y-55810000D02*
X47090000Y-55810000D01*
D34*
X44239950Y-43900000D02*
X43964950Y-44175000D01*
X43964950Y-44175000D02*
X42775000Y-44175000D01*
X45810050Y-43900000D02*
X44850000Y-43900000D01*
X47500000Y-46100000D02*
X47500000Y-45385050D01*
X47089950Y-44975000D02*
X46885050Y-44975000D01*
D32*
X42750000Y-50500000D02*
X42850000Y-50400000D01*
D34*
X45360000Y-47277315D02*
X45360000Y-47150000D01*
X44200000Y-48437315D02*
X45360000Y-47277315D01*
X39050000Y-51350000D02*
X38150000Y-51350000D01*
D32*
X42750000Y-50510000D02*
X42750000Y-50500000D01*
D34*
X45360000Y-47150000D02*
X45360000Y-44410000D01*
X41100000Y-45900000D02*
X41100000Y-45850000D01*
X39900000Y-52200000D02*
X39050000Y-51350000D01*
X47500000Y-45385050D02*
X47089950Y-44975000D01*
X45360000Y-44410000D02*
X44850000Y-43900000D01*
X46885050Y-44975000D02*
X45810050Y-43900000D01*
X44850000Y-43900000D02*
X44239950Y-43900000D01*
X41800000Y-46510000D02*
X42800000Y-46510000D01*
D32*
X47250000Y-43600000D02*
X47413173Y-43600000D01*
X41710000Y-46600000D02*
X41800000Y-46510000D01*
X47413173Y-43600000D02*
X48163173Y-44350000D01*
X41350000Y-46600000D02*
X41710000Y-46600000D01*
X48163173Y-44350000D02*
X50090000Y-44350000D01*
X48240000Y-45650000D02*
X48240000Y-45063223D01*
X47526777Y-44350000D02*
X47250000Y-44350000D01*
X48240000Y-45063223D02*
X47526777Y-44350000D01*
X47960000Y-43250000D02*
X48700000Y-42510000D01*
X47900000Y-43250000D02*
X47960000Y-43250000D01*
X49463173Y-42050000D02*
X50003173Y-41510000D01*
X46800000Y-55160000D02*
X46310000Y-55650000D01*
X50003173Y-41510000D02*
X50090000Y-41510000D01*
X49400000Y-42050000D02*
X49463173Y-42050000D01*
X47850000Y-54790000D02*
X46810000Y-54790000D01*
X46810000Y-54790000D02*
X46800000Y-54800000D01*
X46800000Y-54800000D02*
X46800000Y-55160000D01*
X50090000Y-54400000D02*
X48450000Y-54400000D01*
X49600000Y-43700000D02*
X49790000Y-43700000D01*
X49790000Y-43700000D02*
X50090000Y-43400000D01*
X48450000Y-54400000D02*
X48100000Y-54050000D01*
X50090000Y-42460000D02*
X50090000Y-43400000D01*
X48550000Y-50250000D02*
X49750000Y-50250000D01*
D34*
X44100000Y-45490000D02*
X44400000Y-45190000D01*
D32*
X49249999Y-50750001D02*
X50000000Y-50000000D01*
D34*
X41000000Y-51100000D02*
X41150000Y-50950000D01*
D32*
X50230000Y-48530000D02*
X50250000Y-48550000D01*
X45290000Y-54660000D02*
X45750000Y-54200000D01*
D34*
X41150000Y-50950000D02*
X41150000Y-50850000D01*
X40205000Y-51255000D02*
X40845000Y-51255000D01*
X40845000Y-51255000D02*
X41000000Y-51100000D01*
D32*
X49750000Y-50250000D02*
X50000000Y-50000000D01*
D34*
X42800000Y-45490000D02*
X44100000Y-45490000D01*
D32*
X41250000Y-50510000D02*
X41250000Y-50850000D01*
X50250000Y-48550000D02*
X50250000Y-49750000D01*
X51350000Y-46850000D02*
X50830000Y-46850000D01*
D34*
X42600000Y-54400000D02*
X42250000Y-54050000D01*
X39700000Y-50750000D02*
X40205000Y-51255000D01*
D32*
X45290000Y-55650000D02*
X45290000Y-54660000D01*
D34*
X42750000Y-54400000D02*
X42600000Y-54400000D01*
X42250000Y-54050000D02*
X41500000Y-54050000D01*
D32*
X49249999Y-51450000D02*
X49249999Y-50750001D01*
X50830000Y-46850000D02*
X50230000Y-47450000D01*
X50250000Y-49750000D02*
X50000000Y-50000000D01*
X50230000Y-47450000D02*
X50230000Y-48530000D01*
X46800000Y-47411827D02*
X46800000Y-45675000D01*
X43850000Y-54950000D02*
X43850000Y-53725431D01*
X46863173Y-48625000D02*
X47200000Y-48288173D01*
X45725000Y-49998330D02*
X45725000Y-49175000D01*
X47200000Y-48288173D02*
X47200000Y-47811827D01*
X46275000Y-48625000D02*
X46863173Y-48625000D01*
X47200000Y-47811827D02*
X46800000Y-47411827D01*
X43850000Y-53725431D02*
X43700000Y-53575431D01*
X45725000Y-49175000D02*
X46275000Y-48625000D01*
X42750000Y-56050000D02*
X43850000Y-54950000D01*
X41500000Y-56050000D02*
X42750000Y-56050000D01*
X43700000Y-53575431D02*
X43700000Y-52023330D01*
X43700000Y-52023330D02*
X45725000Y-49998330D01*
X43000000Y-55050000D02*
X43350000Y-54700000D01*
X46213604Y-48050000D02*
X46625000Y-48050000D01*
X43250000Y-51836934D02*
X45275000Y-49811934D01*
X45275000Y-49811934D02*
X45275000Y-48988604D01*
X43350000Y-54700000D02*
X43350000Y-53861827D01*
X41500000Y-55050000D02*
X43000000Y-55050000D01*
X43250000Y-53761827D02*
X43250000Y-51836934D01*
X43350000Y-53861827D02*
X43250000Y-53761827D01*
X45275000Y-48988604D02*
X46213604Y-48050000D01*
X43700000Y-42350000D02*
X43900000Y-42550000D01*
X43350000Y-42350000D02*
X43700000Y-42350000D01*
X43900000Y-43250000D02*
X43350000Y-43250000D01*
X50090000Y-56000000D02*
X49600000Y-56000000D01*
D34*
X43900000Y-47400000D02*
X43900000Y-46710000D01*
X43900000Y-46710000D02*
X44400000Y-46210000D01*
D32*
X49950000Y-57000000D02*
X49650000Y-56700000D01*
X50090000Y-57000000D02*
X49950000Y-57000000D01*
X46850000Y-51370000D02*
X47430000Y-51370000D01*
X47430000Y-51370000D02*
X47450000Y-51350000D01*
X47320000Y-52330000D02*
X47400000Y-52250000D01*
X46850000Y-52330000D02*
X47320000Y-52330000D01*
D34*
X62025000Y-44450000D02*
X61165000Y-44450000D01*
X62040000Y-51650000D02*
X61160000Y-51650000D01*
X62020000Y-58850000D02*
X61160000Y-58850000D01*
D32*
X53670000Y-41970000D02*
X53750000Y-42050000D01*
X53670000Y-39650000D02*
X53670000Y-41970000D01*
D33*
X53670000Y-39650000D02*
X53370000Y-39950000D01*
D32*
X51150000Y-40250000D02*
X51400000Y-40000000D01*
X51110000Y-42460000D02*
X51110000Y-41510000D01*
D33*
X53370000Y-39950000D02*
X51450000Y-39950000D01*
D32*
X51150000Y-41470000D02*
X51150000Y-40250000D01*
D33*
X51450000Y-39950000D02*
X51400000Y-40000000D01*
D32*
X51110000Y-41510000D02*
X51150000Y-41470000D01*
X42750000Y-51700538D02*
X44825000Y-49625538D01*
X44825000Y-48802208D02*
X46150000Y-47477208D01*
X46150000Y-47477208D02*
X46150000Y-47450000D01*
X44825000Y-49625538D02*
X44825000Y-48802208D01*
X45037630Y-56317630D02*
X43432370Y-56317630D01*
X43150000Y-56600000D02*
X43150000Y-57600000D01*
X43432370Y-56317630D02*
X43150000Y-56600000D01*
X43150000Y-57600000D02*
X44550000Y-59000000D01*
X45320000Y-56600000D02*
X45037630Y-56317630D01*
X54290000Y-48710000D02*
X53750000Y-49250000D01*
X51750000Y-45100000D02*
X51750000Y-44990000D01*
X54290000Y-46850000D02*
X53500000Y-46850000D01*
X51750000Y-44990000D02*
X51110000Y-44350000D01*
X52625000Y-45975000D02*
X52625000Y-45711827D01*
X53500000Y-46850000D02*
X52625000Y-45975000D01*
X52288173Y-45375000D02*
X52025000Y-45375000D01*
X51110000Y-43350000D02*
X51110000Y-44350000D01*
X52625000Y-45711827D02*
X52288173Y-45375000D01*
X52025000Y-45375000D02*
X51750000Y-45100000D01*
X54290000Y-46850000D02*
X54290000Y-48710000D01*
D33*
X51110000Y-54400000D02*
X51610000Y-53900000D01*
D32*
X51110000Y-55503173D02*
X51110000Y-56000000D01*
X54270000Y-53650000D02*
X54270000Y-55530000D01*
X51110000Y-54400000D02*
X51110000Y-54796827D01*
X51110000Y-54796827D02*
X51225000Y-54911827D01*
D33*
X54270000Y-55530000D02*
X53750000Y-56050000D01*
X54070000Y-53900000D02*
X51610000Y-53900000D01*
X54320000Y-53650000D02*
X54070000Y-53900000D01*
D32*
X51225000Y-55388173D02*
X51110000Y-55503173D01*
X51225000Y-54911827D02*
X51225000Y-55388173D01*
X50750001Y-51899999D02*
X50050000Y-52600000D01*
X50750001Y-51450000D02*
X50750001Y-51899999D01*
X40463604Y-48500000D02*
X39200000Y-47236396D01*
X41750000Y-48770000D02*
X41480000Y-48500000D01*
X41750000Y-50510000D02*
X41750000Y-48770000D01*
X39200000Y-44682323D02*
X40382323Y-43500000D01*
X42750000Y-43250000D02*
X41730000Y-43250000D01*
X41730000Y-43250000D02*
X41480000Y-43500000D01*
X41480000Y-48500000D02*
X40463604Y-48500000D01*
X39200000Y-47236396D02*
X39200000Y-44682323D01*
X40382323Y-43500000D02*
X41480000Y-43500000D01*
X42050000Y-47500000D02*
X42700000Y-48150000D01*
D34*
X40450000Y-42800000D02*
X40750000Y-42500000D01*
D32*
X42250000Y-49350000D02*
X42250000Y-50510000D01*
X40475000Y-47875000D02*
X39650000Y-47050000D01*
X39650000Y-45100000D02*
X40300000Y-44450000D01*
X42750000Y-42350000D02*
X41630000Y-42350000D01*
X42700000Y-48900000D02*
X42250000Y-49350000D01*
X39650000Y-47050000D02*
X39650000Y-45100000D01*
D34*
X40750000Y-42500000D02*
X41480000Y-42500000D01*
D32*
X41630000Y-42350000D02*
X41480000Y-42500000D01*
X41480000Y-47500000D02*
X41105000Y-47875000D01*
X41480000Y-47500000D02*
X42050000Y-47500000D01*
X42700000Y-48150000D02*
X42700000Y-48900000D01*
X41105000Y-47875000D02*
X40475000Y-47875000D01*
X45050000Y-52460000D02*
X45990000Y-53400000D01*
X50825000Y-52625000D02*
X50625000Y-52825000D01*
X50625000Y-52825000D02*
X50625000Y-52838173D01*
X50625000Y-52838173D02*
X50063173Y-53400000D01*
X51450000Y-50750001D02*
X51450000Y-51336827D01*
X51950000Y-52263173D02*
X51588173Y-52625000D01*
X45050000Y-52300000D02*
X45050000Y-52460000D01*
X51450000Y-51336827D02*
X51950000Y-51836827D01*
X51950000Y-51836827D02*
X51950000Y-52263173D01*
X51588173Y-52625000D02*
X50825000Y-52625000D01*
X50063173Y-53400000D02*
X45990000Y-53400000D01*
X44350000Y-52050000D02*
X44800000Y-51600000D01*
X44800000Y-51600000D02*
X45515000Y-51600000D01*
X46215000Y-52662609D02*
X46502391Y-52950000D01*
X49750000Y-52082599D02*
X49750000Y-51450000D01*
X46502391Y-52950000D02*
X48882599Y-52950000D01*
X44350000Y-52350000D02*
X44350000Y-52050000D01*
X45515000Y-51600000D02*
X46215000Y-52300000D01*
X48882599Y-52950000D02*
X49750000Y-52082599D01*
X46215000Y-52300000D02*
X46215000Y-52662609D01*
X47917401Y-49249999D02*
X48550000Y-49249999D01*
X47350000Y-50650000D02*
X47350000Y-49817400D01*
X47350000Y-49817400D02*
X47917401Y-49249999D01*
X41250000Y-56800000D02*
X41500000Y-57050000D01*
X40600000Y-56800000D02*
X41250000Y-56800000D01*
X40600000Y-56800000D02*
X40400000Y-56600000D01*
X40400000Y-56600000D02*
X40400000Y-52840000D01*
X40400000Y-52840000D02*
X41250000Y-51990000D01*
X42250000Y-51990000D02*
X41750000Y-51990000D01*
X41750000Y-52450000D02*
X41750000Y-51990000D01*
X41200000Y-53000000D02*
X41750000Y-52450000D01*
G04 #@! TA.AperFunction,Conductor*
G36*
X54542121Y-47070002D02*
G01*
X54588614Y-47123658D01*
X54600000Y-47176000D01*
X54600000Y-48651940D01*
X54598500Y-48671325D01*
X54596282Y-48685567D01*
X54596282Y-48685571D01*
X54594901Y-48694440D01*
X54596065Y-48703342D01*
X54596065Y-48703345D01*
X54598936Y-48725296D01*
X54600000Y-48741634D01*
X54600000Y-49951940D01*
X54598500Y-49971325D01*
X54596282Y-49985567D01*
X54596282Y-49985571D01*
X54594901Y-49994440D01*
X54596065Y-50003342D01*
X54596065Y-50003345D01*
X54598936Y-50025296D01*
X54600000Y-50041634D01*
X54600000Y-51301940D01*
X54598500Y-51321325D01*
X54596282Y-51335567D01*
X54596282Y-51335571D01*
X54594901Y-51344440D01*
X54596065Y-51353342D01*
X54596065Y-51353345D01*
X54598936Y-51375296D01*
X54600000Y-51391634D01*
X54600000Y-51524000D01*
X54579998Y-51592121D01*
X54526342Y-51638614D01*
X54474000Y-51650000D01*
X52279597Y-51650000D01*
X52211476Y-51629998D01*
X52198606Y-51620522D01*
X52174319Y-51600143D01*
X52166215Y-51592716D01*
X51842457Y-51268958D01*
X51808431Y-51206646D01*
X51813496Y-51135831D01*
X51856043Y-51078995D01*
X51876552Y-51067316D01*
X51883831Y-51065868D01*
X51950152Y-51021553D01*
X51994467Y-50955232D01*
X52006100Y-50896749D01*
X52006100Y-50603253D01*
X51994467Y-50544770D01*
X51992605Y-50541983D01*
X51985684Y-50477634D01*
X51990534Y-50461117D01*
X51994467Y-50455231D01*
X52006100Y-50396748D01*
X52006100Y-50103252D01*
X51994467Y-50044769D01*
X51992605Y-50041982D01*
X51985686Y-49977628D01*
X51990534Y-49961117D01*
X51994467Y-49955231D01*
X52006100Y-49896748D01*
X52006100Y-49603252D01*
X51994467Y-49544769D01*
X51992604Y-49541981D01*
X51985685Y-49477630D01*
X51990534Y-49461116D01*
X51994467Y-49455230D01*
X52006100Y-49396747D01*
X52006100Y-49103251D01*
X51994467Y-49044768D01*
X51950152Y-48978447D01*
X51883831Y-48934132D01*
X51871662Y-48931711D01*
X51871661Y-48931711D01*
X51831416Y-48923706D01*
X51825348Y-48922499D01*
X51676000Y-48922499D01*
X51607879Y-48902497D01*
X51561386Y-48848841D01*
X51550000Y-48796499D01*
X51550000Y-48226000D01*
X51570002Y-48157879D01*
X51623658Y-48111386D01*
X51676000Y-48100000D01*
X52450000Y-48100000D01*
X52450000Y-47541491D01*
X52470002Y-47473370D01*
X52490299Y-47450440D01*
X52490724Y-47450179D01*
X52524100Y-47413305D01*
X52571300Y-47361161D01*
X52571303Y-47361157D01*
X52577322Y-47354507D01*
X52633588Y-47238375D01*
X52647599Y-47155095D01*
X52678626Y-47091237D01*
X52739252Y-47054291D01*
X52771853Y-47050000D01*
X54474000Y-47050000D01*
X54542121Y-47070002D01*
G37*
G04 #@! TD.AperFunction*
G04 #@! TA.AperFunction,Conductor*
G36*
X54442121Y-54170002D02*
G01*
X54488614Y-54223658D01*
X54500000Y-54276000D01*
X54500000Y-58524000D01*
X54479998Y-58592121D01*
X54426342Y-58638614D01*
X54374000Y-58650000D01*
X51726000Y-58650000D01*
X51657879Y-58629998D01*
X51611386Y-58576342D01*
X51600000Y-58524000D01*
X51600000Y-54276000D01*
X51620002Y-54207879D01*
X51673658Y-54161386D01*
X51726000Y-54150000D01*
X54374000Y-54150000D01*
X54442121Y-54170002D01*
G37*
G04 #@! TD.AperFunction*
G04 #@! TA.AperFunction,Conductor*
G36*
X54442121Y-40170002D02*
G01*
X54488614Y-40223658D01*
X54500000Y-40276000D01*
X54500000Y-44524000D01*
X54479998Y-44592121D01*
X54426342Y-44638614D01*
X54374000Y-44650000D01*
X51922516Y-44650000D01*
X51854395Y-44629998D01*
X51833421Y-44613095D01*
X51636905Y-44416579D01*
X51602879Y-44354267D01*
X51600000Y-44327484D01*
X51600000Y-40276000D01*
X51620002Y-40207879D01*
X51673658Y-40161386D01*
X51726000Y-40150000D01*
X54374000Y-40150000D01*
X54442121Y-40170002D01*
G37*
G04 #@! TD.AperFunction*
G04 #@! TA.AperFunction,Conductor*
G36*
X51242121Y-36720502D02*
G01*
X51288614Y-36774158D01*
X51300000Y-36826500D01*
X51300000Y-39607068D01*
X51279998Y-39675189D01*
X51246269Y-39710282D01*
X51194480Y-39746544D01*
X51194474Y-39746549D01*
X51189971Y-39749702D01*
X51186081Y-39753592D01*
X50933778Y-40005896D01*
X50925674Y-40013322D01*
X50896806Y-40037545D01*
X50891293Y-40047094D01*
X50877961Y-40070185D01*
X50872055Y-40079456D01*
X50850446Y-40110316D01*
X50847592Y-40120966D01*
X50846115Y-40124134D01*
X50844923Y-40127410D01*
X50839412Y-40136955D01*
X50833462Y-40170699D01*
X50832870Y-40174058D01*
X50830492Y-40184785D01*
X50820736Y-40221193D01*
X50821697Y-40232178D01*
X50821697Y-40232180D01*
X50824020Y-40258728D01*
X50824500Y-40269710D01*
X50824500Y-40951239D01*
X50804498Y-41019360D01*
X50779270Y-41045609D01*
X50779596Y-41045935D01*
X50695935Y-41129596D01*
X50695247Y-41128908D01*
X50647753Y-41166869D01*
X50577133Y-41174177D01*
X50513774Y-41142144D01*
X50505421Y-41132504D01*
X50504065Y-41129596D01*
X50420404Y-41045935D01*
X50390246Y-41031872D01*
X50321910Y-41000006D01*
X50321909Y-41000006D01*
X50313173Y-40995932D01*
X50264316Y-40989500D01*
X49915684Y-40989500D01*
X49866827Y-40995932D01*
X49858091Y-41000006D01*
X49858090Y-41000006D01*
X49789754Y-41031872D01*
X49719563Y-41042533D01*
X49654236Y-41012881D01*
X49649193Y-41007028D01*
X49540906Y-40936841D01*
X49532311Y-40934271D01*
X49532310Y-40934270D01*
X49425874Y-40902438D01*
X49425872Y-40902438D01*
X49417273Y-40899866D01*
X49408298Y-40899811D01*
X49408297Y-40899811D01*
X49353641Y-40899477D01*
X49288231Y-40899078D01*
X49276475Y-40902438D01*
X49172786Y-40932072D01*
X49172784Y-40932073D01*
X49164155Y-40934539D01*
X49055019Y-41003399D01*
X49053761Y-41001405D01*
X49000619Y-41025112D01*
X48967339Y-41025164D01*
X48924316Y-41019500D01*
X48475684Y-41019500D01*
X48426827Y-41025932D01*
X48418091Y-41030006D01*
X48418090Y-41030006D01*
X48329589Y-41071275D01*
X48319596Y-41075935D01*
X48235935Y-41159596D01*
X48231275Y-41169588D01*
X48231275Y-41169589D01*
X48218750Y-41196450D01*
X48185932Y-41266827D01*
X48179500Y-41315684D01*
X48179500Y-41664316D01*
X48185932Y-41713173D01*
X48235935Y-41820404D01*
X48319596Y-41904065D01*
X48318908Y-41904753D01*
X48356869Y-41952247D01*
X48364177Y-42022867D01*
X48332144Y-42086226D01*
X48322504Y-42094579D01*
X48319596Y-42095935D01*
X48235935Y-42179596D01*
X48231275Y-42189588D01*
X48231275Y-42189589D01*
X48209781Y-42235684D01*
X48185932Y-42286827D01*
X48179500Y-42335684D01*
X48179500Y-42517984D01*
X48159498Y-42586105D01*
X48142595Y-42607079D01*
X47987138Y-42762536D01*
X47924826Y-42796562D01*
X47897277Y-42799439D01*
X47838231Y-42799078D01*
X47800114Y-42809972D01*
X47722786Y-42832072D01*
X47722784Y-42832073D01*
X47714155Y-42834539D01*
X47706565Y-42839328D01*
X47615838Y-42896573D01*
X47605019Y-42903399D01*
X47599076Y-42910128D01*
X47599075Y-42910129D01*
X47564376Y-42949418D01*
X47519596Y-43000122D01*
X47515782Y-43008245D01*
X47515781Y-43008247D01*
X47479177Y-43086211D01*
X47432120Y-43139373D01*
X47363792Y-43158655D01*
X47329021Y-43153379D01*
X47317273Y-43149866D01*
X47308298Y-43149811D01*
X47308297Y-43149811D01*
X47253641Y-43149477D01*
X47188231Y-43149078D01*
X47154722Y-43158655D01*
X47072786Y-43182072D01*
X47072784Y-43182073D01*
X47064155Y-43184539D01*
X46955019Y-43253399D01*
X46949076Y-43260128D01*
X46949075Y-43260129D01*
X46918341Y-43294929D01*
X46869596Y-43350122D01*
X46865782Y-43358245D01*
X46865781Y-43358247D01*
X46855793Y-43379521D01*
X46814754Y-43466932D01*
X46808904Y-43504507D01*
X46796282Y-43585567D01*
X46796282Y-43585571D01*
X46794901Y-43594440D01*
X46796065Y-43603342D01*
X46796065Y-43603345D01*
X46810468Y-43713489D01*
X46810469Y-43713493D01*
X46811633Y-43722394D01*
X46815250Y-43730614D01*
X46854470Y-43819748D01*
X46863605Y-43840510D01*
X46912805Y-43899041D01*
X46941325Y-43964054D01*
X46930169Y-44034169D01*
X46924003Y-44045132D01*
X46919596Y-44050122D01*
X46915783Y-44058243D01*
X46915780Y-44058248D01*
X46892879Y-44107027D01*
X46845823Y-44160190D01*
X46777495Y-44179472D01*
X46709589Y-44158753D01*
X46689729Y-44142575D01*
X46152798Y-43605645D01*
X46142943Y-43594555D01*
X46135857Y-43585567D01*
X46121922Y-43567890D01*
X46114175Y-43562535D01*
X46114173Y-43562534D01*
X46073675Y-43534545D01*
X46070453Y-43532243D01*
X46030808Y-43502960D01*
X46030807Y-43502959D01*
X46023234Y-43497366D01*
X46016418Y-43494973D01*
X46010481Y-43490869D01*
X46001501Y-43488029D01*
X46001499Y-43488028D01*
X45981333Y-43481650D01*
X45954531Y-43473174D01*
X45950800Y-43471929D01*
X45904313Y-43455604D01*
X45904311Y-43455604D01*
X45895419Y-43452481D01*
X45888231Y-43452199D01*
X45888172Y-43452188D01*
X45881320Y-43450020D01*
X45874713Y-43449500D01*
X45822034Y-43449500D01*
X45817087Y-43449403D01*
X45760056Y-43447162D01*
X45752950Y-43449046D01*
X45744703Y-43449500D01*
X44861984Y-43449500D01*
X44857037Y-43449403D01*
X44800006Y-43447162D01*
X44792900Y-43449046D01*
X44784653Y-43449500D01*
X44472273Y-43449500D01*
X44404152Y-43429498D01*
X44357659Y-43375842D01*
X44348019Y-43302595D01*
X44354190Y-43265914D01*
X44354997Y-43261120D01*
X44355133Y-43250000D01*
X44347181Y-43194473D01*
X44338112Y-43131145D01*
X44338111Y-43131142D01*
X44336839Y-43122259D01*
X44331491Y-43110497D01*
X44287145Y-43012962D01*
X44287143Y-43012959D01*
X44283428Y-43004788D01*
X44264677Y-42983026D01*
X44235364Y-42918363D01*
X44245664Y-42848117D01*
X44266714Y-42816227D01*
X44277322Y-42804507D01*
X44333588Y-42688375D01*
X44335705Y-42675795D01*
X44354190Y-42565917D01*
X44354997Y-42561120D01*
X44355133Y-42550000D01*
X44343347Y-42467700D01*
X44338112Y-42431145D01*
X44338111Y-42431142D01*
X44336839Y-42422259D01*
X44297476Y-42335684D01*
X44287145Y-42312962D01*
X44287143Y-42312959D01*
X44283428Y-42304788D01*
X44257625Y-42274842D01*
X44205051Y-42213826D01*
X44205049Y-42213824D01*
X44199193Y-42207028D01*
X44090906Y-42136841D01*
X44082311Y-42134271D01*
X44082310Y-42134270D01*
X43975874Y-42102438D01*
X43975872Y-42102438D01*
X43967273Y-42099866D01*
X43958298Y-42099811D01*
X43958297Y-42099811D01*
X43953212Y-42099780D01*
X43950573Y-42099764D01*
X43888340Y-42082883D01*
X43879812Y-42077959D01*
X43870544Y-42072055D01*
X43848715Y-42056770D01*
X43839684Y-42050446D01*
X43829034Y-42047592D01*
X43825866Y-42046115D01*
X43822590Y-42044923D01*
X43813045Y-42039412D01*
X43779301Y-42033462D01*
X43775942Y-42032870D01*
X43765215Y-42030492D01*
X43728807Y-42020736D01*
X43717822Y-42021697D01*
X43717820Y-42021697D01*
X43691272Y-42024020D01*
X43680290Y-42024500D01*
X43321525Y-42024500D01*
X43321523Y-42024501D01*
X43286917Y-42024501D01*
X43237116Y-42009878D01*
X43235507Y-42013491D01*
X43208550Y-42001489D01*
X43196799Y-41995501D01*
X43182710Y-41987367D01*
X43182709Y-41987367D01*
X43171240Y-41980745D01*
X43159927Y-41979556D01*
X43158322Y-41979126D01*
X43147932Y-41974500D01*
X43118425Y-41974500D01*
X43105255Y-41973810D01*
X43089073Y-41972109D01*
X43089072Y-41972109D01*
X43075902Y-41970725D01*
X43065161Y-41974215D01*
X43059722Y-41974500D01*
X43018425Y-41974500D01*
X43005255Y-41973810D01*
X42989073Y-41972109D01*
X42989072Y-41972109D01*
X42975902Y-41970725D01*
X42947830Y-41979846D01*
X42935095Y-41983258D01*
X42906232Y-41989393D01*
X42897031Y-41996078D01*
X42895547Y-41996834D01*
X42884731Y-42000348D01*
X42876234Y-42007999D01*
X42814643Y-42024500D01*
X42384238Y-42024500D01*
X42340095Y-42015720D01*
X42333231Y-42011133D01*
X42274748Y-41999500D01*
X40685252Y-41999500D01*
X40679184Y-42000707D01*
X40638939Y-42008712D01*
X40638938Y-42008712D01*
X40626769Y-42011133D01*
X40616453Y-42018026D01*
X40574416Y-42046115D01*
X40560448Y-42055448D01*
X40544378Y-42079498D01*
X40508197Y-42110864D01*
X40510204Y-42113817D01*
X40502409Y-42119115D01*
X40493921Y-42123191D01*
X40488636Y-42128076D01*
X40488586Y-42128110D01*
X40482212Y-42131421D01*
X40477172Y-42135725D01*
X40439945Y-42172952D01*
X40436380Y-42176381D01*
X40394444Y-42215146D01*
X40390751Y-42221505D01*
X40385234Y-42227663D01*
X40177111Y-42435786D01*
X40168999Y-42442267D01*
X40169446Y-42442792D01*
X40162613Y-42448607D01*
X40155019Y-42453399D01*
X40142389Y-42467700D01*
X40123738Y-42488818D01*
X40118392Y-42494505D01*
X40107513Y-42505384D01*
X40104717Y-42509170D01*
X40104708Y-42509180D01*
X40102633Y-42511990D01*
X40095727Y-42520534D01*
X40069596Y-42550122D01*
X40065778Y-42558253D01*
X40063999Y-42560962D01*
X40053693Y-42578249D01*
X40052963Y-42579237D01*
X40052961Y-42579241D01*
X40047366Y-42586816D01*
X40034630Y-42623083D01*
X40029813Y-42634857D01*
X40014754Y-42666932D01*
X40012967Y-42678406D01*
X40007353Y-42700755D01*
X40007198Y-42701197D01*
X40002481Y-42714631D01*
X40002111Y-42724041D01*
X40002111Y-42724042D01*
X40001130Y-42749006D01*
X39999727Y-42763442D01*
X39996282Y-42785566D01*
X39996282Y-42785571D01*
X39994901Y-42794440D01*
X39996065Y-42803342D01*
X39996065Y-42803344D01*
X39996932Y-42809972D01*
X39997898Y-42831249D01*
X39997162Y-42849994D01*
X39999576Y-42859096D01*
X39999576Y-42859100D01*
X40004945Y-42879346D01*
X40008091Y-42895305D01*
X40010469Y-42913496D01*
X40010470Y-42913500D01*
X40011633Y-42922394D01*
X40015246Y-42930606D01*
X40015247Y-42930608D01*
X40019574Y-42940441D01*
X40026037Y-42958896D01*
X40028980Y-42969994D01*
X40031881Y-42980937D01*
X40044558Y-43001264D01*
X40045818Y-43003285D01*
X40054232Y-43019210D01*
X40063605Y-43040510D01*
X40069380Y-43047380D01*
X40078902Y-43058708D01*
X40089362Y-43073105D01*
X40097536Y-43086211D01*
X40103567Y-43095882D01*
X40120382Y-43110473D01*
X40120409Y-43110497D01*
X40134439Y-43124778D01*
X40134583Y-43124950D01*
X40162976Y-43190022D01*
X40151681Y-43260114D01*
X40127067Y-43294929D01*
X39525381Y-43896615D01*
X39463069Y-43930641D01*
X39392254Y-43925576D01*
X39335418Y-43883029D01*
X39334637Y-43881901D01*
X39331770Y-43875596D01*
X39322785Y-43865168D01*
X39253393Y-43784634D01*
X39253391Y-43784632D01*
X39247535Y-43777836D01*
X39139248Y-43707649D01*
X39130653Y-43705079D01*
X39130652Y-43705078D01*
X39024216Y-43673246D01*
X39024214Y-43673246D01*
X39015615Y-43670674D01*
X39006640Y-43670619D01*
X39006639Y-43670619D01*
X38951983Y-43670285D01*
X38886573Y-43669886D01*
X38874817Y-43673246D01*
X38771128Y-43702880D01*
X38771126Y-43702881D01*
X38762497Y-43705347D01*
X38653361Y-43774207D01*
X38647418Y-43780936D01*
X38647417Y-43780937D01*
X38603547Y-43830611D01*
X38567938Y-43870930D01*
X38564124Y-43879053D01*
X38564123Y-43879055D01*
X38561967Y-43883648D01*
X38513096Y-43987740D01*
X38506308Y-44031335D01*
X38494624Y-44106375D01*
X38494624Y-44106379D01*
X38493243Y-44115248D01*
X38494407Y-44124150D01*
X38494407Y-44124153D01*
X38508810Y-44234297D01*
X38508811Y-44234301D01*
X38509975Y-44243202D01*
X38561947Y-44361318D01*
X38644981Y-44460099D01*
X38752402Y-44531604D01*
X38760972Y-44534281D01*
X38760973Y-44534282D01*
X38783056Y-44541181D01*
X38842113Y-44580586D01*
X38870491Y-44645665D01*
X38870641Y-44653524D01*
X38870736Y-44653516D01*
X38874020Y-44691051D01*
X38874500Y-44702033D01*
X38874500Y-47216686D01*
X38874020Y-47227668D01*
X38870736Y-47265203D01*
X38880093Y-47300122D01*
X38880491Y-47301606D01*
X38882870Y-47312338D01*
X38889412Y-47349441D01*
X38894923Y-47358986D01*
X38896115Y-47362262D01*
X38897592Y-47365430D01*
X38900446Y-47376080D01*
X38906770Y-47385111D01*
X38922055Y-47406940D01*
X38927961Y-47416211D01*
X38941293Y-47439302D01*
X38946806Y-47448851D01*
X38955251Y-47455937D01*
X38975682Y-47473081D01*
X38983785Y-47480507D01*
X39992243Y-48488965D01*
X40026269Y-48551277D01*
X40021204Y-48622092D01*
X39978657Y-48678928D01*
X39937772Y-48699209D01*
X39822788Y-48732071D01*
X39822784Y-48732073D01*
X39814155Y-48734539D01*
X39705019Y-48803399D01*
X39699076Y-48810128D01*
X39699075Y-48810129D01*
X39637961Y-48879328D01*
X39619596Y-48900122D01*
X39615782Y-48908245D01*
X39615781Y-48908247D01*
X39601150Y-48939411D01*
X39564754Y-49016932D01*
X39557340Y-49064552D01*
X39546282Y-49135567D01*
X39546282Y-49135571D01*
X39544901Y-49144440D01*
X39560881Y-49266641D01*
X39549881Y-49336778D01*
X39502707Y-49389836D01*
X39470570Y-49404125D01*
X39449367Y-49410185D01*
X39372788Y-49432071D01*
X39372784Y-49432073D01*
X39364155Y-49434539D01*
X39356565Y-49439328D01*
X39275127Y-49490712D01*
X39255019Y-49503399D01*
X39249076Y-49510128D01*
X39249075Y-49510129D01*
X39207731Y-49556942D01*
X39169596Y-49600122D01*
X39165782Y-49608245D01*
X39165781Y-49608247D01*
X39139794Y-49663598D01*
X39114754Y-49716932D01*
X39105626Y-49775558D01*
X39096282Y-49835567D01*
X39096282Y-49835571D01*
X39094901Y-49844440D01*
X39096065Y-49853342D01*
X39096065Y-49853345D01*
X39110468Y-49963489D01*
X39110469Y-49963493D01*
X39111633Y-49972394D01*
X39163605Y-50090510D01*
X39169382Y-50097383D01*
X39169383Y-50097384D01*
X39198541Y-50132072D01*
X39246639Y-50189291D01*
X39354060Y-50260796D01*
X39442938Y-50288564D01*
X39458400Y-50293394D01*
X39477233Y-50299278D01*
X39486203Y-50299442D01*
X39486207Y-50299443D01*
X39544942Y-50300519D01*
X39606255Y-50301643D01*
X39668505Y-50284671D01*
X39722092Y-50270062D01*
X39722093Y-50270062D01*
X39730755Y-50267700D01*
X39738405Y-50263003D01*
X39738407Y-50263002D01*
X39833072Y-50204878D01*
X39833075Y-50204875D01*
X39840724Y-50200179D01*
X39846750Y-50193522D01*
X39921300Y-50111161D01*
X39921303Y-50111157D01*
X39927322Y-50104507D01*
X39983588Y-49988375D01*
X39985230Y-49978618D01*
X40004190Y-49865917D01*
X40004997Y-49861120D01*
X40005133Y-49850000D01*
X39988598Y-49734543D01*
X39998740Y-49664276D01*
X40045263Y-49610646D01*
X40080181Y-49595120D01*
X40145958Y-49577187D01*
X40172093Y-49570062D01*
X40172096Y-49570061D01*
X40180755Y-49567700D01*
X40188405Y-49563003D01*
X40188407Y-49563002D01*
X40283072Y-49504878D01*
X40283075Y-49504875D01*
X40290724Y-49500179D01*
X40296750Y-49493522D01*
X40371300Y-49411161D01*
X40371303Y-49411157D01*
X40377322Y-49404507D01*
X40433588Y-49288375D01*
X40454997Y-49161120D01*
X40455133Y-49150000D01*
X40450727Y-49119235D01*
X40460869Y-49048967D01*
X40507392Y-48995337D01*
X40575524Y-48975373D01*
X40619761Y-48984184D01*
X40626769Y-48988867D01*
X40685252Y-49000500D01*
X41298500Y-49000500D01*
X41366621Y-49020502D01*
X41413114Y-49074158D01*
X41424500Y-49126500D01*
X41424500Y-50083256D01*
X41416474Y-50123609D01*
X41414034Y-50127260D01*
X41399500Y-50200326D01*
X41399500Y-50819674D01*
X41414034Y-50892740D01*
X41420928Y-50903057D01*
X41420928Y-50903058D01*
X41427672Y-50913151D01*
X41469399Y-50975601D01*
X41552260Y-51030966D01*
X41625326Y-51045500D01*
X41874674Y-51045500D01*
X41947740Y-51030966D01*
X41954624Y-51026366D01*
X42022370Y-51019082D01*
X42043962Y-51025422D01*
X42052260Y-51030966D01*
X42125326Y-51045500D01*
X42374674Y-51045500D01*
X42447740Y-51030966D01*
X42454624Y-51026366D01*
X42522370Y-51019082D01*
X42543962Y-51025422D01*
X42552260Y-51030966D01*
X42625326Y-51045500D01*
X42640522Y-51045500D01*
X42708643Y-51065502D01*
X42755136Y-51119158D01*
X42765240Y-51189432D01*
X42735746Y-51254012D01*
X42729617Y-51260595D01*
X42556617Y-51433595D01*
X42494305Y-51467621D01*
X42442941Y-51468079D01*
X42380743Y-51455707D01*
X42380741Y-51455707D01*
X42374674Y-51454500D01*
X42125326Y-51454500D01*
X42052260Y-51469034D01*
X42045376Y-51473634D01*
X41977630Y-51480918D01*
X41956038Y-51474578D01*
X41947740Y-51469034D01*
X41874674Y-51454500D01*
X41625326Y-51454500D01*
X41552260Y-51469034D01*
X41545376Y-51473634D01*
X41477630Y-51480918D01*
X41456038Y-51474578D01*
X41447740Y-51469034D01*
X41374674Y-51454500D01*
X41125326Y-51454500D01*
X41052260Y-51469034D01*
X41041943Y-51475928D01*
X41041942Y-51475928D01*
X41036557Y-51479526D01*
X40969399Y-51524399D01*
X40914034Y-51607260D01*
X40899500Y-51680326D01*
X40899500Y-51827984D01*
X40879498Y-51896105D01*
X40862595Y-51917079D01*
X40562095Y-52217579D01*
X40499783Y-52251605D01*
X40428968Y-52246540D01*
X40372132Y-52203993D01*
X40349050Y-52151118D01*
X40346608Y-52137748D01*
X40345230Y-52130200D01*
X40344454Y-52125431D01*
X40338112Y-52081147D01*
X40338112Y-52081146D01*
X40336839Y-52072259D01*
X40333885Y-52065762D01*
X40333376Y-52063614D01*
X40332718Y-52061692D01*
X40331026Y-52052427D01*
X40317510Y-52026407D01*
X40306847Y-52005878D01*
X40303962Y-51999949D01*
X40287143Y-51962958D01*
X40287142Y-51962956D01*
X40283428Y-51954788D01*
X40277571Y-51947990D01*
X40276394Y-51946150D01*
X40272805Y-51939942D01*
X40271890Y-51938585D01*
X40268580Y-51932212D01*
X40264276Y-51927172D01*
X40234026Y-51896922D01*
X40227668Y-51890075D01*
X40205053Y-51863829D01*
X40199193Y-51857028D01*
X40191659Y-51852145D01*
X40184894Y-51846244D01*
X40185030Y-51846088D01*
X40175401Y-51838298D01*
X39392752Y-51055649D01*
X39382897Y-51044560D01*
X39367703Y-51025287D01*
X39361872Y-51017890D01*
X39354125Y-51012535D01*
X39354123Y-51012534D01*
X39313625Y-50984545D01*
X39310403Y-50982243D01*
X39270758Y-50952960D01*
X39270757Y-50952959D01*
X39263184Y-50947366D01*
X39256368Y-50944973D01*
X39250431Y-50940869D01*
X39241451Y-50938029D01*
X39241449Y-50938028D01*
X39221283Y-50931650D01*
X39194481Y-50923174D01*
X39190750Y-50921929D01*
X39144263Y-50905604D01*
X39144261Y-50905604D01*
X39135369Y-50902481D01*
X39128181Y-50902199D01*
X39128122Y-50902188D01*
X39121270Y-50900020D01*
X39114663Y-50899500D01*
X39061984Y-50899500D01*
X39057037Y-50899403D01*
X39000006Y-50897162D01*
X38992900Y-50899046D01*
X38984653Y-50899500D01*
X38157778Y-50899500D01*
X38157009Y-50899498D01*
X38088231Y-50899078D01*
X38079607Y-50901543D01*
X38079604Y-50901543D01*
X38061963Y-50906585D01*
X38046074Y-50910035D01*
X38025347Y-50913151D01*
X38025345Y-50913152D01*
X38016038Y-50914551D01*
X38007553Y-50918625D01*
X38007548Y-50918627D01*
X37999132Y-50922669D01*
X37979217Y-50930235D01*
X37964155Y-50934539D01*
X37937616Y-50951284D01*
X37924941Y-50958295D01*
X37893921Y-50973191D01*
X37887002Y-50979587D01*
X37883127Y-50983169D01*
X37864835Y-50997206D01*
X37855019Y-51003399D01*
X37832901Y-51028444D01*
X37831577Y-51029943D01*
X37822664Y-51039060D01*
X37810407Y-51050390D01*
X37794444Y-51065146D01*
X37789101Y-51074346D01*
X37777319Y-51090682D01*
X37775536Y-51093396D01*
X37769596Y-51100122D01*
X37760659Y-51119158D01*
X37752821Y-51135851D01*
X37747721Y-51145586D01*
X37745116Y-51150072D01*
X37726404Y-51182287D01*
X37724278Y-51191460D01*
X37721749Y-51197847D01*
X37720951Y-51200151D01*
X37721193Y-51200225D01*
X37718570Y-51208804D01*
X37714754Y-51216932D01*
X37713373Y-51225802D01*
X37708057Y-51259941D01*
X37706303Y-51269005D01*
X37695815Y-51314255D01*
X37696480Y-51323647D01*
X37696303Y-51325893D01*
X37696371Y-51328232D01*
X37696282Y-51335571D01*
X37694901Y-51344440D01*
X37701074Y-51391645D01*
X37701820Y-51399052D01*
X37705383Y-51449384D01*
X37708783Y-51458172D01*
X37709214Y-51460101D01*
X37710552Y-51464130D01*
X37711633Y-51472394D01*
X37722218Y-51496450D01*
X37732443Y-51519688D01*
X37734607Y-51524924D01*
X37754261Y-51575726D01*
X37760092Y-51583123D01*
X37761212Y-51585086D01*
X37761229Y-51585110D01*
X37763605Y-51590510D01*
X37799537Y-51633257D01*
X37801997Y-51636278D01*
X37838128Y-51682110D01*
X37844034Y-51686192D01*
X37846639Y-51689291D01*
X37853756Y-51694028D01*
X37853758Y-51694030D01*
X37896676Y-51722598D01*
X37898497Y-51723833D01*
X37949569Y-51759131D01*
X37953360Y-51760330D01*
X37954060Y-51760796D01*
X37959828Y-51762598D01*
X37959830Y-51762599D01*
X37976158Y-51767700D01*
X38017743Y-51780692D01*
X38078730Y-51799980D01*
X38085337Y-51800500D01*
X38142736Y-51800500D01*
X38145045Y-51800521D01*
X38197282Y-51801479D01*
X38197285Y-51801479D01*
X38206255Y-51801643D01*
X38209709Y-51800701D01*
X38212952Y-51800500D01*
X38811206Y-51800500D01*
X38879327Y-51820502D01*
X38900302Y-51837405D01*
X39563536Y-52500640D01*
X39570890Y-52508659D01*
X39596639Y-52539291D01*
X39638807Y-52567360D01*
X39643823Y-52570879D01*
X39679242Y-52597041D01*
X39679247Y-52597043D01*
X39686817Y-52602635D01*
X39695704Y-52605756D01*
X39697576Y-52606747D01*
X39698631Y-52607182D01*
X39704060Y-52610796D01*
X39712632Y-52613474D01*
X39756295Y-52627115D01*
X39760471Y-52628500D01*
X39814631Y-52647520D01*
X39822609Y-52647834D01*
X39827233Y-52649278D01*
X39868874Y-52650041D01*
X39886149Y-52650358D01*
X39888787Y-52650434D01*
X39949993Y-52652839D01*
X39949883Y-52655645D01*
X40005194Y-52665466D01*
X40057290Y-52713700D01*
X40075039Y-52782442D01*
X40073985Y-52789512D01*
X40074551Y-52789561D01*
X40073590Y-52800541D01*
X40070736Y-52811193D01*
X40071697Y-52822178D01*
X40071697Y-52822180D01*
X40074020Y-52848728D01*
X40074500Y-52859710D01*
X40074500Y-56201056D01*
X40054498Y-56269177D01*
X40000842Y-56315670D01*
X39930568Y-56325774D01*
X39882104Y-56308143D01*
X39783313Y-56246890D01*
X39783310Y-56246889D01*
X39776014Y-56242365D01*
X39631175Y-56200285D01*
X39624197Y-56199773D01*
X39622792Y-56199669D01*
X39622781Y-56199669D01*
X39620485Y-56199500D01*
X39512215Y-56199500D01*
X39507970Y-56200082D01*
X39507963Y-56200082D01*
X39447478Y-56208368D01*
X39400568Y-56214794D01*
X39392684Y-56218206D01*
X39392683Y-56218206D01*
X39270029Y-56271283D01*
X39270027Y-56271284D01*
X39262145Y-56274695D01*
X39144930Y-56369614D01*
X39057558Y-56492558D01*
X39006467Y-56634468D01*
X38995420Y-56784891D01*
X38997117Y-56793306D01*
X38997117Y-56793309D01*
X39004978Y-56832292D01*
X39025233Y-56932743D01*
X39093707Y-57067132D01*
X39195799Y-57178156D01*
X39248442Y-57210796D01*
X39316687Y-57253110D01*
X39316690Y-57253111D01*
X39323986Y-57257635D01*
X39468825Y-57299715D01*
X39475803Y-57300227D01*
X39477208Y-57300331D01*
X39477219Y-57300331D01*
X39479515Y-57300500D01*
X39587785Y-57300500D01*
X39592030Y-57299918D01*
X39592037Y-57299918D01*
X39652522Y-57291632D01*
X39699432Y-57285206D01*
X39727239Y-57273173D01*
X39829971Y-57228717D01*
X39829973Y-57228716D01*
X39837855Y-57225305D01*
X39955070Y-57130386D01*
X39960046Y-57123384D01*
X39960048Y-57123382D01*
X40013863Y-57047657D01*
X40069628Y-57003716D01*
X40140297Y-56996900D01*
X40203432Y-57029373D01*
X40212953Y-57041058D01*
X40213605Y-57040510D01*
X40289154Y-57130386D01*
X40296639Y-57139291D01*
X40404060Y-57210796D01*
X40412627Y-57213472D01*
X40412628Y-57213473D01*
X40424823Y-57217283D01*
X40436075Y-57220798D01*
X40495131Y-57260204D01*
X40523508Y-57325283D01*
X40524500Y-57341065D01*
X40524500Y-57369748D01*
X40536133Y-57428231D01*
X40580448Y-57494552D01*
X40646769Y-57538867D01*
X40658938Y-57541288D01*
X40658939Y-57541288D01*
X40674786Y-57544440D01*
X40705252Y-57550500D01*
X41735746Y-57550500D01*
X41803867Y-57570502D01*
X41850360Y-57624158D01*
X41860246Y-57695885D01*
X41846282Y-57785567D01*
X41846282Y-57785571D01*
X41844901Y-57794440D01*
X41846065Y-57803342D01*
X41846065Y-57803345D01*
X41860468Y-57913489D01*
X41860469Y-57913493D01*
X41861633Y-57922394D01*
X41913605Y-58040510D01*
X41996639Y-58139291D01*
X42104060Y-58210796D01*
X42227233Y-58249278D01*
X42236203Y-58249442D01*
X42236207Y-58249443D01*
X42294942Y-58250519D01*
X42356255Y-58251643D01*
X42418505Y-58234671D01*
X42472092Y-58220062D01*
X42472093Y-58220062D01*
X42480755Y-58217700D01*
X42488405Y-58213003D01*
X42488407Y-58213002D01*
X42583072Y-58154878D01*
X42583075Y-58154875D01*
X42590724Y-58150179D01*
X42596750Y-58143522D01*
X42671300Y-58061161D01*
X42671303Y-58061157D01*
X42677322Y-58054507D01*
X42733588Y-57938375D01*
X42735078Y-57929521D01*
X42735450Y-57927312D01*
X42736421Y-57925313D01*
X42737807Y-57920971D01*
X42738434Y-57921171D01*
X42766478Y-57863454D01*
X42827104Y-57826509D01*
X42898081Y-57828206D01*
X42948798Y-57859124D01*
X43828132Y-58738458D01*
X43862158Y-58800770D01*
X43863959Y-58843997D01*
X43844394Y-58992611D01*
X43862999Y-59161135D01*
X43921266Y-59320356D01*
X43925502Y-59326659D01*
X43925502Y-59326660D01*
X43934965Y-59340742D01*
X44015830Y-59461083D01*
X44021442Y-59466190D01*
X44021445Y-59466193D01*
X44135612Y-59570077D01*
X44135616Y-59570080D01*
X44141233Y-59575191D01*
X44147906Y-59578814D01*
X44147910Y-59578817D01*
X44283558Y-59652467D01*
X44283560Y-59652468D01*
X44290235Y-59656092D01*
X44297584Y-59658020D01*
X44446883Y-59697188D01*
X44446885Y-59697188D01*
X44454233Y-59699116D01*
X44540609Y-59700473D01*
X44616161Y-59701660D01*
X44616164Y-59701660D01*
X44623760Y-59701779D01*
X44631165Y-59700083D01*
X44631166Y-59700083D01*
X44691586Y-59686245D01*
X44789029Y-59663928D01*
X44940498Y-59587747D01*
X45069423Y-59477634D01*
X45168361Y-59339947D01*
X45176237Y-59320356D01*
X45228766Y-59189687D01*
X45228767Y-59189685D01*
X45231601Y-59182634D01*
X45255490Y-59014778D01*
X45255645Y-59000000D01*
X45253840Y-58985080D01*
X45251004Y-58961653D01*
X45235276Y-58831680D01*
X45175345Y-58673077D01*
X45079312Y-58533349D01*
X45073641Y-58528296D01*
X44958392Y-58425612D01*
X44958388Y-58425610D01*
X44952721Y-58420560D01*
X44802881Y-58341224D01*
X44638441Y-58299919D01*
X44630843Y-58299879D01*
X44630841Y-58299879D01*
X44553668Y-58299475D01*
X44468895Y-58299031D01*
X44461508Y-58300805D01*
X44461504Y-58300805D01*
X44408858Y-58313445D01*
X44337950Y-58309899D01*
X44290348Y-58280022D01*
X43512405Y-57502079D01*
X43478379Y-57439767D01*
X43475500Y-57412984D01*
X43475500Y-56960315D01*
X43495502Y-56892194D01*
X43508080Y-56875765D01*
X43527322Y-56854507D01*
X43583588Y-56738375D01*
X43584924Y-56730437D01*
X43624428Y-56672007D01*
X43689679Y-56644028D01*
X43704698Y-56643130D01*
X43993116Y-56643130D01*
X44061237Y-56663132D01*
X44107730Y-56716788D01*
X44117616Y-56788515D01*
X44103652Y-56878197D01*
X44103652Y-56878201D01*
X44102271Y-56887070D01*
X44103435Y-56895972D01*
X44103435Y-56895975D01*
X44117838Y-57006119D01*
X44117839Y-57006123D01*
X44119003Y-57015024D01*
X44170975Y-57133140D01*
X44176752Y-57140013D01*
X44176753Y-57140014D01*
X44238502Y-57213473D01*
X44254009Y-57231921D01*
X44261486Y-57236898D01*
X44328933Y-57281794D01*
X44361430Y-57303426D01*
X44484603Y-57341908D01*
X44493573Y-57342072D01*
X44493577Y-57342073D01*
X44552312Y-57343149D01*
X44613625Y-57344273D01*
X44683279Y-57325283D01*
X44729462Y-57312692D01*
X44729463Y-57312692D01*
X44738125Y-57310330D01*
X44745775Y-57305633D01*
X44745777Y-57305632D01*
X44840442Y-57247508D01*
X44840445Y-57247505D01*
X44848094Y-57242809D01*
X44857950Y-57231921D01*
X44928668Y-57153792D01*
X44934692Y-57147137D01*
X44935521Y-57145425D01*
X44987455Y-57102407D01*
X45057937Y-57093867D01*
X45072179Y-57098370D01*
X45072520Y-57097200D01*
X45081775Y-57099897D01*
X45090513Y-57103972D01*
X45140099Y-57110500D01*
X45319934Y-57110500D01*
X45499900Y-57110499D01*
X45549487Y-57103972D01*
X45559983Y-57099078D01*
X45648323Y-57057884D01*
X45648324Y-57057883D01*
X45658316Y-57053224D01*
X45743224Y-56968316D01*
X45755116Y-56942815D01*
X45789898Y-56868224D01*
X45789898Y-56868223D01*
X45793972Y-56859487D01*
X45800500Y-56809901D01*
X45800499Y-56390100D01*
X45793972Y-56340513D01*
X45785267Y-56321844D01*
X45765736Y-56279962D01*
X45743224Y-56231684D01*
X45735428Y-56223888D01*
X45734688Y-56222831D01*
X45731587Y-56213637D01*
X45722589Y-56209952D01*
X45712164Y-56200624D01*
X45658316Y-56146776D01*
X45644652Y-56140404D01*
X45558224Y-56100102D01*
X45558223Y-56100102D01*
X45549487Y-56096028D01*
X45514595Y-56091435D01*
X45503989Y-56090038D01*
X45503986Y-56090038D01*
X45499901Y-56089500D01*
X45483014Y-56089500D01*
X45322838Y-56089501D01*
X45254718Y-56069499D01*
X45253712Y-56068758D01*
X45250085Y-56064436D01*
X45240533Y-56058921D01*
X45217445Y-56045591D01*
X45208174Y-56039685D01*
X45186345Y-56024400D01*
X45177314Y-56018076D01*
X45166664Y-56015222D01*
X45163496Y-56013745D01*
X45160220Y-56012553D01*
X45150675Y-56007042D01*
X45116931Y-56001092D01*
X45113572Y-56000500D01*
X45102845Y-55998122D01*
X45066437Y-55988366D01*
X45055452Y-55989327D01*
X45055450Y-55989327D01*
X45028902Y-55991650D01*
X45017920Y-55992130D01*
X43572386Y-55992130D01*
X43504265Y-55972128D01*
X43457772Y-55918472D01*
X43447668Y-55848198D01*
X43477162Y-55783618D01*
X43483291Y-55777035D01*
X44066215Y-55194111D01*
X44074319Y-55186684D01*
X44094749Y-55169541D01*
X44103194Y-55162455D01*
X44113595Y-55144440D01*
X44122039Y-55129815D01*
X44127945Y-55120544D01*
X44143230Y-55098715D01*
X44149554Y-55089684D01*
X44152408Y-55079034D01*
X44153885Y-55075866D01*
X44155077Y-55072590D01*
X44160588Y-55063045D01*
X44167130Y-55025942D01*
X44169509Y-55015210D01*
X44170055Y-55013173D01*
X44179264Y-54978807D01*
X44175980Y-54941272D01*
X44175500Y-54930290D01*
X44175500Y-53745141D01*
X44175980Y-53734159D01*
X44178303Y-53707611D01*
X44178303Y-53707609D01*
X44179264Y-53696624D01*
X44169508Y-53660216D01*
X44167130Y-53649489D01*
X44164386Y-53633928D01*
X44160588Y-53612386D01*
X44155077Y-53602841D01*
X44153885Y-53599565D01*
X44152408Y-53596397D01*
X44149554Y-53585747D01*
X44127945Y-53554887D01*
X44122039Y-53545616D01*
X44108707Y-53522525D01*
X44103194Y-53512976D01*
X44074317Y-53488746D01*
X44066215Y-53481320D01*
X44062405Y-53477510D01*
X44028379Y-53415198D01*
X44025500Y-53388415D01*
X44025500Y-52892002D01*
X44045502Y-52823881D01*
X44099158Y-52777388D01*
X44169432Y-52767284D01*
X44189072Y-52771735D01*
X44277233Y-52799278D01*
X44286203Y-52799442D01*
X44286207Y-52799443D01*
X44344942Y-52800519D01*
X44406255Y-52801643D01*
X44476683Y-52782442D01*
X44522092Y-52770062D01*
X44522093Y-52770062D01*
X44530755Y-52767700D01*
X44538405Y-52763003D01*
X44538407Y-52763002D01*
X44633076Y-52704875D01*
X44633077Y-52704875D01*
X44640724Y-52700179D01*
X44646745Y-52693527D01*
X44653657Y-52687789D01*
X44656047Y-52690667D01*
X44701643Y-52662833D01*
X44772621Y-52664475D01*
X44815328Y-52687997D01*
X44825683Y-52696686D01*
X44833786Y-52704112D01*
X45745889Y-53616215D01*
X45753316Y-53624319D01*
X45777545Y-53653194D01*
X45787094Y-53658707D01*
X45810185Y-53672039D01*
X45819456Y-53677945D01*
X45850316Y-53699554D01*
X45860966Y-53702408D01*
X45864134Y-53703885D01*
X45867410Y-53705077D01*
X45876955Y-53710588D01*
X45910699Y-53716538D01*
X45914058Y-53717130D01*
X45924785Y-53719508D01*
X45961193Y-53729264D01*
X45972169Y-53728304D01*
X45972172Y-53728304D01*
X45998743Y-53725979D01*
X46009724Y-53725500D01*
X47556278Y-53725500D01*
X47624399Y-53745502D01*
X47670892Y-53799158D01*
X47680996Y-53869432D01*
X47670333Y-53905048D01*
X47668569Y-53908806D01*
X47664754Y-53916932D01*
X47661648Y-53936881D01*
X47646282Y-54035567D01*
X47646282Y-54035571D01*
X47644901Y-54044440D01*
X47646065Y-54053342D01*
X47646065Y-54053345D01*
X47651215Y-54092723D01*
X47661633Y-54172394D01*
X47662970Y-54175433D01*
X47662063Y-54243575D01*
X47622887Y-54302785D01*
X47580652Y-54325428D01*
X47576827Y-54325932D01*
X47568090Y-54330006D01*
X47568087Y-54330007D01*
X47515625Y-54354471D01*
X47469596Y-54375935D01*
X47417936Y-54427595D01*
X47355624Y-54461621D01*
X47328841Y-54464500D01*
X47147984Y-54464500D01*
X47079452Y-54444233D01*
X46990906Y-54386841D01*
X46982311Y-54384271D01*
X46982310Y-54384270D01*
X46875874Y-54352438D01*
X46875872Y-54352438D01*
X46867273Y-54349866D01*
X46858298Y-54349811D01*
X46858297Y-54349811D01*
X46803641Y-54349477D01*
X46738231Y-54349078D01*
X46676193Y-54366808D01*
X46622786Y-54382072D01*
X46622784Y-54382073D01*
X46614155Y-54384539D01*
X46606565Y-54389328D01*
X46531262Y-54436841D01*
X46505019Y-54453399D01*
X46499078Y-54460126D01*
X46496069Y-54462687D01*
X46431230Y-54491607D01*
X46361048Y-54480880D01*
X46345872Y-54472467D01*
X46298439Y-54441723D01*
X46298436Y-54441722D01*
X46290906Y-54436841D01*
X46282311Y-54434271D01*
X46282310Y-54434270D01*
X46175874Y-54402438D01*
X46175872Y-54402438D01*
X46167273Y-54399866D01*
X46158298Y-54399811D01*
X46158297Y-54399811D01*
X46103641Y-54399477D01*
X46038231Y-54399078D01*
X46026475Y-54402438D01*
X45922786Y-54432072D01*
X45922784Y-54432073D01*
X45914155Y-54434539D01*
X45805019Y-54503399D01*
X45719596Y-54600122D01*
X45664754Y-54716932D01*
X45660306Y-54745502D01*
X45646282Y-54835567D01*
X45646282Y-54835571D01*
X45644901Y-54844440D01*
X45646065Y-54853342D01*
X45646065Y-54853345D01*
X45660468Y-54963489D01*
X45660469Y-54963493D01*
X45661633Y-54972394D01*
X45671209Y-54994158D01*
X45707162Y-55075866D01*
X45713605Y-55090510D01*
X45719382Y-55097383D01*
X45719383Y-55097384D01*
X45765633Y-55152405D01*
X45796639Y-55189291D01*
X45807903Y-55196789D01*
X45810855Y-55198754D01*
X45856477Y-55253152D01*
X45865446Y-55323580D01*
X45855228Y-55356891D01*
X45850007Y-55368087D01*
X45850006Y-55368090D01*
X45845932Y-55376827D01*
X45839500Y-55425684D01*
X45839500Y-55874316D01*
X45845932Y-55923173D01*
X45895935Y-56030404D01*
X45903731Y-56038200D01*
X45904471Y-56039257D01*
X45907572Y-56048451D01*
X45916570Y-56052136D01*
X45926995Y-56061464D01*
X45979596Y-56114065D01*
X45989588Y-56118725D01*
X45989589Y-56118725D01*
X46052803Y-56148202D01*
X46086827Y-56164068D01*
X46135684Y-56170500D01*
X46484316Y-56170500D01*
X46533173Y-56164068D01*
X46567198Y-56148202D01*
X46583751Y-56140483D01*
X46653943Y-56129822D01*
X46718755Y-56158802D01*
X46733452Y-56173603D01*
X46746639Y-56189291D01*
X46854060Y-56260796D01*
X46977233Y-56299278D01*
X46986203Y-56299442D01*
X46986207Y-56299443D01*
X47044942Y-56300519D01*
X47106255Y-56301643D01*
X47185779Y-56279962D01*
X47222092Y-56270062D01*
X47222093Y-56270062D01*
X47230755Y-56267700D01*
X47322526Y-56211352D01*
X47391042Y-56192755D01*
X47460726Y-56215517D01*
X47461800Y-56216269D01*
X47469596Y-56224065D01*
X47479585Y-56228723D01*
X47497833Y-56237232D01*
X47576827Y-56274068D01*
X47625684Y-56280500D01*
X48074316Y-56280500D01*
X48123173Y-56274068D01*
X48180406Y-56247380D01*
X48220411Y-56228725D01*
X48220412Y-56228725D01*
X48230404Y-56224065D01*
X48314065Y-56140404D01*
X48327701Y-56111161D01*
X48359994Y-56041910D01*
X48359994Y-56041909D01*
X48364068Y-56033173D01*
X48370500Y-55984316D01*
X48370500Y-55635684D01*
X48364068Y-55586827D01*
X48351930Y-55560796D01*
X48318725Y-55489589D01*
X48318725Y-55489588D01*
X48314065Y-55479596D01*
X48230404Y-55395935D01*
X48231092Y-55395247D01*
X48193131Y-55347753D01*
X48185823Y-55277133D01*
X48217856Y-55213774D01*
X48227496Y-55205421D01*
X48230404Y-55204065D01*
X48314065Y-55120404D01*
X48324179Y-55098715D01*
X48359994Y-55021910D01*
X48359994Y-55021909D01*
X48364068Y-55013173D01*
X48370500Y-54964316D01*
X48370500Y-54851500D01*
X48390502Y-54783379D01*
X48444158Y-54736886D01*
X48496500Y-54725500D01*
X49574236Y-54725500D01*
X49642357Y-54745502D01*
X49673712Y-54775636D01*
X49675935Y-54780404D01*
X49759596Y-54864065D01*
X49769588Y-54868725D01*
X49769589Y-54868725D01*
X49800245Y-54883020D01*
X49866827Y-54914068D01*
X49915684Y-54920500D01*
X50082632Y-54920500D01*
X50150753Y-54940502D01*
X50197246Y-54994158D01*
X50207132Y-55065885D01*
X50196282Y-55135567D01*
X50196282Y-55135571D01*
X50194901Y-55144440D01*
X50196065Y-55153342D01*
X50196065Y-55153345D01*
X50210468Y-55263489D01*
X50210469Y-55263493D01*
X50211633Y-55272394D01*
X50224992Y-55302756D01*
X50234120Y-55373160D01*
X50203733Y-55437326D01*
X50143480Y-55474877D01*
X50109663Y-55479500D01*
X49915684Y-55479500D01*
X49866827Y-55485932D01*
X49858091Y-55490006D01*
X49858090Y-55490006D01*
X49771925Y-55530186D01*
X49759596Y-55535935D01*
X49759107Y-55534887D01*
X49702107Y-55554113D01*
X49678477Y-55552828D01*
X49675878Y-55552440D01*
X49667273Y-55549866D01*
X49658295Y-55549811D01*
X49658294Y-55549811D01*
X49606485Y-55549495D01*
X49538231Y-55549078D01*
X49476193Y-55566808D01*
X49422786Y-55582072D01*
X49422784Y-55582073D01*
X49414155Y-55584539D01*
X49391581Y-55598782D01*
X49326563Y-55639806D01*
X49305019Y-55653399D01*
X49219596Y-55750122D01*
X49215782Y-55758245D01*
X49215781Y-55758247D01*
X49206960Y-55777035D01*
X49164754Y-55866932D01*
X49163374Y-55875798D01*
X49146282Y-55985567D01*
X49146282Y-55985571D01*
X49144901Y-55994440D01*
X49146065Y-56003342D01*
X49146065Y-56003345D01*
X49160468Y-56113489D01*
X49160469Y-56113493D01*
X49161633Y-56122394D01*
X49177653Y-56158802D01*
X49208420Y-56228725D01*
X49213605Y-56240510D01*
X49262805Y-56299041D01*
X49291325Y-56364054D01*
X49280169Y-56434169D01*
X49274003Y-56445132D01*
X49269596Y-56450122D01*
X49214754Y-56566932D01*
X49213374Y-56575798D01*
X49196282Y-56685567D01*
X49196282Y-56685571D01*
X49194901Y-56694440D01*
X49196065Y-56703342D01*
X49196065Y-56703345D01*
X49210468Y-56813489D01*
X49210469Y-56813493D01*
X49211633Y-56822394D01*
X49263605Y-56940510D01*
X49346639Y-57039291D01*
X49354116Y-57044268D01*
X49437690Y-57099899D01*
X49454060Y-57110796D01*
X49534170Y-57135824D01*
X49593227Y-57175230D01*
X49621518Y-57239645D01*
X49624673Y-57263614D01*
X49624674Y-57263618D01*
X49625932Y-57273173D01*
X49630006Y-57281909D01*
X49630006Y-57281910D01*
X49657591Y-57341065D01*
X49675935Y-57380404D01*
X49759596Y-57464065D01*
X49769588Y-57468725D01*
X49769589Y-57468725D01*
X49841117Y-57502079D01*
X49866827Y-57514068D01*
X49915684Y-57520500D01*
X50131175Y-57520500D01*
X50199296Y-57540502D01*
X50245789Y-57594158D01*
X50256111Y-57630162D01*
X50261633Y-57672394D01*
X50313605Y-57790510D01*
X50319382Y-57797383D01*
X50319383Y-57797384D01*
X50343865Y-57826509D01*
X50396639Y-57889291D01*
X50504060Y-57960796D01*
X50627233Y-57999278D01*
X50636203Y-57999442D01*
X50636207Y-57999443D01*
X50694942Y-58000519D01*
X50756255Y-58001643D01*
X50818505Y-57984671D01*
X50872092Y-57970062D01*
X50872093Y-57970062D01*
X50880755Y-57967700D01*
X50888405Y-57963003D01*
X50888407Y-57963002D01*
X50983072Y-57904878D01*
X50983075Y-57904875D01*
X50990724Y-57900179D01*
X51000580Y-57889291D01*
X51077322Y-57804507D01*
X51078945Y-57805976D01*
X51124223Y-57768474D01*
X51194705Y-57759938D01*
X51258613Y-57790862D01*
X51295657Y-57851428D01*
X51300000Y-57884225D01*
X51300000Y-63173500D01*
X51279998Y-63241621D01*
X51226342Y-63288114D01*
X51174000Y-63299500D01*
X38723080Y-63299500D01*
X38705758Y-63297534D01*
X38700189Y-63297524D01*
X38686359Y-63294344D01*
X38672516Y-63297476D01*
X38658652Y-63297452D01*
X38650644Y-63297182D01*
X38501221Y-63287389D01*
X38435082Y-63283054D01*
X38418742Y-63280903D01*
X38221257Y-63241621D01*
X38180210Y-63233456D01*
X38164300Y-63229193D01*
X37934005Y-63151018D01*
X37918779Y-63144712D01*
X37700654Y-63037144D01*
X37686381Y-63028903D01*
X37484169Y-62893790D01*
X37471094Y-62883757D01*
X37470701Y-62883412D01*
X37288241Y-62723400D01*
X37276600Y-62711759D01*
X37116243Y-62528906D01*
X37106210Y-62515831D01*
X36971097Y-62313619D01*
X36962856Y-62299346D01*
X36855288Y-62081221D01*
X36848981Y-62065994D01*
X36840867Y-62042092D01*
X36770807Y-61835700D01*
X36766543Y-61819787D01*
X36762968Y-61801811D01*
X36719097Y-61581258D01*
X36716946Y-61564918D01*
X36702850Y-61349855D01*
X36703406Y-61327209D01*
X36704043Y-61321673D01*
X36705655Y-61314718D01*
X36705656Y-61314000D01*
X36703654Y-61305225D01*
X36701089Y-61282440D01*
X37480770Y-61282440D01*
X37482107Y-61302837D01*
X37495200Y-61502604D01*
X37496621Y-61508200D01*
X37496622Y-61508205D01*
X37548090Y-61710857D01*
X37549511Y-61716452D01*
X37551928Y-61721694D01*
X37551928Y-61721695D01*
X37588862Y-61801811D01*
X37641883Y-61916821D01*
X37769222Y-62097002D01*
X37927264Y-62250961D01*
X37932060Y-62254166D01*
X37932063Y-62254168D01*
X38078226Y-62351830D01*
X38110717Y-62373540D01*
X38116020Y-62375818D01*
X38116023Y-62375820D01*
X38230700Y-62425089D01*
X38313436Y-62460635D01*
X38393088Y-62478658D01*
X38522995Y-62508054D01*
X38523001Y-62508055D01*
X38528632Y-62509329D01*
X38534403Y-62509556D01*
X38534405Y-62509556D01*
X38602211Y-62512220D01*
X38749098Y-62517991D01*
X38858275Y-62502161D01*
X38961738Y-62487160D01*
X38961743Y-62487159D01*
X38967452Y-62486331D01*
X38972916Y-62484476D01*
X38972921Y-62484475D01*
X39170907Y-62417268D01*
X39170912Y-62417266D01*
X39176379Y-62415410D01*
X39368884Y-62307602D01*
X39538518Y-62166518D01*
X39592985Y-62101029D01*
X39675908Y-62001326D01*
X39675910Y-62001323D01*
X39679602Y-61996884D01*
X39787410Y-61804379D01*
X39789266Y-61798912D01*
X39789268Y-61798907D01*
X39856475Y-61600921D01*
X39856476Y-61600916D01*
X39858331Y-61595452D01*
X39859159Y-61589743D01*
X39859160Y-61589738D01*
X39889458Y-61380772D01*
X39889991Y-61377098D01*
X39891643Y-61314000D01*
X39871454Y-61094289D01*
X39811565Y-60881936D01*
X39800381Y-60859258D01*
X40699500Y-60859258D01*
X40700170Y-60863806D01*
X40700170Y-60863813D01*
X40702075Y-60876753D01*
X40710407Y-60933354D01*
X40765718Y-61046007D01*
X40854536Y-61134670D01*
X40967285Y-61189784D01*
X40976962Y-61191196D01*
X40976963Y-61191196D01*
X41036215Y-61199840D01*
X41036221Y-61199840D01*
X41040742Y-61200500D01*
X42559258Y-61200500D01*
X42563806Y-61199830D01*
X42563813Y-61199830D01*
X42604825Y-61193793D01*
X42633354Y-61189593D01*
X42642144Y-61185277D01*
X42642145Y-61185277D01*
X42688851Y-61162345D01*
X42746007Y-61134282D01*
X42834670Y-61045464D01*
X42889784Y-60932715D01*
X42900500Y-60859258D01*
X42900500Y-59340742D01*
X42899830Y-59336194D01*
X42899830Y-59336187D01*
X42893793Y-59295175D01*
X42889593Y-59266646D01*
X42834282Y-59153993D01*
X42745464Y-59065330D01*
X42632715Y-59010216D01*
X42623038Y-59008804D01*
X42623037Y-59008804D01*
X42563785Y-59000160D01*
X42563779Y-59000160D01*
X42559258Y-58999500D01*
X41040742Y-58999500D01*
X41036194Y-59000170D01*
X41036187Y-59000170D01*
X40995175Y-59006207D01*
X40966646Y-59010407D01*
X40957856Y-59014723D01*
X40957855Y-59014723D01*
X40911149Y-59037655D01*
X40853993Y-59065718D01*
X40765330Y-59154536D01*
X40710216Y-59267285D01*
X40708804Y-59276962D01*
X40708804Y-59276963D01*
X40703515Y-59313222D01*
X40699500Y-59340742D01*
X40699500Y-60859258D01*
X39800381Y-60859258D01*
X39713980Y-60684053D01*
X39581967Y-60507267D01*
X39419949Y-60357499D01*
X39233350Y-60239764D01*
X39028421Y-60158006D01*
X39022761Y-60156880D01*
X39022757Y-60156879D01*
X38817691Y-60116089D01*
X38817688Y-60116089D01*
X38812024Y-60114962D01*
X38806249Y-60114886D01*
X38806245Y-60114886D01*
X38695504Y-60113437D01*
X38591406Y-60112074D01*
X38585709Y-60113053D01*
X38585708Y-60113053D01*
X38379654Y-60148459D01*
X38379653Y-60148459D01*
X38373957Y-60149438D01*
X38166957Y-60225804D01*
X37977341Y-60338614D01*
X37811457Y-60484090D01*
X37674863Y-60657360D01*
X37572131Y-60852620D01*
X37506703Y-61063333D01*
X37480770Y-61282440D01*
X36701089Y-61282440D01*
X36700500Y-61277210D01*
X36700500Y-56784891D01*
X37195420Y-56784891D01*
X37197117Y-56793306D01*
X37197117Y-56793309D01*
X37204978Y-56832292D01*
X37225233Y-56932743D01*
X37293707Y-57067132D01*
X37395799Y-57178156D01*
X37448442Y-57210796D01*
X37516687Y-57253110D01*
X37516690Y-57253111D01*
X37523986Y-57257635D01*
X37668825Y-57299715D01*
X37675803Y-57300227D01*
X37677208Y-57300331D01*
X37677219Y-57300331D01*
X37679515Y-57300500D01*
X37787785Y-57300500D01*
X37792030Y-57299918D01*
X37792037Y-57299918D01*
X37852522Y-57291632D01*
X37899432Y-57285206D01*
X37927239Y-57273173D01*
X38029971Y-57228717D01*
X38029973Y-57228716D01*
X38037855Y-57225305D01*
X38155070Y-57130386D01*
X38242442Y-57007442D01*
X38293533Y-56865532D01*
X38304580Y-56715109D01*
X38300413Y-56694440D01*
X38276464Y-56575675D01*
X38274767Y-56567257D01*
X38206293Y-56432868D01*
X38200475Y-56426541D01*
X38195576Y-56419492D01*
X38197703Y-56418014D01*
X38172172Y-56366219D01*
X38180194Y-56295677D01*
X38230377Y-56237232D01*
X38283072Y-56204878D01*
X38283075Y-56204875D01*
X38290724Y-56200179D01*
X38297444Y-56192755D01*
X38371300Y-56111161D01*
X38371303Y-56111157D01*
X38377322Y-56104507D01*
X38433588Y-55988375D01*
X38436322Y-55972128D01*
X38454190Y-55865917D01*
X38454997Y-55861120D01*
X38455133Y-55850000D01*
X38441993Y-55758247D01*
X38438112Y-55731145D01*
X38438111Y-55731142D01*
X38436839Y-55722259D01*
X38408590Y-55660129D01*
X38387145Y-55612962D01*
X38387143Y-55612959D01*
X38383428Y-55604788D01*
X38336220Y-55550000D01*
X38305051Y-55513826D01*
X38305049Y-55513824D01*
X38299193Y-55507028D01*
X38190906Y-55436841D01*
X38182311Y-55434271D01*
X38182310Y-55434270D01*
X38075874Y-55402438D01*
X38075872Y-55402438D01*
X38067273Y-55399866D01*
X38058298Y-55399811D01*
X38058297Y-55399811D01*
X38003641Y-55399477D01*
X37938231Y-55399078D01*
X37876193Y-55416809D01*
X37822786Y-55432072D01*
X37822784Y-55432073D01*
X37814155Y-55434539D01*
X37806565Y-55439328D01*
X37719041Y-55494552D01*
X37705019Y-55503399D01*
X37699076Y-55510128D01*
X37699075Y-55510129D01*
X37664628Y-55549133D01*
X37619596Y-55600122D01*
X37615782Y-55608245D01*
X37615781Y-55608247D01*
X37602900Y-55635684D01*
X37564754Y-55716932D01*
X37558321Y-55758247D01*
X37546282Y-55835567D01*
X37546282Y-55835571D01*
X37544901Y-55844440D01*
X37546065Y-55853342D01*
X37546065Y-55853345D01*
X37560468Y-55963489D01*
X37560469Y-55963493D01*
X37561633Y-55972394D01*
X37602133Y-56064436D01*
X37606402Y-56074139D01*
X37615530Y-56144546D01*
X37585143Y-56208711D01*
X37541114Y-56240522D01*
X37470029Y-56271283D01*
X37470027Y-56271284D01*
X37462145Y-56274695D01*
X37344930Y-56369614D01*
X37257558Y-56492558D01*
X37206467Y-56634468D01*
X37195420Y-56784891D01*
X36700500Y-56784891D01*
X36700500Y-50544440D01*
X40044901Y-50544440D01*
X40046065Y-50553342D01*
X40046065Y-50553345D01*
X40060468Y-50663489D01*
X40060469Y-50663493D01*
X40061633Y-50672394D01*
X40113605Y-50790510D01*
X40196639Y-50889291D01*
X40209019Y-50897532D01*
X40295586Y-50955155D01*
X40304060Y-50960796D01*
X40427233Y-50999278D01*
X40436203Y-50999442D01*
X40436207Y-50999443D01*
X40494942Y-51000519D01*
X40556255Y-51001643D01*
X40651775Y-50975601D01*
X40672092Y-50970062D01*
X40672093Y-50970062D01*
X40680755Y-50967700D01*
X40688405Y-50963003D01*
X40688407Y-50963002D01*
X40783072Y-50904878D01*
X40783075Y-50904875D01*
X40790724Y-50900179D01*
X40796750Y-50893522D01*
X40871300Y-50811161D01*
X40871303Y-50811157D01*
X40877322Y-50804507D01*
X40933588Y-50688375D01*
X40938174Y-50661120D01*
X40954190Y-50565917D01*
X40954997Y-50561120D01*
X40955133Y-50550000D01*
X40936839Y-50422259D01*
X40930468Y-50408247D01*
X40887145Y-50312962D01*
X40887143Y-50312959D01*
X40883428Y-50304788D01*
X40829701Y-50242434D01*
X40805051Y-50213826D01*
X40805049Y-50213824D01*
X40799193Y-50207028D01*
X40690906Y-50136841D01*
X40682311Y-50134271D01*
X40682310Y-50134270D01*
X40575874Y-50102438D01*
X40575872Y-50102438D01*
X40567273Y-50099866D01*
X40558298Y-50099811D01*
X40558297Y-50099811D01*
X40503641Y-50099477D01*
X40438231Y-50099078D01*
X40376193Y-50116809D01*
X40322786Y-50132072D01*
X40322784Y-50132073D01*
X40314155Y-50134539D01*
X40306565Y-50139328D01*
X40219491Y-50194268D01*
X40205019Y-50203399D01*
X40119596Y-50300122D01*
X40115782Y-50308245D01*
X40115781Y-50308247D01*
X40092234Y-50358402D01*
X40064754Y-50416932D01*
X40060686Y-50443058D01*
X40046282Y-50535567D01*
X40046282Y-50535571D01*
X40044901Y-50544440D01*
X36700500Y-50544440D01*
X36700500Y-41044440D01*
X38544901Y-41044440D01*
X38546065Y-41053342D01*
X38546065Y-41053345D01*
X38560468Y-41163489D01*
X38560469Y-41163493D01*
X38561633Y-41172394D01*
X38613605Y-41290510D01*
X38696639Y-41389291D01*
X38804060Y-41460796D01*
X38927233Y-41499278D01*
X38936203Y-41499442D01*
X38936207Y-41499443D01*
X38994942Y-41500519D01*
X39056255Y-41501643D01*
X39118505Y-41484672D01*
X39172092Y-41470062D01*
X39172093Y-41470062D01*
X39180755Y-41467700D01*
X39188405Y-41463003D01*
X39188407Y-41463002D01*
X39283072Y-41404878D01*
X39283075Y-41404875D01*
X39290724Y-41400179D01*
X39296750Y-41393522D01*
X39371300Y-41311161D01*
X39371303Y-41311157D01*
X39377322Y-41304507D01*
X39433588Y-41188375D01*
X39454997Y-41061120D01*
X39455133Y-41050000D01*
X39446469Y-40989500D01*
X39438112Y-40931145D01*
X39438111Y-40931142D01*
X39436839Y-40922259D01*
X39427421Y-40901545D01*
X39387145Y-40812962D01*
X39387143Y-40812959D01*
X39383428Y-40804788D01*
X39299193Y-40707028D01*
X39190906Y-40636841D01*
X39182311Y-40634271D01*
X39182310Y-40634270D01*
X39075874Y-40602438D01*
X39075872Y-40602438D01*
X39067273Y-40599866D01*
X39058298Y-40599811D01*
X39058297Y-40599811D01*
X39003641Y-40599477D01*
X38938231Y-40599078D01*
X38926475Y-40602438D01*
X38822786Y-40632072D01*
X38822784Y-40632073D01*
X38814155Y-40634539D01*
X38705019Y-40703399D01*
X38619596Y-40800122D01*
X38615782Y-40808245D01*
X38615781Y-40808247D01*
X38589794Y-40863598D01*
X38564754Y-40916932D01*
X38555626Y-40975558D01*
X38546282Y-41035567D01*
X38546282Y-41035571D01*
X38544901Y-41044440D01*
X36700500Y-41044440D01*
X36700500Y-38723371D01*
X36703755Y-38694918D01*
X36704043Y-38693676D01*
X36704044Y-38693669D01*
X36705655Y-38686718D01*
X36705656Y-38686000D01*
X36704074Y-38679066D01*
X36703349Y-38672586D01*
X36702932Y-38654440D01*
X37480770Y-38654440D01*
X37482107Y-38674837D01*
X37495200Y-38874604D01*
X37496621Y-38880200D01*
X37496622Y-38880205D01*
X37548090Y-39082857D01*
X37549511Y-39088452D01*
X37551928Y-39093694D01*
X37551928Y-39093695D01*
X37588862Y-39173811D01*
X37641883Y-39288821D01*
X37769222Y-39469002D01*
X37927264Y-39622961D01*
X37932060Y-39626166D01*
X37932063Y-39626168D01*
X38078226Y-39723830D01*
X38110717Y-39745540D01*
X38116020Y-39747818D01*
X38116023Y-39747820D01*
X38308129Y-39830355D01*
X38313436Y-39832635D01*
X38393088Y-39850658D01*
X38522995Y-39880054D01*
X38523001Y-39880055D01*
X38528632Y-39881329D01*
X38534403Y-39881556D01*
X38534405Y-39881556D01*
X38602211Y-39884220D01*
X38749098Y-39889991D01*
X38858275Y-39874161D01*
X38961738Y-39859160D01*
X38961743Y-39859159D01*
X38967452Y-39858331D01*
X38972916Y-39856476D01*
X38972921Y-39856475D01*
X39170907Y-39789268D01*
X39170912Y-39789266D01*
X39176379Y-39787410D01*
X39211519Y-39767731D01*
X39314101Y-39710282D01*
X39368884Y-39679602D01*
X39386693Y-39664791D01*
X39534086Y-39542204D01*
X39538518Y-39538518D01*
X39592985Y-39473029D01*
X39675908Y-39373326D01*
X39675910Y-39373323D01*
X39679602Y-39368884D01*
X39787410Y-39176379D01*
X39789266Y-39170912D01*
X39789268Y-39170907D01*
X39856475Y-38972921D01*
X39856476Y-38972916D01*
X39858331Y-38967452D01*
X39859159Y-38961743D01*
X39859160Y-38961738D01*
X39889458Y-38752772D01*
X39889991Y-38749098D01*
X39891643Y-38686000D01*
X39871454Y-38466289D01*
X39811565Y-38253936D01*
X39713980Y-38056053D01*
X39581967Y-37879267D01*
X39419949Y-37729499D01*
X39233350Y-37611764D01*
X39028421Y-37530006D01*
X39022761Y-37528880D01*
X39022757Y-37528879D01*
X38817691Y-37488089D01*
X38817688Y-37488089D01*
X38812024Y-37486962D01*
X38806249Y-37486886D01*
X38806245Y-37486886D01*
X38695504Y-37485437D01*
X38591406Y-37484074D01*
X38585709Y-37485053D01*
X38585708Y-37485053D01*
X38379654Y-37520459D01*
X38379653Y-37520459D01*
X38373957Y-37521438D01*
X38166957Y-37597804D01*
X37977341Y-37710614D01*
X37811457Y-37856090D01*
X37674863Y-38029360D01*
X37572131Y-38224620D01*
X37506703Y-38435333D01*
X37480770Y-38654440D01*
X36702932Y-38654440D01*
X36702838Y-38650335D01*
X36716946Y-38435082D01*
X36719097Y-38418742D01*
X36766543Y-38180213D01*
X36770807Y-38164300D01*
X36848982Y-37934005D01*
X36855288Y-37918779D01*
X36962856Y-37700654D01*
X36971097Y-37686381D01*
X37106210Y-37484169D01*
X37116243Y-37471094D01*
X37241876Y-37327836D01*
X37276600Y-37288241D01*
X37288241Y-37276600D01*
X37471094Y-37116243D01*
X37484169Y-37106210D01*
X37686381Y-36971097D01*
X37700654Y-36962856D01*
X37918779Y-36855288D01*
X37934006Y-36848981D01*
X38000233Y-36826500D01*
X38164300Y-36770807D01*
X38180210Y-36766544D01*
X38299477Y-36742820D01*
X38418742Y-36719097D01*
X38435082Y-36716946D01*
X38652038Y-36702726D01*
X38660499Y-36702456D01*
X38671811Y-36702476D01*
X38685641Y-36705656D01*
X38699480Y-36702525D01*
X38704311Y-36702533D01*
X38722504Y-36700500D01*
X51174000Y-36700500D01*
X51242121Y-36720502D01*
G37*
G04 #@! TD.AperFunction*
G04 #@! TA.AperFunction,Conductor*
G36*
X42543962Y-52505422D02*
G01*
X42552260Y-52510966D01*
X42625326Y-52525500D01*
X42798500Y-52525500D01*
X42866621Y-52545502D01*
X42913114Y-52599158D01*
X42924500Y-52651500D01*
X42924500Y-53742117D01*
X42924020Y-53753099D01*
X42922644Y-53768831D01*
X42920736Y-53790634D01*
X42923590Y-53801283D01*
X42930491Y-53827037D01*
X42932870Y-53837769D01*
X42939412Y-53874872D01*
X42944923Y-53884417D01*
X42946115Y-53887693D01*
X42947592Y-53890861D01*
X42950446Y-53901511D01*
X42956770Y-53910542D01*
X42972055Y-53932371D01*
X42977961Y-53941642D01*
X42991293Y-53964733D01*
X42996806Y-53974282D01*
X42997518Y-53974879D01*
X43023487Y-54034220D01*
X43024500Y-54050169D01*
X43024500Y-54512984D01*
X43004498Y-54581105D01*
X42987595Y-54602079D01*
X42902079Y-54687595D01*
X42839767Y-54721621D01*
X42812984Y-54724500D01*
X42566450Y-54724500D01*
X42498329Y-54704498D01*
X42461686Y-54668503D01*
X42426446Y-54615764D01*
X42426443Y-54615761D01*
X42419552Y-54605448D01*
X42353231Y-54561133D01*
X42341062Y-54558712D01*
X42341061Y-54558712D01*
X42300816Y-54550707D01*
X42294748Y-54549500D01*
X40851500Y-54549500D01*
X40783379Y-54529498D01*
X40736886Y-54475842D01*
X40725500Y-54423500D01*
X40725500Y-53460606D01*
X40745502Y-53392485D01*
X40799158Y-53345992D01*
X40869432Y-53335888D01*
X40921318Y-53355719D01*
X41004060Y-53410796D01*
X41092938Y-53438564D01*
X41099473Y-53440605D01*
X41127233Y-53449278D01*
X41136203Y-53449442D01*
X41136207Y-53449443D01*
X41194942Y-53450519D01*
X41256255Y-53451643D01*
X41318505Y-53434671D01*
X41372092Y-53420062D01*
X41372093Y-53420062D01*
X41380755Y-53417700D01*
X41388405Y-53413003D01*
X41388407Y-53413002D01*
X41483072Y-53354878D01*
X41483075Y-53354875D01*
X41490724Y-53350179D01*
X41496750Y-53343522D01*
X41571300Y-53261161D01*
X41571303Y-53261157D01*
X41577322Y-53254507D01*
X41633588Y-53138375D01*
X41649487Y-53043872D01*
X41684646Y-52975681D01*
X41966222Y-52694105D01*
X41974326Y-52686678D01*
X41994749Y-52669541D01*
X42003194Y-52662455D01*
X42022039Y-52629815D01*
X42027943Y-52620547D01*
X42043230Y-52598715D01*
X42043231Y-52598713D01*
X42043971Y-52597657D01*
X42043973Y-52597654D01*
X42049553Y-52589684D01*
X42050442Y-52590306D01*
X42090361Y-52544967D01*
X42157641Y-52525500D01*
X42374674Y-52525500D01*
X42447740Y-52510966D01*
X42454624Y-52506366D01*
X42522370Y-52499082D01*
X42543962Y-52505422D01*
G37*
G04 #@! TD.AperFunction*
G04 #@! TA.AperFunction,Conductor*
G36*
X50686226Y-44717856D02*
G01*
X50694579Y-44727496D01*
X50695935Y-44730404D01*
X50779596Y-44814065D01*
X50789588Y-44818725D01*
X50789589Y-44818725D01*
X50871730Y-44857028D01*
X50886827Y-44864068D01*
X50935684Y-44870500D01*
X51117984Y-44870500D01*
X51186105Y-44890502D01*
X51207079Y-44907405D01*
X51263095Y-44963421D01*
X51297121Y-45025733D01*
X51300000Y-45052516D01*
X51300000Y-48054295D01*
X51279998Y-48122416D01*
X51226342Y-48168909D01*
X51156068Y-48179013D01*
X51091488Y-48149519D01*
X51066928Y-48115461D01*
X51065868Y-48116169D01*
X51028444Y-48060161D01*
X51021553Y-48049848D01*
X50955232Y-48005533D01*
X50943063Y-48003112D01*
X50943062Y-48003112D01*
X50902817Y-47995107D01*
X50896749Y-47993900D01*
X50603253Y-47993900D01*
X50597185Y-47995107D01*
X50556940Y-48003112D01*
X50556939Y-48003112D01*
X50544770Y-48005533D01*
X50478449Y-48049848D01*
X50434134Y-48116169D01*
X50422501Y-48174652D01*
X50422501Y-48925348D01*
X50423708Y-48931416D01*
X50428751Y-48956767D01*
X50434134Y-48983831D01*
X50478449Y-49050152D01*
X50488762Y-49057043D01*
X50531626Y-49085684D01*
X50544770Y-49094467D01*
X50556939Y-49096888D01*
X50556940Y-49096888D01*
X50588930Y-49103251D01*
X50603253Y-49106100D01*
X50767900Y-49106100D01*
X50836021Y-49126102D01*
X50882514Y-49179758D01*
X50893900Y-49232100D01*
X50893900Y-49396747D01*
X50905533Y-49455230D01*
X50907396Y-49458018D01*
X50914315Y-49522369D01*
X50909466Y-49538883D01*
X50905533Y-49544769D01*
X50893900Y-49603252D01*
X50893900Y-49896748D01*
X50895107Y-49902816D01*
X50901767Y-49936296D01*
X50905533Y-49955231D01*
X50907395Y-49958018D01*
X50914314Y-50022372D01*
X50909466Y-50038883D01*
X50905533Y-50044769D01*
X50893900Y-50103252D01*
X50893900Y-50396748D01*
X50905533Y-50455231D01*
X50907396Y-50458019D01*
X50914315Y-50522370D01*
X50909466Y-50538884D01*
X50905533Y-50544770D01*
X50893900Y-50603253D01*
X50893900Y-50767900D01*
X50873898Y-50836021D01*
X50820242Y-50882514D01*
X50767900Y-50893900D01*
X50603253Y-50893900D01*
X50544770Y-50905533D01*
X50541982Y-50907396D01*
X50477631Y-50914315D01*
X50461117Y-50909466D01*
X50455231Y-50905533D01*
X50396748Y-50893900D01*
X50103252Y-50893900D01*
X50097184Y-50895107D01*
X50056939Y-50903112D01*
X50056938Y-50903112D01*
X50044769Y-50905533D01*
X50041982Y-50907395D01*
X49977628Y-50914314D01*
X49961117Y-50909466D01*
X49955231Y-50905533D01*
X49943062Y-50903112D01*
X49943061Y-50903112D01*
X49902816Y-50895107D01*
X49896748Y-50893900D01*
X49603252Y-50893900D01*
X49597184Y-50895107D01*
X49556939Y-50903112D01*
X49556938Y-50903112D01*
X49544769Y-50905533D01*
X49534453Y-50912426D01*
X49531626Y-50914315D01*
X49478448Y-50949848D01*
X49434133Y-51016169D01*
X49431712Y-51028338D01*
X49431712Y-51028339D01*
X49428299Y-51045500D01*
X49422500Y-51074652D01*
X49422500Y-51825348D01*
X49423707Y-51831417D01*
X49423893Y-51833304D01*
X49424500Y-51845654D01*
X49424500Y-51895581D01*
X49404498Y-51963702D01*
X49387596Y-51984676D01*
X48784678Y-52587595D01*
X48722365Y-52621620D01*
X48695582Y-52624500D01*
X47920242Y-52624500D01*
X47852121Y-52604498D01*
X47805628Y-52550842D01*
X47795524Y-52480568D01*
X47806850Y-52443561D01*
X47811484Y-52433998D01*
X47819417Y-52417623D01*
X47829676Y-52396450D01*
X47829677Y-52396448D01*
X47833588Y-52388375D01*
X47836691Y-52369935D01*
X47854190Y-52265917D01*
X47854997Y-52261120D01*
X47855133Y-52250000D01*
X47845923Y-52185690D01*
X47838112Y-52131145D01*
X47838111Y-52131142D01*
X47836839Y-52122259D01*
X47833125Y-52114090D01*
X47787145Y-52012962D01*
X47787143Y-52012959D01*
X47783428Y-52004788D01*
X47699193Y-51907028D01*
X47700212Y-51906150D01*
X47667001Y-51854088D01*
X47667240Y-51783092D01*
X47705824Y-51723495D01*
X47722079Y-51711627D01*
X47740724Y-51700179D01*
X47750229Y-51689678D01*
X47821300Y-51611161D01*
X47821303Y-51611157D01*
X47827322Y-51604507D01*
X47883588Y-51488375D01*
X47886120Y-51473328D01*
X47904190Y-51365917D01*
X47904997Y-51361120D01*
X47905133Y-51350000D01*
X47895519Y-51282870D01*
X47888112Y-51231145D01*
X47888111Y-51231142D01*
X47886839Y-51222259D01*
X47877494Y-51201705D01*
X47867708Y-51180182D01*
X47857722Y-51109891D01*
X47887323Y-51045360D01*
X47947113Y-51007076D01*
X48018109Y-51007194D01*
X48052412Y-51023267D01*
X48105849Y-51058973D01*
X48105852Y-51058974D01*
X48116169Y-51065868D01*
X48128338Y-51068289D01*
X48128339Y-51068289D01*
X48160329Y-51074652D01*
X48174652Y-51077501D01*
X48925348Y-51077501D01*
X48939671Y-51074652D01*
X48971661Y-51068289D01*
X48971662Y-51068289D01*
X48983831Y-51065868D01*
X49050152Y-51021553D01*
X49094467Y-50955232D01*
X49097070Y-50942149D01*
X49104893Y-50902817D01*
X49106100Y-50896749D01*
X49106100Y-50603253D01*
X49098746Y-50566281D01*
X49096888Y-50556940D01*
X49096888Y-50556939D01*
X49094467Y-50544770D01*
X49078598Y-50521020D01*
X49057043Y-50488762D01*
X49050152Y-50478449D01*
X49010241Y-50451781D01*
X48994147Y-50441027D01*
X48983831Y-50434134D01*
X48971662Y-50431713D01*
X48971661Y-50431713D01*
X48931416Y-50423708D01*
X48925348Y-50422501D01*
X48174652Y-50422501D01*
X48168584Y-50423708D01*
X48128339Y-50431713D01*
X48128338Y-50431713D01*
X48116169Y-50434134D01*
X48105853Y-50441027D01*
X48089759Y-50451781D01*
X48049848Y-50478449D01*
X48042957Y-50488762D01*
X48042955Y-50488764D01*
X48007018Y-50542547D01*
X47952541Y-50588075D01*
X47882098Y-50596922D01*
X47818054Y-50566281D01*
X47789564Y-50521020D01*
X47786839Y-50522259D01*
X47737145Y-50412962D01*
X47737143Y-50412959D01*
X47733428Y-50404788D01*
X47727569Y-50397989D01*
X47727567Y-50397985D01*
X47706047Y-50373011D01*
X47676733Y-50308349D01*
X47675500Y-50290763D01*
X47675500Y-50004417D01*
X47695502Y-49936296D01*
X47712405Y-49915322D01*
X47783593Y-49844134D01*
X47845905Y-49810108D01*
X47916720Y-49815173D01*
X47973556Y-49857720D01*
X47996267Y-49908646D01*
X48005533Y-49955231D01*
X48049848Y-50021552D01*
X48060161Y-50028443D01*
X48102808Y-50056939D01*
X48116169Y-50065867D01*
X48128338Y-50068288D01*
X48128339Y-50068288D01*
X48158368Y-50074261D01*
X48174652Y-50077500D01*
X48925348Y-50077500D01*
X48941632Y-50074261D01*
X48971661Y-50068288D01*
X48971662Y-50068288D01*
X48983831Y-50065867D01*
X48997193Y-50056939D01*
X49039839Y-50028443D01*
X49050152Y-50021552D01*
X49094467Y-49955231D01*
X49098234Y-49936296D01*
X49104893Y-49902816D01*
X49106100Y-49896748D01*
X49106100Y-49603252D01*
X49094467Y-49544769D01*
X49092604Y-49541981D01*
X49085685Y-49477630D01*
X49090534Y-49461116D01*
X49094467Y-49455230D01*
X49106100Y-49396747D01*
X49106100Y-49232100D01*
X49126102Y-49163979D01*
X49179758Y-49117486D01*
X49232100Y-49106100D01*
X49396747Y-49106100D01*
X49455230Y-49094467D01*
X49458017Y-49092605D01*
X49522366Y-49085684D01*
X49538883Y-49090534D01*
X49544769Y-49094467D01*
X49603252Y-49106100D01*
X49896748Y-49106100D01*
X49911071Y-49103251D01*
X49943061Y-49096888D01*
X49943062Y-49096888D01*
X49955231Y-49094467D01*
X49968376Y-49085684D01*
X50011239Y-49057043D01*
X50021552Y-49050152D01*
X50065867Y-48983831D01*
X50071251Y-48956767D01*
X50076293Y-48931416D01*
X50077500Y-48925348D01*
X50077500Y-48174652D01*
X50065867Y-48116169D01*
X50021552Y-48049848D01*
X49955231Y-48005533D01*
X49943062Y-48003112D01*
X49943061Y-48003112D01*
X49902816Y-47995107D01*
X49896748Y-47993900D01*
X49809128Y-47993900D01*
X49741007Y-47973898D01*
X49694514Y-47920242D01*
X49684410Y-47849968D01*
X49694934Y-47814649D01*
X49739897Y-47718227D01*
X49739898Y-47718224D01*
X49743972Y-47709487D01*
X49750500Y-47659901D01*
X49750499Y-47240100D01*
X49743972Y-47190513D01*
X49701703Y-47099866D01*
X49697884Y-47091677D01*
X49697883Y-47091676D01*
X49693224Y-47081684D01*
X49608316Y-46996776D01*
X49563160Y-46975719D01*
X49508224Y-46950102D01*
X49508223Y-46950102D01*
X49499487Y-46946028D01*
X49449901Y-46939500D01*
X49270066Y-46939500D01*
X49090100Y-46939501D01*
X49051408Y-46944594D01*
X48981260Y-46933653D01*
X48945870Y-46908767D01*
X48409622Y-46372519D01*
X48375596Y-46310207D01*
X48380661Y-46239392D01*
X48423208Y-46182556D01*
X48459180Y-46164594D01*
X48463173Y-46164068D01*
X48471905Y-46159996D01*
X48471909Y-46159995D01*
X48560411Y-46118725D01*
X48560412Y-46118725D01*
X48570404Y-46114065D01*
X48654065Y-46030404D01*
X48654753Y-46031092D01*
X48702247Y-45993131D01*
X48772867Y-45985823D01*
X48836226Y-46017856D01*
X48844579Y-46027496D01*
X48845935Y-46030404D01*
X48929596Y-46114065D01*
X48939588Y-46118725D01*
X48939589Y-46118725D01*
X49019695Y-46156079D01*
X49036827Y-46164068D01*
X49085684Y-46170500D01*
X49434316Y-46170500D01*
X49483173Y-46164068D01*
X49500306Y-46156079D01*
X49580411Y-46118725D01*
X49580412Y-46118725D01*
X49590404Y-46114065D01*
X49674065Y-46030404D01*
X49679916Y-46017856D01*
X49719994Y-45931910D01*
X49719994Y-45931909D01*
X49724068Y-45923173D01*
X49730500Y-45874316D01*
X49730500Y-45610030D01*
X49750502Y-45541909D01*
X49763085Y-45525475D01*
X49821300Y-45461161D01*
X49821303Y-45461157D01*
X49827322Y-45454507D01*
X49883588Y-45338375D01*
X49885267Y-45328399D01*
X49904190Y-45215917D01*
X49904997Y-45211120D01*
X49905133Y-45200000D01*
X49886839Y-45072259D01*
X49876105Y-45048650D01*
X49866118Y-44978361D01*
X49895719Y-44913829D01*
X49955509Y-44875545D01*
X49990806Y-44870500D01*
X50264316Y-44870500D01*
X50313173Y-44864068D01*
X50328271Y-44857028D01*
X50410411Y-44818725D01*
X50410412Y-44818725D01*
X50420404Y-44814065D01*
X50504065Y-44730404D01*
X50504753Y-44731092D01*
X50552247Y-44693131D01*
X50622867Y-44685823D01*
X50686226Y-44717856D01*
G37*
G04 #@! TD.AperFunction*
G04 #@! TA.AperFunction,Conductor*
G36*
X44679328Y-44370502D02*
G01*
X44700302Y-44387405D01*
X44872595Y-44559698D01*
X44906621Y-44622010D01*
X44909500Y-44648793D01*
X44909500Y-45658353D01*
X44889498Y-45726474D01*
X44835842Y-45772967D01*
X44765568Y-45783071D01*
X44730249Y-45772547D01*
X44681913Y-45750007D01*
X44681910Y-45750006D01*
X44673173Y-45745932D01*
X44624316Y-45739500D01*
X44175684Y-45739500D01*
X44126827Y-45745932D01*
X44118091Y-45750006D01*
X44118090Y-45750006D01*
X44042323Y-45785337D01*
X44019596Y-45795935D01*
X43935935Y-45879596D01*
X43931275Y-45889588D01*
X43931275Y-45889589D01*
X43898209Y-45960500D01*
X43885932Y-45986827D01*
X43881847Y-46017856D01*
X43880105Y-46031092D01*
X43879500Y-46035684D01*
X43879500Y-46041207D01*
X43879382Y-46041610D01*
X43879230Y-46043925D01*
X43878712Y-46043891D01*
X43859498Y-46109328D01*
X43842595Y-46130302D01*
X43605650Y-46367247D01*
X43594561Y-46377101D01*
X43575291Y-46392293D01*
X43575289Y-46392295D01*
X43567890Y-46398128D01*
X43550153Y-46423792D01*
X43494969Y-46468459D01*
X43424396Y-46476200D01*
X43360840Y-46444557D01*
X43324481Y-46383578D01*
X43320500Y-46352154D01*
X43320500Y-46335684D01*
X43314068Y-46286827D01*
X43291902Y-46239291D01*
X43268725Y-46189589D01*
X43268725Y-46189588D01*
X43264065Y-46179596D01*
X43180404Y-46095935D01*
X43159373Y-46086128D01*
X43081910Y-46050006D01*
X43081909Y-46050006D01*
X43073173Y-46045932D01*
X43024316Y-46039500D01*
X42575684Y-46039500D01*
X42526827Y-46045932D01*
X42518089Y-46050007D01*
X42508835Y-46052704D01*
X42508326Y-46050959D01*
X42469797Y-46059500D01*
X42329159Y-46059500D01*
X42261038Y-46039498D01*
X42214545Y-45985842D01*
X42204441Y-45915568D01*
X42233935Y-45850988D01*
X42240064Y-45844405D01*
X42264065Y-45820404D01*
X42283498Y-45778730D01*
X42309994Y-45721910D01*
X42309994Y-45721909D01*
X42314068Y-45713173D01*
X42320500Y-45664316D01*
X42320500Y-45318793D01*
X42340502Y-45250672D01*
X42357405Y-45229698D01*
X42924698Y-44662405D01*
X42987010Y-44628379D01*
X43013793Y-44625500D01*
X43930730Y-44625500D01*
X43945539Y-44626373D01*
X43979260Y-44630364D01*
X43988524Y-44628672D01*
X43988525Y-44628672D01*
X44036951Y-44619828D01*
X44040854Y-44619178D01*
X44089595Y-44611850D01*
X44089596Y-44611850D01*
X44098912Y-44610449D01*
X44105425Y-44607321D01*
X44112523Y-44606025D01*
X44164597Y-44578975D01*
X44168087Y-44577232D01*
X44221029Y-44551809D01*
X44226315Y-44546923D01*
X44226363Y-44546890D01*
X44232738Y-44543579D01*
X44237778Y-44539275D01*
X44275005Y-44502048D01*
X44278571Y-44498618D01*
X44313591Y-44466246D01*
X44320506Y-44459854D01*
X44324199Y-44453495D01*
X44329716Y-44447337D01*
X44389648Y-44387405D01*
X44451960Y-44353379D01*
X44478743Y-44350500D01*
X44611207Y-44350500D01*
X44679328Y-44370502D01*
G37*
G04 #@! TD.AperFunction*
G04 #@! TA.AperFunction,Conductor*
G36*
X61294242Y-36702466D02*
G01*
X61299811Y-36702476D01*
X61313641Y-36705656D01*
X61327484Y-36702524D01*
X61341348Y-36702548D01*
X61349356Y-36702818D01*
X61498779Y-36712611D01*
X61564918Y-36716946D01*
X61581258Y-36719097D01*
X61674033Y-36737551D01*
X61819790Y-36766544D01*
X61835700Y-36770807D01*
X62065994Y-36848981D01*
X62081221Y-36855288D01*
X62299346Y-36962856D01*
X62313619Y-36971097D01*
X62515831Y-37106210D01*
X62528906Y-37116243D01*
X62711759Y-37276600D01*
X62723400Y-37288241D01*
X62758124Y-37327836D01*
X62883757Y-37471094D01*
X62893790Y-37484169D01*
X63028903Y-37686381D01*
X63037144Y-37700654D01*
X63144712Y-37918779D01*
X63151018Y-37934005D01*
X63229193Y-38164300D01*
X63233457Y-38180213D01*
X63280903Y-38418742D01*
X63283054Y-38435082D01*
X63297274Y-38652038D01*
X63297544Y-38660499D01*
X63297524Y-38671811D01*
X63294344Y-38685641D01*
X63297475Y-38699480D01*
X63297467Y-38704311D01*
X63299500Y-38722504D01*
X63299500Y-40889714D01*
X63279498Y-40957835D01*
X63225842Y-41004328D01*
X63155568Y-41014432D01*
X63129277Y-41007698D01*
X63057380Y-40980745D01*
X63049525Y-40979892D01*
X63049522Y-40979891D01*
X63003291Y-40974869D01*
X63003287Y-40974869D01*
X62999892Y-40974500D01*
X60700108Y-40974500D01*
X60696713Y-40974869D01*
X60696709Y-40974869D01*
X60650478Y-40979891D01*
X60650475Y-40979892D01*
X60642620Y-40980745D01*
X60635223Y-40983518D01*
X60635219Y-40983519D01*
X60593183Y-40999278D01*
X60516529Y-41028014D01*
X60509350Y-41033394D01*
X60509347Y-41033396D01*
X60415954Y-41103391D01*
X60408773Y-41108773D01*
X60403391Y-41115954D01*
X60333396Y-41209347D01*
X60333394Y-41209350D01*
X60328014Y-41216529D01*
X60280745Y-41342620D01*
X60279892Y-41350475D01*
X60279891Y-41350478D01*
X60274869Y-41396709D01*
X60274500Y-41400108D01*
X60274500Y-43699892D01*
X60280745Y-43757380D01*
X60328014Y-43883471D01*
X60333394Y-43890650D01*
X60333396Y-43890653D01*
X60380422Y-43953399D01*
X60408773Y-43991227D01*
X60415954Y-43996609D01*
X60509347Y-44066604D01*
X60509350Y-44066606D01*
X60516529Y-44071986D01*
X60612730Y-44108050D01*
X60669494Y-44150690D01*
X60694194Y-44217251D01*
X60694500Y-44226031D01*
X60694500Y-44674316D01*
X60700932Y-44723173D01*
X60750935Y-44830404D01*
X60834596Y-44914065D01*
X60844588Y-44918725D01*
X60844589Y-44918725D01*
X60933022Y-44959962D01*
X60941827Y-44964068D01*
X60990684Y-44970500D01*
X61339316Y-44970500D01*
X61388173Y-44964068D01*
X61396979Y-44959962D01*
X61495404Y-44914065D01*
X61497038Y-44917570D01*
X61551167Y-44900500D01*
X61652908Y-44900500D01*
X61706158Y-44912305D01*
X61709933Y-44914065D01*
X61795513Y-44953972D01*
X61845099Y-44960500D01*
X62024934Y-44960500D01*
X62204900Y-44960499D01*
X62254487Y-44953972D01*
X62330075Y-44918725D01*
X62353323Y-44907884D01*
X62353324Y-44907883D01*
X62363316Y-44903224D01*
X62415905Y-44850635D01*
X62478217Y-44816609D01*
X62549032Y-44821674D01*
X62594095Y-44850635D01*
X62646684Y-44903224D01*
X62656676Y-44907883D01*
X62656677Y-44907884D01*
X62677449Y-44917570D01*
X62755513Y-44953972D01*
X62805099Y-44960500D01*
X62984847Y-44960500D01*
X63164900Y-44960499D01*
X63165950Y-44960361D01*
X63234538Y-44975706D01*
X63284443Y-45026204D01*
X63299500Y-45085935D01*
X63299500Y-48089714D01*
X63279498Y-48157835D01*
X63225842Y-48204328D01*
X63155568Y-48214432D01*
X63129277Y-48207698D01*
X63057380Y-48180745D01*
X63049525Y-48179892D01*
X63049522Y-48179891D01*
X63003291Y-48174869D01*
X63003287Y-48174869D01*
X62999892Y-48174500D01*
X60700108Y-48174500D01*
X60696713Y-48174869D01*
X60696709Y-48174869D01*
X60650478Y-48179891D01*
X60650475Y-48179892D01*
X60642620Y-48180745D01*
X60635223Y-48183518D01*
X60635219Y-48183519D01*
X60580340Y-48204093D01*
X60516529Y-48228014D01*
X60509350Y-48233394D01*
X60509347Y-48233396D01*
X60415954Y-48303391D01*
X60408773Y-48308773D01*
X60403391Y-48315954D01*
X60333396Y-48409347D01*
X60333394Y-48409350D01*
X60328014Y-48416529D01*
X60280745Y-48542620D01*
X60274500Y-48600108D01*
X60274500Y-50899892D01*
X60274869Y-50903287D01*
X60274869Y-50903291D01*
X60278514Y-50936841D01*
X60280745Y-50957380D01*
X60283518Y-50964777D01*
X60283519Y-50964781D01*
X60299357Y-51007028D01*
X60328014Y-51083471D01*
X60333394Y-51090650D01*
X60333396Y-51090653D01*
X60340493Y-51100122D01*
X60408773Y-51191227D01*
X60415954Y-51196609D01*
X60509347Y-51266604D01*
X60509350Y-51266606D01*
X60516529Y-51271986D01*
X60583741Y-51297182D01*
X60607827Y-51306212D01*
X60664592Y-51348853D01*
X60689292Y-51415415D01*
X60689312Y-51425684D01*
X60689500Y-51425684D01*
X60689500Y-51874316D01*
X60695932Y-51923173D01*
X60745935Y-52030404D01*
X60829596Y-52114065D01*
X60839588Y-52118725D01*
X60839589Y-52118725D01*
X60928022Y-52159962D01*
X60936827Y-52164068D01*
X60985684Y-52170500D01*
X61334316Y-52170500D01*
X61383173Y-52164068D01*
X61391979Y-52159962D01*
X61490404Y-52114065D01*
X61492038Y-52117570D01*
X61546167Y-52100500D01*
X61667908Y-52100500D01*
X61721158Y-52112305D01*
X61724933Y-52114065D01*
X61810513Y-52153972D01*
X61860099Y-52160500D01*
X62039934Y-52160500D01*
X62219900Y-52160499D01*
X62269487Y-52153972D01*
X62345075Y-52118725D01*
X62368323Y-52107884D01*
X62368324Y-52107883D01*
X62378316Y-52103224D01*
X62430905Y-52050635D01*
X62493217Y-52016609D01*
X62564032Y-52021674D01*
X62609095Y-52050635D01*
X62661684Y-52103224D01*
X62671676Y-52107883D01*
X62671677Y-52107884D01*
X62692449Y-52117570D01*
X62770513Y-52153972D01*
X62820099Y-52160500D01*
X62961051Y-52160500D01*
X63173500Y-52160499D01*
X63241620Y-52180501D01*
X63288113Y-52234156D01*
X63299500Y-52286499D01*
X63299500Y-55289714D01*
X63279498Y-55357835D01*
X63225842Y-55404328D01*
X63155568Y-55414432D01*
X63129277Y-55407698D01*
X63057380Y-55380745D01*
X63049525Y-55379892D01*
X63049522Y-55379891D01*
X63003291Y-55374869D01*
X63003287Y-55374869D01*
X62999892Y-55374500D01*
X60700108Y-55374500D01*
X60696713Y-55374869D01*
X60696709Y-55374869D01*
X60650478Y-55379891D01*
X60650475Y-55379892D01*
X60642620Y-55380745D01*
X60635223Y-55383518D01*
X60635219Y-55383519D01*
X60580340Y-55404093D01*
X60516529Y-55428014D01*
X60509350Y-55433394D01*
X60509347Y-55433396D01*
X60415954Y-55503391D01*
X60408773Y-55508773D01*
X60403391Y-55515954D01*
X60333396Y-55609347D01*
X60333394Y-55609350D01*
X60328014Y-55616529D01*
X60324864Y-55624933D01*
X60285310Y-55730444D01*
X60280745Y-55742620D01*
X60279892Y-55750475D01*
X60279891Y-55750478D01*
X60274869Y-55796709D01*
X60274500Y-55800108D01*
X60274500Y-58099892D01*
X60280745Y-58157380D01*
X60283518Y-58164777D01*
X60283519Y-58164781D01*
X60304093Y-58219660D01*
X60328014Y-58283471D01*
X60333394Y-58290650D01*
X60333396Y-58290653D01*
X60403391Y-58384046D01*
X60408773Y-58391227D01*
X60415954Y-58396609D01*
X60509347Y-58466604D01*
X60509350Y-58466606D01*
X60516529Y-58471986D01*
X60583741Y-58497182D01*
X60607827Y-58506212D01*
X60664592Y-58548853D01*
X60689292Y-58615415D01*
X60689312Y-58625684D01*
X60689500Y-58625684D01*
X60689500Y-59074316D01*
X60695932Y-59123173D01*
X60745935Y-59230404D01*
X60829596Y-59314065D01*
X60839588Y-59318725D01*
X60839589Y-59318725D01*
X60928022Y-59359962D01*
X60936827Y-59364068D01*
X60985684Y-59370500D01*
X61334316Y-59370500D01*
X61383173Y-59364068D01*
X61391979Y-59359962D01*
X61490404Y-59314065D01*
X61492038Y-59317570D01*
X61546167Y-59300500D01*
X61647908Y-59300500D01*
X61701158Y-59312305D01*
X61759030Y-59339291D01*
X61790513Y-59353972D01*
X61826586Y-59358721D01*
X61835367Y-59359877D01*
X61840099Y-59360500D01*
X62019934Y-59360500D01*
X62199900Y-59360499D01*
X62249487Y-59353972D01*
X62280971Y-59339291D01*
X62348323Y-59307884D01*
X62348324Y-59307883D01*
X62358316Y-59303224D01*
X62410905Y-59250635D01*
X62473217Y-59216609D01*
X62544032Y-59221674D01*
X62589095Y-59250635D01*
X62641684Y-59303224D01*
X62651676Y-59307883D01*
X62651677Y-59307884D01*
X62741776Y-59349898D01*
X62750513Y-59353972D01*
X62786586Y-59358721D01*
X62795367Y-59359877D01*
X62800099Y-59360500D01*
X62979825Y-59360500D01*
X63159900Y-59360499D01*
X63164001Y-59359959D01*
X63165254Y-59359877D01*
X63234537Y-59375378D01*
X63284442Y-59425876D01*
X63299500Y-59485607D01*
X63299500Y-61276920D01*
X63297534Y-61294242D01*
X63297524Y-61299811D01*
X63294344Y-61313641D01*
X63297476Y-61327484D01*
X63297452Y-61341348D01*
X63297182Y-61349356D01*
X63288605Y-61480225D01*
X63283054Y-61564918D01*
X63280903Y-61581258D01*
X63237033Y-61801811D01*
X63233457Y-61819787D01*
X63229193Y-61835700D01*
X63159133Y-62042092D01*
X63151019Y-62065994D01*
X63144712Y-62081221D01*
X63037144Y-62299346D01*
X63028903Y-62313619D01*
X62893790Y-62515831D01*
X62883757Y-62528906D01*
X62723400Y-62711759D01*
X62711759Y-62723400D01*
X62529299Y-62883412D01*
X62528906Y-62883757D01*
X62515831Y-62893790D01*
X62313619Y-63028903D01*
X62299346Y-63037144D01*
X62081221Y-63144712D01*
X62065995Y-63151018D01*
X61835700Y-63229193D01*
X61819790Y-63233456D01*
X61700522Y-63257180D01*
X61581258Y-63280903D01*
X61564918Y-63283054D01*
X61347962Y-63297274D01*
X61339501Y-63297544D01*
X61328189Y-63297524D01*
X61314359Y-63294344D01*
X61300520Y-63297475D01*
X61295689Y-63297467D01*
X61277496Y-63299500D01*
X58129031Y-63299500D01*
X58060910Y-63279498D01*
X58014417Y-63225842D01*
X58004313Y-63155568D01*
X58011048Y-63129273D01*
X58016481Y-63114780D01*
X58016481Y-63114779D01*
X58019255Y-63107380D01*
X58025500Y-63049892D01*
X58025500Y-61282440D01*
X60108770Y-61282440D01*
X60110107Y-61302837D01*
X60123200Y-61502604D01*
X60124621Y-61508200D01*
X60124622Y-61508205D01*
X60176090Y-61710857D01*
X60177511Y-61716452D01*
X60179928Y-61721694D01*
X60179928Y-61721695D01*
X60216862Y-61801811D01*
X60269883Y-61916821D01*
X60397222Y-62097002D01*
X60555264Y-62250961D01*
X60560060Y-62254166D01*
X60560063Y-62254168D01*
X60706226Y-62351830D01*
X60738717Y-62373540D01*
X60744020Y-62375818D01*
X60744023Y-62375820D01*
X60858700Y-62425089D01*
X60941436Y-62460635D01*
X61021088Y-62478658D01*
X61150995Y-62508054D01*
X61151001Y-62508055D01*
X61156632Y-62509329D01*
X61162403Y-62509556D01*
X61162405Y-62509556D01*
X61230211Y-62512220D01*
X61377098Y-62517991D01*
X61486275Y-62502161D01*
X61589738Y-62487160D01*
X61589743Y-62487159D01*
X61595452Y-62486331D01*
X61600916Y-62484476D01*
X61600921Y-62484475D01*
X61798907Y-62417268D01*
X61798912Y-62417266D01*
X61804379Y-62415410D01*
X61996884Y-62307602D01*
X62166518Y-62166518D01*
X62220985Y-62101029D01*
X62303908Y-62001326D01*
X62303910Y-62001323D01*
X62307602Y-61996884D01*
X62415410Y-61804379D01*
X62417266Y-61798912D01*
X62417268Y-61798907D01*
X62484475Y-61600921D01*
X62484476Y-61600916D01*
X62486331Y-61595452D01*
X62487159Y-61589743D01*
X62487160Y-61589738D01*
X62517458Y-61380772D01*
X62517991Y-61377098D01*
X62519643Y-61314000D01*
X62499454Y-61094289D01*
X62492622Y-61070062D01*
X62465423Y-60973624D01*
X62439565Y-60881936D01*
X62341980Y-60684053D01*
X62321225Y-60656258D01*
X62213420Y-60511891D01*
X62213420Y-60511890D01*
X62209967Y-60507267D01*
X62112586Y-60417249D01*
X62052189Y-60361418D01*
X62052186Y-60361416D01*
X62047949Y-60357499D01*
X61861350Y-60239764D01*
X61656421Y-60158006D01*
X61650761Y-60156880D01*
X61650757Y-60156879D01*
X61445691Y-60116089D01*
X61445688Y-60116089D01*
X61440024Y-60114962D01*
X61434249Y-60114886D01*
X61434245Y-60114886D01*
X61323504Y-60113437D01*
X61219406Y-60112074D01*
X61213709Y-60113053D01*
X61213708Y-60113053D01*
X61007654Y-60148459D01*
X61007653Y-60148459D01*
X61001957Y-60149438D01*
X60794957Y-60225804D01*
X60789996Y-60228756D01*
X60789995Y-60228756D01*
X60618568Y-60330745D01*
X60605341Y-60338614D01*
X60439457Y-60484090D01*
X60302863Y-60657360D01*
X60200131Y-60852620D01*
X60169792Y-60950328D01*
X60137036Y-61055821D01*
X60134703Y-61063333D01*
X60108770Y-61282440D01*
X58025500Y-61282440D01*
X58025500Y-61075926D01*
X58045502Y-61007805D01*
X58099158Y-60961312D01*
X58157636Y-60950075D01*
X58160175Y-60950199D01*
X58163247Y-60950500D01*
X58163320Y-60950500D01*
X58229891Y-60973624D01*
X58240672Y-60982249D01*
X58240864Y-60982421D01*
X58246639Y-60989291D01*
X58354060Y-61060796D01*
X58477233Y-61099278D01*
X58486203Y-61099442D01*
X58486207Y-61099443D01*
X58544942Y-61100519D01*
X58606255Y-61101643D01*
X58700583Y-61075926D01*
X58722092Y-61070062D01*
X58722093Y-61070062D01*
X58730755Y-61067700D01*
X58738405Y-61063003D01*
X58738407Y-61063002D01*
X58833072Y-61004878D01*
X58833075Y-61004875D01*
X58840724Y-61000179D01*
X58846750Y-60993522D01*
X58921300Y-60911161D01*
X58921303Y-60911157D01*
X58927322Y-60904507D01*
X58983588Y-60788375D01*
X59004997Y-60661120D01*
X59005133Y-60650000D01*
X58986839Y-60522259D01*
X58969485Y-60484090D01*
X58937145Y-60412962D01*
X58937143Y-60412959D01*
X58933428Y-60404788D01*
X58896058Y-60361418D01*
X58855051Y-60313826D01*
X58855049Y-60313824D01*
X58849193Y-60307028D01*
X58740906Y-60236841D01*
X58732311Y-60234271D01*
X58732310Y-60234270D01*
X58625874Y-60202438D01*
X58625872Y-60202438D01*
X58617273Y-60199866D01*
X58608298Y-60199811D01*
X58608297Y-60199811D01*
X58553641Y-60199477D01*
X58488231Y-60199078D01*
X58364155Y-60234539D01*
X58356565Y-60239328D01*
X58348749Y-60242824D01*
X58278399Y-60252381D01*
X58214049Y-60222387D01*
X58208205Y-60216902D01*
X57735743Y-59744440D01*
X58894901Y-59744440D01*
X58896065Y-59753342D01*
X58896065Y-59753345D01*
X58910468Y-59863489D01*
X58910469Y-59863493D01*
X58911633Y-59872394D01*
X58963605Y-59990510D01*
X59046639Y-60089291D01*
X59154060Y-60160796D01*
X59277233Y-60199278D01*
X59286203Y-60199442D01*
X59286207Y-60199443D01*
X59344942Y-60200519D01*
X59406255Y-60201643D01*
X59468505Y-60184671D01*
X59522092Y-60170062D01*
X59522093Y-60170062D01*
X59530755Y-60167700D01*
X59538405Y-60163003D01*
X59538407Y-60163002D01*
X59633072Y-60104878D01*
X59633075Y-60104875D01*
X59640724Y-60100179D01*
X59646750Y-60093522D01*
X59721300Y-60011161D01*
X59721303Y-60011157D01*
X59727322Y-60004507D01*
X59783588Y-59888375D01*
X59787067Y-59867700D01*
X59804190Y-59765917D01*
X59804997Y-59761120D01*
X59805133Y-59750000D01*
X59786839Y-59622259D01*
X59733428Y-59504788D01*
X59727568Y-59497987D01*
X59727564Y-59497981D01*
X59716989Y-59485708D01*
X59687677Y-59421045D01*
X59697977Y-59350800D01*
X59719029Y-59318908D01*
X59729008Y-59307884D01*
X59777322Y-59254507D01*
X59833588Y-59138375D01*
X59854997Y-59011120D01*
X59855133Y-59000000D01*
X59836839Y-58872259D01*
X59783428Y-58754788D01*
X59699193Y-58657028D01*
X59590906Y-58586841D01*
X59582311Y-58584271D01*
X59582310Y-58584270D01*
X59475874Y-58552438D01*
X59475872Y-58552438D01*
X59467273Y-58549866D01*
X59458298Y-58549811D01*
X59458297Y-58549811D01*
X59403641Y-58549477D01*
X59338231Y-58549078D01*
X59326475Y-58552438D01*
X59222786Y-58582072D01*
X59222784Y-58582073D01*
X59214155Y-58584539D01*
X59206565Y-58589328D01*
X59125490Y-58640483D01*
X59105019Y-58653399D01*
X59019596Y-58750122D01*
X59015782Y-58758245D01*
X59015781Y-58758247D01*
X58989794Y-58813598D01*
X58964754Y-58866932D01*
X58963374Y-58875798D01*
X58946282Y-58985567D01*
X58946282Y-58985571D01*
X58944901Y-58994440D01*
X58946065Y-59003342D01*
X58946065Y-59003345D01*
X58960468Y-59113489D01*
X58960469Y-59113493D01*
X58961633Y-59122394D01*
X59013605Y-59240510D01*
X59034096Y-59264887D01*
X59062615Y-59329901D01*
X59051459Y-59400016D01*
X59032084Y-59429368D01*
X58969596Y-59500122D01*
X58965782Y-59508245D01*
X58965781Y-59508247D01*
X58939794Y-59563598D01*
X58914754Y-59616932D01*
X58913374Y-59625798D01*
X58896282Y-59735567D01*
X58896282Y-59735571D01*
X58894901Y-59744440D01*
X57735743Y-59744440D01*
X57387405Y-59396102D01*
X57353379Y-59333790D01*
X57350500Y-59307007D01*
X57350500Y-56951500D01*
X57370502Y-56883379D01*
X57424158Y-56836886D01*
X57476500Y-56825500D01*
X57800111Y-56825499D01*
X57822210Y-56825499D01*
X57865941Y-56816802D01*
X57875814Y-56814838D01*
X57875815Y-56814838D01*
X57887986Y-56812417D01*
X57898304Y-56805523D01*
X57898306Y-56805522D01*
X57952261Y-56769470D01*
X57962577Y-56762577D01*
X58012417Y-56687986D01*
X58025500Y-56622211D01*
X58025499Y-56377790D01*
X58012417Y-56312014D01*
X58005523Y-56301696D01*
X58005522Y-56301694D01*
X57969470Y-56247739D01*
X57962577Y-56237423D01*
X57887986Y-56187583D01*
X57822211Y-56174500D01*
X57550110Y-56174500D01*
X57277790Y-56174501D01*
X57234059Y-56183198D01*
X57224186Y-56185162D01*
X57224185Y-56185162D01*
X57212014Y-56187583D01*
X57205211Y-56192128D01*
X57175395Y-56199500D01*
X57172052Y-56199500D01*
X57167320Y-56200381D01*
X57163791Y-56200610D01*
X57160051Y-56200751D01*
X57132792Y-56201774D01*
X57122107Y-56206364D01*
X57117507Y-56207401D01*
X57105780Y-56210964D01*
X57101381Y-56212661D01*
X57089947Y-56214791D01*
X57080046Y-56220894D01*
X57071359Y-56224246D01*
X57000605Y-56230108D01*
X56937914Y-56196787D01*
X56903189Y-56134862D01*
X56900000Y-56106694D01*
X56900000Y-55751348D01*
X56901746Y-55730444D01*
X56904190Y-55715917D01*
X56904997Y-55711120D01*
X56905133Y-55700000D01*
X56901273Y-55673047D01*
X56900000Y-55655185D01*
X56900000Y-54601348D01*
X56901746Y-54580444D01*
X56904190Y-54565917D01*
X56904997Y-54561120D01*
X56905133Y-54550000D01*
X56901273Y-54523047D01*
X56900000Y-54505185D01*
X56900000Y-53644440D01*
X57444901Y-53644440D01*
X57446065Y-53653342D01*
X57446065Y-53653345D01*
X57460468Y-53763489D01*
X57460469Y-53763493D01*
X57461633Y-53772394D01*
X57513605Y-53890510D01*
X57519382Y-53897383D01*
X57519383Y-53897384D01*
X57590859Y-53982415D01*
X57596639Y-53989291D01*
X57704060Y-54060796D01*
X57827233Y-54099278D01*
X57836203Y-54099442D01*
X57836207Y-54099443D01*
X57894942Y-54100519D01*
X57956255Y-54101643D01*
X58018505Y-54084671D01*
X58072092Y-54070062D01*
X58072093Y-54070062D01*
X58080755Y-54067700D01*
X58088405Y-54063003D01*
X58088407Y-54063002D01*
X58183072Y-54004878D01*
X58183075Y-54004875D01*
X58190724Y-54000179D01*
X58196750Y-53993522D01*
X58271300Y-53911161D01*
X58271303Y-53911157D01*
X58277322Y-53904507D01*
X58333588Y-53788375D01*
X58338167Y-53761161D01*
X58354190Y-53665917D01*
X58354997Y-53661120D01*
X58355133Y-53650000D01*
X58336839Y-53522259D01*
X58333125Y-53514090D01*
X58324191Y-53494440D01*
X59244901Y-53494440D01*
X59246065Y-53503342D01*
X59246065Y-53503345D01*
X59260468Y-53613489D01*
X59260469Y-53613493D01*
X59261633Y-53622394D01*
X59313605Y-53740510D01*
X59396639Y-53839291D01*
X59504060Y-53910796D01*
X59627233Y-53949278D01*
X59636203Y-53949442D01*
X59636207Y-53949443D01*
X59694942Y-53950519D01*
X59756255Y-53951643D01*
X59818505Y-53934671D01*
X59872092Y-53920062D01*
X59872093Y-53920062D01*
X59880755Y-53917700D01*
X59888405Y-53913003D01*
X59888407Y-53913002D01*
X59983072Y-53854878D01*
X59983075Y-53854875D01*
X59990724Y-53850179D01*
X59996750Y-53843522D01*
X60071300Y-53761161D01*
X60071303Y-53761157D01*
X60077322Y-53754507D01*
X60133588Y-53638375D01*
X60154997Y-53511120D01*
X60155133Y-53500000D01*
X60141498Y-53404788D01*
X60138112Y-53381145D01*
X60138111Y-53381142D01*
X60136839Y-53372259D01*
X60108590Y-53310129D01*
X60087145Y-53262962D01*
X60087143Y-53262959D01*
X60083428Y-53254788D01*
X60037551Y-53201545D01*
X60005051Y-53163826D01*
X60005049Y-53163824D01*
X59999193Y-53157028D01*
X59890906Y-53086841D01*
X59882311Y-53084271D01*
X59882310Y-53084270D01*
X59775874Y-53052438D01*
X59775872Y-53052438D01*
X59767273Y-53049866D01*
X59758298Y-53049811D01*
X59758297Y-53049811D01*
X59703641Y-53049477D01*
X59638231Y-53049078D01*
X59626475Y-53052438D01*
X59522786Y-53082072D01*
X59522784Y-53082073D01*
X59514155Y-53084539D01*
X59405019Y-53153399D01*
X59399076Y-53160128D01*
X59399075Y-53160129D01*
X59364628Y-53199133D01*
X59319596Y-53250122D01*
X59315782Y-53258245D01*
X59315781Y-53258247D01*
X59296832Y-53298608D01*
X59264754Y-53366932D01*
X59258860Y-53404788D01*
X59246282Y-53485567D01*
X59246282Y-53485571D01*
X59244901Y-53494440D01*
X58324191Y-53494440D01*
X58287145Y-53412962D01*
X58287143Y-53412959D01*
X58283428Y-53404788D01*
X58199193Y-53307028D01*
X58090906Y-53236841D01*
X58082311Y-53234271D01*
X58082310Y-53234270D01*
X57975874Y-53202438D01*
X57975872Y-53202438D01*
X57967273Y-53199866D01*
X57958298Y-53199811D01*
X57958297Y-53199811D01*
X57903641Y-53199477D01*
X57838231Y-53199078D01*
X57826475Y-53202438D01*
X57722786Y-53232072D01*
X57722784Y-53232073D01*
X57714155Y-53234539D01*
X57605019Y-53303399D01*
X57519596Y-53400122D01*
X57515782Y-53408245D01*
X57515781Y-53408247D01*
X57489794Y-53463598D01*
X57464754Y-53516932D01*
X57463374Y-53525798D01*
X57446282Y-53635567D01*
X57446282Y-53635571D01*
X57444901Y-53644440D01*
X56900000Y-53644440D01*
X56900000Y-52501348D01*
X56901746Y-52480444D01*
X56904190Y-52465917D01*
X56904997Y-52461120D01*
X56905133Y-52450000D01*
X56901273Y-52423047D01*
X56900000Y-52405185D01*
X56900000Y-51401348D01*
X56901746Y-51380444D01*
X56904190Y-51365917D01*
X56904997Y-51361120D01*
X56905133Y-51350000D01*
X56901273Y-51323047D01*
X56900000Y-51305185D01*
X56900000Y-50051348D01*
X56901746Y-50030444D01*
X56904190Y-50015917D01*
X56904997Y-50011120D01*
X56905133Y-50000000D01*
X56901273Y-49973047D01*
X56900000Y-49955185D01*
X56900000Y-49756483D01*
X56920002Y-49688362D01*
X56973658Y-49641869D01*
X57043932Y-49631765D01*
X57096001Y-49651718D01*
X57112014Y-49662417D01*
X57177789Y-49675500D01*
X57449890Y-49675500D01*
X57722210Y-49675499D01*
X57765941Y-49666802D01*
X57775814Y-49664838D01*
X57775815Y-49664838D01*
X57787986Y-49662417D01*
X57798304Y-49655523D01*
X57798306Y-49655522D01*
X57852261Y-49619470D01*
X57862577Y-49612577D01*
X57912417Y-49537986D01*
X57925500Y-49472211D01*
X57925499Y-49227790D01*
X57912417Y-49162014D01*
X57905523Y-49151696D01*
X57905522Y-49151694D01*
X57869470Y-49097739D01*
X57862577Y-49087423D01*
X57787986Y-49037583D01*
X57722211Y-49024500D01*
X57601661Y-49024500D01*
X57533540Y-49004498D01*
X57512566Y-48987595D01*
X57337405Y-48812434D01*
X57303379Y-48750122D01*
X57300500Y-48723339D01*
X57300500Y-47182703D01*
X57320502Y-47114582D01*
X57374158Y-47068089D01*
X57444432Y-47057985D01*
X57509012Y-47087479D01*
X57522949Y-47101626D01*
X57596639Y-47189291D01*
X57704060Y-47260796D01*
X57827233Y-47299278D01*
X57836203Y-47299442D01*
X57836207Y-47299443D01*
X57894942Y-47300519D01*
X57956255Y-47301643D01*
X58018505Y-47284671D01*
X58072092Y-47270062D01*
X58072093Y-47270062D01*
X58080755Y-47267700D01*
X58088405Y-47263003D01*
X58088407Y-47263002D01*
X58183072Y-47204878D01*
X58183075Y-47204875D01*
X58190724Y-47200179D01*
X58196750Y-47193522D01*
X58271300Y-47111161D01*
X58271303Y-47111157D01*
X58277322Y-47104507D01*
X58333588Y-46988375D01*
X58348578Y-46899278D01*
X58354190Y-46865917D01*
X58354997Y-46861120D01*
X58355133Y-46850000D01*
X58336839Y-46722259D01*
X58283428Y-46604788D01*
X58247843Y-46563489D01*
X58205051Y-46513826D01*
X58205049Y-46513824D01*
X58199193Y-46507028D01*
X58102630Y-46444440D01*
X59244901Y-46444440D01*
X59246065Y-46453342D01*
X59246065Y-46453345D01*
X59260468Y-46563489D01*
X59260469Y-46563493D01*
X59261633Y-46572394D01*
X59313605Y-46690510D01*
X59396639Y-46789291D01*
X59504060Y-46860796D01*
X59627233Y-46899278D01*
X59636203Y-46899442D01*
X59636207Y-46899443D01*
X59694942Y-46900519D01*
X59756255Y-46901643D01*
X59818505Y-46884672D01*
X59872092Y-46870062D01*
X59872093Y-46870062D01*
X59880755Y-46867700D01*
X59888405Y-46863003D01*
X59888407Y-46863002D01*
X59983072Y-46804878D01*
X59983075Y-46804875D01*
X59990724Y-46800179D01*
X59996750Y-46793522D01*
X60071300Y-46711161D01*
X60071303Y-46711157D01*
X60077322Y-46704507D01*
X60133588Y-46588375D01*
X60136832Y-46569097D01*
X60154190Y-46465917D01*
X60154997Y-46461120D01*
X60155133Y-46450000D01*
X60144271Y-46374153D01*
X60138112Y-46331145D01*
X60138111Y-46331142D01*
X60136839Y-46322259D01*
X60130724Y-46308809D01*
X60087145Y-46212962D01*
X60087143Y-46212959D01*
X60083428Y-46204788D01*
X60049935Y-46165917D01*
X60005051Y-46113826D01*
X60005049Y-46113824D01*
X59999193Y-46107028D01*
X59890906Y-46036841D01*
X59882311Y-46034271D01*
X59882310Y-46034270D01*
X59775874Y-46002438D01*
X59775872Y-46002438D01*
X59767273Y-45999866D01*
X59758298Y-45999811D01*
X59758297Y-45999811D01*
X59703641Y-45999477D01*
X59638231Y-45999078D01*
X59626475Y-46002438D01*
X59522786Y-46032072D01*
X59522784Y-46032073D01*
X59514155Y-46034539D01*
X59405019Y-46103399D01*
X59319596Y-46200122D01*
X59315782Y-46208245D01*
X59315781Y-46208247D01*
X59291033Y-46260960D01*
X59264754Y-46316932D01*
X59263374Y-46325798D01*
X59246282Y-46435567D01*
X59246282Y-46435571D01*
X59244901Y-46444440D01*
X58102630Y-46444440D01*
X58090906Y-46436841D01*
X58082311Y-46434271D01*
X58082310Y-46434270D01*
X57976351Y-46402581D01*
X57916818Y-46363899D01*
X57887648Y-46299171D01*
X57888200Y-46260960D01*
X57904190Y-46165917D01*
X57904997Y-46161120D01*
X57905133Y-46150000D01*
X57897748Y-46098433D01*
X57888112Y-46031145D01*
X57888111Y-46031142D01*
X57886839Y-46022259D01*
X57877421Y-46001545D01*
X57837145Y-45912962D01*
X57837143Y-45912959D01*
X57833428Y-45904788D01*
X57795522Y-45860796D01*
X57755051Y-45813826D01*
X57755049Y-45813824D01*
X57749193Y-45807028D01*
X57640906Y-45736841D01*
X57632311Y-45734271D01*
X57632310Y-45734270D01*
X57525874Y-45702438D01*
X57525872Y-45702438D01*
X57517273Y-45699866D01*
X57508298Y-45699811D01*
X57508297Y-45699811D01*
X57453641Y-45699477D01*
X57388231Y-45699078D01*
X57326193Y-45716808D01*
X57272786Y-45732072D01*
X57272784Y-45732073D01*
X57264155Y-45734539D01*
X57155019Y-45803399D01*
X57149076Y-45810128D01*
X57149075Y-45810129D01*
X57120441Y-45842551D01*
X57060355Y-45880369D01*
X56989362Y-45879699D01*
X56930001Y-45840753D01*
X56901119Y-45775896D01*
X56900000Y-45759143D01*
X56900000Y-45501348D01*
X56901746Y-45480444D01*
X56904190Y-45465917D01*
X56904997Y-45461120D01*
X56905133Y-45450000D01*
X56901273Y-45423047D01*
X56900000Y-45405185D01*
X56900000Y-44351348D01*
X56901746Y-44330444D01*
X56904190Y-44315917D01*
X56904997Y-44311120D01*
X56905133Y-44300000D01*
X56901273Y-44273047D01*
X56900000Y-44255185D01*
X56900000Y-43051348D01*
X56901746Y-43030444D01*
X56904190Y-43015917D01*
X56904997Y-43011120D01*
X56905133Y-43000000D01*
X56901273Y-42973047D01*
X56900000Y-42955185D01*
X56900000Y-42124716D01*
X56920002Y-42056595D01*
X56973658Y-42010102D01*
X57040563Y-42000482D01*
X57040622Y-41999883D01*
X57043066Y-42000123D01*
X57043068Y-42000123D01*
X57046915Y-42000500D01*
X57049999Y-42000500D01*
X57053067Y-42000650D01*
X57053056Y-42000866D01*
X57064443Y-42002199D01*
X57073750Y-42002655D01*
X57085066Y-42005340D01*
X57086438Y-42005153D01*
X57108581Y-42010123D01*
X57112014Y-42012417D01*
X57177789Y-42025500D01*
X57449890Y-42025500D01*
X57722210Y-42025499D01*
X57765941Y-42016802D01*
X57775814Y-42014838D01*
X57775815Y-42014838D01*
X57787986Y-42012417D01*
X57798304Y-42005523D01*
X57798306Y-42005522D01*
X57852261Y-41969470D01*
X57862577Y-41962577D01*
X57912417Y-41887986D01*
X57925500Y-41822211D01*
X57925499Y-41577790D01*
X57923340Y-41566932D01*
X57914838Y-41524186D01*
X57914838Y-41524185D01*
X57912417Y-41512014D01*
X57905523Y-41501696D01*
X57905522Y-41501694D01*
X57869470Y-41447739D01*
X57862577Y-41437423D01*
X57787986Y-41387583D01*
X57722211Y-41374500D01*
X57702473Y-41374500D01*
X57426499Y-41374501D01*
X57358380Y-41354499D01*
X57311887Y-41300844D01*
X57300500Y-41248501D01*
X57300500Y-40351500D01*
X57320502Y-40283379D01*
X57374158Y-40236886D01*
X57426500Y-40225500D01*
X57830290Y-40225500D01*
X57841272Y-40225980D01*
X57867820Y-40228303D01*
X57867822Y-40228303D01*
X57878807Y-40229264D01*
X57915215Y-40219508D01*
X57925942Y-40217130D01*
X57929301Y-40216538D01*
X57963045Y-40210588D01*
X57972590Y-40205077D01*
X57975866Y-40203885D01*
X57979034Y-40202408D01*
X57989684Y-40199554D01*
X58020544Y-40177945D01*
X58029815Y-40172039D01*
X58052906Y-40158707D01*
X58062455Y-40153194D01*
X58086685Y-40124317D01*
X58094111Y-40116215D01*
X58422788Y-39787538D01*
X58485100Y-39753512D01*
X58496309Y-39751599D01*
X58497277Y-39751478D01*
X58506255Y-39751643D01*
X58568505Y-39734672D01*
X58622092Y-39720062D01*
X58622093Y-39720062D01*
X58630755Y-39717700D01*
X58638405Y-39713003D01*
X58638407Y-39713002D01*
X58733072Y-39654878D01*
X58733075Y-39654875D01*
X58740724Y-39650179D01*
X58769006Y-39618934D01*
X58821300Y-39561161D01*
X58821303Y-39561157D01*
X58827322Y-39554507D01*
X58883588Y-39438375D01*
X58887674Y-39414092D01*
X58904190Y-39315917D01*
X58904997Y-39311120D01*
X58905133Y-39300000D01*
X58890799Y-39199909D01*
X58888112Y-39181145D01*
X58888111Y-39181142D01*
X58886839Y-39172259D01*
X58883125Y-39164090D01*
X58837145Y-39062962D01*
X58837143Y-39062959D01*
X58833428Y-39054788D01*
X58804618Y-39021352D01*
X58755051Y-38963826D01*
X58755049Y-38963824D01*
X58749193Y-38957028D01*
X58640906Y-38886841D01*
X58632311Y-38884271D01*
X58632310Y-38884270D01*
X58525874Y-38852438D01*
X58525872Y-38852438D01*
X58517273Y-38849866D01*
X58508298Y-38849811D01*
X58508297Y-38849811D01*
X58453641Y-38849477D01*
X58388231Y-38849078D01*
X58376475Y-38852438D01*
X58272786Y-38882072D01*
X58272784Y-38882073D01*
X58264155Y-38884539D01*
X58256564Y-38889329D01*
X58256561Y-38889330D01*
X58218735Y-38913196D01*
X58150450Y-38932630D01*
X58082498Y-38912061D01*
X58036454Y-38858019D01*
X58025500Y-38806634D01*
X58025500Y-38654440D01*
X60108770Y-38654440D01*
X60110107Y-38674837D01*
X60123200Y-38874604D01*
X60124621Y-38880200D01*
X60124622Y-38880205D01*
X60168961Y-39054788D01*
X60177511Y-39088452D01*
X60179928Y-39093694D01*
X60179928Y-39093695D01*
X60216147Y-39172259D01*
X60269883Y-39288821D01*
X60397222Y-39469002D01*
X60555264Y-39622961D01*
X60560060Y-39626166D01*
X60560063Y-39626168D01*
X60644261Y-39682427D01*
X60738717Y-39745540D01*
X60744020Y-39747818D01*
X60744023Y-39747820D01*
X60936129Y-39830355D01*
X60941436Y-39832635D01*
X61021088Y-39850658D01*
X61150995Y-39880054D01*
X61151001Y-39880055D01*
X61156632Y-39881329D01*
X61162403Y-39881556D01*
X61162405Y-39881556D01*
X61230211Y-39884220D01*
X61377098Y-39889991D01*
X61486275Y-39874161D01*
X61589738Y-39859160D01*
X61589743Y-39859159D01*
X61595452Y-39858331D01*
X61600916Y-39856476D01*
X61600921Y-39856475D01*
X61798907Y-39789268D01*
X61798912Y-39789266D01*
X61804379Y-39787410D01*
X61996884Y-39679602D01*
X62001817Y-39675500D01*
X62147293Y-39554507D01*
X62166518Y-39538518D01*
X62220985Y-39473029D01*
X62303908Y-39373326D01*
X62303910Y-39373323D01*
X62307602Y-39368884D01*
X62415410Y-39176379D01*
X62417266Y-39170912D01*
X62417268Y-39170907D01*
X62484475Y-38972921D01*
X62484476Y-38972916D01*
X62486331Y-38967452D01*
X62487159Y-38961743D01*
X62487160Y-38961738D01*
X62517458Y-38752772D01*
X62517991Y-38749098D01*
X62519643Y-38686000D01*
X62499454Y-38466289D01*
X62439565Y-38253936D01*
X62341980Y-38056053D01*
X62209967Y-37879267D01*
X62047949Y-37729499D01*
X61861350Y-37611764D01*
X61656421Y-37530006D01*
X61650761Y-37528880D01*
X61650757Y-37528879D01*
X61445691Y-37488089D01*
X61445688Y-37488089D01*
X61440024Y-37486962D01*
X61434249Y-37486886D01*
X61434245Y-37486886D01*
X61323504Y-37485437D01*
X61219406Y-37484074D01*
X61213709Y-37485053D01*
X61213708Y-37485053D01*
X61007654Y-37520459D01*
X61007653Y-37520459D01*
X61001957Y-37521438D01*
X60794957Y-37597804D01*
X60605341Y-37710614D01*
X60439457Y-37856090D01*
X60302863Y-38029360D01*
X60200131Y-38224620D01*
X60134703Y-38435333D01*
X60108770Y-38654440D01*
X58025500Y-38654440D01*
X58025500Y-36950108D01*
X58019255Y-36892620D01*
X58011048Y-36870727D01*
X58005867Y-36799920D01*
X58039789Y-36737551D01*
X58102045Y-36703424D01*
X58129031Y-36700500D01*
X61276920Y-36700500D01*
X61294242Y-36702466D01*
G37*
G04 #@! TD.AperFunction*
G04 #@! TA.AperFunction,Conductor*
G36*
X56642121Y-36720502D02*
G01*
X56688614Y-36774158D01*
X56700000Y-36826500D01*
X56700000Y-39750329D01*
X56692401Y-39793423D01*
X56674500Y-39842606D01*
X56674500Y-39957394D01*
X56678270Y-39967753D01*
X56678271Y-39967757D01*
X56691901Y-40005204D01*
X56699500Y-40048298D01*
X56699500Y-41547634D01*
X56699304Y-41550307D01*
X56697575Y-41555342D01*
X56698011Y-41566964D01*
X56698011Y-41566966D01*
X56699411Y-41604255D01*
X56699500Y-41608981D01*
X56699500Y-41627948D01*
X56699833Y-41629736D01*
X56700000Y-41633366D01*
X56700000Y-46558869D01*
X56699850Y-46565021D01*
X56699801Y-46566031D01*
X56699500Y-46569097D01*
X56699500Y-46572181D01*
X56699350Y-46575249D01*
X56699134Y-46575238D01*
X56697802Y-46586613D01*
X56697346Y-46595928D01*
X56694660Y-46607248D01*
X56696229Y-46618777D01*
X56696229Y-46618778D01*
X56698349Y-46634355D01*
X56699500Y-46651346D01*
X56699500Y-48847634D01*
X56699304Y-48850307D01*
X56697575Y-48855342D01*
X56698011Y-48866964D01*
X56698011Y-48866966D01*
X56699411Y-48904255D01*
X56699500Y-48908981D01*
X56699500Y-48927948D01*
X56699833Y-48929736D01*
X56700000Y-48933366D01*
X56700000Y-63173500D01*
X56679998Y-63241621D01*
X56626342Y-63288114D01*
X56574000Y-63299500D01*
X54926000Y-63299500D01*
X54857879Y-63279498D01*
X54811386Y-63225842D01*
X54800000Y-63173500D01*
X54800000Y-63136616D01*
X54812608Y-63081677D01*
X54833588Y-63038375D01*
X54854997Y-62911120D01*
X54855133Y-62900000D01*
X54836839Y-62772259D01*
X54811299Y-62716087D01*
X54800000Y-62663936D01*
X54800000Y-57560035D01*
X54800140Y-57554101D01*
X54800221Y-57552380D01*
X54800500Y-57549430D01*
X54800500Y-54550570D01*
X54800221Y-54547620D01*
X54800140Y-54545899D01*
X54800000Y-54539965D01*
X54800000Y-53867529D01*
X54800167Y-53862430D01*
X54800500Y-53859901D01*
X54800499Y-53440100D01*
X54800167Y-53437575D01*
X54800000Y-53432489D01*
X54800000Y-50760035D01*
X54800140Y-50754101D01*
X54800221Y-50752380D01*
X54800500Y-50749430D01*
X54800500Y-47750570D01*
X54800221Y-47747620D01*
X54800140Y-47745899D01*
X54800000Y-47739965D01*
X54800000Y-43560035D01*
X54800140Y-43554101D01*
X54800221Y-43552380D01*
X54800500Y-43549430D01*
X54800500Y-40550570D01*
X54800221Y-40547620D01*
X54800140Y-40545899D01*
X54800000Y-40539965D01*
X54800000Y-37251348D01*
X54801746Y-37230444D01*
X54804190Y-37215917D01*
X54804997Y-37211120D01*
X54805133Y-37200000D01*
X54801273Y-37173047D01*
X54800000Y-37155185D01*
X54800000Y-36826500D01*
X54820002Y-36758379D01*
X54873658Y-36711886D01*
X54926000Y-36700500D01*
X56574000Y-36700500D01*
X56642121Y-36720502D01*
G37*
G04 #@! TD.AperFunction*
M02*
