%TF.GenerationSoftware,KiCad,Pcbnew,(6.0.7-1)-1*%
%TF.CreationDate,2023-01-06T03:53:44-05:00*%
%TF.ProjectId,O32controller,4f333263-6f6e-4747-926f-6c6c65722e6b,rev?*%
%TF.SameCoordinates,Original*%
%TF.FileFunction,Drillmap*%
%TF.FilePolarity,Positive*%
%FSLAX45Y45*%
G04 Gerber Fmt 4.5, Leading zero omitted, Abs format (unit mm)*
G04 Created by KiCad (PCBNEW (6.0.7-1)-1) date 2023-01-06 03:53:44*
%MOMM*%
%LPD*%
G01*
G04 APERTURE LIST*
%ADD10C,0.150000*%
%ADD11C,0.200000*%
%ADD12C,0.020000*%
%ADD13C,0.125000*%
%ADD14C,0.170000*%
G04 APERTURE END LIST*
D10*
X6231400Y-6131400D02*
G75*
G03*
X6231400Y-6131400I-100000J0D01*
G01*
X3868600Y-3650000D02*
X6131400Y-3650000D01*
X3650000Y-6131400D02*
G75*
G03*
X3868600Y-6350000I218600J0D01*
G01*
X3868600Y-3650000D02*
G75*
G03*
X3650000Y-3868600I0J-218600D01*
G01*
X3868600Y-6350000D02*
X6131400Y-6350000D01*
X6350000Y-3868600D02*
X6350000Y-6131400D01*
X6350000Y-3868600D02*
G75*
G03*
X6131400Y-3650000I-218600J0D01*
G01*
X3968600Y-6131400D02*
G75*
G03*
X3968600Y-6131400I-100000J0D01*
G01*
X3968600Y-3868600D02*
G75*
G03*
X3968600Y-3868600I-100000J0D01*
G01*
X6131400Y-6350000D02*
G75*
G03*
X6350000Y-6131400I0J218600D01*
G01*
X6231400Y-3868600D02*
G75*
G03*
X6231400Y-3868600I-100000J0D01*
G01*
X3650000Y-3868600D02*
X3650000Y-6131400D01*
D11*
D12*
X3700000Y-4010000D02*
X3720000Y-4030000D01*
X3720000Y-4010000D02*
X3700000Y-4030000D01*
X3790000Y-5575000D02*
X3810000Y-5595000D01*
X3810000Y-5575000D02*
X3790000Y-5595000D01*
X3805000Y-5125000D02*
X3825000Y-5145000D01*
X3825000Y-5125000D02*
X3805000Y-5145000D01*
X3884834Y-4402081D02*
X3904834Y-4422081D01*
X3904834Y-4402081D02*
X3884834Y-4422081D01*
X3885000Y-5020000D02*
X3905000Y-5040000D01*
X3905000Y-5020000D02*
X3885000Y-5040000D01*
X3890000Y-4095000D02*
X3910000Y-4115000D01*
X3910000Y-4095000D02*
X3890000Y-4115000D01*
X3945000Y-4975000D02*
X3965000Y-4995000D01*
X3965000Y-4975000D02*
X3945000Y-4995000D01*
X3960000Y-4285000D02*
X3980000Y-4305000D01*
X3980000Y-4285000D02*
X3960000Y-4305000D01*
X3960000Y-5065000D02*
X3980000Y-5085000D01*
X3980000Y-5065000D02*
X3960000Y-5085000D01*
X3965000Y-5290000D02*
X3985000Y-5310000D01*
X3985000Y-5290000D02*
X3965000Y-5310000D01*
X3965000Y-5760000D02*
X3985000Y-5780000D01*
X3985000Y-5760000D02*
X3965000Y-5780000D01*
X3970000Y-5570000D02*
X3990000Y-5590000D01*
X3990000Y-5570000D02*
X3970000Y-5590000D01*
X3980000Y-5210000D02*
X4000000Y-5230000D01*
X4000000Y-5210000D02*
X3980000Y-5230000D01*
X3990000Y-4905000D02*
X4010000Y-4925000D01*
X4010000Y-4905000D02*
X3990000Y-4925000D01*
X4020000Y-4435000D02*
X4040000Y-4455000D01*
X4040000Y-4435000D02*
X4020000Y-4455000D01*
X4025000Y-4015000D02*
X4045000Y-4035000D01*
X4045000Y-4015000D02*
X4025000Y-4035000D01*
X4035000Y-4270000D02*
X4055000Y-4290000D01*
X4055000Y-4270000D02*
X4035000Y-4290000D01*
X4040000Y-5045000D02*
X4060000Y-5065000D01*
X4060000Y-5045000D02*
X4040000Y-5065000D01*
X4050000Y-5670000D02*
X4070000Y-5690000D01*
X4070000Y-5670000D02*
X4050000Y-5690000D01*
X4055000Y-4665000D02*
X4075000Y-4685000D01*
X4075000Y-4665000D02*
X4055000Y-4685000D01*
X4100000Y-4580000D02*
X4120000Y-4600000D01*
X4120000Y-4580000D02*
X4100000Y-4600000D01*
X4110000Y-5290000D02*
X4130000Y-5310000D01*
X4130000Y-5290000D02*
X4110000Y-5310000D01*
X4125000Y-4650000D02*
X4145000Y-4670000D01*
X4145000Y-4650000D02*
X4125000Y-4670000D01*
X4170000Y-5820000D02*
X4190000Y-5840000D01*
X4190000Y-5820000D02*
X4170000Y-5840000D01*
X4220000Y-5770000D02*
X4240000Y-5790000D01*
X4240000Y-5770000D02*
X4220000Y-5790000D01*
X4265000Y-5430000D02*
X4285000Y-5450000D01*
X4285000Y-5430000D02*
X4265000Y-5450000D01*
X4300000Y-4745000D02*
X4320000Y-4765000D01*
X4320000Y-4745000D02*
X4300000Y-4765000D01*
X4305000Y-5650000D02*
X4325000Y-5670000D01*
X4325000Y-5650000D02*
X4305000Y-5670000D01*
X4325000Y-4165000D02*
X4345000Y-4185000D01*
X4345000Y-4165000D02*
X4325000Y-4185000D01*
X4325000Y-6080000D02*
X4345000Y-6100000D01*
X4345000Y-6080000D02*
X4325000Y-6100000D01*
X4330000Y-3895000D02*
X4350000Y-3915000D01*
X4350000Y-3895000D02*
X4330000Y-3915000D01*
X4370000Y-4770000D02*
X4390000Y-4790000D01*
X4390000Y-4770000D02*
X4370000Y-4790000D01*
X4375000Y-6080000D02*
X4395000Y-6100000D01*
X4395000Y-6080000D02*
X4375000Y-6100000D01*
X4380000Y-3895000D02*
X4400000Y-3915000D01*
X4400000Y-3895000D02*
X4380000Y-3915000D01*
X4380000Y-4245000D02*
X4400000Y-4265000D01*
X4400000Y-4245000D02*
X4380000Y-4265000D01*
X4380000Y-4315000D02*
X4400000Y-4335000D01*
X4400000Y-4315000D02*
X4380000Y-4335000D01*
X4385000Y-4540000D02*
X4405000Y-4560000D01*
X4405000Y-4540000D02*
X4385000Y-4560000D01*
X4425000Y-5225000D02*
X4445000Y-5245000D01*
X4445000Y-5225000D02*
X4425000Y-5245000D01*
X4425000Y-6080000D02*
X4445000Y-6100000D01*
X4445000Y-6080000D02*
X4425000Y-6100000D01*
X4430000Y-3895000D02*
X4450000Y-3915000D01*
X4450000Y-3895000D02*
X4430000Y-3915000D01*
X4445737Y-5679263D02*
X4465737Y-5699263D01*
X4465737Y-5679263D02*
X4445737Y-5699263D01*
X4475000Y-6080000D02*
X4495000Y-6100000D01*
X4495000Y-6080000D02*
X4475000Y-6100000D01*
X4480000Y-3895000D02*
X4500000Y-3915000D01*
X4500000Y-3895000D02*
X4480000Y-3915000D01*
X4495000Y-4310000D02*
X4515000Y-4330000D01*
X4515000Y-4310000D02*
X4495000Y-4330000D01*
X4495000Y-5220000D02*
X4515000Y-5240000D01*
X4515000Y-5220000D02*
X4495000Y-5240000D01*
X4525000Y-6080000D02*
X4545000Y-6100000D01*
X4545000Y-6080000D02*
X4525000Y-6100000D01*
X4530000Y-3895000D02*
X4550000Y-3915000D01*
X4550000Y-3895000D02*
X4530000Y-3915000D01*
X4565000Y-5410000D02*
X4585000Y-5430000D01*
X4585000Y-5410000D02*
X4565000Y-5430000D01*
X4575000Y-6080000D02*
X4595000Y-6100000D01*
X4595000Y-6080000D02*
X4575000Y-6100000D01*
X4580000Y-3895000D02*
X4600000Y-3915000D01*
X4600000Y-3895000D02*
X4580000Y-3915000D01*
X4600000Y-5475000D02*
X4620000Y-5495000D01*
X4620000Y-5475000D02*
X4600000Y-5495000D01*
X4605000Y-4735000D02*
X4625000Y-4755000D01*
X4625000Y-4735000D02*
X4605000Y-4755000D01*
X4625000Y-6080000D02*
X4645000Y-6100000D01*
X4645000Y-6080000D02*
X4625000Y-6100000D01*
X4630000Y-3895000D02*
X4650000Y-3915000D01*
X4650000Y-3895000D02*
X4630000Y-3915000D01*
X4650000Y-3945000D02*
X4670000Y-3965000D01*
X4670000Y-3945000D02*
X4650000Y-3965000D01*
X4650000Y-3995000D02*
X4670000Y-4015000D01*
X4670000Y-3995000D02*
X4650000Y-4015000D01*
X4650000Y-4045000D02*
X4670000Y-4065000D01*
X4670000Y-4045000D02*
X4650000Y-4065000D01*
X4650000Y-5935000D02*
X4670000Y-5955000D01*
X4670000Y-5935000D02*
X4650000Y-5955000D01*
X4650000Y-5985000D02*
X4670000Y-6005000D01*
X4670000Y-5985000D02*
X4650000Y-6005000D01*
X4650000Y-6035000D02*
X4670000Y-6055000D01*
X4670000Y-6035000D02*
X4650000Y-6055000D01*
X4652500Y-4795000D02*
X4672500Y-4815000D01*
X4672500Y-4795000D02*
X4652500Y-4815000D01*
X4670000Y-4557500D02*
X4690000Y-4577500D01*
X4690000Y-4557500D02*
X4670000Y-4577500D01*
X4670000Y-5470000D02*
X4690000Y-5490000D01*
X4690000Y-5470000D02*
X4670000Y-5490000D01*
X4695000Y-5575000D02*
X4715000Y-5595000D01*
X4715000Y-5575000D02*
X4695000Y-5595000D01*
X4715000Y-3715000D02*
X4735000Y-3735000D01*
X4735000Y-3715000D02*
X4715000Y-3735000D01*
X4715000Y-4350000D02*
X4735000Y-4370000D01*
X4735000Y-4350000D02*
X4715000Y-4370000D01*
X4720000Y-4420000D02*
X4740000Y-4440000D01*
X4740000Y-4420000D02*
X4720000Y-4440000D01*
X4720000Y-6275000D02*
X4740000Y-6295000D01*
X4740000Y-6275000D02*
X4720000Y-6295000D01*
X4725000Y-5055000D02*
X4745000Y-5075000D01*
X4745000Y-5055000D02*
X4725000Y-5075000D01*
X4725000Y-5840000D02*
X4745000Y-5860000D01*
X4745000Y-5840000D02*
X4725000Y-5860000D01*
X4730000Y-5215000D02*
X4750000Y-5235000D01*
X4750000Y-5215000D02*
X4730000Y-5235000D01*
X4735000Y-5125000D02*
X4755000Y-5145000D01*
X4755000Y-5125000D02*
X4735000Y-5145000D01*
X4780000Y-4235000D02*
X4800000Y-4255000D01*
X4800000Y-4235000D02*
X4780000Y-4255000D01*
X4780000Y-4315000D02*
X4800000Y-4335000D01*
X4800000Y-4315000D02*
X4780000Y-4335000D01*
X4800000Y-5395000D02*
X4820000Y-5415000D01*
X4820000Y-5395000D02*
X4800000Y-5415000D01*
X4850000Y-3715000D02*
X4870000Y-3735000D01*
X4870000Y-3715000D02*
X4850000Y-3735000D01*
X4850000Y-6275000D02*
X4870000Y-6295000D01*
X4870000Y-6275000D02*
X4850000Y-6295000D01*
X4870000Y-5785000D02*
X4890000Y-5805000D01*
X4890000Y-5785000D02*
X4870000Y-5805000D01*
X4925000Y-4125000D02*
X4945000Y-4145000D01*
X4945000Y-4125000D02*
X4925000Y-4145000D01*
X4925000Y-5520000D02*
X4945000Y-5540000D01*
X4945000Y-5520000D02*
X4925000Y-5540000D01*
X4930000Y-4195000D02*
X4950000Y-4215000D01*
X4950000Y-4195000D02*
X4930000Y-4215000D01*
X4935000Y-4510000D02*
X4955000Y-4530000D01*
X4955000Y-4510000D02*
X4935000Y-4530000D01*
X4950000Y-4360000D02*
X4970000Y-4380000D01*
X4970000Y-4360000D02*
X4950000Y-4380000D01*
X4950000Y-5590000D02*
X4970000Y-5610000D01*
X4970000Y-5590000D02*
X4950000Y-5610000D01*
X4955000Y-5660000D02*
X4975000Y-5680000D01*
X4975000Y-5660000D02*
X4955000Y-5680000D01*
X4995000Y-5250000D02*
X5015000Y-5270000D01*
X5015000Y-5250000D02*
X4995000Y-5270000D01*
X5010000Y-4505000D02*
X5030000Y-4525000D01*
X5030000Y-4505000D02*
X5010000Y-4525000D01*
X5055000Y-5505000D02*
X5075000Y-5525000D01*
X5075000Y-5505000D02*
X5055000Y-5525000D01*
X5060000Y-5745000D02*
X5080000Y-5765000D01*
X5080000Y-5745000D02*
X5060000Y-5765000D01*
X5060000Y-5855000D02*
X5080000Y-5875000D01*
X5080000Y-5855000D02*
X5060000Y-5875000D01*
X5125000Y-4675000D02*
X5145000Y-4695000D01*
X5145000Y-4675000D02*
X5125000Y-4695000D01*
X5125000Y-5195000D02*
X5145000Y-5215000D01*
X5145000Y-5195000D02*
X5125000Y-5215000D01*
X5175000Y-4030000D02*
X5195000Y-4050000D01*
X5195000Y-4030000D02*
X5175000Y-4050000D01*
X5175000Y-4080000D02*
X5195000Y-4100000D01*
X5195000Y-4080000D02*
X5175000Y-4100000D01*
X5175000Y-4130000D02*
X5195000Y-4150000D01*
X5195000Y-4130000D02*
X5175000Y-4150000D01*
X5175000Y-4180000D02*
X5195000Y-4200000D01*
X5195000Y-4180000D02*
X5175000Y-4200000D01*
X5175000Y-4230000D02*
X5195000Y-4250000D01*
X5195000Y-4230000D02*
X5175000Y-4250000D01*
X5175000Y-4280000D02*
X5195000Y-4300000D01*
X5195000Y-4280000D02*
X5175000Y-4300000D01*
X5175000Y-4330000D02*
X5195000Y-4350000D01*
X5195000Y-4330000D02*
X5175000Y-4350000D01*
X5175000Y-4380000D02*
X5195000Y-4400000D01*
X5195000Y-4380000D02*
X5175000Y-4400000D01*
X5175000Y-4845000D02*
X5195000Y-4865000D01*
X5195000Y-4845000D02*
X5175000Y-4865000D01*
X5175000Y-5430000D02*
X5195000Y-5450000D01*
X5195000Y-5430000D02*
X5175000Y-5450000D01*
X5175000Y-5480000D02*
X5195000Y-5500000D01*
X5195000Y-5480000D02*
X5175000Y-5500000D01*
X5175000Y-5530000D02*
X5195000Y-5550000D01*
X5195000Y-5530000D02*
X5175000Y-5550000D01*
X5175000Y-5580000D02*
X5195000Y-5600000D01*
X5195000Y-5580000D02*
X5175000Y-5600000D01*
X5175000Y-5630000D02*
X5195000Y-5650000D01*
X5195000Y-5630000D02*
X5175000Y-5650000D01*
X5175000Y-5680000D02*
X5195000Y-5700000D01*
X5195000Y-5680000D02*
X5175000Y-5700000D01*
X5175000Y-5730000D02*
X5195000Y-5750000D01*
X5195000Y-5730000D02*
X5175000Y-5750000D01*
X5175000Y-5780000D02*
X5195000Y-5800000D01*
X5195000Y-5780000D02*
X5175000Y-5800000D01*
X5195000Y-4585000D02*
X5215000Y-4605000D01*
X5215000Y-4585000D02*
X5195000Y-4605000D01*
X5210000Y-4700000D02*
X5230000Y-4720000D01*
X5230000Y-4700000D02*
X5210000Y-4720000D01*
X5220000Y-4055000D02*
X5240000Y-4075000D01*
X5240000Y-4055000D02*
X5220000Y-4075000D01*
X5220000Y-4105000D02*
X5240000Y-4125000D01*
X5240000Y-4105000D02*
X5220000Y-4125000D01*
X5220000Y-4155000D02*
X5240000Y-4175000D01*
X5240000Y-4155000D02*
X5220000Y-4175000D01*
X5220000Y-4205000D02*
X5240000Y-4225000D01*
X5240000Y-4205000D02*
X5220000Y-4225000D01*
X5220000Y-4255000D02*
X5240000Y-4275000D01*
X5240000Y-4255000D02*
X5220000Y-4275000D01*
X5220000Y-4305000D02*
X5240000Y-4325000D01*
X5240000Y-4305000D02*
X5220000Y-4325000D01*
X5220000Y-4355000D02*
X5240000Y-4375000D01*
X5240000Y-4355000D02*
X5220000Y-4375000D01*
X5220000Y-4405000D02*
X5240000Y-4425000D01*
X5240000Y-4405000D02*
X5220000Y-4425000D01*
X5220000Y-4820000D02*
X5240000Y-4840000D01*
X5240000Y-4820000D02*
X5220000Y-4840000D01*
X5220000Y-4870000D02*
X5240000Y-4890000D01*
X5240000Y-4870000D02*
X5220000Y-4890000D01*
X5220000Y-4920000D02*
X5240000Y-4940000D01*
X5240000Y-4920000D02*
X5220000Y-4940000D01*
X5220000Y-4970000D02*
X5240000Y-4990000D01*
X5240000Y-4970000D02*
X5220000Y-4990000D01*
X5220000Y-5020000D02*
X5240000Y-5040000D01*
X5240000Y-5020000D02*
X5220000Y-5040000D01*
X5220000Y-5070000D02*
X5240000Y-5090000D01*
X5240000Y-5070000D02*
X5220000Y-5090000D01*
X5220000Y-5120000D02*
X5240000Y-5140000D01*
X5240000Y-5120000D02*
X5220000Y-5140000D01*
X5220000Y-5455000D02*
X5240000Y-5475000D01*
X5240000Y-5455000D02*
X5220000Y-5475000D01*
X5220000Y-5505000D02*
X5240000Y-5525000D01*
X5240000Y-5505000D02*
X5220000Y-5525000D01*
X5220000Y-5555000D02*
X5240000Y-5575000D01*
X5240000Y-5555000D02*
X5220000Y-5575000D01*
X5220000Y-5605000D02*
X5240000Y-5625000D01*
X5240000Y-5605000D02*
X5220000Y-5625000D01*
X5220000Y-5655000D02*
X5240000Y-5675000D01*
X5240000Y-5655000D02*
X5220000Y-5675000D01*
X5220000Y-5705000D02*
X5240000Y-5725000D01*
X5240000Y-5705000D02*
X5220000Y-5725000D01*
X5220000Y-5755000D02*
X5240000Y-5775000D01*
X5240000Y-5755000D02*
X5220000Y-5775000D01*
X5220000Y-5805000D02*
X5240000Y-5825000D01*
X5240000Y-5805000D02*
X5220000Y-5825000D01*
X5260000Y-5265000D02*
X5280000Y-5285000D01*
X5280000Y-5265000D02*
X5260000Y-5285000D01*
X5265000Y-4030000D02*
X5285000Y-4050000D01*
X5285000Y-4030000D02*
X5265000Y-4050000D01*
X5265000Y-4080000D02*
X5285000Y-4100000D01*
X5285000Y-4080000D02*
X5265000Y-4100000D01*
X5265000Y-4130000D02*
X5285000Y-4150000D01*
X5285000Y-4130000D02*
X5265000Y-4150000D01*
X5265000Y-4180000D02*
X5285000Y-4200000D01*
X5285000Y-4180000D02*
X5265000Y-4200000D01*
X5265000Y-4230000D02*
X5285000Y-4250000D01*
X5285000Y-4230000D02*
X5265000Y-4250000D01*
X5265000Y-4280000D02*
X5285000Y-4300000D01*
X5285000Y-4280000D02*
X5265000Y-4300000D01*
X5265000Y-4330000D02*
X5285000Y-4350000D01*
X5285000Y-4330000D02*
X5265000Y-4350000D01*
X5265000Y-4380000D02*
X5285000Y-4400000D01*
X5285000Y-4380000D02*
X5265000Y-4400000D01*
X5265000Y-4430000D02*
X5285000Y-4450000D01*
X5285000Y-4430000D02*
X5265000Y-4450000D01*
X5265000Y-4745000D02*
X5285000Y-4765000D01*
X5285000Y-4745000D02*
X5265000Y-4765000D01*
X5265000Y-4795000D02*
X5285000Y-4815000D01*
X5285000Y-4795000D02*
X5265000Y-4815000D01*
X5265000Y-4845000D02*
X5285000Y-4865000D01*
X5285000Y-4845000D02*
X5265000Y-4865000D01*
X5265000Y-4895000D02*
X5285000Y-4915000D01*
X5285000Y-4895000D02*
X5265000Y-4915000D01*
X5265000Y-4945000D02*
X5285000Y-4965000D01*
X5285000Y-4945000D02*
X5265000Y-4965000D01*
X5265000Y-4995000D02*
X5285000Y-5015000D01*
X5285000Y-4995000D02*
X5265000Y-5015000D01*
X5265000Y-5045000D02*
X5285000Y-5065000D01*
X5285000Y-5045000D02*
X5265000Y-5065000D01*
X5265000Y-5095000D02*
X5285000Y-5115000D01*
X5285000Y-5095000D02*
X5265000Y-5115000D01*
X5265000Y-5145000D02*
X5285000Y-5165000D01*
X5285000Y-5145000D02*
X5265000Y-5165000D01*
X5265000Y-5430000D02*
X5285000Y-5450000D01*
X5285000Y-5430000D02*
X5265000Y-5450000D01*
X5265000Y-5480000D02*
X5285000Y-5500000D01*
X5285000Y-5480000D02*
X5265000Y-5500000D01*
X5265000Y-5530000D02*
X5285000Y-5550000D01*
X5285000Y-5530000D02*
X5265000Y-5550000D01*
X5265000Y-5580000D02*
X5285000Y-5600000D01*
X5285000Y-5580000D02*
X5265000Y-5600000D01*
X5265000Y-5630000D02*
X5285000Y-5650000D01*
X5285000Y-5630000D02*
X5265000Y-5650000D01*
X5265000Y-5680000D02*
X5285000Y-5700000D01*
X5285000Y-5680000D02*
X5265000Y-5700000D01*
X5265000Y-5730000D02*
X5285000Y-5750000D01*
X5285000Y-5730000D02*
X5265000Y-5750000D01*
X5265000Y-5780000D02*
X5285000Y-5800000D01*
X5285000Y-5780000D02*
X5265000Y-5800000D01*
X5265000Y-5830000D02*
X5285000Y-5850000D01*
X5285000Y-5830000D02*
X5265000Y-5850000D01*
X5310000Y-4720000D02*
X5330000Y-4740000D01*
X5330000Y-4720000D02*
X5310000Y-4740000D01*
X5310000Y-4770000D02*
X5330000Y-4790000D01*
X5330000Y-4770000D02*
X5310000Y-4790000D01*
X5310000Y-4820000D02*
X5330000Y-4840000D01*
X5330000Y-4820000D02*
X5310000Y-4840000D01*
X5310000Y-4870000D02*
X5330000Y-4890000D01*
X5330000Y-4870000D02*
X5310000Y-4890000D01*
X5310000Y-4920000D02*
X5330000Y-4940000D01*
X5330000Y-4920000D02*
X5310000Y-4940000D01*
X5310000Y-4970000D02*
X5330000Y-4990000D01*
X5330000Y-4970000D02*
X5310000Y-4990000D01*
X5310000Y-5020000D02*
X5330000Y-5040000D01*
X5330000Y-5020000D02*
X5310000Y-5040000D01*
X5310000Y-5070000D02*
X5330000Y-5090000D01*
X5330000Y-5070000D02*
X5310000Y-5090000D01*
X5310000Y-5120000D02*
X5330000Y-5140000D01*
X5330000Y-5120000D02*
X5310000Y-5140000D01*
X5315000Y-4380000D02*
X5335000Y-4400000D01*
X5335000Y-4380000D02*
X5315000Y-4400000D01*
X5315000Y-4430000D02*
X5335000Y-4450000D01*
X5335000Y-4430000D02*
X5315000Y-4450000D01*
X5315000Y-5780000D02*
X5335000Y-5800000D01*
X5335000Y-5780000D02*
X5315000Y-5800000D01*
X5315000Y-5830000D02*
X5335000Y-5850000D01*
X5335000Y-5830000D02*
X5315000Y-5850000D01*
X5325000Y-3710000D02*
X5345000Y-3730000D01*
X5345000Y-3710000D02*
X5325000Y-3730000D01*
X5330000Y-6280000D02*
X5350000Y-6300000D01*
X5350000Y-6280000D02*
X5330000Y-6300000D01*
X5355000Y-4745000D02*
X5375000Y-4765000D01*
X5375000Y-4745000D02*
X5355000Y-4765000D01*
X5355000Y-5095000D02*
X5375000Y-5115000D01*
X5375000Y-5095000D02*
X5355000Y-5115000D01*
X5365000Y-4415000D02*
X5385000Y-4435000D01*
X5385000Y-4415000D02*
X5365000Y-4435000D01*
X5365000Y-5815000D02*
X5385000Y-5835000D01*
X5385000Y-5815000D02*
X5365000Y-5835000D01*
X5375000Y-3710000D02*
X5395000Y-3730000D01*
X5395000Y-3710000D02*
X5375000Y-3730000D01*
X5380000Y-6280000D02*
X5400000Y-6300000D01*
X5400000Y-6280000D02*
X5380000Y-6300000D01*
X5425000Y-3710000D02*
X5445000Y-3730000D01*
X5445000Y-3710000D02*
X5425000Y-3730000D01*
X5430000Y-6280000D02*
X5450000Y-6300000D01*
X5450000Y-6280000D02*
X5430000Y-6300000D01*
X5495000Y-4160000D02*
X5515000Y-4180000D01*
X5515000Y-4160000D02*
X5495000Y-4180000D01*
X5495000Y-4290000D02*
X5515000Y-4310000D01*
X5515000Y-4290000D02*
X5495000Y-4310000D01*
X5495000Y-4425000D02*
X5515000Y-4445000D01*
X5515000Y-4425000D02*
X5495000Y-4445000D01*
X5495000Y-4860000D02*
X5515000Y-4880000D01*
X5515000Y-4860000D02*
X5495000Y-4880000D01*
X5495000Y-4990000D02*
X5515000Y-5010000D01*
X5515000Y-4990000D02*
X5495000Y-5010000D01*
X5495000Y-5125000D02*
X5515000Y-5145000D01*
X5515000Y-5125000D02*
X5495000Y-5145000D01*
X5495000Y-5560000D02*
X5515000Y-5580000D01*
X5515000Y-5560000D02*
X5495000Y-5580000D01*
X5495000Y-5690000D02*
X5515000Y-5710000D01*
X5515000Y-5690000D02*
X5495000Y-5710000D01*
X5495000Y-5820000D02*
X5515000Y-5840000D01*
X5515000Y-5820000D02*
X5495000Y-5840000D01*
X5495000Y-5935000D02*
X5515000Y-5955000D01*
X5515000Y-5935000D02*
X5495000Y-5955000D01*
X5525000Y-4765000D02*
X5545000Y-4785000D01*
X5545000Y-4765000D02*
X5525000Y-4785000D01*
X5535000Y-4515000D02*
X5555000Y-4535000D01*
X5555000Y-4515000D02*
X5535000Y-4535000D01*
X5630000Y-5685000D02*
X5650000Y-5705000D01*
X5650000Y-5685000D02*
X5630000Y-5705000D01*
X5635000Y-4045000D02*
X5655000Y-4065000D01*
X5655000Y-4045000D02*
X5635000Y-4065000D01*
X5635000Y-4160000D02*
X5655000Y-4180000D01*
X5655000Y-4160000D02*
X5635000Y-4180000D01*
X5635000Y-4290000D02*
X5655000Y-4310000D01*
X5655000Y-4290000D02*
X5635000Y-4310000D01*
X5635000Y-4420000D02*
X5655000Y-4440000D01*
X5655000Y-4420000D02*
X5635000Y-4440000D01*
X5635000Y-4535000D02*
X5655000Y-4555000D01*
X5655000Y-4535000D02*
X5635000Y-4555000D01*
X5635000Y-4745000D02*
X5655000Y-4765000D01*
X5655000Y-4745000D02*
X5635000Y-4765000D01*
X5635000Y-4860000D02*
X5655000Y-4880000D01*
X5655000Y-4860000D02*
X5635000Y-4880000D01*
X5635000Y-4990000D02*
X5655000Y-5010000D01*
X5655000Y-4990000D02*
X5635000Y-5010000D01*
X5635000Y-5125000D02*
X5655000Y-5145000D01*
X5655000Y-5125000D02*
X5635000Y-5145000D01*
X5635000Y-5235000D02*
X5655000Y-5255000D01*
X5655000Y-5235000D02*
X5635000Y-5255000D01*
X5635000Y-5445000D02*
X5655000Y-5465000D01*
X5655000Y-5445000D02*
X5635000Y-5465000D01*
X5635000Y-5560000D02*
X5655000Y-5580000D01*
X5655000Y-5560000D02*
X5635000Y-5580000D01*
X5635000Y-5820000D02*
X5655000Y-5840000D01*
X5655000Y-5820000D02*
X5635000Y-5840000D01*
X5635000Y-5935000D02*
X5655000Y-5955000D01*
X5655000Y-5935000D02*
X5635000Y-5955000D01*
X5735000Y-4605000D02*
X5755000Y-4625000D01*
X5755000Y-4605000D02*
X5735000Y-4625000D01*
X5780000Y-4675000D02*
X5800000Y-4695000D01*
X5800000Y-4675000D02*
X5780000Y-4695000D01*
X5780000Y-5355000D02*
X5800000Y-5375000D01*
X5800000Y-5355000D02*
X5780000Y-5375000D01*
X5835000Y-3920000D02*
X5855000Y-3940000D01*
X5855000Y-3920000D02*
X5835000Y-3940000D01*
X5845000Y-6055000D02*
X5865000Y-6075000D01*
X5865000Y-6055000D02*
X5845000Y-6075000D01*
X5925000Y-5965000D02*
X5945000Y-5985000D01*
X5945000Y-5965000D02*
X5925000Y-5985000D01*
X5930000Y-5890000D02*
X5950000Y-5910000D01*
X5950000Y-5890000D02*
X5930000Y-5910000D01*
X5960000Y-4635000D02*
X5980000Y-4655000D01*
X5980000Y-4635000D02*
X5960000Y-4655000D01*
X5960000Y-5340000D02*
X5980000Y-5360000D01*
X5980000Y-5340000D02*
X5960000Y-5360000D01*
D13*
X4242500Y-6010000D02*
G75*
G03*
X4242500Y-6010000I-62500J0D01*
G01*
X4242500Y-6235000D02*
G75*
G03*
X4242500Y-6235000I-62500J0D01*
G01*
D14*
X5645000Y-3725000D02*
X5645000Y-3895000D01*
X5560000Y-3810000D02*
X5730000Y-3810000D01*
X5645000Y-6105000D02*
X5645000Y-6275000D01*
X5560000Y-6190000D02*
X5730000Y-6190000D01*
X6185000Y-4170000D02*
X6185000Y-4340000D01*
X6100000Y-4255000D02*
X6270000Y-4255000D01*
X6185000Y-4550000D02*
X6185000Y-4720000D01*
X6100000Y-4635000D02*
X6270000Y-4635000D01*
X6185000Y-4890000D02*
X6185000Y-5060000D01*
X6100000Y-4975000D02*
X6270000Y-4975000D01*
X6185000Y-5270000D02*
X6185000Y-5440000D01*
X6100000Y-5355000D02*
X6270000Y-5355000D01*
X6185000Y-5610000D02*
X6185000Y-5780000D01*
X6100000Y-5695000D02*
X6270000Y-5695000D01*
D11*
X3900119Y-6667976D02*
X3900119Y-6467976D01*
X3947738Y-6467976D01*
X3976309Y-6477500D01*
X3995357Y-6496548D01*
X4004881Y-6515595D01*
X4014405Y-6553690D01*
X4014405Y-6582262D01*
X4004881Y-6620357D01*
X3995357Y-6639405D01*
X3976309Y-6658452D01*
X3947738Y-6667976D01*
X3900119Y-6667976D01*
X4100119Y-6667976D02*
X4100119Y-6534643D01*
X4100119Y-6572738D02*
X4109643Y-6553690D01*
X4119167Y-6544167D01*
X4138214Y-6534643D01*
X4157262Y-6534643D01*
X4223929Y-6667976D02*
X4223929Y-6534643D01*
X4223929Y-6467976D02*
X4214405Y-6477500D01*
X4223929Y-6487024D01*
X4233452Y-6477500D01*
X4223929Y-6467976D01*
X4223929Y-6487024D01*
X4347738Y-6667976D02*
X4328690Y-6658452D01*
X4319167Y-6639405D01*
X4319167Y-6467976D01*
X4452500Y-6667976D02*
X4433452Y-6658452D01*
X4423929Y-6639405D01*
X4423929Y-6467976D01*
X4681071Y-6667976D02*
X4681071Y-6467976D01*
X4747738Y-6610833D01*
X4814405Y-6467976D01*
X4814405Y-6667976D01*
X4995357Y-6667976D02*
X4995357Y-6563214D01*
X4985833Y-6544167D01*
X4966786Y-6534643D01*
X4928690Y-6534643D01*
X4909643Y-6544167D01*
X4995357Y-6658452D02*
X4976310Y-6667976D01*
X4928690Y-6667976D01*
X4909643Y-6658452D01*
X4900119Y-6639405D01*
X4900119Y-6620357D01*
X4909643Y-6601309D01*
X4928690Y-6591786D01*
X4976310Y-6591786D01*
X4995357Y-6582262D01*
X5090595Y-6534643D02*
X5090595Y-6734643D01*
X5090595Y-6544167D02*
X5109643Y-6534643D01*
X5147738Y-6534643D01*
X5166786Y-6544167D01*
X5176310Y-6553690D01*
X5185833Y-6572738D01*
X5185833Y-6629881D01*
X5176310Y-6648928D01*
X5166786Y-6658452D01*
X5147738Y-6667976D01*
X5109643Y-6667976D01*
X5090595Y-6658452D01*
X5271548Y-6648928D02*
X5281071Y-6658452D01*
X5271548Y-6667976D01*
X5262024Y-6658452D01*
X5271548Y-6648928D01*
X5271548Y-6667976D01*
X5271548Y-6544167D02*
X5281071Y-6553690D01*
X5271548Y-6563214D01*
X5262024Y-6553690D01*
X5271548Y-6544167D01*
X5271548Y-6563214D01*
D12*
X3622500Y-6987500D02*
X3642500Y-7007500D01*
X3642500Y-6987500D02*
X3622500Y-7007500D01*
D11*
X3938214Y-6887976D02*
X3957262Y-6887976D01*
X3976309Y-6897500D01*
X3985833Y-6907024D01*
X3995357Y-6926071D01*
X4004881Y-6964167D01*
X4004881Y-7011786D01*
X3995357Y-7049881D01*
X3985833Y-7068928D01*
X3976309Y-7078452D01*
X3957262Y-7087976D01*
X3938214Y-7087976D01*
X3919167Y-7078452D01*
X3909643Y-7068928D01*
X3900119Y-7049881D01*
X3890595Y-7011786D01*
X3890595Y-6964167D01*
X3900119Y-6926071D01*
X3909643Y-6907024D01*
X3919167Y-6897500D01*
X3938214Y-6887976D01*
X4090595Y-7068928D02*
X4100119Y-7078452D01*
X4090595Y-7087976D01*
X4081071Y-7078452D01*
X4090595Y-7068928D01*
X4090595Y-7087976D01*
X4176309Y-6907024D02*
X4185833Y-6897500D01*
X4204881Y-6887976D01*
X4252500Y-6887976D01*
X4271548Y-6897500D01*
X4281071Y-6907024D01*
X4290595Y-6926071D01*
X4290595Y-6945119D01*
X4281071Y-6973690D01*
X4166786Y-7087976D01*
X4290595Y-7087976D01*
X4414405Y-6887976D02*
X4433452Y-6887976D01*
X4452500Y-6897500D01*
X4462024Y-6907024D01*
X4471548Y-6926071D01*
X4481071Y-6964167D01*
X4481071Y-7011786D01*
X4471548Y-7049881D01*
X4462024Y-7068928D01*
X4452500Y-7078452D01*
X4433452Y-7087976D01*
X4414405Y-7087976D01*
X4395357Y-7078452D01*
X4385833Y-7068928D01*
X4376310Y-7049881D01*
X4366786Y-7011786D01*
X4366786Y-6964167D01*
X4376310Y-6926071D01*
X4385833Y-6907024D01*
X4395357Y-6897500D01*
X4414405Y-6887976D01*
X4604881Y-6887976D02*
X4623929Y-6887976D01*
X4642976Y-6897500D01*
X4652500Y-6907024D01*
X4662024Y-6926071D01*
X4671548Y-6964167D01*
X4671548Y-7011786D01*
X4662024Y-7049881D01*
X4652500Y-7068928D01*
X4642976Y-7078452D01*
X4623929Y-7087976D01*
X4604881Y-7087976D01*
X4585833Y-7078452D01*
X4576310Y-7068928D01*
X4566786Y-7049881D01*
X4557262Y-7011786D01*
X4557262Y-6964167D01*
X4566786Y-6926071D01*
X4576310Y-6907024D01*
X4585833Y-6897500D01*
X4604881Y-6887976D01*
X4757262Y-7087976D02*
X4757262Y-6954643D01*
X4757262Y-6973690D02*
X4766786Y-6964167D01*
X4785833Y-6954643D01*
X4814405Y-6954643D01*
X4833452Y-6964167D01*
X4842976Y-6983214D01*
X4842976Y-7087976D01*
X4842976Y-6983214D02*
X4852500Y-6964167D01*
X4871548Y-6954643D01*
X4900119Y-6954643D01*
X4919167Y-6964167D01*
X4928690Y-6983214D01*
X4928690Y-7087976D01*
X5023929Y-7087976D02*
X5023929Y-6954643D01*
X5023929Y-6973690D02*
X5033452Y-6964167D01*
X5052500Y-6954643D01*
X5081071Y-6954643D01*
X5100119Y-6964167D01*
X5109643Y-6983214D01*
X5109643Y-7087976D01*
X5109643Y-6983214D02*
X5119167Y-6964167D01*
X5138214Y-6954643D01*
X5166786Y-6954643D01*
X5185833Y-6964167D01*
X5195357Y-6983214D01*
X5195357Y-7087976D01*
X5585833Y-6878452D02*
X5414405Y-7135595D01*
X5842976Y-6887976D02*
X5862024Y-6887976D01*
X5881071Y-6897500D01*
X5890595Y-6907024D01*
X5900119Y-6926071D01*
X5909643Y-6964167D01*
X5909643Y-7011786D01*
X5900119Y-7049881D01*
X5890595Y-7068928D01*
X5881071Y-7078452D01*
X5862024Y-7087976D01*
X5842976Y-7087976D01*
X5823928Y-7078452D01*
X5814405Y-7068928D01*
X5804881Y-7049881D01*
X5795357Y-7011786D01*
X5795357Y-6964167D01*
X5804881Y-6926071D01*
X5814405Y-6907024D01*
X5823928Y-6897500D01*
X5842976Y-6887976D01*
X5995357Y-7068928D02*
X6004881Y-7078452D01*
X5995357Y-7087976D01*
X5985833Y-7078452D01*
X5995357Y-7068928D01*
X5995357Y-7087976D01*
X6128690Y-6887976D02*
X6147738Y-6887976D01*
X6166786Y-6897500D01*
X6176309Y-6907024D01*
X6185833Y-6926071D01*
X6195357Y-6964167D01*
X6195357Y-7011786D01*
X6185833Y-7049881D01*
X6176309Y-7068928D01*
X6166786Y-7078452D01*
X6147738Y-7087976D01*
X6128690Y-7087976D01*
X6109643Y-7078452D01*
X6100119Y-7068928D01*
X6090595Y-7049881D01*
X6081071Y-7011786D01*
X6081071Y-6964167D01*
X6090595Y-6926071D01*
X6100119Y-6907024D01*
X6109643Y-6897500D01*
X6128690Y-6887976D01*
X6319167Y-6887976D02*
X6338214Y-6887976D01*
X6357262Y-6897500D01*
X6366786Y-6907024D01*
X6376309Y-6926071D01*
X6385833Y-6964167D01*
X6385833Y-7011786D01*
X6376309Y-7049881D01*
X6366786Y-7068928D01*
X6357262Y-7078452D01*
X6338214Y-7087976D01*
X6319167Y-7087976D01*
X6300119Y-7078452D01*
X6290595Y-7068928D01*
X6281071Y-7049881D01*
X6271548Y-7011786D01*
X6271548Y-6964167D01*
X6281071Y-6926071D01*
X6290595Y-6907024D01*
X6300119Y-6897500D01*
X6319167Y-6887976D01*
X6452500Y-6887976D02*
X6585833Y-6887976D01*
X6500119Y-7087976D01*
X6671548Y-7087976D02*
X6709643Y-7087976D01*
X6728690Y-7078452D01*
X6738214Y-7068928D01*
X6757262Y-7040357D01*
X6766786Y-7002262D01*
X6766786Y-6926071D01*
X6757262Y-6907024D01*
X6747738Y-6897500D01*
X6728690Y-6887976D01*
X6690595Y-6887976D01*
X6671548Y-6897500D01*
X6662024Y-6907024D01*
X6652500Y-6926071D01*
X6652500Y-6973690D01*
X6662024Y-6992738D01*
X6671548Y-7002262D01*
X6690595Y-7011786D01*
X6728690Y-7011786D01*
X6747738Y-7002262D01*
X6757262Y-6992738D01*
X6766786Y-6973690D01*
X6842976Y-6887976D02*
X6842976Y-6926071D01*
X6919167Y-6887976D02*
X6919167Y-6926071D01*
X7214405Y-7164167D02*
X7204881Y-7154643D01*
X7185833Y-7126071D01*
X7176309Y-7107024D01*
X7166786Y-7078452D01*
X7157262Y-7030833D01*
X7157262Y-6992738D01*
X7166786Y-6945119D01*
X7176309Y-6916548D01*
X7185833Y-6897500D01*
X7204881Y-6868928D01*
X7214405Y-6859405D01*
X7281071Y-6907024D02*
X7290595Y-6897500D01*
X7309643Y-6887976D01*
X7357262Y-6887976D01*
X7376309Y-6897500D01*
X7385833Y-6907024D01*
X7395357Y-6926071D01*
X7395357Y-6945119D01*
X7385833Y-6973690D01*
X7271548Y-7087976D01*
X7395357Y-7087976D01*
X7471548Y-6907024D02*
X7481071Y-6897500D01*
X7500119Y-6887976D01*
X7547738Y-6887976D01*
X7566786Y-6897500D01*
X7576309Y-6907024D01*
X7585833Y-6926071D01*
X7585833Y-6945119D01*
X7576309Y-6973690D01*
X7462024Y-7087976D01*
X7585833Y-7087976D01*
X7776309Y-7087976D02*
X7662024Y-7087976D01*
X7719167Y-7087976D02*
X7719167Y-6887976D01*
X7700119Y-6916548D01*
X7681071Y-6935595D01*
X7662024Y-6945119D01*
X8014405Y-7087976D02*
X8014405Y-6887976D01*
X8100119Y-7087976D02*
X8100119Y-6983214D01*
X8090595Y-6964167D01*
X8071548Y-6954643D01*
X8042976Y-6954643D01*
X8023928Y-6964167D01*
X8014405Y-6973690D01*
X8223928Y-7087976D02*
X8204881Y-7078452D01*
X8195357Y-7068928D01*
X8185833Y-7049881D01*
X8185833Y-6992738D01*
X8195357Y-6973690D01*
X8204881Y-6964167D01*
X8223928Y-6954643D01*
X8252500Y-6954643D01*
X8271548Y-6964167D01*
X8281071Y-6973690D01*
X8290595Y-6992738D01*
X8290595Y-7049881D01*
X8281071Y-7068928D01*
X8271548Y-7078452D01*
X8252500Y-7087976D01*
X8223928Y-7087976D01*
X8404881Y-7087976D02*
X8385833Y-7078452D01*
X8376309Y-7059405D01*
X8376309Y-6887976D01*
X8557262Y-7078452D02*
X8538214Y-7087976D01*
X8500119Y-7087976D01*
X8481071Y-7078452D01*
X8471548Y-7059405D01*
X8471548Y-6983214D01*
X8481071Y-6964167D01*
X8500119Y-6954643D01*
X8538214Y-6954643D01*
X8557262Y-6964167D01*
X8566786Y-6983214D01*
X8566786Y-7002262D01*
X8471548Y-7021309D01*
X8642976Y-7078452D02*
X8662024Y-7087976D01*
X8700119Y-7087976D01*
X8719167Y-7078452D01*
X8728690Y-7059405D01*
X8728690Y-7049881D01*
X8719167Y-7030833D01*
X8700119Y-7021309D01*
X8671548Y-7021309D01*
X8652500Y-7011786D01*
X8642976Y-6992738D01*
X8642976Y-6983214D01*
X8652500Y-6964167D01*
X8671548Y-6954643D01*
X8700119Y-6954643D01*
X8719167Y-6964167D01*
X8795357Y-7164167D02*
X8804881Y-7154643D01*
X8823929Y-7126071D01*
X8833452Y-7107024D01*
X8842976Y-7078452D01*
X8852500Y-7030833D01*
X8852500Y-6992738D01*
X8842976Y-6945119D01*
X8833452Y-6916548D01*
X8823929Y-6897500D01*
X8804881Y-6868928D01*
X8795357Y-6859405D01*
D13*
X3642500Y-7261500D02*
G75*
G03*
X3642500Y-7261500I-62500J0D01*
G01*
D11*
X4004881Y-7351976D02*
X3890595Y-7351976D01*
X3947738Y-7351976D02*
X3947738Y-7151976D01*
X3928690Y-7180548D01*
X3909643Y-7199595D01*
X3890595Y-7209119D01*
X4090595Y-7332928D02*
X4100119Y-7342452D01*
X4090595Y-7351976D01*
X4081071Y-7342452D01*
X4090595Y-7332928D01*
X4090595Y-7351976D01*
X4176309Y-7171024D02*
X4185833Y-7161500D01*
X4204881Y-7151976D01*
X4252500Y-7151976D01*
X4271548Y-7161500D01*
X4281071Y-7171024D01*
X4290595Y-7190071D01*
X4290595Y-7209119D01*
X4281071Y-7237690D01*
X4166786Y-7351976D01*
X4290595Y-7351976D01*
X4471548Y-7151976D02*
X4376310Y-7151976D01*
X4366786Y-7247214D01*
X4376310Y-7237690D01*
X4395357Y-7228167D01*
X4442976Y-7228167D01*
X4462024Y-7237690D01*
X4471548Y-7247214D01*
X4481071Y-7266262D01*
X4481071Y-7313881D01*
X4471548Y-7332928D01*
X4462024Y-7342452D01*
X4442976Y-7351976D01*
X4395357Y-7351976D01*
X4376310Y-7342452D01*
X4366786Y-7332928D01*
X4604881Y-7151976D02*
X4623929Y-7151976D01*
X4642976Y-7161500D01*
X4652500Y-7171024D01*
X4662024Y-7190071D01*
X4671548Y-7228167D01*
X4671548Y-7275786D01*
X4662024Y-7313881D01*
X4652500Y-7332928D01*
X4642976Y-7342452D01*
X4623929Y-7351976D01*
X4604881Y-7351976D01*
X4585833Y-7342452D01*
X4576310Y-7332928D01*
X4566786Y-7313881D01*
X4557262Y-7275786D01*
X4557262Y-7228167D01*
X4566786Y-7190071D01*
X4576310Y-7171024D01*
X4585833Y-7161500D01*
X4604881Y-7151976D01*
X4757262Y-7351976D02*
X4757262Y-7218643D01*
X4757262Y-7237690D02*
X4766786Y-7228167D01*
X4785833Y-7218643D01*
X4814405Y-7218643D01*
X4833452Y-7228167D01*
X4842976Y-7247214D01*
X4842976Y-7351976D01*
X4842976Y-7247214D02*
X4852500Y-7228167D01*
X4871548Y-7218643D01*
X4900119Y-7218643D01*
X4919167Y-7228167D01*
X4928690Y-7247214D01*
X4928690Y-7351976D01*
X5023929Y-7351976D02*
X5023929Y-7218643D01*
X5023929Y-7237690D02*
X5033452Y-7228167D01*
X5052500Y-7218643D01*
X5081071Y-7218643D01*
X5100119Y-7228167D01*
X5109643Y-7247214D01*
X5109643Y-7351976D01*
X5109643Y-7247214D02*
X5119167Y-7228167D01*
X5138214Y-7218643D01*
X5166786Y-7218643D01*
X5185833Y-7228167D01*
X5195357Y-7247214D01*
X5195357Y-7351976D01*
X5585833Y-7142452D02*
X5414405Y-7399595D01*
X5842976Y-7151976D02*
X5862024Y-7151976D01*
X5881071Y-7161500D01*
X5890595Y-7171024D01*
X5900119Y-7190071D01*
X5909643Y-7228167D01*
X5909643Y-7275786D01*
X5900119Y-7313881D01*
X5890595Y-7332928D01*
X5881071Y-7342452D01*
X5862024Y-7351976D01*
X5842976Y-7351976D01*
X5823928Y-7342452D01*
X5814405Y-7332928D01*
X5804881Y-7313881D01*
X5795357Y-7275786D01*
X5795357Y-7228167D01*
X5804881Y-7190071D01*
X5814405Y-7171024D01*
X5823928Y-7161500D01*
X5842976Y-7151976D01*
X5995357Y-7332928D02*
X6004881Y-7342452D01*
X5995357Y-7351976D01*
X5985833Y-7342452D01*
X5995357Y-7332928D01*
X5995357Y-7351976D01*
X6128690Y-7151976D02*
X6147738Y-7151976D01*
X6166786Y-7161500D01*
X6176309Y-7171024D01*
X6185833Y-7190071D01*
X6195357Y-7228167D01*
X6195357Y-7275786D01*
X6185833Y-7313881D01*
X6176309Y-7332928D01*
X6166786Y-7342452D01*
X6147738Y-7351976D01*
X6128690Y-7351976D01*
X6109643Y-7342452D01*
X6100119Y-7332928D01*
X6090595Y-7313881D01*
X6081071Y-7275786D01*
X6081071Y-7228167D01*
X6090595Y-7190071D01*
X6100119Y-7171024D01*
X6109643Y-7161500D01*
X6128690Y-7151976D01*
X6366786Y-7218643D02*
X6366786Y-7351976D01*
X6319167Y-7142452D02*
X6271548Y-7285309D01*
X6395357Y-7285309D01*
X6481071Y-7351976D02*
X6519167Y-7351976D01*
X6538214Y-7342452D01*
X6547738Y-7332928D01*
X6566786Y-7304357D01*
X6576309Y-7266262D01*
X6576309Y-7190071D01*
X6566786Y-7171024D01*
X6557262Y-7161500D01*
X6538214Y-7151976D01*
X6500119Y-7151976D01*
X6481071Y-7161500D01*
X6471548Y-7171024D01*
X6462024Y-7190071D01*
X6462024Y-7237690D01*
X6471548Y-7256738D01*
X6481071Y-7266262D01*
X6500119Y-7275786D01*
X6538214Y-7275786D01*
X6557262Y-7266262D01*
X6566786Y-7256738D01*
X6576309Y-7237690D01*
X6652500Y-7171024D02*
X6662024Y-7161500D01*
X6681071Y-7151976D01*
X6728690Y-7151976D01*
X6747738Y-7161500D01*
X6757262Y-7171024D01*
X6766786Y-7190071D01*
X6766786Y-7209119D01*
X6757262Y-7237690D01*
X6642976Y-7351976D01*
X6766786Y-7351976D01*
X6842976Y-7151976D02*
X6842976Y-7190071D01*
X6919167Y-7151976D02*
X6919167Y-7190071D01*
X7214405Y-7428167D02*
X7204881Y-7418643D01*
X7185833Y-7390071D01*
X7176309Y-7371024D01*
X7166786Y-7342452D01*
X7157262Y-7294833D01*
X7157262Y-7256738D01*
X7166786Y-7209119D01*
X7176309Y-7180548D01*
X7185833Y-7161500D01*
X7204881Y-7132928D01*
X7214405Y-7123405D01*
X7281071Y-7171024D02*
X7290595Y-7161500D01*
X7309643Y-7151976D01*
X7357262Y-7151976D01*
X7376309Y-7161500D01*
X7385833Y-7171024D01*
X7395357Y-7190071D01*
X7395357Y-7209119D01*
X7385833Y-7237690D01*
X7271548Y-7351976D01*
X7395357Y-7351976D01*
X7633452Y-7351976D02*
X7633452Y-7151976D01*
X7719167Y-7351976D02*
X7719167Y-7247214D01*
X7709643Y-7228167D01*
X7690595Y-7218643D01*
X7662024Y-7218643D01*
X7642976Y-7228167D01*
X7633452Y-7237690D01*
X7842976Y-7351976D02*
X7823928Y-7342452D01*
X7814405Y-7332928D01*
X7804881Y-7313881D01*
X7804881Y-7256738D01*
X7814405Y-7237690D01*
X7823928Y-7228167D01*
X7842976Y-7218643D01*
X7871548Y-7218643D01*
X7890595Y-7228167D01*
X7900119Y-7237690D01*
X7909643Y-7256738D01*
X7909643Y-7313881D01*
X7900119Y-7332928D01*
X7890595Y-7342452D01*
X7871548Y-7351976D01*
X7842976Y-7351976D01*
X8023928Y-7351976D02*
X8004881Y-7342452D01*
X7995357Y-7323405D01*
X7995357Y-7151976D01*
X8176309Y-7342452D02*
X8157262Y-7351976D01*
X8119167Y-7351976D01*
X8100119Y-7342452D01*
X8090595Y-7323405D01*
X8090595Y-7247214D01*
X8100119Y-7228167D01*
X8119167Y-7218643D01*
X8157262Y-7218643D01*
X8176309Y-7228167D01*
X8185833Y-7247214D01*
X8185833Y-7266262D01*
X8090595Y-7285309D01*
X8262024Y-7342452D02*
X8281071Y-7351976D01*
X8319167Y-7351976D01*
X8338214Y-7342452D01*
X8347738Y-7323405D01*
X8347738Y-7313881D01*
X8338214Y-7294833D01*
X8319167Y-7285309D01*
X8290595Y-7285309D01*
X8271548Y-7275786D01*
X8262024Y-7256738D01*
X8262024Y-7247214D01*
X8271548Y-7228167D01*
X8290595Y-7218643D01*
X8319167Y-7218643D01*
X8338214Y-7228167D01*
X8414405Y-7428167D02*
X8423929Y-7418643D01*
X8442976Y-7390071D01*
X8452500Y-7371024D01*
X8462024Y-7342452D01*
X8471548Y-7294833D01*
X8471548Y-7256738D01*
X8462024Y-7209119D01*
X8452500Y-7180548D01*
X8442976Y-7161500D01*
X8423929Y-7132928D01*
X8414405Y-7123405D01*
D14*
X3557500Y-7440500D02*
X3557500Y-7610500D01*
X3472500Y-7525500D02*
X3642500Y-7525500D01*
D11*
X4004881Y-7615976D02*
X3890595Y-7615976D01*
X3947738Y-7615976D02*
X3947738Y-7415976D01*
X3928690Y-7444548D01*
X3909643Y-7463595D01*
X3890595Y-7473119D01*
X4090595Y-7596928D02*
X4100119Y-7606452D01*
X4090595Y-7615976D01*
X4081071Y-7606452D01*
X4090595Y-7596928D01*
X4090595Y-7615976D01*
X4166786Y-7415976D02*
X4300119Y-7415976D01*
X4214405Y-7615976D01*
X4414405Y-7415976D02*
X4433452Y-7415976D01*
X4452500Y-7425500D01*
X4462024Y-7435024D01*
X4471548Y-7454071D01*
X4481071Y-7492167D01*
X4481071Y-7539786D01*
X4471548Y-7577881D01*
X4462024Y-7596928D01*
X4452500Y-7606452D01*
X4433452Y-7615976D01*
X4414405Y-7615976D01*
X4395357Y-7606452D01*
X4385833Y-7596928D01*
X4376310Y-7577881D01*
X4366786Y-7539786D01*
X4366786Y-7492167D01*
X4376310Y-7454071D01*
X4385833Y-7435024D01*
X4395357Y-7425500D01*
X4414405Y-7415976D01*
X4604881Y-7415976D02*
X4623929Y-7415976D01*
X4642976Y-7425500D01*
X4652500Y-7435024D01*
X4662024Y-7454071D01*
X4671548Y-7492167D01*
X4671548Y-7539786D01*
X4662024Y-7577881D01*
X4652500Y-7596928D01*
X4642976Y-7606452D01*
X4623929Y-7615976D01*
X4604881Y-7615976D01*
X4585833Y-7606452D01*
X4576310Y-7596928D01*
X4566786Y-7577881D01*
X4557262Y-7539786D01*
X4557262Y-7492167D01*
X4566786Y-7454071D01*
X4576310Y-7435024D01*
X4585833Y-7425500D01*
X4604881Y-7415976D01*
X4757262Y-7615976D02*
X4757262Y-7482643D01*
X4757262Y-7501690D02*
X4766786Y-7492167D01*
X4785833Y-7482643D01*
X4814405Y-7482643D01*
X4833452Y-7492167D01*
X4842976Y-7511214D01*
X4842976Y-7615976D01*
X4842976Y-7511214D02*
X4852500Y-7492167D01*
X4871548Y-7482643D01*
X4900119Y-7482643D01*
X4919167Y-7492167D01*
X4928690Y-7511214D01*
X4928690Y-7615976D01*
X5023929Y-7615976D02*
X5023929Y-7482643D01*
X5023929Y-7501690D02*
X5033452Y-7492167D01*
X5052500Y-7482643D01*
X5081071Y-7482643D01*
X5100119Y-7492167D01*
X5109643Y-7511214D01*
X5109643Y-7615976D01*
X5109643Y-7511214D02*
X5119167Y-7492167D01*
X5138214Y-7482643D01*
X5166786Y-7482643D01*
X5185833Y-7492167D01*
X5195357Y-7511214D01*
X5195357Y-7615976D01*
X5585833Y-7406452D02*
X5414405Y-7663595D01*
X5842976Y-7415976D02*
X5862024Y-7415976D01*
X5881071Y-7425500D01*
X5890595Y-7435024D01*
X5900119Y-7454071D01*
X5909643Y-7492167D01*
X5909643Y-7539786D01*
X5900119Y-7577881D01*
X5890595Y-7596928D01*
X5881071Y-7606452D01*
X5862024Y-7615976D01*
X5842976Y-7615976D01*
X5823928Y-7606452D01*
X5814405Y-7596928D01*
X5804881Y-7577881D01*
X5795357Y-7539786D01*
X5795357Y-7492167D01*
X5804881Y-7454071D01*
X5814405Y-7435024D01*
X5823928Y-7425500D01*
X5842976Y-7415976D01*
X5995357Y-7596928D02*
X6004881Y-7606452D01*
X5995357Y-7615976D01*
X5985833Y-7606452D01*
X5995357Y-7596928D01*
X5995357Y-7615976D01*
X6128690Y-7415976D02*
X6147738Y-7415976D01*
X6166786Y-7425500D01*
X6176309Y-7435024D01*
X6185833Y-7454071D01*
X6195357Y-7492167D01*
X6195357Y-7539786D01*
X6185833Y-7577881D01*
X6176309Y-7596928D01*
X6166786Y-7606452D01*
X6147738Y-7615976D01*
X6128690Y-7615976D01*
X6109643Y-7606452D01*
X6100119Y-7596928D01*
X6090595Y-7577881D01*
X6081071Y-7539786D01*
X6081071Y-7492167D01*
X6090595Y-7454071D01*
X6100119Y-7435024D01*
X6109643Y-7425500D01*
X6128690Y-7415976D01*
X6366786Y-7415976D02*
X6328690Y-7415976D01*
X6309643Y-7425500D01*
X6300119Y-7435024D01*
X6281071Y-7463595D01*
X6271548Y-7501690D01*
X6271548Y-7577881D01*
X6281071Y-7596928D01*
X6290595Y-7606452D01*
X6309643Y-7615976D01*
X6347738Y-7615976D01*
X6366786Y-7606452D01*
X6376309Y-7596928D01*
X6385833Y-7577881D01*
X6385833Y-7530262D01*
X6376309Y-7511214D01*
X6366786Y-7501690D01*
X6347738Y-7492167D01*
X6309643Y-7492167D01*
X6290595Y-7501690D01*
X6281071Y-7511214D01*
X6271548Y-7530262D01*
X6557262Y-7415976D02*
X6519167Y-7415976D01*
X6500119Y-7425500D01*
X6490595Y-7435024D01*
X6471548Y-7463595D01*
X6462024Y-7501690D01*
X6462024Y-7577881D01*
X6471548Y-7596928D01*
X6481071Y-7606452D01*
X6500119Y-7615976D01*
X6538214Y-7615976D01*
X6557262Y-7606452D01*
X6566786Y-7596928D01*
X6576309Y-7577881D01*
X6576309Y-7530262D01*
X6566786Y-7511214D01*
X6557262Y-7501690D01*
X6538214Y-7492167D01*
X6500119Y-7492167D01*
X6481071Y-7501690D01*
X6471548Y-7511214D01*
X6462024Y-7530262D01*
X6671548Y-7615976D02*
X6709643Y-7615976D01*
X6728690Y-7606452D01*
X6738214Y-7596928D01*
X6757262Y-7568357D01*
X6766786Y-7530262D01*
X6766786Y-7454071D01*
X6757262Y-7435024D01*
X6747738Y-7425500D01*
X6728690Y-7415976D01*
X6690595Y-7415976D01*
X6671548Y-7425500D01*
X6662024Y-7435024D01*
X6652500Y-7454071D01*
X6652500Y-7501690D01*
X6662024Y-7520738D01*
X6671548Y-7530262D01*
X6690595Y-7539786D01*
X6728690Y-7539786D01*
X6747738Y-7530262D01*
X6757262Y-7520738D01*
X6766786Y-7501690D01*
X6842976Y-7415976D02*
X6842976Y-7454071D01*
X6919167Y-7415976D02*
X6919167Y-7454071D01*
X7214405Y-7692167D02*
X7204881Y-7682643D01*
X7185833Y-7654071D01*
X7176309Y-7635024D01*
X7166786Y-7606452D01*
X7157262Y-7558833D01*
X7157262Y-7520738D01*
X7166786Y-7473119D01*
X7176309Y-7444548D01*
X7185833Y-7425500D01*
X7204881Y-7396928D01*
X7214405Y-7387405D01*
X7271548Y-7415976D02*
X7404881Y-7415976D01*
X7319167Y-7615976D01*
X7633452Y-7615976D02*
X7633452Y-7415976D01*
X7719167Y-7615976D02*
X7719167Y-7511214D01*
X7709643Y-7492167D01*
X7690595Y-7482643D01*
X7662024Y-7482643D01*
X7642976Y-7492167D01*
X7633452Y-7501690D01*
X7842976Y-7615976D02*
X7823928Y-7606452D01*
X7814405Y-7596928D01*
X7804881Y-7577881D01*
X7804881Y-7520738D01*
X7814405Y-7501690D01*
X7823928Y-7492167D01*
X7842976Y-7482643D01*
X7871548Y-7482643D01*
X7890595Y-7492167D01*
X7900119Y-7501690D01*
X7909643Y-7520738D01*
X7909643Y-7577881D01*
X7900119Y-7596928D01*
X7890595Y-7606452D01*
X7871548Y-7615976D01*
X7842976Y-7615976D01*
X8023928Y-7615976D02*
X8004881Y-7606452D01*
X7995357Y-7587405D01*
X7995357Y-7415976D01*
X8176309Y-7606452D02*
X8157262Y-7615976D01*
X8119167Y-7615976D01*
X8100119Y-7606452D01*
X8090595Y-7587405D01*
X8090595Y-7511214D01*
X8100119Y-7492167D01*
X8119167Y-7482643D01*
X8157262Y-7482643D01*
X8176309Y-7492167D01*
X8185833Y-7511214D01*
X8185833Y-7530262D01*
X8090595Y-7549309D01*
X8262024Y-7606452D02*
X8281071Y-7615976D01*
X8319167Y-7615976D01*
X8338214Y-7606452D01*
X8347738Y-7587405D01*
X8347738Y-7577881D01*
X8338214Y-7558833D01*
X8319167Y-7549309D01*
X8290595Y-7549309D01*
X8271548Y-7539786D01*
X8262024Y-7520738D01*
X8262024Y-7511214D01*
X8271548Y-7492167D01*
X8290595Y-7482643D01*
X8319167Y-7482643D01*
X8338214Y-7492167D01*
X8414405Y-7692167D02*
X8423929Y-7682643D01*
X8442976Y-7654071D01*
X8452500Y-7635024D01*
X8462024Y-7606452D01*
X8471548Y-7558833D01*
X8471548Y-7520738D01*
X8462024Y-7473119D01*
X8452500Y-7444548D01*
X8442976Y-7425500D01*
X8423929Y-7396928D01*
X8414405Y-7387405D01*
M02*
