%TF.GenerationSoftware,KiCad,Pcbnew,7.0.7*%
%TF.CreationDate,2023-12-28T18:43:45-05:00*%
%TF.ProjectId,O32controller,4f333263-6f6e-4747-926f-6c6c65722e6b,3*%
%TF.SameCoordinates,Original*%
%TF.FileFunction,Paste,Top*%
%TF.FilePolarity,Positive*%
%FSLAX46Y46*%
G04 Gerber Fmt 4.6, Leading zero omitted, Abs format (unit mm)*
G04 Created by KiCad (PCBNEW 7.0.7) date 2023-12-28 18:43:45*
%MOMM*%
%LPD*%
G01*
G04 APERTURE LIST*
G04 Aperture macros list*
%AMRoundRect*
0 Rectangle with rounded corners*
0 $1 Rounding radius*
0 $2 $3 $4 $5 $6 $7 $8 $9 X,Y pos of 4 corners*
0 Add a 4 corners polygon primitive as box body*
4,1,4,$2,$3,$4,$5,$6,$7,$8,$9,$2,$3,0*
0 Add four circle primitives for the rounded corners*
1,1,$1+$1,$2,$3*
1,1,$1+$1,$4,$5*
1,1,$1+$1,$6,$7*
1,1,$1+$1,$8,$9*
0 Add four rect primitives between the rounded corners*
20,1,$1+$1,$2,$3,$4,$5,0*
20,1,$1+$1,$4,$5,$6,$7,0*
20,1,$1+$1,$6,$7,$8,$9,0*
20,1,$1+$1,$8,$9,$2,$3,0*%
%AMFreePoly0*
4,1,78,0.535355,2.120355,0.550000,2.085000,0.550000,1.935000,0.535355,1.899645,0.500000,1.885000,0.150000,1.885000,0.150000,1.635000,0.500000,1.635000,0.535355,1.620355,0.550000,1.585000,0.550000,1.435000,0.535355,1.399645,0.500000,1.385000,0.150000,1.385000,0.150000,1.135000,0.500000,1.135000,0.535355,1.120355,0.550000,1.085000,0.550000,0.935000,0.535355,0.899645,
0.500000,0.885000,0.150000,0.885000,0.150000,0.635000,0.500000,0.635000,0.535355,0.620355,0.550000,0.585000,0.550000,0.435000,0.535355,0.399645,0.500000,0.385000,0.150000,0.385000,0.150000,0.135000,0.500000,0.135000,0.535355,0.120355,0.550000,0.085000,0.550000,-0.065000,0.535355,-0.100355,0.500000,-0.115000,0.150000,-0.115000,0.150000,-0.365000,0.500000,-0.365000,
0.535355,-0.379645,0.550000,-0.415000,0.550000,-0.565000,0.535355,-0.600355,0.500000,-0.615000,0.150000,-0.615000,0.150000,-0.865000,0.500000,-0.865000,0.535355,-0.879645,0.550000,-0.915000,0.550000,-1.065000,0.535355,-1.100355,0.500000,-1.115000,0.150000,-1.115000,0.150000,-1.365000,0.500000,-1.365000,0.535355,-1.379645,0.550000,-1.415000,0.550000,-1.565000,0.535355,-1.600355,
0.500000,-1.615000,0.150000,-1.615000,0.150000,-1.865000,0.500000,-1.865000,0.535355,-1.879645,0.550000,-1.915000,0.550000,-2.065000,0.535355,-2.100355,0.500000,-2.115000,-0.100000,-2.115000,-0.102414,-2.114000,-0.150000,-2.114000,-0.150000,2.114000,-0.137987,2.114000,-0.135355,2.120355,-0.100000,2.135000,0.500000,2.135000,0.535355,2.120355,0.535355,2.120355,$1*%
G04 Aperture macros list end*
%ADD10C,0.100000*%
%ADD11RoundRect,0.250000X-0.475000X0.250000X-0.475000X-0.250000X0.475000X-0.250000X0.475000X0.250000X0*%
%ADD12RoundRect,0.250000X0.475000X-0.250000X0.475000X0.250000X-0.475000X0.250000X-0.475000X-0.250000X0*%
%ADD13R,0.385000X0.690000*%
%ADD14R,1.035000X0.690000*%
%ADD15RoundRect,0.218750X0.256250X-0.218750X0.256250X0.218750X-0.256250X0.218750X-0.256250X-0.218750X0*%
%ADD16RoundRect,0.140000X0.140000X0.170000X-0.140000X0.170000X-0.140000X-0.170000X0.140000X-0.170000X0*%
%ADD17RoundRect,0.225000X0.250000X-0.225000X0.250000X0.225000X-0.250000X0.225000X-0.250000X-0.225000X0*%
%ADD18RoundRect,0.135000X0.135000X0.185000X-0.135000X0.185000X-0.135000X-0.185000X0.135000X-0.185000X0*%
%ADD19RoundRect,0.250000X-0.300000X-0.300000X0.300000X-0.300000X0.300000X0.300000X-0.300000X0.300000X0*%
%ADD20RoundRect,0.062500X-0.375000X-0.062500X0.375000X-0.062500X0.375000X0.062500X-0.375000X0.062500X0*%
%ADD21RoundRect,0.062500X-0.062500X-0.375000X0.062500X-0.375000X0.062500X0.375000X-0.062500X0.375000X0*%
%ADD22RoundRect,0.135000X0.185000X-0.135000X0.185000X0.135000X-0.185000X0.135000X-0.185000X-0.135000X0*%
%ADD23RoundRect,0.140000X-0.170000X0.140000X-0.170000X-0.140000X0.170000X-0.140000X0.170000X0.140000X0*%
%ADD24RoundRect,0.135000X-0.135000X-0.185000X0.135000X-0.185000X0.135000X0.185000X-0.135000X0.185000X0*%
%ADD25R,0.700001X0.249999*%
%ADD26FreePoly0,0.000000*%
%ADD27FreePoly0,180.000000*%
%ADD28R,0.429999X0.375001*%
%ADD29R,1.600000X0.650000*%
%ADD30RoundRect,0.135000X-0.185000X0.135000X-0.185000X-0.135000X0.185000X-0.135000X0.185000X0.135000X0*%
%ADD31RoundRect,0.140000X0.170000X-0.140000X0.170000X0.140000X-0.170000X0.140000X-0.170000X-0.140000X0*%
%ADD32RoundRect,0.225000X-0.250000X0.225000X-0.250000X-0.225000X0.250000X-0.225000X0.250000X0.225000X0*%
%ADD33R,0.690000X0.385000*%
%ADD34R,0.690000X1.035000*%
G04 APERTURE END LIST*
%TO.C,Q2*%
D10*
X21419433Y12079027D02*
X21428887Y12076160D01*
X21437599Y12071501D01*
X21445237Y12065235D01*
X21451506Y12057598D01*
X21456164Y12048883D01*
X21459032Y12039429D01*
X21460000Y12029597D01*
X21460000Y11010396D01*
X21459032Y11000564D01*
X21456164Y10991110D01*
X21451506Y10982395D01*
X21445237Y10974757D01*
X21437599Y10968491D01*
X21428887Y10963833D01*
X21419433Y10960965D01*
X21409598Y10959995D01*
X20100401Y10959995D01*
X20090566Y10960965D01*
X20081112Y10963833D01*
X20072400Y10968491D01*
X20064762Y10974757D01*
X20058494Y10982395D01*
X20053835Y10991110D01*
X20050968Y11000564D01*
X20050000Y11010396D01*
X20050000Y12029597D01*
X20050968Y12039429D01*
X20053835Y12048883D01*
X20058494Y12057598D01*
X20064762Y12065235D01*
X20072400Y12071501D01*
X20081112Y12076160D01*
X20090566Y12079027D01*
X20100401Y12079995D01*
X21409598Y12079995D01*
X21419433Y12079027D01*
G36*
X21419433Y12079027D02*
G01*
X21428887Y12076160D01*
X21437599Y12071501D01*
X21445237Y12065235D01*
X21451506Y12057598D01*
X21456164Y12048883D01*
X21459032Y12039429D01*
X21460000Y12029597D01*
X21460000Y11010396D01*
X21459032Y11000564D01*
X21456164Y10991110D01*
X21451506Y10982395D01*
X21445237Y10974757D01*
X21437599Y10968491D01*
X21428887Y10963833D01*
X21419433Y10960965D01*
X21409598Y10959995D01*
X20100401Y10959995D01*
X20090566Y10960965D01*
X20081112Y10963833D01*
X20072400Y10968491D01*
X20064762Y10974757D01*
X20058494Y10982395D01*
X20053835Y10991110D01*
X20050968Y11000564D01*
X20050000Y11010396D01*
X20050000Y12029597D01*
X20050968Y12039429D01*
X20053835Y12048883D01*
X20058494Y12057598D01*
X20064762Y12065235D01*
X20072400Y12071501D01*
X20081112Y12076160D01*
X20090566Y12079027D01*
X20100401Y12079995D01*
X21409598Y12079995D01*
X21419433Y12079027D01*
G37*
X21419433Y13399030D02*
X21428887Y13396162D01*
X21437599Y13391504D01*
X21445237Y13385238D01*
X21451506Y13377600D01*
X21456164Y13368885D01*
X21459032Y13359431D01*
X21460000Y13349599D01*
X21460000Y12330399D01*
X21459032Y12320566D01*
X21456164Y12311112D01*
X21451506Y12302398D01*
X21445237Y12294760D01*
X21437599Y12288494D01*
X21428887Y12283835D01*
X21419433Y12280968D01*
X21409598Y12279997D01*
X20100401Y12279997D01*
X20090566Y12280968D01*
X20081112Y12283835D01*
X20072400Y12288494D01*
X20064762Y12294760D01*
X20058494Y12302398D01*
X20053835Y12311112D01*
X20050968Y12320566D01*
X20050000Y12330399D01*
X20050000Y13349599D01*
X20050968Y13359431D01*
X20053835Y13368885D01*
X20058494Y13377600D01*
X20064762Y13385238D01*
X20072400Y13391504D01*
X20081112Y13396162D01*
X20090566Y13399030D01*
X20100401Y13399998D01*
X21409598Y13399998D01*
X21419433Y13399030D01*
G36*
X21419433Y13399030D02*
G01*
X21428887Y13396162D01*
X21437599Y13391504D01*
X21445237Y13385238D01*
X21451506Y13377600D01*
X21456164Y13368885D01*
X21459032Y13359431D01*
X21460000Y13349599D01*
X21460000Y12330399D01*
X21459032Y12320566D01*
X21456164Y12311112D01*
X21451506Y12302398D01*
X21445237Y12294760D01*
X21437599Y12288494D01*
X21428887Y12283835D01*
X21419433Y12280968D01*
X21409598Y12279997D01*
X20100401Y12279997D01*
X20090566Y12280968D01*
X20081112Y12283835D01*
X20072400Y12288494D01*
X20064762Y12294760D01*
X20058494Y12302398D01*
X20053835Y12311112D01*
X20050968Y12320566D01*
X20050000Y12330399D01*
X20050000Y13349599D01*
X20050968Y13359431D01*
X20053835Y13368885D01*
X20058494Y13377600D01*
X20064762Y13385238D01*
X20072400Y13391504D01*
X20081112Y13396162D01*
X20090566Y13399030D01*
X20100401Y13399998D01*
X21409598Y13399998D01*
X21419433Y13399030D01*
G37*
X21419433Y14719032D02*
X21428887Y14716165D01*
X21437599Y14711506D01*
X21445237Y14705240D01*
X21451506Y14697602D01*
X21456164Y14688888D01*
X21459032Y14679434D01*
X21460000Y14669601D01*
X21460000Y13650401D01*
X21459032Y13640569D01*
X21456164Y13631115D01*
X21451506Y13622400D01*
X21445237Y13614762D01*
X21437599Y13608496D01*
X21428887Y13603838D01*
X21419433Y13600970D01*
X21409598Y13600002D01*
X20100401Y13600002D01*
X20090566Y13600970D01*
X20081112Y13603838D01*
X20072400Y13608496D01*
X20064762Y13614762D01*
X20058494Y13622400D01*
X20053835Y13631115D01*
X20050968Y13640569D01*
X20050000Y13650401D01*
X20050000Y14669601D01*
X20050968Y14679434D01*
X20053835Y14688888D01*
X20058494Y14697602D01*
X20064762Y14705240D01*
X20072400Y14711506D01*
X20081112Y14716165D01*
X20090566Y14719032D01*
X20100401Y14720003D01*
X21409598Y14720003D01*
X21419433Y14719032D01*
G36*
X21419433Y14719032D02*
G01*
X21428887Y14716165D01*
X21437599Y14711506D01*
X21445237Y14705240D01*
X21451506Y14697602D01*
X21456164Y14688888D01*
X21459032Y14679434D01*
X21460000Y14669601D01*
X21460000Y13650401D01*
X21459032Y13640569D01*
X21456164Y13631115D01*
X21451506Y13622400D01*
X21445237Y13614762D01*
X21437599Y13608496D01*
X21428887Y13603838D01*
X21419433Y13600970D01*
X21409598Y13600002D01*
X20100401Y13600002D01*
X20090566Y13600970D01*
X20081112Y13603838D01*
X20072400Y13608496D01*
X20064762Y13614762D01*
X20058494Y13622400D01*
X20053835Y13631115D01*
X20050968Y13640569D01*
X20050000Y13650401D01*
X20050000Y14669601D01*
X20050968Y14679434D01*
X20053835Y14688888D01*
X20058494Y14697602D01*
X20064762Y14705240D01*
X20072400Y14711506D01*
X20081112Y14716165D01*
X20090566Y14719032D01*
X20100401Y14720003D01*
X21409598Y14720003D01*
X21419433Y14719032D01*
G37*
X21419433Y16039035D02*
X21428887Y16036167D01*
X21437599Y16031509D01*
X21445237Y16025243D01*
X21451506Y16017605D01*
X21456164Y16008890D01*
X21459032Y15999436D01*
X21460000Y15989604D01*
X21460000Y14970403D01*
X21459032Y14960571D01*
X21456164Y14951117D01*
X21451506Y14942402D01*
X21445237Y14934765D01*
X21437599Y14928499D01*
X21428887Y14923840D01*
X21419433Y14920973D01*
X21409598Y14920005D01*
X20100401Y14920005D01*
X20090566Y14920973D01*
X20081112Y14923840D01*
X20072400Y14928499D01*
X20064762Y14934765D01*
X20058494Y14942402D01*
X20053835Y14951117D01*
X20050968Y14960571D01*
X20050000Y14970403D01*
X20050000Y15989604D01*
X20050968Y15999436D01*
X20053835Y16008890D01*
X20058494Y16017605D01*
X20064762Y16025243D01*
X20072400Y16031509D01*
X20081112Y16036167D01*
X20090566Y16039035D01*
X20100401Y16040005D01*
X21409598Y16040005D01*
X21419433Y16039035D01*
G36*
X21419433Y16039035D02*
G01*
X21428887Y16036167D01*
X21437599Y16031509D01*
X21445237Y16025243D01*
X21451506Y16017605D01*
X21456164Y16008890D01*
X21459032Y15999436D01*
X21460000Y15989604D01*
X21460000Y14970403D01*
X21459032Y14960571D01*
X21456164Y14951117D01*
X21451506Y14942402D01*
X21445237Y14934765D01*
X21437599Y14928499D01*
X21428887Y14923840D01*
X21419433Y14920973D01*
X21409598Y14920005D01*
X20100401Y14920005D01*
X20090566Y14920973D01*
X20081112Y14923840D01*
X20072400Y14928499D01*
X20064762Y14934765D01*
X20058494Y14942402D01*
X20053835Y14951117D01*
X20050968Y14960571D01*
X20050000Y14970403D01*
X20050000Y15989604D01*
X20050968Y15999436D01*
X20053835Y16008890D01*
X20058494Y16017605D01*
X20064762Y16025243D01*
X20072400Y16031509D01*
X20081112Y16036167D01*
X20090566Y16039035D01*
X20100401Y16040005D01*
X21409598Y16040005D01*
X21419433Y16039035D01*
G37*
X19809434Y12079027D02*
X19818888Y12076160D01*
X19827600Y12071501D01*
X19835238Y12065235D01*
X19841506Y12057598D01*
X19846165Y12048883D01*
X19849032Y12039429D01*
X19850000Y12029597D01*
X19850000Y11010396D01*
X19849032Y11000564D01*
X19846165Y10991110D01*
X19841506Y10982395D01*
X19835238Y10974757D01*
X19827600Y10968491D01*
X19818888Y10963833D01*
X19809434Y10960965D01*
X19799599Y10959995D01*
X18490402Y10959995D01*
X18480567Y10960965D01*
X18471113Y10963833D01*
X18462401Y10968491D01*
X18454763Y10974757D01*
X18448494Y10982395D01*
X18443836Y10991110D01*
X18440968Y11000564D01*
X18440000Y11010396D01*
X18440000Y12029597D01*
X18440968Y12039429D01*
X18443836Y12048883D01*
X18448494Y12057598D01*
X18454763Y12065235D01*
X18462401Y12071501D01*
X18471113Y12076160D01*
X18480567Y12079027D01*
X18490402Y12079995D01*
X19799599Y12079995D01*
X19809434Y12079027D01*
G36*
X19809434Y12079027D02*
G01*
X19818888Y12076160D01*
X19827600Y12071501D01*
X19835238Y12065235D01*
X19841506Y12057598D01*
X19846165Y12048883D01*
X19849032Y12039429D01*
X19850000Y12029597D01*
X19850000Y11010396D01*
X19849032Y11000564D01*
X19846165Y10991110D01*
X19841506Y10982395D01*
X19835238Y10974757D01*
X19827600Y10968491D01*
X19818888Y10963833D01*
X19809434Y10960965D01*
X19799599Y10959995D01*
X18490402Y10959995D01*
X18480567Y10960965D01*
X18471113Y10963833D01*
X18462401Y10968491D01*
X18454763Y10974757D01*
X18448494Y10982395D01*
X18443836Y10991110D01*
X18440968Y11000564D01*
X18440000Y11010396D01*
X18440000Y12029597D01*
X18440968Y12039429D01*
X18443836Y12048883D01*
X18448494Y12057598D01*
X18454763Y12065235D01*
X18462401Y12071501D01*
X18471113Y12076160D01*
X18480567Y12079027D01*
X18490402Y12079995D01*
X19799599Y12079995D01*
X19809434Y12079027D01*
G37*
X19809434Y16039035D02*
X19818888Y16036167D01*
X19827600Y16031509D01*
X19835238Y16025243D01*
X19841506Y16017605D01*
X19846165Y16008890D01*
X19849032Y15999436D01*
X19850000Y15989604D01*
X19850000Y14970403D01*
X19849032Y14960571D01*
X19846165Y14951117D01*
X19841506Y14942402D01*
X19835238Y14934765D01*
X19827600Y14928499D01*
X19818888Y14923840D01*
X19809434Y14920973D01*
X19799599Y14920005D01*
X18490402Y14920005D01*
X18480567Y14920973D01*
X18471113Y14923840D01*
X18462401Y14928499D01*
X18454763Y14934765D01*
X18448494Y14942402D01*
X18443836Y14951117D01*
X18440968Y14960571D01*
X18440000Y14970403D01*
X18440000Y15989604D01*
X18440968Y15999436D01*
X18443836Y16008890D01*
X18448494Y16017605D01*
X18454763Y16025243D01*
X18462401Y16031509D01*
X18471113Y16036167D01*
X18480567Y16039035D01*
X18490402Y16040005D01*
X19799599Y16040005D01*
X19809434Y16039035D01*
G36*
X19809434Y16039035D02*
G01*
X19818888Y16036167D01*
X19827600Y16031509D01*
X19835238Y16025243D01*
X19841506Y16017605D01*
X19846165Y16008890D01*
X19849032Y15999436D01*
X19850000Y15989604D01*
X19850000Y14970403D01*
X19849032Y14960571D01*
X19846165Y14951117D01*
X19841506Y14942402D01*
X19835238Y14934765D01*
X19827600Y14928499D01*
X19818888Y14923840D01*
X19809434Y14920973D01*
X19799599Y14920005D01*
X18490402Y14920005D01*
X18480567Y14920973D01*
X18471113Y14923840D01*
X18462401Y14928499D01*
X18454763Y14934765D01*
X18448494Y14942402D01*
X18443836Y14951117D01*
X18440968Y14960571D01*
X18440000Y14970403D01*
X18440000Y15989604D01*
X18440968Y15999436D01*
X18443836Y16008890D01*
X18448494Y16017605D01*
X18454763Y16025243D01*
X18462401Y16031509D01*
X18471113Y16036167D01*
X18480567Y16039035D01*
X18490402Y16040005D01*
X19799599Y16040005D01*
X19809434Y16039035D01*
G37*
X19809434Y13399030D02*
X19818888Y13396162D01*
X19827600Y13391504D01*
X19835238Y13385238D01*
X19841506Y13377600D01*
X19846165Y13368885D01*
X19849032Y13359431D01*
X19850000Y13349599D01*
X19850000Y12330399D01*
X19849032Y12320566D01*
X19846165Y12311112D01*
X19841506Y12302398D01*
X19835238Y12294760D01*
X19827600Y12288494D01*
X19818888Y12283835D01*
X19809434Y12280968D01*
X19799599Y12279997D01*
X18490402Y12279997D01*
X18480567Y12280968D01*
X18471113Y12283835D01*
X18462401Y12288494D01*
X18454763Y12294760D01*
X18448494Y12302398D01*
X18443836Y12311112D01*
X18440968Y12320566D01*
X18440000Y12330399D01*
X18440000Y13349599D01*
X18440968Y13359431D01*
X18443836Y13368885D01*
X18448494Y13377600D01*
X18454763Y13385238D01*
X18462401Y13391504D01*
X18471113Y13396162D01*
X18480567Y13399030D01*
X18490402Y13399998D01*
X19799599Y13399998D01*
X19809434Y13399030D01*
G36*
X19809434Y13399030D02*
G01*
X19818888Y13396162D01*
X19827600Y13391504D01*
X19835238Y13385238D01*
X19841506Y13377600D01*
X19846165Y13368885D01*
X19849032Y13359431D01*
X19850000Y13349599D01*
X19850000Y12330399D01*
X19849032Y12320566D01*
X19846165Y12311112D01*
X19841506Y12302398D01*
X19835238Y12294760D01*
X19827600Y12288494D01*
X19818888Y12283835D01*
X19809434Y12280968D01*
X19799599Y12279997D01*
X18490402Y12279997D01*
X18480567Y12280968D01*
X18471113Y12283835D01*
X18462401Y12288494D01*
X18454763Y12294760D01*
X18448494Y12302398D01*
X18443836Y12311112D01*
X18440968Y12320566D01*
X18440000Y12330399D01*
X18440000Y13349599D01*
X18440968Y13359431D01*
X18443836Y13368885D01*
X18448494Y13377600D01*
X18454763Y13385238D01*
X18462401Y13391504D01*
X18471113Y13396162D01*
X18480567Y13399030D01*
X18490402Y13399998D01*
X19799599Y13399998D01*
X19809434Y13399030D01*
G37*
X19809434Y14719032D02*
X19818888Y14716165D01*
X19827600Y14711506D01*
X19835238Y14705240D01*
X19841506Y14697602D01*
X19846165Y14688888D01*
X19849032Y14679434D01*
X19850000Y14669601D01*
X19850000Y13650401D01*
X19849032Y13640569D01*
X19846165Y13631115D01*
X19841506Y13622400D01*
X19835238Y13614762D01*
X19827600Y13608496D01*
X19818888Y13603838D01*
X19809434Y13600970D01*
X19799599Y13600002D01*
X18490402Y13600002D01*
X18480567Y13600970D01*
X18471113Y13603838D01*
X18462401Y13608496D01*
X18454763Y13614762D01*
X18448494Y13622400D01*
X18443836Y13631115D01*
X18440968Y13640569D01*
X18440000Y13650401D01*
X18440000Y14669601D01*
X18440968Y14679434D01*
X18443836Y14688888D01*
X18448494Y14697602D01*
X18454763Y14705240D01*
X18462401Y14711506D01*
X18471113Y14716165D01*
X18480567Y14719032D01*
X18490402Y14720003D01*
X19799599Y14720003D01*
X19809434Y14719032D01*
G36*
X19809434Y14719032D02*
G01*
X19818888Y14716165D01*
X19827600Y14711506D01*
X19835238Y14705240D01*
X19841506Y14697602D01*
X19846165Y14688888D01*
X19849032Y14679434D01*
X19850000Y14669601D01*
X19850000Y13650401D01*
X19849032Y13640569D01*
X19846165Y13631115D01*
X19841506Y13622400D01*
X19835238Y13614762D01*
X19827600Y13608496D01*
X19818888Y13603838D01*
X19809434Y13600970D01*
X19799599Y13600002D01*
X18490402Y13600002D01*
X18480567Y13600970D01*
X18471113Y13603838D01*
X18462401Y13608496D01*
X18454763Y13614762D01*
X18448494Y13622400D01*
X18443836Y13631115D01*
X18440968Y13640569D01*
X18440000Y13650401D01*
X18440000Y14669601D01*
X18440968Y14679434D01*
X18443836Y14688888D01*
X18448494Y14697602D01*
X18454763Y14705240D01*
X18462401Y14711506D01*
X18471113Y14716165D01*
X18480567Y14719032D01*
X18490402Y14720003D01*
X19799599Y14720003D01*
X19809434Y14719032D01*
G37*
%TO.C,Q3*%
X21419433Y5079027D02*
X21428887Y5076160D01*
X21437599Y5071501D01*
X21445237Y5065235D01*
X21451506Y5057598D01*
X21456164Y5048883D01*
X21459032Y5039429D01*
X21460000Y5029597D01*
X21460000Y4010396D01*
X21459032Y4000564D01*
X21456164Y3991110D01*
X21451506Y3982395D01*
X21445237Y3974757D01*
X21437599Y3968491D01*
X21428887Y3963833D01*
X21419433Y3960965D01*
X21409598Y3959995D01*
X20100401Y3959995D01*
X20090566Y3960965D01*
X20081112Y3963833D01*
X20072400Y3968491D01*
X20064762Y3974757D01*
X20058494Y3982395D01*
X20053835Y3991110D01*
X20050968Y4000564D01*
X20050000Y4010396D01*
X20050000Y5029597D01*
X20050968Y5039429D01*
X20053835Y5048883D01*
X20058494Y5057598D01*
X20064762Y5065235D01*
X20072400Y5071501D01*
X20081112Y5076160D01*
X20090566Y5079027D01*
X20100401Y5079995D01*
X21409598Y5079995D01*
X21419433Y5079027D01*
G36*
X21419433Y5079027D02*
G01*
X21428887Y5076160D01*
X21437599Y5071501D01*
X21445237Y5065235D01*
X21451506Y5057598D01*
X21456164Y5048883D01*
X21459032Y5039429D01*
X21460000Y5029597D01*
X21460000Y4010396D01*
X21459032Y4000564D01*
X21456164Y3991110D01*
X21451506Y3982395D01*
X21445237Y3974757D01*
X21437599Y3968491D01*
X21428887Y3963833D01*
X21419433Y3960965D01*
X21409598Y3959995D01*
X20100401Y3959995D01*
X20090566Y3960965D01*
X20081112Y3963833D01*
X20072400Y3968491D01*
X20064762Y3974757D01*
X20058494Y3982395D01*
X20053835Y3991110D01*
X20050968Y4000564D01*
X20050000Y4010396D01*
X20050000Y5029597D01*
X20050968Y5039429D01*
X20053835Y5048883D01*
X20058494Y5057598D01*
X20064762Y5065235D01*
X20072400Y5071501D01*
X20081112Y5076160D01*
X20090566Y5079027D01*
X20100401Y5079995D01*
X21409598Y5079995D01*
X21419433Y5079027D01*
G37*
X21419433Y6399030D02*
X21428887Y6396162D01*
X21437599Y6391504D01*
X21445237Y6385238D01*
X21451506Y6377600D01*
X21456164Y6368885D01*
X21459032Y6359431D01*
X21460000Y6349599D01*
X21460000Y5330399D01*
X21459032Y5320566D01*
X21456164Y5311112D01*
X21451506Y5302398D01*
X21445237Y5294760D01*
X21437599Y5288494D01*
X21428887Y5283835D01*
X21419433Y5280968D01*
X21409598Y5279997D01*
X20100401Y5279997D01*
X20090566Y5280968D01*
X20081112Y5283835D01*
X20072400Y5288494D01*
X20064762Y5294760D01*
X20058494Y5302398D01*
X20053835Y5311112D01*
X20050968Y5320566D01*
X20050000Y5330399D01*
X20050000Y6349599D01*
X20050968Y6359431D01*
X20053835Y6368885D01*
X20058494Y6377600D01*
X20064762Y6385238D01*
X20072400Y6391504D01*
X20081112Y6396162D01*
X20090566Y6399030D01*
X20100401Y6399998D01*
X21409598Y6399998D01*
X21419433Y6399030D01*
G36*
X21419433Y6399030D02*
G01*
X21428887Y6396162D01*
X21437599Y6391504D01*
X21445237Y6385238D01*
X21451506Y6377600D01*
X21456164Y6368885D01*
X21459032Y6359431D01*
X21460000Y6349599D01*
X21460000Y5330399D01*
X21459032Y5320566D01*
X21456164Y5311112D01*
X21451506Y5302398D01*
X21445237Y5294760D01*
X21437599Y5288494D01*
X21428887Y5283835D01*
X21419433Y5280968D01*
X21409598Y5279997D01*
X20100401Y5279997D01*
X20090566Y5280968D01*
X20081112Y5283835D01*
X20072400Y5288494D01*
X20064762Y5294760D01*
X20058494Y5302398D01*
X20053835Y5311112D01*
X20050968Y5320566D01*
X20050000Y5330399D01*
X20050000Y6349599D01*
X20050968Y6359431D01*
X20053835Y6368885D01*
X20058494Y6377600D01*
X20064762Y6385238D01*
X20072400Y6391504D01*
X20081112Y6396162D01*
X20090566Y6399030D01*
X20100401Y6399998D01*
X21409598Y6399998D01*
X21419433Y6399030D01*
G37*
X21419433Y7719032D02*
X21428887Y7716165D01*
X21437599Y7711506D01*
X21445237Y7705240D01*
X21451506Y7697602D01*
X21456164Y7688888D01*
X21459032Y7679434D01*
X21460000Y7669601D01*
X21460000Y6650401D01*
X21459032Y6640569D01*
X21456164Y6631115D01*
X21451506Y6622400D01*
X21445237Y6614762D01*
X21437599Y6608496D01*
X21428887Y6603838D01*
X21419433Y6600970D01*
X21409598Y6600002D01*
X20100401Y6600002D01*
X20090566Y6600970D01*
X20081112Y6603838D01*
X20072400Y6608496D01*
X20064762Y6614762D01*
X20058494Y6622400D01*
X20053835Y6631115D01*
X20050968Y6640569D01*
X20050000Y6650401D01*
X20050000Y7669601D01*
X20050968Y7679434D01*
X20053835Y7688888D01*
X20058494Y7697602D01*
X20064762Y7705240D01*
X20072400Y7711506D01*
X20081112Y7716165D01*
X20090566Y7719032D01*
X20100401Y7720003D01*
X21409598Y7720003D01*
X21419433Y7719032D01*
G36*
X21419433Y7719032D02*
G01*
X21428887Y7716165D01*
X21437599Y7711506D01*
X21445237Y7705240D01*
X21451506Y7697602D01*
X21456164Y7688888D01*
X21459032Y7679434D01*
X21460000Y7669601D01*
X21460000Y6650401D01*
X21459032Y6640569D01*
X21456164Y6631115D01*
X21451506Y6622400D01*
X21445237Y6614762D01*
X21437599Y6608496D01*
X21428887Y6603838D01*
X21419433Y6600970D01*
X21409598Y6600002D01*
X20100401Y6600002D01*
X20090566Y6600970D01*
X20081112Y6603838D01*
X20072400Y6608496D01*
X20064762Y6614762D01*
X20058494Y6622400D01*
X20053835Y6631115D01*
X20050968Y6640569D01*
X20050000Y6650401D01*
X20050000Y7669601D01*
X20050968Y7679434D01*
X20053835Y7688888D01*
X20058494Y7697602D01*
X20064762Y7705240D01*
X20072400Y7711506D01*
X20081112Y7716165D01*
X20090566Y7719032D01*
X20100401Y7720003D01*
X21409598Y7720003D01*
X21419433Y7719032D01*
G37*
X21419433Y9039035D02*
X21428887Y9036167D01*
X21437599Y9031509D01*
X21445237Y9025243D01*
X21451506Y9017605D01*
X21456164Y9008890D01*
X21459032Y8999436D01*
X21460000Y8989604D01*
X21460000Y7970403D01*
X21459032Y7960571D01*
X21456164Y7951117D01*
X21451506Y7942402D01*
X21445237Y7934765D01*
X21437599Y7928499D01*
X21428887Y7923840D01*
X21419433Y7920973D01*
X21409598Y7920005D01*
X20100401Y7920005D01*
X20090566Y7920973D01*
X20081112Y7923840D01*
X20072400Y7928499D01*
X20064762Y7934765D01*
X20058494Y7942402D01*
X20053835Y7951117D01*
X20050968Y7960571D01*
X20050000Y7970403D01*
X20050000Y8989604D01*
X20050968Y8999436D01*
X20053835Y9008890D01*
X20058494Y9017605D01*
X20064762Y9025243D01*
X20072400Y9031509D01*
X20081112Y9036167D01*
X20090566Y9039035D01*
X20100401Y9040005D01*
X21409598Y9040005D01*
X21419433Y9039035D01*
G36*
X21419433Y9039035D02*
G01*
X21428887Y9036167D01*
X21437599Y9031509D01*
X21445237Y9025243D01*
X21451506Y9017605D01*
X21456164Y9008890D01*
X21459032Y8999436D01*
X21460000Y8989604D01*
X21460000Y7970403D01*
X21459032Y7960571D01*
X21456164Y7951117D01*
X21451506Y7942402D01*
X21445237Y7934765D01*
X21437599Y7928499D01*
X21428887Y7923840D01*
X21419433Y7920973D01*
X21409598Y7920005D01*
X20100401Y7920005D01*
X20090566Y7920973D01*
X20081112Y7923840D01*
X20072400Y7928499D01*
X20064762Y7934765D01*
X20058494Y7942402D01*
X20053835Y7951117D01*
X20050968Y7960571D01*
X20050000Y7970403D01*
X20050000Y8989604D01*
X20050968Y8999436D01*
X20053835Y9008890D01*
X20058494Y9017605D01*
X20064762Y9025243D01*
X20072400Y9031509D01*
X20081112Y9036167D01*
X20090566Y9039035D01*
X20100401Y9040005D01*
X21409598Y9040005D01*
X21419433Y9039035D01*
G37*
X19809434Y5079027D02*
X19818888Y5076160D01*
X19827600Y5071501D01*
X19835238Y5065235D01*
X19841506Y5057598D01*
X19846165Y5048883D01*
X19849032Y5039429D01*
X19850000Y5029597D01*
X19850000Y4010396D01*
X19849032Y4000564D01*
X19846165Y3991110D01*
X19841506Y3982395D01*
X19835238Y3974757D01*
X19827600Y3968491D01*
X19818888Y3963833D01*
X19809434Y3960965D01*
X19799599Y3959995D01*
X18490402Y3959995D01*
X18480567Y3960965D01*
X18471113Y3963833D01*
X18462401Y3968491D01*
X18454763Y3974757D01*
X18448494Y3982395D01*
X18443836Y3991110D01*
X18440968Y4000564D01*
X18440000Y4010396D01*
X18440000Y5029597D01*
X18440968Y5039429D01*
X18443836Y5048883D01*
X18448494Y5057598D01*
X18454763Y5065235D01*
X18462401Y5071501D01*
X18471113Y5076160D01*
X18480567Y5079027D01*
X18490402Y5079995D01*
X19799599Y5079995D01*
X19809434Y5079027D01*
G36*
X19809434Y5079027D02*
G01*
X19818888Y5076160D01*
X19827600Y5071501D01*
X19835238Y5065235D01*
X19841506Y5057598D01*
X19846165Y5048883D01*
X19849032Y5039429D01*
X19850000Y5029597D01*
X19850000Y4010396D01*
X19849032Y4000564D01*
X19846165Y3991110D01*
X19841506Y3982395D01*
X19835238Y3974757D01*
X19827600Y3968491D01*
X19818888Y3963833D01*
X19809434Y3960965D01*
X19799599Y3959995D01*
X18490402Y3959995D01*
X18480567Y3960965D01*
X18471113Y3963833D01*
X18462401Y3968491D01*
X18454763Y3974757D01*
X18448494Y3982395D01*
X18443836Y3991110D01*
X18440968Y4000564D01*
X18440000Y4010396D01*
X18440000Y5029597D01*
X18440968Y5039429D01*
X18443836Y5048883D01*
X18448494Y5057598D01*
X18454763Y5065235D01*
X18462401Y5071501D01*
X18471113Y5076160D01*
X18480567Y5079027D01*
X18490402Y5079995D01*
X19799599Y5079995D01*
X19809434Y5079027D01*
G37*
X19809434Y9039035D02*
X19818888Y9036167D01*
X19827600Y9031509D01*
X19835238Y9025243D01*
X19841506Y9017605D01*
X19846165Y9008890D01*
X19849032Y8999436D01*
X19850000Y8989604D01*
X19850000Y7970403D01*
X19849032Y7960571D01*
X19846165Y7951117D01*
X19841506Y7942402D01*
X19835238Y7934765D01*
X19827600Y7928499D01*
X19818888Y7923840D01*
X19809434Y7920973D01*
X19799599Y7920005D01*
X18490402Y7920005D01*
X18480567Y7920973D01*
X18471113Y7923840D01*
X18462401Y7928499D01*
X18454763Y7934765D01*
X18448494Y7942402D01*
X18443836Y7951117D01*
X18440968Y7960571D01*
X18440000Y7970403D01*
X18440000Y8989604D01*
X18440968Y8999436D01*
X18443836Y9008890D01*
X18448494Y9017605D01*
X18454763Y9025243D01*
X18462401Y9031509D01*
X18471113Y9036167D01*
X18480567Y9039035D01*
X18490402Y9040005D01*
X19799599Y9040005D01*
X19809434Y9039035D01*
G36*
X19809434Y9039035D02*
G01*
X19818888Y9036167D01*
X19827600Y9031509D01*
X19835238Y9025243D01*
X19841506Y9017605D01*
X19846165Y9008890D01*
X19849032Y8999436D01*
X19850000Y8989604D01*
X19850000Y7970403D01*
X19849032Y7960571D01*
X19846165Y7951117D01*
X19841506Y7942402D01*
X19835238Y7934765D01*
X19827600Y7928499D01*
X19818888Y7923840D01*
X19809434Y7920973D01*
X19799599Y7920005D01*
X18490402Y7920005D01*
X18480567Y7920973D01*
X18471113Y7923840D01*
X18462401Y7928499D01*
X18454763Y7934765D01*
X18448494Y7942402D01*
X18443836Y7951117D01*
X18440968Y7960571D01*
X18440000Y7970403D01*
X18440000Y8989604D01*
X18440968Y8999436D01*
X18443836Y9008890D01*
X18448494Y9017605D01*
X18454763Y9025243D01*
X18462401Y9031509D01*
X18471113Y9036167D01*
X18480567Y9039035D01*
X18490402Y9040005D01*
X19799599Y9040005D01*
X19809434Y9039035D01*
G37*
X19809434Y6399030D02*
X19818888Y6396162D01*
X19827600Y6391504D01*
X19835238Y6385238D01*
X19841506Y6377600D01*
X19846165Y6368885D01*
X19849032Y6359431D01*
X19850000Y6349599D01*
X19850000Y5330399D01*
X19849032Y5320566D01*
X19846165Y5311112D01*
X19841506Y5302398D01*
X19835238Y5294760D01*
X19827600Y5288494D01*
X19818888Y5283835D01*
X19809434Y5280968D01*
X19799599Y5279997D01*
X18490402Y5279997D01*
X18480567Y5280968D01*
X18471113Y5283835D01*
X18462401Y5288494D01*
X18454763Y5294760D01*
X18448494Y5302398D01*
X18443836Y5311112D01*
X18440968Y5320566D01*
X18440000Y5330399D01*
X18440000Y6349599D01*
X18440968Y6359431D01*
X18443836Y6368885D01*
X18448494Y6377600D01*
X18454763Y6385238D01*
X18462401Y6391504D01*
X18471113Y6396162D01*
X18480567Y6399030D01*
X18490402Y6399998D01*
X19799599Y6399998D01*
X19809434Y6399030D01*
G36*
X19809434Y6399030D02*
G01*
X19818888Y6396162D01*
X19827600Y6391504D01*
X19835238Y6385238D01*
X19841506Y6377600D01*
X19846165Y6368885D01*
X19849032Y6359431D01*
X19850000Y6349599D01*
X19850000Y5330399D01*
X19849032Y5320566D01*
X19846165Y5311112D01*
X19841506Y5302398D01*
X19835238Y5294760D01*
X19827600Y5288494D01*
X19818888Y5283835D01*
X19809434Y5280968D01*
X19799599Y5279997D01*
X18490402Y5279997D01*
X18480567Y5280968D01*
X18471113Y5283835D01*
X18462401Y5288494D01*
X18454763Y5294760D01*
X18448494Y5302398D01*
X18443836Y5311112D01*
X18440968Y5320566D01*
X18440000Y5330399D01*
X18440000Y6349599D01*
X18440968Y6359431D01*
X18443836Y6368885D01*
X18448494Y6377600D01*
X18454763Y6385238D01*
X18462401Y6391504D01*
X18471113Y6396162D01*
X18480567Y6399030D01*
X18490402Y6399998D01*
X19799599Y6399998D01*
X19809434Y6399030D01*
G37*
X19809434Y7719032D02*
X19818888Y7716165D01*
X19827600Y7711506D01*
X19835238Y7705240D01*
X19841506Y7697602D01*
X19846165Y7688888D01*
X19849032Y7679434D01*
X19850000Y7669601D01*
X19850000Y6650401D01*
X19849032Y6640569D01*
X19846165Y6631115D01*
X19841506Y6622400D01*
X19835238Y6614762D01*
X19827600Y6608496D01*
X19818888Y6603838D01*
X19809434Y6600970D01*
X19799599Y6600002D01*
X18490402Y6600002D01*
X18480567Y6600970D01*
X18471113Y6603838D01*
X18462401Y6608496D01*
X18454763Y6614762D01*
X18448494Y6622400D01*
X18443836Y6631115D01*
X18440968Y6640569D01*
X18440000Y6650401D01*
X18440000Y7669601D01*
X18440968Y7679434D01*
X18443836Y7688888D01*
X18448494Y7697602D01*
X18454763Y7705240D01*
X18462401Y7711506D01*
X18471113Y7716165D01*
X18480567Y7719032D01*
X18490402Y7720003D01*
X19799599Y7720003D01*
X19809434Y7719032D01*
G36*
X19809434Y7719032D02*
G01*
X19818888Y7716165D01*
X19827600Y7711506D01*
X19835238Y7705240D01*
X19841506Y7697602D01*
X19846165Y7688888D01*
X19849032Y7679434D01*
X19850000Y7669601D01*
X19850000Y6650401D01*
X19849032Y6640569D01*
X19846165Y6631115D01*
X19841506Y6622400D01*
X19835238Y6614762D01*
X19827600Y6608496D01*
X19818888Y6603838D01*
X19809434Y6600970D01*
X19799599Y6600002D01*
X18490402Y6600002D01*
X18480567Y6600970D01*
X18471113Y6603838D01*
X18462401Y6608496D01*
X18454763Y6614762D01*
X18448494Y6622400D01*
X18443836Y6631115D01*
X18440968Y6640569D01*
X18440000Y6650401D01*
X18440000Y7669601D01*
X18440968Y7679434D01*
X18443836Y7688888D01*
X18448494Y7697602D01*
X18454763Y7705240D01*
X18462401Y7711506D01*
X18471113Y7716165D01*
X18480567Y7719032D01*
X18490402Y7720003D01*
X19799599Y7720003D01*
X19809434Y7719032D01*
G37*
%TO.C,Q1*%
X21419433Y19079027D02*
X21428887Y19076160D01*
X21437599Y19071501D01*
X21445237Y19065235D01*
X21451506Y19057598D01*
X21456164Y19048883D01*
X21459032Y19039429D01*
X21460000Y19029597D01*
X21460000Y18010396D01*
X21459032Y18000564D01*
X21456164Y17991110D01*
X21451506Y17982395D01*
X21445237Y17974757D01*
X21437599Y17968491D01*
X21428887Y17963833D01*
X21419433Y17960965D01*
X21409598Y17959995D01*
X20100401Y17959995D01*
X20090566Y17960965D01*
X20081112Y17963833D01*
X20072400Y17968491D01*
X20064762Y17974757D01*
X20058494Y17982395D01*
X20053835Y17991110D01*
X20050968Y18000564D01*
X20050000Y18010396D01*
X20050000Y19029597D01*
X20050968Y19039429D01*
X20053835Y19048883D01*
X20058494Y19057598D01*
X20064762Y19065235D01*
X20072400Y19071501D01*
X20081112Y19076160D01*
X20090566Y19079027D01*
X20100401Y19079995D01*
X21409598Y19079995D01*
X21419433Y19079027D01*
G36*
X21419433Y19079027D02*
G01*
X21428887Y19076160D01*
X21437599Y19071501D01*
X21445237Y19065235D01*
X21451506Y19057598D01*
X21456164Y19048883D01*
X21459032Y19039429D01*
X21460000Y19029597D01*
X21460000Y18010396D01*
X21459032Y18000564D01*
X21456164Y17991110D01*
X21451506Y17982395D01*
X21445237Y17974757D01*
X21437599Y17968491D01*
X21428887Y17963833D01*
X21419433Y17960965D01*
X21409598Y17959995D01*
X20100401Y17959995D01*
X20090566Y17960965D01*
X20081112Y17963833D01*
X20072400Y17968491D01*
X20064762Y17974757D01*
X20058494Y17982395D01*
X20053835Y17991110D01*
X20050968Y18000564D01*
X20050000Y18010396D01*
X20050000Y19029597D01*
X20050968Y19039429D01*
X20053835Y19048883D01*
X20058494Y19057598D01*
X20064762Y19065235D01*
X20072400Y19071501D01*
X20081112Y19076160D01*
X20090566Y19079027D01*
X20100401Y19079995D01*
X21409598Y19079995D01*
X21419433Y19079027D01*
G37*
X21419433Y20399030D02*
X21428887Y20396162D01*
X21437599Y20391504D01*
X21445237Y20385238D01*
X21451506Y20377600D01*
X21456164Y20368885D01*
X21459032Y20359431D01*
X21460000Y20349599D01*
X21460000Y19330399D01*
X21459032Y19320566D01*
X21456164Y19311112D01*
X21451506Y19302398D01*
X21445237Y19294760D01*
X21437599Y19288494D01*
X21428887Y19283835D01*
X21419433Y19280968D01*
X21409598Y19279997D01*
X20100401Y19279997D01*
X20090566Y19280968D01*
X20081112Y19283835D01*
X20072400Y19288494D01*
X20064762Y19294760D01*
X20058494Y19302398D01*
X20053835Y19311112D01*
X20050968Y19320566D01*
X20050000Y19330399D01*
X20050000Y20349599D01*
X20050968Y20359431D01*
X20053835Y20368885D01*
X20058494Y20377600D01*
X20064762Y20385238D01*
X20072400Y20391504D01*
X20081112Y20396162D01*
X20090566Y20399030D01*
X20100401Y20399998D01*
X21409598Y20399998D01*
X21419433Y20399030D01*
G36*
X21419433Y20399030D02*
G01*
X21428887Y20396162D01*
X21437599Y20391504D01*
X21445237Y20385238D01*
X21451506Y20377600D01*
X21456164Y20368885D01*
X21459032Y20359431D01*
X21460000Y20349599D01*
X21460000Y19330399D01*
X21459032Y19320566D01*
X21456164Y19311112D01*
X21451506Y19302398D01*
X21445237Y19294760D01*
X21437599Y19288494D01*
X21428887Y19283835D01*
X21419433Y19280968D01*
X21409598Y19279997D01*
X20100401Y19279997D01*
X20090566Y19280968D01*
X20081112Y19283835D01*
X20072400Y19288494D01*
X20064762Y19294760D01*
X20058494Y19302398D01*
X20053835Y19311112D01*
X20050968Y19320566D01*
X20050000Y19330399D01*
X20050000Y20349599D01*
X20050968Y20359431D01*
X20053835Y20368885D01*
X20058494Y20377600D01*
X20064762Y20385238D01*
X20072400Y20391504D01*
X20081112Y20396162D01*
X20090566Y20399030D01*
X20100401Y20399998D01*
X21409598Y20399998D01*
X21419433Y20399030D01*
G37*
X21419433Y21719032D02*
X21428887Y21716165D01*
X21437599Y21711506D01*
X21445237Y21705240D01*
X21451506Y21697602D01*
X21456164Y21688888D01*
X21459032Y21679434D01*
X21460000Y21669601D01*
X21460000Y20650401D01*
X21459032Y20640569D01*
X21456164Y20631115D01*
X21451506Y20622400D01*
X21445237Y20614762D01*
X21437599Y20608496D01*
X21428887Y20603838D01*
X21419433Y20600970D01*
X21409598Y20600002D01*
X20100401Y20600002D01*
X20090566Y20600970D01*
X20081112Y20603838D01*
X20072400Y20608496D01*
X20064762Y20614762D01*
X20058494Y20622400D01*
X20053835Y20631115D01*
X20050968Y20640569D01*
X20050000Y20650401D01*
X20050000Y21669601D01*
X20050968Y21679434D01*
X20053835Y21688888D01*
X20058494Y21697602D01*
X20064762Y21705240D01*
X20072400Y21711506D01*
X20081112Y21716165D01*
X20090566Y21719032D01*
X20100401Y21720003D01*
X21409598Y21720003D01*
X21419433Y21719032D01*
G36*
X21419433Y21719032D02*
G01*
X21428887Y21716165D01*
X21437599Y21711506D01*
X21445237Y21705240D01*
X21451506Y21697602D01*
X21456164Y21688888D01*
X21459032Y21679434D01*
X21460000Y21669601D01*
X21460000Y20650401D01*
X21459032Y20640569D01*
X21456164Y20631115D01*
X21451506Y20622400D01*
X21445237Y20614762D01*
X21437599Y20608496D01*
X21428887Y20603838D01*
X21419433Y20600970D01*
X21409598Y20600002D01*
X20100401Y20600002D01*
X20090566Y20600970D01*
X20081112Y20603838D01*
X20072400Y20608496D01*
X20064762Y20614762D01*
X20058494Y20622400D01*
X20053835Y20631115D01*
X20050968Y20640569D01*
X20050000Y20650401D01*
X20050000Y21669601D01*
X20050968Y21679434D01*
X20053835Y21688888D01*
X20058494Y21697602D01*
X20064762Y21705240D01*
X20072400Y21711506D01*
X20081112Y21716165D01*
X20090566Y21719032D01*
X20100401Y21720003D01*
X21409598Y21720003D01*
X21419433Y21719032D01*
G37*
X21419433Y23039035D02*
X21428887Y23036167D01*
X21437599Y23031509D01*
X21445237Y23025243D01*
X21451506Y23017605D01*
X21456164Y23008890D01*
X21459032Y22999436D01*
X21460000Y22989604D01*
X21460000Y21970403D01*
X21459032Y21960571D01*
X21456164Y21951117D01*
X21451506Y21942402D01*
X21445237Y21934765D01*
X21437599Y21928499D01*
X21428887Y21923840D01*
X21419433Y21920973D01*
X21409598Y21920005D01*
X20100401Y21920005D01*
X20090566Y21920973D01*
X20081112Y21923840D01*
X20072400Y21928499D01*
X20064762Y21934765D01*
X20058494Y21942402D01*
X20053835Y21951117D01*
X20050968Y21960571D01*
X20050000Y21970403D01*
X20050000Y22989604D01*
X20050968Y22999436D01*
X20053835Y23008890D01*
X20058494Y23017605D01*
X20064762Y23025243D01*
X20072400Y23031509D01*
X20081112Y23036167D01*
X20090566Y23039035D01*
X20100401Y23040005D01*
X21409598Y23040005D01*
X21419433Y23039035D01*
G36*
X21419433Y23039035D02*
G01*
X21428887Y23036167D01*
X21437599Y23031509D01*
X21445237Y23025243D01*
X21451506Y23017605D01*
X21456164Y23008890D01*
X21459032Y22999436D01*
X21460000Y22989604D01*
X21460000Y21970403D01*
X21459032Y21960571D01*
X21456164Y21951117D01*
X21451506Y21942402D01*
X21445237Y21934765D01*
X21437599Y21928499D01*
X21428887Y21923840D01*
X21419433Y21920973D01*
X21409598Y21920005D01*
X20100401Y21920005D01*
X20090566Y21920973D01*
X20081112Y21923840D01*
X20072400Y21928499D01*
X20064762Y21934765D01*
X20058494Y21942402D01*
X20053835Y21951117D01*
X20050968Y21960571D01*
X20050000Y21970403D01*
X20050000Y22989604D01*
X20050968Y22999436D01*
X20053835Y23008890D01*
X20058494Y23017605D01*
X20064762Y23025243D01*
X20072400Y23031509D01*
X20081112Y23036167D01*
X20090566Y23039035D01*
X20100401Y23040005D01*
X21409598Y23040005D01*
X21419433Y23039035D01*
G37*
X19809434Y19079027D02*
X19818888Y19076160D01*
X19827600Y19071501D01*
X19835238Y19065235D01*
X19841506Y19057598D01*
X19846165Y19048883D01*
X19849032Y19039429D01*
X19850000Y19029597D01*
X19850000Y18010396D01*
X19849032Y18000564D01*
X19846165Y17991110D01*
X19841506Y17982395D01*
X19835238Y17974757D01*
X19827600Y17968491D01*
X19818888Y17963833D01*
X19809434Y17960965D01*
X19799599Y17959995D01*
X18490402Y17959995D01*
X18480567Y17960965D01*
X18471113Y17963833D01*
X18462401Y17968491D01*
X18454763Y17974757D01*
X18448494Y17982395D01*
X18443836Y17991110D01*
X18440968Y18000564D01*
X18440000Y18010396D01*
X18440000Y19029597D01*
X18440968Y19039429D01*
X18443836Y19048883D01*
X18448494Y19057598D01*
X18454763Y19065235D01*
X18462401Y19071501D01*
X18471113Y19076160D01*
X18480567Y19079027D01*
X18490402Y19079995D01*
X19799599Y19079995D01*
X19809434Y19079027D01*
G36*
X19809434Y19079027D02*
G01*
X19818888Y19076160D01*
X19827600Y19071501D01*
X19835238Y19065235D01*
X19841506Y19057598D01*
X19846165Y19048883D01*
X19849032Y19039429D01*
X19850000Y19029597D01*
X19850000Y18010396D01*
X19849032Y18000564D01*
X19846165Y17991110D01*
X19841506Y17982395D01*
X19835238Y17974757D01*
X19827600Y17968491D01*
X19818888Y17963833D01*
X19809434Y17960965D01*
X19799599Y17959995D01*
X18490402Y17959995D01*
X18480567Y17960965D01*
X18471113Y17963833D01*
X18462401Y17968491D01*
X18454763Y17974757D01*
X18448494Y17982395D01*
X18443836Y17991110D01*
X18440968Y18000564D01*
X18440000Y18010396D01*
X18440000Y19029597D01*
X18440968Y19039429D01*
X18443836Y19048883D01*
X18448494Y19057598D01*
X18454763Y19065235D01*
X18462401Y19071501D01*
X18471113Y19076160D01*
X18480567Y19079027D01*
X18490402Y19079995D01*
X19799599Y19079995D01*
X19809434Y19079027D01*
G37*
X19809434Y23039035D02*
X19818888Y23036167D01*
X19827600Y23031509D01*
X19835238Y23025243D01*
X19841506Y23017605D01*
X19846165Y23008890D01*
X19849032Y22999436D01*
X19850000Y22989604D01*
X19850000Y21970403D01*
X19849032Y21960571D01*
X19846165Y21951117D01*
X19841506Y21942402D01*
X19835238Y21934765D01*
X19827600Y21928499D01*
X19818888Y21923840D01*
X19809434Y21920973D01*
X19799599Y21920005D01*
X18490402Y21920005D01*
X18480567Y21920973D01*
X18471113Y21923840D01*
X18462401Y21928499D01*
X18454763Y21934765D01*
X18448494Y21942402D01*
X18443836Y21951117D01*
X18440968Y21960571D01*
X18440000Y21970403D01*
X18440000Y22989604D01*
X18440968Y22999436D01*
X18443836Y23008890D01*
X18448494Y23017605D01*
X18454763Y23025243D01*
X18462401Y23031509D01*
X18471113Y23036167D01*
X18480567Y23039035D01*
X18490402Y23040005D01*
X19799599Y23040005D01*
X19809434Y23039035D01*
G36*
X19809434Y23039035D02*
G01*
X19818888Y23036167D01*
X19827600Y23031509D01*
X19835238Y23025243D01*
X19841506Y23017605D01*
X19846165Y23008890D01*
X19849032Y22999436D01*
X19850000Y22989604D01*
X19850000Y21970403D01*
X19849032Y21960571D01*
X19846165Y21951117D01*
X19841506Y21942402D01*
X19835238Y21934765D01*
X19827600Y21928499D01*
X19818888Y21923840D01*
X19809434Y21920973D01*
X19799599Y21920005D01*
X18490402Y21920005D01*
X18480567Y21920973D01*
X18471113Y21923840D01*
X18462401Y21928499D01*
X18454763Y21934765D01*
X18448494Y21942402D01*
X18443836Y21951117D01*
X18440968Y21960571D01*
X18440000Y21970403D01*
X18440000Y22989604D01*
X18440968Y22999436D01*
X18443836Y23008890D01*
X18448494Y23017605D01*
X18454763Y23025243D01*
X18462401Y23031509D01*
X18471113Y23036167D01*
X18480567Y23039035D01*
X18490402Y23040005D01*
X19799599Y23040005D01*
X19809434Y23039035D01*
G37*
X19809434Y20399030D02*
X19818888Y20396162D01*
X19827600Y20391504D01*
X19835238Y20385238D01*
X19841506Y20377600D01*
X19846165Y20368885D01*
X19849032Y20359431D01*
X19850000Y20349599D01*
X19850000Y19330399D01*
X19849032Y19320566D01*
X19846165Y19311112D01*
X19841506Y19302398D01*
X19835238Y19294760D01*
X19827600Y19288494D01*
X19818888Y19283835D01*
X19809434Y19280968D01*
X19799599Y19279997D01*
X18490402Y19279997D01*
X18480567Y19280968D01*
X18471113Y19283835D01*
X18462401Y19288494D01*
X18454763Y19294760D01*
X18448494Y19302398D01*
X18443836Y19311112D01*
X18440968Y19320566D01*
X18440000Y19330399D01*
X18440000Y20349599D01*
X18440968Y20359431D01*
X18443836Y20368885D01*
X18448494Y20377600D01*
X18454763Y20385238D01*
X18462401Y20391504D01*
X18471113Y20396162D01*
X18480567Y20399030D01*
X18490402Y20399998D01*
X19799599Y20399998D01*
X19809434Y20399030D01*
G36*
X19809434Y20399030D02*
G01*
X19818888Y20396162D01*
X19827600Y20391504D01*
X19835238Y20385238D01*
X19841506Y20377600D01*
X19846165Y20368885D01*
X19849032Y20359431D01*
X19850000Y20349599D01*
X19850000Y19330399D01*
X19849032Y19320566D01*
X19846165Y19311112D01*
X19841506Y19302398D01*
X19835238Y19294760D01*
X19827600Y19288494D01*
X19818888Y19283835D01*
X19809434Y19280968D01*
X19799599Y19279997D01*
X18490402Y19279997D01*
X18480567Y19280968D01*
X18471113Y19283835D01*
X18462401Y19288494D01*
X18454763Y19294760D01*
X18448494Y19302398D01*
X18443836Y19311112D01*
X18440968Y19320566D01*
X18440000Y19330399D01*
X18440000Y20349599D01*
X18440968Y20359431D01*
X18443836Y20368885D01*
X18448494Y20377600D01*
X18454763Y20385238D01*
X18462401Y20391504D01*
X18471113Y20396162D01*
X18480567Y20399030D01*
X18490402Y20399998D01*
X19799599Y20399998D01*
X19809434Y20399030D01*
G37*
X19809434Y21719032D02*
X19818888Y21716165D01*
X19827600Y21711506D01*
X19835238Y21705240D01*
X19841506Y21697602D01*
X19846165Y21688888D01*
X19849032Y21679434D01*
X19850000Y21669601D01*
X19850000Y20650401D01*
X19849032Y20640569D01*
X19846165Y20631115D01*
X19841506Y20622400D01*
X19835238Y20614762D01*
X19827600Y20608496D01*
X19818888Y20603838D01*
X19809434Y20600970D01*
X19799599Y20600002D01*
X18490402Y20600002D01*
X18480567Y20600970D01*
X18471113Y20603838D01*
X18462401Y20608496D01*
X18454763Y20614762D01*
X18448494Y20622400D01*
X18443836Y20631115D01*
X18440968Y20640569D01*
X18440000Y20650401D01*
X18440000Y21669601D01*
X18440968Y21679434D01*
X18443836Y21688888D01*
X18448494Y21697602D01*
X18454763Y21705240D01*
X18462401Y21711506D01*
X18471113Y21716165D01*
X18480567Y21719032D01*
X18490402Y21720003D01*
X19799599Y21720003D01*
X19809434Y21719032D01*
G36*
X19809434Y21719032D02*
G01*
X19818888Y21716165D01*
X19827600Y21711506D01*
X19835238Y21705240D01*
X19841506Y21697602D01*
X19846165Y21688888D01*
X19849032Y21679434D01*
X19850000Y21669601D01*
X19850000Y20650401D01*
X19849032Y20640569D01*
X19846165Y20631115D01*
X19841506Y20622400D01*
X19835238Y20614762D01*
X19827600Y20608496D01*
X19818888Y20603838D01*
X19809434Y20600970D01*
X19799599Y20600002D01*
X18490402Y20600002D01*
X18480567Y20600970D01*
X18471113Y20603838D01*
X18462401Y20608496D01*
X18454763Y20614762D01*
X18448494Y20622400D01*
X18443836Y20631115D01*
X18440968Y20640569D01*
X18440000Y20650401D01*
X18440000Y21669601D01*
X18440968Y21679434D01*
X18443836Y21688888D01*
X18448494Y21697602D01*
X18454763Y21705240D01*
X18462401Y21711506D01*
X18471113Y21716165D01*
X18480567Y21719032D01*
X18490402Y21720003D01*
X19799599Y21720003D01*
X19809434Y21719032D01*
G37*
%TD*%
D11*
%TO.C,C36*%
X13925000Y2650000D03*
X13925000Y750000D03*
%TD*%
D12*
%TO.C,C25*%
X13775000Y24350000D03*
X13775000Y26250000D03*
%TD*%
D13*
%TO.C,D5*%
X3608500Y17600000D03*
D14*
X2616500Y17600000D03*
%TD*%
D15*
%TO.C,D6*%
X750000Y17725000D03*
X750000Y19300000D03*
%TD*%
D11*
%TO.C,C28*%
X7850000Y22850000D03*
X7850000Y20950000D03*
%TD*%
D16*
%TO.C,C20*%
X6680000Y19050000D03*
X5720000Y19050000D03*
%TD*%
D17*
%TO.C,C2*%
X1050000Y12575000D03*
X1050000Y14125000D03*
%TD*%
D18*
%TO.C,R22*%
X14560000Y14300000D03*
X13540000Y14300000D03*
%TD*%
D11*
%TO.C,C35*%
X11950000Y2650000D03*
X11950000Y750000D03*
%TD*%
%TO.C,C33*%
X8000000Y2650000D03*
X8000000Y750000D03*
%TD*%
D18*
%TO.C,R19*%
X8810000Y8600000D03*
X7790000Y8600000D03*
%TD*%
D19*
%TO.C,U1*%
X7815000Y14185000D03*
X7815000Y12815000D03*
X9185000Y14185000D03*
X9185000Y12815000D03*
D20*
X5062500Y16250000D03*
X5062500Y15750000D03*
X5062500Y15250000D03*
X5062500Y14750000D03*
X5062500Y14250000D03*
X5062500Y13750000D03*
X5062500Y13250000D03*
X5062500Y12750000D03*
X5062500Y12250000D03*
X5062500Y11750000D03*
X5062500Y11250000D03*
X5062500Y10750000D03*
D21*
X5750000Y10062500D03*
X6250000Y10062500D03*
X6750000Y10062500D03*
X7250000Y10062500D03*
X7750000Y10062500D03*
X8250000Y10062500D03*
X8750000Y10062500D03*
X9250000Y10062500D03*
X9750000Y10062500D03*
X10250000Y10062500D03*
X10750000Y10062500D03*
X11250000Y10062500D03*
D20*
X11937500Y10750000D03*
X11937500Y11250000D03*
X11937500Y11750000D03*
X11937500Y12250000D03*
X11937500Y12750000D03*
X11937500Y13250000D03*
X11937500Y13750000D03*
X11937500Y14250000D03*
X11937500Y14750000D03*
X11937500Y15250000D03*
X11937500Y15750000D03*
X11937500Y16250000D03*
D21*
X11250000Y16937500D03*
X10750000Y16937500D03*
X10250000Y16937500D03*
X9750000Y16937500D03*
X9250000Y16937500D03*
X8750000Y16937500D03*
X8250000Y16937500D03*
X7750000Y16937500D03*
X7250000Y16937500D03*
X6750000Y16937500D03*
X6250000Y16937500D03*
X5750000Y16937500D03*
%TD*%
D11*
%TO.C,C29*%
X9825000Y22850000D03*
X9825000Y20950000D03*
%TD*%
D16*
%TO.C,C14*%
X8780000Y7650000D03*
X7820000Y7650000D03*
%TD*%
D11*
%TO.C,C27*%
X5875000Y22850000D03*
X5875000Y20950000D03*
%TD*%
D22*
%TO.C,R4*%
X11100000Y7580000D03*
X11100000Y8600000D03*
%TD*%
D23*
%TO.C,C5*%
X14050000Y13380000D03*
X14050000Y12420000D03*
%TD*%
D12*
%TO.C,C22*%
X7850000Y24350000D03*
X7850000Y26250000D03*
%TD*%
D24*
%TO.C,R8*%
X5540000Y7950000D03*
X6560000Y7950000D03*
%TD*%
%TO.C,R29*%
X13040000Y9200000D03*
X14060000Y9200000D03*
%TD*%
D25*
%TO.C,Q2*%
X22300000Y11000000D03*
X22300000Y11499999D03*
D26*
X22100000Y13989000D03*
D27*
X17800000Y14010000D03*
D25*
X17600000Y11499999D03*
X17600000Y11000000D03*
D28*
X22065000Y10487001D03*
X22065000Y16512999D03*
X17835000Y16512999D03*
X17835000Y10487001D03*
%TD*%
D22*
%TO.C,R2*%
X1950000Y20690000D03*
X1950000Y21710000D03*
%TD*%
D23*
%TO.C,C4*%
X13400000Y16860000D03*
X13400000Y15900000D03*
%TD*%
D16*
%TO.C,C10*%
X6530000Y8900000D03*
X5570000Y8900000D03*
%TD*%
D29*
%TO.C,L1*%
X1550000Y11275000D03*
X1550000Y9925000D03*
%TD*%
D22*
%TO.C,R1*%
X1950000Y18640000D03*
X1950000Y19660000D03*
%TD*%
D25*
%TO.C,Q3*%
X22300000Y4000000D03*
X22300000Y4499999D03*
D26*
X22100000Y6989000D03*
D27*
X17800000Y7010000D03*
D25*
X17600000Y4499999D03*
X17600000Y4000000D03*
D28*
X22065000Y3487001D03*
X22065000Y9512999D03*
X17835000Y9512999D03*
X17835000Y3487001D03*
%TD*%
D18*
%TO.C,R37*%
X6710000Y18100000D03*
X5690000Y18100000D03*
%TD*%
D30*
%TO.C,R28*%
X3700000Y16540000D03*
X3700000Y15520000D03*
%TD*%
D31*
%TO.C,C1*%
X4750000Y18100000D03*
X4750000Y19060000D03*
%TD*%
D12*
%TO.C,C38*%
X13000000Y4150000D03*
X13000000Y6050000D03*
%TD*%
D23*
%TO.C,C7*%
X12100000Y8560000D03*
X12100000Y7600000D03*
%TD*%
%TO.C,C6*%
X3900000Y11600000D03*
X3900000Y10640000D03*
%TD*%
D24*
%TO.C,R11*%
X14430000Y15950000D03*
X15450000Y15950000D03*
%TD*%
D12*
%TO.C,C24*%
X11800000Y24350000D03*
X11800000Y26250000D03*
%TD*%
%TO.C,C26*%
X15750000Y24350000D03*
X15750000Y26250000D03*
%TD*%
D11*
%TO.C,C34*%
X9975000Y2650000D03*
X9975000Y750000D03*
%TD*%
%TO.C,C30*%
X11800000Y22850000D03*
X11800000Y20950000D03*
%TD*%
D15*
%TO.C,D3*%
X750000Y20700000D03*
X750000Y22275000D03*
%TD*%
D12*
%TO.C,C23*%
X9825000Y24350000D03*
X9825000Y26250000D03*
%TD*%
%TO.C,C21*%
X5875000Y24350000D03*
X5875000Y26250000D03*
%TD*%
%TO.C,C39*%
X11025000Y4150000D03*
X11025000Y6050000D03*
%TD*%
D24*
%TO.C,R10*%
X5540000Y7000000D03*
X6560000Y7000000D03*
%TD*%
D11*
%TO.C,C31*%
X14050000Y22850000D03*
X14050000Y20950000D03*
%TD*%
D25*
%TO.C,Q1*%
X22300000Y18000000D03*
X22300000Y18499999D03*
D26*
X22100000Y20989000D03*
D27*
X17800000Y21010000D03*
D25*
X17600000Y18499999D03*
X17600000Y18000000D03*
D28*
X22065000Y17487001D03*
X22065000Y23512999D03*
X17835000Y23512999D03*
X17835000Y17487001D03*
%TD*%
D18*
%TO.C,R13*%
X16260000Y18300000D03*
X15240000Y18300000D03*
%TD*%
D13*
%TO.C,D1*%
X3325500Y8800000D03*
D14*
X4317500Y8800000D03*
%TD*%
D12*
%TO.C,C40*%
X9050000Y4150000D03*
X9050000Y6050000D03*
%TD*%
D11*
%TO.C,C32*%
X6025000Y2650000D03*
X6025000Y750000D03*
%TD*%
%TO.C,C37*%
X15900000Y2650000D03*
X15900000Y750000D03*
%TD*%
D32*
%TO.C,C3*%
X2550000Y14125000D03*
X2550000Y12575000D03*
%TD*%
D33*
%TO.C,D4*%
X1000000Y15275500D03*
D34*
X1000000Y16267500D03*
%TD*%
D23*
%TO.C,C17*%
X2750000Y16530000D03*
X2750000Y15570000D03*
%TD*%
D18*
%TO.C,R31*%
X14060000Y10150000D03*
X13040000Y10150000D03*
%TD*%
D24*
%TO.C,R20*%
X15390000Y10250000D03*
X16410000Y10250000D03*
%TD*%
M02*
