%TF.GenerationSoftware,KiCad,Pcbnew,7.0.7*%
%TF.CreationDate,2023-12-28T18:43:45-05:00*%
%TF.ProjectId,O32controller,4f333263-6f6e-4747-926f-6c6c65722e6b,3*%
%TF.SameCoordinates,Original*%
%TF.FileFunction,Copper,L2,Inr*%
%TF.FilePolarity,Positive*%
%FSLAX46Y46*%
G04 Gerber Fmt 4.6, Leading zero omitted, Abs format (unit mm)*
G04 Created by KiCad (PCBNEW 7.0.7) date 2023-12-28 18:43:45*
%MOMM*%
%LPD*%
G01*
G04 APERTURE LIST*
G04 Aperture macros list*
%AMRoundRect*
0 Rectangle with rounded corners*
0 $1 Rounding radius*
0 $2 $3 $4 $5 $6 $7 $8 $9 X,Y pos of 4 corners*
0 Add a 4 corners polygon primitive as box body*
4,1,4,$2,$3,$4,$5,$6,$7,$8,$9,$2,$3,0*
0 Add four circle primitives for the rounded corners*
1,1,$1+$1,$2,$3*
1,1,$1+$1,$4,$5*
1,1,$1+$1,$6,$7*
1,1,$1+$1,$8,$9*
0 Add four rect primitives between the rounded corners*
20,1,$1+$1,$2,$3,$4,$5,0*
20,1,$1+$1,$4,$5,$6,$7,0*
20,1,$1+$1,$6,$7,$8,$9,0*
20,1,$1+$1,$8,$9,$2,$3,0*%
G04 Aperture macros list end*
%TA.AperFunction,ComponentPad*%
%ADD10RoundRect,0.269607X-1.105393X-1.105393X1.105393X-1.105393X1.105393X1.105393X-1.105393X1.105393X0*%
%TD*%
%TA.AperFunction,ViaPad*%
%ADD11C,0.550000*%
%TD*%
%TA.AperFunction,Conductor*%
%ADD12C,0.250000*%
%TD*%
%TA.AperFunction,Conductor*%
%ADD13C,0.200000*%
%TD*%
%TA.AperFunction,Conductor*%
%ADD14C,0.500000*%
%TD*%
G04 APERTURE END LIST*
D10*
%TO.N,GND*%
%TO.C,J3*%
X25350000Y9950000D03*
%TD*%
%TO.N,/Motor phase V/Motor*%
%TO.C,J11*%
X25350000Y13750000D03*
%TD*%
%TO.N,VBUS*%
%TO.C,J2*%
X19950000Y25400000D03*
%TD*%
%TO.N,GND*%
%TO.C,J4*%
X25350000Y17150000D03*
%TD*%
%TO.N,/Motor phase U/Motor*%
%TO.C,J10*%
X25350000Y20950000D03*
%TD*%
%TO.N,VBUS*%
%TO.C,J1*%
X19950000Y1600000D03*
%TD*%
%TO.N,/Motor phase W/Motor*%
%TO.C,J12*%
X25350000Y6550000D03*
%TD*%
D11*
%TO.N,/Motor phase W/SENSE_P*%
X15340000Y5380000D03*
%TO.N,/Motor phase U/SENSE_P*%
X17230000Y19330000D03*
%TO.N,/Motor phase W/SENSE_P*%
X17210000Y5370000D03*
X16750000Y5100000D03*
X16750000Y5640000D03*
X15810000Y5110000D03*
X16290000Y5370000D03*
X15350000Y5910000D03*
X15810000Y5640000D03*
X16280000Y5900000D03*
X15350000Y6440000D03*
X15820000Y6170000D03*
X16290000Y6430000D03*
X15810000Y8840000D03*
X15820000Y6700000D03*
X15820000Y7240000D03*
X15820000Y8310000D03*
X15820000Y7780000D03*
X16290000Y8040000D03*
X16280000Y9100000D03*
X16290000Y6960000D03*
X16290000Y7500000D03*
X16290000Y8570000D03*
X15350000Y6970000D03*
X15340000Y8570000D03*
X15340000Y8040000D03*
X15330000Y9100000D03*
X15340000Y7500000D03*
%TO.N,/Motor phase V/SENSE_P*%
X15260000Y14850000D03*
X16660000Y11890000D03*
X15730000Y12450000D03*
X15730000Y13520000D03*
X15740000Y12990000D03*
X17130000Y12150000D03*
X16680000Y12430000D03*
X16200000Y12180000D03*
X16680000Y12970000D03*
X16210000Y12710000D03*
X16680000Y13510000D03*
X16210000Y13250000D03*
X15730000Y14580000D03*
X16210000Y14320000D03*
X15740000Y14050000D03*
X16210000Y13790000D03*
X16680000Y14050000D03*
X16680000Y14600000D03*
X17140000Y15920000D03*
X16670000Y16190000D03*
X16200000Y15400000D03*
X16200000Y15930000D03*
X16670000Y15130000D03*
X15730000Y15120000D03*
X16670000Y15660000D03*
X16200000Y14850000D03*
%TO.N,/Motor phase U/SENSE_P*%
X16770000Y19060000D03*
X16770000Y19600000D03*
X15840000Y19070000D03*
X15840000Y20140000D03*
X15840000Y21220000D03*
X15840000Y22300000D03*
X15840000Y19600000D03*
X15370000Y19870000D03*
X16310000Y19330000D03*
X15370000Y19330000D03*
X16310000Y19870000D03*
X15840000Y20680000D03*
X15370000Y20950000D03*
X16310000Y20410000D03*
X15370000Y20410000D03*
X16310000Y20950000D03*
X15840000Y21760000D03*
X15370000Y22030000D03*
X16310000Y21490000D03*
X15370000Y21490000D03*
X16310000Y22030000D03*
%TO.N,GND*%
X850000Y18150000D03*
%TO.N,/Motor phase W/Sense_N*%
X14200000Y5950000D03*
X22050000Y2850000D03*
%TO.N,/Motor phase V/Sense_N*%
X12950000Y18300000D03*
X20950000Y17350000D03*
%TO.N,/Motor phase U/Sense_N*%
X21950000Y24200000D03*
X12908628Y22241372D03*
%TO.N,VBUS*%
X18550000Y6500000D03*
X13000000Y3300000D03*
X18550000Y4050000D03*
X19950000Y21800000D03*
X19950000Y13500000D03*
X18550000Y20500000D03*
X11150000Y23600000D03*
X19900000Y6550000D03*
X19950000Y8950000D03*
X19950000Y18050000D03*
X19950000Y12150000D03*
X3300000Y8000000D03*
X18550000Y13500000D03*
X19950000Y15950000D03*
X19950000Y20500000D03*
X19950000Y22950000D03*
X8150000Y4200000D03*
X19950000Y4050000D03*
X18550000Y5200000D03*
X19950000Y5200000D03*
X18550000Y19150000D03*
X18950000Y18250000D03*
X19950000Y14800000D03*
X3850000Y13650000D03*
X15000000Y3300000D03*
X18550000Y21800000D03*
X18550000Y14800000D03*
X11000000Y3300000D03*
X19950000Y19200000D03*
X9000000Y3300000D03*
X18850000Y15750000D03*
X8000000Y23600000D03*
X18550000Y7800000D03*
X19950000Y11050000D03*
X13275000Y23550000D03*
X18550000Y12150000D03*
X19950000Y7800000D03*
%TO.N,+3.3V*%
X2750000Y20500000D03*
X2500000Y22450000D03*
X10550000Y7650000D03*
X4250000Y18350000D03*
X3400000Y11300000D03*
X1025000Y11850000D03*
X4000000Y4150000D03*
%TO.N,/OP_V_P*%
X10950000Y20025000D03*
X4850000Y16900000D03*
%TO.N,/OP_V_N*%
X4150000Y16750000D03*
X10800000Y19200000D03*
%TO.N,/NRST*%
X3994622Y12944622D03*
X7250000Y5300000D03*
%TO.N,/OP_U_N*%
X9580000Y8630000D03*
X11800000Y20000000D03*
%TO.N,/OP_U_P*%
X10300000Y8700000D03*
X12925000Y21475000D03*
%TO.N,/OC_COMP*%
X13100000Y19800000D03*
X12050000Y9100000D03*
%TO.N,GND*%
X16500000Y1350000D03*
X2450000Y13200000D03*
X12875000Y8400000D03*
X13750000Y25650000D03*
X8400000Y5300000D03*
X5850000Y25650000D03*
X9800000Y25650000D03*
X10800000Y21025000D03*
X7850000Y25650000D03*
X4825500Y9325500D03*
X900000Y4225000D03*
X14450000Y1350000D03*
X10800000Y5300000D03*
X7075000Y4025000D03*
X14850000Y16650000D03*
X8850000Y21625000D03*
X7450000Y18000000D03*
X10500000Y1400000D03*
X15750000Y25650000D03*
X9250000Y9300000D03*
X2388180Y7800500D03*
X600000Y23300000D03*
X13700000Y18350000D03*
X11800000Y25650000D03*
X3250000Y10500000D03*
X8500000Y1400000D03*
X3200000Y12750000D03*
X6500000Y1400000D03*
X13250000Y5300000D03*
X12450000Y1350000D03*
X6600000Y21625000D03*
%TO.N,SWD_IO*%
X10300000Y17825000D03*
%TO.N,SWD_CLK*%
X10425000Y15375000D03*
%TO.N,/OP_W_P*%
X13000000Y7675000D03*
X7300000Y15700000D03*
%TO.N,/OP_W_N*%
X12700000Y7025000D03*
X6600000Y15950000D03*
%TO.N,/Motor phase U/GH_MOS*%
X21400000Y16650000D03*
X15580000Y16460000D03*
%TO.N,/Motor phase V/GH_MOS*%
X16200000Y10750000D03*
X21400000Y9850000D03*
%TO.N,/Motor phase W/GH_MOS*%
X14150000Y8350000D03*
X22850000Y3750000D03*
%TO.N,/OUTU*%
X15550000Y17550000D03*
X23200000Y17050000D03*
%TO.N,/VBOOTW*%
X10950000Y12150000D03*
%TO.N,/OUTV*%
X14850000Y11450000D03*
X23200000Y10000000D03*
%TO.N,/OUTW*%
X22900000Y4500000D03*
X10900000Y11250000D03*
%TO.N,/Motor phase U/SENSE_P*%
X16310000Y23110000D03*
X15370000Y22570000D03*
X16310000Y22570000D03*
X15370000Y23110000D03*
X15840000Y22840000D03*
%TO.N,/USART_RX*%
X9650000Y15400000D03*
%TO.N,/~{MAG1_CS}*%
X3500000Y14350000D03*
X13550000Y10900000D03*
%TO.N,/LED_STATUS*%
X2749115Y19474755D03*
%TO.N,/RS485_B*%
X3950000Y19050000D03*
X3950000Y20700000D03*
%TO.N,/SPI_MOSI*%
X8600000Y11200000D03*
X4600000Y5250000D03*
%TO.N,/SPI_MISO*%
X7750000Y10850000D03*
X5400000Y5700000D03*
%TO.N,/SPI_SCLK*%
X10850000Y12900000D03*
%TO.N,USART_TX*%
X9550000Y17950000D03*
%TO.N,/USART_DE*%
X4700000Y10500000D03*
%TO.N,/NTC_IN*%
X3250000Y9600000D03*
X8150000Y19975000D03*
%TO.N,/~{MAG2_CS}*%
X2200000Y8950000D03*
X10050000Y16050000D03*
%TD*%
D12*
%TO.N,/Motor phase U/GH_MOS*%
X15580000Y16460000D02*
X15782290Y16460000D01*
X15782290Y16460000D02*
X16097290Y16775000D01*
X16097290Y16775000D02*
X17625000Y16775000D01*
X17625000Y16775000D02*
X17800000Y16600000D01*
X17800000Y16600000D02*
X21350000Y16600000D01*
X21350000Y16600000D02*
X21400000Y16650000D01*
%TO.N,/Motor phase W/Sense_N*%
X22050000Y2850000D02*
X21600000Y3300000D01*
X14200000Y5690000D02*
X14200000Y5950000D01*
X21600000Y3300000D02*
X16590000Y3300000D01*
X16590000Y3300000D02*
X14200000Y5690000D01*
%TO.N,/Motor phase W/GH_MOS*%
X14150000Y8350000D02*
X14150000Y8731586D01*
X14150000Y8731586D02*
X15078414Y9660000D01*
X18386827Y7150000D02*
X18750000Y7150000D01*
X19150000Y6486828D02*
X19786828Y5850000D01*
X16540000Y9660000D02*
X17975000Y8225000D01*
X17975000Y8225000D02*
X17975000Y7561827D01*
X18750000Y7150000D02*
X19150000Y6750000D01*
X15078414Y9660000D02*
X16540000Y9660000D01*
X19786828Y5850000D02*
X20250000Y5850000D01*
X19150000Y6750000D02*
X19150000Y6486828D01*
X17975000Y7561827D02*
X18386827Y7150000D01*
X20250000Y5850000D02*
X22350000Y3750000D01*
X22350000Y3750000D02*
X22850000Y3750000D01*
%TO.N,/OP_W_N*%
X12700000Y7025000D02*
X12700000Y7017424D01*
X10150000Y6600000D02*
X8200000Y8550000D01*
X8200000Y8550000D02*
X8200000Y8599569D01*
X6650000Y10223361D02*
X6650000Y15900000D01*
X12700000Y7017424D02*
X12282576Y6600000D01*
X12282576Y6600000D02*
X10150000Y6600000D01*
X6750500Y10049069D02*
X6750500Y10122861D01*
X6750500Y10122861D02*
X6650000Y10223361D01*
X8200000Y8599569D02*
X6750500Y10049069D01*
X6650000Y15900000D02*
X6600000Y15950000D01*
%TO.N,/OP_U_N*%
X9825000Y9925000D02*
X9375000Y10375000D01*
X9580000Y8630000D02*
X9600000Y8813172D01*
X9600000Y8813172D02*
X9825000Y9038172D01*
X9825000Y9038172D02*
X9825000Y9925000D01*
X9375000Y10375000D02*
X9375000Y13497792D01*
X9375000Y13497792D02*
X11400000Y15522792D01*
X11400000Y15522792D02*
X11400000Y19600000D01*
X11400000Y19600000D02*
X11800000Y20000000D01*
%TO.N,/OP_V_P*%
X10950000Y20025000D02*
X10833040Y20025000D01*
X10833040Y20025000D02*
X10183040Y19375000D01*
X7325000Y19375000D02*
X4850000Y16900000D01*
X10183040Y19375000D02*
X7325000Y19375000D01*
%TO.N,/Motor phase U/Sense_N*%
X12908628Y22241372D02*
X14342256Y23675000D01*
X14342256Y23675000D02*
X21425000Y23675000D01*
X21425000Y23675000D02*
X21950000Y24200000D01*
%TO.N,VBUS*%
X7525000Y4725000D02*
X7033040Y4725000D01*
X7033040Y4725000D02*
X6690000Y5068040D01*
X6690000Y5068040D02*
X6690000Y5360000D01*
X6690000Y5360000D02*
X4050000Y8000000D01*
X4050000Y8000000D02*
X3300000Y8000000D01*
D13*
%TO.N,/Motor phase V/Sense_N*%
X12950000Y18250000D02*
X12950000Y18300000D01*
X13550000Y17650000D02*
X12950000Y18250000D01*
X18300000Y17200000D02*
X15977818Y17200000D01*
X20701040Y17350000D02*
X20376040Y17025000D01*
X20376040Y17025000D02*
X18475000Y17025000D01*
X20950000Y17350000D02*
X20701040Y17350000D01*
X18475000Y17025000D02*
X18300000Y17200000D01*
X15977818Y17200000D02*
X15777818Y17000000D01*
X15322182Y17000000D02*
X14672182Y17650000D01*
X14672182Y17650000D02*
X13550000Y17650000D01*
X15777818Y17000000D02*
X15322182Y17000000D01*
D12*
%TO.N,VBUS*%
X5850500Y9750069D02*
X5850500Y8900931D01*
X4102417Y13650000D02*
X5750000Y12002417D01*
X5850500Y8900931D02*
X5750000Y8800431D01*
X5750000Y7686396D02*
X7825000Y5611396D01*
X7825000Y5025000D02*
X7525000Y4725000D01*
X7825000Y5611396D02*
X7825000Y5025000D01*
X8150000Y4200000D02*
X8050000Y4200000D01*
X8050000Y4200000D02*
X7525000Y4725000D01*
X5750000Y9850569D02*
X5850500Y9750069D01*
X5750000Y8800431D02*
X5750000Y7686396D01*
X3850000Y13650000D02*
X4102417Y13650000D01*
X5750000Y12002417D02*
X5750000Y9850569D01*
D14*
%TO.N,+3.3V*%
X2000000Y20450000D02*
X2050000Y20500000D01*
X850000Y16350000D02*
X850000Y12537258D01*
X2050000Y20500000D02*
X2000000Y20550000D01*
X850000Y12537258D02*
X1025000Y12362258D01*
X2000000Y19233920D02*
X2000000Y20450000D01*
X1025000Y7125000D02*
X4000000Y4150000D01*
X1025000Y12362258D02*
X1025000Y7125000D01*
X2000000Y20550000D02*
X2000000Y21950000D01*
X2750000Y20500000D02*
X2050000Y20500000D01*
X2850000Y18383920D02*
X2000000Y19233920D01*
X2000000Y21950000D02*
X2500000Y22450000D01*
X2850000Y18350000D02*
X850000Y16350000D01*
X2850000Y18350000D02*
X2850000Y18383920D01*
X4250000Y18350000D02*
X2850000Y18350000D01*
D12*
%TO.N,/OP_V_N*%
X5425000Y16661827D02*
X5425000Y16838604D01*
X4650000Y16250000D02*
X5013173Y16250000D01*
X4150000Y16750000D02*
X4650000Y16250000D01*
X5425000Y16838604D02*
X7511396Y18925000D01*
X5013173Y16250000D02*
X5425000Y16661827D01*
X7511396Y18925000D02*
X10525000Y18925000D01*
X10525000Y18925000D02*
X10800000Y19200000D01*
%TO.N,/NRST*%
X5400500Y9087327D02*
X5400500Y9563673D01*
X5300000Y8986827D02*
X5400500Y9087327D01*
X5400500Y9563673D02*
X5300000Y9664173D01*
X5300000Y11816021D02*
X4171399Y12944622D01*
X5300000Y9664173D02*
X5300000Y11816021D01*
X7250000Y5550000D02*
X5300000Y7500000D01*
X4171399Y12944622D02*
X3994622Y12944622D01*
X5300000Y7500000D02*
X5300000Y8986827D01*
X7250000Y5300000D02*
X7250000Y5550000D01*
%TO.N,/OP_U_P*%
X9825000Y13311396D02*
X9825000Y10588604D01*
X10300000Y10113604D02*
X10300000Y8700000D01*
X11850000Y19186396D02*
X11850000Y15336396D01*
X12525000Y19861396D02*
X11850000Y19186396D01*
X12525000Y20038173D02*
X12525000Y19861396D01*
X12925000Y20438173D02*
X12525000Y20038173D01*
X9825000Y10588604D02*
X10300000Y10113604D01*
X12925000Y21475000D02*
X12925000Y20438173D01*
X11850000Y15336396D02*
X9825000Y13311396D01*
%TO.N,/OC_COMP*%
X12050000Y9150000D02*
X10275000Y10925000D01*
X12050000Y9100000D02*
X12050000Y9150000D01*
X12300000Y19000000D02*
X13100000Y19800000D01*
X12300000Y15150000D02*
X12300000Y19000000D01*
X10275000Y10925000D02*
X10275000Y13125000D01*
X10275000Y13125000D02*
X12300000Y15150000D01*
%TO.N,/OP_W_P*%
X8650000Y8785965D02*
X7200500Y10235465D01*
X7200500Y10309257D02*
X7100000Y10409757D01*
X7200500Y10235465D02*
X7200500Y10309257D01*
X7100000Y15500000D02*
X7300000Y15700000D01*
X13000000Y7675000D02*
X12925000Y7600000D01*
X10336827Y7050000D02*
X8650000Y8736827D01*
X12925000Y7600000D02*
X12475000Y7600000D01*
X11925000Y7050000D02*
X10336827Y7050000D01*
X7100000Y10409757D02*
X7100000Y15500000D01*
X12475000Y7600000D02*
X11925000Y7050000D01*
X8650000Y8736827D02*
X8650000Y8785965D01*
%TO.N,/Motor phase V/GH_MOS*%
X18900000Y9850000D02*
X18000000Y10750000D01*
X21400000Y9850000D02*
X18900000Y9850000D01*
X18000000Y10750000D02*
X16200000Y10750000D01*
%TO.N,/OUTU*%
X22675000Y17925000D02*
X23200000Y17050000D01*
X20675000Y17925000D02*
X22675000Y17925000D01*
X15625000Y17625000D02*
X18761827Y17625000D01*
X20200000Y17450000D02*
X20675000Y17925000D01*
X18761827Y17625000D02*
X18936827Y17450000D01*
X15550000Y17550000D02*
X15625000Y17625000D01*
X18936827Y17450000D02*
X20200000Y17450000D01*
%TO.N,/OUTV*%
X16963173Y11350000D02*
X18700000Y11350000D01*
X16938173Y11325000D02*
X16963173Y11350000D01*
X14975000Y11325000D02*
X16938173Y11325000D01*
X14850000Y11450000D02*
X14975000Y11325000D01*
X18700000Y11350000D02*
X19600000Y10450000D01*
X23100000Y10450000D02*
X23200000Y10000000D01*
X19600000Y10450000D02*
X23100000Y10450000D01*
%TO.N,/OUTW*%
X19109984Y7546812D02*
X19125000Y7561827D01*
X22400000Y4500000D02*
X20524999Y6375001D01*
X20524999Y6738173D02*
X20113172Y7150000D01*
X15150000Y10150000D02*
X13600000Y11700000D01*
X22900000Y4500000D02*
X22400000Y4500000D01*
X13600000Y11700000D02*
X11350000Y11700000D01*
X11350000Y11700000D02*
X10900000Y11250000D01*
X19125000Y8038173D02*
X18788173Y8375000D01*
X18788173Y8375000D02*
X18424569Y8375000D01*
X20524999Y6375001D02*
X20524999Y6738173D01*
X20113172Y7150000D02*
X19506796Y7150000D01*
X19125000Y7561827D02*
X19125000Y8038173D01*
X18424569Y8375000D02*
X16649569Y10150000D01*
X19506796Y7150000D02*
X19109984Y7546812D01*
X16649569Y10150000D02*
X15150000Y10150000D01*
%TO.N,/~{MAG1_CS}*%
X9327208Y6150000D02*
X7750000Y7727208D01*
X13725000Y6525000D02*
X13350000Y6150000D01*
X7750000Y7727208D02*
X7750000Y8413173D01*
X6200000Y12650000D02*
X4500000Y14350000D01*
X6300500Y9862673D02*
X6300500Y9936465D01*
X13550000Y10900000D02*
X13550000Y7863173D01*
X6200000Y10036965D02*
X6200000Y12650000D01*
X4500000Y14350000D02*
X3500000Y14350000D01*
X13350000Y6150000D02*
X9327208Y6150000D01*
X6300500Y9936465D02*
X6200000Y10036965D01*
X13725000Y7688173D02*
X13725000Y6525000D01*
X7750000Y8413173D02*
X6300500Y9862673D01*
X13550000Y7863173D02*
X13725000Y7688173D01*
%TO.N,/RS485_B*%
X3950000Y20700000D02*
X3950000Y19050000D01*
%TO.N,/NTC_IN*%
X1600000Y12600431D02*
X1600000Y8736827D01*
X1961827Y8375000D02*
X2850000Y8375000D01*
X6688173Y19975000D02*
X4488173Y17775000D01*
X1600000Y8736827D02*
X1961827Y8375000D01*
X2850000Y8375000D02*
X3250000Y8775000D01*
X1425000Y12775431D02*
X1600000Y12600431D01*
X8150000Y19975000D02*
X6688173Y19975000D01*
X3250000Y8775000D02*
X3250000Y9600000D01*
X1425000Y15625000D02*
X1425000Y12775431D01*
X3575000Y17775000D02*
X1425000Y15625000D01*
X4488173Y17775000D02*
X3575000Y17775000D01*
%TO.N,/~{MAG2_CS}*%
X1875000Y13538173D02*
X1875000Y12961827D01*
X9700000Y16600000D02*
X6436827Y16600000D01*
X2650000Y12186827D02*
X2650000Y9400000D01*
X2650000Y9400000D02*
X2200000Y8950000D01*
X3261827Y14925000D02*
X1875000Y13538173D01*
X10050000Y16050000D02*
X10050000Y16250000D01*
X6436827Y16600000D02*
X4761827Y14925000D01*
X10050000Y16250000D02*
X9700000Y16600000D01*
X1875000Y12961827D02*
X2650000Y12186827D01*
X4761827Y14925000D02*
X3261827Y14925000D01*
%TD*%
%TA.AperFunction,Conductor*%
%TO.N,GND*%
G36*
X18410506Y26780593D02*
G01*
X18446470Y26731093D01*
X18446470Y26669907D01*
X18445759Y26667802D01*
X18417225Y26586262D01*
X18417224Y26586254D01*
X18414500Y26557210D01*
X18414500Y24242801D01*
X18417224Y24213746D01*
X18417225Y24213741D01*
X18459755Y24092198D01*
X18461128Y24031028D01*
X18426284Y23980733D01*
X18368532Y23960525D01*
X18366311Y23960500D01*
X14401297Y23960500D01*
X14394449Y23960975D01*
X14382380Y23962660D01*
X14343888Y23960880D01*
X14336821Y23960553D01*
X14334545Y23960500D01*
X14315802Y23960500D01*
X14315788Y23960499D01*
X14312636Y23959910D01*
X14305831Y23959121D01*
X14275756Y23957730D01*
X14267738Y23954190D01*
X14245954Y23947444D01*
X14237338Y23945833D01*
X14237332Y23945831D01*
X14211728Y23929979D01*
X14205661Y23926781D01*
X14178114Y23914617D01*
X14178113Y23914617D01*
X14171916Y23908419D01*
X14154037Y23894257D01*
X14146583Y23889642D01*
X14128439Y23865615D01*
X14123934Y23860439D01*
X13867212Y23603716D01*
X13812695Y23575939D01*
X13752263Y23585510D01*
X13708998Y23628775D01*
X13699215Y23659632D01*
X13697156Y23673956D01*
X13645133Y23787870D01*
X13563124Y23882513D01*
X13563124Y23882514D01*
X13457774Y23950218D01*
X13337616Y23985500D01*
X13337615Y23985500D01*
X13212385Y23985500D01*
X13212383Y23985500D01*
X13092225Y23950218D01*
X12986875Y23882514D01*
X12986875Y23882513D01*
X12904868Y23787872D01*
X12852843Y23673954D01*
X12852842Y23673952D01*
X12835022Y23550003D01*
X12835022Y23549998D01*
X12852842Y23426049D01*
X12852843Y23426047D01*
X12852843Y23426046D01*
X12852844Y23426044D01*
X12904867Y23312130D01*
X12904868Y23312129D01*
X12986875Y23217488D01*
X12986875Y23217487D01*
X13092226Y23149782D01*
X13123920Y23140476D01*
X13180310Y23123919D01*
X13230816Y23089383D01*
X13251378Y23031756D01*
X13234140Y22973049D01*
X13222422Y22958926D01*
X12969367Y22705869D01*
X12914850Y22678091D01*
X12899363Y22676872D01*
X12846011Y22676872D01*
X12725853Y22641590D01*
X12620503Y22573886D01*
X12620503Y22573885D01*
X12538496Y22479244D01*
X12486471Y22365326D01*
X12486470Y22365324D01*
X12468650Y22241375D01*
X12468650Y22241370D01*
X12486470Y22117421D01*
X12486471Y22117419D01*
X12486471Y22117418D01*
X12486472Y22117416D01*
X12526394Y22030000D01*
X12538496Y22003500D01*
X12616421Y21913570D01*
X12640239Y21857211D01*
X12626380Y21797616D01*
X12616421Y21783908D01*
X12554868Y21712873D01*
X12502843Y21598954D01*
X12502842Y21598952D01*
X12485022Y21475003D01*
X12485022Y21474998D01*
X12502842Y21351049D01*
X12502843Y21351047D01*
X12502843Y21351046D01*
X12502844Y21351044D01*
X12554867Y21237130D01*
X12615319Y21167365D01*
X12639137Y21111006D01*
X12639500Y21102534D01*
X12639500Y20597439D01*
X12620593Y20539248D01*
X12610503Y20527435D01*
X12364871Y20281803D01*
X12359695Y20277299D01*
X12349967Y20269954D01*
X12319229Y20236236D01*
X12317651Y20234583D01*
X12315332Y20232264D01*
X12260815Y20204487D01*
X12200383Y20214058D01*
X12170509Y20237437D01*
X12088125Y20332513D01*
X12088124Y20332514D01*
X11982774Y20400218D01*
X11862616Y20435500D01*
X11862615Y20435500D01*
X11737385Y20435500D01*
X11737383Y20435500D01*
X11617225Y20400218D01*
X11511877Y20332515D01*
X11460650Y20273396D01*
X11408253Y20241801D01*
X11347292Y20247037D01*
X11311012Y20273397D01*
X11238124Y20357513D01*
X11238124Y20357514D01*
X11132774Y20425218D01*
X11012616Y20460500D01*
X11012615Y20460500D01*
X10887385Y20460500D01*
X10887383Y20460500D01*
X10767225Y20425218D01*
X10661875Y20357514D01*
X10661875Y20357513D01*
X10579866Y20262871D01*
X10579865Y20262869D01*
X10527844Y20148960D01*
X10525850Y20142166D01*
X10523777Y20142775D01*
X10501266Y20097000D01*
X10500281Y20096001D01*
X10093779Y19689497D01*
X10039262Y19661719D01*
X10023775Y19660500D01*
X8639184Y19660500D01*
X8580993Y19679407D01*
X8545029Y19728907D01*
X8545029Y19790093D01*
X8549131Y19800627D01*
X8552164Y19807268D01*
X8572156Y19851044D01*
X8574881Y19869998D01*
X8589978Y19974998D01*
X8589978Y19975003D01*
X8572157Y20098952D01*
X8572156Y20098954D01*
X8572156Y20098956D01*
X8520133Y20212870D01*
X8438124Y20307513D01*
X8438124Y20307514D01*
X8332774Y20375218D01*
X8212616Y20410500D01*
X8212615Y20410500D01*
X8087385Y20410500D01*
X8087383Y20410500D01*
X7967225Y20375218D01*
X7861880Y20307517D01*
X7861875Y20307512D01*
X7850747Y20294669D01*
X7798351Y20263073D01*
X7775928Y20260500D01*
X6747224Y20260500D01*
X6740377Y20260975D01*
X6728296Y20262661D01*
X6687116Y20260756D01*
X6682727Y20260553D01*
X6680447Y20260500D01*
X6661716Y20260500D01*
X6658560Y20259910D01*
X6651751Y20259121D01*
X6621679Y20257731D01*
X6621671Y20257729D01*
X6613655Y20254190D01*
X6591871Y20247444D01*
X6583252Y20245833D01*
X6583249Y20245832D01*
X6557647Y20229980D01*
X6551579Y20226781D01*
X6524035Y20214619D01*
X6524028Y20214615D01*
X6517833Y20208419D01*
X6499954Y20194257D01*
X6492500Y20189642D01*
X6474356Y20165615D01*
X6469851Y20160439D01*
X4807846Y18498433D01*
X4753329Y18470656D01*
X4692897Y18480227D01*
X4649632Y18523492D01*
X4647807Y18527273D01*
X4620133Y18587870D01*
X4620132Y18587871D01*
X4620132Y18587872D01*
X4538124Y18682513D01*
X4538124Y18682514D01*
X4432772Y18750219D01*
X4418142Y18754515D01*
X4367636Y18789052D01*
X4347076Y18846680D01*
X4355983Y18890631D01*
X4357750Y18894500D01*
X4372156Y18926044D01*
X4372157Y18926049D01*
X4389978Y19049998D01*
X4389978Y19050003D01*
X4372157Y19173952D01*
X4372156Y19173954D01*
X4372156Y19173956D01*
X4320133Y19287870D01*
X4320131Y19287872D01*
X4320131Y19287873D01*
X4259681Y19357636D01*
X4235863Y19413995D01*
X4235500Y19422467D01*
X4235500Y20327534D01*
X4254407Y20385725D01*
X4259671Y20392354D01*
X4320133Y20462130D01*
X4372156Y20576044D01*
X4375232Y20597439D01*
X4389978Y20699998D01*
X4389978Y20700003D01*
X4372157Y20823952D01*
X4372156Y20823954D01*
X4372156Y20823956D01*
X4320133Y20937870D01*
X4238124Y21032513D01*
X4238124Y21032514D01*
X4132774Y21100218D01*
X4012616Y21135500D01*
X4012615Y21135500D01*
X3887385Y21135500D01*
X3887383Y21135500D01*
X3767225Y21100218D01*
X3661875Y21032514D01*
X3661875Y21032513D01*
X3579868Y20937872D01*
X3579867Y20937871D01*
X3579867Y20937870D01*
X3562672Y20900218D01*
X3527843Y20823954D01*
X3527842Y20823952D01*
X3510022Y20700003D01*
X3510022Y20699998D01*
X3527842Y20576049D01*
X3527843Y20576047D01*
X3527843Y20576046D01*
X3527844Y20576044D01*
X3579867Y20462130D01*
X3640319Y20392365D01*
X3664137Y20336006D01*
X3664500Y20327534D01*
X3664500Y19422467D01*
X3645593Y19364276D01*
X3640319Y19357636D01*
X3579868Y19287873D01*
X3527843Y19173954D01*
X3527842Y19173952D01*
X3510022Y19050003D01*
X3510022Y19049998D01*
X3527842Y18926049D01*
X3527843Y18926045D01*
X3539452Y18900627D01*
X3546427Y18839841D01*
X3516341Y18786563D01*
X3460685Y18761145D01*
X3449399Y18760500D01*
X3094963Y18760500D01*
X3036772Y18779407D01*
X3024959Y18789496D01*
X2900927Y18913528D01*
X2873150Y18968045D01*
X2882721Y19028477D01*
X2925986Y19071742D01*
X2929803Y19073585D01*
X2931881Y19074536D01*
X2931888Y19074537D01*
X3037239Y19142242D01*
X3119248Y19236885D01*
X3171271Y19350799D01*
X3175831Y19382513D01*
X3189093Y19474753D01*
X3189093Y19474758D01*
X3171272Y19598707D01*
X3171271Y19598709D01*
X3171271Y19598711D01*
X3119248Y19712625D01*
X3037239Y19807268D01*
X3037239Y19807269D01*
X2931889Y19874973D01*
X2873022Y19892258D01*
X2822515Y19926794D01*
X2801954Y19984422D01*
X2819193Y20043128D01*
X2867646Y20080491D01*
X2873010Y20082234D01*
X2932773Y20099782D01*
X3038124Y20167487D01*
X3120133Y20262130D01*
X3172156Y20376044D01*
X3172157Y20376049D01*
X3189978Y20499998D01*
X3189978Y20500003D01*
X3172157Y20623952D01*
X3172156Y20623954D01*
X3172156Y20623956D01*
X3120133Y20737870D01*
X3038124Y20832513D01*
X3038124Y20832514D01*
X2932774Y20900218D01*
X2812616Y20935500D01*
X2812615Y20935500D01*
X2687385Y20935500D01*
X2687383Y20935500D01*
X2615901Y20914510D01*
X2588009Y20910500D01*
X2509500Y20910500D01*
X2451309Y20929407D01*
X2415345Y20978907D01*
X2410500Y21009500D01*
X2410500Y21738959D01*
X2429407Y21797150D01*
X2439490Y21808956D01*
X2668373Y22037840D01*
X2684849Y22051116D01*
X2788124Y22117487D01*
X2870133Y22212130D01*
X2922156Y22326044D01*
X2923031Y22332130D01*
X2939978Y22449998D01*
X2939978Y22450003D01*
X2922157Y22573952D01*
X2922156Y22573954D01*
X2922156Y22573956D01*
X2870133Y22687870D01*
X2788124Y22782513D01*
X2788124Y22782514D01*
X2682774Y22850218D01*
X2562616Y22885500D01*
X2562615Y22885500D01*
X2437385Y22885500D01*
X2437383Y22885500D01*
X2317225Y22850218D01*
X2211875Y22782514D01*
X2211875Y22782513D01*
X2129867Y22687872D01*
X2129866Y22687870D01*
X2114197Y22653560D01*
X2094148Y22624685D01*
X1755706Y22286242D01*
X1663759Y22194296D01*
X1663759Y22194294D01*
X1652445Y22172090D01*
X1644330Y22158849D01*
X1629686Y22138694D01*
X1629681Y22138683D01*
X1621978Y22114980D01*
X1616039Y22100641D01*
X1604724Y22078433D01*
X1600825Y22053814D01*
X1597199Y22038712D01*
X1589500Y22015018D01*
X1589500Y19168900D01*
X1597199Y19145206D01*
X1600825Y19130106D01*
X1604725Y19105487D01*
X1604725Y19105486D01*
X1616038Y19083282D01*
X1621980Y19068937D01*
X1629682Y19045235D01*
X1629683Y19045233D01*
X1644328Y19025076D01*
X1652445Y19011831D01*
X1663759Y18989626D01*
X1663758Y18989626D01*
X2216420Y18436964D01*
X2244197Y18382447D01*
X2234626Y18322015D01*
X2216420Y18296956D01*
X605706Y16686242D01*
X513759Y16594296D01*
X513759Y16594294D01*
X502445Y16572090D01*
X494330Y16558849D01*
X479686Y16538694D01*
X479681Y16538683D01*
X471978Y16514980D01*
X466039Y16500641D01*
X454724Y16478433D01*
X450825Y16453814D01*
X447199Y16438712D01*
X439500Y16415018D01*
X439500Y12472238D01*
X447199Y12448544D01*
X450825Y12433444D01*
X454725Y12408825D01*
X454725Y12408824D01*
X466038Y12386620D01*
X471980Y12372275D01*
X479682Y12348573D01*
X479683Y12348571D01*
X494328Y12328414D01*
X502445Y12315169D01*
X513757Y12292966D01*
X513759Y12292964D01*
X536888Y12269835D01*
X565461Y12241262D01*
X585503Y12221221D01*
X613281Y12166705D01*
X614500Y12151217D01*
X614500Y12021016D01*
X605555Y11979893D01*
X602844Y11973957D01*
X602842Y11973952D01*
X585022Y11850003D01*
X585022Y11849998D01*
X602843Y11726046D01*
X605552Y11720114D01*
X614500Y11678985D01*
X614500Y7059980D01*
X622199Y7036286D01*
X625825Y7021186D01*
X629725Y6996567D01*
X629725Y6996566D01*
X641038Y6974362D01*
X646980Y6960017D01*
X654682Y6936315D01*
X654683Y6936313D01*
X669328Y6916156D01*
X677445Y6902911D01*
X688759Y6880706D01*
X688758Y6880706D01*
X711888Y6857576D01*
X3594149Y3975316D01*
X3614198Y3946439D01*
X3629867Y3912130D01*
X3629866Y3912130D01*
X3711875Y3817488D01*
X3711875Y3817487D01*
X3817225Y3749783D01*
X3817227Y3749782D01*
X3937385Y3714500D01*
X3937386Y3714500D01*
X4062614Y3714500D01*
X4062615Y3714500D01*
X4182773Y3749782D01*
X4288124Y3817487D01*
X4370133Y3912130D01*
X4422156Y4026044D01*
X4425600Y4049998D01*
X4439978Y4149998D01*
X4439978Y4150003D01*
X4422157Y4273952D01*
X4422156Y4273954D01*
X4422156Y4273956D01*
X4370133Y4387870D01*
X4294725Y4474895D01*
X4288125Y4482512D01*
X4288124Y4482513D01*
X4184855Y4548880D01*
X4168375Y4562160D01*
X1464496Y7266040D01*
X1436719Y7320557D01*
X1435500Y7336044D01*
X1435500Y8258561D01*
X1454407Y8316752D01*
X1503907Y8352716D01*
X1565093Y8352716D01*
X1604504Y8328565D01*
X1718197Y8214871D01*
X1722702Y8209694D01*
X1730045Y8199970D01*
X1730046Y8199969D01*
X1730047Y8199968D01*
X1757400Y8175032D01*
X1763752Y8169242D01*
X1765404Y8167664D01*
X1772938Y8160131D01*
X1778654Y8154415D01*
X1781301Y8152602D01*
X1786667Y8148352D01*
X1805782Y8130926D01*
X1808927Y8128059D01*
X1817094Y8124895D01*
X1837281Y8114254D01*
X1844510Y8109302D01*
X1873820Y8102409D01*
X1880372Y8100381D01*
X1908458Y8089500D01*
X1917220Y8089500D01*
X1939884Y8086871D01*
X1948414Y8084865D01*
X1978237Y8089025D01*
X1985085Y8089500D01*
X2761370Y8089500D01*
X2819561Y8070593D01*
X2855525Y8021093D01*
X2859362Y8004589D01*
X2877842Y7876049D01*
X2877843Y7876047D01*
X2877843Y7876046D01*
X2877844Y7876044D01*
X2929867Y7762130D01*
X2962391Y7724596D01*
X3011875Y7667488D01*
X3011875Y7667487D01*
X3104030Y7608263D01*
X3117227Y7599782D01*
X3237385Y7564500D01*
X3237386Y7564500D01*
X3362614Y7564500D01*
X3362615Y7564500D01*
X3482773Y7599782D01*
X3588124Y7667487D01*
X3599253Y7680332D01*
X3651649Y7711927D01*
X3674072Y7714500D01*
X3890734Y7714500D01*
X3948925Y7695593D01*
X3960738Y7685504D01*
X5353408Y6292834D01*
X5381185Y6238317D01*
X5371614Y6177885D01*
X5328349Y6134620D01*
X5311296Y6127840D01*
X5217226Y6100218D01*
X5111875Y6032514D01*
X5111875Y6032513D01*
X5029868Y5937872D01*
X4977843Y5823954D01*
X4977842Y5823951D01*
X4960400Y5702633D01*
X4933404Y5647725D01*
X4879290Y5619172D01*
X4818727Y5627879D01*
X4808886Y5633437D01*
X4782773Y5650218D01*
X4662616Y5685500D01*
X4662615Y5685500D01*
X4537385Y5685500D01*
X4537383Y5685500D01*
X4417225Y5650218D01*
X4311875Y5582514D01*
X4311875Y5582513D01*
X4229868Y5487872D01*
X4229867Y5487871D01*
X4229867Y5487870D01*
X4222474Y5471682D01*
X4177843Y5373954D01*
X4177842Y5373952D01*
X4160022Y5250003D01*
X4160022Y5249998D01*
X4177842Y5126049D01*
X4177843Y5126047D01*
X4177843Y5126046D01*
X4177844Y5126044D01*
X4229867Y5012130D01*
X4257366Y4980395D01*
X4311875Y4917488D01*
X4311875Y4917487D01*
X4417225Y4849783D01*
X4417227Y4849782D01*
X4537385Y4814500D01*
X4537386Y4814500D01*
X4662614Y4814500D01*
X4662615Y4814500D01*
X4782773Y4849782D01*
X4888124Y4917487D01*
X4970133Y5012130D01*
X5022156Y5126044D01*
X5022308Y5127097D01*
X5030000Y5180602D01*
X5039599Y5247369D01*
X5066594Y5302275D01*
X5120708Y5330829D01*
X5181271Y5322122D01*
X5191111Y5316566D01*
X5217227Y5299782D01*
X5337385Y5264500D01*
X5337386Y5264500D01*
X5462614Y5264500D01*
X5462615Y5264500D01*
X5582773Y5299782D01*
X5688124Y5367487D01*
X5770133Y5462130D01*
X5822156Y5576044D01*
X5825189Y5597141D01*
X5852182Y5652047D01*
X5906295Y5680602D01*
X5966858Y5671897D01*
X5993185Y5653057D01*
X6375504Y5270738D01*
X6403281Y5216221D01*
X6404500Y5200734D01*
X6404500Y5127097D01*
X6404025Y5120253D01*
X6402339Y5108169D01*
X6404447Y5062603D01*
X6404500Y5060316D01*
X6404500Y5041585D01*
X6405088Y5038438D01*
X6405879Y5031622D01*
X6407269Y5001547D01*
X6407269Y5001545D01*
X6407270Y5001543D01*
X6410810Y4993525D01*
X6417556Y4971741D01*
X6418273Y4967906D01*
X6419168Y4963117D01*
X6419169Y4963115D01*
X6435016Y4937524D01*
X6438217Y4931452D01*
X6448712Y4907684D01*
X6450383Y4903899D01*
X6456584Y4897698D01*
X6470746Y4879818D01*
X6472722Y4876627D01*
X6475359Y4872368D01*
X6499380Y4854228D01*
X6504559Y4849722D01*
X6789410Y4564871D01*
X6793915Y4559694D01*
X6801258Y4549970D01*
X6801259Y4549969D01*
X6801260Y4549968D01*
X6802453Y4548880D01*
X6834965Y4519242D01*
X6836617Y4517664D01*
X6848786Y4505496D01*
X6849867Y4504415D01*
X6852514Y4502602D01*
X6857880Y4498352D01*
X6880140Y4478059D01*
X6888307Y4474895D01*
X6908494Y4464254D01*
X6915723Y4459302D01*
X6945033Y4452409D01*
X6951585Y4450381D01*
X6979671Y4439500D01*
X6988433Y4439500D01*
X7011097Y4436871D01*
X7019627Y4434865D01*
X7049450Y4439025D01*
X7056298Y4439500D01*
X7365734Y4439500D01*
X7423925Y4420593D01*
X7435738Y4410504D01*
X7697432Y4148810D01*
X7725209Y4094293D01*
X7725420Y4092900D01*
X7727844Y4076043D01*
X7727846Y4076038D01*
X7779865Y3962132D01*
X7779866Y3962130D01*
X7861875Y3867488D01*
X7861875Y3867487D01*
X7939677Y3817487D01*
X7967227Y3799782D01*
X8087385Y3764500D01*
X8087386Y3764500D01*
X8212614Y3764500D01*
X8212615Y3764500D01*
X8332773Y3799782D01*
X8438124Y3867487D01*
X8520133Y3962130D01*
X8572156Y4076044D01*
X8573086Y4082513D01*
X8589978Y4199998D01*
X8589978Y4200003D01*
X8572157Y4323952D01*
X8572156Y4323954D01*
X8572156Y4323956D01*
X8520133Y4437870D01*
X8438124Y4532513D01*
X8438124Y4532514D01*
X8332774Y4600218D01*
X8212616Y4635500D01*
X8212615Y4635500D01*
X8087385Y4635500D01*
X8080465Y4635500D01*
X8022274Y4654407D01*
X7986310Y4703907D01*
X7986310Y4765093D01*
X8007301Y4801193D01*
X8030768Y4826937D01*
X8032328Y4828572D01*
X8045585Y4841827D01*
X8047400Y4844478D01*
X8051639Y4849832D01*
X8071941Y4872100D01*
X8075107Y4880273D01*
X8085744Y4900453D01*
X8090697Y4907683D01*
X8097593Y4937006D01*
X8099617Y4943541D01*
X8110500Y4971631D01*
X8110500Y4980395D01*
X8113130Y5003064D01*
X8115135Y5011587D01*
X8111522Y5037488D01*
X8110975Y5041411D01*
X8110500Y5048258D01*
X8110500Y5552352D01*
X8110975Y5559199D01*
X8112659Y5571272D01*
X8110856Y5610264D01*
X8110552Y5616831D01*
X8110500Y5619110D01*
X8110500Y5637844D01*
X8110500Y5637850D01*
X8109908Y5641015D01*
X8109120Y5647804D01*
X8107730Y5677893D01*
X8104190Y5685910D01*
X8097441Y5707706D01*
X8095832Y5716317D01*
X8079974Y5741927D01*
X8076779Y5747992D01*
X8066965Y5770218D01*
X8064616Y5775538D01*
X8064615Y5775539D01*
X8064614Y5775541D01*
X8058417Y5781738D01*
X8044251Y5799623D01*
X8039641Y5807068D01*
X8015614Y5825213D01*
X8010437Y5829718D01*
X6556520Y7283634D01*
X6064493Y7775661D01*
X6036718Y7830175D01*
X6035500Y7845650D01*
X6035500Y8641167D01*
X6054407Y8699358D01*
X6064500Y8711175D01*
X6071084Y8717757D01*
X6072897Y8720405D01*
X6077147Y8725770D01*
X6097441Y8748031D01*
X6100606Y8756201D01*
X6111250Y8776393D01*
X6116197Y8783614D01*
X6123093Y8812937D01*
X6125117Y8819472D01*
X6136000Y8847562D01*
X6136000Y8856326D01*
X6138630Y8878995D01*
X6139414Y8882328D01*
X6140635Y8887518D01*
X6136475Y8917342D01*
X6136000Y8924189D01*
X6136000Y9384407D01*
X6154907Y9442598D01*
X6204407Y9478562D01*
X6265593Y9478562D01*
X6305004Y9454411D01*
X7435504Y8323911D01*
X7463281Y8269394D01*
X7464500Y8253907D01*
X7464500Y7786265D01*
X7464025Y7779421D01*
X7462339Y7767337D01*
X7464447Y7721771D01*
X7464500Y7719484D01*
X7464500Y7700753D01*
X7465088Y7697606D01*
X7465879Y7690790D01*
X7467269Y7660715D01*
X7467269Y7660713D01*
X7467270Y7660711D01*
X7470810Y7652693D01*
X7477557Y7630906D01*
X7479168Y7622285D01*
X7479169Y7622283D01*
X7495016Y7596692D01*
X7498217Y7590620D01*
X7510383Y7563067D01*
X7516584Y7556866D01*
X7530746Y7538986D01*
X7532984Y7535372D01*
X7535359Y7531536D01*
X7559380Y7513396D01*
X7564559Y7508890D01*
X9083578Y5989871D01*
X9088083Y5984694D01*
X9095426Y5974970D01*
X9095427Y5974969D01*
X9095428Y5974968D01*
X9122816Y5950000D01*
X9129133Y5944242D01*
X9130785Y5942664D01*
X9138089Y5935361D01*
X9144035Y5929415D01*
X9146682Y5927602D01*
X9152048Y5923352D01*
X9174308Y5903059D01*
X9182475Y5899895D01*
X9202662Y5889254D01*
X9209891Y5884302D01*
X9239201Y5877409D01*
X9245753Y5875381D01*
X9273839Y5864500D01*
X9282601Y5864500D01*
X9305265Y5861871D01*
X9313795Y5859865D01*
X9337663Y5863195D01*
X9343618Y5864025D01*
X9350464Y5864500D01*
X13290949Y5864500D01*
X13297796Y5864025D01*
X13309870Y5862341D01*
X13309873Y5862340D01*
X13309875Y5862341D01*
X13309876Y5862340D01*
X13333740Y5863444D01*
X13355445Y5864448D01*
X13357726Y5864500D01*
X13376448Y5864500D01*
X13376454Y5864500D01*
X13379602Y5865089D01*
X13386402Y5865880D01*
X13416497Y5867270D01*
X13424506Y5870807D01*
X13446306Y5877559D01*
X13454921Y5879168D01*
X13480523Y5895022D01*
X13486580Y5898215D01*
X13514141Y5910383D01*
X13520337Y5916581D01*
X13538223Y5930748D01*
X13545672Y5935359D01*
X13563821Y5959395D01*
X13568318Y5964561D01*
X13578727Y5974970D01*
X13594245Y5990489D01*
X13648760Y6018264D01*
X13709192Y6008693D01*
X13752457Y5965428D01*
X13762239Y5934572D01*
X13777842Y5826050D01*
X13777843Y5826047D01*
X13777843Y5826046D01*
X13777844Y5826044D01*
X13829867Y5712130D01*
X13909170Y5620610D01*
X13926664Y5591543D01*
X13929169Y5585075D01*
X13945016Y5559484D01*
X13948217Y5553412D01*
X13957445Y5532513D01*
X13960383Y5525859D01*
X13966584Y5519658D01*
X13980746Y5501778D01*
X13985359Y5494328D01*
X14009380Y5476188D01*
X14014559Y5471682D01*
X16346367Y3139875D01*
X16350872Y3134698D01*
X16358218Y3124970D01*
X16391935Y3094232D01*
X16393589Y3092653D01*
X16406828Y3079415D01*
X16409470Y3077604D01*
X16414845Y3073347D01*
X16437100Y3053059D01*
X16445269Y3049895D01*
X16465453Y3039256D01*
X16472683Y3034303D01*
X16501998Y3027409D01*
X16508541Y3025383D01*
X16536631Y3014500D01*
X16545395Y3014500D01*
X16568061Y3011871D01*
X16576587Y3009865D01*
X16600455Y3013195D01*
X16606410Y3014025D01*
X16613256Y3014500D01*
X18357563Y3014500D01*
X18415754Y2995593D01*
X18451718Y2946093D01*
X18451718Y2884907D01*
X18451007Y2882802D01*
X18417226Y2786263D01*
X18417224Y2786254D01*
X18414500Y2757210D01*
X18414500Y442801D01*
X18417224Y413746D01*
X18417225Y413741D01*
X18445759Y332198D01*
X18447132Y271028D01*
X18412289Y220734D01*
X18354537Y200525D01*
X18352315Y200500D01*
X2187620Y200500D01*
X2184383Y200606D01*
X2164196Y201930D01*
X1930083Y217274D01*
X1923657Y218120D01*
X1675298Y267522D01*
X1669038Y269199D01*
X1429256Y350594D01*
X1423273Y353072D01*
X1196164Y465070D01*
X1190551Y468311D01*
X980001Y608995D01*
X974859Y612941D01*
X784480Y779898D01*
X779897Y784481D01*
X612940Y974860D01*
X608994Y980002D01*
X605320Y985500D01*
X468310Y1190552D01*
X465069Y1196165D01*
X353067Y1423282D01*
X350593Y1429257D01*
X335163Y1474711D01*
X269197Y1669042D01*
X267521Y1675299D01*
X218119Y1923658D01*
X217273Y1930084D01*
X209961Y2041643D01*
X200606Y2184383D01*
X200553Y2186000D01*
X980357Y2186000D01*
X1000885Y1964464D01*
X1061771Y1750472D01*
X1160942Y1551311D01*
X1295019Y1373764D01*
X1459438Y1223876D01*
X1648599Y1106753D01*
X1856060Y1026382D01*
X2074757Y985500D01*
X2297243Y985500D01*
X2515940Y1026382D01*
X2723401Y1106753D01*
X2912562Y1223876D01*
X3076981Y1373764D01*
X3211058Y1551311D01*
X3310229Y1750472D01*
X3371115Y1964464D01*
X3391643Y2186000D01*
X3371115Y2407536D01*
X3310229Y2621528D01*
X3211058Y2820689D01*
X3076981Y2998236D01*
X2912562Y3148124D01*
X2723401Y3265247D01*
X2633699Y3299998D01*
X8560022Y3299998D01*
X8577842Y3176049D01*
X8577843Y3176047D01*
X8577843Y3176046D01*
X8577844Y3176044D01*
X8629867Y3062130D01*
X8653979Y3034303D01*
X8711875Y2967488D01*
X8711875Y2967487D01*
X8817225Y2899783D01*
X8817227Y2899782D01*
X8937385Y2864500D01*
X8937386Y2864500D01*
X9062614Y2864500D01*
X9062615Y2864500D01*
X9182773Y2899782D01*
X9288124Y2967487D01*
X9370133Y3062130D01*
X9422156Y3176044D01*
X9423086Y3182513D01*
X9439978Y3299998D01*
X10560022Y3299998D01*
X10577842Y3176049D01*
X10577843Y3176047D01*
X10577843Y3176046D01*
X10577844Y3176044D01*
X10629867Y3062130D01*
X10653979Y3034303D01*
X10711875Y2967488D01*
X10711875Y2967487D01*
X10817225Y2899783D01*
X10817227Y2899782D01*
X10937385Y2864500D01*
X10937386Y2864500D01*
X11062614Y2864500D01*
X11062615Y2864500D01*
X11182773Y2899782D01*
X11288124Y2967487D01*
X11370133Y3062130D01*
X11422156Y3176044D01*
X11423086Y3182513D01*
X11439978Y3299998D01*
X12560022Y3299998D01*
X12577842Y3176049D01*
X12577843Y3176047D01*
X12577843Y3176046D01*
X12577844Y3176044D01*
X12629867Y3062130D01*
X12653979Y3034303D01*
X12711875Y2967488D01*
X12711875Y2967487D01*
X12817225Y2899783D01*
X12817227Y2899782D01*
X12937385Y2864500D01*
X12937386Y2864500D01*
X13062614Y2864500D01*
X13062615Y2864500D01*
X13182773Y2899782D01*
X13288124Y2967487D01*
X13370133Y3062130D01*
X13422156Y3176044D01*
X13423086Y3182513D01*
X13439978Y3299998D01*
X14560022Y3299998D01*
X14577842Y3176049D01*
X14577843Y3176047D01*
X14577843Y3176046D01*
X14577844Y3176044D01*
X14629867Y3062130D01*
X14653979Y3034303D01*
X14711875Y2967488D01*
X14711875Y2967487D01*
X14817225Y2899783D01*
X14817227Y2899782D01*
X14937385Y2864500D01*
X14937386Y2864500D01*
X15062614Y2864500D01*
X15062615Y2864500D01*
X15182773Y2899782D01*
X15288124Y2967487D01*
X15370133Y3062130D01*
X15422156Y3176044D01*
X15423086Y3182513D01*
X15439978Y3299998D01*
X15439978Y3300003D01*
X15422157Y3423952D01*
X15422156Y3423954D01*
X15422156Y3423956D01*
X15370133Y3537870D01*
X15288124Y3632513D01*
X15288124Y3632514D01*
X15182774Y3700218D01*
X15062616Y3735500D01*
X15062615Y3735500D01*
X14937385Y3735500D01*
X14937383Y3735500D01*
X14817225Y3700218D01*
X14711875Y3632514D01*
X14711875Y3632513D01*
X14629868Y3537872D01*
X14629867Y3537871D01*
X14629867Y3537870D01*
X14621973Y3520585D01*
X14577843Y3423954D01*
X14577842Y3423952D01*
X14560022Y3300003D01*
X14560022Y3299998D01*
X13439978Y3299998D01*
X13439978Y3300003D01*
X13422157Y3423952D01*
X13422156Y3423954D01*
X13422156Y3423956D01*
X13370133Y3537870D01*
X13288124Y3632513D01*
X13288124Y3632514D01*
X13182774Y3700218D01*
X13062616Y3735500D01*
X13062615Y3735500D01*
X12937385Y3735500D01*
X12937383Y3735500D01*
X12817225Y3700218D01*
X12711875Y3632514D01*
X12711875Y3632513D01*
X12629868Y3537872D01*
X12629867Y3537871D01*
X12629867Y3537870D01*
X12621973Y3520585D01*
X12577843Y3423954D01*
X12577842Y3423952D01*
X12560022Y3300003D01*
X12560022Y3299998D01*
X11439978Y3299998D01*
X11439978Y3300003D01*
X11422157Y3423952D01*
X11422156Y3423954D01*
X11422156Y3423956D01*
X11370133Y3537870D01*
X11288124Y3632513D01*
X11288124Y3632514D01*
X11182774Y3700218D01*
X11062616Y3735500D01*
X11062615Y3735500D01*
X10937385Y3735500D01*
X10937383Y3735500D01*
X10817225Y3700218D01*
X10711875Y3632514D01*
X10711875Y3632513D01*
X10629868Y3537872D01*
X10629867Y3537871D01*
X10629867Y3537870D01*
X10621973Y3520585D01*
X10577843Y3423954D01*
X10577842Y3423952D01*
X10560022Y3300003D01*
X10560022Y3299998D01*
X9439978Y3299998D01*
X9439978Y3300003D01*
X9422157Y3423952D01*
X9422156Y3423954D01*
X9422156Y3423956D01*
X9370133Y3537870D01*
X9288124Y3632513D01*
X9288124Y3632514D01*
X9182774Y3700218D01*
X9062616Y3735500D01*
X9062615Y3735500D01*
X8937385Y3735500D01*
X8937383Y3735500D01*
X8817225Y3700218D01*
X8711875Y3632514D01*
X8711875Y3632513D01*
X8629868Y3537872D01*
X8629867Y3537871D01*
X8629867Y3537870D01*
X8621973Y3520585D01*
X8577843Y3423954D01*
X8577842Y3423952D01*
X8560022Y3300003D01*
X8560022Y3299998D01*
X2633699Y3299998D01*
X2515940Y3345618D01*
X2515939Y3345619D01*
X2515937Y3345619D01*
X2297243Y3386500D01*
X2074757Y3386500D01*
X1856062Y3345619D01*
X1779797Y3316074D01*
X1648599Y3265247D01*
X1504531Y3176044D01*
X1459438Y3148124D01*
X1334583Y3034303D01*
X1295019Y2998236D01*
X1270264Y2965455D01*
X1160943Y2820691D01*
X1160938Y2820682D01*
X1061772Y2621531D01*
X1000885Y2407536D01*
X984053Y2225882D01*
X980357Y2186000D01*
X200553Y2186000D01*
X200500Y2187621D01*
X200500Y23599998D01*
X7560022Y23599998D01*
X7577842Y23476049D01*
X7577843Y23476047D01*
X7577843Y23476046D01*
X7577844Y23476044D01*
X7629867Y23362130D01*
X7665426Y23321093D01*
X7711875Y23267488D01*
X7711875Y23267487D01*
X7789677Y23217487D01*
X7817227Y23199782D01*
X7937385Y23164500D01*
X7937386Y23164500D01*
X8062614Y23164500D01*
X8062615Y23164500D01*
X8182773Y23199782D01*
X8288124Y23267487D01*
X8370133Y23362130D01*
X8422156Y23476044D01*
X8422157Y23476049D01*
X8439978Y23599998D01*
X10710022Y23599998D01*
X10727842Y23476049D01*
X10727843Y23476047D01*
X10727843Y23476046D01*
X10727844Y23476044D01*
X10779867Y23362130D01*
X10815426Y23321093D01*
X10861875Y23267488D01*
X10861875Y23267487D01*
X10939677Y23217487D01*
X10967227Y23199782D01*
X11087385Y23164500D01*
X11087386Y23164500D01*
X11212614Y23164500D01*
X11212615Y23164500D01*
X11332773Y23199782D01*
X11438124Y23267487D01*
X11520133Y23362130D01*
X11572156Y23476044D01*
X11572157Y23476049D01*
X11589978Y23599998D01*
X11589978Y23600003D01*
X11572157Y23723952D01*
X11572156Y23723954D01*
X11572156Y23723956D01*
X11520133Y23837870D01*
X11438124Y23932513D01*
X11438124Y23932514D01*
X11332774Y24000218D01*
X11212616Y24035500D01*
X11212615Y24035500D01*
X11087385Y24035500D01*
X11087383Y24035500D01*
X10967225Y24000218D01*
X10861875Y23932514D01*
X10861875Y23932513D01*
X10779868Y23837872D01*
X10727843Y23723954D01*
X10727842Y23723952D01*
X10710022Y23600003D01*
X10710022Y23599998D01*
X8439978Y23599998D01*
X8439978Y23600003D01*
X8422157Y23723952D01*
X8422156Y23723954D01*
X8422156Y23723956D01*
X8370133Y23837870D01*
X8288124Y23932513D01*
X8288124Y23932514D01*
X8182774Y24000218D01*
X8062616Y24035500D01*
X8062615Y24035500D01*
X7937385Y24035500D01*
X7937383Y24035500D01*
X7817225Y24000218D01*
X7711875Y23932514D01*
X7711875Y23932513D01*
X7629868Y23837872D01*
X7577843Y23723954D01*
X7577842Y23723952D01*
X7560022Y23600003D01*
X7560022Y23599998D01*
X200500Y23599998D01*
X200500Y24812380D01*
X200553Y24814000D01*
X980357Y24814000D01*
X1000885Y24592464D01*
X1061771Y24378472D01*
X1160942Y24179311D01*
X1295019Y24001764D01*
X1459438Y23851876D01*
X1648599Y23734753D01*
X1856060Y23654382D01*
X2074757Y23613500D01*
X2297243Y23613500D01*
X2515940Y23654382D01*
X2723401Y23734753D01*
X2912562Y23851876D01*
X3076981Y24001764D01*
X3211058Y24179311D01*
X3310229Y24378472D01*
X3371115Y24592464D01*
X3391643Y24814000D01*
X3371115Y25035536D01*
X3310229Y25249528D01*
X3211058Y25448689D01*
X3076981Y25626236D01*
X2912562Y25776124D01*
X2723401Y25893247D01*
X2515940Y25973618D01*
X2515939Y25973619D01*
X2515937Y25973619D01*
X2297243Y26014500D01*
X2074757Y26014500D01*
X1856062Y25973619D01*
X1779797Y25944074D01*
X1648599Y25893247D01*
X1513260Y25809449D01*
X1459438Y25776124D01*
X1295020Y25626237D01*
X1160943Y25448691D01*
X1160938Y25448682D01*
X1061772Y25249531D01*
X1061771Y25249528D01*
X1000885Y25035536D01*
X980357Y24814000D01*
X200553Y24814000D01*
X200606Y24815618D01*
X201981Y24836590D01*
X217273Y25069924D01*
X218119Y25076343D01*
X267521Y25324702D01*
X269196Y25330956D01*
X350595Y25570751D01*
X353065Y25576714D01*
X465075Y25803848D01*
X468310Y25809449D01*
X524302Y25893247D01*
X609001Y26020009D01*
X612931Y26025131D01*
X779907Y26215531D01*
X784469Y26220093D01*
X974869Y26387069D01*
X979991Y26390999D01*
X1190555Y26531693D01*
X1196152Y26534925D01*
X1423286Y26646935D01*
X1429249Y26649405D01*
X1669044Y26730804D01*
X1675298Y26732479D01*
X1917182Y26780593D01*
X1923659Y26781882D01*
X1930076Y26782727D01*
X2184383Y26799395D01*
X2187620Y26799500D01*
X2225882Y26799500D01*
X18352315Y26799500D01*
X18410506Y26780593D01*
G37*
%TD.AperFunction*%
%TA.AperFunction,Conductor*%
G36*
X24815616Y26799395D02*
G01*
X25069921Y26782727D01*
X25076342Y26781881D01*
X25324701Y26732479D01*
X25330958Y26730803D01*
X25570745Y26649407D01*
X25576718Y26646933D01*
X25803840Y26534928D01*
X25809448Y26531690D01*
X26019998Y26391006D01*
X26025140Y26387060D01*
X26215519Y26220103D01*
X26220102Y26215520D01*
X26387059Y26025141D01*
X26391005Y26019999D01*
X26531689Y25809449D01*
X26534930Y25803836D01*
X26646928Y25576727D01*
X26649406Y25570744D01*
X26730801Y25330962D01*
X26732478Y25324702D01*
X26781880Y25076343D01*
X26782726Y25069917D01*
X26799393Y24815619D01*
X26799499Y24812381D01*
X26799499Y22529804D01*
X26780592Y22471613D01*
X26731092Y22435649D01*
X26669906Y22435649D01*
X26664978Y22437734D01*
X26536262Y22482774D01*
X26536253Y22482776D01*
X26507207Y22485500D01*
X24192800Y22485500D01*
X24163745Y22482776D01*
X24163740Y22482775D01*
X24041365Y22439954D01*
X24041364Y22439953D01*
X24041363Y22439953D01*
X24041362Y22439952D01*
X23937040Y22362960D01*
X23860222Y22258873D01*
X23860047Y22258636D01*
X23860046Y22258635D01*
X23817226Y22136263D01*
X23817224Y22136254D01*
X23814500Y22107210D01*
X23814500Y19792801D01*
X23817224Y19763746D01*
X23817225Y19763741D01*
X23860046Y19641366D01*
X23860048Y19641362D01*
X23937040Y19537040D01*
X24041362Y19460048D01*
X24163742Y19417225D01*
X24192801Y19414500D01*
X26507198Y19414501D01*
X26507199Y19414501D01*
X26513009Y19415046D01*
X26536258Y19417225D01*
X26658638Y19460048D01*
X26658637Y19460048D01*
X26665640Y19462498D01*
X26666563Y19459861D01*
X26714490Y19468203D01*
X26769425Y19441262D01*
X26798032Y19387176D01*
X26799499Y19370197D01*
X26799499Y15329804D01*
X26780592Y15271613D01*
X26731092Y15235649D01*
X26669906Y15235649D01*
X26664978Y15237734D01*
X26536262Y15282774D01*
X26536253Y15282776D01*
X26507207Y15285500D01*
X24192800Y15285500D01*
X24163745Y15282776D01*
X24163740Y15282775D01*
X24041365Y15239954D01*
X24041364Y15239953D01*
X24041363Y15239953D01*
X24041362Y15239952D01*
X23937040Y15162960D01*
X23881624Y15087872D01*
X23860047Y15058636D01*
X23860046Y15058635D01*
X23817226Y14936263D01*
X23817224Y14936254D01*
X23814500Y14907210D01*
X23814500Y12592801D01*
X23817224Y12563746D01*
X23817225Y12563741D01*
X23860046Y12441366D01*
X23860048Y12441362D01*
X23937040Y12337040D01*
X24041362Y12260048D01*
X24163742Y12217225D01*
X24192801Y12214500D01*
X26507198Y12214501D01*
X26507199Y12214501D01*
X26513009Y12215046D01*
X26536258Y12217225D01*
X26658638Y12260048D01*
X26658637Y12260048D01*
X26665640Y12262498D01*
X26666563Y12259861D01*
X26714490Y12268203D01*
X26769425Y12241262D01*
X26798032Y12187176D01*
X26799499Y12170197D01*
X26799499Y8129804D01*
X26780592Y8071613D01*
X26731092Y8035649D01*
X26669906Y8035649D01*
X26664978Y8037734D01*
X26536262Y8082774D01*
X26536253Y8082776D01*
X26507207Y8085500D01*
X24192800Y8085500D01*
X24163745Y8082776D01*
X24163740Y8082775D01*
X24041365Y8039954D01*
X24041364Y8039953D01*
X24041363Y8039953D01*
X24041362Y8039952D01*
X23937040Y7962960D01*
X23865949Y7866633D01*
X23860047Y7858636D01*
X23860046Y7858635D01*
X23817226Y7736263D01*
X23817224Y7736254D01*
X23814500Y7707210D01*
X23814500Y5392801D01*
X23817224Y5363746D01*
X23817225Y5363741D01*
X23860046Y5241366D01*
X23860048Y5241362D01*
X23937040Y5137040D01*
X24041362Y5060048D01*
X24163742Y5017225D01*
X24192801Y5014500D01*
X26507198Y5014501D01*
X26507199Y5014501D01*
X26513009Y5015046D01*
X26536258Y5017225D01*
X26658638Y5060048D01*
X26658637Y5060048D01*
X26665640Y5062498D01*
X26666563Y5059861D01*
X26714490Y5068203D01*
X26769425Y5041262D01*
X26798032Y4987176D01*
X26799499Y4970197D01*
X26799500Y2225883D01*
X26799500Y2187621D01*
X26799394Y2184383D01*
X26782726Y1930084D01*
X26781880Y1923658D01*
X26732478Y1675299D01*
X26730801Y1669039D01*
X26649406Y1429257D01*
X26646926Y1423268D01*
X26534930Y1196165D01*
X26531689Y1190552D01*
X26391005Y980002D01*
X26387059Y974860D01*
X26220102Y784481D01*
X26215519Y779898D01*
X26025140Y612941D01*
X26019998Y608995D01*
X25809448Y468311D01*
X25803835Y465070D01*
X25576732Y353074D01*
X25570743Y350594D01*
X25330961Y269199D01*
X25324701Y267522D01*
X25076342Y218120D01*
X25069916Y217274D01*
X24833822Y201800D01*
X24815616Y200606D01*
X24812380Y200500D01*
X21547685Y200500D01*
X21489494Y219407D01*
X21453530Y268907D01*
X21453530Y330093D01*
X21454241Y332198D01*
X21482774Y413739D01*
X21482774Y413740D01*
X21482775Y413742D01*
X21485500Y442801D01*
X21485499Y2186000D01*
X23608357Y2186000D01*
X23628885Y1964464D01*
X23689771Y1750472D01*
X23788942Y1551311D01*
X23923019Y1373764D01*
X24087438Y1223876D01*
X24276599Y1106753D01*
X24484060Y1026382D01*
X24702757Y985500D01*
X24925243Y985500D01*
X25143940Y1026382D01*
X25351401Y1106753D01*
X25540562Y1223876D01*
X25704981Y1373764D01*
X25839058Y1551311D01*
X25938229Y1750472D01*
X25999115Y1964464D01*
X26019643Y2186000D01*
X25999115Y2407536D01*
X25938229Y2621528D01*
X25839058Y2820689D01*
X25704981Y2998236D01*
X25540562Y3148124D01*
X25351401Y3265247D01*
X25143940Y3345618D01*
X25143939Y3345619D01*
X25143937Y3345619D01*
X24925243Y3386500D01*
X24702757Y3386500D01*
X24484062Y3345619D01*
X24407797Y3316074D01*
X24276599Y3265247D01*
X24132531Y3176044D01*
X24087438Y3148124D01*
X23962583Y3034303D01*
X23923019Y2998236D01*
X23898264Y2965455D01*
X23788943Y2820691D01*
X23788938Y2820682D01*
X23689772Y2621531D01*
X23628885Y2407536D01*
X23612053Y2225882D01*
X23608357Y2186000D01*
X21485499Y2186000D01*
X21485499Y2582642D01*
X21504406Y2640832D01*
X21553906Y2676796D01*
X21615092Y2676796D01*
X21664592Y2640832D01*
X21674552Y2623767D01*
X21679865Y2612132D01*
X21679866Y2612130D01*
X21761875Y2517488D01*
X21761875Y2517487D01*
X21867225Y2449783D01*
X21867227Y2449782D01*
X21987385Y2414500D01*
X21987386Y2414500D01*
X22112614Y2414500D01*
X22112615Y2414500D01*
X22232773Y2449782D01*
X22338124Y2517487D01*
X22420133Y2612130D01*
X22472156Y2726044D01*
X22472157Y2726049D01*
X22489978Y2849998D01*
X22489978Y2850003D01*
X22472157Y2973952D01*
X22472156Y2973954D01*
X22472156Y2973956D01*
X22420133Y3087870D01*
X22338124Y3182513D01*
X22338124Y3182514D01*
X22232774Y3250218D01*
X22112616Y3285500D01*
X22112615Y3285500D01*
X22059266Y3285500D01*
X22001075Y3304407D01*
X21989262Y3314496D01*
X21843629Y3460130D01*
X21839125Y3465306D01*
X21831780Y3475031D01*
X21831780Y3475032D01*
X21804507Y3499895D01*
X21798073Y3505761D01*
X21796420Y3507339D01*
X21783175Y3520583D01*
X21783167Y3520590D01*
X21780520Y3522404D01*
X21775150Y3526658D01*
X21762848Y3537872D01*
X21752900Y3546941D01*
X21752896Y3546943D01*
X21752894Y3546944D01*
X21744725Y3550109D01*
X21724551Y3560742D01*
X21723695Y3561329D01*
X21717317Y3565697D01*
X21717316Y3565698D01*
X21717315Y3565698D01*
X21688004Y3572593D01*
X21681450Y3574622D01*
X21653373Y3585499D01*
X21653370Y3585500D01*
X21653369Y3585500D01*
X21653367Y3585500D01*
X21644605Y3585500D01*
X21621938Y3588130D01*
X21613413Y3590135D01*
X21583590Y3585975D01*
X21576744Y3585500D01*
X20340537Y3585500D01*
X20282346Y3604407D01*
X20246382Y3653907D01*
X20246382Y3715093D01*
X20265718Y3749331D01*
X20320131Y3812128D01*
X20320130Y3812128D01*
X20320133Y3812130D01*
X20372156Y3926044D01*
X20372157Y3926049D01*
X20389978Y4049998D01*
X20389978Y4050003D01*
X20372157Y4173952D01*
X20372156Y4173954D01*
X20372156Y4173956D01*
X20320133Y4287870D01*
X20238124Y4382513D01*
X20238124Y4382514D01*
X20132774Y4450218D01*
X20012616Y4485500D01*
X20012615Y4485500D01*
X19887385Y4485500D01*
X19887383Y4485500D01*
X19767225Y4450218D01*
X19661875Y4382514D01*
X19661875Y4382513D01*
X19579868Y4287872D01*
X19527843Y4173954D01*
X19527842Y4173952D01*
X19510022Y4050003D01*
X19510022Y4049998D01*
X19527842Y3926049D01*
X19527843Y3926047D01*
X19527843Y3926046D01*
X19527844Y3926044D01*
X19534199Y3912129D01*
X19579868Y3812128D01*
X19634282Y3749331D01*
X19658100Y3692972D01*
X19644241Y3633376D01*
X19598001Y3593309D01*
X19559463Y3585500D01*
X18940537Y3585500D01*
X18882346Y3604407D01*
X18846382Y3653907D01*
X18846382Y3715093D01*
X18865718Y3749331D01*
X18920131Y3812128D01*
X18920130Y3812128D01*
X18920133Y3812130D01*
X18972156Y3926044D01*
X18972157Y3926049D01*
X18989978Y4049998D01*
X18989978Y4050003D01*
X18972157Y4173952D01*
X18972156Y4173954D01*
X18972156Y4173956D01*
X18920133Y4287870D01*
X18838124Y4382513D01*
X18838124Y4382514D01*
X18732774Y4450218D01*
X18612616Y4485500D01*
X18612615Y4485500D01*
X18487385Y4485500D01*
X18487383Y4485500D01*
X18367225Y4450218D01*
X18261875Y4382514D01*
X18261875Y4382513D01*
X18179868Y4287872D01*
X18127843Y4173954D01*
X18127842Y4173952D01*
X18110022Y4050003D01*
X18110022Y4049998D01*
X18127842Y3926049D01*
X18127843Y3926047D01*
X18127843Y3926046D01*
X18127844Y3926044D01*
X18134199Y3912129D01*
X18179868Y3812128D01*
X18234282Y3749331D01*
X18258100Y3692972D01*
X18244241Y3633376D01*
X18198001Y3593309D01*
X18159463Y3585500D01*
X16749266Y3585500D01*
X16691075Y3604407D01*
X16679262Y3614496D01*
X15788262Y4505496D01*
X15760485Y4560013D01*
X15770056Y4620445D01*
X15813321Y4663710D01*
X15858266Y4674500D01*
X15872614Y4674500D01*
X15872615Y4674500D01*
X15992773Y4709782D01*
X16098124Y4777487D01*
X16180133Y4872130D01*
X16182185Y4876625D01*
X16223556Y4921703D01*
X16272240Y4934500D01*
X16283193Y4934500D01*
X16341384Y4915593D01*
X16373246Y4876627D01*
X16379867Y4862130D01*
X16379866Y4862130D01*
X16461875Y4767488D01*
X16461875Y4767487D01*
X16560808Y4703907D01*
X16567227Y4699782D01*
X16687385Y4664500D01*
X16687386Y4664500D01*
X16812614Y4664500D01*
X16812615Y4664500D01*
X16932773Y4699782D01*
X17038124Y4767487D01*
X17120133Y4862130D01*
X17124700Y4872130D01*
X17126754Y4876627D01*
X17168127Y4921705D01*
X17216807Y4934500D01*
X17272614Y4934500D01*
X17272615Y4934500D01*
X17392773Y4969782D01*
X17498124Y5037487D01*
X17580133Y5132130D01*
X17611127Y5199998D01*
X18110022Y5199998D01*
X18127842Y5076049D01*
X18127843Y5076047D01*
X18127843Y5076046D01*
X18127844Y5076044D01*
X18179867Y4962130D01*
X18199597Y4939360D01*
X18261875Y4867488D01*
X18261875Y4867487D01*
X18365031Y4801193D01*
X18367227Y4799782D01*
X18487385Y4764500D01*
X18487386Y4764500D01*
X18612614Y4764500D01*
X18612615Y4764500D01*
X18732773Y4799782D01*
X18838124Y4867487D01*
X18920133Y4962130D01*
X18972156Y5076044D01*
X18977701Y5114612D01*
X18989978Y5199998D01*
X18989978Y5200003D01*
X18972157Y5323952D01*
X18972156Y5323954D01*
X18972156Y5323956D01*
X18920133Y5437870D01*
X18838124Y5532513D01*
X18838124Y5532514D01*
X18732774Y5600218D01*
X18612616Y5635500D01*
X18612615Y5635500D01*
X18487385Y5635500D01*
X18487383Y5635500D01*
X18367225Y5600218D01*
X18261875Y5532514D01*
X18261875Y5532513D01*
X18179868Y5437872D01*
X18127843Y5323954D01*
X18127842Y5323952D01*
X18110022Y5200003D01*
X18110022Y5199998D01*
X17611127Y5199998D01*
X17632156Y5246044D01*
X17632346Y5247367D01*
X17649978Y5369998D01*
X17649978Y5370003D01*
X17632157Y5493952D01*
X17632156Y5493954D01*
X17632156Y5493956D01*
X17580133Y5607870D01*
X17498124Y5702513D01*
X17498124Y5702514D01*
X17392774Y5770218D01*
X17272616Y5805500D01*
X17272615Y5805500D01*
X17216807Y5805500D01*
X17158616Y5824407D01*
X17126754Y5863373D01*
X17123359Y5870806D01*
X17120133Y5877870D01*
X17120132Y5877871D01*
X17120133Y5877871D01*
X17038124Y5972513D01*
X17038124Y5972514D01*
X16932774Y6040218D01*
X16812616Y6075500D01*
X16812615Y6075500D01*
X16760917Y6075500D01*
X16702726Y6094407D01*
X16666762Y6143907D01*
X16666762Y6205093D01*
X16670863Y6215626D01*
X16712156Y6306044D01*
X16713594Y6316047D01*
X16729978Y6429998D01*
X16729978Y6430003D01*
X16712157Y6553952D01*
X16712155Y6553960D01*
X16666525Y6653874D01*
X16659550Y6714660D01*
X16666525Y6736126D01*
X16712155Y6836041D01*
X16712157Y6836049D01*
X16729978Y6959998D01*
X16729978Y6960003D01*
X16712157Y7083952D01*
X16712156Y7083954D01*
X16712156Y7083956D01*
X16664240Y7188876D01*
X16657266Y7249660D01*
X16664239Y7271121D01*
X16712156Y7376044D01*
X16716162Y7403907D01*
X16729978Y7499998D01*
X16729978Y7500003D01*
X16712157Y7623952D01*
X16712156Y7623954D01*
X16712156Y7623956D01*
X16664240Y7728876D01*
X16657266Y7789660D01*
X16664241Y7811126D01*
X16712156Y7916044D01*
X16713293Y7923952D01*
X16729978Y8039998D01*
X16729978Y8040003D01*
X16712157Y8163952D01*
X16712155Y8163960D01*
X16666525Y8263874D01*
X16659550Y8324660D01*
X16666525Y8346126D01*
X16712155Y8446041D01*
X16712157Y8446049D01*
X16729978Y8569998D01*
X16729978Y8570003D01*
X16712157Y8693952D01*
X16712156Y8693953D01*
X16712156Y8693954D01*
X16712156Y8693956D01*
X16661523Y8804825D01*
X16654550Y8865609D01*
X16661521Y8887068D01*
X16679931Y8927381D01*
X16721301Y8972455D01*
X16781268Y8984606D01*
X16836924Y8959189D01*
X16839987Y8956255D01*
X17660504Y8135739D01*
X17688281Y8081222D01*
X17689500Y8065735D01*
X17689500Y7620884D01*
X17689025Y7614040D01*
X17687339Y7601956D01*
X17688165Y7584112D01*
X17689181Y7562128D01*
X17689447Y7556390D01*
X17689500Y7554103D01*
X17689500Y7535372D01*
X17690088Y7532225D01*
X17690879Y7525409D01*
X17692269Y7495334D01*
X17692269Y7495332D01*
X17692270Y7495330D01*
X17695810Y7487312D01*
X17702556Y7465528D01*
X17702779Y7464338D01*
X17704168Y7456904D01*
X17704169Y7456902D01*
X17720016Y7431311D01*
X17723217Y7425239D01*
X17726094Y7418724D01*
X17735383Y7397686D01*
X17741584Y7391485D01*
X17755746Y7373605D01*
X17760359Y7366155D01*
X17784380Y7348015D01*
X17789559Y7343509D01*
X18143197Y6989871D01*
X18147702Y6984694D01*
X18155045Y6974970D01*
X18155046Y6974969D01*
X18155047Y6974968D01*
X18171447Y6960017D01*
X18188752Y6944242D01*
X18190404Y6942664D01*
X18203654Y6929415D01*
X18207175Y6926491D01*
X18205951Y6925019D01*
X18238686Y6882526D01*
X18240403Y6821365D01*
X18220247Y6784471D01*
X18179867Y6737870D01*
X18127843Y6623954D01*
X18127842Y6623952D01*
X18110022Y6500003D01*
X18110022Y6499998D01*
X18127842Y6376049D01*
X18127843Y6376047D01*
X18127843Y6376046D01*
X18127844Y6376044D01*
X18179867Y6262130D01*
X18179868Y6262129D01*
X18261875Y6167488D01*
X18261875Y6167487D01*
X18367225Y6099783D01*
X18367227Y6099782D01*
X18487385Y6064500D01*
X18487386Y6064500D01*
X18612614Y6064500D01*
X18612615Y6064500D01*
X18732773Y6099782D01*
X18838124Y6167487D01*
X18874086Y6208990D01*
X18926479Y6240585D01*
X18987440Y6235350D01*
X19018908Y6214162D01*
X19543198Y5689871D01*
X19547703Y5684694D01*
X19555046Y5674970D01*
X19555047Y5674969D01*
X19555048Y5674968D01*
X19588600Y5644381D01*
X19588753Y5644242D01*
X19590405Y5642664D01*
X19603655Y5629415D01*
X19607176Y5626491D01*
X19605957Y5625024D01*
X19638696Y5582497D01*
X19640395Y5521335D01*
X19620247Y5484471D01*
X19579867Y5437870D01*
X19527843Y5323954D01*
X19527842Y5323952D01*
X19510022Y5200003D01*
X19510022Y5199998D01*
X19527842Y5076049D01*
X19527843Y5076047D01*
X19527843Y5076046D01*
X19527844Y5076044D01*
X19579867Y4962130D01*
X19599597Y4939360D01*
X19661875Y4867488D01*
X19661875Y4867487D01*
X19765031Y4801193D01*
X19767227Y4799782D01*
X19887385Y4764500D01*
X19887386Y4764500D01*
X20012614Y4764500D01*
X20012615Y4764500D01*
X20132773Y4799782D01*
X20238124Y4867487D01*
X20320133Y4962130D01*
X20372156Y5076044D01*
X20375189Y5097141D01*
X20402182Y5152047D01*
X20456295Y5180602D01*
X20516858Y5171897D01*
X20543185Y5153057D01*
X22106370Y3589871D01*
X22110875Y3584694D01*
X22118218Y3574970D01*
X22151925Y3544242D01*
X22153577Y3542664D01*
X22166822Y3529419D01*
X22166826Y3529416D01*
X22169462Y3527610D01*
X22174840Y3523351D01*
X22187149Y3512130D01*
X22197100Y3503059D01*
X22205269Y3499895D01*
X22225456Y3489253D01*
X22232680Y3484305D01*
X22232683Y3484303D01*
X22261998Y3477409D01*
X22268541Y3475383D01*
X22269448Y3475031D01*
X22294550Y3465306D01*
X22296631Y3464500D01*
X22305395Y3464500D01*
X22328061Y3461871D01*
X22336587Y3459865D01*
X22360455Y3463195D01*
X22366410Y3464025D01*
X22373256Y3464500D01*
X22475928Y3464500D01*
X22534119Y3445593D01*
X22550745Y3430333D01*
X22561876Y3417487D01*
X22561878Y3417486D01*
X22561880Y3417484D01*
X22667225Y3349783D01*
X22667227Y3349782D01*
X22787385Y3314500D01*
X22787386Y3314500D01*
X22912614Y3314500D01*
X22912615Y3314500D01*
X23032773Y3349782D01*
X23138124Y3417487D01*
X23220133Y3512130D01*
X23272156Y3626044D01*
X23273086Y3632513D01*
X23289978Y3749998D01*
X23289978Y3750003D01*
X23272157Y3873952D01*
X23272156Y3873954D01*
X23272156Y3873956D01*
X23220133Y3987870D01*
X23182342Y4031483D01*
X23158525Y4087843D01*
X23172384Y4147438D01*
X23184225Y4161496D01*
X23183487Y4162135D01*
X23239364Y4226621D01*
X23270133Y4262130D01*
X23322156Y4376044D01*
X23323086Y4382513D01*
X23339978Y4499998D01*
X23339978Y4500003D01*
X23322157Y4623952D01*
X23322156Y4623954D01*
X23322156Y4623956D01*
X23270133Y4737870D01*
X23188124Y4832513D01*
X23188124Y4832514D01*
X23082774Y4900218D01*
X22962616Y4935500D01*
X22962615Y4935500D01*
X22837385Y4935500D01*
X22837383Y4935500D01*
X22717225Y4900218D01*
X22611880Y4832517D01*
X22606528Y4827878D01*
X22604389Y4830346D01*
X22563587Y4805879D01*
X22502639Y4811267D01*
X22471400Y4832358D01*
X21662766Y5640992D01*
X20839495Y6464264D01*
X20811718Y6518781D01*
X20810499Y6534268D01*
X20810499Y6679129D01*
X20810974Y6685976D01*
X20812658Y6698049D01*
X20810552Y6743600D01*
X20810499Y6745887D01*
X20810499Y6764621D01*
X20810499Y6764627D01*
X20809907Y6767792D01*
X20809119Y6774581D01*
X20807729Y6804670D01*
X20804189Y6812687D01*
X20797440Y6834483D01*
X20797149Y6836041D01*
X20795831Y6843094D01*
X20779973Y6868704D01*
X20776778Y6874769D01*
X20765176Y6901044D01*
X20764615Y6902315D01*
X20764614Y6902316D01*
X20764613Y6902318D01*
X20758416Y6908515D01*
X20744250Y6926400D01*
X20739640Y6933845D01*
X20715613Y6951990D01*
X20710436Y6956495D01*
X20356800Y7310131D01*
X20352294Y7315309D01*
X20344952Y7325032D01*
X20311245Y7355760D01*
X20309593Y7357338D01*
X20296347Y7370583D01*
X20292828Y7373505D01*
X20294039Y7374965D01*
X20261289Y7417544D01*
X20259616Y7478707D01*
X20279753Y7515530D01*
X20320133Y7562130D01*
X20372156Y7676044D01*
X20372157Y7676049D01*
X20389978Y7799998D01*
X20389978Y7800003D01*
X20372157Y7923952D01*
X20372156Y7923954D01*
X20372156Y7923956D01*
X20320133Y8037870D01*
X20238124Y8132513D01*
X20238124Y8132514D01*
X20132774Y8200218D01*
X20012616Y8235500D01*
X20012615Y8235500D01*
X19887385Y8235500D01*
X19887383Y8235500D01*
X19767225Y8200218D01*
X19661877Y8132515D01*
X19581650Y8039928D01*
X19529254Y8008333D01*
X19468293Y8013569D01*
X19422052Y8053637D01*
X19407937Y8100191D01*
X19407730Y8104670D01*
X19404190Y8112687D01*
X19397441Y8134483D01*
X19395832Y8143094D01*
X19379974Y8168704D01*
X19376779Y8174769D01*
X19370989Y8187880D01*
X19364616Y8202315D01*
X19364615Y8202316D01*
X19364614Y8202318D01*
X19358417Y8208515D01*
X19344251Y8226400D01*
X19339641Y8233845D01*
X19315614Y8251990D01*
X19310437Y8256495D01*
X19031801Y8535131D01*
X19027295Y8540309D01*
X19019953Y8550032D01*
X18986246Y8580760D01*
X18984594Y8582338D01*
X18971348Y8595583D01*
X18971340Y8595590D01*
X18968693Y8597404D01*
X18963323Y8601658D01*
X18953939Y8610212D01*
X18941073Y8621941D01*
X18941069Y8621943D01*
X18941067Y8621944D01*
X18932898Y8625109D01*
X18912724Y8635742D01*
X18911868Y8636329D01*
X18905490Y8640697D01*
X18905489Y8640698D01*
X18905488Y8640698D01*
X18876177Y8647593D01*
X18869623Y8649622D01*
X18841546Y8660499D01*
X18841543Y8660500D01*
X18841542Y8660500D01*
X18841540Y8660500D01*
X18832778Y8660500D01*
X18810111Y8663130D01*
X18801586Y8665135D01*
X18771763Y8660975D01*
X18764917Y8660500D01*
X18583835Y8660500D01*
X18525644Y8679407D01*
X18513831Y8689496D01*
X16907831Y10295496D01*
X16880054Y10350013D01*
X16889625Y10410445D01*
X16932890Y10453710D01*
X16977835Y10464500D01*
X17840734Y10464500D01*
X17898925Y10445593D01*
X17910738Y10435504D01*
X18656370Y9689871D01*
X18660875Y9684694D01*
X18668218Y9674970D01*
X18668219Y9674969D01*
X18668220Y9674968D01*
X18688534Y9656449D01*
X18701925Y9644242D01*
X18703577Y9642664D01*
X18711671Y9634571D01*
X18716827Y9629415D01*
X18719474Y9627602D01*
X18724840Y9623352D01*
X18747100Y9603059D01*
X18755270Y9599894D01*
X18775452Y9589256D01*
X18782683Y9584303D01*
X18812002Y9577408D01*
X18818541Y9575383D01*
X18835724Y9568726D01*
X18837929Y9567871D01*
X18846631Y9564500D01*
X18855395Y9564500D01*
X18878061Y9561871D01*
X18886587Y9559865D01*
X18910455Y9563195D01*
X18916410Y9564025D01*
X18923256Y9564500D01*
X19808442Y9564500D01*
X19866633Y9545593D01*
X19902597Y9496093D01*
X19902597Y9434907D01*
X19866633Y9385407D01*
X19836334Y9370510D01*
X19767225Y9350218D01*
X19661875Y9282514D01*
X19661875Y9282513D01*
X19579868Y9187872D01*
X19579867Y9187871D01*
X19579867Y9187870D01*
X19558800Y9141739D01*
X19527843Y9073954D01*
X19527842Y9073952D01*
X19510022Y8950003D01*
X19510022Y8949998D01*
X19527842Y8826049D01*
X19527843Y8826047D01*
X19527843Y8826046D01*
X19527844Y8826044D01*
X19579867Y8712130D01*
X19599480Y8689496D01*
X19661875Y8617488D01*
X19661875Y8617487D01*
X19766838Y8550032D01*
X19767227Y8549782D01*
X19887385Y8514500D01*
X19887386Y8514500D01*
X20012614Y8514500D01*
X20012615Y8514500D01*
X20132773Y8549782D01*
X20238124Y8617487D01*
X20320133Y8712130D01*
X20372156Y8826044D01*
X20372614Y8829230D01*
X20389978Y8949998D01*
X20389978Y8950003D01*
X20372157Y9073952D01*
X20372156Y9073954D01*
X20372156Y9073956D01*
X20320133Y9187870D01*
X20238124Y9282513D01*
X20238124Y9282514D01*
X20132774Y9350218D01*
X20063666Y9370510D01*
X20013159Y9405046D01*
X19992598Y9462673D01*
X20009837Y9521380D01*
X20058290Y9558743D01*
X20091558Y9564500D01*
X21025928Y9564500D01*
X21084119Y9545593D01*
X21100745Y9530333D01*
X21111876Y9517487D01*
X21111878Y9517486D01*
X21111880Y9517484D01*
X21188101Y9468500D01*
X21217227Y9449782D01*
X21337385Y9414500D01*
X21337386Y9414500D01*
X21462614Y9414500D01*
X21462615Y9414500D01*
X21582773Y9449782D01*
X21688124Y9517487D01*
X21770133Y9612130D01*
X21822156Y9726044D01*
X21827344Y9762129D01*
X21839978Y9849998D01*
X21839978Y9850003D01*
X21822157Y9973952D01*
X21822156Y9973954D01*
X21822156Y9973956D01*
X21799130Y10024374D01*
X21792156Y10085160D01*
X21822242Y10138437D01*
X21877898Y10163855D01*
X21889184Y10164500D01*
X22669421Y10164500D01*
X22727612Y10145593D01*
X22763576Y10096093D01*
X22767413Y10051411D01*
X22760022Y10000004D01*
X22760022Y9999998D01*
X22777842Y9876049D01*
X22777843Y9876047D01*
X22777843Y9876046D01*
X22777844Y9876044D01*
X22829867Y9762130D01*
X22829868Y9762129D01*
X22911875Y9667488D01*
X22911875Y9667487D01*
X23017225Y9599783D01*
X23017227Y9599782D01*
X23137385Y9564500D01*
X23137386Y9564500D01*
X23262614Y9564500D01*
X23262615Y9564500D01*
X23382773Y9599782D01*
X23488124Y9667487D01*
X23570133Y9762130D01*
X23622156Y9876044D01*
X23622157Y9876049D01*
X23639978Y9999998D01*
X23639978Y10000003D01*
X23622157Y10123952D01*
X23622156Y10123954D01*
X23622156Y10123956D01*
X23570133Y10237870D01*
X23488124Y10332513D01*
X23478680Y10338582D01*
X23463176Y10348546D01*
X23441263Y10362629D01*
X23402533Y10409994D01*
X23398145Y10424436D01*
X23395686Y10435500D01*
X23383294Y10491268D01*
X23382326Y10497444D01*
X23380965Y10512130D01*
X23379357Y10529484D01*
X23359944Y10568471D01*
X23358733Y10571092D01*
X23341622Y10611174D01*
X23336906Y10618244D01*
X23331782Y10625030D01*
X23330664Y10626049D01*
X23299578Y10654389D01*
X23297530Y10656368D01*
X23267083Y10687575D01*
X23267081Y10687576D01*
X23267078Y10687579D01*
X23260143Y10692457D01*
X23252899Y10696942D01*
X23212278Y10712679D01*
X23209610Y10713804D01*
X23169975Y10731891D01*
X23161740Y10733936D01*
X23153369Y10735500D01*
X23153368Y10735500D01*
X23109797Y10735500D01*
X23106910Y10735585D01*
X23081833Y10737055D01*
X23063427Y10738133D01*
X23063425Y10738133D01*
X23063423Y10738133D01*
X23063420Y10738133D01*
X23054322Y10736977D01*
X23054220Y10737776D01*
X23039710Y10735500D01*
X20439184Y10735500D01*
X20380993Y10754407D01*
X20345029Y10803907D01*
X20345029Y10865093D01*
X20349131Y10875627D01*
X20372156Y10926044D01*
X20377257Y10961523D01*
X20389978Y11049998D01*
X20389978Y11050003D01*
X20372157Y11173952D01*
X20372156Y11173954D01*
X20372156Y11173956D01*
X20320133Y11287870D01*
X20238124Y11382513D01*
X20238124Y11382514D01*
X20132774Y11450218D01*
X20012616Y11485500D01*
X20012615Y11485500D01*
X19887385Y11485500D01*
X19887383Y11485500D01*
X19767225Y11450218D01*
X19661875Y11382514D01*
X19661875Y11382513D01*
X19579868Y11287872D01*
X19527843Y11173954D01*
X19527842Y11173951D01*
X19524810Y11152859D01*
X19497814Y11097951D01*
X19443700Y11069398D01*
X19383137Y11078106D01*
X19356814Y11096944D01*
X18943628Y11510131D01*
X18939122Y11515309D01*
X18931780Y11525032D01*
X18898073Y11555760D01*
X18896421Y11557338D01*
X18883175Y11570583D01*
X18883167Y11570590D01*
X18880520Y11572404D01*
X18875150Y11576658D01*
X18865766Y11585212D01*
X18852900Y11596941D01*
X18852896Y11596943D01*
X18852894Y11596944D01*
X18844725Y11600109D01*
X18824551Y11610742D01*
X18817313Y11615700D01*
X18811899Y11618090D01*
X18766305Y11658892D01*
X18753401Y11718701D01*
X18778117Y11774672D01*
X18798360Y11791933D01*
X18838124Y11817487D01*
X18920133Y11912130D01*
X18972156Y12026044D01*
X18982439Y12097565D01*
X18989978Y12149998D01*
X19510022Y12149998D01*
X19527842Y12026049D01*
X19527843Y12026047D01*
X19527843Y12026046D01*
X19527844Y12026044D01*
X19579867Y11912130D01*
X19579868Y11912129D01*
X19661875Y11817488D01*
X19661875Y11817487D01*
X19767225Y11749783D01*
X19767227Y11749782D01*
X19887385Y11714500D01*
X19887386Y11714500D01*
X20012614Y11714500D01*
X20012615Y11714500D01*
X20132773Y11749782D01*
X20238124Y11817487D01*
X20320133Y11912130D01*
X20372156Y12026044D01*
X20382439Y12097565D01*
X20389978Y12149998D01*
X20389978Y12150003D01*
X20372157Y12273952D01*
X20372156Y12273954D01*
X20372156Y12273956D01*
X20320133Y12387870D01*
X20238124Y12482513D01*
X20238124Y12482514D01*
X20132774Y12550218D01*
X20012616Y12585500D01*
X20012615Y12585500D01*
X19887385Y12585500D01*
X19887383Y12585500D01*
X19767225Y12550218D01*
X19661875Y12482514D01*
X19661875Y12482513D01*
X19579868Y12387872D01*
X19527843Y12273954D01*
X19527842Y12273952D01*
X19510022Y12150003D01*
X19510022Y12149998D01*
X18989978Y12149998D01*
X18989978Y12150003D01*
X18972157Y12273952D01*
X18972156Y12273954D01*
X18972156Y12273956D01*
X18920133Y12387870D01*
X18838124Y12482513D01*
X18838124Y12482514D01*
X18732774Y12550218D01*
X18612616Y12585500D01*
X18612615Y12585500D01*
X18487385Y12585500D01*
X18487383Y12585500D01*
X18367225Y12550218D01*
X18261875Y12482514D01*
X18261875Y12482513D01*
X18179868Y12387872D01*
X18127843Y12273954D01*
X18127842Y12273952D01*
X18110022Y12150003D01*
X18110022Y12149998D01*
X18127842Y12026049D01*
X18127843Y12026047D01*
X18127843Y12026046D01*
X18127844Y12026044D01*
X18179867Y11912130D01*
X18179868Y11912129D01*
X18261875Y11817488D01*
X18267226Y11812851D01*
X18266311Y11811796D01*
X18300146Y11770415D01*
X18303637Y11709330D01*
X18270556Y11657858D01*
X18213539Y11635661D01*
X18207890Y11635500D01*
X17472110Y11635500D01*
X17413919Y11654407D01*
X17377955Y11703907D01*
X17377955Y11765093D01*
X17413919Y11814593D01*
X17418024Y11817401D01*
X17418119Y11817485D01*
X17418124Y11817487D01*
X17500133Y11912130D01*
X17552156Y12026044D01*
X17562439Y12097565D01*
X17569978Y12149998D01*
X17569978Y12150003D01*
X17552157Y12273952D01*
X17552156Y12273954D01*
X17552156Y12273956D01*
X17500133Y12387870D01*
X17418124Y12482513D01*
X17418124Y12482514D01*
X17312774Y12550218D01*
X17192616Y12585500D01*
X17192615Y12585500D01*
X17151374Y12585500D01*
X17093183Y12604407D01*
X17061322Y12643369D01*
X17054241Y12658874D01*
X17047265Y12719657D01*
X17054237Y12741119D01*
X17102156Y12846044D01*
X17105032Y12866047D01*
X17119978Y12969998D01*
X17119978Y12970003D01*
X17102157Y13093952D01*
X17102156Y13093954D01*
X17102156Y13093956D01*
X17054240Y13198876D01*
X17047266Y13259660D01*
X17054239Y13281121D01*
X17102156Y13386044D01*
X17103594Y13396047D01*
X17118540Y13499998D01*
X18110022Y13499998D01*
X18127842Y13376049D01*
X18127843Y13376047D01*
X18127843Y13376046D01*
X18127844Y13376044D01*
X18179867Y13262130D01*
X18190567Y13249782D01*
X18261875Y13167488D01*
X18261875Y13167487D01*
X18367225Y13099783D01*
X18367227Y13099782D01*
X18487385Y13064500D01*
X18487386Y13064500D01*
X18612614Y13064500D01*
X18612615Y13064500D01*
X18732773Y13099782D01*
X18838124Y13167487D01*
X18920133Y13262130D01*
X18972156Y13376044D01*
X18973594Y13386044D01*
X18989978Y13499998D01*
X19510022Y13499998D01*
X19527842Y13376049D01*
X19527843Y13376047D01*
X19527843Y13376046D01*
X19527844Y13376044D01*
X19579867Y13262130D01*
X19590567Y13249782D01*
X19661875Y13167488D01*
X19661875Y13167487D01*
X19767225Y13099783D01*
X19767227Y13099782D01*
X19887385Y13064500D01*
X19887386Y13064500D01*
X20012614Y13064500D01*
X20012615Y13064500D01*
X20132773Y13099782D01*
X20238124Y13167487D01*
X20320133Y13262130D01*
X20372156Y13376044D01*
X20373594Y13386044D01*
X20389978Y13499998D01*
X20389978Y13500003D01*
X20372157Y13623952D01*
X20372156Y13623954D01*
X20372156Y13623956D01*
X20320133Y13737870D01*
X20238124Y13832513D01*
X20238124Y13832514D01*
X20132774Y13900218D01*
X20012616Y13935500D01*
X20012615Y13935500D01*
X19887385Y13935500D01*
X19887383Y13935500D01*
X19767225Y13900218D01*
X19661875Y13832514D01*
X19661875Y13832513D01*
X19579868Y13737872D01*
X19527843Y13623954D01*
X19527842Y13623952D01*
X19510022Y13500003D01*
X19510022Y13499998D01*
X18989978Y13499998D01*
X18989978Y13500003D01*
X18972157Y13623952D01*
X18972156Y13623954D01*
X18972156Y13623956D01*
X18920133Y13737870D01*
X18838124Y13832513D01*
X18838124Y13832514D01*
X18732774Y13900218D01*
X18612616Y13935500D01*
X18612615Y13935500D01*
X18487385Y13935500D01*
X18487383Y13935500D01*
X18367225Y13900218D01*
X18261875Y13832514D01*
X18261875Y13832513D01*
X18179868Y13737872D01*
X18127843Y13623954D01*
X18127842Y13623952D01*
X18110022Y13500003D01*
X18110022Y13499998D01*
X17118540Y13499998D01*
X17119978Y13509998D01*
X17119978Y13510003D01*
X17102157Y13633952D01*
X17102156Y13633954D01*
X17102156Y13633956D01*
X17054240Y13738876D01*
X17047266Y13799660D01*
X17054239Y13821121D01*
X17102156Y13926044D01*
X17102157Y13926049D01*
X17119978Y14049998D01*
X17119978Y14050003D01*
X17102157Y14173952D01*
X17102155Y14173959D01*
X17051958Y14283874D01*
X17044983Y14344660D01*
X17051958Y14366126D01*
X17102155Y14476042D01*
X17102157Y14476049D01*
X17119978Y14599998D01*
X17119978Y14600003D01*
X17102157Y14723952D01*
X17102156Y14723953D01*
X17102156Y14723956D01*
X17051523Y14834825D01*
X17044550Y14895609D01*
X17051523Y14917073D01*
X17092156Y15006044D01*
X17097396Y15042487D01*
X17109978Y15129998D01*
X17109978Y15130003D01*
X17092157Y15253952D01*
X17092156Y15253954D01*
X17092156Y15253956D01*
X17050862Y15344375D01*
X17043889Y15405160D01*
X17073976Y15458437D01*
X17129632Y15483855D01*
X17140917Y15484500D01*
X17202614Y15484500D01*
X17202615Y15484500D01*
X17322773Y15519782D01*
X17428124Y15587487D01*
X17510133Y15682130D01*
X17562156Y15796044D01*
X17562756Y15800218D01*
X17579978Y15919998D01*
X17579978Y15920003D01*
X17562157Y16043952D01*
X17562156Y16043954D01*
X17562156Y16043956D01*
X17510133Y16157870D01*
X17428124Y16252513D01*
X17428124Y16252514D01*
X17343005Y16307216D01*
X17304273Y16354582D01*
X17300780Y16415668D01*
X17333860Y16467140D01*
X17390876Y16489339D01*
X17396528Y16489500D01*
X17465734Y16489500D01*
X17523925Y16470593D01*
X17535738Y16460504D01*
X17556370Y16439871D01*
X17560875Y16434694D01*
X17568218Y16424970D01*
X17601925Y16394242D01*
X17603577Y16392664D01*
X17613726Y16382516D01*
X17616827Y16379415D01*
X17619474Y16377602D01*
X17624840Y16373352D01*
X17647100Y16353059D01*
X17655270Y16349894D01*
X17675452Y16339256D01*
X17682683Y16334303D01*
X17712002Y16327408D01*
X17718541Y16325383D01*
X17746631Y16314500D01*
X17755395Y16314500D01*
X17778061Y16311871D01*
X17786587Y16309865D01*
X17810455Y16313195D01*
X17816410Y16314025D01*
X17823256Y16314500D01*
X18585692Y16314500D01*
X18643883Y16295593D01*
X18679847Y16246093D01*
X18679847Y16184907D01*
X18643883Y16135407D01*
X18639215Y16132216D01*
X18561875Y16082514D01*
X18561875Y16082513D01*
X18479868Y15987872D01*
X18479867Y15987871D01*
X18479867Y15987870D01*
X18462574Y15950003D01*
X18427843Y15873954D01*
X18427842Y15873952D01*
X18410022Y15750003D01*
X18410022Y15749998D01*
X18427842Y15626049D01*
X18427843Y15626047D01*
X18427843Y15626046D01*
X18427844Y15626044D01*
X18479867Y15512130D01*
X18501841Y15486771D01*
X18561875Y15417488D01*
X18567226Y15412851D01*
X18566311Y15411796D01*
X18600146Y15370415D01*
X18603637Y15309330D01*
X18570556Y15257858D01*
X18513539Y15235661D01*
X18507890Y15235500D01*
X18487383Y15235500D01*
X18367225Y15200218D01*
X18261875Y15132514D01*
X18261875Y15132513D01*
X18179868Y15037872D01*
X18179867Y15037871D01*
X18179867Y15037870D01*
X18164979Y15005270D01*
X18127843Y14923954D01*
X18127842Y14923952D01*
X18110022Y14800003D01*
X18110022Y14799998D01*
X18127842Y14676049D01*
X18127843Y14676047D01*
X18127843Y14676046D01*
X18127844Y14676044D01*
X18179867Y14562130D01*
X18179868Y14562129D01*
X18261875Y14467488D01*
X18261875Y14467487D01*
X18344325Y14414500D01*
X18367227Y14399782D01*
X18487385Y14364500D01*
X18487386Y14364500D01*
X18612614Y14364500D01*
X18612615Y14364500D01*
X18732773Y14399782D01*
X18838124Y14467487D01*
X18920133Y14562130D01*
X18972156Y14676044D01*
X18973499Y14685384D01*
X18989978Y14799998D01*
X19510022Y14799998D01*
X19527842Y14676049D01*
X19527843Y14676047D01*
X19527843Y14676046D01*
X19527844Y14676044D01*
X19579867Y14562130D01*
X19579868Y14562129D01*
X19661875Y14467488D01*
X19661875Y14467487D01*
X19744325Y14414500D01*
X19767227Y14399782D01*
X19887385Y14364500D01*
X19887386Y14364500D01*
X20012614Y14364500D01*
X20012615Y14364500D01*
X20132773Y14399782D01*
X20238124Y14467487D01*
X20320133Y14562130D01*
X20372156Y14676044D01*
X20373499Y14685384D01*
X20389978Y14799998D01*
X20389978Y14800003D01*
X20372157Y14923952D01*
X20372156Y14923954D01*
X20372156Y14923956D01*
X20320133Y15037870D01*
X20238124Y15132513D01*
X20238124Y15132514D01*
X20132774Y15200218D01*
X20012616Y15235500D01*
X20012615Y15235500D01*
X19887385Y15235500D01*
X19887383Y15235500D01*
X19767225Y15200218D01*
X19661875Y15132514D01*
X19661875Y15132513D01*
X19579868Y15037872D01*
X19579867Y15037871D01*
X19579867Y15037870D01*
X19564979Y15005270D01*
X19527843Y14923954D01*
X19527842Y14923952D01*
X19510022Y14800003D01*
X19510022Y14799998D01*
X18989978Y14799998D01*
X18989978Y14800003D01*
X18972157Y14923952D01*
X18972156Y14923954D01*
X18972156Y14923956D01*
X18920133Y15037870D01*
X18838124Y15132513D01*
X18832774Y15137149D01*
X18833688Y15138205D01*
X18799854Y15179585D01*
X18796363Y15240670D01*
X18829444Y15292142D01*
X18886461Y15314339D01*
X18892110Y15314500D01*
X18912614Y15314500D01*
X18912615Y15314500D01*
X19032773Y15349782D01*
X19138124Y15417487D01*
X19220133Y15512130D01*
X19272156Y15626044D01*
X19272157Y15626049D01*
X19289978Y15749998D01*
X19289978Y15750003D01*
X19272157Y15873952D01*
X19272156Y15873954D01*
X19272156Y15873956D01*
X19220133Y15987870D01*
X19138124Y16082513D01*
X19138124Y16082514D01*
X19060785Y16132216D01*
X19022053Y16179582D01*
X19018560Y16240668D01*
X19051640Y16292140D01*
X19108656Y16314339D01*
X19114308Y16314500D01*
X19483650Y16314500D01*
X19541841Y16295593D01*
X19577805Y16246093D01*
X19577805Y16184907D01*
X19573706Y16174381D01*
X19539838Y16100218D01*
X19527843Y16073954D01*
X19527842Y16073952D01*
X19510022Y15950003D01*
X19510022Y15949998D01*
X19527842Y15826049D01*
X19527843Y15826047D01*
X19527843Y15826046D01*
X19527844Y15826044D01*
X19579867Y15712130D01*
X19597197Y15692130D01*
X19661875Y15617488D01*
X19661875Y15617487D01*
X19767225Y15549783D01*
X19767227Y15549782D01*
X19887385Y15514500D01*
X19887386Y15514500D01*
X20012614Y15514500D01*
X20012615Y15514500D01*
X20132773Y15549782D01*
X20238124Y15617487D01*
X20320133Y15712130D01*
X20372156Y15826044D01*
X20372631Y15829346D01*
X20389978Y15949998D01*
X20389978Y15950003D01*
X20372157Y16073952D01*
X20372156Y16073954D01*
X20372156Y16073956D01*
X20326295Y16174376D01*
X20319322Y16235160D01*
X20349409Y16288437D01*
X20405065Y16313855D01*
X20416350Y16314500D01*
X21087455Y16314500D01*
X21140978Y16298784D01*
X21212977Y16252513D01*
X21217227Y16249782D01*
X21337385Y16214500D01*
X21337386Y16214500D01*
X21462614Y16214500D01*
X21462615Y16214500D01*
X21582773Y16249782D01*
X21688124Y16317487D01*
X21770133Y16412130D01*
X21822156Y16526044D01*
X21822157Y16526049D01*
X21839978Y16649998D01*
X21839978Y16650003D01*
X21822157Y16773952D01*
X21822156Y16773954D01*
X21822156Y16773956D01*
X21770133Y16887870D01*
X21688124Y16982513D01*
X21688124Y16982514D01*
X21582774Y17050218D01*
X21462616Y17085500D01*
X21462615Y17085500D01*
X21462019Y17085500D01*
X21461546Y17085654D01*
X21455609Y17086507D01*
X21455756Y17087535D01*
X21403828Y17104407D01*
X21367864Y17153907D01*
X21367864Y17215093D01*
X21371963Y17225622D01*
X21372156Y17226044D01*
X21373086Y17232513D01*
X21389978Y17349998D01*
X21389978Y17350003D01*
X21372157Y17473952D01*
X21372156Y17473956D01*
X21367595Y17483943D01*
X21360547Y17499375D01*
X21353573Y17560159D01*
X21383659Y17613437D01*
X21439315Y17638855D01*
X21450601Y17639500D01*
X22457300Y17639500D01*
X22515491Y17620593D01*
X22542192Y17591435D01*
X22762601Y17224085D01*
X22776327Y17164459D01*
X22775701Y17159062D01*
X22760022Y17050005D01*
X22760022Y17049998D01*
X22777842Y16926049D01*
X22777843Y16926047D01*
X22777843Y16926046D01*
X22777844Y16926044D01*
X22829867Y16812130D01*
X22829868Y16812129D01*
X22911875Y16717488D01*
X22911875Y16717487D01*
X23017225Y16649783D01*
X23017227Y16649782D01*
X23137385Y16614500D01*
X23137386Y16614500D01*
X23262614Y16614500D01*
X23262615Y16614500D01*
X23382773Y16649782D01*
X23488124Y16717487D01*
X23570133Y16812130D01*
X23622156Y16926044D01*
X23631045Y16987870D01*
X23639978Y17049998D01*
X23639978Y17050003D01*
X23622157Y17173952D01*
X23622156Y17173954D01*
X23622156Y17173956D01*
X23570133Y17287870D01*
X23488124Y17382513D01*
X23488124Y17382514D01*
X23382772Y17450219D01*
X23382770Y17450220D01*
X23310682Y17471388D01*
X23260176Y17505924D01*
X23253683Y17515442D01*
X23067946Y17825003D01*
X22926559Y18060648D01*
X22924707Y18064030D01*
X22906780Y18100032D01*
X22906779Y18100033D01*
X22880520Y18123972D01*
X22876829Y18127714D01*
X22853255Y18154311D01*
X22853254Y18154312D01*
X22851052Y18155447D01*
X22829727Y18170276D01*
X22827900Y18171941D01*
X22827898Y18171943D01*
X22794764Y18184779D01*
X22789961Y18186940D01*
X22758384Y18203218D01*
X22758381Y18203219D01*
X22758380Y18203220D01*
X22758377Y18203220D01*
X22755921Y18203482D01*
X22730680Y18209606D01*
X22728375Y18210499D01*
X22728369Y18210500D01*
X22728368Y18210500D01*
X22692828Y18210500D01*
X22687575Y18210780D01*
X22659715Y18213755D01*
X22652247Y18214552D01*
X22652241Y18214552D01*
X22649862Y18213910D01*
X22624104Y18210500D01*
X20734041Y18210500D01*
X20727193Y18210975D01*
X20715124Y18212660D01*
X20676632Y18210880D01*
X20669565Y18210553D01*
X20667289Y18210500D01*
X20648546Y18210500D01*
X20648532Y18210499D01*
X20645380Y18209910D01*
X20638575Y18209121D01*
X20608500Y18207730D01*
X20600482Y18204190D01*
X20578698Y18197444D01*
X20570082Y18195833D01*
X20570076Y18195831D01*
X20544472Y18179979D01*
X20538405Y18176781D01*
X20510856Y18164616D01*
X20505557Y18160986D01*
X20446864Y18143702D01*
X20389220Y18164218D01*
X20359560Y18201537D01*
X20320133Y18287870D01*
X20238124Y18382513D01*
X20238124Y18382514D01*
X20132774Y18450218D01*
X20012616Y18485500D01*
X20012615Y18485500D01*
X19887385Y18485500D01*
X19887383Y18485500D01*
X19767225Y18450218D01*
X19661875Y18382514D01*
X19661875Y18382513D01*
X19579867Y18287872D01*
X19571367Y18269258D01*
X19529994Y18224181D01*
X19470027Y18212032D01*
X19414371Y18237450D01*
X19384285Y18290727D01*
X19383322Y18296297D01*
X19372157Y18373952D01*
X19372156Y18373954D01*
X19372156Y18373956D01*
X19320133Y18487870D01*
X19238124Y18582513D01*
X19238124Y18582514D01*
X19132774Y18650218D01*
X19012616Y18685500D01*
X19012615Y18685500D01*
X18940537Y18685500D01*
X18882346Y18704407D01*
X18846382Y18753907D01*
X18846382Y18815093D01*
X18865718Y18849331D01*
X18908692Y18898927D01*
X18920133Y18912130D01*
X18972156Y19026044D01*
X18972506Y19028477D01*
X18989978Y19149998D01*
X18989978Y19150003D01*
X18982790Y19199998D01*
X19510022Y19199998D01*
X19527842Y19076049D01*
X19527843Y19076047D01*
X19527843Y19076046D01*
X19527844Y19076044D01*
X19579867Y18962130D01*
X19579868Y18962129D01*
X19661875Y18867488D01*
X19661875Y18867487D01*
X19748013Y18812130D01*
X19767227Y18799782D01*
X19887385Y18764500D01*
X19887386Y18764500D01*
X20012614Y18764500D01*
X20012615Y18764500D01*
X20132773Y18799782D01*
X20238124Y18867487D01*
X20320133Y18962130D01*
X20372156Y19076044D01*
X20376389Y19105486D01*
X20389978Y19199998D01*
X20389978Y19200003D01*
X20372157Y19323952D01*
X20372156Y19323954D01*
X20372156Y19323956D01*
X20320133Y19437870D01*
X20238124Y19532513D01*
X20238124Y19532514D01*
X20132774Y19600218D01*
X20012616Y19635500D01*
X20012615Y19635500D01*
X19887385Y19635500D01*
X19887383Y19635500D01*
X19767225Y19600218D01*
X19661875Y19532514D01*
X19661875Y19532513D01*
X19579868Y19437872D01*
X19527843Y19323954D01*
X19527842Y19323952D01*
X19510022Y19200003D01*
X19510022Y19199998D01*
X18982790Y19199998D01*
X18972157Y19273952D01*
X18972156Y19273954D01*
X18972156Y19273956D01*
X18920133Y19387870D01*
X18838124Y19482513D01*
X18838124Y19482514D01*
X18732774Y19550218D01*
X18612616Y19585500D01*
X18612615Y19585500D01*
X18487385Y19585500D01*
X18487383Y19585500D01*
X18367225Y19550218D01*
X18261875Y19482514D01*
X18261875Y19482513D01*
X18179868Y19387872D01*
X18127843Y19273954D01*
X18127842Y19273952D01*
X18110022Y19150003D01*
X18110022Y19149998D01*
X18127842Y19026049D01*
X18127843Y19026047D01*
X18127843Y19026046D01*
X18127844Y19026044D01*
X18179867Y18912130D01*
X18191308Y18898927D01*
X18261875Y18817488D01*
X18261875Y18817487D01*
X18367225Y18749783D01*
X18367227Y18749782D01*
X18487385Y18714500D01*
X18487386Y18714500D01*
X18559463Y18714500D01*
X18617654Y18695593D01*
X18653618Y18646093D01*
X18653618Y18584907D01*
X18634282Y18550669D01*
X18579868Y18487873D01*
X18527843Y18373954D01*
X18527842Y18373952D01*
X18510022Y18250003D01*
X18510022Y18249998D01*
X18527842Y18126049D01*
X18527844Y18126041D01*
X18562286Y18050626D01*
X18569261Y17989840D01*
X18539174Y17936563D01*
X18483518Y17911145D01*
X18472233Y17910500D01*
X15823644Y17910500D01*
X15770121Y17926216D01*
X15734737Y17948956D01*
X15732772Y17950219D01*
X15612616Y17985500D01*
X15612615Y17985500D01*
X15487385Y17985500D01*
X15487383Y17985500D01*
X15367225Y17950218D01*
X15261875Y17882514D01*
X15261875Y17882513D01*
X15179867Y17787871D01*
X15152209Y17727309D01*
X15110837Y17682232D01*
X15050870Y17670081D01*
X14995214Y17695499D01*
X14992152Y17698432D01*
X14881419Y17809165D01*
X14869106Y17824170D01*
X14859993Y17837809D01*
X14848343Y17845593D01*
X14793087Y17882514D01*
X14773826Y17895384D01*
X14773825Y17895385D01*
X14773824Y17895385D01*
X14697836Y17910500D01*
X14672182Y17915603D01*
X14672181Y17915603D01*
X14656090Y17912402D01*
X14636776Y17910500D01*
X13698910Y17910500D01*
X13640719Y17929407D01*
X13628906Y17939496D01*
X13409736Y18158666D01*
X13381959Y18213183D01*
X13381748Y18242760D01*
X13389978Y18299999D01*
X13389978Y18300003D01*
X13372157Y18423952D01*
X13372156Y18423954D01*
X13372156Y18423956D01*
X13320133Y18537870D01*
X13238124Y18632513D01*
X13238124Y18632514D01*
X13132774Y18700218D01*
X13012616Y18735500D01*
X13012615Y18735500D01*
X12887385Y18735500D01*
X12887383Y18735500D01*
X12767226Y18700218D01*
X12738022Y18681450D01*
X12678846Y18665897D01*
X12621830Y18688096D01*
X12588752Y18739569D01*
X12585500Y18764735D01*
X12585500Y18840736D01*
X12604407Y18898927D01*
X12614497Y18910740D01*
X13039262Y19335504D01*
X13093778Y19363281D01*
X13109265Y19364500D01*
X13162614Y19364500D01*
X13162615Y19364500D01*
X13282773Y19399782D01*
X13388124Y19467487D01*
X13470133Y19562130D01*
X13522156Y19676044D01*
X13522640Y19679407D01*
X13539978Y19799998D01*
X13539978Y19800003D01*
X13522157Y19923952D01*
X13522156Y19923954D01*
X13522156Y19923956D01*
X13470133Y20037870D01*
X13388124Y20132513D01*
X13388124Y20132514D01*
X13282773Y20200219D01*
X13260044Y20206892D01*
X13209537Y20241428D01*
X13188975Y20299055D01*
X13191564Y20324545D01*
X13197592Y20350172D01*
X13199617Y20356714D01*
X13210500Y20384804D01*
X13210500Y20393568D01*
X13213130Y20416237D01*
X13215135Y20424760D01*
X13210975Y20454584D01*
X13210500Y20461431D01*
X13210500Y21102534D01*
X13229407Y21160725D01*
X13234671Y21167354D01*
X13295133Y21237130D01*
X13347156Y21351044D01*
X13349313Y21366047D01*
X13364978Y21474998D01*
X13364978Y21475003D01*
X13347157Y21598952D01*
X13347156Y21598954D01*
X13347156Y21598956D01*
X13295133Y21712870D01*
X13271330Y21740340D01*
X13217206Y21802803D01*
X13193388Y21859162D01*
X13207246Y21918757D01*
X13217197Y21932455D01*
X13278761Y22003502D01*
X13330784Y22117416D01*
X13330794Y22117487D01*
X13349614Y22248380D01*
X13352312Y22247993D01*
X13367513Y22294776D01*
X13377602Y22306589D01*
X14431518Y23360504D01*
X14486035Y23388281D01*
X14501522Y23389500D01*
X14864832Y23389500D01*
X14923023Y23370593D01*
X14958987Y23321093D01*
X14958987Y23259907D01*
X14954885Y23249373D01*
X14947843Y23233956D01*
X14947842Y23233952D01*
X14930022Y23110003D01*
X14930022Y23109998D01*
X14947842Y22986049D01*
X14947843Y22986047D01*
X14947843Y22986046D01*
X14947844Y22986044D01*
X14995759Y22881126D01*
X15002733Y22820340D01*
X14995759Y22798877D01*
X14988287Y22782513D01*
X14947843Y22693954D01*
X14947842Y22693952D01*
X14930022Y22570003D01*
X14930022Y22569998D01*
X14947842Y22446049D01*
X14947843Y22446047D01*
X14947843Y22446046D01*
X14947844Y22446044D01*
X14995759Y22341126D01*
X15002733Y22280340D01*
X14995759Y22258877D01*
X14987767Y22241375D01*
X14947843Y22153954D01*
X14947842Y22153952D01*
X14930022Y22030003D01*
X14930022Y22029998D01*
X14947842Y21906049D01*
X14947843Y21906047D01*
X14947843Y21906046D01*
X14947844Y21906044D01*
X14995759Y21801126D01*
X15002733Y21740340D01*
X14995759Y21718877D01*
X14993018Y21712873D01*
X14947843Y21613954D01*
X14947842Y21613952D01*
X14930022Y21490003D01*
X14930022Y21489998D01*
X14947842Y21366049D01*
X14947843Y21366047D01*
X14947843Y21366046D01*
X14947844Y21366044D01*
X14995759Y21261126D01*
X15002733Y21200340D01*
X14995759Y21178877D01*
X14979141Y21142487D01*
X14947843Y21073954D01*
X14947842Y21073952D01*
X14930022Y20950003D01*
X14930022Y20949998D01*
X14947842Y20826049D01*
X14947843Y20826047D01*
X14947843Y20826046D01*
X14947844Y20826044D01*
X14995759Y20721126D01*
X15002733Y20660340D01*
X14995759Y20638877D01*
X14988946Y20623956D01*
X14947843Y20533954D01*
X14947842Y20533952D01*
X14930022Y20410003D01*
X14930022Y20409998D01*
X14947842Y20286049D01*
X14947843Y20286047D01*
X14947843Y20286046D01*
X14947844Y20286044D01*
X14983992Y20206892D01*
X14995759Y20181126D01*
X15002733Y20120340D01*
X14995759Y20098877D01*
X14983163Y20071293D01*
X14947843Y19993954D01*
X14947842Y19993952D01*
X14930022Y19870003D01*
X14930022Y19869998D01*
X14947842Y19746049D01*
X14947843Y19746047D01*
X14947843Y19746046D01*
X14947844Y19746044D01*
X14995651Y19641362D01*
X14995759Y19641126D01*
X15002733Y19580340D01*
X14995759Y19558877D01*
X14983720Y19532513D01*
X14947843Y19453954D01*
X14947842Y19453952D01*
X14930022Y19330003D01*
X14930022Y19329998D01*
X14947842Y19206049D01*
X14947843Y19206047D01*
X14947843Y19206046D01*
X14947844Y19206044D01*
X14999867Y19092130D01*
X15015936Y19073585D01*
X15081875Y18997488D01*
X15081875Y18997487D01*
X15187225Y18929783D01*
X15187227Y18929782D01*
X15307385Y18894500D01*
X15307386Y18894500D01*
X15377760Y18894500D01*
X15435951Y18875593D01*
X15467813Y18836628D01*
X15469867Y18832129D01*
X15551875Y18737488D01*
X15551875Y18737487D01*
X15656858Y18670019D01*
X15657227Y18669782D01*
X15777385Y18634500D01*
X15777386Y18634500D01*
X15902614Y18634500D01*
X15902615Y18634500D01*
X16022773Y18669782D01*
X16128124Y18737487D01*
X16210133Y18832130D01*
X16212186Y18836627D01*
X16253555Y18881703D01*
X16302239Y18894500D01*
X16303193Y18894500D01*
X16361384Y18875593D01*
X16393246Y18836627D01*
X16399867Y18822130D01*
X16399866Y18822130D01*
X16481875Y18727488D01*
X16481875Y18727487D01*
X16587225Y18659783D01*
X16587227Y18659782D01*
X16707385Y18624500D01*
X16707386Y18624500D01*
X16832614Y18624500D01*
X16832615Y18624500D01*
X16952773Y18659782D01*
X17058124Y18727487D01*
X17140133Y18822130D01*
X17144700Y18832130D01*
X17146754Y18836627D01*
X17188127Y18881705D01*
X17236807Y18894500D01*
X17292614Y18894500D01*
X17292615Y18894500D01*
X17412773Y18929782D01*
X17518124Y18997487D01*
X17600133Y19092130D01*
X17652156Y19206044D01*
X17656590Y19236884D01*
X17669978Y19329998D01*
X17669978Y19330003D01*
X17652157Y19453952D01*
X17652156Y19453954D01*
X17652156Y19453956D01*
X17600133Y19567870D01*
X17518124Y19662513D01*
X17518124Y19662514D01*
X17412774Y19730218D01*
X17292616Y19765500D01*
X17292615Y19765500D01*
X17236807Y19765500D01*
X17178616Y19784407D01*
X17146754Y19823373D01*
X17143592Y19830295D01*
X17140133Y19837870D01*
X17140132Y19837871D01*
X17140133Y19837871D01*
X17058124Y19932513D01*
X17058124Y19932514D01*
X16952774Y20000218D01*
X16832616Y20035500D01*
X16832615Y20035500D01*
X16776807Y20035500D01*
X16718616Y20054407D01*
X16686758Y20093363D01*
X16685097Y20097000D01*
X16684244Y20098867D01*
X16677264Y20159650D01*
X16684237Y20181119D01*
X16732156Y20286044D01*
X16735243Y20307514D01*
X16749978Y20409998D01*
X16749978Y20410003D01*
X16737039Y20499998D01*
X18110022Y20499998D01*
X18127842Y20376049D01*
X18127843Y20376047D01*
X18127843Y20376046D01*
X18127844Y20376044D01*
X18179867Y20262130D01*
X18198209Y20240962D01*
X18261875Y20167488D01*
X18261875Y20167487D01*
X18367225Y20099783D01*
X18367227Y20099782D01*
X18487385Y20064500D01*
X18487386Y20064500D01*
X18612614Y20064500D01*
X18612615Y20064500D01*
X18732773Y20099782D01*
X18838124Y20167487D01*
X18920133Y20262130D01*
X18972156Y20376044D01*
X18972157Y20376049D01*
X18989978Y20499998D01*
X19510022Y20499998D01*
X19527842Y20376049D01*
X19527843Y20376047D01*
X19527843Y20376046D01*
X19527844Y20376044D01*
X19579867Y20262130D01*
X19598209Y20240962D01*
X19661875Y20167488D01*
X19661875Y20167487D01*
X19767225Y20099783D01*
X19767227Y20099782D01*
X19887385Y20064500D01*
X19887386Y20064500D01*
X20012614Y20064500D01*
X20012615Y20064500D01*
X20132773Y20099782D01*
X20238124Y20167487D01*
X20320133Y20262130D01*
X20372156Y20376044D01*
X20372157Y20376049D01*
X20389978Y20499998D01*
X20389978Y20500003D01*
X20372157Y20623952D01*
X20372156Y20623954D01*
X20372156Y20623956D01*
X20320133Y20737870D01*
X20238124Y20832513D01*
X20238124Y20832514D01*
X20132774Y20900218D01*
X20012616Y20935500D01*
X20012615Y20935500D01*
X19887385Y20935500D01*
X19887383Y20935500D01*
X19767225Y20900218D01*
X19661875Y20832514D01*
X19661875Y20832513D01*
X19579868Y20737872D01*
X19527843Y20623954D01*
X19527842Y20623952D01*
X19510022Y20500003D01*
X19510022Y20499998D01*
X18989978Y20499998D01*
X18989978Y20500003D01*
X18972157Y20623952D01*
X18972156Y20623954D01*
X18972156Y20623956D01*
X18920133Y20737870D01*
X18838124Y20832513D01*
X18838124Y20832514D01*
X18732774Y20900218D01*
X18612616Y20935500D01*
X18612615Y20935500D01*
X18487385Y20935500D01*
X18487383Y20935500D01*
X18367225Y20900218D01*
X18261875Y20832514D01*
X18261875Y20832513D01*
X18179868Y20737872D01*
X18127843Y20623954D01*
X18127842Y20623952D01*
X18110022Y20500003D01*
X18110022Y20499998D01*
X16737039Y20499998D01*
X16732157Y20533952D01*
X16732156Y20533954D01*
X16732156Y20533956D01*
X16684240Y20638876D01*
X16677266Y20699660D01*
X16684241Y20721126D01*
X16732156Y20826044D01*
X16733086Y20832513D01*
X16749978Y20949998D01*
X16749978Y20950003D01*
X16732157Y21073952D01*
X16732156Y21073954D01*
X16732156Y21073956D01*
X16684240Y21178876D01*
X16677266Y21239660D01*
X16684241Y21261126D01*
X16732156Y21366044D01*
X16746741Y21467487D01*
X16749978Y21489998D01*
X16749978Y21490003D01*
X16732157Y21613952D01*
X16732156Y21613954D01*
X16732156Y21613956D01*
X16684240Y21718876D01*
X16677266Y21779660D01*
X16683874Y21799998D01*
X18110022Y21799998D01*
X18127842Y21676049D01*
X18127843Y21676047D01*
X18127843Y21676046D01*
X18127844Y21676044D01*
X18179867Y21562130D01*
X18179868Y21562129D01*
X18261875Y21467488D01*
X18261875Y21467487D01*
X18367225Y21399783D01*
X18367227Y21399782D01*
X18487385Y21364500D01*
X18487386Y21364500D01*
X18612614Y21364500D01*
X18612615Y21364500D01*
X18732773Y21399782D01*
X18838124Y21467487D01*
X18920133Y21562130D01*
X18972156Y21676044D01*
X18978314Y21718874D01*
X18989978Y21799998D01*
X19510022Y21799998D01*
X19527842Y21676049D01*
X19527843Y21676047D01*
X19527843Y21676046D01*
X19527844Y21676044D01*
X19579867Y21562130D01*
X19579868Y21562129D01*
X19661875Y21467488D01*
X19661875Y21467487D01*
X19767225Y21399783D01*
X19767227Y21399782D01*
X19887385Y21364500D01*
X19887386Y21364500D01*
X20012614Y21364500D01*
X20012615Y21364500D01*
X20132773Y21399782D01*
X20238124Y21467487D01*
X20320133Y21562130D01*
X20372156Y21676044D01*
X20378314Y21718874D01*
X20389978Y21799998D01*
X20389978Y21800003D01*
X20372157Y21923952D01*
X20372156Y21923954D01*
X20372156Y21923956D01*
X20320133Y22037870D01*
X20238124Y22132513D01*
X20238124Y22132514D01*
X20132774Y22200218D01*
X20012616Y22235500D01*
X20012615Y22235500D01*
X19887385Y22235500D01*
X19887383Y22235500D01*
X19767225Y22200218D01*
X19661875Y22132514D01*
X19661875Y22132513D01*
X19579868Y22037872D01*
X19527843Y21923954D01*
X19527842Y21923952D01*
X19510022Y21800003D01*
X19510022Y21799998D01*
X18989978Y21799998D01*
X18989978Y21800003D01*
X18972157Y21923952D01*
X18972156Y21923954D01*
X18972156Y21923956D01*
X18920133Y22037870D01*
X18838124Y22132513D01*
X18838124Y22132514D01*
X18732774Y22200218D01*
X18612616Y22235500D01*
X18612615Y22235500D01*
X18487385Y22235500D01*
X18487383Y22235500D01*
X18367225Y22200218D01*
X18261875Y22132514D01*
X18261875Y22132513D01*
X18179868Y22037872D01*
X18127843Y21923954D01*
X18127842Y21923952D01*
X18110022Y21800003D01*
X18110022Y21799998D01*
X16683874Y21799998D01*
X16684241Y21801126D01*
X16732156Y21906044D01*
X16734731Y21923954D01*
X16749978Y22029998D01*
X16749978Y22030003D01*
X16732157Y22153952D01*
X16732156Y22153954D01*
X16732156Y22153956D01*
X16684240Y22258876D01*
X16677266Y22319660D01*
X16684241Y22341126D01*
X16732156Y22446044D01*
X16732157Y22446049D01*
X16749978Y22569998D01*
X16749978Y22570003D01*
X16732157Y22693952D01*
X16732156Y22693954D01*
X16732156Y22693956D01*
X16684240Y22798876D01*
X16677266Y22859660D01*
X16684241Y22881126D01*
X16732156Y22986044D01*
X16732157Y22986049D01*
X16749978Y23109998D01*
X16749978Y23110003D01*
X16732157Y23233952D01*
X16732156Y23233956D01*
X16725115Y23249373D01*
X16718140Y23310159D01*
X16748226Y23363437D01*
X16803882Y23388855D01*
X16815168Y23389500D01*
X19537801Y23389500D01*
X19595992Y23370593D01*
X19631956Y23321093D01*
X19631956Y23259907D01*
X19612621Y23225671D01*
X19590190Y23199783D01*
X19579867Y23187870D01*
X19527843Y23073954D01*
X19527842Y23073952D01*
X19510022Y22950003D01*
X19510022Y22949998D01*
X19527842Y22826049D01*
X19527843Y22826047D01*
X19527843Y22826046D01*
X19527844Y22826044D01*
X19579867Y22712130D01*
X19579868Y22712129D01*
X19661875Y22617488D01*
X19661875Y22617487D01*
X19735767Y22570000D01*
X19767227Y22549782D01*
X19887385Y22514500D01*
X19887386Y22514500D01*
X20012614Y22514500D01*
X20012615Y22514500D01*
X20132773Y22549782D01*
X20238124Y22617487D01*
X20320133Y22712130D01*
X20372156Y22826044D01*
X20380076Y22881127D01*
X20389978Y22949998D01*
X20389978Y22950003D01*
X20372157Y23073952D01*
X20372156Y23073954D01*
X20372156Y23073956D01*
X20320133Y23187870D01*
X20287379Y23225670D01*
X20263562Y23282028D01*
X20277420Y23341623D01*
X20323661Y23381691D01*
X20362199Y23389500D01*
X21365949Y23389500D01*
X21372796Y23389025D01*
X21384870Y23387341D01*
X21384873Y23387340D01*
X21384875Y23387341D01*
X21384876Y23387340D01*
X21408740Y23388444D01*
X21430445Y23389448D01*
X21432726Y23389500D01*
X21451448Y23389500D01*
X21451454Y23389500D01*
X21454602Y23390089D01*
X21461402Y23390880D01*
X21491497Y23392270D01*
X21499506Y23395807D01*
X21521306Y23402559D01*
X21529921Y23404168D01*
X21555523Y23420022D01*
X21561580Y23423215D01*
X21589141Y23435383D01*
X21595337Y23441581D01*
X21613223Y23455748D01*
X21620672Y23460359D01*
X21638824Y23484399D01*
X21643314Y23489558D01*
X21889261Y23735504D01*
X21943778Y23763281D01*
X21959265Y23764500D01*
X22012614Y23764500D01*
X22012615Y23764500D01*
X22132773Y23799782D01*
X22238124Y23867487D01*
X22320133Y23962130D01*
X22372156Y24076044D01*
X22372157Y24076049D01*
X22389978Y24199998D01*
X22389978Y24200003D01*
X22372157Y24323952D01*
X22372156Y24323954D01*
X22372156Y24323956D01*
X22320133Y24437870D01*
X22238124Y24532513D01*
X22238124Y24532514D01*
X22132774Y24600218D01*
X22012616Y24635500D01*
X22012615Y24635500D01*
X21887385Y24635500D01*
X21887383Y24635500D01*
X21767225Y24600218D01*
X21661875Y24532514D01*
X21659313Y24529556D01*
X21606914Y24497965D01*
X21545953Y24503206D01*
X21499716Y24543278D01*
X21485499Y24594391D01*
X21485499Y24814000D01*
X23608357Y24814000D01*
X23628885Y24592464D01*
X23689771Y24378472D01*
X23788942Y24179311D01*
X23923019Y24001764D01*
X24087438Y23851876D01*
X24276599Y23734753D01*
X24484060Y23654382D01*
X24702757Y23613500D01*
X24925243Y23613500D01*
X25143940Y23654382D01*
X25351401Y23734753D01*
X25540562Y23851876D01*
X25704981Y24001764D01*
X25839058Y24179311D01*
X25938229Y24378472D01*
X25999115Y24592464D01*
X26019643Y24814000D01*
X25999115Y25035536D01*
X25938229Y25249528D01*
X25839058Y25448689D01*
X25704981Y25626236D01*
X25540562Y25776124D01*
X25351401Y25893247D01*
X25143940Y25973618D01*
X25143939Y25973619D01*
X25143937Y25973619D01*
X24925243Y26014500D01*
X24702757Y26014500D01*
X24484062Y25973619D01*
X24407797Y25944074D01*
X24276599Y25893247D01*
X24141260Y25809449D01*
X24087438Y25776124D01*
X23923020Y25626237D01*
X23788943Y25448691D01*
X23788938Y25448682D01*
X23689772Y25249531D01*
X23689771Y25249528D01*
X23628885Y25035536D01*
X23608357Y24814000D01*
X21485499Y24814000D01*
X21485499Y26557198D01*
X21482775Y26586258D01*
X21454240Y26667803D01*
X21452868Y26728972D01*
X21487711Y26779266D01*
X21545463Y26799475D01*
X21547685Y26799500D01*
X24774118Y26799500D01*
X24812380Y26799500D01*
X24815616Y26799395D01*
G37*
%TD.AperFunction*%
%TA.AperFunction,Conductor*%
G36*
X13266081Y11395593D02*
G01*
X13302045Y11346093D01*
X13302045Y11284907D01*
X13266081Y11235407D01*
X13261975Y11232600D01*
X13261875Y11232513D01*
X13179868Y11137872D01*
X13127843Y11023954D01*
X13127842Y11023952D01*
X13110022Y10900003D01*
X13110022Y10899998D01*
X13127842Y10776049D01*
X13127843Y10776047D01*
X13127843Y10776046D01*
X13127844Y10776044D01*
X13179867Y10662130D01*
X13240319Y10592365D01*
X13264137Y10536006D01*
X13264500Y10527534D01*
X13264500Y8183470D01*
X13245593Y8125279D01*
X13196093Y8089315D01*
X13137608Y8088480D01*
X13062616Y8110500D01*
X13062615Y8110500D01*
X12937385Y8110500D01*
X12937383Y8110500D01*
X12817225Y8075218D01*
X12711875Y8007514D01*
X12711875Y8007513D01*
X12635758Y7919669D01*
X12583362Y7888073D01*
X12560939Y7885500D01*
X12534041Y7885500D01*
X12527193Y7885975D01*
X12515124Y7887660D01*
X12476632Y7885880D01*
X12469565Y7885553D01*
X12467289Y7885500D01*
X12448546Y7885500D01*
X12448532Y7885499D01*
X12445380Y7884910D01*
X12438575Y7884121D01*
X12408500Y7882730D01*
X12400482Y7879190D01*
X12378698Y7872444D01*
X12370082Y7870833D01*
X12370076Y7870831D01*
X12344472Y7854979D01*
X12338405Y7851781D01*
X12310858Y7839617D01*
X12310857Y7839617D01*
X12304660Y7833419D01*
X12286781Y7819257D01*
X12279327Y7814642D01*
X12261180Y7790611D01*
X12256675Y7785435D01*
X12033370Y7562128D01*
X11835739Y7364497D01*
X11781222Y7336719D01*
X11765735Y7335500D01*
X11039184Y7335500D01*
X10980993Y7354407D01*
X10945029Y7403907D01*
X10945029Y7465093D01*
X10949131Y7475627D01*
X10960261Y7499998D01*
X10972156Y7526044D01*
X10973497Y7535372D01*
X10989978Y7649998D01*
X10989978Y7650003D01*
X10972157Y7773952D01*
X10972156Y7773954D01*
X10972156Y7773956D01*
X10920133Y7887870D01*
X10838124Y7982513D01*
X10838124Y7982514D01*
X10732774Y8050218D01*
X10612616Y8085500D01*
X10612615Y8085500D01*
X10487385Y8085500D01*
X10487383Y8085500D01*
X10367225Y8050218D01*
X10261875Y7982514D01*
X10261875Y7982513D01*
X10179867Y7887871D01*
X10152209Y7827310D01*
X10110836Y7782232D01*
X10050869Y7770082D01*
X9995214Y7795501D01*
X9992152Y7798433D01*
X9724631Y8065954D01*
X9696854Y8120471D01*
X9706425Y8180903D01*
X9749690Y8224168D01*
X9756342Y8226813D01*
X9756330Y8226839D01*
X9762770Y8229782D01*
X9762773Y8229782D01*
X9868124Y8297487D01*
X9902326Y8336959D01*
X9954719Y8368554D01*
X10015680Y8363319D01*
X10030660Y8355416D01*
X10117227Y8299782D01*
X10237385Y8264500D01*
X10237386Y8264500D01*
X10362614Y8264500D01*
X10362615Y8264500D01*
X10482773Y8299782D01*
X10588124Y8367487D01*
X10670133Y8462130D01*
X10722156Y8576044D01*
X10722157Y8576049D01*
X10739978Y8699998D01*
X10739978Y8700003D01*
X10722157Y8823952D01*
X10722156Y8823954D01*
X10722156Y8823956D01*
X10670133Y8937870D01*
X10670131Y8937872D01*
X10670131Y8937873D01*
X10609681Y9007636D01*
X10585863Y9063995D01*
X10585500Y9072467D01*
X10585500Y9971734D01*
X10604407Y10029925D01*
X10653907Y10065889D01*
X10715093Y10065889D01*
X10754504Y10041738D01*
X11585819Y9210423D01*
X11613596Y9155906D01*
X11613807Y9126331D01*
X11610022Y9100004D01*
X11610022Y9099998D01*
X11627842Y8976049D01*
X11627843Y8976047D01*
X11627843Y8976046D01*
X11627844Y8976044D01*
X11679867Y8862130D01*
X11719627Y8816245D01*
X11761875Y8767488D01*
X11761875Y8767487D01*
X11867225Y8699783D01*
X11867227Y8699782D01*
X11987385Y8664500D01*
X11987386Y8664500D01*
X12112614Y8664500D01*
X12112615Y8664500D01*
X12232773Y8699782D01*
X12338124Y8767487D01*
X12420133Y8862130D01*
X12472156Y8976044D01*
X12476698Y9007636D01*
X12489978Y9099998D01*
X12489978Y9100003D01*
X12472157Y9223952D01*
X12472156Y9223954D01*
X12472156Y9223956D01*
X12420133Y9337870D01*
X12338124Y9432513D01*
X12338124Y9432514D01*
X12232774Y9500218D01*
X12112616Y9535500D01*
X12112615Y9535500D01*
X12109266Y9535500D01*
X12106609Y9536364D01*
X12105609Y9536507D01*
X12105633Y9536681D01*
X12051075Y9554407D01*
X12039262Y9564496D01*
X10946591Y10657167D01*
X10918814Y10711684D01*
X10928385Y10772116D01*
X10971650Y10815381D01*
X10988699Y10822160D01*
X11082773Y10849782D01*
X11188124Y10917487D01*
X11270133Y11012130D01*
X11322156Y11126044D01*
X11322157Y11126049D01*
X11340986Y11257008D01*
X11343683Y11256621D01*
X11358885Y11303405D01*
X11368975Y11315218D01*
X11439262Y11385504D01*
X11493779Y11413281D01*
X11509265Y11414500D01*
X13207890Y11414500D01*
X13266081Y11395593D01*
G37*
%TD.AperFunction*%
%TA.AperFunction,Conductor*%
G36*
X3057101Y14219775D02*
G01*
X3100366Y14176510D01*
X3102209Y14172691D01*
X3129865Y14112132D01*
X3129866Y14112130D01*
X3211875Y14017488D01*
X3211875Y14017487D01*
X3317225Y13949783D01*
X3317227Y13949782D01*
X3331773Y13945511D01*
X3375943Y13932541D01*
X3426450Y13898005D01*
X3447011Y13840377D01*
X3438105Y13796427D01*
X3427845Y13773960D01*
X3427842Y13773952D01*
X3410022Y13650003D01*
X3410022Y13649998D01*
X3427842Y13526049D01*
X3427843Y13526047D01*
X3427843Y13526046D01*
X3427844Y13526044D01*
X3479867Y13412130D01*
X3479868Y13412129D01*
X3546267Y13335500D01*
X3561876Y13317487D01*
X3585777Y13302127D01*
X3624508Y13254762D01*
X3628002Y13193677D01*
X3622308Y13177717D01*
X3572465Y13068576D01*
X3572464Y13068574D01*
X3554644Y12944625D01*
X3554644Y12944620D01*
X3572464Y12820671D01*
X3572465Y12820669D01*
X3572465Y12820668D01*
X3572466Y12820666D01*
X3624489Y12706752D01*
X3658181Y12667870D01*
X3706497Y12612110D01*
X3706497Y12612109D01*
X3796052Y12554556D01*
X3811849Y12544404D01*
X3932007Y12509122D01*
X3932008Y12509122D01*
X4057236Y12509122D01*
X4057237Y12509122D01*
X4057238Y12509123D01*
X4057242Y12509123D01*
X4113661Y12525690D01*
X4174821Y12523944D01*
X4211558Y12500705D01*
X4985504Y11726759D01*
X5013281Y11672242D01*
X5014500Y11656755D01*
X5014500Y10993789D01*
X4995593Y10935598D01*
X4946093Y10899634D01*
X4887609Y10898799D01*
X4762618Y10935500D01*
X4762615Y10935500D01*
X4637385Y10935500D01*
X4637383Y10935500D01*
X4517225Y10900218D01*
X4411875Y10832514D01*
X4411875Y10832513D01*
X4329868Y10737872D01*
X4329867Y10737871D01*
X4329867Y10737870D01*
X4308530Y10691148D01*
X4277843Y10623954D01*
X4277842Y10623952D01*
X4260022Y10500003D01*
X4260022Y10499998D01*
X4277842Y10376049D01*
X4277843Y10376047D01*
X4277843Y10376046D01*
X4277844Y10376044D01*
X4329867Y10262130D01*
X4345157Y10244484D01*
X4411875Y10167488D01*
X4411875Y10167487D01*
X4515017Y10101202D01*
X4517227Y10099782D01*
X4637385Y10064500D01*
X4637386Y10064500D01*
X4762614Y10064500D01*
X4762615Y10064500D01*
X4882773Y10099782D01*
X4882773Y10099783D01*
X4887608Y10101202D01*
X4948768Y10099455D01*
X4997221Y10062092D01*
X5014500Y10006212D01*
X5014500Y9723230D01*
X5014025Y9716386D01*
X5012339Y9704302D01*
X5014447Y9658736D01*
X5014500Y9656449D01*
X5014500Y9637718D01*
X5015088Y9634571D01*
X5015879Y9627755D01*
X5017269Y9597680D01*
X5017269Y9597678D01*
X5017270Y9597676D01*
X5020810Y9589658D01*
X5027557Y9567871D01*
X5029168Y9559250D01*
X5029169Y9559248D01*
X5045016Y9533657D01*
X5048217Y9527585D01*
X5052676Y9517487D01*
X5060383Y9500032D01*
X5066584Y9493831D01*
X5080746Y9475951D01*
X5085359Y9468501D01*
X5085360Y9468500D01*
X5089159Y9464333D01*
X5114392Y9408592D01*
X5115000Y9397634D01*
X5115000Y9246593D01*
X5096093Y9188402D01*
X5086007Y9176593D01*
X5079414Y9170000D01*
X5077601Y9167354D01*
X5073345Y9161981D01*
X5053060Y9139731D01*
X5053057Y9139726D01*
X5049890Y9131550D01*
X5039257Y9111377D01*
X5034303Y9104145D01*
X5034302Y9104144D01*
X5027408Y9074835D01*
X5025379Y9068282D01*
X5014500Y9040197D01*
X5014500Y9031432D01*
X5011870Y9008764D01*
X5009865Y9000241D01*
X5014025Y8970418D01*
X5014500Y8963572D01*
X5014499Y7678267D01*
X4995592Y7620076D01*
X4946092Y7584112D01*
X4884906Y7584112D01*
X4845495Y7608263D01*
X4293628Y8160131D01*
X4289122Y8165309D01*
X4281780Y8175032D01*
X4254427Y8199968D01*
X4248068Y8205765D01*
X4246421Y8207338D01*
X4233175Y8220583D01*
X4233167Y8220590D01*
X4230520Y8222404D01*
X4225150Y8226658D01*
X4215450Y8235500D01*
X4202900Y8246941D01*
X4202896Y8246943D01*
X4202894Y8246944D01*
X4194725Y8250109D01*
X4174551Y8260742D01*
X4169978Y8263874D01*
X4167317Y8265697D01*
X4167316Y8265698D01*
X4167315Y8265698D01*
X4138004Y8272593D01*
X4131450Y8274622D01*
X4103373Y8285499D01*
X4103370Y8285500D01*
X4103369Y8285500D01*
X4103367Y8285500D01*
X4094605Y8285500D01*
X4071938Y8288130D01*
X4063413Y8290135D01*
X4033590Y8285975D01*
X4026744Y8285500D01*
X3674072Y8285500D01*
X3615881Y8304407D01*
X3599253Y8319669D01*
X3588124Y8332513D01*
X3588121Y8332515D01*
X3588119Y8332517D01*
X3482772Y8400219D01*
X3476330Y8403161D01*
X3477326Y8405344D01*
X3435859Y8433704D01*
X3415302Y8491333D01*
X3432545Y8550038D01*
X3441090Y8560837D01*
X3455803Y8576977D01*
X3457317Y8578562D01*
X3470584Y8591827D01*
X3472396Y8594474D01*
X3476651Y8599844D01*
X3492736Y8617487D01*
X3496941Y8622100D01*
X3500106Y8630270D01*
X3510750Y8650462D01*
X3515696Y8657682D01*
X3515695Y8657682D01*
X3515697Y8657683D01*
X3522593Y8687006D01*
X3524617Y8693541D01*
X3535500Y8721631D01*
X3535500Y8730395D01*
X3538130Y8753064D01*
X3538868Y8756201D01*
X3540135Y8761587D01*
X3535975Y8791411D01*
X3535500Y8798258D01*
X3535500Y9227534D01*
X3554407Y9285725D01*
X3559671Y9292354D01*
X3620133Y9362130D01*
X3672156Y9476044D01*
X3672518Y9478562D01*
X3689978Y9599998D01*
X3689978Y9600003D01*
X3672157Y9723952D01*
X3672156Y9723954D01*
X3672156Y9723956D01*
X3620133Y9837870D01*
X3538124Y9932513D01*
X3538124Y9932514D01*
X3432774Y10000218D01*
X3312616Y10035500D01*
X3312615Y10035500D01*
X3187385Y10035500D01*
X3187381Y10035500D01*
X3062391Y9998799D01*
X3001231Y10000546D01*
X2952778Y10037909D01*
X2935500Y10093789D01*
X2935500Y10905607D01*
X2954407Y10963798D01*
X3003907Y10999762D01*
X3065093Y10999762D01*
X3109322Y10970435D01*
X3111877Y10967486D01*
X3217225Y10899783D01*
X3217227Y10899782D01*
X3337385Y10864500D01*
X3337386Y10864500D01*
X3462614Y10864500D01*
X3462615Y10864500D01*
X3582773Y10899782D01*
X3688124Y10967487D01*
X3770133Y11062130D01*
X3822156Y11176044D01*
X3822157Y11176049D01*
X3839978Y11299998D01*
X3839978Y11300003D01*
X3822157Y11423952D01*
X3822156Y11423954D01*
X3822156Y11423956D01*
X3770133Y11537870D01*
X3688124Y11632513D01*
X3688124Y11632514D01*
X3582774Y11700218D01*
X3462616Y11735500D01*
X3462615Y11735500D01*
X3337385Y11735500D01*
X3337383Y11735500D01*
X3217225Y11700218D01*
X3111876Y11632514D01*
X3109318Y11629561D01*
X3056921Y11597966D01*
X2995961Y11603203D01*
X2949720Y11643272D01*
X2935500Y11694394D01*
X2935500Y12127776D01*
X2935975Y12134623D01*
X2937659Y12146698D01*
X2937660Y12146700D01*
X2937507Y12150000D01*
X2935789Y12187176D01*
X2935552Y12192283D01*
X2935500Y12194563D01*
X2935500Y12213278D01*
X2935499Y12213284D01*
X2935271Y12214501D01*
X2934912Y12216424D01*
X2934121Y12223234D01*
X2932731Y12253324D01*
X2929189Y12261346D01*
X2922440Y12283144D01*
X2920832Y12291748D01*
X2904980Y12317349D01*
X2901779Y12323422D01*
X2889617Y12350968D01*
X2889616Y12350969D01*
X2889616Y12350970D01*
X2883417Y12357169D01*
X2869251Y12375054D01*
X2864641Y12382499D01*
X2840614Y12400644D01*
X2835437Y12405149D01*
X2189496Y13051089D01*
X2161719Y13105606D01*
X2160500Y13121093D01*
X2160500Y13378908D01*
X2179407Y13437099D01*
X2189490Y13448906D01*
X2942154Y14201571D01*
X2996669Y14229346D01*
X3057101Y14219775D01*
G37*
%TD.AperFunction*%
%TA.AperFunction,Conductor*%
G36*
X9029038Y10925649D02*
G01*
X9075278Y10885582D01*
X9089500Y10834458D01*
X9089500Y10434057D01*
X9089025Y10427213D01*
X9087339Y10415129D01*
X9089447Y10369563D01*
X9089500Y10367276D01*
X9089500Y10348545D01*
X9090088Y10345398D01*
X9090879Y10338582D01*
X9092269Y10308507D01*
X9092269Y10308505D01*
X9092270Y10308503D01*
X9095810Y10300485D01*
X9102557Y10278698D01*
X9104168Y10270077D01*
X9104169Y10270075D01*
X9120016Y10244484D01*
X9123217Y10238412D01*
X9124015Y10236605D01*
X9135383Y10210859D01*
X9141584Y10204658D01*
X9155746Y10186778D01*
X9157279Y10184303D01*
X9160359Y10179328D01*
X9184380Y10161188D01*
X9189559Y10156682D01*
X9510503Y9835739D01*
X9538280Y9781222D01*
X9539499Y9765735D01*
X9539500Y9197438D01*
X9520593Y9139247D01*
X9510505Y9127436D01*
X9437828Y9054760D01*
X9403186Y9034206D01*
X9403665Y9033158D01*
X9397225Y9030218D01*
X9291874Y8962512D01*
X9209867Y8867871D01*
X9179074Y8800445D01*
X9137702Y8755368D01*
X9077735Y8743217D01*
X9022079Y8768635D01*
X9019017Y8771568D01*
X8947367Y8843218D01*
X8926314Y8883168D01*
X8924148Y8882328D01*
X8920832Y8890886D01*
X8904980Y8916487D01*
X8901779Y8922560D01*
X8899020Y8928809D01*
X8889617Y8950106D01*
X8889616Y8950107D01*
X8889616Y8950108D01*
X8883417Y8956307D01*
X8869251Y8974192D01*
X8864641Y8981637D01*
X8840614Y8999782D01*
X8835437Y9004287D01*
X7590519Y10249204D01*
X7562742Y10303721D01*
X7572313Y10364153D01*
X7615578Y10407418D01*
X7676010Y10416989D01*
X7686505Y10414627D01*
X7687384Y10414501D01*
X7687385Y10414500D01*
X7687386Y10414500D01*
X7812614Y10414500D01*
X7812615Y10414500D01*
X7932773Y10449782D01*
X8038124Y10517487D01*
X8120133Y10612130D01*
X8172156Y10726044D01*
X8180667Y10785245D01*
X8207662Y10840149D01*
X8261776Y10868703D01*
X8322338Y10859996D01*
X8332176Y10854441D01*
X8417227Y10799782D01*
X8537385Y10764500D01*
X8537386Y10764500D01*
X8662614Y10764500D01*
X8662615Y10764500D01*
X8782773Y10799782D01*
X8888124Y10867487D01*
X8915680Y10899289D01*
X8968077Y10930885D01*
X9029038Y10925649D01*
G37*
%TD.AperFunction*%
%TA.AperFunction,Conductor*%
G36*
X12738021Y17918552D02*
G01*
X12767227Y17899782D01*
X12887385Y17864500D01*
X12926090Y17864500D01*
X12984281Y17845593D01*
X12996094Y17835504D01*
X13340762Y17490836D01*
X13353071Y17475838D01*
X13362190Y17462190D01*
X13380105Y17450220D01*
X13440488Y17409873D01*
X13448355Y17404617D01*
X13448356Y17404616D01*
X13448358Y17404615D01*
X13550000Y17384397D01*
X13566092Y17387599D01*
X13585406Y17389500D01*
X14523272Y17389500D01*
X14581463Y17370593D01*
X14593275Y17360505D01*
X14866244Y17087535D01*
X15112946Y16840833D01*
X15125255Y16825835D01*
X15134372Y16812190D01*
X15134373Y16812190D01*
X15134374Y16812188D01*
X15162167Y16793617D01*
X15200046Y16745567D01*
X15202448Y16684429D01*
X15197219Y16670177D01*
X15157844Y16583957D01*
X15157842Y16583952D01*
X15140022Y16460003D01*
X15140022Y16459998D01*
X15157842Y16336049D01*
X15157843Y16336047D01*
X15157843Y16336046D01*
X15157844Y16336044D01*
X15209867Y16222130D01*
X15218062Y16212673D01*
X15291875Y16127488D01*
X15291875Y16127487D01*
X15393570Y16062132D01*
X15397227Y16059782D01*
X15517385Y16024500D01*
X15517386Y16024500D01*
X15642610Y16024500D01*
X15642615Y16024500D01*
X15642619Y16024502D01*
X15646928Y16025121D01*
X15707218Y16014690D01*
X15749862Y15970814D01*
X15757766Y15936829D01*
X15759014Y15937008D01*
X15777842Y15806049D01*
X15777843Y15806047D01*
X15777843Y15806046D01*
X15777844Y15806044D01*
X15806754Y15742740D01*
X15823475Y15706126D01*
X15830449Y15645339D01*
X15823478Y15623882D01*
X15818684Y15613382D01*
X15777317Y15568301D01*
X15728627Y15555500D01*
X15667383Y15555500D01*
X15547225Y15520218D01*
X15441875Y15452514D01*
X15441875Y15452513D01*
X15359867Y15357872D01*
X15359867Y15357871D01*
X15359867Y15357870D01*
X15353704Y15344374D01*
X15353247Y15343374D01*
X15311875Y15298296D01*
X15263193Y15285500D01*
X15197383Y15285500D01*
X15077225Y15250218D01*
X14971875Y15182514D01*
X14971875Y15182513D01*
X14889868Y15087872D01*
X14837843Y14973954D01*
X14837842Y14973952D01*
X14820022Y14850003D01*
X14820022Y14849998D01*
X14837842Y14726049D01*
X14837843Y14726047D01*
X14837843Y14726046D01*
X14837844Y14726044D01*
X14889867Y14612130D01*
X14903028Y14596941D01*
X14971875Y14517488D01*
X14971875Y14517487D01*
X15049677Y14467487D01*
X15077227Y14449782D01*
X15197385Y14414500D01*
X15197386Y14414500D01*
X15263193Y14414500D01*
X15321384Y14395593D01*
X15353247Y14356625D01*
X15358475Y14345177D01*
X15365449Y14284391D01*
X15358475Y14262926D01*
X15317843Y14173954D01*
X15317842Y14173952D01*
X15300022Y14050003D01*
X15300022Y14049998D01*
X15317842Y13926049D01*
X15317843Y13926047D01*
X15317843Y13926046D01*
X15317844Y13926044D01*
X15343172Y13870583D01*
X15358475Y13837075D01*
X15365449Y13776288D01*
X15358475Y13754823D01*
X15307843Y13643954D01*
X15307842Y13643952D01*
X15290022Y13520003D01*
X15290022Y13519998D01*
X15307842Y13396049D01*
X15307843Y13396047D01*
X15307843Y13396046D01*
X15307844Y13396044D01*
X15316978Y13376044D01*
X15358475Y13285178D01*
X15365449Y13224391D01*
X15358475Y13202926D01*
X15317843Y13113954D01*
X15317842Y13113952D01*
X15300022Y12990003D01*
X15300022Y12989998D01*
X15317842Y12866049D01*
X15317843Y12866047D01*
X15317843Y12866046D01*
X15317844Y12866044D01*
X15358946Y12776044D01*
X15360759Y12772074D01*
X15367733Y12711287D01*
X15360758Y12689822D01*
X15307844Y12573960D01*
X15307842Y12573952D01*
X15290022Y12450003D01*
X15290022Y12449998D01*
X15307842Y12326049D01*
X15307843Y12326047D01*
X15307843Y12326046D01*
X15307844Y12326044D01*
X15359867Y12212130D01*
X15359868Y12212129D01*
X15441875Y12117488D01*
X15441875Y12117487D01*
X15540808Y12053907D01*
X15547227Y12049782D01*
X15667385Y12014500D01*
X15667386Y12014500D01*
X15733193Y12014500D01*
X15791384Y11995593D01*
X15823246Y11956627D01*
X15827670Y11946941D01*
X15829867Y11942130D01*
X15829867Y11942129D01*
X15911875Y11847488D01*
X15911875Y11847487D01*
X15996995Y11792784D01*
X16035727Y11745418D01*
X16039220Y11684332D01*
X16006140Y11632860D01*
X15949124Y11610661D01*
X15943472Y11610500D01*
X15319090Y11610500D01*
X15260899Y11629407D01*
X15229037Y11668373D01*
X15220133Y11687870D01*
X15220131Y11687872D01*
X15220131Y11687873D01*
X15138124Y11782513D01*
X15138124Y11782514D01*
X15032774Y11850218D01*
X14912616Y11885500D01*
X14912615Y11885500D01*
X14787385Y11885500D01*
X14787383Y11885500D01*
X14667225Y11850218D01*
X14561875Y11782514D01*
X14561875Y11782513D01*
X14479868Y11687872D01*
X14427843Y11573954D01*
X14427842Y11573952D01*
X14418524Y11509144D01*
X14391527Y11454236D01*
X14337413Y11425684D01*
X14276850Y11434392D01*
X14250528Y11453230D01*
X13843628Y11860131D01*
X13839122Y11865309D01*
X13831780Y11875032D01*
X13798073Y11905760D01*
X13796421Y11907338D01*
X13783175Y11920583D01*
X13783167Y11920590D01*
X13780520Y11922404D01*
X13775150Y11926658D01*
X13758177Y11942130D01*
X13752900Y11946941D01*
X13752896Y11946943D01*
X13752894Y11946944D01*
X13744725Y11950109D01*
X13724551Y11960742D01*
X13723695Y11961329D01*
X13717317Y11965697D01*
X13717316Y11965698D01*
X13717315Y11965698D01*
X13688004Y11972593D01*
X13681450Y11974622D01*
X13653373Y11985499D01*
X13653370Y11985500D01*
X13653369Y11985500D01*
X13653367Y11985500D01*
X13644605Y11985500D01*
X13621938Y11988130D01*
X13613413Y11990135D01*
X13583590Y11985975D01*
X13576744Y11985500D01*
X11480579Y11985500D01*
X11422388Y12004407D01*
X11386424Y12053907D01*
X11382587Y12098589D01*
X11389978Y12149997D01*
X11389978Y12150003D01*
X11372157Y12273952D01*
X11372156Y12273954D01*
X11372156Y12273956D01*
X11320133Y12387870D01*
X11238124Y12482513D01*
X11222712Y12492418D01*
X11183982Y12539784D01*
X11180490Y12600869D01*
X11201419Y12640533D01*
X11220131Y12662128D01*
X11220130Y12662128D01*
X11220133Y12662130D01*
X11272156Y12776044D01*
X11278572Y12820669D01*
X11289978Y12899998D01*
X11289978Y12900003D01*
X11272157Y13023952D01*
X11272156Y13023954D01*
X11272156Y13023956D01*
X11220133Y13137870D01*
X11138124Y13232513D01*
X11062479Y13281127D01*
X11027276Y13303751D01*
X10988545Y13351117D01*
X10985053Y13412203D01*
X11010794Y13457037D01*
X12460131Y14906375D01*
X12465313Y14910883D01*
X12475023Y14918216D01*
X12475032Y14918220D01*
X12505795Y14951968D01*
X12507307Y14953551D01*
X12520584Y14966826D01*
X12522397Y14969474D01*
X12526647Y14974839D01*
X12546941Y14997100D01*
X12550106Y15005270D01*
X12560750Y15025462D01*
X12565696Y15032682D01*
X12565695Y15032682D01*
X12565697Y15032683D01*
X12572593Y15062006D01*
X12574617Y15068541D01*
X12585500Y15096631D01*
X12585500Y15105395D01*
X12588130Y15128064D01*
X12588586Y15130000D01*
X12590135Y15136587D01*
X12585973Y15166423D01*
X12585500Y15173243D01*
X12585500Y17835266D01*
X12604407Y17893457D01*
X12653907Y17929421D01*
X12715093Y17929421D01*
X12738021Y17918552D01*
G37*
%TD.AperFunction*%
%TA.AperFunction,Conductor*%
G36*
X11048768Y18799455D02*
G01*
X11097221Y18762092D01*
X11114500Y18706212D01*
X11114500Y15682058D01*
X11095593Y15623867D01*
X11085503Y15612054D01*
X10987246Y15513798D01*
X10932730Y15486021D01*
X10872297Y15495593D01*
X10829033Y15538857D01*
X10827201Y15542651D01*
X10795133Y15612870D01*
X10795131Y15612872D01*
X10795131Y15612873D01*
X10713124Y15707513D01*
X10713124Y15707514D01*
X10607774Y15775218D01*
X10537079Y15795976D01*
X10486572Y15830512D01*
X10466011Y15888140D01*
X10472211Y15918653D01*
X10470162Y15919254D01*
X10472157Y15926049D01*
X10489978Y16049998D01*
X10489978Y16050003D01*
X10472157Y16173952D01*
X10472156Y16173954D01*
X10472156Y16173956D01*
X10420133Y16287870D01*
X10338124Y16382513D01*
X10338121Y16382515D01*
X10338120Y16382516D01*
X10299877Y16407094D01*
X10269230Y16438261D01*
X10264642Y16445671D01*
X10264641Y16445672D01*
X10240614Y16463817D01*
X10235437Y16468322D01*
X9943628Y16760131D01*
X9939122Y16765309D01*
X9931780Y16775032D01*
X9920364Y16785439D01*
X9898068Y16805765D01*
X9896421Y16807338D01*
X9883175Y16820583D01*
X9883167Y16820590D01*
X9880520Y16822404D01*
X9875150Y16826658D01*
X9860934Y16839617D01*
X9852900Y16846941D01*
X9852896Y16846943D01*
X9852894Y16846944D01*
X9844725Y16850109D01*
X9824551Y16860742D01*
X9823695Y16861329D01*
X9817317Y16865697D01*
X9817316Y16865698D01*
X9817315Y16865698D01*
X9788004Y16872593D01*
X9781450Y16874622D01*
X9753373Y16885499D01*
X9753370Y16885500D01*
X9753369Y16885500D01*
X9753367Y16885500D01*
X9744605Y16885500D01*
X9721938Y16888130D01*
X9713413Y16890135D01*
X9683590Y16885975D01*
X9676744Y16885500D01*
X6495878Y16885500D01*
X6489031Y16885975D01*
X6476950Y16887661D01*
X6435770Y16885756D01*
X6431381Y16885553D01*
X6429101Y16885500D01*
X6410370Y16885500D01*
X6407214Y16884910D01*
X6400405Y16884121D01*
X6370333Y16882731D01*
X6370325Y16882729D01*
X6362309Y16879190D01*
X6340525Y16872444D01*
X6331906Y16870833D01*
X6331903Y16870832D01*
X6306301Y16854980D01*
X6300233Y16851781D01*
X6272689Y16839619D01*
X6272682Y16839615D01*
X6266487Y16833419D01*
X6248608Y16819257D01*
X6241154Y16814642D01*
X6223010Y16790615D01*
X6218505Y16785439D01*
X5833014Y16399947D01*
X5778497Y16372170D01*
X5718065Y16381741D01*
X5674800Y16425006D01*
X5665229Y16485438D01*
X5670695Y16505713D01*
X5671939Y16508926D01*
X5671941Y16508927D01*
X5675108Y16517105D01*
X5685744Y16537280D01*
X5690697Y16544510D01*
X5697593Y16573833D01*
X5699617Y16580368D01*
X5710500Y16608458D01*
X5710500Y16617222D01*
X5713130Y16639891D01*
X5715135Y16648414D01*
X5712572Y16666786D01*
X5723259Y16727029D01*
X5740616Y16750463D01*
X6940152Y17949998D01*
X9110022Y17949998D01*
X9127842Y17826049D01*
X9127843Y17826047D01*
X9127843Y17826046D01*
X9127844Y17826044D01*
X9179867Y17712130D01*
X9194278Y17695499D01*
X9261875Y17617488D01*
X9261875Y17617487D01*
X9351080Y17560159D01*
X9367227Y17549782D01*
X9487385Y17514500D01*
X9487386Y17514500D01*
X9612614Y17514500D01*
X9612615Y17514500D01*
X9732773Y17549782D01*
X9807993Y17598124D01*
X9867164Y17613677D01*
X9924180Y17591479D01*
X9936332Y17579669D01*
X10011875Y17492488D01*
X10011875Y17492487D01*
X10117225Y17424783D01*
X10117227Y17424782D01*
X10237385Y17389500D01*
X10237386Y17389500D01*
X10362614Y17389500D01*
X10362615Y17389500D01*
X10482773Y17424782D01*
X10588124Y17492487D01*
X10670133Y17587130D01*
X10722156Y17701044D01*
X10723750Y17712130D01*
X10739978Y17824998D01*
X10739978Y17825003D01*
X10722157Y17948952D01*
X10722156Y17948954D01*
X10722156Y17948956D01*
X10670133Y18062870D01*
X10588124Y18157513D01*
X10588124Y18157514D01*
X10482774Y18225218D01*
X10362616Y18260500D01*
X10362615Y18260500D01*
X10237385Y18260500D01*
X10237383Y18260500D01*
X10117225Y18225218D01*
X10042009Y18176879D01*
X9982834Y18161324D01*
X9925818Y18183523D01*
X9913667Y18195332D01*
X9910009Y18199553D01*
X9838124Y18282513D01*
X9838124Y18282514D01*
X9732774Y18350218D01*
X9612616Y18385500D01*
X9612615Y18385500D01*
X9487385Y18385500D01*
X9487383Y18385500D01*
X9367225Y18350218D01*
X9261875Y18282514D01*
X9261875Y18282513D01*
X9179868Y18187872D01*
X9179867Y18187871D01*
X9179867Y18187870D01*
X9171832Y18170276D01*
X9127843Y18073954D01*
X9127842Y18073952D01*
X9110022Y17950003D01*
X9110022Y17949998D01*
X6940152Y17949998D01*
X7600658Y18610504D01*
X7655175Y18638281D01*
X7670662Y18639500D01*
X10465949Y18639500D01*
X10472796Y18639025D01*
X10484870Y18637341D01*
X10484873Y18637340D01*
X10484875Y18637341D01*
X10484876Y18637340D01*
X10508740Y18638444D01*
X10530445Y18639448D01*
X10532726Y18639500D01*
X10551448Y18639500D01*
X10551454Y18639500D01*
X10554602Y18640089D01*
X10561402Y18640880D01*
X10591497Y18642270D01*
X10599506Y18645807D01*
X10621306Y18652559D01*
X10629921Y18654168D01*
X10655523Y18670022D01*
X10661580Y18673215D01*
X10689141Y18685383D01*
X10695337Y18691581D01*
X10713223Y18705748D01*
X10720672Y18710359D01*
X10731847Y18725159D01*
X10782003Y18760203D01*
X10810853Y18764500D01*
X10862614Y18764500D01*
X10862615Y18764500D01*
X10982773Y18799782D01*
X10982773Y18799783D01*
X10987608Y18801202D01*
X11048768Y18799455D01*
G37*
%TD.AperFunction*%
%TD*%
M02*
