%TF.GenerationSoftware,KiCad,Pcbnew,7.0.7*%
%TF.CreationDate,2023-12-28T18:43:45-05:00*%
%TF.ProjectId,O32controller,4f333263-6f6e-4747-926f-6c6c65722e6b,3*%
%TF.SameCoordinates,Original*%
%TF.FileFunction,Legend,Top*%
%TF.FilePolarity,Positive*%
%FSLAX46Y46*%
G04 Gerber Fmt 4.6, Leading zero omitted, Abs format (unit mm)*
G04 Created by KiCad (PCBNEW 7.0.7) date 2023-12-28 18:43:45*
%MOMM*%
%LPD*%
G01*
G04 APERTURE LIST*
G04 Aperture macros list*
%AMRoundRect*
0 Rectangle with rounded corners*
0 $1 Rounding radius*
0 $2 $3 $4 $5 $6 $7 $8 $9 X,Y pos of 4 corners*
0 Add a 4 corners polygon primitive as box body*
4,1,4,$2,$3,$4,$5,$6,$7,$8,$9,$2,$3,0*
0 Add four circle primitives for the rounded corners*
1,1,$1+$1,$2,$3*
1,1,$1+$1,$4,$5*
1,1,$1+$1,$6,$7*
1,1,$1+$1,$8,$9*
0 Add four rect primitives between the rounded corners*
20,1,$1+$1,$2,$3,$4,$5,0*
20,1,$1+$1,$4,$5,$6,$7,0*
20,1,$1+$1,$6,$7,$8,$9,0*
20,1,$1+$1,$8,$9,$2,$3,0*%
%AMFreePoly0*
4,1,78,0.535355,2.120355,0.550000,2.085000,0.550000,1.935000,0.535355,1.899645,0.500000,1.885000,0.150000,1.885000,0.150000,1.635000,0.500000,1.635000,0.535355,1.620355,0.550000,1.585000,0.550000,1.435000,0.535355,1.399645,0.500000,1.385000,0.150000,1.385000,0.150000,1.135000,0.500000,1.135000,0.535355,1.120355,0.550000,1.085000,0.550000,0.935000,0.535355,0.899645,
0.500000,0.885000,0.150000,0.885000,0.150000,0.635000,0.500000,0.635000,0.535355,0.620355,0.550000,0.585000,0.550000,0.435000,0.535355,0.399645,0.500000,0.385000,0.150000,0.385000,0.150000,0.135000,0.500000,0.135000,0.535355,0.120355,0.550000,0.085000,0.550000,-0.065000,0.535355,-0.100355,0.500000,-0.115000,0.150000,-0.115000,0.150000,-0.365000,0.500000,-0.365000,
0.535355,-0.379645,0.550000,-0.415000,0.550000,-0.565000,0.535355,-0.600355,0.500000,-0.615000,0.150000,-0.615000,0.150000,-0.865000,0.500000,-0.865000,0.535355,-0.879645,0.550000,-0.915000,0.550000,-1.065000,0.535355,-1.100355,0.500000,-1.115000,0.150000,-1.115000,0.150000,-1.365000,0.500000,-1.365000,0.535355,-1.379645,0.550000,-1.415000,0.550000,-1.565000,0.535355,-1.600355,
0.500000,-1.615000,0.150000,-1.615000,0.150000,-1.865000,0.500000,-1.865000,0.535355,-1.879645,0.550000,-1.915000,0.550000,-2.065000,0.535355,-2.100355,0.500000,-2.115000,-0.100000,-2.115000,-0.102414,-2.114000,-0.150000,-2.114000,-0.150000,2.114000,-0.137987,2.114000,-0.135355,2.120355,-0.100000,2.135000,0.500000,2.135000,0.535355,2.120355,0.535355,2.120355,$1*%
G04 Aperture macros list end*
%ADD10C,0.150000*%
%ADD11C,0.120000*%
%ADD12C,0.200000*%
%ADD13RoundRect,0.075000X-1.425000X-0.075000X1.425000X-0.075000X1.425000X0.075000X-1.425000X0.075000X0*%
%ADD14RoundRect,0.250000X-0.475000X0.250000X-0.475000X-0.250000X0.475000X-0.250000X0.475000X0.250000X0*%
%ADD15RoundRect,0.250000X0.475000X-0.250000X0.475000X0.250000X-0.475000X0.250000X-0.475000X-0.250000X0*%
%ADD16R,0.385000X0.690000*%
%ADD17R,1.035000X0.690000*%
%ADD18RoundRect,0.269607X-1.105393X-1.105393X1.105393X-1.105393X1.105393X1.105393X-1.105393X1.105393X0*%
%ADD19RoundRect,0.218750X0.256250X-0.218750X0.256250X0.218750X-0.256250X0.218750X-0.256250X-0.218750X0*%
%ADD20RoundRect,0.140000X0.140000X0.170000X-0.140000X0.170000X-0.140000X-0.170000X0.140000X-0.170000X0*%
%ADD21RoundRect,0.225000X0.250000X-0.225000X0.250000X0.225000X-0.250000X0.225000X-0.250000X-0.225000X0*%
%ADD22RoundRect,0.135000X0.135000X0.185000X-0.135000X0.185000X-0.135000X-0.185000X0.135000X-0.185000X0*%
%ADD23RoundRect,0.062500X-0.375000X-0.062500X0.375000X-0.062500X0.375000X0.062500X-0.375000X0.062500X0*%
%ADD24RoundRect,0.062500X-0.062500X-0.375000X0.062500X-0.375000X0.062500X0.375000X-0.062500X0.375000X0*%
%ADD25R,2.800000X2.800000*%
%ADD26RoundRect,0.135000X0.185000X-0.135000X0.185000X0.135000X-0.185000X0.135000X-0.185000X-0.135000X0*%
%ADD27RoundRect,0.140000X-0.170000X0.140000X-0.170000X-0.140000X0.170000X-0.140000X0.170000X0.140000X0*%
%ADD28RoundRect,0.135000X-0.135000X-0.185000X0.135000X-0.185000X0.135000X0.185000X-0.135000X0.185000X0*%
%ADD29R,0.700001X0.249999*%
%ADD30FreePoly0,0.000000*%
%ADD31FreePoly0,180.000000*%
%ADD32R,0.429999X0.375001*%
%ADD33R,3.300001X5.399999*%
%ADD34R,1.600000X0.650000*%
%ADD35RoundRect,0.135000X-0.185000X0.135000X-0.185000X-0.135000X0.185000X-0.135000X0.185000X0.135000X0*%
%ADD36RoundRect,0.140000X0.170000X-0.140000X0.170000X0.140000X-0.170000X0.140000X-0.170000X-0.140000X0*%
%ADD37RoundRect,0.225000X-0.250000X0.225000X-0.250000X-0.225000X0.250000X-0.225000X0.250000X0.225000X0*%
%ADD38R,0.690000X0.385000*%
%ADD39R,0.690000X1.035000*%
G04 APERTURE END LIST*
D10*
X875000Y5400000D02*
X375000Y5400000D01*
X375000Y5900000D02*
X875000Y5900000D01*
X875000Y5900000D02*
X725000Y6050000D01*
X550000Y6525000D02*
X750000Y6525000D01*
X875000Y5900000D02*
X725000Y5750000D01*
X525000Y6825000D02*
X762500Y6825000D01*
X762500Y6825000D02*
X850000Y7075000D01*
X850000Y7075000D02*
X925000Y7075000D01*
X3200000Y2175000D02*
X4975000Y2175000D01*
X11500000Y13500000D02*
X15500000Y13500000D01*
X14500000Y13500000D02*
G75*
G03*
X14500000Y13500000I-1000000J0D01*
G01*
X375000Y5400000D02*
X525000Y5550000D01*
X400000Y6275000D02*
X550000Y6275000D01*
X750000Y6525000D02*
X750000Y6275000D01*
X375000Y5400000D02*
X525000Y5250000D01*
X13500000Y15500000D02*
X13500000Y11500000D01*
X29500000Y13500000D02*
G75*
G03*
X29500000Y13500000I-16000000J0D01*
G01*
X375000Y7075000D02*
X450000Y7075000D01*
X550000Y6275000D02*
X550000Y6525000D01*
X450000Y7075000D02*
X525000Y6825000D01*
X750000Y6275000D02*
X925000Y6275000D01*
X1300000Y23750000D02*
X6150000Y19650000D01*
X7559523Y17700800D02*
X7673809Y17662705D01*
X7673809Y17662705D02*
X7864285Y17662705D01*
X7864285Y17662705D02*
X7940476Y17700800D01*
X7940476Y17700800D02*
X7978571Y17738896D01*
X7978571Y17738896D02*
X8016666Y17815086D01*
X8016666Y17815086D02*
X8016666Y17891277D01*
X8016666Y17891277D02*
X7978571Y17967467D01*
X7978571Y17967467D02*
X7940476Y18005562D01*
X7940476Y18005562D02*
X7864285Y18043658D01*
X7864285Y18043658D02*
X7711904Y18081753D01*
X7711904Y18081753D02*
X7635714Y18119848D01*
X7635714Y18119848D02*
X7597619Y18157943D01*
X7597619Y18157943D02*
X7559523Y18234134D01*
X7559523Y18234134D02*
X7559523Y18310324D01*
X7559523Y18310324D02*
X7597619Y18386515D01*
X7597619Y18386515D02*
X7635714Y18424610D01*
X7635714Y18424610D02*
X7711904Y18462705D01*
X7711904Y18462705D02*
X7902381Y18462705D01*
X7902381Y18462705D02*
X8016666Y18424610D01*
X8245238Y18462705D02*
X8702381Y18462705D01*
X8473809Y17662705D02*
X8473809Y18462705D01*
X8930952Y17700800D02*
X9045238Y17662705D01*
X9045238Y17662705D02*
X9235714Y17662705D01*
X9235714Y17662705D02*
X9311905Y17700800D01*
X9311905Y17700800D02*
X9350000Y17738896D01*
X9350000Y17738896D02*
X9388095Y17815086D01*
X9388095Y17815086D02*
X9388095Y17891277D01*
X9388095Y17891277D02*
X9350000Y17967467D01*
X9350000Y17967467D02*
X9311905Y18005562D01*
X9311905Y18005562D02*
X9235714Y18043658D01*
X9235714Y18043658D02*
X9083333Y18081753D01*
X9083333Y18081753D02*
X9007143Y18119848D01*
X9007143Y18119848D02*
X8969048Y18157943D01*
X8969048Y18157943D02*
X8930952Y18234134D01*
X8930952Y18234134D02*
X8930952Y18310324D01*
X8930952Y18310324D02*
X8969048Y18386515D01*
X8969048Y18386515D02*
X9007143Y18424610D01*
X9007143Y18424610D02*
X9083333Y18462705D01*
X9083333Y18462705D02*
X9273810Y18462705D01*
X9273810Y18462705D02*
X9388095Y18424610D01*
X9730953Y17662705D02*
X9730953Y18462705D01*
X9730953Y18462705D02*
X10035715Y18462705D01*
X10035715Y18462705D02*
X10111905Y18424610D01*
X10111905Y18424610D02*
X10150000Y18386515D01*
X10150000Y18386515D02*
X10188096Y18310324D01*
X10188096Y18310324D02*
X10188096Y18196039D01*
X10188096Y18196039D02*
X10150000Y18119848D01*
X10150000Y18119848D02*
X10111905Y18081753D01*
X10111905Y18081753D02*
X10035715Y18043658D01*
X10035715Y18043658D02*
X9730953Y18043658D01*
X10530953Y17662705D02*
X10530953Y18462705D01*
X10911905Y17662705D02*
X10911905Y18462705D01*
X10911905Y18462705D02*
X11369048Y17662705D01*
X11369048Y17662705D02*
X11369048Y18462705D01*
X12016666Y18081753D02*
X11750000Y18081753D01*
X11750000Y17662705D02*
X11750000Y18462705D01*
X11750000Y18462705D02*
X12130952Y18462705D01*
X12588095Y18462705D02*
X12664285Y18462705D01*
X12664285Y18462705D02*
X12740476Y18424610D01*
X12740476Y18424610D02*
X12778571Y18386515D01*
X12778571Y18386515D02*
X12816666Y18310324D01*
X12816666Y18310324D02*
X12854761Y18157943D01*
X12854761Y18157943D02*
X12854761Y17967467D01*
X12854761Y17967467D02*
X12816666Y17815086D01*
X12816666Y17815086D02*
X12778571Y17738896D01*
X12778571Y17738896D02*
X12740476Y17700800D01*
X12740476Y17700800D02*
X12664285Y17662705D01*
X12664285Y17662705D02*
X12588095Y17662705D01*
X12588095Y17662705D02*
X12511904Y17700800D01*
X12511904Y17700800D02*
X12473809Y17738896D01*
X12473809Y17738896D02*
X12435714Y17815086D01*
X12435714Y17815086D02*
X12397618Y17967467D01*
X12397618Y17967467D02*
X12397618Y18157943D01*
X12397618Y18157943D02*
X12435714Y18310324D01*
X12435714Y18310324D02*
X12473809Y18386515D01*
X12473809Y18386515D02*
X12511904Y18424610D01*
X12511904Y18424610D02*
X12588095Y18462705D01*
X13159523Y17891277D02*
X13540476Y17891277D01*
X13083333Y17662705D02*
X13350000Y18462705D01*
X13350000Y18462705D02*
X13616666Y17662705D01*
X1239286Y4156753D02*
X1505952Y4156753D01*
X1620238Y3737705D02*
X1239286Y3737705D01*
X1239286Y3737705D02*
X1239286Y4537705D01*
X1239286Y4537705D02*
X1620238Y4537705D01*
X1886905Y3737705D02*
X2305953Y4271039D01*
X1886905Y4271039D02*
X2305953Y3737705D01*
X2496429Y4271039D02*
X2801191Y4271039D01*
X2610715Y4537705D02*
X2610715Y3851991D01*
X2610715Y3851991D02*
X2648810Y3775800D01*
X2648810Y3775800D02*
X2725000Y3737705D01*
X2725000Y3737705D02*
X2801191Y3737705D01*
X3067858Y3813896D02*
X3105953Y3775800D01*
X3105953Y3775800D02*
X3067858Y3737705D01*
X3067858Y3737705D02*
X3029762Y3775800D01*
X3029762Y3775800D02*
X3067858Y3813896D01*
X3067858Y3813896D02*
X3067858Y3737705D01*
X3410714Y3775800D02*
X3525000Y3737705D01*
X3525000Y3737705D02*
X3715476Y3737705D01*
X3715476Y3737705D02*
X3791667Y3775800D01*
X3791667Y3775800D02*
X3829762Y3813896D01*
X3829762Y3813896D02*
X3867857Y3890086D01*
X3867857Y3890086D02*
X3867857Y3966277D01*
X3867857Y3966277D02*
X3829762Y4042467D01*
X3829762Y4042467D02*
X3791667Y4080562D01*
X3791667Y4080562D02*
X3715476Y4118658D01*
X3715476Y4118658D02*
X3563095Y4156753D01*
X3563095Y4156753D02*
X3486905Y4194848D01*
X3486905Y4194848D02*
X3448810Y4232943D01*
X3448810Y4232943D02*
X3410714Y4309134D01*
X3410714Y4309134D02*
X3410714Y4385324D01*
X3410714Y4385324D02*
X3448810Y4461515D01*
X3448810Y4461515D02*
X3486905Y4499610D01*
X3486905Y4499610D02*
X3563095Y4537705D01*
X3563095Y4537705D02*
X3753572Y4537705D01*
X3753572Y4537705D02*
X3867857Y4499610D01*
X4210715Y3737705D02*
X4210715Y4537705D01*
X4210715Y4537705D02*
X4515477Y4537705D01*
X4515477Y4537705D02*
X4591667Y4499610D01*
X4591667Y4499610D02*
X4629762Y4461515D01*
X4629762Y4461515D02*
X4667858Y4385324D01*
X4667858Y4385324D02*
X4667858Y4271039D01*
X4667858Y4271039D02*
X4629762Y4194848D01*
X4629762Y4194848D02*
X4591667Y4156753D01*
X4591667Y4156753D02*
X4515477Y4118658D01*
X4515477Y4118658D02*
X4210715Y4118658D01*
X5010715Y3737705D02*
X5010715Y4537705D01*
X22950390Y9390477D02*
X22912295Y9314287D01*
X22912295Y9314287D02*
X22912295Y9200001D01*
X22912295Y9200001D02*
X22950390Y9085715D01*
X22950390Y9085715D02*
X23026580Y9009525D01*
X23026580Y9009525D02*
X23102771Y8971430D01*
X23102771Y8971430D02*
X23255152Y8933334D01*
X23255152Y8933334D02*
X23369438Y8933334D01*
X23369438Y8933334D02*
X23521819Y8971430D01*
X23521819Y8971430D02*
X23598009Y9009525D01*
X23598009Y9009525D02*
X23674200Y9085715D01*
X23674200Y9085715D02*
X23712295Y9200001D01*
X23712295Y9200001D02*
X23712295Y9276192D01*
X23712295Y9276192D02*
X23674200Y9390477D01*
X23674200Y9390477D02*
X23636104Y9428573D01*
X23636104Y9428573D02*
X23369438Y9428573D01*
X23369438Y9428573D02*
X23369438Y9276192D01*
X23712295Y9771430D02*
X22912295Y9771430D01*
X22912295Y9771430D02*
X23712295Y10228573D01*
X23712295Y10228573D02*
X22912295Y10228573D01*
X23712295Y10609525D02*
X22912295Y10609525D01*
X22912295Y10609525D02*
X22912295Y10800001D01*
X22912295Y10800001D02*
X22950390Y10914287D01*
X22950390Y10914287D02*
X23026580Y10990477D01*
X23026580Y10990477D02*
X23102771Y11028572D01*
X23102771Y11028572D02*
X23255152Y11066668D01*
X23255152Y11066668D02*
X23369438Y11066668D01*
X23369438Y11066668D02*
X23521819Y11028572D01*
X23521819Y11028572D02*
X23598009Y10990477D01*
X23598009Y10990477D02*
X23674200Y10914287D01*
X23674200Y10914287D02*
X23712295Y10800001D01*
X23712295Y10800001D02*
X23712295Y10609525D01*
X3602381Y2412705D02*
X3602381Y3212705D01*
X3602381Y3212705D02*
X3869047Y2641277D01*
X3869047Y2641277D02*
X4135714Y3212705D01*
X4135714Y3212705D02*
X4135714Y2412705D01*
X4478571Y3136515D02*
X4516667Y3174610D01*
X4516667Y3174610D02*
X4592857Y3212705D01*
X4592857Y3212705D02*
X4783333Y3212705D01*
X4783333Y3212705D02*
X4859524Y3174610D01*
X4859524Y3174610D02*
X4897619Y3136515D01*
X4897619Y3136515D02*
X4935714Y3060324D01*
X4935714Y3060324D02*
X4935714Y2984134D01*
X4935714Y2984134D02*
X4897619Y2869848D01*
X4897619Y2869848D02*
X4440476Y2412705D01*
X4440476Y2412705D02*
X4935714Y2412705D01*
X22912295Y6357143D02*
X23712295Y6547619D01*
X23712295Y6547619D02*
X23140866Y6700000D01*
X23140866Y6700000D02*
X23712295Y6852381D01*
X23712295Y6852381D02*
X22912295Y7042857D01*
X22950390Y16540477D02*
X22912295Y16464287D01*
X22912295Y16464287D02*
X22912295Y16350001D01*
X22912295Y16350001D02*
X22950390Y16235715D01*
X22950390Y16235715D02*
X23026580Y16159525D01*
X23026580Y16159525D02*
X23102771Y16121430D01*
X23102771Y16121430D02*
X23255152Y16083334D01*
X23255152Y16083334D02*
X23369438Y16083334D01*
X23369438Y16083334D02*
X23521819Y16121430D01*
X23521819Y16121430D02*
X23598009Y16159525D01*
X23598009Y16159525D02*
X23674200Y16235715D01*
X23674200Y16235715D02*
X23712295Y16350001D01*
X23712295Y16350001D02*
X23712295Y16426192D01*
X23712295Y16426192D02*
X23674200Y16540477D01*
X23674200Y16540477D02*
X23636104Y16578573D01*
X23636104Y16578573D02*
X23369438Y16578573D01*
X23369438Y16578573D02*
X23369438Y16426192D01*
X23712295Y16921430D02*
X22912295Y16921430D01*
X22912295Y16921430D02*
X23712295Y17378573D01*
X23712295Y17378573D02*
X22912295Y17378573D01*
X23712295Y17759525D02*
X22912295Y17759525D01*
X22912295Y17759525D02*
X22912295Y17950001D01*
X22912295Y17950001D02*
X22950390Y18064287D01*
X22950390Y18064287D02*
X23026580Y18140477D01*
X23026580Y18140477D02*
X23102771Y18178572D01*
X23102771Y18178572D02*
X23255152Y18216668D01*
X23255152Y18216668D02*
X23369438Y18216668D01*
X23369438Y18216668D02*
X23521819Y18178572D01*
X23521819Y18178572D02*
X23598009Y18140477D01*
X23598009Y18140477D02*
X23674200Y18064287D01*
X23674200Y18064287D02*
X23712295Y17950001D01*
X23712295Y17950001D02*
X23712295Y17759525D01*
X3637696Y23459940D02*
X2411255Y23183639D01*
X2630125Y22999985D02*
X2587777Y23097681D01*
X2587777Y23097681D02*
X2576039Y23231856D01*
X2576039Y23231856D02*
X2661996Y23408378D01*
X2661996Y23408378D02*
X2876259Y23663726D01*
X2876259Y23663726D02*
X3035173Y23779030D01*
X3035173Y23779030D02*
X3169347Y23790769D01*
X3169347Y23790769D02*
X3272913Y23766030D01*
X3272913Y23766030D02*
X3418826Y23643594D01*
X3418826Y23643594D02*
X3461174Y23545898D01*
X3461174Y23545898D02*
X3472912Y23411723D01*
X3472912Y23411723D02*
X3386955Y23235201D01*
X3386955Y23235201D02*
X3172692Y22979853D01*
X3172692Y22979853D02*
X3013778Y22864549D01*
X3013778Y22864549D02*
X2879604Y22852810D01*
X2879604Y22852810D02*
X2776038Y22877549D01*
X2776038Y22877549D02*
X2630125Y22999985D01*
X3856566Y23276287D02*
X4330784Y22878371D01*
X4330784Y22878371D02*
X3830564Y22800807D01*
X3830564Y22800807D02*
X3939999Y22708980D01*
X3939999Y22708980D02*
X3982347Y22611284D01*
X3982347Y22611284D02*
X3988216Y22544196D01*
X3988216Y22544196D02*
X3963476Y22440631D01*
X3963476Y22440631D02*
X3810432Y22258239D01*
X3810432Y22258239D02*
X3712735Y22215892D01*
X3712735Y22215892D02*
X3645648Y22210022D01*
X3645648Y22210022D02*
X3542083Y22234762D01*
X3542083Y22234762D02*
X3323213Y22418415D01*
X3323213Y22418415D02*
X3280865Y22516112D01*
X3280865Y22516112D02*
X3274996Y22583199D01*
X4561392Y22560542D02*
X4628479Y22566412D01*
X4628479Y22566412D02*
X4732045Y22541672D01*
X4732045Y22541672D02*
X4914436Y22388628D01*
X4914436Y22388628D02*
X4956784Y22290931D01*
X4956784Y22290931D02*
X4962654Y22223844D01*
X4962654Y22223844D02*
X4937914Y22120279D01*
X4937914Y22120279D02*
X4876696Y22047322D01*
X4876696Y22047322D02*
X4748391Y21968496D01*
X4748391Y21968496D02*
X3943344Y21898064D01*
X3943344Y21898064D02*
X4417562Y21500147D01*
X345238Y4767467D02*
X954762Y4767467D01*
X650000Y4462705D02*
X650000Y5072229D01*
X21737295Y24473811D02*
X22537295Y24740478D01*
X22537295Y24740478D02*
X21737295Y25007144D01*
X22537295Y25273811D02*
X21737295Y25273811D01*
X22537295Y25654763D02*
X21737295Y25654763D01*
X21737295Y25654763D02*
X22537295Y26111906D01*
X22537295Y26111906D02*
X21737295Y26111906D01*
X21737295Y748811D02*
X22537295Y1015478D01*
X22537295Y1015478D02*
X21737295Y1282144D01*
X22537295Y1548811D02*
X21737295Y1548811D01*
X22537295Y1929763D02*
X21737295Y1929763D01*
X21737295Y1929763D02*
X22537295Y2386906D01*
X22537295Y2386906D02*
X21737295Y2386906D01*
X11283333Y19787705D02*
X11816667Y19787705D01*
X11816667Y19787705D02*
X11473809Y18987705D01*
X12121429Y19292467D02*
X12730953Y19292467D01*
X13530952Y18987705D02*
X13073809Y18987705D01*
X13302381Y18987705D02*
X13302381Y19787705D01*
X13302381Y19787705D02*
X13226190Y19673420D01*
X13226190Y19673420D02*
X13150000Y19597229D01*
X13150000Y19597229D02*
X13073809Y19559134D01*
X14254762Y19787705D02*
X13873810Y19787705D01*
X13873810Y19787705D02*
X13835714Y19406753D01*
X13835714Y19406753D02*
X13873810Y19444848D01*
X13873810Y19444848D02*
X13950000Y19482943D01*
X13950000Y19482943D02*
X14140476Y19482943D01*
X14140476Y19482943D02*
X14216667Y19444848D01*
X14216667Y19444848D02*
X14254762Y19406753D01*
X14254762Y19406753D02*
X14292857Y19330562D01*
X14292857Y19330562D02*
X14292857Y19140086D01*
X14292857Y19140086D02*
X14254762Y19063896D01*
X14254762Y19063896D02*
X14216667Y19025800D01*
X14216667Y19025800D02*
X14140476Y18987705D01*
X14140476Y18987705D02*
X13950000Y18987705D01*
X13950000Y18987705D02*
X13873810Y19025800D01*
X13873810Y19025800D02*
X13835714Y19063896D01*
X14521429Y19787705D02*
X14788096Y18987705D01*
X14788096Y18987705D02*
X15054762Y19787705D01*
X320238Y7467467D02*
X929762Y7467467D01*
X22912295Y13558334D02*
X23712295Y13825001D01*
X23712295Y13825001D02*
X22912295Y14091667D01*
X3438998Y21121419D02*
X3192864Y20457678D01*
X3192864Y20457678D02*
X3803781Y20815330D01*
X4236913Y20887024D02*
X4711131Y20489108D01*
X4711131Y20489108D02*
X4210912Y20411544D01*
X4210912Y20411544D02*
X4320347Y20319717D01*
X4320347Y20319717D02*
X4362694Y20222021D01*
X4362694Y20222021D02*
X4368564Y20154934D01*
X4368564Y20154934D02*
X4343824Y20051369D01*
X4343824Y20051369D02*
X4190780Y19868977D01*
X4190780Y19868977D02*
X4093083Y19826629D01*
X4093083Y19826629D02*
X4025996Y19820760D01*
X4025996Y19820760D02*
X3922431Y19845499D01*
X3922431Y19845499D02*
X3703561Y20029153D01*
X3703561Y20029153D02*
X3661213Y20126849D01*
X3661213Y20126849D02*
X3655344Y20193937D01*
X22912295Y20721430D02*
X23559914Y20721430D01*
X23559914Y20721430D02*
X23636104Y20759525D01*
X23636104Y20759525D02*
X23674200Y20797620D01*
X23674200Y20797620D02*
X23712295Y20873811D01*
X23712295Y20873811D02*
X23712295Y21026192D01*
X23712295Y21026192D02*
X23674200Y21102382D01*
X23674200Y21102382D02*
X23636104Y21140477D01*
X23636104Y21140477D02*
X23559914Y21178573D01*
X23559914Y21178573D02*
X22912295Y21178573D01*
D11*
%TO.C,D6*%
X15000Y17027500D02*
X1485000Y17027500D01*
X1485000Y17027500D02*
X1485000Y19312500D01*
X15000Y19312500D02*
X15000Y17027500D01*
%TO.C,C20*%
X6307836Y18690000D02*
X6092164Y18690000D01*
X6307836Y19410000D02*
X6092164Y19410000D01*
%TO.C,C2*%
X540000Y13209420D02*
X540000Y13490580D01*
X1560000Y13209420D02*
X1560000Y13490580D01*
%TO.C,R22*%
X14203641Y13920000D02*
X13896359Y13920000D01*
X14203641Y14680000D02*
X13896359Y14680000D01*
%TO.C,R19*%
X8453641Y8220000D02*
X8146359Y8220000D01*
X8453641Y8980000D02*
X8146359Y8980000D01*
%TO.C,U1*%
X4890000Y9890000D02*
X4890000Y10365000D01*
X5365000Y17110000D02*
X4890000Y17110000D01*
X5365000Y9890000D02*
X4890000Y9890000D01*
X11635000Y17110000D02*
X12110000Y17110000D01*
X11635000Y9890000D02*
X12110000Y9890000D01*
X12110000Y17110000D02*
X12110000Y16635000D01*
X12110000Y9890000D02*
X12110000Y10365000D01*
D12*
X4650000Y16600000D02*
G75*
G03*
X4650000Y16600000I-100000J0D01*
G01*
D11*
%TO.C,C14*%
X8407836Y7290000D02*
X8192164Y7290000D01*
X8407836Y8010000D02*
X8192164Y8010000D01*
%TO.C,R4*%
X10720000Y7936359D02*
X10720000Y8243641D01*
X11480000Y7936359D02*
X11480000Y8243641D01*
%TO.C,C5*%
X14410000Y13007836D02*
X14410000Y12792164D01*
X13690000Y13007836D02*
X13690000Y12792164D01*
%TO.C,R8*%
X5896359Y8330000D02*
X6203641Y8330000D01*
X5896359Y7570000D02*
X6203641Y7570000D01*
%TO.C,R29*%
X13396359Y9580000D02*
X13703641Y9580000D01*
X13396359Y8820000D02*
X13703641Y8820000D01*
%TO.C,Q2*%
X22600000Y10350000D02*
X22400000Y10350000D01*
X22600000Y10750000D02*
X22600000Y10350000D01*
X21549999Y10350001D02*
X18350001Y10350001D01*
X21549999Y16649999D02*
X18350001Y16649999D01*
%TO.C,R2*%
X1570000Y21046359D02*
X1570000Y21353641D01*
X2330000Y21046359D02*
X2330000Y21353641D01*
%TO.C,C4*%
X13760000Y16487836D02*
X13760000Y16272164D01*
X13040000Y16487836D02*
X13040000Y16272164D01*
%TO.C,C10*%
X6157836Y8540000D02*
X5942164Y8540000D01*
X6157836Y9260000D02*
X5942164Y9260000D01*
%TO.C,R1*%
X1570000Y18996359D02*
X1570000Y19303641D01*
X2330000Y18996359D02*
X2330000Y19303641D01*
%TO.C,Q3*%
X22600000Y3350000D02*
X22400000Y3350000D01*
X22600000Y3750000D02*
X22600000Y3350000D01*
X21549999Y3350001D02*
X18350001Y3350001D01*
X21549999Y9649999D02*
X18350001Y9649999D01*
%TO.C,R37*%
X6353641Y17720000D02*
X6046359Y17720000D01*
X6353641Y18480000D02*
X6046359Y18480000D01*
%TO.C,R28*%
X4080000Y16183641D02*
X4080000Y15876359D01*
X3320000Y16183641D02*
X3320000Y15876359D01*
%TO.C,C1*%
X4390000Y18472164D02*
X4390000Y18687836D01*
X5110000Y18472164D02*
X5110000Y18687836D01*
%TO.C,C7*%
X12460000Y8187836D02*
X12460000Y7972164D01*
X11740000Y8187836D02*
X11740000Y7972164D01*
%TO.C,C6*%
X4260000Y11227836D02*
X4260000Y11012164D01*
X3540000Y11227836D02*
X3540000Y11012164D01*
%TO.C,R11*%
X14786359Y16330000D02*
X15093641Y16330000D01*
X14786359Y15570000D02*
X15093641Y15570000D01*
%TO.C,D3*%
X15000Y20002500D02*
X1485000Y20002500D01*
X1485000Y20002500D02*
X1485000Y22287500D01*
X15000Y22287500D02*
X15000Y20002500D01*
%TO.C,R10*%
X5896359Y7380000D02*
X6203641Y7380000D01*
X5896359Y6620000D02*
X6203641Y6620000D01*
%TO.C,Q1*%
X22600000Y17350000D02*
X22400000Y17350000D01*
X22600000Y17750000D02*
X22600000Y17350000D01*
X21549999Y17350001D02*
X18350001Y17350001D01*
X21549999Y23649999D02*
X18350001Y23649999D01*
%TO.C,R13*%
X15903641Y17920000D02*
X15596359Y17920000D01*
X15903641Y18680000D02*
X15596359Y18680000D01*
%TO.C,C3*%
X3060000Y13490580D02*
X3060000Y13209420D01*
X2040000Y13490580D02*
X2040000Y13209420D01*
%TO.C,C17*%
X3110000Y16157836D02*
X3110000Y15942164D01*
X2390000Y16157836D02*
X2390000Y15942164D01*
%TO.C,R31*%
X13703641Y9770000D02*
X13396359Y9770000D01*
X13703641Y10530000D02*
X13396359Y10530000D01*
%TO.C,R20*%
X15746359Y10630000D02*
X16053641Y10630000D01*
X15746359Y9870000D02*
X16053641Y9870000D01*
%TD*%
%LPC*%
D13*
%TO.C,J7*%
X2550000Y7400000D03*
X2550000Y6900000D03*
X2550000Y6400000D03*
X2550000Y5900000D03*
X2550000Y5400000D03*
X2550000Y4900000D03*
%TD*%
D14*
%TO.C,C36*%
X13925000Y2650000D03*
X13925000Y750000D03*
%TD*%
D15*
%TO.C,C25*%
X13775000Y24350000D03*
X13775000Y26250000D03*
%TD*%
D16*
%TO.C,D5*%
X3608500Y17600000D03*
D17*
X2616500Y17600000D03*
%TD*%
D18*
%TO.C,J3*%
X25350000Y9950000D03*
%TD*%
%TO.C,J11*%
X25350000Y13750000D03*
%TD*%
%TO.C,J2*%
X19950000Y25400000D03*
%TD*%
D19*
%TO.C,D6*%
X750000Y17725000D03*
X750000Y19300000D03*
%TD*%
D14*
%TO.C,C28*%
X7850000Y22850000D03*
X7850000Y20950000D03*
%TD*%
D20*
%TO.C,C20*%
X6680000Y19050000D03*
X5720000Y19050000D03*
%TD*%
D21*
%TO.C,C2*%
X1050000Y12575000D03*
X1050000Y14125000D03*
%TD*%
D22*
%TO.C,R22*%
X14560000Y14300000D03*
X13540000Y14300000D03*
%TD*%
D14*
%TO.C,C35*%
X11950000Y2650000D03*
X11950000Y750000D03*
%TD*%
%TO.C,C33*%
X8000000Y2650000D03*
X8000000Y750000D03*
%TD*%
D22*
%TO.C,R19*%
X8810000Y8600000D03*
X7790000Y8600000D03*
%TD*%
D23*
%TO.C,U1*%
X5062500Y16250000D03*
X5062500Y15750000D03*
X5062500Y15250000D03*
X5062500Y14750000D03*
X5062500Y14250000D03*
X5062500Y13750000D03*
X5062500Y13250000D03*
X5062500Y12750000D03*
X5062500Y12250000D03*
X5062500Y11750000D03*
X5062500Y11250000D03*
X5062500Y10750000D03*
D24*
X5750000Y10062500D03*
X6250000Y10062500D03*
X6750000Y10062500D03*
X7250000Y10062500D03*
X7750000Y10062500D03*
X8250000Y10062500D03*
X8750000Y10062500D03*
X9250000Y10062500D03*
X9750000Y10062500D03*
X10250000Y10062500D03*
X10750000Y10062500D03*
X11250000Y10062500D03*
D23*
X11937500Y10750000D03*
X11937500Y11250000D03*
X11937500Y11750000D03*
X11937500Y12250000D03*
X11937500Y12750000D03*
X11937500Y13250000D03*
X11937500Y13750000D03*
X11937500Y14250000D03*
X11937500Y14750000D03*
X11937500Y15250000D03*
X11937500Y15750000D03*
X11937500Y16250000D03*
D24*
X11250000Y16937500D03*
X10750000Y16937500D03*
X10250000Y16937500D03*
X9750000Y16937500D03*
X9250000Y16937500D03*
X8750000Y16937500D03*
X8250000Y16937500D03*
X7750000Y16937500D03*
X7250000Y16937500D03*
X6750000Y16937500D03*
X6250000Y16937500D03*
X5750000Y16937500D03*
D25*
X8500000Y13500000D03*
%TD*%
D14*
%TO.C,C29*%
X9825000Y22850000D03*
X9825000Y20950000D03*
%TD*%
D20*
%TO.C,C14*%
X8780000Y7650000D03*
X7820000Y7650000D03*
%TD*%
D14*
%TO.C,C27*%
X5875000Y22850000D03*
X5875000Y20950000D03*
%TD*%
D26*
%TO.C,R4*%
X11100000Y7580000D03*
X11100000Y8600000D03*
%TD*%
D27*
%TO.C,C5*%
X14050000Y13380000D03*
X14050000Y12420000D03*
%TD*%
D15*
%TO.C,C22*%
X7850000Y24350000D03*
X7850000Y26250000D03*
%TD*%
D28*
%TO.C,R8*%
X5540000Y7950000D03*
X6560000Y7950000D03*
%TD*%
%TO.C,R29*%
X13040000Y9200000D03*
X14060000Y9200000D03*
%TD*%
D29*
%TO.C,Q2*%
X22300000Y11000000D03*
X22300000Y11499999D03*
D30*
X22100000Y13989000D03*
D31*
X17800000Y14010000D03*
D29*
X17600000Y11499999D03*
X17600000Y11000000D03*
D32*
X22065000Y10487001D03*
X22065000Y16512999D03*
X17835000Y16512999D03*
X17835000Y10487001D03*
D33*
X19950000Y13500000D03*
%TD*%
D26*
%TO.C,R2*%
X1950000Y20690000D03*
X1950000Y21710000D03*
%TD*%
D27*
%TO.C,C4*%
X13400000Y16860000D03*
X13400000Y15900000D03*
%TD*%
D20*
%TO.C,C10*%
X6530000Y8900000D03*
X5570000Y8900000D03*
%TD*%
D34*
%TO.C,L1*%
X1550000Y11275000D03*
X1550000Y9925000D03*
%TD*%
D18*
%TO.C,J4*%
X25350000Y17150000D03*
%TD*%
D26*
%TO.C,R1*%
X1950000Y18640000D03*
X1950000Y19660000D03*
%TD*%
D29*
%TO.C,Q3*%
X22300000Y4000000D03*
X22300000Y4499999D03*
D30*
X22100000Y6989000D03*
D31*
X17800000Y7010000D03*
D29*
X17600000Y4499999D03*
X17600000Y4000000D03*
D32*
X22065000Y3487001D03*
X22065000Y9512999D03*
X17835000Y9512999D03*
X17835000Y3487001D03*
D33*
X19950000Y6500000D03*
%TD*%
D22*
%TO.C,R37*%
X6710000Y18100000D03*
X5690000Y18100000D03*
%TD*%
D18*
%TO.C,J10*%
X25350000Y20950000D03*
%TD*%
D35*
%TO.C,R28*%
X3700000Y16540000D03*
X3700000Y15520000D03*
%TD*%
D36*
%TO.C,C1*%
X4750000Y18100000D03*
X4750000Y19060000D03*
%TD*%
D15*
%TO.C,C38*%
X13000000Y4150000D03*
X13000000Y6050000D03*
%TD*%
D27*
%TO.C,C7*%
X12100000Y8560000D03*
X12100000Y7600000D03*
%TD*%
%TO.C,C6*%
X3900000Y11600000D03*
X3900000Y10640000D03*
%TD*%
D28*
%TO.C,R11*%
X14430000Y15950000D03*
X15450000Y15950000D03*
%TD*%
D15*
%TO.C,C24*%
X11800000Y24350000D03*
X11800000Y26250000D03*
%TD*%
%TO.C,C26*%
X15750000Y24350000D03*
X15750000Y26250000D03*
%TD*%
D14*
%TO.C,C34*%
X9975000Y2650000D03*
X9975000Y750000D03*
%TD*%
%TO.C,C30*%
X11800000Y22850000D03*
X11800000Y20950000D03*
%TD*%
D19*
%TO.C,D3*%
X750000Y20700000D03*
X750000Y22275000D03*
%TD*%
D15*
%TO.C,C23*%
X9825000Y24350000D03*
X9825000Y26250000D03*
%TD*%
%TO.C,C21*%
X5875000Y24350000D03*
X5875000Y26250000D03*
%TD*%
%TO.C,C39*%
X11025000Y4150000D03*
X11025000Y6050000D03*
%TD*%
D28*
%TO.C,R10*%
X5540000Y7000000D03*
X6560000Y7000000D03*
%TD*%
D14*
%TO.C,C31*%
X14050000Y22850000D03*
X14050000Y20950000D03*
%TD*%
D29*
%TO.C,Q1*%
X22300000Y18000000D03*
X22300000Y18499999D03*
D30*
X22100000Y20989000D03*
D31*
X17800000Y21010000D03*
D29*
X17600000Y18499999D03*
X17600000Y18000000D03*
D32*
X22065000Y17487001D03*
X22065000Y23512999D03*
X17835000Y23512999D03*
X17835000Y17487001D03*
D33*
X19950000Y20500000D03*
%TD*%
D22*
%TO.C,R13*%
X16260000Y18300000D03*
X15240000Y18300000D03*
%TD*%
D16*
%TO.C,D1*%
X3325500Y8800000D03*
D17*
X4317500Y8800000D03*
%TD*%
D18*
%TO.C,J1*%
X19950000Y1600000D03*
%TD*%
D15*
%TO.C,C40*%
X9050000Y4150000D03*
X9050000Y6050000D03*
%TD*%
D14*
%TO.C,C32*%
X6025000Y2650000D03*
X6025000Y750000D03*
%TD*%
%TO.C,C37*%
X15900000Y2650000D03*
X15900000Y750000D03*
%TD*%
D37*
%TO.C,C3*%
X2550000Y14125000D03*
X2550000Y12575000D03*
%TD*%
D38*
%TO.C,D4*%
X1000000Y15275500D03*
D39*
X1000000Y16267500D03*
%TD*%
D18*
%TO.C,J12*%
X25350000Y6550000D03*
%TD*%
D27*
%TO.C,C17*%
X2750000Y16530000D03*
X2750000Y15570000D03*
%TD*%
D22*
%TO.C,R31*%
X14060000Y10150000D03*
X13040000Y10150000D03*
%TD*%
D28*
%TO.C,R20*%
X15390000Y10250000D03*
X16410000Y10250000D03*
%TD*%
%LPD*%
M02*
