%TF.GenerationSoftware,KiCad,Pcbnew,7.0.7*%
%TF.CreationDate,2023-12-28T18:43:45-05:00*%
%TF.ProjectId,O32controller,4f333263-6f6e-4747-926f-6c6c65722e6b,3*%
%TF.SameCoordinates,Original*%
%TF.FileFunction,Copper,L4,Bot*%
%TF.FilePolarity,Positive*%
%FSLAX46Y46*%
G04 Gerber Fmt 4.6, Leading zero omitted, Abs format (unit mm)*
G04 Created by KiCad (PCBNEW 7.0.7) date 2023-12-28 18:43:45*
%MOMM*%
%LPD*%
G01*
G04 APERTURE LIST*
G04 Aperture macros list*
%AMRoundRect*
0 Rectangle with rounded corners*
0 $1 Rounding radius*
0 $2 $3 $4 $5 $6 $7 $8 $9 X,Y pos of 4 corners*
0 Add a 4 corners polygon primitive as box body*
4,1,4,$2,$3,$4,$5,$6,$7,$8,$9,$2,$3,0*
0 Add four circle primitives for the rounded corners*
1,1,$1+$1,$2,$3*
1,1,$1+$1,$4,$5*
1,1,$1+$1,$6,$7*
1,1,$1+$1,$8,$9*
0 Add four rect primitives between the rounded corners*
20,1,$1+$1,$2,$3,$4,$5,0*
20,1,$1+$1,$4,$5,$6,$7,0*
20,1,$1+$1,$6,$7,$8,$9,0*
20,1,$1+$1,$8,$9,$2,$3,0*%
G04 Aperture macros list end*
%TA.AperFunction,SMDPad,CuDef*%
%ADD10RoundRect,0.150000X0.150000X-0.600000X0.150000X0.600000X-0.150000X0.600000X-0.150000X-0.600000X0*%
%TD*%
%TA.AperFunction,SMDPad,CuDef*%
%ADD11RoundRect,0.140000X0.140000X0.170000X-0.140000X0.170000X-0.140000X-0.170000X0.140000X-0.170000X0*%
%TD*%
%TA.AperFunction,ComponentPad*%
%ADD12RoundRect,0.269607X-1.105393X-1.105393X1.105393X-1.105393X1.105393X1.105393X-1.105393X1.105393X0*%
%TD*%
%TA.AperFunction,SMDPad,CuDef*%
%ADD13RoundRect,0.135000X0.135000X0.185000X-0.135000X0.185000X-0.135000X-0.185000X0.135000X-0.185000X0*%
%TD*%
%TA.AperFunction,SMDPad,CuDef*%
%ADD14RoundRect,0.250000X-0.475000X0.250000X-0.475000X-0.250000X0.475000X-0.250000X0.475000X0.250000X0*%
%TD*%
%TA.AperFunction,SMDPad,CuDef*%
%ADD15RoundRect,0.135000X-0.135000X-0.185000X0.135000X-0.185000X0.135000X0.185000X-0.135000X0.185000X0*%
%TD*%
%TA.AperFunction,SMDPad,CuDef*%
%ADD16RoundRect,0.140000X-0.140000X-0.170000X0.140000X-0.170000X0.140000X0.170000X-0.140000X0.170000X0*%
%TD*%
%TA.AperFunction,SMDPad,CuDef*%
%ADD17RoundRect,0.250000X0.475000X-0.250000X0.475000X0.250000X-0.475000X0.250000X-0.475000X-0.250000X0*%
%TD*%
%TA.AperFunction,SMDPad,CuDef*%
%ADD18C,0.250000*%
%TD*%
%TA.AperFunction,SMDPad,CuDef*%
%ADD19R,0.600000X0.250000*%
%TD*%
%TA.AperFunction,SMDPad,CuDef*%
%ADD20R,0.711200X0.254000*%
%TD*%
%TA.AperFunction,SMDPad,CuDef*%
%ADD21R,0.254000X0.711200*%
%TD*%
%TA.AperFunction,SMDPad,CuDef*%
%ADD22R,1.701800X1.701800*%
%TD*%
%TA.AperFunction,SMDPad,CuDef*%
%ADD23RoundRect,0.135000X-0.185000X0.135000X-0.185000X-0.135000X0.185000X-0.135000X0.185000X0.135000X0*%
%TD*%
%TA.AperFunction,SMDPad,CuDef*%
%ADD24RoundRect,0.050000X0.272236X-0.130815X-0.130815X0.272236X-0.272236X0.130815X0.130815X-0.272236X0*%
%TD*%
%TA.AperFunction,SMDPad,CuDef*%
%ADD25RoundRect,0.140000X0.170000X-0.140000X0.170000X0.140000X-0.170000X0.140000X-0.170000X-0.140000X0*%
%TD*%
%TA.AperFunction,SMDPad,CuDef*%
%ADD26RoundRect,0.140000X-0.170000X0.140000X-0.170000X-0.140000X0.170000X-0.140000X0.170000X0.140000X0*%
%TD*%
%TA.AperFunction,SMDPad,CuDef*%
%ADD27RoundRect,0.250000X0.250000X0.475000X-0.250000X0.475000X-0.250000X-0.475000X0.250000X-0.475000X0*%
%TD*%
%TA.AperFunction,SMDPad,CuDef*%
%ADD28R,1.550000X0.600000*%
%TD*%
%TA.AperFunction,SMDPad,CuDef*%
%ADD29R,1.800000X1.200000*%
%TD*%
%TA.AperFunction,SMDPad,CuDef*%
%ADD30RoundRect,0.250000X0.600000X1.450000X-0.600000X1.450000X-0.600000X-1.450000X0.600000X-1.450000X0*%
%TD*%
%TA.AperFunction,SMDPad,CuDef*%
%ADD31RoundRect,0.150000X0.150000X0.600000X-0.150000X0.600000X-0.150000X-0.600000X0.150000X-0.600000X0*%
%TD*%
%TA.AperFunction,SMDPad,CuDef*%
%ADD32R,0.250000X0.500000*%
%TD*%
%TA.AperFunction,SMDPad,CuDef*%
%ADD33RoundRect,0.135000X0.185000X-0.135000X0.185000X0.135000X-0.185000X0.135000X-0.185000X-0.135000X0*%
%TD*%
%TA.AperFunction,ViaPad*%
%ADD34C,0.550000*%
%TD*%
%TA.AperFunction,Conductor*%
%ADD35C,0.250000*%
%TD*%
%TA.AperFunction,Conductor*%
%ADD36C,0.200000*%
%TD*%
%TA.AperFunction,Conductor*%
%ADD37C,0.500000*%
%TD*%
G04 APERTURE END LIST*
D10*
%TO.P,J5,1,Pin_1*%
%TO.N,+3.3V*%
X9985000Y20250000D03*
%TO.P,J5,2,Pin_2*%
%TO.N,/NTC_IN*%
X8715000Y20250000D03*
%TD*%
D11*
%TO.P,C58,2*%
%TO.N,GND*%
X4750000Y4250000D03*
%TO.P,C58,1*%
%TO.N,/NRST*%
X5710000Y4250000D03*
%TD*%
D12*
%TO.P,J3,1,Pin_1*%
%TO.N,GND*%
X25350000Y9950000D03*
%TD*%
%TO.P,J11,1,Pin_1*%
%TO.N,/Motor phase V/Motor*%
X25350000Y13750000D03*
%TD*%
%TO.P,J2,1,Pin_1*%
%TO.N,VBUS*%
X19950000Y25400000D03*
%TD*%
%TO.P,J4,1,Pin_1*%
%TO.N,GND*%
X25350000Y17150000D03*
%TD*%
%TO.P,J10,1,Pin_1*%
%TO.N,/Motor phase U/Motor*%
X25350000Y20950000D03*
%TD*%
%TO.P,J1,1,Pin_1*%
%TO.N,VBUS*%
X19950000Y1600000D03*
%TD*%
%TO.P,J12,1,Pin_1*%
%TO.N,/Motor phase W/Motor*%
X25350000Y6550000D03*
%TD*%
D13*
%TO.P,R24,1*%
%TO.N,/Motor phase V/SENSE_P*%
X14635000Y19150000D03*
%TO.P,R24,2*%
%TO.N,/OP_V_P*%
X13615000Y19150000D03*
%TD*%
D11*
%TO.P,C13,1*%
%TO.N,/Motor phase U/Motor*%
X26485000Y19050000D03*
%TO.P,C13,2*%
%TO.N,Net-(C13-Pad2)*%
X25525000Y19050000D03*
%TD*%
%TO.P,C18,1*%
%TO.N,VBUS*%
X18780000Y9850000D03*
%TO.P,C18,2*%
%TO.N,/Motor phase W/SENSE_P*%
X17820000Y9850000D03*
%TD*%
D14*
%TO.P,C50,1*%
%TO.N,VBUS*%
X15000000Y2650000D03*
%TO.P,C50,2*%
%TO.N,GND*%
X15000000Y750000D03*
%TD*%
D15*
%TO.P,R9,1*%
%TO.N,GND*%
X11640000Y10950000D03*
%TO.P,R9,2*%
%TO.N,/SPI_MISO*%
X12660000Y10950000D03*
%TD*%
D13*
%TO.P,R15,1*%
%TO.N,/Motor phase U/SENSE_P*%
X14635000Y21990000D03*
%TO.P,R15,2*%
%TO.N,/OP_U_P*%
X13615000Y21990000D03*
%TD*%
D16*
%TO.P,C11,1*%
%TO.N,+3.3V*%
X12770000Y16050000D03*
%TO.P,C11,2*%
%TO.N,GND*%
X13730000Y16050000D03*
%TD*%
D17*
%TO.P,C45,1*%
%TO.N,VBUS*%
X9000000Y24350000D03*
%TO.P,C45,2*%
%TO.N,GND*%
X9000000Y26250000D03*
%TD*%
D18*
%TO.P,NT3,1,1*%
%TO.N,/Motor phase W/Sense_N*%
X20600000Y7000000D03*
D19*
X20900000Y7000000D03*
D18*
%TO.P,NT3,2,2*%
%TO.N,GND*%
X21200000Y7000000D03*
%TD*%
%TO.P,NT1,1,1*%
%TO.N,/Motor phase U/Sense_N*%
X20550000Y21800000D03*
D19*
X20850000Y21800000D03*
D18*
%TO.P,NT1,2,2*%
%TO.N,GND*%
X21150000Y21800000D03*
%TD*%
D17*
%TO.P,C42,1*%
%TO.N,VBUS*%
X15000000Y24350000D03*
%TO.P,C42,2*%
%TO.N,GND*%
X15000000Y26250000D03*
%TD*%
D16*
%TO.P,C12,1*%
%TO.N,VBUS*%
X13645000Y22950000D03*
%TO.P,C12,2*%
%TO.N,/Motor phase U/SENSE_P*%
X14605000Y22950000D03*
%TD*%
D11*
%TO.P,C19,1*%
%TO.N,/Motor phase W/Motor*%
X26480000Y4650000D03*
%TO.P,C19,2*%
%TO.N,Net-(C19-Pad2)*%
X25520000Y4650000D03*
%TD*%
D20*
%TO.P,U3,1,SSD*%
%TO.N,unconnected-(U3-SSD-Pad1)*%
X14950000Y14250001D03*
%TO.P,U3,2,A*%
%TO.N,unconnected-(U3-A-Pad2)*%
X14950000Y13750000D03*
%TO.P,U3,3,Z*%
%TO.N,unconnected-(U3-Z-Pad3)*%
X14950000Y13250000D03*
%TO.P,U3,4,MOSI*%
%TO.N,/SPI_MOSI*%
X14950000Y12749999D03*
D21*
%TO.P,U3,5,CS*%
%TO.N,/~{MAG1_CS}*%
X14250001Y12050000D03*
%TO.P,U3,6,B*%
%TO.N,unconnected-(U3-B-Pad6)*%
X13750000Y12050000D03*
%TO.P,U3,7,MISO*%
%TO.N,/SPI_MISO*%
X13250000Y12050000D03*
%TO.P,U3,8,GND*%
%TO.N,GND*%
X12749999Y12050000D03*
D20*
%TO.P,U3,9,PWM*%
%TO.N,unconnected-(U3-PWM-Pad9)*%
X12050000Y12749999D03*
%TO.P,U3,10,TEST*%
%TO.N,GND*%
X12050000Y13250000D03*
%TO.P,U3,11,MGL*%
%TO.N,unconnected-(U3-MGL-Pad11)*%
X12050000Y13750000D03*
%TO.P,U3,12,SCLK*%
%TO.N,/SPI_SCLK*%
X12050000Y14250001D03*
D21*
%TO.P,U3,13,VDD*%
%TO.N,+3.3V*%
X12749999Y14950000D03*
%TO.P,U3,14,NC*%
%TO.N,unconnected-(U3-NC-Pad14)*%
X13250000Y14950000D03*
%TO.P,U3,15,SSCK*%
%TO.N,GND*%
X13750000Y14950000D03*
%TO.P,U3,16,MGH*%
%TO.N,unconnected-(U3-MGH-Pad16)*%
X14250001Y14950000D03*
D22*
%TO.P,U3,17,PAD*%
%TO.N,GND*%
X13500000Y13500000D03*
%TD*%
D23*
%TO.P,R17,1*%
%TO.N,/Motor phase U/Sense_N*%
X12200000Y22010000D03*
%TO.P,R17,2*%
%TO.N,/OP_U_N*%
X12200000Y20990000D03*
%TD*%
D24*
%TO.P,U2,1,R*%
%TO.N,/USART_RX*%
X7953589Y13957071D03*
%TO.P,U2,2,~{RE}*%
%TO.N,/USART_DE*%
X7600036Y13603518D03*
%TO.P,U2,3,DE*%
X7246482Y13249964D03*
%TO.P,U2,4,D*%
%TO.N,USART_TX*%
X6892929Y12896411D03*
%TO.P,U2,5,GND*%
%TO.N,GND*%
X5846411Y13942929D03*
%TO.P,U2,6,A*%
%TO.N,/RS485_A*%
X6199964Y14296482D03*
%TO.P,U2,7,B*%
%TO.N,/RS485_B*%
X6553518Y14650036D03*
%TO.P,U2,8,VCC*%
%TO.N,+3.3V*%
X6907071Y15003589D03*
%TD*%
D25*
%TO.P,C9,1*%
%TO.N,/NTC_IN*%
X6500000Y19820000D03*
%TO.P,C9,2*%
%TO.N,GND*%
X6500000Y20780000D03*
%TD*%
D17*
%TO.P,C43,1*%
%TO.N,VBUS*%
X13000000Y24350000D03*
%TO.P,C43,2*%
%TO.N,GND*%
X13000000Y26250000D03*
%TD*%
D15*
%TO.P,R5,1*%
%TO.N,/OC_COMP*%
X13615000Y20100000D03*
%TO.P,R5,2*%
%TO.N,/Motor phase V/SENSE_P*%
X14635000Y20100000D03*
%TD*%
D26*
%TO.P,C8,1*%
%TO.N,/VBOOTW*%
X10450000Y12130000D03*
%TO.P,C8,2*%
%TO.N,/OUTW*%
X10450000Y11170000D03*
%TD*%
D14*
%TO.P,C53,1*%
%TO.N,VBUS*%
X9000000Y2650000D03*
%TO.P,C53,2*%
%TO.N,GND*%
X9000000Y750000D03*
%TD*%
D17*
%TO.P,C46,1*%
%TO.N,VBUS*%
X7000000Y24350000D03*
%TO.P,C46,2*%
%TO.N,GND*%
X7000000Y26250000D03*
%TD*%
%TO.P,C44,1*%
%TO.N,VBUS*%
X11000000Y24350000D03*
%TO.P,C44,2*%
%TO.N,GND*%
X11000000Y26250000D03*
%TD*%
D27*
%TO.P,C48,1*%
%TO.N,VBUS*%
X7550000Y22600000D03*
%TO.P,C48,2*%
%TO.N,GND*%
X5650000Y22600000D03*
%TD*%
D13*
%TO.P,R33,1*%
%TO.N,/Motor phase W/SENSE_P*%
X14610000Y7500000D03*
%TO.P,R33,2*%
%TO.N,/OP_W_P*%
X13590000Y7500000D03*
%TD*%
D27*
%TO.P,C47,1*%
%TO.N,VBUS*%
X10950000Y22600000D03*
%TO.P,C47,2*%
%TO.N,GND*%
X9050000Y22600000D03*
%TD*%
D23*
%TO.P,R25,1*%
%TO.N,GND*%
X6300000Y18010000D03*
%TO.P,R25,2*%
%TO.N,/OP_V_P*%
X6300000Y16990000D03*
%TD*%
D28*
%TO.P,J6,1,1*%
%TO.N,USART_TX*%
X5000000Y6450000D03*
%TO.P,J6,2,2*%
%TO.N,SWD_IO*%
X5000000Y7450000D03*
%TO.P,J6,3,3*%
%TO.N,SWD_CLK*%
X5000000Y8450000D03*
%TO.P,J6,4,4*%
%TO.N,GND*%
X5000000Y9450000D03*
D29*
%TO.P,J6,S1,SHIELD*%
X1125000Y5150000D03*
%TO.P,J6,S2,SHIELD*%
X1125000Y10750000D03*
%TD*%
D11*
%TO.P,C16,1*%
%TO.N,/Motor phase V/Motor*%
X26500000Y11850000D03*
%TO.P,C16,2*%
%TO.N,Net-(C16-Pad2)*%
X25540000Y11850000D03*
%TD*%
D30*
%TO.P,R36,1*%
%TO.N,GND*%
X22650000Y7450000D03*
%TO.P,R36,2*%
%TO.N,/Motor phase W/SENSE_P*%
X17250000Y7450000D03*
%TD*%
D14*
%TO.P,C52,1*%
%TO.N,VBUS*%
X11000000Y2650000D03*
%TO.P,C52,2*%
%TO.N,GND*%
X11000000Y750000D03*
%TD*%
D23*
%TO.P,R34,1*%
%TO.N,GND*%
X8050000Y18310000D03*
%TO.P,R34,2*%
%TO.N,/OP_W_P*%
X8050000Y17290000D03*
%TD*%
D31*
%TO.P,TP3,1,1*%
%TO.N,/NRST*%
X5150000Y1750000D03*
%TD*%
D28*
%TO.P,J9,1,1*%
%TO.N,/RS485_A*%
X4980000Y15000000D03*
%TO.P,J9,2,2*%
%TO.N,/RS485_B*%
X4980000Y16000000D03*
D29*
%TO.P,J9,S1,Shield*%
%TO.N,GND*%
X1105000Y13700000D03*
%TO.P,J9,S2,Shield*%
X1105000Y17300000D03*
%TD*%
D13*
%TO.P,R21,1*%
%TO.N,Net-(C16-Pad2)*%
X24660000Y11850000D03*
%TO.P,R21,2*%
%TO.N,GND*%
X23640000Y11850000D03*
%TD*%
D17*
%TO.P,C56,1*%
%TO.N,VBUS*%
X10650000Y4150000D03*
%TO.P,C56,2*%
%TO.N,GND*%
X10650000Y6050000D03*
%TD*%
D11*
%TO.P,C15,1*%
%TO.N,VBUS*%
X18750000Y16650000D03*
%TO.P,C15,2*%
%TO.N,/Motor phase V/SENSE_P*%
X17790000Y16650000D03*
%TD*%
D15*
%TO.P,R3,1*%
%TO.N,/OC_COMP*%
X13615000Y21040000D03*
%TO.P,R3,2*%
%TO.N,/Motor phase U/SENSE_P*%
X14635000Y21040000D03*
%TD*%
D23*
%TO.P,R14,1*%
%TO.N,/OP_U_P*%
X11350000Y8560000D03*
%TO.P,R14,2*%
%TO.N,+3.3V*%
X11350000Y7540000D03*
%TD*%
D14*
%TO.P,C51,1*%
%TO.N,VBUS*%
X13000000Y2650000D03*
%TO.P,C51,2*%
%TO.N,GND*%
X13000000Y750000D03*
%TD*%
D13*
%TO.P,R30,1*%
%TO.N,Net-(C19-Pad2)*%
X24660000Y4650000D03*
%TO.P,R30,2*%
%TO.N,GND*%
X23640000Y4650000D03*
%TD*%
D23*
%TO.P,R32,1*%
%TO.N,/OP_W_P*%
X8050000Y16410000D03*
%TO.P,R32,2*%
%TO.N,+3.3V*%
X8050000Y15390000D03*
%TD*%
D13*
%TO.P,R26,1*%
%TO.N,/Motor phase V/Sense_N*%
X12760000Y17850000D03*
%TO.P,R26,2*%
%TO.N,/OP_V_N*%
X11740000Y17850000D03*
%TD*%
D28*
%TO.P,J8,1,1*%
%TO.N,/RS485_A*%
X4980000Y20000000D03*
%TO.P,J8,2,2*%
%TO.N,/RS485_B*%
X4980000Y21000000D03*
D29*
%TO.P,J8,S1,Shield*%
%TO.N,GND*%
X1105000Y18700000D03*
%TO.P,J8,S2,Shield*%
X1105000Y22300000D03*
%TD*%
D15*
%TO.P,R6,1*%
%TO.N,/OC_COMP*%
X13590000Y9100000D03*
%TO.P,R6,2*%
%TO.N,/Motor phase W/SENSE_P*%
X14610000Y9100000D03*
%TD*%
D30*
%TO.P,R18,1*%
%TO.N,GND*%
X22650000Y21450000D03*
%TO.P,R18,2*%
%TO.N,/Motor phase U/SENSE_P*%
X17250000Y21450000D03*
%TD*%
D13*
%TO.P,R35,1*%
%TO.N,/Motor phase W/Sense_N*%
X14610000Y6500000D03*
%TO.P,R35,2*%
%TO.N,/OP_W_N*%
X13590000Y6500000D03*
%TD*%
D17*
%TO.P,C41,1*%
%TO.N,VBUS*%
X17000000Y24350000D03*
%TO.P,C41,2*%
%TO.N,GND*%
X17000000Y26250000D03*
%TD*%
D14*
%TO.P,C54,1*%
%TO.N,VBUS*%
X7000000Y2650000D03*
%TO.P,C54,2*%
%TO.N,GND*%
X7000000Y750000D03*
%TD*%
D32*
%TO.P,D2,1*%
%TO.N,VBUS*%
X19975000Y9850000D03*
%TO.P,D2,2*%
%TO.N,GND*%
X20625000Y9850000D03*
%TD*%
D15*
%TO.P,R16,1*%
%TO.N,GND*%
X8790000Y7850000D03*
%TO.P,R16,2*%
%TO.N,/OP_U_P*%
X9810000Y7850000D03*
%TD*%
D13*
%TO.P,R12,1*%
%TO.N,Net-(C13-Pad2)*%
X24665000Y19050000D03*
%TO.P,R12,2*%
%TO.N,GND*%
X23645000Y19050000D03*
%TD*%
D23*
%TO.P,R7,1*%
%TO.N,GND*%
X7450000Y20810000D03*
%TO.P,R7,2*%
%TO.N,/NTC_IN*%
X7450000Y19790000D03*
%TD*%
D17*
%TO.P,C57,1*%
%TO.N,VBUS*%
X8650000Y4150000D03*
%TO.P,C57,2*%
%TO.N,GND*%
X8650000Y6050000D03*
%TD*%
D27*
%TO.P,C55,1*%
%TO.N,VBUS*%
X14300000Y4400000D03*
%TO.P,C55,2*%
%TO.N,GND*%
X12400000Y4400000D03*
%TD*%
D31*
%TO.P,TP1,1,1*%
%TO.N,/LED_STATUS*%
X5050000Y25200000D03*
%TD*%
D33*
%TO.P,R23,1*%
%TO.N,/OP_V_P*%
X5300000Y16990000D03*
%TO.P,R23,2*%
%TO.N,+3.3V*%
X5300000Y18010000D03*
%TD*%
D18*
%TO.P,NT2,1,1*%
%TO.N,/Motor phase V/Sense_N*%
X20600000Y14150000D03*
D19*
X20900000Y14150000D03*
D18*
%TO.P,NT2,2,2*%
%TO.N,GND*%
X21200000Y14150000D03*
%TD*%
D14*
%TO.P,C49,1*%
%TO.N,VBUS*%
X17000000Y2650000D03*
%TO.P,C49,2*%
%TO.N,GND*%
X17000000Y750000D03*
%TD*%
D30*
%TO.P,R27,1*%
%TO.N,GND*%
X22650000Y14250000D03*
%TO.P,R27,2*%
%TO.N,/Motor phase V/SENSE_P*%
X17250000Y14250000D03*
%TD*%
D34*
%TO.N,/Motor phase W/SENSE_P*%
X15340000Y5380000D03*
%TO.N,/Motor phase U/SENSE_P*%
X17230000Y19330000D03*
%TO.N,/Motor phase W/SENSE_P*%
X17210000Y5370000D03*
X16750000Y5100000D03*
X16750000Y5640000D03*
X15810000Y5110000D03*
X16290000Y5370000D03*
X15350000Y5910000D03*
X15810000Y5640000D03*
X16280000Y5900000D03*
X15350000Y6440000D03*
X15820000Y6170000D03*
X16290000Y6430000D03*
X15810000Y8840000D03*
X15820000Y6700000D03*
X15820000Y7240000D03*
X15820000Y8310000D03*
X15820000Y7780000D03*
X16290000Y8040000D03*
X16280000Y9100000D03*
X16290000Y6960000D03*
X16290000Y7500000D03*
X16290000Y8570000D03*
X15350000Y6970000D03*
X15340000Y8570000D03*
X15340000Y8040000D03*
X15330000Y9100000D03*
X15340000Y7500000D03*
%TO.N,/Motor phase V/SENSE_P*%
X15260000Y14850000D03*
X16660000Y11890000D03*
X15730000Y12450000D03*
X15730000Y13520000D03*
X15740000Y12990000D03*
X17130000Y12150000D03*
X16680000Y12430000D03*
X16200000Y12180000D03*
X16680000Y12970000D03*
X16210000Y12710000D03*
X16680000Y13510000D03*
X16210000Y13250000D03*
X15730000Y14580000D03*
X16210000Y14320000D03*
X15740000Y14050000D03*
X16210000Y13790000D03*
X16680000Y14050000D03*
X16680000Y14600000D03*
X17140000Y15920000D03*
X16670000Y16190000D03*
X16200000Y15400000D03*
X16200000Y15930000D03*
X16670000Y15130000D03*
X15730000Y15120000D03*
X16670000Y15660000D03*
X16200000Y14850000D03*
%TO.N,/Motor phase U/SENSE_P*%
X16770000Y19060000D03*
X16770000Y19600000D03*
X15840000Y19070000D03*
X15840000Y20140000D03*
X15840000Y21220000D03*
X15840000Y22300000D03*
X15840000Y19600000D03*
X15370000Y19870000D03*
X16310000Y19330000D03*
X15370000Y19330000D03*
X16310000Y19870000D03*
X15840000Y20680000D03*
X15370000Y20950000D03*
X16310000Y20410000D03*
X15370000Y20410000D03*
X16310000Y20950000D03*
X15840000Y21760000D03*
X15370000Y22030000D03*
X16310000Y21490000D03*
X15370000Y21490000D03*
X16310000Y22030000D03*
%TO.N,GND*%
X850000Y18150000D03*
%TO.N,/Motor phase W/Sense_N*%
X14200000Y5950000D03*
X22050000Y2850000D03*
%TO.N,/Motor phase V/Sense_N*%
X12950000Y18300000D03*
X20950000Y17350000D03*
%TO.N,/Motor phase U/Sense_N*%
X21950000Y24200000D03*
X12908628Y22241372D03*
%TO.N,VBUS*%
X18550000Y6500000D03*
X13000000Y3300000D03*
X18550000Y4050000D03*
X19950000Y21800000D03*
X19950000Y13500000D03*
X18550000Y20500000D03*
X11150000Y23600000D03*
X19900000Y6550000D03*
X19950000Y8950000D03*
X19950000Y18050000D03*
X19950000Y12150000D03*
X3300000Y8000000D03*
X18550000Y13500000D03*
X19950000Y15950000D03*
X19950000Y20500000D03*
X19950000Y22950000D03*
X8150000Y4200000D03*
X19950000Y4050000D03*
X18550000Y5200000D03*
X19950000Y5200000D03*
X18550000Y19150000D03*
X18950000Y18250000D03*
X19950000Y14800000D03*
X3850000Y13650000D03*
X15000000Y3300000D03*
X18550000Y21800000D03*
X18550000Y14800000D03*
X11000000Y3300000D03*
X19950000Y19200000D03*
X9000000Y3300000D03*
X18850000Y15750000D03*
X8000000Y23600000D03*
X18550000Y7800000D03*
X19950000Y11050000D03*
X13275000Y23550000D03*
X18550000Y12150000D03*
X19950000Y7800000D03*
%TO.N,+3.3V*%
X2750000Y20500000D03*
X2500000Y22450000D03*
X10550000Y7650000D03*
X4250000Y18350000D03*
X3400000Y11300000D03*
X1025000Y11850000D03*
X4000000Y4150000D03*
%TO.N,/OP_V_P*%
X10950000Y20025000D03*
X4850000Y16900000D03*
%TO.N,/OP_V_N*%
X4150000Y16750000D03*
X10800000Y19200000D03*
%TO.N,/NRST*%
X3994622Y12944622D03*
X7250000Y5300000D03*
%TO.N,/OP_U_N*%
X9580000Y8630000D03*
X11800000Y20000000D03*
%TO.N,/OP_U_P*%
X10300000Y8700000D03*
X12925000Y21475000D03*
%TO.N,/OC_COMP*%
X13100000Y19800000D03*
X12050000Y9100000D03*
%TO.N,GND*%
X16500000Y1350000D03*
X2450000Y13200000D03*
X12875000Y8400000D03*
X13750000Y25650000D03*
X8400000Y5300000D03*
X5850000Y25650000D03*
X9800000Y25650000D03*
X10800000Y21025000D03*
X7850000Y25650000D03*
X4825500Y9325500D03*
X900000Y4225000D03*
X14450000Y1350000D03*
X10800000Y5300000D03*
X7075000Y4025000D03*
X14850000Y16650000D03*
X8850000Y21625000D03*
X7450000Y18000000D03*
X10500000Y1400000D03*
X15750000Y25650000D03*
X9250000Y9300000D03*
X2388180Y7800500D03*
X600000Y23300000D03*
X13700000Y18350000D03*
X11800000Y25650000D03*
X3250000Y10500000D03*
X8500000Y1400000D03*
X3200000Y12750000D03*
X6500000Y1400000D03*
X13250000Y5300000D03*
X12450000Y1350000D03*
X6600000Y21625000D03*
%TO.N,SWD_IO*%
X10300000Y17825000D03*
%TO.N,SWD_CLK*%
X10425000Y15375000D03*
%TO.N,/OP_W_P*%
X13000000Y7675000D03*
X7300000Y15700000D03*
%TO.N,/OP_W_N*%
X12700000Y7025000D03*
X6600000Y15950000D03*
%TO.N,/Motor phase U/GH_MOS*%
X21400000Y16650000D03*
X15580000Y16460000D03*
%TO.N,/Motor phase V/GH_MOS*%
X16200000Y10750000D03*
X21400000Y9850000D03*
%TO.N,/Motor phase W/GH_MOS*%
X14150000Y8350000D03*
X22850000Y3750000D03*
%TO.N,/OUTU*%
X15550000Y17550000D03*
X23200000Y17050000D03*
%TO.N,/VBOOTW*%
X10950000Y12150000D03*
%TO.N,/OUTV*%
X14850000Y11450000D03*
X23200000Y10000000D03*
%TO.N,/OUTW*%
X22900000Y4500000D03*
X10900000Y11250000D03*
%TO.N,/Motor phase U/SENSE_P*%
X16310000Y23110000D03*
X15370000Y22570000D03*
X16310000Y22570000D03*
X15370000Y23110000D03*
X15840000Y22840000D03*
%TO.N,/USART_RX*%
X9650000Y15400000D03*
%TO.N,/~{MAG1_CS}*%
X3500000Y14350000D03*
X13550000Y10900000D03*
%TO.N,/LED_STATUS*%
X2749115Y19474755D03*
%TO.N,/RS485_B*%
X3950000Y19050000D03*
X3950000Y20700000D03*
%TO.N,/SPI_MOSI*%
X8600000Y11200000D03*
X4600000Y5250000D03*
%TO.N,/SPI_MISO*%
X7750000Y10850000D03*
X5400000Y5700000D03*
%TO.N,/SPI_SCLK*%
X10850000Y12900000D03*
%TO.N,USART_TX*%
X9550000Y17950000D03*
%TO.N,/USART_DE*%
X4700000Y10500000D03*
%TO.N,/NTC_IN*%
X3250000Y9600000D03*
X8150000Y19975000D03*
%TO.N,/~{MAG2_CS}*%
X2200000Y8950000D03*
X10050000Y16050000D03*
%TD*%
D35*
%TO.N,/Motor phase V/SENSE_P*%
X17790000Y16650000D02*
X17000000Y16650000D01*
X16125000Y17788173D02*
X15788173Y18125000D01*
X16125000Y17525000D02*
X16125000Y17788173D01*
X15788173Y18125000D02*
X15635000Y18125000D01*
X17000000Y16650000D02*
X16125000Y17525000D01*
X15635000Y18125000D02*
X14610000Y19150000D01*
X14610000Y19150000D02*
X14610000Y20150000D01*
%TO.N,SWD_CLK*%
X5000000Y8450000D02*
X6500000Y8450000D01*
X6500000Y8450000D02*
X6600000Y8550000D01*
X6600000Y8550000D02*
X6600000Y11120000D01*
X10425000Y14945000D02*
X10425000Y15375000D01*
X6600000Y11120000D02*
X10425000Y14945000D01*
%TO.N,/USART_DE*%
X4700000Y10500000D02*
X6200000Y12000000D01*
X6200000Y12000000D02*
X6876346Y12000000D01*
X6876346Y12000000D02*
X7500166Y12623820D01*
X7500166Y12623820D02*
X7500166Y12996280D01*
X7500166Y12996280D02*
X7246482Y13249964D01*
%TO.N,SWD_IO*%
X5000000Y7450000D02*
X6250000Y7450000D01*
X6250000Y7450000D02*
X7050000Y8250000D01*
X11050000Y16500000D02*
X10300000Y17250000D01*
X7050000Y8250000D02*
X7050000Y10972290D01*
X11050000Y14972290D02*
X11050000Y16500000D01*
X7050000Y10972290D02*
X11050000Y14972290D01*
X10300000Y17250000D02*
X10300000Y17825000D01*
%TO.N,/OP_W_N*%
X12700000Y7025000D02*
X12900000Y7025000D01*
X12900000Y7025000D02*
X13425000Y6500000D01*
X13425000Y6500000D02*
X13590000Y6500000D01*
%TO.N,/OP_V_P*%
X10950000Y20025000D02*
X11825000Y19150000D01*
X11825000Y19150000D02*
X13590000Y19150000D01*
%TO.N,/Motor phase U/Sense_N*%
X12908628Y22241372D02*
X12781084Y22241372D01*
X12781084Y22241372D02*
X12549712Y22010000D01*
X12549712Y22010000D02*
X12200000Y22010000D01*
%TO.N,/SPI_SCLK*%
X10850000Y12900000D02*
X10850000Y13682600D01*
X10850000Y13682600D02*
X11417401Y14250001D01*
X11417401Y14250001D02*
X12050000Y14250001D01*
%TO.N,/SPI_MOSI*%
X4600000Y5250000D02*
X4710000Y5140000D01*
X4710000Y5140000D02*
X5876396Y5140000D01*
X5876396Y5140000D02*
X6950000Y6213604D01*
X6950000Y6877208D02*
X8200000Y8127208D01*
X6950000Y6213604D02*
X6950000Y6877208D01*
X8200000Y8127208D02*
X8200000Y9300000D01*
X8200000Y9300000D02*
X8775000Y9875000D01*
%TO.N,/Motor phase W/Sense_N*%
X14610000Y6360000D02*
X14200000Y5950000D01*
X14610000Y6500000D02*
X14610000Y6360000D01*
D36*
X20550000Y4016332D02*
X20550000Y6950000D01*
X21716332Y2850000D02*
X20550000Y4016332D01*
X22050000Y2850000D02*
X21716332Y2850000D01*
%TO.N,/Motor phase V/Sense_N*%
X20972182Y17350000D02*
X20950000Y17350000D01*
X12760000Y17850000D02*
X12760000Y18110000D01*
X20500000Y14250000D02*
X20500000Y16877818D01*
X12760000Y18110000D02*
X12950000Y18300000D01*
X20600000Y14150000D02*
X20500000Y14250000D01*
X20500000Y16877818D02*
X20972182Y17350000D01*
D35*
%TO.N,/Motor phase U/Sense_N*%
X21350000Y23600000D02*
X21950000Y24200000D01*
D36*
X20550000Y21850000D02*
X20550000Y21800000D01*
X20500000Y21900000D02*
X20550000Y21850000D01*
X20500000Y23600000D02*
X20500000Y21900000D01*
D35*
X20500000Y23600000D02*
X21350000Y23600000D01*
D37*
%TO.N,/Motor phase U/Motor*%
X26485000Y19815000D02*
X25350000Y20950000D01*
X26485000Y19050000D02*
X26485000Y19815000D01*
%TO.N,/Motor phase V/Motor*%
X26500000Y11850000D02*
X26500000Y12600000D01*
X26500000Y12600000D02*
X25350000Y13750000D01*
%TO.N,/Motor phase W/Motor*%
X26480000Y5420000D02*
X25350000Y6550000D01*
X26480000Y4650000D02*
X26480000Y5420000D01*
%TO.N,VBUS*%
X8000000Y23600000D02*
X7950000Y23600000D01*
X8000000Y23600000D02*
X7575000Y23600000D01*
X13275000Y24075000D02*
X13000000Y24350000D01*
X13440000Y23550000D02*
X13620000Y23730000D01*
X10950000Y22600000D02*
X10800000Y22750000D01*
X11150000Y23600000D02*
X11150000Y22800000D01*
X11150000Y24200000D02*
X11000000Y24350000D01*
X13275000Y23550000D02*
X13440000Y23550000D01*
X13620000Y23730000D02*
X13000000Y24350000D01*
X7575000Y23600000D02*
X7550000Y23575000D01*
X13275000Y23550000D02*
X13275000Y24075000D01*
X7550000Y23200000D02*
X7550000Y22600000D01*
X10650000Y4150000D02*
X10650000Y3000000D01*
X7550000Y23575000D02*
X7550000Y23800000D01*
X11150000Y23600000D02*
X11150000Y24200000D01*
X14300000Y4400000D02*
X14300000Y3350000D01*
X10800000Y24150000D02*
X11000000Y24350000D01*
X8000000Y23600000D02*
X8000000Y23625000D01*
X7550000Y23800000D02*
X7000000Y24350000D01*
X10650000Y3000000D02*
X11000000Y2650000D01*
X19341350Y24791350D02*
X19950000Y25400000D01*
X14300000Y3350000D02*
X15000000Y2650000D01*
X10800000Y22750000D02*
X10800000Y24150000D01*
X19850000Y25300000D02*
X19950000Y25400000D01*
X8000000Y23625000D02*
X8725000Y24350000D01*
X13620000Y22950000D02*
X13620000Y23730000D01*
X8725000Y24350000D02*
X9000000Y24350000D01*
X7950000Y23600000D02*
X7550000Y23200000D01*
X11150000Y22800000D02*
X10950000Y22600000D01*
X7550000Y22600000D02*
X7550000Y23575000D01*
D35*
%TO.N,+3.3V*%
X8850000Y18392685D02*
X8982315Y18525000D01*
D37*
X5300000Y18010000D02*
X5300000Y18300000D01*
X12350000Y16050000D02*
X12770000Y16050000D01*
X5300000Y18300000D02*
X6030000Y19030000D01*
D35*
X12770000Y16050000D02*
X12770000Y14970001D01*
D37*
X11000000Y17400000D02*
X12350000Y16050000D01*
X10010050Y18525000D02*
X10589950Y18525000D01*
D35*
X9985000Y20250000D02*
X9985000Y18749950D01*
D37*
X9107315Y18650000D02*
X9885050Y18650000D01*
D35*
X8050000Y15390000D02*
X7803173Y15390000D01*
X12770000Y14970001D02*
X12749999Y14950000D01*
X10590000Y7690000D02*
X10550000Y7650000D01*
X7803173Y15390000D02*
X7416762Y15003589D01*
D37*
X9885050Y18650000D02*
X10010050Y18525000D01*
X6030000Y19030000D02*
X8720000Y19030000D01*
D35*
X11350000Y7690000D02*
X10590000Y7690000D01*
D37*
X2850000Y11850000D02*
X1100000Y11850000D01*
X10589950Y18525000D02*
X11000000Y18114950D01*
X5300000Y18010000D02*
X4590000Y18010000D01*
X4590000Y18010000D02*
X4250000Y18350000D01*
D35*
X8050000Y15390000D02*
X8850000Y16190000D01*
D37*
X11000000Y18114950D02*
X11000000Y17400000D01*
X3400000Y11300000D02*
X2850000Y11850000D01*
D35*
X8850000Y16190000D02*
X8850000Y18392685D01*
D37*
X8720000Y19030000D02*
X8982315Y18767685D01*
D35*
X7416762Y15003589D02*
X6907071Y15003589D01*
X9985000Y18749950D02*
X9885050Y18650000D01*
D37*
%TO.N,/OP_V_P*%
X5300000Y16990000D02*
X6300000Y16990000D01*
D35*
X5210000Y16900000D02*
X5300000Y16990000D01*
X4850000Y16900000D02*
X5210000Y16900000D01*
%TO.N,/OP_V_N*%
X11740000Y17850000D02*
X11740000Y18436777D01*
X11026777Y19150000D02*
X10750000Y19150000D01*
X11740000Y18436777D02*
X11026777Y19150000D01*
%TO.N,/NRST*%
X5150000Y3200000D02*
X5150000Y1750000D01*
X7250000Y5300000D02*
X5150000Y3200000D01*
%TO.N,/OP_U_N*%
X11800000Y20000000D02*
X11800000Y20590000D01*
X11800000Y20590000D02*
X12200000Y20990000D01*
%TO.N,/OP_U_P*%
X12925000Y21475000D02*
X13054462Y21475000D01*
X13054462Y21475000D02*
X13569462Y21990000D01*
X10300000Y8340000D02*
X9810000Y7850000D01*
X11350000Y8710000D02*
X10310000Y8710000D01*
X13569462Y21990000D02*
X13590000Y21990000D01*
X10310000Y8710000D02*
X10300000Y8700000D01*
X10300000Y8700000D02*
X10300000Y8340000D01*
%TO.N,/OC_COMP*%
X13100000Y19800000D02*
X13290000Y19800000D01*
X13290000Y19800000D02*
X13590000Y20100000D01*
X12050000Y9100000D02*
X13590000Y9100000D01*
X13590000Y21040000D02*
X13590000Y20100000D01*
%TO.N,GND*%
X12050000Y13250000D02*
X13250000Y13250000D01*
D36*
X22550000Y14150000D02*
X22650000Y14250000D01*
D37*
X7600000Y18010000D02*
X7900000Y18310000D01*
D36*
X21200000Y14150000D02*
X22550000Y14150000D01*
D35*
X12749999Y12749999D02*
X13500000Y13500000D01*
X13730000Y14970000D02*
X13750000Y14950000D01*
X8790000Y8840000D02*
X9250000Y9300000D01*
X13250000Y13250000D02*
X13500000Y13500000D01*
D37*
X6300000Y18010000D02*
X7600000Y18010000D01*
D35*
X13750000Y14950000D02*
X13750000Y13750000D01*
X14850000Y16650000D02*
X14330000Y16650000D01*
D36*
X22300000Y21800000D02*
X22650000Y21450000D01*
X21150000Y7000000D02*
X22200000Y7000000D01*
X22200000Y7000000D02*
X22650000Y7450000D01*
D35*
X8790000Y7850000D02*
X8790000Y8840000D01*
D36*
X21150000Y21800000D02*
X22300000Y21800000D01*
D35*
X12749999Y12050000D02*
X12749999Y12749999D01*
X14330000Y16650000D02*
X13730000Y16050000D01*
X13750000Y13750000D02*
X13500000Y13500000D01*
X13730000Y16050000D02*
X13730000Y14970000D01*
%TO.N,/OP_W_P*%
X13175000Y7500000D02*
X13000000Y7675000D01*
X8050000Y16410000D02*
X8050000Y17140000D01*
X7340000Y15700000D02*
X8050000Y16410000D01*
X13590000Y7500000D02*
X13175000Y7500000D01*
X7300000Y15700000D02*
X7340000Y15700000D01*
X8050000Y17140000D02*
X7900000Y17290000D01*
%TO.N,/VBOOTW*%
X10350000Y12130000D02*
X10930000Y12130000D01*
X10930000Y12130000D02*
X10950000Y12150000D01*
%TO.N,/OUTW*%
X10820000Y11170000D02*
X10900000Y11250000D01*
X10350000Y11170000D02*
X10820000Y11170000D01*
D37*
%TO.N,Net-(C13-Pad2)*%
X25525000Y19050000D02*
X24665000Y19050000D01*
D35*
%TO.N,/Motor phase U/SENSE_P*%
X14610000Y21040000D02*
X14610000Y21990000D01*
X17300000Y21500000D02*
X17250000Y21450000D01*
D36*
X14950000Y23550000D02*
X17100000Y23550000D01*
D35*
X14650000Y23250000D02*
X14900000Y23500000D01*
D36*
X14900000Y23500000D02*
X14950000Y23550000D01*
X17100000Y23550000D02*
X17250000Y23400000D01*
X17250000Y23400000D02*
X17250000Y23200000D01*
D35*
X17250000Y23200000D02*
X17250000Y21450000D01*
X14610000Y21990000D02*
X14650000Y22030000D01*
X14650000Y22030000D02*
X14650000Y23250000D01*
%TO.N,/USART_RX*%
X9650000Y15263604D02*
X9650000Y15400000D01*
X8103589Y13807071D02*
X8193467Y13807071D01*
X8193467Y13807071D02*
X9650000Y15263604D01*
%TO.N,/Motor phase V/SENSE_P*%
X17790000Y14790000D02*
X17250000Y14250000D01*
X17790000Y16650000D02*
X17790000Y14790000D01*
D36*
%TO.N,/Motor phase W/SENSE_P*%
X14610000Y9100000D02*
X15110000Y9600000D01*
D35*
X14610000Y7996827D02*
X14610000Y7500000D01*
X17770000Y9850000D02*
X17770000Y7970000D01*
X14610000Y9100000D02*
X14610000Y8703173D01*
X14610000Y8703173D02*
X14725000Y8588173D01*
D36*
X17770000Y7970000D02*
X17250000Y7450000D01*
X17570000Y9600000D02*
X15110000Y9600000D01*
X17820000Y9850000D02*
X17570000Y9600000D01*
D35*
X14725000Y8111827D02*
X14610000Y7996827D01*
X14725000Y8588173D02*
X14725000Y8111827D01*
%TO.N,/~{MAG1_CS}*%
X14250001Y11600001D02*
X13550000Y10900000D01*
X14250001Y12050000D02*
X14250001Y11600001D01*
%TO.N,/LED_STATUS*%
X5100000Y24700000D02*
X5100000Y25100000D01*
X3325000Y22925000D02*
X5100000Y24700000D01*
X2749115Y19474755D02*
X3325000Y20050640D01*
X3325000Y20050640D02*
X3325000Y22925000D01*
%TO.N,/RS485_A*%
X4086827Y20000000D02*
X4980000Y20000000D01*
X3100000Y15863604D02*
X3100000Y19013173D01*
X4980000Y15000000D02*
X3963604Y15000000D01*
X3100000Y19013173D02*
X4086827Y20000000D01*
X3963604Y15000000D02*
X3100000Y15863604D01*
X5496446Y15000000D02*
X4980000Y15000000D01*
X6349964Y14146482D02*
X5496446Y15000000D01*
D37*
%TO.N,/RS485_B*%
X3950000Y20700000D02*
X4250000Y21000000D01*
D35*
X3575000Y18675000D02*
X3575000Y16511827D01*
X3950000Y19050000D02*
X3575000Y18675000D01*
X5705000Y16000000D02*
X4980000Y16000000D01*
X6080000Y15123554D02*
X6080000Y15625000D01*
X3575000Y16511827D02*
X4086827Y16000000D01*
X6703518Y14500036D02*
X6080000Y15123554D01*
D37*
X4250000Y21000000D02*
X4980000Y21000000D01*
D35*
X6080000Y15625000D02*
X5705000Y16000000D01*
X4086827Y16000000D02*
X4980000Y16000000D01*
%TO.N,/SPI_MOSI*%
X14325000Y10875000D02*
X15088173Y10875000D01*
X14950000Y12163173D02*
X14950000Y12749999D01*
X9513173Y9850000D02*
X9488173Y9875000D01*
X14125000Y10675000D02*
X14325000Y10875000D01*
X15450000Y11663173D02*
X14950000Y12163173D01*
X8600000Y10050000D02*
X8600000Y11200000D01*
X13313173Y9850000D02*
X9513173Y9850000D01*
X9488173Y9875000D02*
X8775000Y9875000D01*
X14125000Y10661827D02*
X14125000Y10675000D01*
X13313173Y9850000D02*
X14125000Y10661827D01*
X8775000Y9875000D02*
X8600000Y10050000D01*
X15088173Y10875000D02*
X15450000Y11236827D01*
X15450000Y11236827D02*
X15450000Y11663173D01*
D36*
%TO.N,/SPI_MISO*%
X8900000Y11750000D02*
X8372182Y11750000D01*
D35*
X13250000Y11417401D02*
X13250000Y12050000D01*
X12132599Y10300000D02*
X13250000Y11417401D01*
X9175000Y11475000D02*
X9175000Y10961827D01*
D36*
X7750000Y11127818D02*
X7750000Y10850000D01*
D35*
X9831396Y10300000D02*
X12132599Y10300000D01*
X9172285Y10959111D02*
X9831396Y10300000D01*
X7750000Y8313604D02*
X7750000Y10850000D01*
D36*
X8372182Y11750000D02*
X7750000Y11127818D01*
D35*
X7750000Y8313604D02*
X6500000Y7063604D01*
X5800000Y5700000D02*
X5400000Y5700000D01*
X9175000Y10961827D02*
X9172285Y10959111D01*
X9000000Y11650000D02*
X9175000Y11475000D01*
D36*
X9000000Y11650000D02*
X8900000Y11750000D01*
D35*
X6500000Y6400000D02*
X5800000Y5700000D01*
X6500000Y7063604D02*
X6500000Y6400000D01*
%TO.N,USART_TX*%
X4461827Y11075000D02*
X3900000Y10513173D01*
X6749246Y13040094D02*
X7042929Y12746411D01*
X9550000Y17950000D02*
X9450000Y17850000D01*
X7667444Y14604307D02*
X6350000Y13286863D01*
X6502477Y13286863D02*
X6350000Y13286863D01*
X3900000Y10513173D02*
X3900000Y6900000D01*
X4638604Y11075000D02*
X4461827Y11075000D01*
X6350000Y13286863D02*
X6350000Y12786396D01*
X6892929Y12896411D02*
X6502477Y13286863D01*
X8234845Y14604307D02*
X7667444Y14604307D01*
X4350000Y6450000D02*
X5000000Y6450000D01*
X8950000Y15600000D02*
X8950000Y15319462D01*
X3900000Y6900000D02*
X4350000Y6450000D01*
X6350000Y12786396D02*
X4638604Y11075000D01*
X9450000Y16100000D02*
X8950000Y15600000D01*
X8950000Y15319462D02*
X8234845Y14604307D01*
X9450000Y17850000D02*
X9450000Y16100000D01*
%TO.N,/USART_DE*%
X7750036Y13453518D02*
X7396482Y13099964D01*
%TO.N,/NTC_IN*%
X7635000Y19975000D02*
X7450000Y19790000D01*
X8150000Y19975000D02*
X7635000Y19975000D01*
X6500000Y19820000D02*
X7420000Y19820000D01*
X7420000Y19820000D02*
X7450000Y19790000D01*
X8150000Y19975000D02*
X8440000Y19975000D01*
X8440000Y19975000D02*
X8715000Y20250000D01*
D37*
%TO.N,Net-(C16-Pad2)*%
X25540000Y11850000D02*
X24660000Y11850000D01*
%TO.N,Net-(C19-Pad2)*%
X25520000Y4650000D02*
X24660000Y4650000D01*
%TD*%
%TA.AperFunction,Conductor*%
%TO.N,/Motor phase V/SENSE_P*%
G36*
X18059191Y16431093D02*
G01*
X18095155Y16381593D01*
X18100000Y16351000D01*
X18100000Y11949000D01*
X18081093Y11890809D01*
X18031593Y11854845D01*
X18001000Y11850000D01*
X15709536Y11850000D01*
X15651345Y11868907D01*
X15649877Y11869995D01*
X15640616Y11876989D01*
X15635437Y11881495D01*
X15264496Y12252435D01*
X15236719Y12306952D01*
X15235500Y12322439D01*
X15235500Y12364310D01*
X15254407Y12422501D01*
X15303907Y12458465D01*
X15316715Y12461140D01*
X15316634Y12461549D01*
X15350457Y12468278D01*
X15368224Y12471812D01*
X15421314Y12507285D01*
X15456787Y12560375D01*
X15460532Y12579203D01*
X15466099Y12607185D01*
X15466100Y12607195D01*
X15466100Y12892804D01*
X15466099Y12892814D01*
X15456787Y12939622D01*
X15456786Y12939625D01*
X15453195Y12944999D01*
X15436587Y13003887D01*
X15453196Y13055003D01*
X15456787Y13060376D01*
X15460532Y13079204D01*
X15466099Y13107186D01*
X15466100Y13107196D01*
X15466100Y13392805D01*
X15466099Y13392815D01*
X15456787Y13439623D01*
X15456787Y13439624D01*
X15453196Y13444998D01*
X15436587Y13503884D01*
X15453196Y13555003D01*
X15456787Y13560376D01*
X15460532Y13579204D01*
X15466099Y13607186D01*
X15466100Y13607196D01*
X15466100Y13892805D01*
X15466099Y13892815D01*
X15456787Y13939623D01*
X15456786Y13939626D01*
X15453195Y13945000D01*
X15436587Y14003888D01*
X15453196Y14055004D01*
X15456787Y14060377D01*
X15460532Y14079205D01*
X15466099Y14107187D01*
X15466100Y14107197D01*
X15466100Y14392806D01*
X15466099Y14392816D01*
X15456787Y14439624D01*
X15456786Y14439627D01*
X15421315Y14492714D01*
X15421312Y14492717D01*
X15368225Y14528188D01*
X15368222Y14528189D01*
X15321414Y14537501D01*
X15321406Y14537501D01*
X15149000Y14537501D01*
X15090809Y14556408D01*
X15054845Y14605908D01*
X15050000Y14636501D01*
X15050000Y15301000D01*
X15068907Y15359191D01*
X15118407Y15395155D01*
X15149000Y15400000D01*
X15949999Y15400000D01*
X15950000Y15400000D01*
X15950000Y16200303D01*
X15958946Y16241428D01*
X15993681Y16317487D01*
X16002156Y16336044D01*
X16006332Y16365090D01*
X16033326Y16419995D01*
X16087440Y16448550D01*
X16104324Y16450000D01*
X18001000Y16450000D01*
X18059191Y16431093D01*
G37*
%TD.AperFunction*%
%TD*%
%TA.AperFunction,Conductor*%
%TO.N,/Motor phase W/SENSE_P*%
G36*
X17959191Y9331093D02*
G01*
X17995155Y9281593D01*
X18000000Y9251000D01*
X18000000Y4949000D01*
X17981093Y4890809D01*
X17931593Y4854845D01*
X17901000Y4850000D01*
X15199000Y4850000D01*
X15140809Y4868907D01*
X15104845Y4918407D01*
X15100000Y4949000D01*
X15100000Y9251000D01*
X15118907Y9309191D01*
X15168407Y9345155D01*
X15199000Y9350000D01*
X17901000Y9350000D01*
X17959191Y9331093D01*
G37*
%TD.AperFunction*%
%TD*%
%TA.AperFunction,Conductor*%
%TO.N,/Motor phase U/SENSE_P*%
G36*
X17959191Y23331093D02*
G01*
X17995155Y23281593D01*
X18000000Y23251000D01*
X18000000Y18949000D01*
X17981093Y18890809D01*
X17931593Y18854845D01*
X17901000Y18850000D01*
X15354766Y18850000D01*
X15296575Y18868907D01*
X15284762Y18878996D01*
X15128996Y19034762D01*
X15101219Y19089279D01*
X15100000Y19104766D01*
X15100000Y23251000D01*
X15118907Y23309191D01*
X15168407Y23345155D01*
X15199000Y23350000D01*
X17901000Y23350000D01*
X17959191Y23331093D01*
G37*
%TD.AperFunction*%
%TD*%
%TA.AperFunction,Conductor*%
%TO.N,GND*%
G36*
X18093691Y26780593D02*
G01*
X18129655Y26731093D01*
X18134500Y26700500D01*
X18134500Y25514500D01*
X18115593Y25456309D01*
X18066093Y25420345D01*
X18035500Y25415500D01*
X15947748Y25415500D01*
X15924208Y25413817D01*
X15924209Y25413817D01*
X15910257Y25411812D01*
X15896312Y25409807D01*
X15896310Y25409807D01*
X15896306Y25409806D01*
X15896304Y25409806D01*
X15890845Y25408618D01*
X15873231Y25404788D01*
X15873232Y25404788D01*
X15873230Y25404787D01*
X15870589Y25404012D01*
X15842693Y25400000D01*
X15657305Y25400000D01*
X15629412Y25404011D01*
X15626762Y25404789D01*
X15626764Y25404788D01*
X15603692Y25409806D01*
X15603690Y25409807D01*
X15603687Y25409807D01*
X15578253Y25413463D01*
X15575791Y25413817D01*
X15575792Y25413817D01*
X15552252Y25415500D01*
X15552250Y25415500D01*
X13947750Y25415500D01*
X13947748Y25415500D01*
X13924208Y25413817D01*
X13924209Y25413817D01*
X13910257Y25411812D01*
X13896312Y25409807D01*
X13896310Y25409807D01*
X13896306Y25409806D01*
X13896304Y25409806D01*
X13880924Y25406461D01*
X13873234Y25404788D01*
X13873236Y25404789D01*
X13802476Y25384011D01*
X13774583Y25380000D01*
X13725418Y25380000D01*
X13697526Y25384010D01*
X13626763Y25404789D01*
X13626764Y25404788D01*
X13603692Y25409806D01*
X13603690Y25409807D01*
X13603687Y25409807D01*
X13578253Y25413463D01*
X13575791Y25413817D01*
X13575792Y25413817D01*
X13552252Y25415500D01*
X13552250Y25415500D01*
X11997750Y25415500D01*
X11997748Y25415500D01*
X11974208Y25413817D01*
X11974209Y25413817D01*
X11960257Y25411812D01*
X11946312Y25409807D01*
X11946310Y25409807D01*
X11946306Y25409806D01*
X11946304Y25409806D01*
X11930924Y25406461D01*
X11923234Y25404788D01*
X11923236Y25404789D01*
X11852476Y25384011D01*
X11824583Y25380000D01*
X11775418Y25380000D01*
X11747526Y25384010D01*
X11676763Y25404789D01*
X11676764Y25404788D01*
X11653692Y25409806D01*
X11653690Y25409807D01*
X11653687Y25409807D01*
X11628253Y25413463D01*
X11625791Y25413817D01*
X11625792Y25413817D01*
X11602252Y25415500D01*
X11602250Y25415500D01*
X9997750Y25415500D01*
X9997748Y25415500D01*
X9974208Y25413817D01*
X9974209Y25413817D01*
X9960257Y25411812D01*
X9946312Y25409807D01*
X9946310Y25409807D01*
X9946306Y25409806D01*
X9946304Y25409806D01*
X9930924Y25406461D01*
X9923234Y25404788D01*
X9923236Y25404789D01*
X9852476Y25384011D01*
X9824583Y25380000D01*
X9775418Y25380000D01*
X9747526Y25384010D01*
X9676763Y25404789D01*
X9676764Y25404788D01*
X9653692Y25409806D01*
X9653690Y25409807D01*
X9653687Y25409807D01*
X9628253Y25413463D01*
X9625791Y25413817D01*
X9625792Y25413817D01*
X9602252Y25415500D01*
X9602250Y25415500D01*
X8047750Y25415500D01*
X8047748Y25415500D01*
X8024208Y25413817D01*
X8024209Y25413817D01*
X8010257Y25411812D01*
X7996312Y25409807D01*
X7996310Y25409807D01*
X7996306Y25409806D01*
X7996304Y25409806D01*
X7980924Y25406461D01*
X7973234Y25404788D01*
X7973236Y25404789D01*
X7902476Y25384011D01*
X7874583Y25380000D01*
X7825418Y25380000D01*
X7797526Y25384010D01*
X7726763Y25404789D01*
X7726764Y25404788D01*
X7703692Y25409806D01*
X7703690Y25409807D01*
X7703687Y25409807D01*
X7678253Y25413463D01*
X7675791Y25413817D01*
X7675792Y25413817D01*
X7652252Y25415500D01*
X7652250Y25415500D01*
X6047750Y25415500D01*
X6047748Y25415500D01*
X6024208Y25413817D01*
X6024209Y25413817D01*
X6010257Y25411812D01*
X5996312Y25409807D01*
X5996310Y25409807D01*
X5996306Y25409806D01*
X5996304Y25409806D01*
X5980924Y25406461D01*
X5973234Y25404788D01*
X5973236Y25404789D01*
X5902476Y25384011D01*
X5874583Y25380000D01*
X5825418Y25380000D01*
X5797526Y25384010D01*
X5726763Y25404789D01*
X5726764Y25404788D01*
X5703692Y25409806D01*
X5703690Y25409807D01*
X5703687Y25409807D01*
X5678253Y25413463D01*
X5675791Y25413817D01*
X5675792Y25413817D01*
X5652252Y25415500D01*
X5652250Y25415500D01*
X5609499Y25415500D01*
X5551308Y25434407D01*
X5515344Y25483907D01*
X5510499Y25514500D01*
X5510499Y25846353D01*
X5510499Y25846356D01*
X5507488Y25872320D01*
X5460599Y25978514D01*
X5378514Y26060599D01*
X5272320Y26107488D01*
X5272317Y26107489D01*
X5272319Y26107489D01*
X5246359Y26110500D01*
X4853647Y26110500D01*
X4853644Y26110499D01*
X4827680Y26107488D01*
X4721486Y26060599D01*
X4639401Y25978514D01*
X4592511Y25872318D01*
X4589500Y25846362D01*
X4589500Y24634267D01*
X4570593Y24576076D01*
X4560504Y24564263D01*
X3164867Y23168628D01*
X3159691Y23164123D01*
X3149967Y23156781D01*
X3119230Y23123065D01*
X3117654Y23121414D01*
X3104414Y23108173D01*
X3102601Y23105527D01*
X3098345Y23100154D01*
X3078060Y23077904D01*
X3078057Y23077899D01*
X3074890Y23069723D01*
X3064257Y23049550D01*
X3059303Y23042318D01*
X3059302Y23042317D01*
X3052408Y23013008D01*
X3050379Y23006455D01*
X3039500Y22978370D01*
X3039500Y22969605D01*
X3036870Y22946937D01*
X3034865Y22938414D01*
X3039025Y22908591D01*
X3039500Y22901745D01*
X3039500Y22757840D01*
X3020593Y22699649D01*
X2971093Y22663685D01*
X2909907Y22663685D01*
X2865681Y22693008D01*
X2788122Y22782515D01*
X2682774Y22850218D01*
X2562616Y22885500D01*
X2562615Y22885500D01*
X2437385Y22885500D01*
X2437383Y22885500D01*
X2317225Y22850218D01*
X2211875Y22782514D01*
X2211875Y22782513D01*
X2129868Y22687872D01*
X2077843Y22573954D01*
X2077842Y22573952D01*
X2060022Y22450003D01*
X2060022Y22449998D01*
X2077842Y22326049D01*
X2077843Y22326047D01*
X2077843Y22326046D01*
X2077844Y22326044D01*
X2129867Y22212130D01*
X2129868Y22212129D01*
X2211875Y22117488D01*
X2211875Y22117487D01*
X2317225Y22049783D01*
X2317227Y22049782D01*
X2437385Y22014500D01*
X2437386Y22014500D01*
X2562614Y22014500D01*
X2562615Y22014500D01*
X2682773Y22049782D01*
X2788124Y22117487D01*
X2856065Y22195896D01*
X2865681Y22206992D01*
X2918077Y22238588D01*
X2979038Y22233352D01*
X3025279Y22193284D01*
X3039500Y22142161D01*
X3039500Y21001130D01*
X3020593Y20942939D01*
X2971093Y20906975D01*
X2912609Y20906140D01*
X2812618Y20935500D01*
X2812615Y20935500D01*
X2687385Y20935500D01*
X2687383Y20935500D01*
X2567225Y20900218D01*
X2461875Y20832514D01*
X2461875Y20832513D01*
X2379868Y20737872D01*
X2327843Y20623954D01*
X2327842Y20623952D01*
X2310022Y20500003D01*
X2310022Y20499998D01*
X2327842Y20376049D01*
X2327843Y20376047D01*
X2327843Y20376046D01*
X2327844Y20376044D01*
X2379867Y20262130D01*
X2383805Y20257585D01*
X2461875Y20167488D01*
X2461875Y20167487D01*
X2567226Y20099782D01*
X2599647Y20090263D01*
X2626091Y20082498D01*
X2676598Y20047962D01*
X2697160Y19990335D01*
X2679922Y19931628D01*
X2631469Y19894266D01*
X2626093Y19892519D01*
X2566344Y19874975D01*
X2566342Y19874974D01*
X2460990Y19807269D01*
X2460990Y19807268D01*
X2378983Y19712627D01*
X2326958Y19598709D01*
X2326957Y19598707D01*
X2309137Y19474758D01*
X2309137Y19474753D01*
X2326957Y19350804D01*
X2326958Y19350802D01*
X2326958Y19350801D01*
X2326959Y19350799D01*
X2378982Y19236885D01*
X2378983Y19236884D01*
X2460990Y19142243D01*
X2460990Y19142242D01*
X2543065Y19089496D01*
X2566342Y19074537D01*
X2686500Y19039255D01*
X2686501Y19039255D01*
X2715500Y19039255D01*
X2773691Y19020348D01*
X2809655Y18970848D01*
X2814500Y18940255D01*
X2814500Y15922661D01*
X2814025Y15915817D01*
X2812339Y15903733D01*
X2814447Y15858167D01*
X2814500Y15855880D01*
X2814500Y15837149D01*
X2815088Y15834002D01*
X2815878Y15827188D01*
X2816020Y15824134D01*
X2817269Y15797111D01*
X2817269Y15797109D01*
X2817270Y15797107D01*
X2820810Y15789089D01*
X2827557Y15767302D01*
X2829168Y15758681D01*
X2829169Y15758679D01*
X2845016Y15733088D01*
X2848217Y15727016D01*
X2856951Y15707236D01*
X2860383Y15699463D01*
X2866584Y15693262D01*
X2880746Y15675382D01*
X2884341Y15669576D01*
X2885359Y15667932D01*
X2909380Y15649792D01*
X2914559Y15645286D01*
X3605342Y14954504D01*
X3633119Y14899987D01*
X3623548Y14839555D01*
X3580283Y14796290D01*
X3535338Y14785500D01*
X3437383Y14785500D01*
X3317225Y14750218D01*
X3211875Y14682514D01*
X3211875Y14682513D01*
X3129868Y14587872D01*
X3077843Y14473954D01*
X3077842Y14473952D01*
X3060022Y14350003D01*
X3060022Y14349998D01*
X3077842Y14226049D01*
X3077843Y14226047D01*
X3077843Y14226046D01*
X3077844Y14226044D01*
X3129867Y14112130D01*
X3134143Y14107195D01*
X3211875Y14017488D01*
X3211875Y14017487D01*
X3317225Y13949783D01*
X3317227Y13949782D01*
X3351798Y13939631D01*
X3375943Y13932541D01*
X3426450Y13898005D01*
X3447011Y13840377D01*
X3438105Y13796427D01*
X3427845Y13773960D01*
X3427842Y13773952D01*
X3410022Y13650003D01*
X3410022Y13649998D01*
X3427842Y13526049D01*
X3427843Y13526047D01*
X3427843Y13526046D01*
X3427844Y13526044D01*
X3479867Y13412130D01*
X3561876Y13317487D01*
X3585777Y13302127D01*
X3624508Y13254762D01*
X3628002Y13193677D01*
X3622308Y13177717D01*
X3572465Y13068576D01*
X3572464Y13068574D01*
X3554644Y12944625D01*
X3554644Y12944620D01*
X3572464Y12820671D01*
X3572465Y12820669D01*
X3572465Y12820668D01*
X3572466Y12820666D01*
X3624489Y12706752D01*
X3624490Y12706751D01*
X3706497Y12612110D01*
X3706497Y12612109D01*
X3811847Y12544405D01*
X3811849Y12544404D01*
X3932007Y12509122D01*
X3932008Y12509122D01*
X4057236Y12509122D01*
X4057237Y12509122D01*
X4177395Y12544404D01*
X4282746Y12612109D01*
X4364755Y12706752D01*
X4416778Y12820666D01*
X4421430Y12853023D01*
X4434600Y12944620D01*
X4434600Y12944625D01*
X4416779Y13068574D01*
X4416778Y13068576D01*
X4416778Y13068578D01*
X4364755Y13182492D01*
X4282746Y13277135D01*
X4282746Y13277136D01*
X4258844Y13292496D01*
X4220113Y13339862D01*
X4216619Y13400947D01*
X4222311Y13416902D01*
X4272156Y13526044D01*
X4273087Y13532519D01*
X4289978Y13649998D01*
X4289978Y13650003D01*
X4272157Y13773952D01*
X4272156Y13773954D01*
X4272156Y13773956D01*
X4220133Y13887870D01*
X4138124Y13982513D01*
X4138124Y13982514D01*
X4032772Y14050219D01*
X4032770Y14050220D01*
X3974055Y14067461D01*
X3923549Y14101997D01*
X3902988Y14159625D01*
X3911894Y14203574D01*
X3922156Y14226044D01*
X3935669Y14320028D01*
X3939978Y14349998D01*
X3939978Y14350003D01*
X3922157Y14473952D01*
X3922156Y14473956D01*
X3915015Y14489592D01*
X3912977Y14494054D01*
X3906003Y14554838D01*
X3936089Y14608115D01*
X3991744Y14633534D01*
X4051711Y14621384D01*
X4085346Y14590181D01*
X4089282Y14584290D01*
X4089287Y14584285D01*
X4142374Y14548814D01*
X4142375Y14548814D01*
X4142376Y14548813D01*
X4151789Y14546941D01*
X4189185Y14539501D01*
X4189192Y14539501D01*
X4189194Y14539500D01*
X5512180Y14539500D01*
X5570371Y14520593D01*
X5582184Y14510504D01*
X5703716Y14388972D01*
X5722932Y14353022D01*
X5725709Y14354172D01*
X5729440Y14345164D01*
X5740981Y14327892D01*
X5764221Y14293111D01*
X5764224Y14293108D01*
X5764228Y14293103D01*
X6124793Y13932541D01*
X6196593Y13860741D01*
X6248645Y13825959D01*
X6264410Y13822824D01*
X6317793Y13792927D01*
X6343409Y13737362D01*
X6331472Y13677352D01*
X6315099Y13655722D01*
X6189868Y13530492D01*
X6184692Y13525988D01*
X6174353Y13518180D01*
X6154889Y13502016D01*
X6154323Y13501501D01*
X6136182Y13477479D01*
X6131690Y13472314D01*
X6129422Y13470045D01*
X6129415Y13470037D01*
X6127599Y13467386D01*
X6123345Y13462017D01*
X6103059Y13439764D01*
X6102642Y13439090D01*
X6090348Y13417018D01*
X6087012Y13410319D01*
X6084302Y13404180D01*
X6077408Y13374870D01*
X6075379Y13368318D01*
X6064499Y13340232D01*
X6064355Y13339464D01*
X6060866Y13314453D01*
X6060175Y13306996D01*
X6059865Y13300276D01*
X6064025Y13270455D01*
X6064500Y13263608D01*
X6064500Y12945662D01*
X6045593Y12887471D01*
X6035504Y12875658D01*
X4550620Y11390775D01*
X4496103Y11362998D01*
X4485192Y11361885D01*
X4463753Y11360894D01*
X4456390Y11360553D01*
X4454116Y11360500D01*
X4435373Y11360500D01*
X4435359Y11360499D01*
X4432207Y11359910D01*
X4425402Y11359121D01*
X4395327Y11357730D01*
X4387309Y11354190D01*
X4365525Y11347444D01*
X4356909Y11345833D01*
X4356903Y11345831D01*
X4331299Y11329979D01*
X4325232Y11326781D01*
X4297685Y11314617D01*
X4297684Y11314617D01*
X4291487Y11308419D01*
X4273608Y11294257D01*
X4266154Y11289642D01*
X4248010Y11265615D01*
X4243505Y11260439D01*
X3926569Y10943502D01*
X3872052Y10915725D01*
X3811620Y10925296D01*
X3768355Y10968561D01*
X3758784Y11028993D01*
X3768702Y11054999D01*
X3767191Y11055689D01*
X3770131Y11062129D01*
X3770133Y11062130D01*
X3822156Y11176044D01*
X3822599Y11179123D01*
X3839978Y11299998D01*
X3839978Y11300003D01*
X3822157Y11423952D01*
X3822156Y11423954D01*
X3822156Y11423956D01*
X3770133Y11537870D01*
X3707199Y11610499D01*
X3688125Y11632512D01*
X3688124Y11632513D01*
X3584855Y11698880D01*
X3568375Y11712160D01*
X3117424Y12163112D01*
X3094294Y12186241D01*
X3072089Y12197555D01*
X3058844Y12205672D01*
X3038687Y12220317D01*
X3038685Y12220318D01*
X3014983Y12228020D01*
X3000638Y12233962D01*
X2978434Y12245275D01*
X2953814Y12249175D01*
X2938714Y12252801D01*
X2915020Y12260500D01*
X2915016Y12260500D01*
X2882307Y12260500D01*
X1186991Y12260500D01*
X1159099Y12264510D01*
X1087616Y12285500D01*
X1087615Y12285500D01*
X962385Y12285500D01*
X962383Y12285500D01*
X842225Y12250218D01*
X736875Y12182514D01*
X736875Y12182513D01*
X654868Y12087872D01*
X602843Y11973954D01*
X602842Y11973952D01*
X585022Y11850003D01*
X585022Y11849998D01*
X602842Y11726049D01*
X602843Y11726047D01*
X602843Y11726046D01*
X602844Y11726044D01*
X654867Y11612130D01*
X656280Y11610499D01*
X736875Y11517488D01*
X736875Y11517487D01*
X842225Y11449783D01*
X842227Y11449782D01*
X962385Y11414500D01*
X962386Y11414500D01*
X1087614Y11414500D01*
X1087615Y11414500D01*
X1159099Y11435491D01*
X1186991Y11439500D01*
X2638957Y11439500D01*
X2697148Y11420593D01*
X2708961Y11410504D01*
X2994149Y11125316D01*
X3014198Y11096439D01*
X3029867Y11062130D01*
X3029866Y11062130D01*
X3111875Y10967488D01*
X3111875Y10967487D01*
X3189677Y10917487D01*
X3217227Y10899782D01*
X3337385Y10864500D01*
X3337386Y10864500D01*
X3462614Y10864500D01*
X3462615Y10864500D01*
X3582773Y10899782D01*
X3647870Y10941618D01*
X3707043Y10957172D01*
X3764060Y10934973D01*
X3797139Y10883501D01*
X3793647Y10822416D01*
X3771396Y10788329D01*
X3739867Y10756801D01*
X3734691Y10752296D01*
X3724967Y10744954D01*
X3694230Y10711238D01*
X3692654Y10709587D01*
X3679414Y10696346D01*
X3677601Y10693700D01*
X3673345Y10688327D01*
X3653060Y10666077D01*
X3653057Y10666072D01*
X3649890Y10657896D01*
X3639257Y10637723D01*
X3634303Y10630491D01*
X3634302Y10630490D01*
X3627408Y10601181D01*
X3625379Y10594628D01*
X3614500Y10566543D01*
X3614500Y10557778D01*
X3611870Y10535112D01*
X3609865Y10526586D01*
X3611882Y10512130D01*
X3614025Y10496764D01*
X3614500Y10489918D01*
X3614500Y10064735D01*
X3595593Y10006544D01*
X3546093Y9970580D01*
X3484907Y9970580D01*
X3461978Y9981450D01*
X3432773Y10000218D01*
X3312616Y10035500D01*
X3312615Y10035500D01*
X3187385Y10035500D01*
X3187383Y10035500D01*
X3067225Y10000218D01*
X2961875Y9932514D01*
X2961875Y9932513D01*
X2879868Y9837872D01*
X2827843Y9723954D01*
X2827842Y9723952D01*
X2810022Y9600003D01*
X2810022Y9599998D01*
X2827842Y9476049D01*
X2827843Y9476047D01*
X2827843Y9476046D01*
X2827844Y9476044D01*
X2879867Y9362130D01*
X2879868Y9362129D01*
X2961875Y9267488D01*
X2961875Y9267487D01*
X3050179Y9210738D01*
X3067227Y9199782D01*
X3187385Y9164500D01*
X3187386Y9164500D01*
X3312614Y9164500D01*
X3312615Y9164500D01*
X3432773Y9199782D01*
X3461976Y9218551D01*
X3521152Y9234105D01*
X3578168Y9211906D01*
X3611248Y9160434D01*
X3614500Y9135266D01*
X3614500Y8493789D01*
X3595593Y8435598D01*
X3546093Y8399634D01*
X3487609Y8398799D01*
X3362618Y8435500D01*
X3362615Y8435500D01*
X3237385Y8435500D01*
X3237383Y8435500D01*
X3117225Y8400218D01*
X3011875Y8332514D01*
X3011875Y8332513D01*
X2929868Y8237872D01*
X2877843Y8123954D01*
X2877842Y8123952D01*
X2860022Y8000003D01*
X2860022Y7999998D01*
X2877842Y7876049D01*
X2877843Y7876047D01*
X2877843Y7876046D01*
X2877844Y7876044D01*
X2929867Y7762130D01*
X2929868Y7762129D01*
X3011875Y7667488D01*
X3011875Y7667487D01*
X3115017Y7601202D01*
X3117227Y7599782D01*
X3237385Y7564500D01*
X3237386Y7564500D01*
X3362614Y7564500D01*
X3362615Y7564500D01*
X3482773Y7599782D01*
X3482773Y7599783D01*
X3487608Y7601202D01*
X3548768Y7599455D01*
X3597221Y7562092D01*
X3614500Y7506212D01*
X3614500Y6959057D01*
X3614025Y6952213D01*
X3612339Y6940129D01*
X3614447Y6894563D01*
X3614500Y6892276D01*
X3614500Y6873545D01*
X3615088Y6870398D01*
X3615879Y6863582D01*
X3617269Y6833507D01*
X3617269Y6833505D01*
X3617270Y6833503D01*
X3620810Y6825485D01*
X3627557Y6803698D01*
X3629168Y6795077D01*
X3629169Y6795075D01*
X3645016Y6769484D01*
X3648217Y6763412D01*
X3660383Y6735859D01*
X3666584Y6729658D01*
X3680746Y6711778D01*
X3685359Y6704328D01*
X3709380Y6686188D01*
X3714559Y6681683D01*
X4035503Y6360739D01*
X4063281Y6306222D01*
X4064500Y6290735D01*
X4064500Y6134186D01*
X4073812Y6087378D01*
X4073813Y6087375D01*
X4109284Y6034288D01*
X4109287Y6034285D01*
X4162374Y5998814D01*
X4162375Y5998814D01*
X4162376Y5998813D01*
X4171789Y5996941D01*
X4209185Y5989501D01*
X4209192Y5989501D01*
X4209194Y5989500D01*
X4899399Y5989500D01*
X4957590Y5970593D01*
X4993554Y5921093D01*
X4993554Y5859907D01*
X4989452Y5849373D01*
X4977843Y5823956D01*
X4977842Y5823951D01*
X4960400Y5702633D01*
X4933404Y5647725D01*
X4879290Y5619172D01*
X4818727Y5627879D01*
X4808886Y5633437D01*
X4782773Y5650218D01*
X4662616Y5685500D01*
X4662615Y5685500D01*
X4537385Y5685500D01*
X4537383Y5685500D01*
X4417225Y5650218D01*
X4311875Y5582514D01*
X4311875Y5582513D01*
X4229868Y5487872D01*
X4177843Y5373954D01*
X4177842Y5373952D01*
X4160022Y5250003D01*
X4160022Y5249998D01*
X4177842Y5126049D01*
X4177843Y5126047D01*
X4177843Y5126046D01*
X4177844Y5126044D01*
X4229867Y5012130D01*
X4229868Y5012129D01*
X4311875Y4917488D01*
X4311875Y4917487D01*
X4416125Y4850490D01*
X4417227Y4849782D01*
X4537385Y4814500D01*
X4537386Y4814500D01*
X4662614Y4814500D01*
X4662615Y4814500D01*
X4782773Y4849782D01*
X4782773Y4849783D01*
X4785184Y4850490D01*
X4813076Y4854500D01*
X5343651Y4854500D01*
X5401842Y4835593D01*
X5437806Y4786093D01*
X5437806Y4724907D01*
X5401842Y4675407D01*
X5399598Y4673824D01*
X5397236Y4672207D01*
X5317794Y4592765D01*
X5272414Y4489989D01*
X5269500Y4464870D01*
X5269500Y4035140D01*
X5269501Y4035137D01*
X5272414Y4010010D01*
X5288207Y3974243D01*
X5317794Y3907235D01*
X5317795Y3907235D01*
X5317795Y3907234D01*
X5322979Y3899666D01*
X5321208Y3898453D01*
X5343408Y3854882D01*
X5333837Y3794450D01*
X5315631Y3769391D01*
X4989867Y3443628D01*
X4984691Y3439123D01*
X4974967Y3431781D01*
X4944230Y3398065D01*
X4942654Y3396414D01*
X4929414Y3383173D01*
X4927601Y3380527D01*
X4923345Y3375154D01*
X4903060Y3352904D01*
X4903057Y3352899D01*
X4899890Y3344723D01*
X4889257Y3324550D01*
X4884303Y3317318D01*
X4884302Y3317317D01*
X4877408Y3288008D01*
X4875379Y3281455D01*
X4864500Y3253370D01*
X4864500Y3244605D01*
X4861870Y3221937D01*
X4859865Y3213414D01*
X4864025Y3183591D01*
X4864500Y3176745D01*
X4864500Y2692249D01*
X4845593Y2634058D01*
X4821860Y2610973D01*
X4739401Y2528514D01*
X4692511Y2422318D01*
X4689500Y2396362D01*
X4689500Y1103648D01*
X4689500Y1103646D01*
X4689501Y1103644D01*
X4692512Y1077680D01*
X4739401Y971486D01*
X4821486Y889401D01*
X4927680Y842512D01*
X4953643Y839500D01*
X5346356Y839501D01*
X5372320Y842512D01*
X5478514Y889401D01*
X5560599Y971486D01*
X5607488Y1077680D01*
X5610500Y1103643D01*
X5610499Y2396356D01*
X5607488Y2422320D01*
X5560599Y2528514D01*
X5478514Y2610599D01*
X5478512Y2610600D01*
X5472027Y2617085D01*
X5472880Y2617939D01*
X5441226Y2659068D01*
X5435500Y2692249D01*
X5435500Y3040734D01*
X5454407Y3098925D01*
X5464496Y3110738D01*
X5706662Y3352904D01*
X5991959Y3638202D01*
X6032098Y3658653D01*
X6032099Y3663082D01*
X6056247Y3702490D01*
X7189262Y4835505D01*
X7243779Y4863281D01*
X7259266Y4864500D01*
X7312614Y4864500D01*
X7312615Y4864500D01*
X7432773Y4899782D01*
X7538124Y4967487D01*
X7620133Y5062130D01*
X7672156Y5176044D01*
X7677217Y5211243D01*
X7689978Y5299998D01*
X7689978Y5300003D01*
X7672157Y5423952D01*
X7672156Y5423954D01*
X7672156Y5423956D01*
X7620133Y5537870D01*
X7538124Y5632513D01*
X7538124Y5632514D01*
X7432774Y5700218D01*
X7312616Y5735500D01*
X7312615Y5735500D01*
X7187385Y5735500D01*
X7187383Y5735500D01*
X7118239Y5715197D01*
X7057078Y5716944D01*
X7008625Y5754307D01*
X6991387Y5813014D01*
X7011949Y5870641D01*
X7020335Y5880183D01*
X7110131Y5969978D01*
X7115313Y5974487D01*
X7125026Y5981822D01*
X7125032Y5981824D01*
X7155774Y6015548D01*
X7157328Y6017176D01*
X7170585Y6030431D01*
X7172400Y6033082D01*
X7176639Y6038436D01*
X7196941Y6060704D01*
X7200107Y6068877D01*
X7210744Y6089057D01*
X7215697Y6096287D01*
X7222593Y6125610D01*
X7224617Y6132145D01*
X7235500Y6160235D01*
X7235500Y6168999D01*
X7238130Y6191668D01*
X7240135Y6200191D01*
X7235975Y6230015D01*
X7235500Y6236862D01*
X7235500Y6717944D01*
X7254407Y6776135D01*
X7264490Y6787942D01*
X8360131Y7883582D01*
X8365313Y7888091D01*
X8375026Y7895426D01*
X8375032Y7895428D01*
X8405774Y7929152D01*
X8407328Y7930780D01*
X8420585Y7944035D01*
X8422400Y7946686D01*
X8426639Y7952040D01*
X8446941Y7974308D01*
X8450103Y7982472D01*
X8460746Y8002664D01*
X8465698Y8009891D01*
X8472594Y8039218D01*
X8474617Y8045751D01*
X8485500Y8073839D01*
X8485500Y8082604D01*
X8488129Y8105268D01*
X8490135Y8113795D01*
X8485975Y8143619D01*
X8485500Y8150466D01*
X8485500Y9140734D01*
X8504407Y9198925D01*
X8514496Y9210738D01*
X8864262Y9560504D01*
X8918779Y9588281D01*
X8934266Y9589500D01*
X9363203Y9589500D01*
X9386497Y9584588D01*
X9386925Y9586404D01*
X9395854Y9584304D01*
X9395856Y9584303D01*
X9425175Y9577408D01*
X9431714Y9575383D01*
X9459804Y9564500D01*
X9468568Y9564500D01*
X9491234Y9561871D01*
X9499760Y9559865D01*
X9523628Y9563195D01*
X9529583Y9564025D01*
X9536429Y9564500D01*
X11659463Y9564500D01*
X11717654Y9545593D01*
X11753618Y9496093D01*
X11753618Y9434907D01*
X11734282Y9400669D01*
X11679868Y9337873D01*
X11627843Y9223954D01*
X11627842Y9223952D01*
X11610022Y9100003D01*
X11610022Y9092920D01*
X11607658Y9092920D01*
X11599077Y9043307D01*
X11555202Y9000661D01*
X11511514Y8990500D01*
X11434782Y8990500D01*
X11412544Y8994657D01*
X11412387Y8993814D01*
X11403370Y8995500D01*
X11403369Y8995500D01*
X11403367Y8995500D01*
X10665407Y8995500D01*
X10607216Y9014407D01*
X10590588Y9029669D01*
X10588124Y9032513D01*
X10588121Y9032515D01*
X10588119Y9032517D01*
X10482774Y9100218D01*
X10362616Y9135500D01*
X10362615Y9135500D01*
X10237385Y9135500D01*
X10237383Y9135500D01*
X10117225Y9100218D01*
X10011877Y9032515D01*
X9977674Y8993042D01*
X9925278Y8961447D01*
X9864317Y8966683D01*
X9849335Y8974588D01*
X9795011Y9009500D01*
X9762772Y9030219D01*
X9642616Y9065500D01*
X9642615Y9065500D01*
X9517385Y9065500D01*
X9517383Y9065500D01*
X9397225Y9030218D01*
X9291875Y8962514D01*
X9291875Y8962513D01*
X9209868Y8867872D01*
X9157843Y8753954D01*
X9157842Y8753952D01*
X9140022Y8630003D01*
X9140022Y8629998D01*
X9157842Y8506049D01*
X9157843Y8506047D01*
X9157843Y8506046D01*
X9157844Y8506044D01*
X9209867Y8392130D01*
X9209868Y8392129D01*
X9291875Y8297488D01*
X9291875Y8297487D01*
X9357719Y8255172D01*
X9396451Y8207806D01*
X9399944Y8146720D01*
X9394762Y8131903D01*
X9382366Y8103828D01*
X9382365Y8103825D01*
X9379500Y8079128D01*
X9379500Y7620882D01*
X9379500Y7620880D01*
X9379501Y7620878D01*
X9382366Y7596173D01*
X9426990Y7495109D01*
X9505109Y7416990D01*
X9606173Y7372366D01*
X9630877Y7369500D01*
X9989122Y7369501D01*
X10013827Y7372366D01*
X10091930Y7406853D01*
X10152800Y7413061D01*
X10205694Y7382305D01*
X10206738Y7381119D01*
X10261875Y7317488D01*
X10261875Y7317487D01*
X10349158Y7261394D01*
X10367227Y7249782D01*
X10487385Y7214500D01*
X10487386Y7214500D01*
X10612614Y7214500D01*
X10612615Y7214500D01*
X10732773Y7249782D01*
X10773877Y7276199D01*
X10833051Y7291753D01*
X10890068Y7269554D01*
X10910963Y7242101D01*
X10911806Y7242677D01*
X10916988Y7235112D01*
X10916989Y7235111D01*
X10916990Y7235109D01*
X10995109Y7156990D01*
X11096173Y7112366D01*
X11120877Y7109500D01*
X11579122Y7109501D01*
X11603827Y7112366D01*
X11704891Y7156990D01*
X11783010Y7235109D01*
X11827634Y7336173D01*
X11830500Y7360877D01*
X11830499Y7719122D01*
X11827634Y7743827D01*
X11783010Y7844891D01*
X11704891Y7923010D01*
X11622392Y7959437D01*
X11576799Y8000236D01*
X11563893Y8060045D01*
X11588607Y8116017D01*
X11622390Y8140563D01*
X11704891Y8176990D01*
X11783010Y8255109D01*
X11827634Y8356173D01*
X11830500Y8380877D01*
X11830499Y8578319D01*
X11849406Y8636507D01*
X11898906Y8672471D01*
X11957391Y8673307D01*
X11964980Y8671079D01*
X11987385Y8664500D01*
X11987386Y8664500D01*
X12112614Y8664500D01*
X12112615Y8664500D01*
X12232773Y8699782D01*
X12338124Y8767487D01*
X12349253Y8780332D01*
X12401649Y8811927D01*
X12424072Y8814500D01*
X13111843Y8814500D01*
X13170034Y8795593D01*
X13202407Y8755488D01*
X13206990Y8745109D01*
X13285109Y8666990D01*
X13386173Y8622366D01*
X13410877Y8619500D01*
X13640266Y8619501D01*
X13698455Y8600594D01*
X13734419Y8551094D01*
X13734420Y8489909D01*
X13730319Y8479377D01*
X13727845Y8473960D01*
X13727842Y8473952D01*
X13710022Y8350003D01*
X13710022Y8349998D01*
X13727842Y8226049D01*
X13727843Y8226047D01*
X13727843Y8226046D01*
X13727844Y8226044D01*
X13770837Y8131903D01*
X13775987Y8120626D01*
X13782961Y8059839D01*
X13752874Y8006562D01*
X13697218Y7981145D01*
X13685933Y7980500D01*
X13410881Y7980500D01*
X13410878Y7980499D01*
X13393917Y7978532D01*
X13378775Y7976776D01*
X13378571Y7978532D01*
X13326699Y7981061D01*
X13294227Y8003750D01*
X13293472Y8002878D01*
X13288119Y8007517D01*
X13182774Y8075218D01*
X13062616Y8110500D01*
X13062615Y8110500D01*
X12937385Y8110500D01*
X12937383Y8110500D01*
X12817225Y8075218D01*
X12711875Y8007514D01*
X12711875Y8007513D01*
X12629868Y7912872D01*
X12629867Y7912871D01*
X12629867Y7912870D01*
X12608331Y7865713D01*
X12577843Y7798954D01*
X12577842Y7798952D01*
X12560022Y7675003D01*
X12560022Y7674998D01*
X12577843Y7551046D01*
X12579154Y7546581D01*
X12577406Y7485421D01*
X12540043Y7436968D01*
X12523278Y7429019D01*
X12523670Y7428161D01*
X12517227Y7425219D01*
X12411875Y7357514D01*
X12411875Y7357513D01*
X12329868Y7262872D01*
X12277843Y7148954D01*
X12277842Y7148952D01*
X12260022Y7025003D01*
X12260022Y7024998D01*
X12277842Y6901049D01*
X12277843Y6901047D01*
X12277843Y6901046D01*
X12277844Y6901044D01*
X12329867Y6787130D01*
X12348345Y6765805D01*
X12411875Y6692488D01*
X12411875Y6692487D01*
X12508894Y6630137D01*
X12517227Y6624782D01*
X12637385Y6589500D01*
X12637386Y6589500D01*
X12762614Y6589500D01*
X12762615Y6589500D01*
X12762616Y6589501D01*
X12762620Y6589501D01*
X12836991Y6611339D01*
X12898152Y6609593D01*
X12934888Y6586354D01*
X13130504Y6390738D01*
X13158281Y6336221D01*
X13159500Y6320736D01*
X13159500Y6270883D01*
X13159501Y6270878D01*
X13162366Y6246173D01*
X13206990Y6145109D01*
X13285109Y6066990D01*
X13386173Y6022366D01*
X13410877Y6019500D01*
X13664245Y6019501D01*
X13722435Y6000594D01*
X13758399Y5951094D01*
X13762237Y5934590D01*
X13777842Y5826050D01*
X13777843Y5826047D01*
X13777843Y5826046D01*
X13777844Y5826044D01*
X13829867Y5712130D01*
X13829868Y5712129D01*
X13911875Y5617488D01*
X13911875Y5617487D01*
X14017225Y5549783D01*
X14017227Y5549782D01*
X14137385Y5514500D01*
X14137386Y5514500D01*
X14262614Y5514500D01*
X14262615Y5514500D01*
X14382773Y5549782D01*
X14488124Y5617487D01*
X14570133Y5712130D01*
X14610947Y5801501D01*
X14652317Y5846576D01*
X14712283Y5858728D01*
X14767940Y5833311D01*
X14798027Y5780034D01*
X14799999Y5760373D01*
X14800000Y5366935D01*
X14781093Y5308744D01*
X14731593Y5272780D01*
X14685513Y5269154D01*
X14582310Y5285500D01*
X14017691Y5285500D01*
X13921567Y5270275D01*
X13921560Y5270273D01*
X13805708Y5211243D01*
X13713757Y5119292D01*
X13654726Y5003437D01*
X13654725Y5003435D01*
X13639499Y4907309D01*
X13639499Y4590361D01*
X13638281Y4574877D01*
X13634500Y4551000D01*
X13634500Y3714500D01*
X13615593Y3656309D01*
X13566093Y3620345D01*
X13535500Y3615500D01*
X13343666Y3615500D01*
X13290143Y3631216D01*
X13182774Y3700218D01*
X13062616Y3735500D01*
X13062615Y3735500D01*
X12937385Y3735500D01*
X12937383Y3735500D01*
X12817225Y3700218D01*
X12709857Y3631216D01*
X12656334Y3615500D01*
X11614500Y3615500D01*
X11556309Y3634407D01*
X11520345Y3683907D01*
X11515500Y3714500D01*
X11515500Y3741192D01*
X11519091Y3763867D01*
X11519056Y3763872D01*
X11527548Y3817488D01*
X11535500Y3867693D01*
X11535499Y4432306D01*
X11520275Y4528433D01*
X11520272Y4528438D01*
X11520272Y4528440D01*
X11461242Y4644292D01*
X11461241Y4644294D01*
X11369294Y4736241D01*
X11369291Y4736243D01*
X11253436Y4795274D01*
X11253434Y4795275D01*
X11157308Y4810500D01*
X10142691Y4810500D01*
X10046567Y4795275D01*
X10046560Y4795273D01*
X9930712Y4736245D01*
X9928182Y4734406D01*
X9925207Y4733440D01*
X9923764Y4732704D01*
X9923647Y4732933D01*
X9869992Y4715500D01*
X9430008Y4715500D01*
X9376352Y4732933D01*
X9376236Y4732704D01*
X9374792Y4733440D01*
X9371818Y4734406D01*
X9369297Y4736238D01*
X9369294Y4736241D01*
X9369288Y4736244D01*
X9369287Y4736245D01*
X9253436Y4795274D01*
X9253434Y4795275D01*
X9157308Y4810500D01*
X8142691Y4810500D01*
X8046567Y4795275D01*
X8046560Y4795273D01*
X7930708Y4736243D01*
X7838757Y4644292D01*
X7779726Y4528437D01*
X7779725Y4528435D01*
X7764500Y4432309D01*
X7764500Y4425759D01*
X7755554Y4384634D01*
X7727844Y4323957D01*
X7727842Y4323952D01*
X7710022Y4200003D01*
X7710022Y4199998D01*
X7727842Y4076049D01*
X7727843Y4076047D01*
X7727843Y4076046D01*
X7727844Y4076044D01*
X7746525Y4035137D01*
X7755554Y4015368D01*
X7764500Y3974243D01*
X7764500Y3867692D01*
X7772452Y3817488D01*
X7779725Y3771567D01*
X7785901Y3759446D01*
X7795473Y3699015D01*
X7767697Y3644498D01*
X7713181Y3616719D01*
X7697692Y3615500D01*
X6349000Y3615500D01*
X6323112Y3613463D01*
X6312914Y3611848D01*
X6292517Y3608618D01*
X6221131Y3579050D01*
X6184443Y3552394D01*
X6156209Y3543221D01*
X6146059Y3515961D01*
X6111507Y3460333D01*
X6111506Y3460331D01*
X6092599Y3402143D01*
X6084500Y3351004D01*
X6084500Y1912725D01*
X6091884Y1863842D01*
X6109166Y1807952D01*
X6116885Y1787766D01*
X6116886Y1787764D01*
X6166215Y1725789D01*
X6166217Y1725787D01*
X6214670Y1688425D01*
X6225013Y1681584D01*
X6234660Y1675202D01*
X6234661Y1675202D01*
X6234664Y1675200D01*
X6311003Y1654054D01*
X6372163Y1652306D01*
X6423519Y1658942D01*
X6447521Y1665990D01*
X6475414Y1670000D01*
X6524586Y1670000D01*
X6552476Y1665990D01*
X6576477Y1658943D01*
X6599650Y1652139D01*
X6599654Y1652138D01*
X6625286Y1640433D01*
X6680753Y1604786D01*
X6680772Y1604774D01*
X6687023Y1599954D01*
X6687147Y1600121D01*
X6691408Y1596980D01*
X6691414Y1596974D01*
X6695427Y1594632D01*
X6700186Y1591471D01*
X6702441Y1589778D01*
X6703623Y1588891D01*
X6710458Y1585263D01*
X6710414Y1585181D01*
X6716044Y1582599D01*
X6752177Y1561507D01*
X6810368Y1542600D01*
X6830824Y1539360D01*
X6861506Y1534500D01*
X6861509Y1534500D01*
X8143211Y1534500D01*
X8143217Y1534500D01*
X8151305Y1534962D01*
X8152654Y1535039D01*
X8152653Y1535039D01*
X8179766Y1538149D01*
X8246366Y1560842D01*
X8266776Y1573149D01*
X8271855Y1574330D01*
X8301350Y1593287D01*
X8301351Y1593286D01*
X8319276Y1604807D01*
X8322255Y1606602D01*
X8323504Y1607523D01*
X8329285Y1611239D01*
X8374711Y1640433D01*
X8400336Y1652136D01*
X8447526Y1665992D01*
X8475413Y1670000D01*
X8524586Y1670000D01*
X8552476Y1665990D01*
X8576477Y1658943D01*
X8599650Y1652139D01*
X8599654Y1652138D01*
X8625286Y1640433D01*
X8680753Y1604786D01*
X8680772Y1604774D01*
X8687023Y1599954D01*
X8687147Y1600121D01*
X8691408Y1596980D01*
X8691414Y1596974D01*
X8695427Y1594632D01*
X8700186Y1591471D01*
X8702441Y1589778D01*
X8703623Y1588891D01*
X8710458Y1585263D01*
X8710414Y1585181D01*
X8716044Y1582599D01*
X8752177Y1561507D01*
X8810368Y1542600D01*
X8830824Y1539360D01*
X8861506Y1534500D01*
X8861509Y1534500D01*
X10143211Y1534500D01*
X10143217Y1534500D01*
X10151305Y1534962D01*
X10152654Y1535039D01*
X10152653Y1535039D01*
X10179766Y1538149D01*
X10246366Y1560842D01*
X10266776Y1573149D01*
X10271855Y1574330D01*
X10301350Y1593287D01*
X10301351Y1593286D01*
X10319276Y1604807D01*
X10322255Y1606602D01*
X10323504Y1607523D01*
X10329285Y1611239D01*
X10374711Y1640433D01*
X10400336Y1652136D01*
X10447526Y1665992D01*
X10475413Y1670000D01*
X10524586Y1670000D01*
X10552476Y1665990D01*
X10576477Y1658943D01*
X10599650Y1652139D01*
X10599654Y1652138D01*
X10625286Y1640433D01*
X10680753Y1604786D01*
X10680772Y1604774D01*
X10687023Y1599954D01*
X10687147Y1600121D01*
X10691408Y1596980D01*
X10691414Y1596974D01*
X10695427Y1594632D01*
X10700186Y1591471D01*
X10702441Y1589778D01*
X10703623Y1588891D01*
X10710458Y1585263D01*
X10710414Y1585181D01*
X10716044Y1582599D01*
X10752177Y1561507D01*
X10810368Y1542600D01*
X10830824Y1539360D01*
X10861506Y1534500D01*
X10861509Y1534500D01*
X12160017Y1534500D01*
X12160018Y1534500D01*
X12206647Y1541205D01*
X12260168Y1556921D01*
X12303015Y1576488D01*
X12324714Y1590434D01*
X12350338Y1602137D01*
X12397525Y1615992D01*
X12425412Y1620000D01*
X12474587Y1620000D01*
X12502478Y1615990D01*
X12549654Y1602138D01*
X12575281Y1590435D01*
X12596984Y1576488D01*
X12639832Y1556920D01*
X12693354Y1541204D01*
X12719258Y1537480D01*
X12739978Y1534500D01*
X12739982Y1534500D01*
X14160017Y1534500D01*
X14160018Y1534500D01*
X14206647Y1541205D01*
X14260168Y1556921D01*
X14303015Y1576488D01*
X14324714Y1590434D01*
X14350338Y1602137D01*
X14397525Y1615992D01*
X14425412Y1620000D01*
X14474587Y1620000D01*
X14502478Y1615990D01*
X14549654Y1602138D01*
X14575281Y1590435D01*
X14596984Y1576488D01*
X14639832Y1556920D01*
X14693354Y1541204D01*
X14719258Y1537480D01*
X14739978Y1534500D01*
X14739982Y1534500D01*
X16210017Y1534500D01*
X16210018Y1534500D01*
X16256647Y1541205D01*
X16310168Y1556921D01*
X16353015Y1576488D01*
X16357605Y1579439D01*
X16365145Y1584283D01*
X16418669Y1600000D01*
X16581330Y1600000D01*
X16634853Y1584284D01*
X16646984Y1576488D01*
X16689832Y1556920D01*
X16743354Y1541204D01*
X16769258Y1537480D01*
X16789978Y1534500D01*
X16789982Y1534500D01*
X18001000Y1534500D01*
X18059191Y1515593D01*
X18095155Y1466093D01*
X18100000Y1435500D01*
X18100000Y299500D01*
X18081093Y241309D01*
X18031593Y205345D01*
X18001000Y200500D01*
X2187620Y200500D01*
X2184383Y200606D01*
X2164196Y201930D01*
X1930083Y217274D01*
X1923657Y218120D01*
X1675298Y267522D01*
X1669038Y269199D01*
X1429256Y350594D01*
X1423273Y353072D01*
X1196164Y465070D01*
X1190551Y468311D01*
X980001Y608995D01*
X974859Y612941D01*
X784480Y779898D01*
X779897Y784481D01*
X731645Y839502D01*
X612937Y974863D01*
X608994Y980002D01*
X605320Y985500D01*
X468310Y1190552D01*
X465069Y1196165D01*
X353067Y1423282D01*
X350593Y1429257D01*
X335163Y1474711D01*
X269197Y1669042D01*
X267521Y1675299D01*
X218119Y1923658D01*
X217273Y1930084D01*
X209961Y2041643D01*
X200606Y2184383D01*
X200553Y2186000D01*
X980357Y2186000D01*
X1000885Y1964464D01*
X1061771Y1750472D01*
X1160942Y1551311D01*
X1295019Y1373764D01*
X1459438Y1223876D01*
X1648599Y1106753D01*
X1856060Y1026382D01*
X2074757Y985500D01*
X2297243Y985500D01*
X2515940Y1026382D01*
X2723401Y1106753D01*
X2912562Y1223876D01*
X3076981Y1373764D01*
X3211058Y1551311D01*
X3310229Y1750472D01*
X3371115Y1964464D01*
X3391643Y2186000D01*
X3371115Y2407536D01*
X3310229Y2621528D01*
X3211058Y2820689D01*
X3076981Y2998236D01*
X2912562Y3148124D01*
X2723401Y3265247D01*
X2515940Y3345618D01*
X2515939Y3345619D01*
X2515937Y3345619D01*
X2297243Y3386500D01*
X2074757Y3386500D01*
X1856062Y3345619D01*
X1801677Y3324550D01*
X1648599Y3265247D01*
X1511222Y3180187D01*
X1459438Y3148124D01*
X1295020Y2998237D01*
X1160943Y2820691D01*
X1160938Y2820682D01*
X1068010Y2634058D01*
X1061771Y2621528D01*
X1036551Y2532890D01*
X1000885Y2407536D01*
X984053Y2225882D01*
X980357Y2186000D01*
X200553Y2186000D01*
X200500Y2187621D01*
X200500Y4149998D01*
X3560022Y4149998D01*
X3577842Y4026049D01*
X3577843Y4026047D01*
X3577843Y4026046D01*
X3577844Y4026044D01*
X3629867Y3912130D01*
X3640667Y3899666D01*
X3711875Y3817488D01*
X3711875Y3817487D01*
X3817225Y3749783D01*
X3817227Y3749782D01*
X3937385Y3714500D01*
X3937386Y3714500D01*
X4062614Y3714500D01*
X4062615Y3714500D01*
X4182773Y3749782D01*
X4288124Y3817487D01*
X4370133Y3912130D01*
X4422156Y4026044D01*
X4422157Y4026049D01*
X4439978Y4149998D01*
X4439978Y4150003D01*
X4422157Y4273952D01*
X4422156Y4273954D01*
X4422156Y4273956D01*
X4370133Y4387870D01*
X4288124Y4482513D01*
X4288124Y4482514D01*
X4182774Y4550218D01*
X4062616Y4585500D01*
X4062615Y4585500D01*
X3937385Y4585500D01*
X3937383Y4585500D01*
X3817225Y4550218D01*
X3711875Y4482514D01*
X3711875Y4482513D01*
X3629868Y4387872D01*
X3577843Y4273954D01*
X3577842Y4273952D01*
X3560022Y4150003D01*
X3560022Y4149998D01*
X200500Y4149998D01*
X200500Y8949998D01*
X1760022Y8949998D01*
X1777842Y8826049D01*
X1777843Y8826047D01*
X1777843Y8826046D01*
X1777844Y8826044D01*
X1829867Y8712130D01*
X1829868Y8712129D01*
X1911875Y8617488D01*
X1911875Y8617487D01*
X2015185Y8551094D01*
X2017227Y8549782D01*
X2137385Y8514500D01*
X2137386Y8514500D01*
X2262614Y8514500D01*
X2262615Y8514500D01*
X2382773Y8549782D01*
X2488124Y8617487D01*
X2570133Y8712130D01*
X2622156Y8826044D01*
X2625050Y8846173D01*
X2639978Y8949998D01*
X2639978Y8950003D01*
X2622157Y9073952D01*
X2622156Y9073954D01*
X2622156Y9073956D01*
X2570133Y9187870D01*
X2488124Y9282513D01*
X2488124Y9282514D01*
X2382774Y9350218D01*
X2262616Y9385500D01*
X2262615Y9385500D01*
X2137385Y9385500D01*
X2137383Y9385500D01*
X2017225Y9350218D01*
X1911875Y9282514D01*
X1911875Y9282513D01*
X1829868Y9187872D01*
X1829867Y9187871D01*
X1829867Y9187870D01*
X1819195Y9164501D01*
X1777843Y9073954D01*
X1777842Y9073952D01*
X1760022Y8950003D01*
X1760022Y8949998D01*
X200500Y8949998D01*
X200500Y24812380D01*
X200553Y24814000D01*
X980357Y24814000D01*
X1000885Y24592464D01*
X1061771Y24378472D01*
X1160942Y24179311D01*
X1295019Y24001764D01*
X1459438Y23851876D01*
X1648599Y23734753D01*
X1856060Y23654382D01*
X2074757Y23613500D01*
X2297243Y23613500D01*
X2515940Y23654382D01*
X2723401Y23734753D01*
X2912562Y23851876D01*
X3076981Y24001764D01*
X3211058Y24179311D01*
X3310229Y24378472D01*
X3371115Y24592464D01*
X3391643Y24814000D01*
X3371115Y25035536D01*
X3310229Y25249528D01*
X3211058Y25448689D01*
X3076981Y25626236D01*
X2912562Y25776124D01*
X2723401Y25893247D01*
X2515940Y25973618D01*
X2515939Y25973619D01*
X2515937Y25973619D01*
X2297243Y26014500D01*
X2074757Y26014500D01*
X1856062Y25973619D01*
X1779797Y25944074D01*
X1648599Y25893247D01*
X1513260Y25809449D01*
X1459438Y25776124D01*
X1295020Y25626237D01*
X1160943Y25448691D01*
X1160938Y25448682D01*
X1061772Y25249531D01*
X1061771Y25249528D01*
X1000885Y25035536D01*
X980357Y24814000D01*
X200553Y24814000D01*
X200606Y24815618D01*
X201981Y24836590D01*
X217273Y25069924D01*
X218119Y25076343D01*
X267521Y25324702D01*
X269196Y25330956D01*
X350595Y25570751D01*
X353065Y25576714D01*
X465075Y25803848D01*
X468310Y25809449D01*
X609001Y26020009D01*
X612931Y26025131D01*
X779907Y26215531D01*
X784469Y26220093D01*
X974869Y26387069D01*
X979991Y26390999D01*
X1190555Y26531693D01*
X1196152Y26534925D01*
X1423286Y26646935D01*
X1429249Y26649405D01*
X1669044Y26730804D01*
X1675298Y26732479D01*
X1917182Y26780593D01*
X1923659Y26781882D01*
X1930076Y26782727D01*
X2184383Y26799395D01*
X2187620Y26799500D01*
X2225882Y26799500D01*
X18035500Y26799500D01*
X18093691Y26780593D01*
G37*
%TD.AperFunction*%
%TA.AperFunction,Conductor*%
G36*
X6609926Y11695593D02*
G01*
X6645890Y11646093D01*
X6645890Y11584907D01*
X6621738Y11545498D01*
X6566023Y11489782D01*
X6439870Y11363630D01*
X6434694Y11359126D01*
X6424968Y11351782D01*
X6394230Y11318065D01*
X6392654Y11316414D01*
X6379414Y11303173D01*
X6377601Y11300527D01*
X6373345Y11295154D01*
X6353060Y11272904D01*
X6353057Y11272899D01*
X6349890Y11264723D01*
X6339257Y11244550D01*
X6334303Y11237318D01*
X6334302Y11237317D01*
X6327408Y11208008D01*
X6325379Y11201455D01*
X6314500Y11173370D01*
X6314500Y11164605D01*
X6311870Y11141937D01*
X6309865Y11133414D01*
X6314025Y11103591D01*
X6314500Y11096745D01*
X6314500Y8834500D01*
X6295593Y8776309D01*
X6246093Y8740345D01*
X6215500Y8735500D01*
X6022775Y8735500D01*
X5964584Y8754407D01*
X5928620Y8803907D01*
X5926616Y8811588D01*
X5926186Y8812626D01*
X5890715Y8865713D01*
X5890712Y8865716D01*
X5837625Y8901187D01*
X5837622Y8901188D01*
X5790814Y8910500D01*
X5790806Y8910500D01*
X4284500Y8910500D01*
X4226309Y8929407D01*
X4190345Y8978907D01*
X4185500Y9009500D01*
X4185500Y9586404D01*
X4185500Y10163314D01*
X4204406Y10221501D01*
X4253906Y10257465D01*
X4315092Y10257465D01*
X4359317Y10228143D01*
X4389972Y10192765D01*
X4411877Y10167486D01*
X4513438Y10102217D01*
X4517227Y10099782D01*
X4637385Y10064500D01*
X4637386Y10064500D01*
X4762614Y10064500D01*
X4762615Y10064500D01*
X4882773Y10099782D01*
X4988124Y10167487D01*
X5070133Y10262130D01*
X5122156Y10376044D01*
X5122157Y10376049D01*
X5140986Y10507008D01*
X5143684Y10506621D01*
X5158885Y10553404D01*
X5168974Y10565217D01*
X5729074Y11125316D01*
X6289261Y11685504D01*
X6343779Y11713281D01*
X6359266Y11714500D01*
X6551735Y11714500D01*
X6609926Y11695593D01*
G37*
%TD.AperFunction*%
%TA.AperFunction,Conductor*%
G36*
X14191015Y18911394D02*
G01*
X14215563Y18877607D01*
X14251989Y18795111D01*
X14251990Y18795109D01*
X14330109Y18716990D01*
X14431173Y18672366D01*
X14455877Y18669500D01*
X14645732Y18669501D01*
X14703923Y18650594D01*
X14715737Y18640505D01*
X14771004Y18585238D01*
X14798781Y18530721D01*
X14800000Y18515234D01*
X14800000Y14636501D01*
X14781093Y14578310D01*
X14731593Y14542346D01*
X14701000Y14537501D01*
X14636501Y14537501D01*
X14578310Y14556408D01*
X14542346Y14605908D01*
X14537501Y14636501D01*
X14537501Y15321405D01*
X14537500Y15321415D01*
X14529302Y15362624D01*
X14528188Y15368224D01*
X14492715Y15421314D01*
X14492713Y15421316D01*
X14439626Y15456787D01*
X14439623Y15456788D01*
X14392815Y15466100D01*
X14392807Y15466100D01*
X14107195Y15466100D01*
X14107186Y15466100D01*
X14060378Y15456788D01*
X14060375Y15456787D01*
X14007288Y15421316D01*
X14007285Y15421313D01*
X13971814Y15368226D01*
X13971813Y15368223D01*
X13962501Y15321415D01*
X13962501Y14578586D01*
X13971813Y14531778D01*
X13971814Y14531775D01*
X14007285Y14478688D01*
X14007288Y14478685D01*
X14060375Y14443214D01*
X14060376Y14443214D01*
X14060377Y14443213D01*
X14069790Y14441341D01*
X14107186Y14433901D01*
X14107193Y14433901D01*
X14107195Y14433900D01*
X14107196Y14433900D01*
X14334900Y14433900D01*
X14393091Y14414993D01*
X14429055Y14365493D01*
X14433900Y14334900D01*
X14433900Y14107187D01*
X14443212Y14060379D01*
X14443213Y14060377D01*
X14446805Y14055001D01*
X14463412Y13996112D01*
X14446806Y13945004D01*
X14443215Y13939631D01*
X14443212Y13939623D01*
X14433900Y13892815D01*
X14433900Y13607186D01*
X14443212Y13560378D01*
X14443213Y13560376D01*
X14446805Y13555000D01*
X14463412Y13496111D01*
X14446805Y13445000D01*
X14443213Y13439625D01*
X14443212Y13439623D01*
X14433900Y13392815D01*
X14433900Y13107186D01*
X14443212Y13060378D01*
X14443213Y13060376D01*
X14446805Y13055000D01*
X14463412Y12996111D01*
X14446806Y12945003D01*
X14443215Y12939630D01*
X14443212Y12939622D01*
X14433900Y12892814D01*
X14433900Y12665100D01*
X14414993Y12606909D01*
X14365493Y12570945D01*
X14334900Y12566100D01*
X14107186Y12566100D01*
X14060378Y12556788D01*
X14060370Y12556785D01*
X14054997Y12553194D01*
X13996108Y12536589D01*
X13945000Y12553195D01*
X13939624Y12556787D01*
X13939622Y12556788D01*
X13892814Y12566100D01*
X13892806Y12566100D01*
X13607194Y12566100D01*
X13607185Y12566100D01*
X13560377Y12556788D01*
X13560375Y12556787D01*
X13555000Y12553195D01*
X13496111Y12536588D01*
X13445000Y12553195D01*
X13439624Y12556787D01*
X13439622Y12556788D01*
X13392814Y12566100D01*
X13392806Y12566100D01*
X13107194Y12566100D01*
X13107185Y12566100D01*
X13060377Y12556788D01*
X13060374Y12556787D01*
X13007287Y12521316D01*
X13007284Y12521313D01*
X12971813Y12468226D01*
X12971812Y12468223D01*
X12962500Y12421415D01*
X12962500Y11678591D01*
X12962597Y11678107D01*
X12964500Y11658791D01*
X12964500Y11576667D01*
X12945593Y11518476D01*
X12935505Y11506665D01*
X12888335Y11459496D01*
X12833820Y11431719D01*
X12818333Y11430500D01*
X12480881Y11430500D01*
X12480878Y11430499D01*
X12456173Y11427634D01*
X12355109Y11383010D01*
X12276990Y11304891D01*
X12232365Y11203825D01*
X12229500Y11179128D01*
X12229500Y10841667D01*
X12210593Y10783476D01*
X12200504Y10771664D01*
X12043338Y10614497D01*
X11988821Y10586719D01*
X11973334Y10585500D01*
X10826571Y10585500D01*
X10768380Y10604407D01*
X10732416Y10653907D01*
X10732416Y10715093D01*
X10768380Y10764593D01*
X10786578Y10775063D01*
X10792765Y10777794D01*
X10800471Y10785501D01*
X10854988Y10813281D01*
X10870478Y10814500D01*
X10962614Y10814500D01*
X10962615Y10814500D01*
X11082773Y10849782D01*
X11188124Y10917487D01*
X11270133Y11012130D01*
X11322156Y11126044D01*
X11322462Y11128170D01*
X11339978Y11249998D01*
X11339978Y11250003D01*
X11322157Y11373952D01*
X11322156Y11373954D01*
X11322156Y11373956D01*
X11270133Y11487870D01*
X11205720Y11562206D01*
X11188125Y11582512D01*
X11188124Y11582513D01*
X11159901Y11600651D01*
X11121171Y11648016D01*
X11117679Y11709102D01*
X11150758Y11760574D01*
X11159883Y11767206D01*
X11238124Y11817487D01*
X11320133Y11912130D01*
X11372156Y12026044D01*
X11376787Y12058252D01*
X11389978Y12149998D01*
X11389978Y12150003D01*
X11372157Y12273952D01*
X11372156Y12273954D01*
X11372156Y12273956D01*
X11320133Y12387870D01*
X11238124Y12482513D01*
X11222712Y12492418D01*
X11183982Y12539784D01*
X11180490Y12600869D01*
X11183823Y12607185D01*
X11533900Y12607185D01*
X11543212Y12560377D01*
X11543213Y12560374D01*
X11578684Y12507287D01*
X11578687Y12507284D01*
X11631774Y12471813D01*
X11631775Y12471813D01*
X11631776Y12471812D01*
X11641189Y12469940D01*
X11678585Y12462500D01*
X11678592Y12462500D01*
X11678594Y12462499D01*
X11678595Y12462499D01*
X12421405Y12462499D01*
X12421406Y12462499D01*
X12421407Y12462500D01*
X12421414Y12462500D01*
X12449396Y12468067D01*
X12468224Y12471812D01*
X12521314Y12507285D01*
X12556787Y12560375D01*
X12562518Y12589185D01*
X12566099Y12607185D01*
X12566100Y12607195D01*
X12566100Y12892804D01*
X12566099Y12892814D01*
X12556787Y12939622D01*
X12556786Y12939625D01*
X12521315Y12992712D01*
X12521312Y12992715D01*
X12468225Y13028186D01*
X12468222Y13028187D01*
X12421414Y13037499D01*
X12421406Y13037499D01*
X11678594Y13037499D01*
X11678585Y13037499D01*
X11631777Y13028187D01*
X11631774Y13028186D01*
X11578687Y12992715D01*
X11578684Y12992712D01*
X11543213Y12939625D01*
X11543212Y12939622D01*
X11533900Y12892814D01*
X11533900Y12607185D01*
X11183823Y12607185D01*
X11201419Y12640533D01*
X11209453Y12649805D01*
X11220133Y12662130D01*
X11272156Y12776044D01*
X11278572Y12820669D01*
X11289978Y12899998D01*
X11289978Y12900003D01*
X11272157Y13023952D01*
X11272156Y13023954D01*
X11272156Y13023956D01*
X11220133Y13137870D01*
X11220131Y13137872D01*
X11220131Y13137873D01*
X11159681Y13207636D01*
X11135863Y13263995D01*
X11135500Y13272467D01*
X11135500Y13523335D01*
X11154407Y13581526D01*
X11164497Y13593339D01*
X11364897Y13793738D01*
X11419413Y13821515D01*
X11479845Y13811944D01*
X11523110Y13768679D01*
X11533900Y13723734D01*
X11533900Y13607186D01*
X11543212Y13560378D01*
X11543213Y13560375D01*
X11578684Y13507288D01*
X11578687Y13507285D01*
X11631774Y13471814D01*
X11631775Y13471814D01*
X11631776Y13471813D01*
X11640664Y13470045D01*
X11678585Y13462501D01*
X11678592Y13462501D01*
X11678594Y13462500D01*
X11678595Y13462500D01*
X12421405Y13462500D01*
X12421406Y13462500D01*
X12421407Y13462501D01*
X12421414Y13462501D01*
X12449396Y13468068D01*
X12468224Y13471813D01*
X12521314Y13507286D01*
X12556787Y13560376D01*
X12563163Y13592430D01*
X12566099Y13607186D01*
X12566100Y13607196D01*
X12566100Y13892805D01*
X12566099Y13892815D01*
X12556787Y13939623D01*
X12556786Y13939626D01*
X12553195Y13945000D01*
X12536587Y14003888D01*
X12553196Y14055004D01*
X12556787Y14060377D01*
X12561393Y14083534D01*
X12566099Y14107187D01*
X12566100Y14107197D01*
X12566100Y14334900D01*
X12585007Y14393091D01*
X12634507Y14429055D01*
X12665100Y14433900D01*
X12892804Y14433900D01*
X12892805Y14433900D01*
X12892806Y14433901D01*
X12892813Y14433901D01*
X12920795Y14439468D01*
X12939623Y14443213D01*
X12944996Y14446804D01*
X13003883Y14463413D01*
X13055000Y14446805D01*
X13060374Y14443214D01*
X13060375Y14443214D01*
X13060376Y14443213D01*
X13069789Y14441341D01*
X13107185Y14433901D01*
X13107192Y14433901D01*
X13107194Y14433900D01*
X13107195Y14433900D01*
X13392805Y14433900D01*
X13392806Y14433900D01*
X13392807Y14433901D01*
X13392814Y14433901D01*
X13420796Y14439468D01*
X13439624Y14443213D01*
X13492714Y14478686D01*
X13528187Y14531776D01*
X13531932Y14550604D01*
X13537499Y14578586D01*
X13537500Y14578596D01*
X13537500Y15321405D01*
X13537499Y15321415D01*
X13529301Y15362624D01*
X13528187Y15368224D01*
X13492714Y15421314D01*
X13492712Y15421316D01*
X13439625Y15456787D01*
X13439622Y15456788D01*
X13392814Y15466100D01*
X13392806Y15466100D01*
X13160078Y15466100D01*
X13101887Y15485007D01*
X13065923Y15534507D01*
X13065923Y15595693D01*
X13090072Y15635102D01*
X13162206Y15707235D01*
X13207585Y15810009D01*
X13210500Y15835135D01*
X13210499Y16264864D01*
X13207585Y16289991D01*
X13162206Y16392765D01*
X13082765Y16472206D01*
X12979991Y16517585D01*
X12979990Y16517586D01*
X12979988Y16517586D01*
X12954868Y16520500D01*
X12585140Y16520500D01*
X12585135Y16520499D01*
X12560010Y16517586D01*
X12560003Y16517584D01*
X12554709Y16515246D01*
X12493839Y16509043D01*
X12444725Y16535810D01*
X11780038Y17200497D01*
X11752261Y17255014D01*
X11761832Y17315446D01*
X11805097Y17358711D01*
X11850042Y17369501D01*
X11919119Y17369501D01*
X11919122Y17369501D01*
X11943827Y17372366D01*
X12044891Y17416990D01*
X12123010Y17495109D01*
X12159436Y17577609D01*
X12200234Y17623201D01*
X12260043Y17636107D01*
X12316015Y17611394D01*
X12340563Y17577607D01*
X12352753Y17550000D01*
X12376990Y17495109D01*
X12455109Y17416990D01*
X12556173Y17372366D01*
X12580877Y17369500D01*
X12939122Y17369501D01*
X12963827Y17372366D01*
X13064891Y17416990D01*
X13143010Y17495109D01*
X13187634Y17596173D01*
X13190500Y17620877D01*
X13190499Y17882824D01*
X13209406Y17941013D01*
X13235984Y17966112D01*
X13236795Y17966633D01*
X13238124Y17967487D01*
X13320133Y18062130D01*
X13372156Y18176044D01*
X13372157Y18176049D01*
X13389978Y18299998D01*
X13389978Y18300003D01*
X13372157Y18423952D01*
X13372155Y18423959D01*
X13323113Y18531345D01*
X13316138Y18592131D01*
X13346224Y18645408D01*
X13401880Y18670826D01*
X13424576Y18670811D01*
X13425667Y18670685D01*
X13435877Y18669500D01*
X13794122Y18669501D01*
X13818827Y18672366D01*
X13919891Y18716990D01*
X13998010Y18795109D01*
X14034436Y18877609D01*
X14075234Y18923201D01*
X14135043Y18936107D01*
X14191015Y18911394D01*
G37*
%TD.AperFunction*%
%TA.AperFunction,Conductor*%
G36*
X8543261Y18600593D02*
G01*
X8579225Y18551093D01*
X8581440Y18497831D01*
X8577408Y18480693D01*
X8575379Y18474140D01*
X8564500Y18446055D01*
X8564500Y18437290D01*
X8561870Y18414622D01*
X8559865Y18406099D01*
X8564025Y18376276D01*
X8564500Y18369430D01*
X8564500Y17751493D01*
X8545593Y17693302D01*
X8496093Y17657338D01*
X8434907Y17657338D01*
X8409556Y17669815D01*
X8404894Y17673008D01*
X8404892Y17673009D01*
X8404891Y17673010D01*
X8303827Y17717634D01*
X8303826Y17717635D01*
X8303824Y17717635D01*
X8279125Y17720500D01*
X7820881Y17720500D01*
X7820878Y17720499D01*
X7796173Y17717634D01*
X7695109Y17673010D01*
X7616990Y17594891D01*
X7572365Y17493825D01*
X7569500Y17469128D01*
X7569500Y17110882D01*
X7569500Y17110880D01*
X7569501Y17110878D01*
X7572366Y17086173D01*
X7616990Y16985109D01*
X7682097Y16920002D01*
X7709873Y16865487D01*
X7700302Y16805055D01*
X7682098Y16780000D01*
X7616989Y16714891D01*
X7616990Y16714891D01*
X7572365Y16613825D01*
X7569500Y16589128D01*
X7569500Y16374268D01*
X7550593Y16316077D01*
X7540504Y16304265D01*
X7400737Y16164497D01*
X7346220Y16136719D01*
X7330733Y16135500D01*
X7237383Y16135500D01*
X7173536Y16116752D01*
X7117227Y16100218D01*
X7117226Y16100218D01*
X7110434Y16098223D01*
X7109946Y16099883D01*
X7057898Y16093914D01*
X7004623Y16124005D01*
X6987513Y16149814D01*
X6980435Y16165312D01*
X6970133Y16187870D01*
X6888124Y16282513D01*
X6888124Y16282514D01*
X6782774Y16350218D01*
X6662616Y16385500D01*
X6662615Y16385500D01*
X6622575Y16385500D01*
X6564384Y16404407D01*
X6535571Y16444065D01*
X6535571Y16429909D01*
X6499607Y16380408D01*
X6469309Y16365512D01*
X6417229Y16350220D01*
X6417227Y16350219D01*
X6311875Y16282514D01*
X6311875Y16282513D01*
X6229867Y16187871D01*
X6192231Y16105461D01*
X6150859Y16060384D01*
X6090892Y16048233D01*
X6035236Y16073651D01*
X6032174Y16076584D01*
X5948627Y16160131D01*
X5944119Y16165312D01*
X5935491Y16176740D01*
X5915517Y16234573D01*
X5915500Y16236394D01*
X5915500Y16315805D01*
X5915499Y16315815D01*
X5906187Y16362623D01*
X5906186Y16362626D01*
X5865297Y16423822D01*
X5868165Y16425739D01*
X5848155Y16465013D01*
X5857726Y16525445D01*
X5900991Y16568710D01*
X5945936Y16579500D01*
X5986484Y16579500D01*
X6026470Y16571065D01*
X6041129Y16564593D01*
X6046173Y16562366D01*
X6070877Y16559500D01*
X6441416Y16559501D01*
X6499607Y16540594D01*
X6528420Y16500937D01*
X6528420Y16515093D01*
X6564384Y16564593D01*
X6582587Y16575064D01*
X6633000Y16597325D01*
X6654891Y16606990D01*
X6733010Y16685109D01*
X6777634Y16786173D01*
X6780500Y16810877D01*
X6780499Y17169122D01*
X6777634Y17193827D01*
X6733010Y17294891D01*
X6654891Y17373010D01*
X6553827Y17417634D01*
X6553826Y17417635D01*
X6553824Y17417635D01*
X6529125Y17420500D01*
X6070881Y17420500D01*
X6070878Y17420499D01*
X6046173Y17417634D01*
X6027609Y17409437D01*
X6026472Y17408935D01*
X5986484Y17400500D01*
X5613516Y17400500D01*
X5573547Y17408927D01*
X5572411Y17409429D01*
X5526809Y17450219D01*
X5513892Y17510025D01*
X5538595Y17566002D01*
X5572393Y17590564D01*
X5654891Y17626990D01*
X5733010Y17705109D01*
X5777634Y17806173D01*
X5780500Y17830877D01*
X5780499Y18158960D01*
X5799406Y18217149D01*
X5809489Y18228956D01*
X6171038Y18590504D01*
X6225555Y18618281D01*
X6241042Y18619500D01*
X8485070Y18619500D01*
X8543261Y18600593D01*
G37*
%TD.AperFunction*%
%TA.AperFunction,Conductor*%
G36*
X5209375Y24270594D02*
G01*
X5245339Y24221094D01*
X5250133Y24187309D01*
X5237882Y23807533D01*
X5239438Y23778938D01*
X5239438Y23778937D01*
X5244231Y23745158D01*
X5244325Y23744499D01*
X5244328Y23744489D01*
X5274196Y23671130D01*
X5310162Y23621627D01*
X5310162Y23621628D01*
X5325623Y23603303D01*
X5392913Y23561507D01*
X5431707Y23548903D01*
X5451103Y23542600D01*
X5451101Y23542600D01*
X5502242Y23534500D01*
X5502245Y23534500D01*
X6939958Y23534500D01*
X6998149Y23515593D01*
X7034113Y23466093D01*
X7034113Y23404907D01*
X7009963Y23365499D01*
X6972317Y23327852D01*
X6963757Y23319292D01*
X6904726Y23203437D01*
X6904725Y23203435D01*
X6889500Y23107309D01*
X6889500Y22092692D01*
X6904725Y21996568D01*
X6904727Y21996561D01*
X6960832Y21886450D01*
X6963759Y21880706D01*
X7055706Y21788759D01*
X7055708Y21788758D01*
X7105866Y21763201D01*
X7171567Y21729725D01*
X7267693Y21714500D01*
X7832306Y21714501D01*
X7832308Y21714501D01*
X7852948Y21717771D01*
X7928433Y21729725D01*
X8044294Y21788759D01*
X8136241Y21880706D01*
X8195275Y21996567D01*
X8210500Y22092693D01*
X8210499Y23107306D01*
X8204753Y23143581D01*
X8214325Y23204013D01*
X8249011Y23242352D01*
X8288124Y23267487D01*
X8370133Y23362130D01*
X8406815Y23442456D01*
X8426862Y23471328D01*
X8461041Y23505507D01*
X8515558Y23533282D01*
X8531042Y23534500D01*
X10290500Y23534500D01*
X10348691Y23515593D01*
X10384655Y23466093D01*
X10389500Y23435500D01*
X10389500Y23386043D01*
X10370593Y23327852D01*
X10366464Y23323018D01*
X10363757Y23319292D01*
X10304726Y23203437D01*
X10304725Y23203435D01*
X10289500Y23107309D01*
X10289500Y22092692D01*
X10304725Y21996568D01*
X10304727Y21996561D01*
X10360832Y21886450D01*
X10363759Y21880706D01*
X10455706Y21788759D01*
X10455708Y21788758D01*
X10505866Y21763201D01*
X10571567Y21729725D01*
X10667693Y21714500D01*
X11232306Y21714501D01*
X11232308Y21714501D01*
X11252948Y21717771D01*
X11328433Y21729725D01*
X11444294Y21788759D01*
X11536241Y21880706D01*
X11536246Y21880717D01*
X11540402Y21886436D01*
X11589899Y21922404D01*
X11651085Y21922409D01*
X11700588Y21886450D01*
X11717871Y21833651D01*
X11719336Y21833735D01*
X11719500Y21830880D01*
X11719501Y21830878D01*
X11722366Y21806173D01*
X11766990Y21705109D01*
X11845109Y21626990D01*
X11927606Y21590565D01*
X11973200Y21549766D01*
X11986106Y21489957D01*
X11961393Y21433985D01*
X11927606Y21409437D01*
X11845110Y21373011D01*
X11766990Y21294891D01*
X11722365Y21193825D01*
X11719500Y21169128D01*
X11719500Y20954267D01*
X11700593Y20896076D01*
X11690503Y20884263D01*
X11639866Y20833627D01*
X11634690Y20829123D01*
X11624968Y20821782D01*
X11594230Y20788065D01*
X11592654Y20786414D01*
X11579414Y20773173D01*
X11577601Y20770527D01*
X11573345Y20765154D01*
X11553060Y20742904D01*
X11553057Y20742899D01*
X11549890Y20734723D01*
X11539257Y20714550D01*
X11534303Y20707318D01*
X11534302Y20707317D01*
X11527408Y20678008D01*
X11525379Y20671455D01*
X11514500Y20643370D01*
X11514500Y20634605D01*
X11511870Y20611937D01*
X11509865Y20603414D01*
X11514025Y20573591D01*
X11514500Y20566745D01*
X11514500Y20372467D01*
X11495593Y20314276D01*
X11490318Y20307635D01*
X11460649Y20273396D01*
X11408253Y20241801D01*
X11347292Y20247037D01*
X11311012Y20273397D01*
X11238124Y20357513D01*
X11238124Y20357514D01*
X11132774Y20425218D01*
X11012616Y20460500D01*
X11012615Y20460500D01*
X10887385Y20460500D01*
X10887383Y20460500D01*
X10767225Y20425218D01*
X10661877Y20357515D01*
X10619318Y20308399D01*
X10566921Y20276804D01*
X10505960Y20282040D01*
X10459720Y20322108D01*
X10445499Y20373231D01*
X10445499Y20896353D01*
X10445499Y20896356D01*
X10442488Y20922320D01*
X10395599Y21028514D01*
X10313514Y21110599D01*
X10207320Y21157488D01*
X10207317Y21157489D01*
X10207319Y21157489D01*
X10181359Y21160500D01*
X9788647Y21160500D01*
X9788644Y21160499D01*
X9762680Y21157488D01*
X9656486Y21110599D01*
X9574401Y21028514D01*
X9527511Y20922318D01*
X9524500Y20896362D01*
X9524500Y19603648D01*
X9524500Y19603646D01*
X9524501Y19603644D01*
X9527512Y19577680D01*
X9574401Y19471486D01*
X9574402Y19471485D01*
X9662973Y19382913D01*
X9662118Y19382059D01*
X9693768Y19340950D01*
X9699500Y19307752D01*
X9699500Y19159500D01*
X9680593Y19101309D01*
X9631093Y19065345D01*
X9600500Y19060500D01*
X9311043Y19060500D01*
X9252852Y19079407D01*
X9241039Y19089496D01*
X9062327Y19268208D01*
X9034550Y19322725D01*
X9044121Y19383157D01*
X9062325Y19408213D01*
X9125599Y19471486D01*
X9172488Y19577680D01*
X9175500Y19603643D01*
X9175499Y20896356D01*
X9172488Y20922320D01*
X9125599Y21028514D01*
X9043514Y21110599D01*
X8937320Y21157488D01*
X8937317Y21157489D01*
X8937319Y21157489D01*
X8911359Y21160500D01*
X8518647Y21160500D01*
X8518644Y21160499D01*
X8492680Y21157488D01*
X8386486Y21110599D01*
X8304401Y21028514D01*
X8257511Y20922318D01*
X8254500Y20896362D01*
X8254500Y20509500D01*
X8235593Y20451309D01*
X8186093Y20415345D01*
X8155500Y20410500D01*
X8087383Y20410500D01*
X7967225Y20375218D01*
X7861880Y20307517D01*
X7861875Y20307512D01*
X7850747Y20294669D01*
X7798351Y20263073D01*
X7775928Y20260500D01*
X7694051Y20260500D01*
X7687204Y20260975D01*
X7675124Y20262661D01*
X7636601Y20260880D01*
X7629543Y20260553D01*
X7627267Y20260500D01*
X7608540Y20260500D01*
X7605392Y20259911D01*
X7598583Y20259122D01*
X7568507Y20257732D01*
X7568500Y20257731D01*
X7560476Y20254188D01*
X7538696Y20247444D01*
X7530082Y20245834D01*
X7530076Y20245831D01*
X7513113Y20235328D01*
X7460998Y20220500D01*
X7220882Y20220500D01*
X7220877Y20220499D01*
X7196172Y20217634D01*
X7196173Y20217634D01*
X7128753Y20187865D01*
X7095107Y20173009D01*
X7058536Y20136439D01*
X7004019Y20108662D01*
X6943587Y20118235D01*
X6918533Y20136438D01*
X6842765Y20212206D01*
X6739991Y20257585D01*
X6739990Y20257586D01*
X6739988Y20257586D01*
X6714868Y20260500D01*
X6285139Y20260500D01*
X6285136Y20260499D01*
X6260009Y20257586D01*
X6193392Y20228171D01*
X6157235Y20212206D01*
X6084501Y20139473D01*
X6029987Y20111697D01*
X5969555Y20121268D01*
X5926290Y20164533D01*
X5915500Y20209478D01*
X5915500Y20315805D01*
X5915499Y20315815D01*
X5906187Y20362623D01*
X5906186Y20362626D01*
X5870715Y20415713D01*
X5870712Y20415716D01*
X5867768Y20417683D01*
X5864128Y20422300D01*
X5863819Y20422609D01*
X5863855Y20422646D01*
X5829887Y20465732D01*
X5827483Y20526870D01*
X5861475Y20577745D01*
X5867768Y20582317D01*
X5869630Y20583563D01*
X5870714Y20584286D01*
X5906187Y20637376D01*
X5912966Y20671455D01*
X5915499Y20684186D01*
X5915500Y20684196D01*
X5915500Y21315805D01*
X5915499Y21315815D01*
X5907564Y21355701D01*
X5906187Y21362624D01*
X5899247Y21373010D01*
X5870715Y21415713D01*
X5870712Y21415716D01*
X5817625Y21451187D01*
X5817622Y21451188D01*
X5770814Y21460500D01*
X5770806Y21460500D01*
X4189194Y21460500D01*
X4189185Y21460500D01*
X4142377Y21451188D01*
X4142374Y21451187D01*
X4089284Y21415713D01*
X4089283Y21415712D01*
X4066545Y21381683D01*
X4042464Y21356624D01*
X4041195Y21355701D01*
X4027908Y21347554D01*
X4005708Y21336243D01*
X3982577Y21313112D01*
X3781623Y21112160D01*
X3765159Y21098890D01*
X3763039Y21097527D01*
X3703867Y21081961D01*
X3646846Y21104149D01*
X3613757Y21155616D01*
X3610500Y21180801D01*
X3610500Y22765735D01*
X3629407Y22823926D01*
X3639490Y22835733D01*
X5064262Y24260506D01*
X5118779Y24288282D01*
X5134266Y24289501D01*
X5151184Y24289501D01*
X5209375Y24270594D01*
G37*
%TD.AperFunction*%
%TD*%
%TA.AperFunction,Conductor*%
%TO.N,GND*%
G36*
X24815616Y26799395D02*
G01*
X25069921Y26782727D01*
X25076342Y26781881D01*
X25324701Y26732479D01*
X25330958Y26730803D01*
X25570745Y26649407D01*
X25576718Y26646933D01*
X25803840Y26534928D01*
X25809448Y26531690D01*
X26019998Y26391006D01*
X26025140Y26387060D01*
X26215519Y26220103D01*
X26220102Y26215520D01*
X26387059Y26025141D01*
X26391005Y26019999D01*
X26531689Y25809449D01*
X26534930Y25803836D01*
X26646928Y25576727D01*
X26649406Y25570744D01*
X26730801Y25330962D01*
X26732478Y25324702D01*
X26781880Y25076343D01*
X26782726Y25069917D01*
X26799393Y24815619D01*
X26799499Y24812381D01*
X26799499Y22529804D01*
X26780592Y22471613D01*
X26731092Y22435649D01*
X26669906Y22435649D01*
X26664978Y22437734D01*
X26536262Y22482774D01*
X26536253Y22482776D01*
X26507207Y22485500D01*
X24192800Y22485500D01*
X24163745Y22482776D01*
X24163740Y22482775D01*
X24041365Y22439954D01*
X24041364Y22439953D01*
X24041363Y22439953D01*
X24041362Y22439952D01*
X23937040Y22362960D01*
X23900501Y22313450D01*
X23860047Y22258636D01*
X23860046Y22258635D01*
X23817226Y22136263D01*
X23817224Y22136254D01*
X23814500Y22107210D01*
X23814500Y19792801D01*
X23817224Y19763746D01*
X23817225Y19763741D01*
X23860046Y19641366D01*
X23860048Y19641362D01*
X23937040Y19537040D01*
X24041362Y19460048D01*
X24041365Y19460047D01*
X24169428Y19415235D01*
X24168730Y19413244D01*
X24213654Y19386968D01*
X24238224Y19330933D01*
X24238051Y19309733D01*
X24234500Y19279121D01*
X24234500Y18820882D01*
X24234500Y18820880D01*
X24234501Y18820878D01*
X24237366Y18796173D01*
X24281990Y18695109D01*
X24360109Y18616990D01*
X24461173Y18572366D01*
X24485877Y18569500D01*
X24844122Y18569501D01*
X24868827Y18572366D01*
X24969891Y18616990D01*
X24969895Y18616995D01*
X24977460Y18622175D01*
X25033408Y18639500D01*
X25164840Y18639500D01*
X25204828Y18631065D01*
X25212234Y18627795D01*
X25212235Y18627794D01*
X25315009Y18582415D01*
X25340135Y18579500D01*
X25709864Y18579501D01*
X25734991Y18582415D01*
X25837765Y18627794D01*
X25917206Y18707235D01*
X25917207Y18707240D01*
X25922390Y18714803D01*
X25925142Y18712918D01*
X25955195Y18746533D01*
X26014998Y18759467D01*
X26070981Y18734779D01*
X26086206Y18713842D01*
X26087610Y18714803D01*
X26092792Y18707238D01*
X26092793Y18707237D01*
X26092794Y18707235D01*
X26172235Y18627794D01*
X26275009Y18582415D01*
X26300135Y18579500D01*
X26669864Y18579501D01*
X26689095Y18581732D01*
X26749074Y18569655D01*
X26790502Y18524629D01*
X26799499Y18483391D01*
X26799499Y15329804D01*
X26780592Y15271613D01*
X26731092Y15235649D01*
X26669906Y15235649D01*
X26664978Y15237734D01*
X26536262Y15282774D01*
X26536253Y15282776D01*
X26507207Y15285500D01*
X24192800Y15285500D01*
X24163745Y15282776D01*
X24163740Y15282775D01*
X24041365Y15239954D01*
X24041364Y15239953D01*
X24041363Y15239953D01*
X24041362Y15239952D01*
X23937040Y15162960D01*
X23900501Y15113450D01*
X23860047Y15058636D01*
X23860046Y15058635D01*
X23817226Y14936263D01*
X23817224Y14936254D01*
X23814500Y14907210D01*
X23814500Y12592801D01*
X23817224Y12563746D01*
X23817225Y12563741D01*
X23860046Y12441366D01*
X23860048Y12441362D01*
X23937040Y12337040D01*
X24041362Y12260048D01*
X24041365Y12260047D01*
X24167560Y12215889D01*
X24216240Y12178824D01*
X24233837Y12120223D01*
X24233202Y12111036D01*
X24229500Y12079130D01*
X24229500Y11620882D01*
X24229500Y11620880D01*
X24229501Y11620878D01*
X24232366Y11596173D01*
X24276990Y11495109D01*
X24355109Y11416990D01*
X24456173Y11372366D01*
X24480877Y11369500D01*
X24839122Y11369501D01*
X24863827Y11372366D01*
X24964891Y11416990D01*
X24964895Y11416995D01*
X24972460Y11422175D01*
X25028408Y11439500D01*
X25179840Y11439500D01*
X25219828Y11431065D01*
X25227234Y11427795D01*
X25227235Y11427794D01*
X25330009Y11382415D01*
X25355135Y11379500D01*
X25724864Y11379501D01*
X25749991Y11382415D01*
X25852765Y11427794D01*
X25932206Y11507235D01*
X25932207Y11507240D01*
X25937390Y11514803D01*
X25940142Y11512918D01*
X25970195Y11546533D01*
X26029998Y11559467D01*
X26085981Y11534779D01*
X26101206Y11513842D01*
X26102610Y11514803D01*
X26107792Y11507238D01*
X26107793Y11507237D01*
X26107794Y11507235D01*
X26187235Y11427794D01*
X26290009Y11382415D01*
X26315135Y11379500D01*
X26684864Y11379501D01*
X26689094Y11379992D01*
X26749075Y11367915D01*
X26790502Y11322888D01*
X26799499Y11281651D01*
X26799499Y8129804D01*
X26780592Y8071613D01*
X26731092Y8035649D01*
X26669906Y8035649D01*
X26664978Y8037734D01*
X26536262Y8082774D01*
X26536253Y8082776D01*
X26507207Y8085500D01*
X24192800Y8085500D01*
X24163745Y8082776D01*
X24163740Y8082775D01*
X24041365Y8039954D01*
X24041364Y8039953D01*
X24041363Y8039953D01*
X24041362Y8039952D01*
X23937040Y7962960D01*
X23900501Y7913450D01*
X23860047Y7858636D01*
X23860046Y7858635D01*
X23817226Y7736263D01*
X23817224Y7736254D01*
X23814500Y7707210D01*
X23814500Y5392801D01*
X23817224Y5363746D01*
X23817225Y5363741D01*
X23860046Y5241366D01*
X23860048Y5241362D01*
X23937040Y5137040D01*
X24041362Y5060048D01*
X24041365Y5060047D01*
X24167560Y5015889D01*
X24216240Y4978824D01*
X24233837Y4920223D01*
X24233202Y4911036D01*
X24229500Y4879130D01*
X24229500Y4420882D01*
X24229500Y4420880D01*
X24229501Y4420878D01*
X24232366Y4396173D01*
X24276990Y4295109D01*
X24355109Y4216990D01*
X24456173Y4172366D01*
X24480877Y4169500D01*
X24839122Y4169501D01*
X24863827Y4172366D01*
X24964891Y4216990D01*
X24964895Y4216995D01*
X24972460Y4222175D01*
X25028408Y4239500D01*
X25159840Y4239500D01*
X25199828Y4231065D01*
X25207234Y4227795D01*
X25207235Y4227794D01*
X25310009Y4182415D01*
X25335135Y4179500D01*
X25704864Y4179501D01*
X25729991Y4182415D01*
X25832765Y4227794D01*
X25912206Y4307235D01*
X25912207Y4307240D01*
X25917390Y4314803D01*
X25920142Y4312918D01*
X25950195Y4346533D01*
X26009998Y4359467D01*
X26065981Y4334779D01*
X26081206Y4313842D01*
X26082610Y4314803D01*
X26087792Y4307238D01*
X26087793Y4307237D01*
X26087794Y4307235D01*
X26167235Y4227794D01*
X26270009Y4182415D01*
X26295135Y4179500D01*
X26664864Y4179501D01*
X26689096Y4182312D01*
X26749075Y4170235D01*
X26790503Y4125208D01*
X26799500Y4083971D01*
X26799500Y2187621D01*
X26799394Y2184383D01*
X26782726Y1930084D01*
X26781880Y1923658D01*
X26732478Y1675299D01*
X26730801Y1669039D01*
X26649406Y1429257D01*
X26646926Y1423268D01*
X26534930Y1196165D01*
X26531689Y1190552D01*
X26391005Y980002D01*
X26387059Y974860D01*
X26220102Y784481D01*
X26215519Y779898D01*
X26025140Y612941D01*
X26019998Y608995D01*
X25809448Y468311D01*
X25803835Y465070D01*
X25576732Y353074D01*
X25570743Y350594D01*
X25330961Y269199D01*
X25324701Y267522D01*
X25076342Y218120D01*
X25069916Y217274D01*
X24833822Y201800D01*
X24815616Y200606D01*
X24812380Y200500D01*
X21547685Y200500D01*
X21489494Y219407D01*
X21453530Y268907D01*
X21453530Y330093D01*
X21454241Y332198D01*
X21482774Y413739D01*
X21482774Y413740D01*
X21482775Y413742D01*
X21485500Y442801D01*
X21485499Y2186000D01*
X23608357Y2186000D01*
X23628885Y1964464D01*
X23689771Y1750472D01*
X23788942Y1551311D01*
X23923019Y1373764D01*
X24087438Y1223876D01*
X24276599Y1106753D01*
X24484060Y1026382D01*
X24702757Y985500D01*
X24925243Y985500D01*
X25143940Y1026382D01*
X25351401Y1106753D01*
X25540562Y1223876D01*
X25704981Y1373764D01*
X25839058Y1551311D01*
X25938229Y1750472D01*
X25999115Y1964464D01*
X26019643Y2186000D01*
X25999115Y2407536D01*
X25938229Y2621528D01*
X25839058Y2820689D01*
X25704981Y2998236D01*
X25540562Y3148124D01*
X25351401Y3265247D01*
X25143940Y3345618D01*
X25143939Y3345619D01*
X25143937Y3345619D01*
X24925243Y3386500D01*
X24702757Y3386500D01*
X24484062Y3345619D01*
X24407797Y3316074D01*
X24276599Y3265247D01*
X24097585Y3154407D01*
X24087438Y3148124D01*
X23923020Y2998237D01*
X23788943Y2820691D01*
X23788938Y2820682D01*
X23710018Y2662190D01*
X23689771Y2621528D01*
X23674585Y2568155D01*
X23628885Y2407536D01*
X23612053Y2225882D01*
X23608357Y2186000D01*
X21485499Y2186000D01*
X21485499Y2509965D01*
X21504406Y2568155D01*
X21553906Y2604119D01*
X21604650Y2604119D01*
X21605127Y2606517D01*
X21630421Y2601486D01*
X21641597Y2599263D01*
X21668028Y2594006D01*
X21721411Y2564109D01*
X21723513Y2561761D01*
X21761876Y2517487D01*
X21761878Y2517486D01*
X21761880Y2517484D01*
X21867225Y2449783D01*
X21867227Y2449782D01*
X21987385Y2414500D01*
X21987386Y2414500D01*
X22112614Y2414500D01*
X22112615Y2414500D01*
X22232773Y2449782D01*
X22338124Y2517487D01*
X22420133Y2612130D01*
X22472156Y2726044D01*
X22472157Y2726049D01*
X22489978Y2849998D01*
X22489978Y2850003D01*
X22472157Y2973952D01*
X22472156Y2973954D01*
X22472156Y2973956D01*
X22420133Y3087870D01*
X22338124Y3182513D01*
X22338124Y3182514D01*
X22232774Y3250218D01*
X22112616Y3285500D01*
X22112615Y3285500D01*
X21987385Y3285500D01*
X21987383Y3285500D01*
X21867226Y3250218D01*
X21823112Y3221868D01*
X21763937Y3206315D01*
X21706921Y3228514D01*
X21699586Y3235149D01*
X21184737Y3749998D01*
X22410022Y3749998D01*
X22427842Y3626049D01*
X22427843Y3626047D01*
X22427843Y3626046D01*
X22427844Y3626044D01*
X22479867Y3512130D01*
X22479868Y3512129D01*
X22561875Y3417488D01*
X22561875Y3417487D01*
X22667225Y3349783D01*
X22667227Y3349782D01*
X22787385Y3314500D01*
X22787386Y3314500D01*
X22912614Y3314500D01*
X22912615Y3314500D01*
X23032773Y3349782D01*
X23138124Y3417487D01*
X23220133Y3512130D01*
X23272156Y3626044D01*
X23272157Y3626049D01*
X23289978Y3749998D01*
X23289978Y3750003D01*
X23272157Y3873952D01*
X23272156Y3873954D01*
X23272156Y3873956D01*
X23220133Y3987870D01*
X23182342Y4031483D01*
X23158525Y4087843D01*
X23172384Y4147438D01*
X23184225Y4161496D01*
X23183487Y4162135D01*
X23211984Y4195024D01*
X23270133Y4262130D01*
X23322156Y4376044D01*
X23325050Y4396173D01*
X23339978Y4499998D01*
X23339978Y4500003D01*
X23322157Y4623952D01*
X23322156Y4623954D01*
X23322156Y4623956D01*
X23270133Y4737870D01*
X23188124Y4832513D01*
X23188124Y4832514D01*
X23082774Y4900218D01*
X22962616Y4935500D01*
X22962615Y4935500D01*
X22837385Y4935500D01*
X22837383Y4935500D01*
X22717225Y4900218D01*
X22611875Y4832514D01*
X22611875Y4832513D01*
X22529868Y4737872D01*
X22477843Y4623954D01*
X22477842Y4623952D01*
X22460022Y4500003D01*
X22460022Y4499998D01*
X22477842Y4376049D01*
X22477843Y4376047D01*
X22477843Y4376046D01*
X22477844Y4376044D01*
X22529867Y4262130D01*
X22529868Y4262129D01*
X22567657Y4218518D01*
X22591475Y4162159D01*
X22577617Y4102564D01*
X22565780Y4088498D01*
X22566513Y4087863D01*
X22561878Y4082515D01*
X22561876Y4082513D01*
X22479867Y3987870D01*
X22427843Y3873954D01*
X22427842Y3873952D01*
X22410022Y3750003D01*
X22410022Y3749998D01*
X21184737Y3749998D01*
X20839496Y4095239D01*
X20811719Y4149756D01*
X20810500Y4165243D01*
X20810500Y6615500D01*
X20829407Y6673691D01*
X20878907Y6709655D01*
X20909500Y6714500D01*
X21215805Y6714500D01*
X21215806Y6714500D01*
X21215807Y6714501D01*
X21215814Y6714501D01*
X21243796Y6720068D01*
X21262624Y6723813D01*
X21315714Y6759286D01*
X21351187Y6812376D01*
X21354932Y6831204D01*
X21360499Y6859186D01*
X21360500Y6859196D01*
X21360500Y7140805D01*
X21360499Y7140815D01*
X21351187Y7187623D01*
X21351186Y7187626D01*
X21315715Y7240713D01*
X21315712Y7240716D01*
X21262625Y7276187D01*
X21262622Y7276188D01*
X21215814Y7285500D01*
X21215806Y7285500D01*
X20650341Y7285500D01*
X20549659Y7285500D01*
X20549656Y7285500D01*
X20532858Y7279386D01*
X20471710Y7277252D01*
X20420985Y7311467D01*
X20400060Y7368963D01*
X20400000Y7372416D01*
X20400000Y9849998D01*
X20960022Y9849998D01*
X20977842Y9726049D01*
X20977843Y9726047D01*
X20977843Y9726046D01*
X20977844Y9726044D01*
X21029867Y9612130D01*
X21029868Y9612129D01*
X21111875Y9517488D01*
X21111875Y9517487D01*
X21217225Y9449783D01*
X21217227Y9449782D01*
X21337385Y9414500D01*
X21337386Y9414500D01*
X21462614Y9414500D01*
X21462615Y9414500D01*
X21582773Y9449782D01*
X21688124Y9517487D01*
X21770133Y9612130D01*
X21822156Y9726044D01*
X21827344Y9762129D01*
X21839978Y9849998D01*
X21839978Y9850003D01*
X21822157Y9973952D01*
X21822156Y9973954D01*
X21822156Y9973956D01*
X21810263Y9999998D01*
X22760022Y9999998D01*
X22777842Y9876049D01*
X22777843Y9876047D01*
X22777843Y9876046D01*
X22777844Y9876044D01*
X22829867Y9762130D01*
X22829868Y9762129D01*
X22911875Y9667488D01*
X22911875Y9667487D01*
X23017225Y9599783D01*
X23017227Y9599782D01*
X23137385Y9564500D01*
X23137386Y9564500D01*
X23262614Y9564500D01*
X23262615Y9564500D01*
X23382773Y9599782D01*
X23488124Y9667487D01*
X23570133Y9762130D01*
X23622156Y9876044D01*
X23636233Y9973954D01*
X23639978Y9999998D01*
X23639978Y10000003D01*
X23622157Y10123952D01*
X23622156Y10123954D01*
X23622156Y10123956D01*
X23570133Y10237870D01*
X23488124Y10332513D01*
X23488124Y10332514D01*
X23382774Y10400218D01*
X23262616Y10435500D01*
X23262615Y10435500D01*
X23137385Y10435500D01*
X23137383Y10435500D01*
X23017225Y10400218D01*
X22911875Y10332514D01*
X22911875Y10332513D01*
X22829868Y10237872D01*
X22777843Y10123954D01*
X22777842Y10123952D01*
X22760022Y10000003D01*
X22760022Y9999998D01*
X21810263Y9999998D01*
X21770133Y10087870D01*
X21688124Y10182513D01*
X21688124Y10182514D01*
X21582774Y10250218D01*
X21462616Y10285500D01*
X21462615Y10285500D01*
X21337385Y10285500D01*
X21337383Y10285500D01*
X21217225Y10250218D01*
X21111875Y10182514D01*
X21111875Y10182513D01*
X21029868Y10087872D01*
X20977843Y9973954D01*
X20977842Y9973952D01*
X20960022Y9850003D01*
X20960022Y9849998D01*
X20400000Y9849998D01*
X20400000Y13777585D01*
X20418907Y13835776D01*
X20468407Y13871740D01*
X20529593Y13871740D01*
X20532863Y13870614D01*
X20549659Y13864500D01*
X21215805Y13864500D01*
X21215806Y13864500D01*
X21215807Y13864501D01*
X21215814Y13864501D01*
X21246542Y13870614D01*
X21262624Y13873813D01*
X21315714Y13909286D01*
X21351187Y13962376D01*
X21355721Y13985167D01*
X21360499Y14009186D01*
X21360500Y14009196D01*
X21360500Y14290805D01*
X21360499Y14290815D01*
X21351187Y14337623D01*
X21351186Y14337626D01*
X21315715Y14390713D01*
X21315712Y14390716D01*
X21262625Y14426187D01*
X21262622Y14426188D01*
X21215814Y14435500D01*
X21215806Y14435500D01*
X20859500Y14435500D01*
X20801309Y14454407D01*
X20765345Y14503907D01*
X20760500Y14534500D01*
X20760500Y16728910D01*
X20779407Y16787101D01*
X20789494Y16798911D01*
X20803334Y16812752D01*
X20857847Y16840530D01*
X20918280Y16830960D01*
X20961546Y16787697D01*
X20971331Y16728661D01*
X20969725Y16717488D01*
X20960023Y16650003D01*
X20960022Y16649998D01*
X20977842Y16526049D01*
X20977843Y16526047D01*
X20977843Y16526046D01*
X20977844Y16526044D01*
X21029867Y16412130D01*
X21029868Y16412129D01*
X21111875Y16317488D01*
X21111875Y16317487D01*
X21217225Y16249783D01*
X21217227Y16249782D01*
X21337385Y16214500D01*
X21337386Y16214500D01*
X21462614Y16214500D01*
X21462615Y16214500D01*
X21582773Y16249782D01*
X21688124Y16317487D01*
X21770133Y16412130D01*
X21822156Y16526044D01*
X21839978Y16650000D01*
X21828668Y16728661D01*
X21822157Y16773952D01*
X21822156Y16773954D01*
X21822156Y16773956D01*
X21770133Y16887870D01*
X21688124Y16982513D01*
X21688124Y16982514D01*
X21583116Y17049998D01*
X22760022Y17049998D01*
X22777842Y16926049D01*
X22777843Y16926047D01*
X22777843Y16926046D01*
X22777844Y16926044D01*
X22829867Y16812130D01*
X22829868Y16812129D01*
X22911875Y16717488D01*
X22911875Y16717487D01*
X23017225Y16649783D01*
X23017227Y16649782D01*
X23137385Y16614500D01*
X23137386Y16614500D01*
X23262614Y16614500D01*
X23262615Y16614500D01*
X23382773Y16649782D01*
X23488124Y16717487D01*
X23570133Y16812130D01*
X23622156Y16926044D01*
X23639978Y17050000D01*
X23637157Y17069618D01*
X23622157Y17173952D01*
X23622156Y17173954D01*
X23622156Y17173956D01*
X23570133Y17287870D01*
X23488124Y17382513D01*
X23488124Y17382514D01*
X23382774Y17450218D01*
X23262616Y17485500D01*
X23262615Y17485500D01*
X23137385Y17485500D01*
X23137383Y17485500D01*
X23017225Y17450218D01*
X22911875Y17382514D01*
X22911875Y17382513D01*
X22829868Y17287872D01*
X22777843Y17173954D01*
X22777842Y17173952D01*
X22760022Y17050003D01*
X22760022Y17049998D01*
X21583116Y17049998D01*
X21582774Y17050218D01*
X21462616Y17085500D01*
X21462615Y17085500D01*
X21462019Y17085500D01*
X21461546Y17085654D01*
X21455609Y17086507D01*
X21455756Y17087535D01*
X21403828Y17104407D01*
X21367864Y17153907D01*
X21367864Y17215093D01*
X21371963Y17225622D01*
X21372156Y17226044D01*
X21372157Y17226049D01*
X21389978Y17349998D01*
X21389978Y17350003D01*
X21372157Y17473952D01*
X21372156Y17473954D01*
X21372156Y17473956D01*
X21320133Y17587870D01*
X21238124Y17682513D01*
X21238124Y17682514D01*
X21132774Y17750218D01*
X21012616Y17785500D01*
X21012615Y17785500D01*
X20887385Y17785500D01*
X20887383Y17785500D01*
X20767225Y17750218D01*
X20661875Y17682514D01*
X20661875Y17682513D01*
X20575230Y17582519D01*
X20573245Y17584239D01*
X20534907Y17552896D01*
X20473821Y17549410D01*
X20422353Y17582496D01*
X20400161Y17639515D01*
X20400000Y17645155D01*
X20400000Y21415500D01*
X20418907Y21473691D01*
X20468407Y21509655D01*
X20499000Y21514500D01*
X21165805Y21514500D01*
X21165806Y21514500D01*
X21165807Y21514501D01*
X21165814Y21514501D01*
X21193796Y21520068D01*
X21212624Y21523813D01*
X21265714Y21559286D01*
X21301187Y21612376D01*
X21304932Y21631204D01*
X21310499Y21659186D01*
X21310500Y21659196D01*
X21310500Y21940805D01*
X21310499Y21940815D01*
X21301187Y21987623D01*
X21301186Y21987626D01*
X21265715Y22040713D01*
X21265712Y22040716D01*
X21212625Y22076187D01*
X21212622Y22076188D01*
X21165814Y22085500D01*
X21165806Y22085500D01*
X20859500Y22085500D01*
X20801309Y22104407D01*
X20765345Y22153907D01*
X20760500Y22184500D01*
X20760500Y23215500D01*
X20779407Y23273691D01*
X20828907Y23309655D01*
X20859500Y23314500D01*
X21290949Y23314500D01*
X21297796Y23314025D01*
X21309870Y23312341D01*
X21309873Y23312340D01*
X21309875Y23312341D01*
X21309876Y23312340D01*
X21333740Y23313444D01*
X21355445Y23314448D01*
X21357726Y23314500D01*
X21376448Y23314500D01*
X21376454Y23314500D01*
X21379602Y23315089D01*
X21386402Y23315880D01*
X21416497Y23317270D01*
X21424506Y23320807D01*
X21446306Y23327559D01*
X21454921Y23329168D01*
X21480523Y23345022D01*
X21486580Y23348215D01*
X21514141Y23360383D01*
X21520337Y23366581D01*
X21538223Y23380748D01*
X21545672Y23385359D01*
X21563824Y23409399D01*
X21568314Y23414558D01*
X21889261Y23735504D01*
X21943778Y23763281D01*
X21959265Y23764500D01*
X22012614Y23764500D01*
X22012615Y23764500D01*
X22132773Y23799782D01*
X22238124Y23867487D01*
X22320133Y23962130D01*
X22372156Y24076044D01*
X22385425Y24168333D01*
X22389978Y24199998D01*
X22389978Y24200003D01*
X22372157Y24323952D01*
X22372156Y24323954D01*
X22372156Y24323956D01*
X22320133Y24437870D01*
X22238124Y24532513D01*
X22238124Y24532514D01*
X22132774Y24600218D01*
X22012616Y24635500D01*
X22012615Y24635500D01*
X21887385Y24635500D01*
X21887383Y24635500D01*
X21767225Y24600218D01*
X21661875Y24532514D01*
X21659313Y24529556D01*
X21606914Y24497965D01*
X21545953Y24503206D01*
X21499716Y24543278D01*
X21485499Y24594391D01*
X21485499Y24814000D01*
X23608357Y24814000D01*
X23628885Y24592464D01*
X23689771Y24378472D01*
X23788942Y24179311D01*
X23923019Y24001764D01*
X24087438Y23851876D01*
X24276599Y23734753D01*
X24484060Y23654382D01*
X24702757Y23613500D01*
X24925243Y23613500D01*
X25143940Y23654382D01*
X25351401Y23734753D01*
X25540562Y23851876D01*
X25704981Y24001764D01*
X25839058Y24179311D01*
X25938229Y24378472D01*
X25999115Y24592464D01*
X26019643Y24814000D01*
X25999115Y25035536D01*
X25938229Y25249528D01*
X25839058Y25448689D01*
X25704981Y25626236D01*
X25540562Y25776124D01*
X25351401Y25893247D01*
X25143940Y25973618D01*
X25143939Y25973619D01*
X25143937Y25973619D01*
X24925243Y26014500D01*
X24702757Y26014500D01*
X24484062Y25973619D01*
X24407797Y25944074D01*
X24276599Y25893247D01*
X24141260Y25809449D01*
X24087438Y25776124D01*
X23923020Y25626237D01*
X23788943Y25448691D01*
X23788938Y25448682D01*
X23695151Y25260333D01*
X23689771Y25249528D01*
X23628885Y25035536D01*
X23608357Y24814000D01*
X21485499Y24814000D01*
X21485499Y26557198D01*
X21482775Y26586258D01*
X21454240Y26667803D01*
X21452868Y26728972D01*
X21487711Y26779266D01*
X21545463Y26799475D01*
X21547685Y26799500D01*
X24774118Y26799500D01*
X24812380Y26799500D01*
X24815616Y26799395D01*
G37*
%TD.AperFunction*%
%TD*%
%TA.AperFunction,Conductor*%
%TO.N,VBUS*%
G36*
X20159191Y26780593D02*
G01*
X20195155Y26731093D01*
X20200000Y26700500D01*
X20200000Y299500D01*
X20181093Y241309D01*
X20131593Y205345D01*
X20101000Y200500D01*
X18399000Y200500D01*
X18340809Y219407D01*
X18304845Y268907D01*
X18300000Y299500D01*
X18300000Y1699999D01*
X18300000Y1700000D01*
X18299999Y1700000D01*
X16789982Y1700000D01*
X16736460Y1715716D01*
X16700358Y1738917D01*
X16682772Y1750219D01*
X16562616Y1785500D01*
X16562615Y1785500D01*
X16437385Y1785500D01*
X16437383Y1785500D01*
X16317227Y1750219D01*
X16289679Y1732514D01*
X16263539Y1715716D01*
X16210018Y1700000D01*
X14739982Y1700000D01*
X14686460Y1715716D01*
X14650358Y1738917D01*
X14632772Y1750219D01*
X14512616Y1785500D01*
X14512615Y1785500D01*
X14387385Y1785500D01*
X14387383Y1785500D01*
X14267227Y1750219D01*
X14239679Y1732514D01*
X14213539Y1715716D01*
X14160018Y1700000D01*
X12739982Y1700000D01*
X12686460Y1715716D01*
X12650358Y1738917D01*
X12632772Y1750219D01*
X12512616Y1785500D01*
X12512615Y1785500D01*
X12387385Y1785500D01*
X12387383Y1785500D01*
X12267227Y1750219D01*
X12239679Y1732514D01*
X12213539Y1715716D01*
X12160018Y1700000D01*
X10861509Y1700000D01*
X10803318Y1718907D01*
X10793506Y1727912D01*
X10793476Y1727876D01*
X10788124Y1732514D01*
X10682774Y1800218D01*
X10562616Y1835500D01*
X10562615Y1835500D01*
X10437385Y1835500D01*
X10437383Y1835500D01*
X10317225Y1800218D01*
X10211875Y1732514D01*
X10206524Y1727876D01*
X10205272Y1729321D01*
X10160908Y1702571D01*
X10138491Y1700000D01*
X8861509Y1700000D01*
X8803318Y1718907D01*
X8793506Y1727912D01*
X8793476Y1727876D01*
X8788124Y1732514D01*
X8682774Y1800218D01*
X8562616Y1835500D01*
X8562615Y1835500D01*
X8437385Y1835500D01*
X8437383Y1835500D01*
X8317225Y1800218D01*
X8211875Y1732514D01*
X8206524Y1727876D01*
X8205272Y1729321D01*
X8160908Y1702571D01*
X8138491Y1700000D01*
X6861509Y1700000D01*
X6803318Y1718907D01*
X6793506Y1727912D01*
X6793476Y1727876D01*
X6788124Y1732514D01*
X6682774Y1800218D01*
X6562616Y1835500D01*
X6562615Y1835500D01*
X6437385Y1835500D01*
X6437381Y1835500D01*
X6376891Y1817738D01*
X6315731Y1819486D01*
X6267278Y1856848D01*
X6250000Y1912728D01*
X6250000Y3351000D01*
X6268907Y3409191D01*
X6318407Y3445155D01*
X6349000Y3450000D01*
X7999999Y3450000D01*
X8000000Y3450000D01*
X8000000Y4451001D01*
X8018907Y4509191D01*
X8068407Y4545155D01*
X8099000Y4550000D01*
X11251000Y4550000D01*
X11309191Y4531093D01*
X11345155Y4481593D01*
X11350000Y4451000D01*
X11349999Y3450001D01*
X11350000Y3450001D01*
X11350000Y3450000D01*
X13799999Y3450000D01*
X13800000Y3450000D01*
X13800000Y4551000D01*
X13818907Y4609191D01*
X13868407Y4645155D01*
X13899000Y4650000D01*
X18299999Y4650000D01*
X18300000Y4650000D01*
X18300000Y23700000D01*
X18299999Y23700000D01*
X17365991Y23700000D01*
X17307800Y23718907D01*
X17295498Y23731704D01*
X17294708Y23730913D01*
X17287812Y23737808D01*
X17287810Y23737809D01*
X17287810Y23737810D01*
X17228539Y23777413D01*
X17201644Y23795384D01*
X17201643Y23795385D01*
X17201642Y23795385D01*
X17125654Y23810500D01*
X17100000Y23815603D01*
X17099999Y23815603D01*
X17083908Y23812402D01*
X17064594Y23810500D01*
X14985411Y23810500D01*
X14966097Y23812402D01*
X14950000Y23815604D01*
X14864090Y23798515D01*
X14853577Y23796424D01*
X14848356Y23795385D01*
X14828611Y23782191D01*
X14813599Y23773943D01*
X14735859Y23739617D01*
X14735858Y23739617D01*
X14735858Y23739616D01*
X14725236Y23728995D01*
X14670722Y23701219D01*
X14655235Y23700000D01*
X5502245Y23700000D01*
X5444054Y23718907D01*
X5408090Y23768407D01*
X5403296Y23802190D01*
X5420767Y24343793D01*
X5441540Y24401339D01*
X5449700Y24410587D01*
X5460599Y24421486D01*
X5507488Y24527680D01*
X5510500Y24553643D01*
X5510499Y25151001D01*
X5529406Y25209191D01*
X5578906Y25245155D01*
X5609499Y25250000D01*
X5652250Y25250000D01*
X5680140Y25245991D01*
X5787385Y25214500D01*
X5787386Y25214500D01*
X5912614Y25214500D01*
X5912615Y25214500D01*
X6019859Y25245991D01*
X6047750Y25250000D01*
X7652250Y25250000D01*
X7680140Y25245991D01*
X7787385Y25214500D01*
X7787386Y25214500D01*
X7912614Y25214500D01*
X7912615Y25214500D01*
X8019859Y25245991D01*
X8047750Y25250000D01*
X9602250Y25250000D01*
X9630140Y25245991D01*
X9737385Y25214500D01*
X9737386Y25214500D01*
X9862614Y25214500D01*
X9862615Y25214500D01*
X9969859Y25245991D01*
X9997750Y25250000D01*
X11602250Y25250000D01*
X11630140Y25245991D01*
X11737385Y25214500D01*
X11737386Y25214500D01*
X11862614Y25214500D01*
X11862615Y25214500D01*
X11969859Y25245991D01*
X11997750Y25250000D01*
X13552250Y25250000D01*
X13580140Y25245991D01*
X13687385Y25214500D01*
X13687386Y25214500D01*
X13812614Y25214500D01*
X13812615Y25214500D01*
X13919859Y25245991D01*
X13947750Y25250000D01*
X15552250Y25250000D01*
X15580140Y25245991D01*
X15687385Y25214500D01*
X15687386Y25214500D01*
X15812614Y25214500D01*
X15812615Y25214500D01*
X15919859Y25245991D01*
X15947750Y25250000D01*
X18299999Y25250000D01*
X18300000Y25250000D01*
X18300000Y26700500D01*
X18318907Y26758691D01*
X18368407Y26794655D01*
X18399000Y26799500D01*
X20101000Y26799500D01*
X20159191Y26780593D01*
G37*
%TD.AperFunction*%
%TD*%
M02*
