%TF.GenerationSoftware,KiCad,Pcbnew,7.0.7*%
%TF.CreationDate,2023-12-28T18:43:45-05:00*%
%TF.ProjectId,O32controller,4f333263-6f6e-4747-926f-6c6c65722e6b,3*%
%TF.SameCoordinates,Original*%
%TF.FileFunction,Soldermask,Top*%
%TF.FilePolarity,Negative*%
%FSLAX46Y46*%
G04 Gerber Fmt 4.6, Leading zero omitted, Abs format (unit mm)*
G04 Created by KiCad (PCBNEW 7.0.7) date 2023-12-28 18:43:45*
%MOMM*%
%LPD*%
G01*
G04 APERTURE LIST*
G04 Aperture macros list*
%AMRoundRect*
0 Rectangle with rounded corners*
0 $1 Rounding radius*
0 $2 $3 $4 $5 $6 $7 $8 $9 X,Y pos of 4 corners*
0 Add a 4 corners polygon primitive as box body*
4,1,4,$2,$3,$4,$5,$6,$7,$8,$9,$2,$3,0*
0 Add four circle primitives for the rounded corners*
1,1,$1+$1,$2,$3*
1,1,$1+$1,$4,$5*
1,1,$1+$1,$6,$7*
1,1,$1+$1,$8,$9*
0 Add four rect primitives between the rounded corners*
20,1,$1+$1,$2,$3,$4,$5,0*
20,1,$1+$1,$4,$5,$6,$7,0*
20,1,$1+$1,$6,$7,$8,$9,0*
20,1,$1+$1,$8,$9,$2,$3,0*%
%AMFreePoly0*
4,1,78,0.535355,2.120355,0.550000,2.085000,0.550000,1.935000,0.535355,1.899645,0.500000,1.885000,0.150000,1.885000,0.150000,1.635000,0.500000,1.635000,0.535355,1.620355,0.550000,1.585000,0.550000,1.435000,0.535355,1.399645,0.500000,1.385000,0.150000,1.385000,0.150000,1.135000,0.500000,1.135000,0.535355,1.120355,0.550000,1.085000,0.550000,0.935000,0.535355,0.899645,
0.500000,0.885000,0.150000,0.885000,0.150000,0.635000,0.500000,0.635000,0.535355,0.620355,0.550000,0.585000,0.550000,0.435000,0.535355,0.399645,0.500000,0.385000,0.150000,0.385000,0.150000,0.135000,0.500000,0.135000,0.535355,0.120355,0.550000,0.085000,0.550000,-0.065000,0.535355,-0.100355,0.500000,-0.115000,0.150000,-0.115000,0.150000,-0.365000,0.500000,-0.365000,
0.535355,-0.379645,0.550000,-0.415000,0.550000,-0.565000,0.535355,-0.600355,0.500000,-0.615000,0.150000,-0.615000,0.150000,-0.865000,0.500000,-0.865000,0.535355,-0.879645,0.550000,-0.915000,0.550000,-1.065000,0.535355,-1.100355,0.500000,-1.115000,0.150000,-1.115000,0.150000,-1.365000,0.500000,-1.365000,0.535355,-1.379645,0.550000,-1.415000,0.550000,-1.565000,0.535355,-1.600355,
0.500000,-1.615000,0.150000,-1.615000,0.150000,-1.865000,0.500000,-1.865000,0.535355,-1.879645,0.550000,-1.915000,0.550000,-2.065000,0.535355,-2.100355,0.500000,-2.115000,-0.100000,-2.115000,-0.102414,-2.114000,-0.150000,-2.114000,-0.150000,2.114000,-0.137987,2.114000,-0.135355,2.120355,-0.100000,2.135000,0.500000,2.135000,0.535355,2.120355,0.535355,2.120355,$1*%
G04 Aperture macros list end*
%ADD10RoundRect,0.075000X-1.425000X-0.075000X1.425000X-0.075000X1.425000X0.075000X-1.425000X0.075000X0*%
%ADD11RoundRect,0.250000X-0.475000X0.250000X-0.475000X-0.250000X0.475000X-0.250000X0.475000X0.250000X0*%
%ADD12RoundRect,0.250000X0.475000X-0.250000X0.475000X0.250000X-0.475000X0.250000X-0.475000X-0.250000X0*%
%ADD13R,0.385000X0.690000*%
%ADD14R,1.035000X0.690000*%
%ADD15RoundRect,0.269607X-1.105393X-1.105393X1.105393X-1.105393X1.105393X1.105393X-1.105393X1.105393X0*%
%ADD16RoundRect,0.218750X0.256250X-0.218750X0.256250X0.218750X-0.256250X0.218750X-0.256250X-0.218750X0*%
%ADD17RoundRect,0.140000X0.140000X0.170000X-0.140000X0.170000X-0.140000X-0.170000X0.140000X-0.170000X0*%
%ADD18RoundRect,0.225000X0.250000X-0.225000X0.250000X0.225000X-0.250000X0.225000X-0.250000X-0.225000X0*%
%ADD19RoundRect,0.135000X0.135000X0.185000X-0.135000X0.185000X-0.135000X-0.185000X0.135000X-0.185000X0*%
%ADD20RoundRect,0.062500X-0.375000X-0.062500X0.375000X-0.062500X0.375000X0.062500X-0.375000X0.062500X0*%
%ADD21RoundRect,0.062500X-0.062500X-0.375000X0.062500X-0.375000X0.062500X0.375000X-0.062500X0.375000X0*%
%ADD22R,2.800000X2.800000*%
%ADD23RoundRect,0.135000X0.185000X-0.135000X0.185000X0.135000X-0.185000X0.135000X-0.185000X-0.135000X0*%
%ADD24RoundRect,0.140000X-0.170000X0.140000X-0.170000X-0.140000X0.170000X-0.140000X0.170000X0.140000X0*%
%ADD25RoundRect,0.135000X-0.135000X-0.185000X0.135000X-0.185000X0.135000X0.185000X-0.135000X0.185000X0*%
%ADD26R,0.700001X0.249999*%
%ADD27FreePoly0,0.000000*%
%ADD28FreePoly0,180.000000*%
%ADD29R,0.429999X0.375001*%
%ADD30R,3.300001X5.399999*%
%ADD31R,1.600000X0.650000*%
%ADD32RoundRect,0.135000X-0.185000X0.135000X-0.185000X-0.135000X0.185000X-0.135000X0.185000X0.135000X0*%
%ADD33RoundRect,0.140000X0.170000X-0.140000X0.170000X0.140000X-0.170000X0.140000X-0.170000X-0.140000X0*%
%ADD34RoundRect,0.225000X-0.250000X0.225000X-0.250000X-0.225000X0.250000X-0.225000X0.250000X0.225000X0*%
%ADD35R,0.690000X0.385000*%
%ADD36R,0.690000X1.035000*%
G04 APERTURE END LIST*
D10*
%TO.C,J7*%
X2550000Y7400000D03*
X2550000Y6900000D03*
X2550000Y6400000D03*
X2550000Y5900000D03*
X2550000Y5400000D03*
X2550000Y4900000D03*
%TD*%
D11*
%TO.C,C36*%
X13925000Y2650000D03*
X13925000Y750000D03*
%TD*%
D12*
%TO.C,C25*%
X13775000Y24350000D03*
X13775000Y26250000D03*
%TD*%
D13*
%TO.C,D5*%
X3608500Y17600000D03*
D14*
X2616500Y17600000D03*
%TD*%
D15*
%TO.C,J3*%
X25350000Y9950000D03*
%TD*%
%TO.C,J11*%
X25350000Y13750000D03*
%TD*%
%TO.C,J2*%
X19950000Y25400000D03*
%TD*%
D16*
%TO.C,D6*%
X750000Y17725000D03*
X750000Y19300000D03*
%TD*%
D11*
%TO.C,C28*%
X7850000Y22850000D03*
X7850000Y20950000D03*
%TD*%
D17*
%TO.C,C20*%
X6680000Y19050000D03*
X5720000Y19050000D03*
%TD*%
D18*
%TO.C,C2*%
X1050000Y12575000D03*
X1050000Y14125000D03*
%TD*%
D19*
%TO.C,R22*%
X14560000Y14300000D03*
X13540000Y14300000D03*
%TD*%
D11*
%TO.C,C35*%
X11950000Y2650000D03*
X11950000Y750000D03*
%TD*%
%TO.C,C33*%
X8000000Y2650000D03*
X8000000Y750000D03*
%TD*%
D19*
%TO.C,R19*%
X8810000Y8600000D03*
X7790000Y8600000D03*
%TD*%
D20*
%TO.C,U1*%
X5062500Y16250000D03*
X5062500Y15750000D03*
X5062500Y15250000D03*
X5062500Y14750000D03*
X5062500Y14250000D03*
X5062500Y13750000D03*
X5062500Y13250000D03*
X5062500Y12750000D03*
X5062500Y12250000D03*
X5062500Y11750000D03*
X5062500Y11250000D03*
X5062500Y10750000D03*
D21*
X5750000Y10062500D03*
X6250000Y10062500D03*
X6750000Y10062500D03*
X7250000Y10062500D03*
X7750000Y10062500D03*
X8250000Y10062500D03*
X8750000Y10062500D03*
X9250000Y10062500D03*
X9750000Y10062500D03*
X10250000Y10062500D03*
X10750000Y10062500D03*
X11250000Y10062500D03*
D20*
X11937500Y10750000D03*
X11937500Y11250000D03*
X11937500Y11750000D03*
X11937500Y12250000D03*
X11937500Y12750000D03*
X11937500Y13250000D03*
X11937500Y13750000D03*
X11937500Y14250000D03*
X11937500Y14750000D03*
X11937500Y15250000D03*
X11937500Y15750000D03*
X11937500Y16250000D03*
D21*
X11250000Y16937500D03*
X10750000Y16937500D03*
X10250000Y16937500D03*
X9750000Y16937500D03*
X9250000Y16937500D03*
X8750000Y16937500D03*
X8250000Y16937500D03*
X7750000Y16937500D03*
X7250000Y16937500D03*
X6750000Y16937500D03*
X6250000Y16937500D03*
X5750000Y16937500D03*
D22*
X8500000Y13500000D03*
%TD*%
D11*
%TO.C,C29*%
X9825000Y22850000D03*
X9825000Y20950000D03*
%TD*%
D17*
%TO.C,C14*%
X8780000Y7650000D03*
X7820000Y7650000D03*
%TD*%
D11*
%TO.C,C27*%
X5875000Y22850000D03*
X5875000Y20950000D03*
%TD*%
D23*
%TO.C,R4*%
X11100000Y7580000D03*
X11100000Y8600000D03*
%TD*%
D24*
%TO.C,C5*%
X14050000Y13380000D03*
X14050000Y12420000D03*
%TD*%
D12*
%TO.C,C22*%
X7850000Y24350000D03*
X7850000Y26250000D03*
%TD*%
D25*
%TO.C,R8*%
X5540000Y7950000D03*
X6560000Y7950000D03*
%TD*%
%TO.C,R29*%
X13040000Y9200000D03*
X14060000Y9200000D03*
%TD*%
D26*
%TO.C,Q2*%
X22300000Y11000000D03*
X22300000Y11499999D03*
D27*
X22100000Y13989000D03*
D28*
X17800000Y14010000D03*
D26*
X17600000Y11499999D03*
X17600000Y11000000D03*
D29*
X22065000Y10487001D03*
X22065000Y16512999D03*
X17835000Y16512999D03*
X17835000Y10487001D03*
D30*
X19950000Y13500000D03*
%TD*%
D23*
%TO.C,R2*%
X1950000Y20690000D03*
X1950000Y21710000D03*
%TD*%
D24*
%TO.C,C4*%
X13400000Y16860000D03*
X13400000Y15900000D03*
%TD*%
D17*
%TO.C,C10*%
X6530000Y8900000D03*
X5570000Y8900000D03*
%TD*%
D31*
%TO.C,L1*%
X1550000Y11275000D03*
X1550000Y9925000D03*
%TD*%
D15*
%TO.C,J4*%
X25350000Y17150000D03*
%TD*%
D23*
%TO.C,R1*%
X1950000Y18640000D03*
X1950000Y19660000D03*
%TD*%
D26*
%TO.C,Q3*%
X22300000Y4000000D03*
X22300000Y4499999D03*
D27*
X22100000Y6989000D03*
D28*
X17800000Y7010000D03*
D26*
X17600000Y4499999D03*
X17600000Y4000000D03*
D29*
X22065000Y3487001D03*
X22065000Y9512999D03*
X17835000Y9512999D03*
X17835000Y3487001D03*
D30*
X19950000Y6500000D03*
%TD*%
D19*
%TO.C,R37*%
X6710000Y18100000D03*
X5690000Y18100000D03*
%TD*%
D15*
%TO.C,J10*%
X25350000Y20950000D03*
%TD*%
D32*
%TO.C,R28*%
X3700000Y16540000D03*
X3700000Y15520000D03*
%TD*%
D33*
%TO.C,C1*%
X4750000Y18100000D03*
X4750000Y19060000D03*
%TD*%
D12*
%TO.C,C38*%
X13000000Y4150000D03*
X13000000Y6050000D03*
%TD*%
D24*
%TO.C,C7*%
X12100000Y8560000D03*
X12100000Y7600000D03*
%TD*%
%TO.C,C6*%
X3900000Y11600000D03*
X3900000Y10640000D03*
%TD*%
D25*
%TO.C,R11*%
X14430000Y15950000D03*
X15450000Y15950000D03*
%TD*%
D12*
%TO.C,C24*%
X11800000Y24350000D03*
X11800000Y26250000D03*
%TD*%
%TO.C,C26*%
X15750000Y24350000D03*
X15750000Y26250000D03*
%TD*%
D11*
%TO.C,C34*%
X9975000Y2650000D03*
X9975000Y750000D03*
%TD*%
%TO.C,C30*%
X11800000Y22850000D03*
X11800000Y20950000D03*
%TD*%
D16*
%TO.C,D3*%
X750000Y20700000D03*
X750000Y22275000D03*
%TD*%
D12*
%TO.C,C23*%
X9825000Y24350000D03*
X9825000Y26250000D03*
%TD*%
%TO.C,C21*%
X5875000Y24350000D03*
X5875000Y26250000D03*
%TD*%
%TO.C,C39*%
X11025000Y4150000D03*
X11025000Y6050000D03*
%TD*%
D25*
%TO.C,R10*%
X5540000Y7000000D03*
X6560000Y7000000D03*
%TD*%
D11*
%TO.C,C31*%
X14050000Y22850000D03*
X14050000Y20950000D03*
%TD*%
D26*
%TO.C,Q1*%
X22300000Y18000000D03*
X22300000Y18499999D03*
D27*
X22100000Y20989000D03*
D28*
X17800000Y21010000D03*
D26*
X17600000Y18499999D03*
X17600000Y18000000D03*
D29*
X22065000Y17487001D03*
X22065000Y23512999D03*
X17835000Y23512999D03*
X17835000Y17487001D03*
D30*
X19950000Y20500000D03*
%TD*%
D19*
%TO.C,R13*%
X16260000Y18300000D03*
X15240000Y18300000D03*
%TD*%
D13*
%TO.C,D1*%
X3325500Y8800000D03*
D14*
X4317500Y8800000D03*
%TD*%
D15*
%TO.C,J1*%
X19950000Y1600000D03*
%TD*%
D12*
%TO.C,C40*%
X9050000Y4150000D03*
X9050000Y6050000D03*
%TD*%
D11*
%TO.C,C32*%
X6025000Y2650000D03*
X6025000Y750000D03*
%TD*%
%TO.C,C37*%
X15900000Y2650000D03*
X15900000Y750000D03*
%TD*%
D34*
%TO.C,C3*%
X2550000Y14125000D03*
X2550000Y12575000D03*
%TD*%
D35*
%TO.C,D4*%
X1000000Y15275500D03*
D36*
X1000000Y16267500D03*
%TD*%
D15*
%TO.C,J12*%
X25350000Y6550000D03*
%TD*%
D24*
%TO.C,C17*%
X2750000Y16530000D03*
X2750000Y15570000D03*
%TD*%
D19*
%TO.C,R31*%
X14060000Y10150000D03*
X13040000Y10150000D03*
%TD*%
D25*
%TO.C,R20*%
X15390000Y10250000D03*
X16410000Y10250000D03*
%TD*%
M02*
