%TF.GenerationSoftware,KiCad,Pcbnew,7.0.7*%
%TF.CreationDate,2023-12-28T18:43:45-05:00*%
%TF.ProjectId,O32controller,4f333263-6f6e-4747-926f-6c6c65722e6b,3*%
%TF.SameCoordinates,Original*%
%TF.FileFunction,Copper,L1,Top*%
%TF.FilePolarity,Positive*%
%FSLAX46Y46*%
G04 Gerber Fmt 4.6, Leading zero omitted, Abs format (unit mm)*
G04 Created by KiCad (PCBNEW 7.0.7) date 2023-12-28 18:43:45*
%MOMM*%
%LPD*%
G01*
G04 APERTURE LIST*
G04 Aperture macros list*
%AMRoundRect*
0 Rectangle with rounded corners*
0 $1 Rounding radius*
0 $2 $3 $4 $5 $6 $7 $8 $9 X,Y pos of 4 corners*
0 Add a 4 corners polygon primitive as box body*
4,1,4,$2,$3,$4,$5,$6,$7,$8,$9,$2,$3,0*
0 Add four circle primitives for the rounded corners*
1,1,$1+$1,$2,$3*
1,1,$1+$1,$4,$5*
1,1,$1+$1,$6,$7*
1,1,$1+$1,$8,$9*
0 Add four rect primitives between the rounded corners*
20,1,$1+$1,$2,$3,$4,$5,0*
20,1,$1+$1,$4,$5,$6,$7,0*
20,1,$1+$1,$6,$7,$8,$9,0*
20,1,$1+$1,$8,$9,$2,$3,0*%
%AMFreePoly0*
4,1,78,0.535355,2.120355,0.550000,2.085000,0.550000,1.935000,0.535355,1.899645,0.500000,1.885000,0.150000,1.885000,0.150000,1.635000,0.500000,1.635000,0.535355,1.620355,0.550000,1.585000,0.550000,1.435000,0.535355,1.399645,0.500000,1.385000,0.150000,1.385000,0.150000,1.135000,0.500000,1.135000,0.535355,1.120355,0.550000,1.085000,0.550000,0.935000,0.535355,0.899645,
0.500000,0.885000,0.150000,0.885000,0.150000,0.635000,0.500000,0.635000,0.535355,0.620355,0.550000,0.585000,0.550000,0.435000,0.535355,0.399645,0.500000,0.385000,0.150000,0.385000,0.150000,0.135000,0.500000,0.135000,0.535355,0.120355,0.550000,0.085000,0.550000,-0.065000,0.535355,-0.100355,0.500000,-0.115000,0.150000,-0.115000,0.150000,-0.365000,0.500000,-0.365000,
0.535355,-0.379645,0.550000,-0.415000,0.550000,-0.565000,0.535355,-0.600355,0.500000,-0.615000,0.150000,-0.615000,0.150000,-0.865000,0.500000,-0.865000,0.535355,-0.879645,0.550000,-0.915000,0.550000,-1.065000,0.535355,-1.100355,0.500000,-1.115000,0.150000,-1.115000,0.150000,-1.365000,0.500000,-1.365000,0.535355,-1.379645,0.550000,-1.415000,0.550000,-1.565000,0.535355,-1.600355,
0.500000,-1.615000,0.150000,-1.615000,0.150000,-1.865000,0.500000,-1.865000,0.535355,-1.879645,0.550000,-1.915000,0.550000,-2.065000,0.535355,-2.100355,0.500000,-2.115000,-0.100000,-2.115000,-0.102414,-2.114000,-0.150000,-2.114000,-0.150000,2.114000,-0.137987,2.114000,-0.135355,2.120355,-0.100000,2.135000,0.500000,2.135000,0.535355,2.120355,0.535355,2.120355,$1*%
G04 Aperture macros list end*
%TA.AperFunction,SMDPad,CuDef*%
%ADD10RoundRect,0.075000X-1.425000X-0.075000X1.425000X-0.075000X1.425000X0.075000X-1.425000X0.075000X0*%
%TD*%
%TA.AperFunction,SMDPad,CuDef*%
%ADD11RoundRect,0.250000X-0.475000X0.250000X-0.475000X-0.250000X0.475000X-0.250000X0.475000X0.250000X0*%
%TD*%
%TA.AperFunction,SMDPad,CuDef*%
%ADD12RoundRect,0.250000X0.475000X-0.250000X0.475000X0.250000X-0.475000X0.250000X-0.475000X-0.250000X0*%
%TD*%
%TA.AperFunction,SMDPad,CuDef*%
%ADD13R,0.385000X0.690000*%
%TD*%
%TA.AperFunction,SMDPad,CuDef*%
%ADD14R,1.035000X0.690000*%
%TD*%
%TA.AperFunction,ComponentPad*%
%ADD15RoundRect,0.269607X-1.105393X-1.105393X1.105393X-1.105393X1.105393X1.105393X-1.105393X1.105393X0*%
%TD*%
%TA.AperFunction,SMDPad,CuDef*%
%ADD16RoundRect,0.218750X0.256250X-0.218750X0.256250X0.218750X-0.256250X0.218750X-0.256250X-0.218750X0*%
%TD*%
%TA.AperFunction,SMDPad,CuDef*%
%ADD17RoundRect,0.140000X0.140000X0.170000X-0.140000X0.170000X-0.140000X-0.170000X0.140000X-0.170000X0*%
%TD*%
%TA.AperFunction,SMDPad,CuDef*%
%ADD18RoundRect,0.225000X0.250000X-0.225000X0.250000X0.225000X-0.250000X0.225000X-0.250000X-0.225000X0*%
%TD*%
%TA.AperFunction,SMDPad,CuDef*%
%ADD19RoundRect,0.135000X0.135000X0.185000X-0.135000X0.185000X-0.135000X-0.185000X0.135000X-0.185000X0*%
%TD*%
%TA.AperFunction,SMDPad,CuDef*%
%ADD20RoundRect,0.062500X-0.375000X-0.062500X0.375000X-0.062500X0.375000X0.062500X-0.375000X0.062500X0*%
%TD*%
%TA.AperFunction,SMDPad,CuDef*%
%ADD21RoundRect,0.062500X-0.062500X-0.375000X0.062500X-0.375000X0.062500X0.375000X-0.062500X0.375000X0*%
%TD*%
%TA.AperFunction,SMDPad,CuDef*%
%ADD22R,2.800000X2.800000*%
%TD*%
%TA.AperFunction,SMDPad,CuDef*%
%ADD23RoundRect,0.135000X0.185000X-0.135000X0.185000X0.135000X-0.185000X0.135000X-0.185000X-0.135000X0*%
%TD*%
%TA.AperFunction,SMDPad,CuDef*%
%ADD24RoundRect,0.140000X-0.170000X0.140000X-0.170000X-0.140000X0.170000X-0.140000X0.170000X0.140000X0*%
%TD*%
%TA.AperFunction,SMDPad,CuDef*%
%ADD25RoundRect,0.135000X-0.135000X-0.185000X0.135000X-0.185000X0.135000X0.185000X-0.135000X0.185000X0*%
%TD*%
%TA.AperFunction,SMDPad,CuDef*%
%ADD26R,0.700001X0.249999*%
%TD*%
%TA.AperFunction,SMDPad,CuDef*%
%ADD27FreePoly0,0.000000*%
%TD*%
%TA.AperFunction,SMDPad,CuDef*%
%ADD28FreePoly0,180.000000*%
%TD*%
%TA.AperFunction,SMDPad,CuDef*%
%ADD29R,0.429999X0.375001*%
%TD*%
%TA.AperFunction,SMDPad,CuDef*%
%ADD30R,3.300001X5.399999*%
%TD*%
%TA.AperFunction,SMDPad,CuDef*%
%ADD31R,1.600000X0.650000*%
%TD*%
%TA.AperFunction,SMDPad,CuDef*%
%ADD32RoundRect,0.135000X-0.185000X0.135000X-0.185000X-0.135000X0.185000X-0.135000X0.185000X0.135000X0*%
%TD*%
%TA.AperFunction,SMDPad,CuDef*%
%ADD33RoundRect,0.140000X0.170000X-0.140000X0.170000X0.140000X-0.170000X0.140000X-0.170000X-0.140000X0*%
%TD*%
%TA.AperFunction,SMDPad,CuDef*%
%ADD34RoundRect,0.225000X-0.250000X0.225000X-0.250000X-0.225000X0.250000X-0.225000X0.250000X0.225000X0*%
%TD*%
%TA.AperFunction,SMDPad,CuDef*%
%ADD35R,0.690000X0.385000*%
%TD*%
%TA.AperFunction,SMDPad,CuDef*%
%ADD36R,0.690000X1.035000*%
%TD*%
%TA.AperFunction,ViaPad*%
%ADD37C,0.550000*%
%TD*%
%TA.AperFunction,Conductor*%
%ADD38C,0.250000*%
%TD*%
%TA.AperFunction,Conductor*%
%ADD39C,0.500000*%
%TD*%
%TA.AperFunction,Conductor*%
%ADD40C,0.200000*%
%TD*%
G04 APERTURE END LIST*
D10*
%TO.P,J7,1,Pin_1*%
%TO.N,GND*%
X2550000Y7400000D03*
%TO.P,J7,2,Pin_2*%
%TO.N,/~{MAG2_CS}*%
X2550000Y6900000D03*
%TO.P,J7,3,Pin_3*%
%TO.N,/SPI_SCLK*%
X2550000Y6400000D03*
%TO.P,J7,4,Pin_4*%
%TO.N,/SPI_MISO*%
X2550000Y5900000D03*
%TO.P,J7,5,Pin_5*%
%TO.N,/SPI_MOSI*%
X2550000Y5400000D03*
%TO.P,J7,6,Pin_6*%
%TO.N,+3.3V*%
X2550000Y4900000D03*
%TD*%
D11*
%TO.P,C36,1*%
%TO.N,VBUS*%
X13925000Y2650000D03*
%TO.P,C36,2*%
%TO.N,GND*%
X13925000Y750000D03*
%TD*%
D12*
%TO.P,C25,1*%
%TO.N,VBUS*%
X13775000Y24350000D03*
%TO.P,C25,2*%
%TO.N,GND*%
X13775000Y26250000D03*
%TD*%
D13*
%TO.P,D5,1,K*%
%TO.N,/Green_Cathode*%
X3608500Y17600000D03*
D14*
%TO.P,D5,2,A*%
%TO.N,/LED_STATUS*%
X2616500Y17600000D03*
%TD*%
D15*
%TO.P,J3,1,Pin_1*%
%TO.N,GND*%
X25350000Y9950000D03*
%TD*%
%TO.P,J11,1,Pin_1*%
%TO.N,/Motor phase V/Motor*%
X25350000Y13750000D03*
%TD*%
%TO.P,J2,1,Pin_1*%
%TO.N,VBUS*%
X19950000Y25400000D03*
%TD*%
D16*
%TO.P,D6,1,K*%
%TO.N,GND*%
X750000Y17725000D03*
%TO.P,D6,2,A*%
%TO.N,/Red_Anode*%
X750000Y19300000D03*
%TD*%
D11*
%TO.P,C28,1*%
%TO.N,VBUS*%
X7850000Y22850000D03*
%TO.P,C28,2*%
%TO.N,GND*%
X7850000Y20950000D03*
%TD*%
D17*
%TO.P,C20,1*%
%TO.N,/OP_W_N*%
X6680000Y19050000D03*
%TO.P,C20,2*%
%TO.N,/OP_W_O*%
X5720000Y19050000D03*
%TD*%
D18*
%TO.P,C2,1*%
%TO.N,+3.3V*%
X1050000Y12575000D03*
%TO.P,C2,2*%
%TO.N,GND*%
X1050000Y14125000D03*
%TD*%
D19*
%TO.P,R22,1*%
%TO.N,/Motor phase V/GL_MOS*%
X14560000Y14300000D03*
%TO.P,R22,2*%
%TO.N,/LSV*%
X13540000Y14300000D03*
%TD*%
D11*
%TO.P,C35,1*%
%TO.N,VBUS*%
X11950000Y2650000D03*
%TO.P,C35,2*%
%TO.N,GND*%
X11950000Y750000D03*
%TD*%
%TO.P,C33,1*%
%TO.N,VBUS*%
X8000000Y2650000D03*
%TO.P,C33,2*%
%TO.N,GND*%
X8000000Y750000D03*
%TD*%
D19*
%TO.P,R19,1*%
%TO.N,/OP_U_N*%
X8810000Y8600000D03*
%TO.P,R19,2*%
%TO.N,/OP_U_O*%
X7790000Y8600000D03*
%TD*%
D20*
%TO.P,U1,1,OP2P*%
%TO.N,/OP_V_P*%
X5062500Y16250000D03*
%TO.P,U1,2,OP2N*%
%TO.N,/OP_V_N*%
X5062500Y15750000D03*
%TO.P,U1,3,OP2O*%
%TO.N,/OP_V_O*%
X5062500Y15250000D03*
%TO.P,U1,4,PF0*%
%TO.N,/LED_STATUS*%
X5062500Y14750000D03*
%TO.P,U1,5,PF1*%
%TO.N,/~{MAG1_CS}*%
X5062500Y14250000D03*
%TO.P,U1,6,VREG12*%
%TO.N,VBUS*%
X5062500Y13750000D03*
%TO.P,U1,7,NRST*%
%TO.N,/NRST*%
X5062500Y13250000D03*
%TO.P,U1,8,VM*%
%TO.N,VBUS*%
X5062500Y12750000D03*
%TO.P,U1,9,SW*%
%TO.N,/SW_3.3*%
X5062500Y12250000D03*
%TO.P,U1,10,VDDA*%
%TO.N,+3.3V*%
X5062500Y11750000D03*
%TO.P,U1,11,PA0*%
%TO.N,/OP_V_O*%
X5062500Y11250000D03*
%TO.P,U1,12,PA1*%
%TO.N,/USART_DE*%
X5062500Y10750000D03*
D21*
%TO.P,U1,13,PA2*%
%TO.N,/NTC_IN*%
X5750000Y10062500D03*
%TO.P,U1,14,PA3*%
%TO.N,/OP_W_O*%
X6250000Y10062500D03*
%TO.P,U1,15,PA4*%
%TO.N,/BUS_SENSE*%
X6750000Y10062500D03*
%TO.P,U1,16,PA5*%
%TO.N,/SPI_SCLK*%
X7250000Y10062500D03*
%TO.P,U1,17,PA6*%
%TO.N,/SPI_MISO*%
X7750000Y10062500D03*
%TO.P,U1,18,PA7*%
%TO.N,/SPI_MOSI*%
X8250000Y10062500D03*
%TO.P,U1,19,PB1*%
%TO.N,/OP_U_O*%
X8750000Y10062500D03*
%TO.P,U1,20,TESTMODE*%
%TO.N,GND*%
X9250000Y10062500D03*
%TO.P,U1,21,OP1O*%
%TO.N,/OP_U_O*%
X9750000Y10062500D03*
%TO.P,U1,22,OP1N*%
%TO.N,/OP_U_N*%
X10250000Y10062500D03*
%TO.P,U1,23,OP1P*%
%TO.N,/OP_U_P*%
X10750000Y10062500D03*
%TO.P,U1,24,OC_COMP*%
%TO.N,/OC_COMP*%
X11250000Y10062500D03*
D20*
%TO.P,U1,25,HSW*%
%TO.N,/HSW*%
X11937500Y10750000D03*
%TO.P,U1,26,OUTW*%
%TO.N,/OUTW*%
X11937500Y11250000D03*
%TO.P,U1,27,VBOOTW*%
%TO.N,/VBOOTW*%
X11937500Y11750000D03*
%TO.P,U1,28,LSW*%
%TO.N,/LSW*%
X11937500Y12250000D03*
%TO.P,U1,29,HSV*%
%TO.N,/HSV*%
X11937500Y12750000D03*
%TO.P,U1,30,OUTV*%
%TO.N,/OUTV*%
X11937500Y13250000D03*
%TO.P,U1,31,VBOOTV*%
%TO.N,/VBOOTV*%
X11937500Y13750000D03*
%TO.P,U1,32,LSV*%
%TO.N,/LSV*%
X11937500Y14250000D03*
%TO.P,U1,33,HSU*%
%TO.N,/HSU*%
X11937500Y14750000D03*
%TO.P,U1,34,OUTU*%
%TO.N,/OUTU*%
X11937500Y15250000D03*
%TO.P,U1,35,VBOOTU*%
%TO.N,/VBOOTU*%
X11937500Y15750000D03*
%TO.P,U1,36,LSU*%
%TO.N,/LSU*%
X11937500Y16250000D03*
D21*
%TO.P,U1,37,PA13_SWD_IO*%
%TO.N,SWD_IO*%
X11250000Y16937500D03*
%TO.P,U1,38,PA14_SWD_CLK*%
%TO.N,SWD_CLK*%
X10750000Y16937500D03*
%TO.P,U1,39,PA15*%
%TO.N,/~{MAG2_CS}*%
X10250000Y16937500D03*
%TO.P,U1,40,PB6*%
%TO.N,USART_TX*%
X9750000Y16937500D03*
%TO.P,U1,41,PB7*%
%TO.N,/USART_RX*%
X9250000Y16937500D03*
%TO.P,U1,42,BOOT0*%
%TO.N,GND*%
X8750000Y16937500D03*
%TO.P,U1,43,RESERVED*%
%TO.N,unconnected-(U1-RESERVED-Pad43)*%
X8250000Y16937500D03*
%TO.P,U1,44,GND*%
%TO.N,GND*%
X7750000Y16937500D03*
%TO.P,U1,45,OP3P*%
%TO.N,/OP_W_P*%
X7250000Y16937500D03*
%TO.P,U1,46,OP3N*%
%TO.N,/OP_W_N*%
X6750000Y16937500D03*
%TO.P,U1,47,OP3O*%
%TO.N,/OP_W_O*%
X6250000Y16937500D03*
%TO.P,U1,48,VDD*%
%TO.N,+3.3V*%
X5750000Y16937500D03*
D22*
%TO.P,U1,49,EPAD*%
%TO.N,GND*%
X8500000Y13500000D03*
%TD*%
D11*
%TO.P,C29,1*%
%TO.N,VBUS*%
X9825000Y22850000D03*
%TO.P,C29,2*%
%TO.N,GND*%
X9825000Y20950000D03*
%TD*%
D17*
%TO.P,C14,1*%
%TO.N,/OP_U_N*%
X8780000Y7650000D03*
%TO.P,C14,2*%
%TO.N,/OP_U_O*%
X7820000Y7650000D03*
%TD*%
D11*
%TO.P,C27,1*%
%TO.N,VBUS*%
X5875000Y22850000D03*
%TO.P,C27,2*%
%TO.N,GND*%
X5875000Y20950000D03*
%TD*%
D23*
%TO.P,R4,1*%
%TO.N,+3.3V*%
X11100000Y7580000D03*
%TO.P,R4,2*%
%TO.N,/OC_COMP*%
X11100000Y8600000D03*
%TD*%
D24*
%TO.P,C5,1*%
%TO.N,/VBOOTV*%
X14050000Y13380000D03*
%TO.P,C5,2*%
%TO.N,/OUTV*%
X14050000Y12420000D03*
%TD*%
D12*
%TO.P,C22,1*%
%TO.N,VBUS*%
X7850000Y24350000D03*
%TO.P,C22,2*%
%TO.N,GND*%
X7850000Y26250000D03*
%TD*%
D25*
%TO.P,R8,1*%
%TO.N,VBUS*%
X5540000Y7950000D03*
%TO.P,R8,2*%
%TO.N,/BUS_SENSE*%
X6560000Y7950000D03*
%TD*%
%TO.P,R29,1*%
%TO.N,/HSW*%
X13040000Y9200000D03*
%TO.P,R29,2*%
%TO.N,/Motor phase W/GH_MOS*%
X14060000Y9200000D03*
%TD*%
D26*
%TO.P,Q2,1,GH*%
%TO.N,/Motor phase V/GH_MOS*%
X22300000Y11000000D03*
%TO.P,Q2,2,SH*%
%TO.N,/OUTV*%
X22300000Y11499999D03*
D27*
%TO.P,Q2,3,VSW*%
%TO.N,/Motor phase V/Motor*%
X22100000Y13989000D03*
D28*
%TO.P,Q2,12,PGND*%
%TO.N,/Motor phase V/SENSE_P*%
X17800000Y14010000D03*
D26*
%TO.P,Q2,21,NC*%
%TO.N,unconnected-(Q2-NC-Pad21)*%
X17600000Y11499999D03*
%TO.P,Q2,22,GL*%
%TO.N,/Motor phase V/GL_MOS*%
X17600000Y11000000D03*
D29*
%TO.P,Q2,23,NC*%
%TO.N,unconnected-(Q2-NC-Pad23)*%
X22065000Y10487001D03*
%TO.P,Q2,24,NC*%
%TO.N,unconnected-(Q2-NC-Pad24)*%
X22065000Y16512999D03*
%TO.P,Q2,25,NC*%
%TO.N,unconnected-(Q2-NC-Pad25)*%
X17835000Y16512999D03*
%TO.P,Q2,26,NC*%
%TO.N,unconnected-(Q2-NC-Pad26)*%
X17835000Y10487001D03*
D30*
%TO.P,Q2,27,VIN*%
%TO.N,VBUS*%
X19950000Y13500000D03*
%TD*%
D23*
%TO.P,R2,1*%
%TO.N,/Green_Cathode*%
X1950000Y20690000D03*
%TO.P,R2,2*%
%TO.N,GND*%
X1950000Y21710000D03*
%TD*%
D24*
%TO.P,C4,1*%
%TO.N,/VBOOTU*%
X13400000Y16860000D03*
%TO.P,C4,2*%
%TO.N,/OUTU*%
X13400000Y15900000D03*
%TD*%
D17*
%TO.P,C10,1*%
%TO.N,/BUS_SENSE*%
X6530000Y8900000D03*
%TO.P,C10,2*%
%TO.N,GND*%
X5570000Y8900000D03*
%TD*%
D31*
%TO.P,L1,1*%
%TO.N,+3.3V*%
X1550000Y11275000D03*
%TO.P,L1,2*%
%TO.N,/SW_3.3*%
X1550000Y9925000D03*
%TD*%
D15*
%TO.P,J4,1,Pin_1*%
%TO.N,GND*%
X25350000Y17150000D03*
%TD*%
D23*
%TO.P,R1,1*%
%TO.N,/Red_Anode*%
X1950000Y18640000D03*
%TO.P,R1,2*%
%TO.N,+3.3V*%
X1950000Y19660000D03*
%TD*%
D26*
%TO.P,Q3,1,GH*%
%TO.N,/Motor phase W/GH_MOS*%
X22300000Y4000000D03*
%TO.P,Q3,2,SH*%
%TO.N,/OUTW*%
X22300000Y4499999D03*
D27*
%TO.P,Q3,3,VSW*%
%TO.N,/Motor phase W/Motor*%
X22100000Y6989000D03*
D28*
%TO.P,Q3,12,PGND*%
%TO.N,/Motor phase W/SENSE_P*%
X17800000Y7010000D03*
D26*
%TO.P,Q3,21,NC*%
%TO.N,unconnected-(Q3-NC-Pad21)*%
X17600000Y4499999D03*
%TO.P,Q3,22,GL*%
%TO.N,/Motor phase W/GL_MOS*%
X17600000Y4000000D03*
D29*
%TO.P,Q3,23,NC*%
%TO.N,unconnected-(Q3-NC-Pad23)*%
X22065000Y3487001D03*
%TO.P,Q3,24,NC*%
%TO.N,unconnected-(Q3-NC-Pad24)*%
X22065000Y9512999D03*
%TO.P,Q3,25,NC*%
%TO.N,unconnected-(Q3-NC-Pad25)*%
X17835000Y9512999D03*
%TO.P,Q3,26,NC*%
%TO.N,unconnected-(Q3-NC-Pad26)*%
X17835000Y3487001D03*
D30*
%TO.P,Q3,27,VIN*%
%TO.N,VBUS*%
X19950000Y6500000D03*
%TD*%
D19*
%TO.P,R37,1*%
%TO.N,/OP_W_N*%
X6710000Y18100000D03*
%TO.P,R37,2*%
%TO.N,/OP_W_O*%
X5690000Y18100000D03*
%TD*%
D15*
%TO.P,J10,1,Pin_1*%
%TO.N,/Motor phase U/Motor*%
X25350000Y20950000D03*
%TD*%
D32*
%TO.P,R28,1*%
%TO.N,/OP_V_N*%
X3700000Y16540000D03*
%TO.P,R28,2*%
%TO.N,/OP_V_O*%
X3700000Y15520000D03*
%TD*%
D33*
%TO.P,C1,1*%
%TO.N,+3.3V*%
X4750000Y18100000D03*
%TO.P,C1,2*%
%TO.N,GND*%
X4750000Y19060000D03*
%TD*%
D12*
%TO.P,C38,1*%
%TO.N,VBUS*%
X13000000Y4150000D03*
%TO.P,C38,2*%
%TO.N,GND*%
X13000000Y6050000D03*
%TD*%
D24*
%TO.P,C7,1*%
%TO.N,/OC_COMP*%
X12100000Y8560000D03*
%TO.P,C7,2*%
%TO.N,GND*%
X12100000Y7600000D03*
%TD*%
%TO.P,C6,1*%
%TO.N,+3.3V*%
X3900000Y11600000D03*
%TO.P,C6,2*%
%TO.N,GND*%
X3900000Y10640000D03*
%TD*%
D25*
%TO.P,R11,1*%
%TO.N,/HSU*%
X14430000Y15950000D03*
%TO.P,R11,2*%
%TO.N,/Motor phase U/GH_MOS*%
X15450000Y15950000D03*
%TD*%
D12*
%TO.P,C24,1*%
%TO.N,VBUS*%
X11800000Y24350000D03*
%TO.P,C24,2*%
%TO.N,GND*%
X11800000Y26250000D03*
%TD*%
%TO.P,C26,1*%
%TO.N,VBUS*%
X15750000Y24350000D03*
%TO.P,C26,2*%
%TO.N,GND*%
X15750000Y26250000D03*
%TD*%
D11*
%TO.P,C34,1*%
%TO.N,VBUS*%
X9975000Y2650000D03*
%TO.P,C34,2*%
%TO.N,GND*%
X9975000Y750000D03*
%TD*%
%TO.P,C30,1*%
%TO.N,VBUS*%
X11800000Y22850000D03*
%TO.P,C30,2*%
%TO.N,GND*%
X11800000Y20950000D03*
%TD*%
D16*
%TO.P,D3,1,K*%
%TO.N,/Green_Cathode*%
X750000Y20700000D03*
%TO.P,D3,2,A*%
%TO.N,+3.3V*%
X750000Y22275000D03*
%TD*%
D12*
%TO.P,C23,1*%
%TO.N,VBUS*%
X9825000Y24350000D03*
%TO.P,C23,2*%
%TO.N,GND*%
X9825000Y26250000D03*
%TD*%
%TO.P,C21,1*%
%TO.N,VBUS*%
X5875000Y24350000D03*
%TO.P,C21,2*%
%TO.N,GND*%
X5875000Y26250000D03*
%TD*%
%TO.P,C39,1*%
%TO.N,VBUS*%
X11025000Y4150000D03*
%TO.P,C39,2*%
%TO.N,GND*%
X11025000Y6050000D03*
%TD*%
D25*
%TO.P,R10,1*%
%TO.N,GND*%
X5540000Y7000000D03*
%TO.P,R10,2*%
%TO.N,/BUS_SENSE*%
X6560000Y7000000D03*
%TD*%
D11*
%TO.P,C31,1*%
%TO.N,VBUS*%
X14050000Y22850000D03*
%TO.P,C31,2*%
%TO.N,GND*%
X14050000Y20950000D03*
%TD*%
D26*
%TO.P,Q1,1,GH*%
%TO.N,/Motor phase U/GH_MOS*%
X22300000Y18000000D03*
%TO.P,Q1,2,SH*%
%TO.N,/OUTU*%
X22300000Y18499999D03*
D27*
%TO.P,Q1,3,VSW*%
%TO.N,/Motor phase U/Motor*%
X22100000Y20989000D03*
D28*
%TO.P,Q1,12,PGND*%
%TO.N,/Motor phase U/SENSE_P*%
X17800000Y21010000D03*
D26*
%TO.P,Q1,21,NC*%
%TO.N,unconnected-(Q1-NC-Pad21)*%
X17600000Y18499999D03*
%TO.P,Q1,22,GL*%
%TO.N,/Motor phase U/GL_MOS*%
X17600000Y18000000D03*
D29*
%TO.P,Q1,23,NC*%
%TO.N,unconnected-(Q1-NC-Pad23)*%
X22065000Y17487001D03*
%TO.P,Q1,24,NC*%
%TO.N,unconnected-(Q1-NC-Pad24)*%
X22065000Y23512999D03*
%TO.P,Q1,25,NC*%
%TO.N,unconnected-(Q1-NC-Pad25)*%
X17835000Y23512999D03*
%TO.P,Q1,26,NC*%
%TO.N,unconnected-(Q1-NC-Pad26)*%
X17835000Y17487001D03*
D30*
%TO.P,Q1,27,VIN*%
%TO.N,VBUS*%
X19950000Y20500000D03*
%TD*%
D19*
%TO.P,R13,1*%
%TO.N,/Motor phase U/GL_MOS*%
X16260000Y18300000D03*
%TO.P,R13,2*%
%TO.N,/LSU*%
X15240000Y18300000D03*
%TD*%
D13*
%TO.P,D1,1,K*%
%TO.N,/SW_3.3*%
X3325500Y8800000D03*
D14*
%TO.P,D1,2,A*%
%TO.N,GND*%
X4317500Y8800000D03*
%TD*%
D15*
%TO.P,J1,1,Pin_1*%
%TO.N,VBUS*%
X19950000Y1600000D03*
%TD*%
D12*
%TO.P,C40,1*%
%TO.N,VBUS*%
X9050000Y4150000D03*
%TO.P,C40,2*%
%TO.N,GND*%
X9050000Y6050000D03*
%TD*%
D11*
%TO.P,C32,1*%
%TO.N,VBUS*%
X6025000Y2650000D03*
%TO.P,C32,2*%
%TO.N,GND*%
X6025000Y750000D03*
%TD*%
%TO.P,C37,1*%
%TO.N,VBUS*%
X15900000Y2650000D03*
%TO.P,C37,2*%
%TO.N,GND*%
X15900000Y750000D03*
%TD*%
D34*
%TO.P,C3,1*%
%TO.N,VBUS*%
X2550000Y14125000D03*
%TO.P,C3,2*%
%TO.N,GND*%
X2550000Y12575000D03*
%TD*%
D35*
%TO.P,D4,1,K*%
%TO.N,/LED_STATUS*%
X1000000Y15275500D03*
D36*
%TO.P,D4,2,A*%
%TO.N,/Red_Anode*%
X1000000Y16267500D03*
%TD*%
D15*
%TO.P,J12,1,Pin_1*%
%TO.N,/Motor phase W/Motor*%
X25350000Y6550000D03*
%TD*%
D24*
%TO.P,C17,1*%
%TO.N,/OP_V_N*%
X2750000Y16530000D03*
%TO.P,C17,2*%
%TO.N,/OP_V_O*%
X2750000Y15570000D03*
%TD*%
D19*
%TO.P,R31,1*%
%TO.N,/Motor phase W/GL_MOS*%
X14060000Y10150000D03*
%TO.P,R31,2*%
%TO.N,/LSW*%
X13040000Y10150000D03*
%TD*%
D25*
%TO.P,R20,1*%
%TO.N,/HSV*%
X15390000Y10250000D03*
%TO.P,R20,2*%
%TO.N,/Motor phase V/GH_MOS*%
X16410000Y10250000D03*
%TD*%
D37*
%TO.N,/Motor phase W/SENSE_P*%
X15340000Y5380000D03*
%TO.N,/Motor phase U/SENSE_P*%
X17230000Y19330000D03*
%TO.N,/Motor phase W/SENSE_P*%
X17210000Y5370000D03*
X16750000Y5100000D03*
X16750000Y5640000D03*
X15810000Y5110000D03*
X16290000Y5370000D03*
X15350000Y5910000D03*
X15810000Y5640000D03*
X16280000Y5900000D03*
X15350000Y6440000D03*
X15820000Y6170000D03*
X16290000Y6430000D03*
X15810000Y8840000D03*
X15820000Y6700000D03*
X15820000Y7240000D03*
X15820000Y8310000D03*
X15820000Y7780000D03*
X16290000Y8040000D03*
X16280000Y9100000D03*
X16290000Y6960000D03*
X16290000Y7500000D03*
X16290000Y8570000D03*
X15350000Y6970000D03*
X15340000Y8570000D03*
X15340000Y8040000D03*
X15330000Y9100000D03*
X15340000Y7500000D03*
%TO.N,/Motor phase V/SENSE_P*%
X15260000Y14850000D03*
X16660000Y11890000D03*
X15730000Y12450000D03*
X15730000Y13520000D03*
X15740000Y12990000D03*
X17130000Y12150000D03*
X16680000Y12430000D03*
X16200000Y12180000D03*
X16680000Y12970000D03*
X16210000Y12710000D03*
X16680000Y13510000D03*
X16210000Y13250000D03*
X15730000Y14580000D03*
X16210000Y14320000D03*
X15740000Y14050000D03*
X16210000Y13790000D03*
X16680000Y14050000D03*
X16680000Y14600000D03*
X17140000Y15920000D03*
X16670000Y16190000D03*
X16200000Y15400000D03*
X16200000Y15930000D03*
X16670000Y15130000D03*
X15730000Y15120000D03*
X16670000Y15660000D03*
X16200000Y14850000D03*
%TO.N,/Motor phase U/SENSE_P*%
X16770000Y19060000D03*
X16770000Y19600000D03*
X15840000Y19070000D03*
X15840000Y20140000D03*
X15840000Y21220000D03*
X15840000Y22300000D03*
X15840000Y19600000D03*
X15370000Y19870000D03*
X16310000Y19330000D03*
X15370000Y19330000D03*
X16310000Y19870000D03*
X15840000Y20680000D03*
X15370000Y20950000D03*
X16310000Y20410000D03*
X15370000Y20410000D03*
X16310000Y20950000D03*
X15840000Y21760000D03*
X15370000Y22030000D03*
X16310000Y21490000D03*
X15370000Y21490000D03*
X16310000Y22030000D03*
%TO.N,GND*%
X850000Y18150000D03*
%TO.N,/Motor phase W/Sense_N*%
X14200000Y5950000D03*
X22050000Y2850000D03*
%TO.N,/Motor phase V/Sense_N*%
X12950000Y18300000D03*
X20950000Y17350000D03*
%TO.N,/Motor phase U/Sense_N*%
X21950000Y24200000D03*
X12908628Y22241372D03*
%TO.N,VBUS*%
X18550000Y6500000D03*
X13000000Y3300000D03*
X18550000Y4050000D03*
X19950000Y21800000D03*
X19950000Y13500000D03*
X18550000Y20500000D03*
X11150000Y23600000D03*
X19900000Y6550000D03*
X19950000Y8950000D03*
X19950000Y18050000D03*
X19950000Y12150000D03*
X3300000Y8000000D03*
X18550000Y13500000D03*
X19950000Y15950000D03*
X19950000Y20500000D03*
X19950000Y22950000D03*
X8150000Y4200000D03*
X19950000Y4050000D03*
X18550000Y5200000D03*
X19950000Y5200000D03*
X18550000Y19150000D03*
X18950000Y18250000D03*
X19950000Y14800000D03*
X3850000Y13650000D03*
X15000000Y3300000D03*
X18550000Y21800000D03*
X18550000Y14800000D03*
X11000000Y3300000D03*
X19950000Y19200000D03*
X9000000Y3300000D03*
X18850000Y15750000D03*
X8000000Y23600000D03*
X18550000Y7800000D03*
X19950000Y11050000D03*
X13275000Y23550000D03*
X18550000Y12150000D03*
X19950000Y7800000D03*
%TO.N,+3.3V*%
X2750000Y20500000D03*
X2500000Y22450000D03*
X10550000Y7650000D03*
X4250000Y18350000D03*
X3400000Y11300000D03*
X1025000Y11850000D03*
X4000000Y4150000D03*
%TO.N,/OP_V_P*%
X10950000Y20025000D03*
X4850000Y16900000D03*
%TO.N,/OP_V_N*%
X4150000Y16750000D03*
X10800000Y19200000D03*
%TO.N,/NRST*%
X3994622Y12944622D03*
X7250000Y5300000D03*
%TO.N,/OP_U_N*%
X9580000Y8630000D03*
X11800000Y20000000D03*
%TO.N,/OP_U_P*%
X10300000Y8700000D03*
X12925000Y21475000D03*
%TO.N,/OC_COMP*%
X13100000Y19800000D03*
X12050000Y9100000D03*
%TO.N,GND*%
X16500000Y1350000D03*
X2450000Y13200000D03*
X12875000Y8400000D03*
X13750000Y25650000D03*
X8400000Y5300000D03*
X5850000Y25650000D03*
X9800000Y25650000D03*
X10800000Y21025000D03*
X7850000Y25650000D03*
X4825500Y9325500D03*
X900000Y4225000D03*
X14450000Y1350000D03*
X10800000Y5300000D03*
X7075000Y4025000D03*
X14850000Y16650000D03*
X8850000Y21625000D03*
X7450000Y18000000D03*
X10500000Y1400000D03*
X15750000Y25650000D03*
X9250000Y9300000D03*
X2388180Y7800500D03*
X600000Y23300000D03*
X13700000Y18350000D03*
X11800000Y25650000D03*
X3250000Y10500000D03*
X8500000Y1400000D03*
X3200000Y12750000D03*
X6500000Y1400000D03*
X13250000Y5300000D03*
X12450000Y1350000D03*
X6600000Y21625000D03*
%TO.N,SWD_IO*%
X10300000Y17825000D03*
%TO.N,SWD_CLK*%
X10425000Y15375000D03*
%TO.N,/OP_W_P*%
X13000000Y7675000D03*
X7300000Y15700000D03*
%TO.N,/OP_W_N*%
X12700000Y7025000D03*
X6600000Y15950000D03*
%TO.N,/Motor phase U/GH_MOS*%
X21400000Y16650000D03*
X15580000Y16460000D03*
%TO.N,/Motor phase V/GH_MOS*%
X16200000Y10750000D03*
X21400000Y9850000D03*
%TO.N,/Motor phase W/GH_MOS*%
X14150000Y8350000D03*
X22850000Y3750000D03*
%TO.N,/OUTU*%
X15550000Y17550000D03*
X23200000Y17050000D03*
%TO.N,/VBOOTW*%
X10950000Y12150000D03*
%TO.N,/OUTV*%
X14850000Y11450000D03*
X23200000Y10000000D03*
%TO.N,/OUTW*%
X22900000Y4500000D03*
X10900000Y11250000D03*
%TO.N,/Motor phase U/SENSE_P*%
X16310000Y23110000D03*
X15370000Y22570000D03*
X16310000Y22570000D03*
X15370000Y23110000D03*
X15840000Y22840000D03*
%TO.N,/USART_RX*%
X9650000Y15400000D03*
%TO.N,/~{MAG1_CS}*%
X3500000Y14350000D03*
X13550000Y10900000D03*
%TO.N,/LED_STATUS*%
X2749115Y19474755D03*
%TO.N,/RS485_B*%
X3950000Y19050000D03*
X3950000Y20700000D03*
%TO.N,/SPI_MOSI*%
X8600000Y11200000D03*
X4600000Y5250000D03*
%TO.N,/SPI_MISO*%
X7750000Y10850000D03*
X5400000Y5700000D03*
%TO.N,/SPI_SCLK*%
X10850000Y12900000D03*
%TO.N,USART_TX*%
X9550000Y17950000D03*
%TO.N,/USART_DE*%
X4700000Y10500000D03*
%TO.N,/NTC_IN*%
X3250000Y9600000D03*
X8150000Y19975000D03*
%TO.N,/~{MAG2_CS}*%
X2200000Y8950000D03*
X10050000Y16050000D03*
%TD*%
D38*
%TO.N,/Motor phase W/GL_MOS*%
X17600000Y4000000D02*
X15928040Y4000000D01*
X15928040Y4000000D02*
X14760000Y5168040D01*
X14760000Y5168040D02*
X14760000Y9550000D01*
X14760000Y9550000D02*
X14060000Y10250000D01*
%TO.N,/Motor phase U/GH_MOS*%
X15580000Y16460000D02*
X15450000Y16330000D01*
X15450000Y16330000D02*
X15450000Y15950000D01*
%TO.N,/Motor phase V/GH_MOS*%
X22564999Y10114999D02*
X22450000Y10000000D01*
X22564999Y10959501D02*
X22564999Y10114999D01*
%TO.N,/OP_U_N*%
X9580000Y8630000D02*
X9575000Y8625000D01*
X9575000Y8625000D02*
X8805000Y8625000D01*
X8805000Y8625000D02*
X8800000Y8630000D01*
X9580000Y8630000D02*
X9580000Y8780000D01*
X9580000Y8780000D02*
X10250000Y9450000D01*
X10250000Y9450000D02*
X10250000Y10062500D01*
%TO.N,/SPI_SCLK*%
X10850000Y12900000D02*
X10375000Y12425000D01*
X10100000Y11775000D02*
X7825000Y11775000D01*
X10375000Y12425000D02*
X10375000Y12050000D01*
X10375000Y12050000D02*
X10100000Y11775000D01*
X7825000Y11775000D02*
X7100000Y11050000D01*
X7100000Y11050000D02*
X7100000Y10698008D01*
X7100000Y10698008D02*
X7250000Y10548008D01*
X7250000Y10548008D02*
X7250000Y10062500D01*
%TO.N,SWD_CLK*%
X10425000Y15375000D02*
X10750000Y15700000D01*
X10750000Y15700000D02*
X10750000Y16937500D01*
%TO.N,/SPI_MISO*%
X2550000Y5900000D02*
X5200000Y5900000D01*
X5200000Y5900000D02*
X5400000Y5700000D01*
%TO.N,/SPI_MOSI*%
X4600000Y5250000D02*
X4450000Y5400000D01*
X4450000Y5400000D02*
X2550000Y5400000D01*
D39*
%TO.N,VBUS*%
X3850000Y13650000D02*
X3025000Y13650000D01*
D38*
X5548008Y13750000D02*
X5062500Y13750000D01*
D39*
X3025000Y13650000D02*
X2550000Y14125000D01*
D38*
X5490000Y8000000D02*
X5540000Y7950000D01*
X5062500Y12750000D02*
X5548008Y12750000D01*
X8200000Y4150000D02*
X8150000Y4200000D01*
X5825000Y13473008D02*
X5548008Y13750000D01*
X3300000Y8000000D02*
X5490000Y8000000D01*
X9050000Y4150000D02*
X8200000Y4150000D01*
X5825000Y13026992D02*
X5825000Y13473008D01*
X5062500Y13750000D02*
X3950000Y13750000D01*
X5548008Y12750000D02*
X5825000Y13026992D01*
%TO.N,+3.3V*%
X2750000Y20450000D02*
X1960000Y19660000D01*
X4600000Y17950000D02*
X4750000Y18100000D01*
X5200000Y4550000D02*
X4400000Y4550000D01*
X4400000Y4550000D02*
X4000000Y4150000D01*
X10550000Y7650000D02*
X11030000Y7650000D01*
X7125000Y5900000D02*
X6550000Y5900000D01*
X1960000Y19660000D02*
X1950000Y19660000D01*
D39*
X1050000Y12575000D02*
X1225000Y12575000D01*
D38*
X11030000Y7650000D02*
X11100000Y7580000D01*
X4050000Y11750000D02*
X5062500Y11750000D01*
X3800000Y4900000D02*
X2550000Y4900000D01*
X8125000Y6900000D02*
X7125000Y5900000D01*
X4000000Y4150000D02*
X4000000Y4700000D01*
X2750000Y20500000D02*
X2750000Y20450000D01*
X6550000Y5900000D02*
X5200000Y4550000D01*
D39*
X2500000Y22450000D02*
X925000Y22450000D01*
D38*
X10550000Y7650000D02*
X9800000Y6900000D01*
D39*
X1100000Y11475000D02*
X1100000Y12525000D01*
X3400000Y11300000D02*
X3700000Y11600000D01*
D38*
X4750000Y18100000D02*
X4750000Y17937500D01*
X9800000Y6900000D02*
X8125000Y6900000D01*
X4000000Y4700000D02*
X3800000Y4900000D01*
X4750000Y17937500D02*
X5750000Y16937500D01*
D39*
X1100000Y12525000D02*
X1050000Y12575000D01*
X3700000Y11600000D02*
X3900000Y11600000D01*
X925000Y22450000D02*
X750000Y22275000D01*
D38*
X4250000Y18350000D02*
X4600000Y17950000D01*
D39*
X1300000Y11275000D02*
X1100000Y11475000D01*
D38*
X3900000Y11600000D02*
X4050000Y11750000D01*
%TO.N,/OP_V_P*%
X5062500Y16687500D02*
X4850000Y16900000D01*
X5062500Y16250000D02*
X5062500Y16687500D01*
%TO.N,/OP_V_N*%
X3700000Y16540000D02*
X3700000Y16490538D01*
X5062500Y15750000D02*
X4440538Y15750000D01*
X3910000Y16750000D02*
X3700000Y16540000D01*
X4150000Y16750000D02*
X3910000Y16750000D01*
X2760000Y16540000D02*
X2750000Y16530000D01*
X3700000Y16490538D02*
X4220538Y15970000D01*
X4440538Y15750000D02*
X4220538Y15970000D01*
X3700000Y16540000D02*
X2760000Y16540000D01*
%TO.N,/OP_V_O*%
X5850000Y11250000D02*
X5062500Y11250000D01*
X5548008Y15250000D02*
X6300000Y14498008D01*
X5062500Y15250000D02*
X5548008Y15250000D01*
X4086396Y15250000D02*
X5062500Y15250000D01*
X3816396Y15520000D02*
X4086396Y15250000D01*
X6300000Y14498008D02*
X6300000Y11700000D01*
X3700000Y15520000D02*
X3816396Y15520000D01*
X6300000Y11700000D02*
X5850000Y11250000D01*
X3650000Y15570000D02*
X3700000Y15520000D01*
X2750000Y15570000D02*
X3650000Y15570000D01*
%TO.N,/NRST*%
X4300000Y13250000D02*
X3994622Y12944622D01*
X5062500Y13250000D02*
X4300000Y13250000D01*
D40*
%TO.N,/OP_U_O*%
X9498008Y10800000D02*
X9750000Y10548008D01*
D38*
X7820000Y8570000D02*
X7790000Y8600000D01*
D40*
X8750000Y10062500D02*
X8750000Y10550000D01*
D38*
X9750000Y10548008D02*
X9750000Y10062500D01*
D40*
X8750000Y10550000D02*
X9000000Y10800000D01*
D38*
X8700000Y10012500D02*
X8750000Y10062500D01*
D40*
X9000000Y10800000D02*
X9498008Y10800000D01*
D38*
X8700000Y9510000D02*
X8700000Y10012500D01*
X7820000Y7650000D02*
X7820000Y8570000D01*
X8700000Y9510000D02*
X7850000Y8660000D01*
%TO.N,/OP_U_N*%
X8780000Y7650000D02*
X8780000Y8570000D01*
X8780000Y8570000D02*
X8810000Y8600000D01*
%TO.N,/OP_U_P*%
X10750000Y10062500D02*
X10750000Y9276777D01*
X10300000Y8700000D02*
X10300000Y8826777D01*
X10300000Y8826777D02*
X10750000Y9276777D01*
%TO.N,/OC_COMP*%
X11250000Y9850000D02*
X11250000Y10062500D01*
X12000000Y9100000D02*
X11250000Y9850000D01*
X12100000Y8950000D02*
X12100000Y8560000D01*
X12050000Y9100000D02*
X12000000Y9100000D01*
X11100000Y8600000D02*
X12060000Y8600000D01*
X12050000Y9100000D02*
X12100000Y8950000D01*
%TO.N,GND*%
X12107609Y7600000D02*
X12100000Y7600000D01*
X8750000Y16937500D02*
X8750000Y17423008D01*
D39*
X3200000Y12750000D02*
X2725000Y12750000D01*
D38*
X325000Y14850000D02*
X1050000Y14125000D01*
X12875000Y8367391D02*
X12107609Y7600000D01*
X9250000Y9300000D02*
X9250000Y10062500D01*
X4317500Y8800000D02*
X4317500Y8817500D01*
X8750000Y17423008D02*
X8473008Y17700000D01*
X8473008Y17700000D02*
X8000000Y17700000D01*
X2450000Y13200000D02*
X2450000Y12675000D01*
X2550000Y7400000D02*
X2550000Y7638680D01*
X8500000Y13500000D02*
X8750000Y13750000D01*
D39*
X7700000Y18000000D02*
X7925108Y17774892D01*
D38*
X2550000Y7400000D02*
X1800000Y7400000D01*
D39*
X5570000Y8900000D02*
X4417500Y8900000D01*
D38*
X2550000Y7638680D02*
X2388180Y7800500D01*
X750000Y17725000D02*
X725000Y17725000D01*
X4115685Y7400000D02*
X3125000Y7400000D01*
D39*
X2725000Y12750000D02*
X2550000Y12575000D01*
D38*
X2450000Y12675000D02*
X2550000Y12575000D01*
X725000Y17725000D02*
X325000Y17325000D01*
X5540000Y7000000D02*
X4515685Y7000000D01*
D39*
X3250000Y10500000D02*
X3760000Y10500000D01*
X2550000Y12625000D02*
X2550000Y13100000D01*
X7450000Y18000000D02*
X7700000Y18000000D01*
X4417500Y8900000D02*
X4317500Y8800000D01*
X2550000Y12625000D02*
X1050000Y14125000D01*
D38*
X8000000Y17700000D02*
X7750000Y17450000D01*
X12875000Y8400000D02*
X12875000Y8367391D01*
D39*
X2550000Y13100000D02*
X2450000Y13200000D01*
D38*
X4515685Y7000000D02*
X4115685Y7400000D01*
D39*
X3760000Y10500000D02*
X3900000Y10640000D01*
D38*
X325000Y17325000D02*
X325000Y14850000D01*
X7750000Y17450000D02*
X7750000Y16937500D01*
X8000000Y17700000D02*
X7925108Y17774892D01*
X8750000Y13750000D02*
X8750000Y16937500D01*
X2550000Y12575000D02*
X2550000Y12625000D01*
X4317500Y8817500D02*
X4825500Y9325500D01*
%TO.N,SWD_IO*%
X11250000Y17423008D02*
X11250000Y16937500D01*
X10300000Y17825000D02*
X10848008Y17825000D01*
X10848008Y17825000D02*
X11250000Y17423008D01*
%TO.N,/OP_W_P*%
X7250000Y16937500D02*
X7250000Y15750000D01*
X7250000Y15750000D02*
X7300000Y15700000D01*
%TO.N,/OP_W_N*%
X6650000Y16351992D02*
X6650000Y16000000D01*
X6750000Y16937500D02*
X6750000Y18060000D01*
X6650000Y16000000D02*
X6600000Y15950000D01*
X6710000Y18100000D02*
X6710000Y19020000D01*
X6750000Y16937500D02*
X6750000Y16451992D01*
X6750000Y18060000D02*
X6710000Y18100000D01*
X6750000Y16451992D02*
X6650000Y16351992D01*
X6710000Y19020000D02*
X6680000Y19050000D01*
%TO.N,/Motor phase U/GH_MOS*%
X21400000Y16650000D02*
X21300000Y16650000D01*
X22300000Y18000000D02*
X22604500Y18000000D01*
X21300000Y16650000D02*
X21650000Y17000000D01*
X21650000Y17000000D02*
X21700000Y17000000D01*
X22604999Y17154999D02*
X22450000Y17000000D01*
X22604500Y18000000D02*
X22604999Y17999501D01*
D40*
X21750000Y17000000D02*
X22450000Y17000000D01*
D38*
X22604999Y17999501D02*
X22604999Y17154999D01*
%TO.N,/Motor phase U/GL_MOS*%
X16260000Y18300000D02*
X16560000Y18000000D01*
X16560000Y18000000D02*
X17600000Y18000000D01*
%TO.N,/Motor phase V/GH_MOS*%
X21400000Y9850000D02*
X21550000Y10000000D01*
X21550000Y10000000D02*
X21650000Y10000000D01*
D40*
X21650000Y10000000D02*
X22450000Y10000000D01*
D38*
%TO.N,/Motor phase V/GL_MOS*%
X17600000Y11000000D02*
X16786827Y11000000D01*
X16411827Y11375000D02*
X15775000Y11375000D01*
X14725000Y14135000D02*
X14560000Y14300000D01*
X16786827Y11000000D02*
X16411827Y11375000D01*
X15775000Y11375000D02*
X14725000Y12425000D01*
X14725000Y12425000D02*
X14725000Y14135000D01*
%TO.N,/Motor phase W/GH_MOS*%
X22600000Y4000000D02*
X22850000Y3750000D01*
X14150000Y9160000D02*
X14060000Y9250000D01*
X14150000Y8350000D02*
X14150000Y9160000D01*
X22300000Y4000000D02*
X22600000Y4000000D01*
%TO.N,/OUTU*%
X14636827Y17250000D02*
X14275000Y16888173D01*
X14275000Y16767391D02*
X13762609Y16255000D01*
X23054500Y18186396D02*
X22740897Y18499999D01*
X13755000Y16255000D02*
X13400000Y15900000D01*
X14275000Y16888173D02*
X14275000Y16767391D01*
X15250000Y17250000D02*
X14636827Y17250000D01*
X12750000Y15250000D02*
X11937500Y15250000D01*
X13400000Y15900000D02*
X12750000Y15250000D01*
X23200000Y17050000D02*
X23054500Y17195500D01*
X23054500Y17195500D02*
X23054500Y18186396D01*
X22740897Y18499999D02*
X22300000Y18499999D01*
X13762609Y16255000D02*
X13755000Y16255000D01*
X15550000Y17550000D02*
X15250000Y17250000D01*
%TO.N,/VBOOTW*%
X11350000Y11750000D02*
X10950000Y12150000D01*
X11937500Y11750000D02*
X11350000Y11750000D01*
%TO.N,/VBOOTV*%
X12759462Y13650000D02*
X12659462Y13750000D01*
X12759462Y13650000D02*
X13780000Y13650000D01*
X12659462Y13750000D02*
X11937500Y13750000D01*
X13780000Y13650000D02*
X14050000Y13380000D01*
%TO.N,/HSU*%
X13019462Y14750000D02*
X13214462Y14945000D01*
X13412609Y14945000D02*
X14417609Y15950000D01*
X11937500Y14750000D02*
X13019462Y14750000D01*
X13214462Y14945000D02*
X13412609Y14945000D01*
X14417609Y15950000D02*
X14430000Y15950000D01*
%TO.N,/VBOOTU*%
X12700000Y16167609D02*
X12700000Y15986396D01*
X11937500Y15750000D02*
X12463604Y15750000D01*
X13400000Y16860000D02*
X13392391Y16860000D01*
X12700000Y15986396D02*
X12463604Y15750000D01*
X13392391Y16860000D02*
X12700000Y16167609D01*
%TO.N,/LSU*%
X13037391Y17465000D02*
X11937500Y16365109D01*
X13928173Y17465000D02*
X13037391Y17465000D01*
X15240000Y18300000D02*
X14763173Y18300000D01*
X14763173Y18300000D02*
X13928173Y17465000D01*
X11937500Y16365109D02*
X11937500Y16250000D01*
%TO.N,/OUTV*%
X14042391Y12420000D02*
X13262391Y13200000D01*
X23150000Y10000000D02*
X23054999Y10095001D01*
X13262391Y13200000D02*
X11987500Y13200000D01*
X23054999Y11185897D02*
X22740897Y11499999D01*
X22740897Y11499999D02*
X22300000Y11499999D01*
X14850000Y11450000D02*
X14042391Y12420000D01*
X11987500Y13200000D02*
X11937500Y13250000D01*
X23054999Y10095001D02*
X23054999Y11185897D01*
X23200000Y10000000D02*
X23150000Y10000000D01*
%TO.N,/OUTW*%
X10900000Y11250000D02*
X11937500Y11250000D01*
X22900000Y4500000D02*
X22300000Y4499999D01*
%TO.N,/HSW*%
X13040000Y9200000D02*
X13019462Y9200000D01*
X13019462Y9200000D02*
X12445000Y9774462D01*
X11937500Y10612500D02*
X11937500Y10750000D01*
X12445000Y9774462D02*
X12445000Y10105000D01*
X12445000Y10105000D02*
X11937500Y10612500D01*
%TO.N,/LSW*%
X12423008Y12250000D02*
X11937500Y12250000D01*
X12700000Y11973008D02*
X12423008Y12250000D01*
X13040000Y10150000D02*
X12700000Y10490000D01*
X12700000Y10490000D02*
X12700000Y11973008D01*
%TO.N,/HSV*%
X12700000Y12750000D02*
X11937500Y12750000D01*
X15150000Y10300000D02*
X12700000Y12750000D01*
X15390000Y10300000D02*
X15150000Y10300000D01*
%TO.N,/LSV*%
X11937500Y14250000D02*
X13490000Y14250000D01*
X13490000Y14250000D02*
X13540000Y14300000D01*
%TO.N,/SW_3.3*%
X3200000Y8800000D02*
X3325500Y8800000D01*
X5062500Y12250000D02*
X3500000Y12250000D01*
X2675000Y9325000D02*
X3200000Y8800000D01*
X2675000Y9925000D02*
X2675000Y9325000D01*
X2675000Y11425000D02*
X2675000Y9925000D01*
X3500000Y12250000D02*
X2675000Y11425000D01*
X1500000Y9925000D02*
X2675000Y9925000D01*
%TO.N,/USART_RX*%
X9250000Y16388173D02*
X9250000Y16937500D01*
X9398508Y15651492D02*
X9398508Y16239665D01*
X9650000Y15400000D02*
X9398508Y15651492D01*
X9398508Y16239665D02*
X9250000Y16388173D01*
%TO.N,/BUS_SENSE*%
X6560000Y7000000D02*
X6745000Y7185000D01*
X6745000Y7185000D02*
X6745000Y10057500D01*
X6745000Y10057500D02*
X6750000Y10062500D01*
%TO.N,/OP_W_O*%
X6250000Y17450000D02*
X6250000Y16937500D01*
X6200000Y16363173D02*
X6000000Y16163173D01*
X6750000Y11513604D02*
X6250000Y11013604D01*
X5720000Y19050000D02*
X5720000Y18130000D01*
X6200000Y16887500D02*
X6200000Y16363173D01*
X6250000Y11013604D02*
X6250000Y10062500D01*
X6750000Y14900000D02*
X6750000Y11513604D01*
X6250000Y16937500D02*
X6200000Y16887500D01*
X5690000Y18100000D02*
X5690000Y18010000D01*
X5720000Y18130000D02*
X5690000Y18100000D01*
X6000000Y15650000D02*
X6750000Y14900000D01*
X6000000Y16163173D02*
X6000000Y15650000D01*
X5690000Y18010000D02*
X6250000Y17450000D01*
%TO.N,/~{MAG1_CS}*%
X5012500Y14300000D02*
X3550000Y14300000D01*
X3550000Y14300000D02*
X3500000Y14350000D01*
X5062500Y14250000D02*
X5012500Y14300000D01*
%TO.N,/LED_STATUS*%
X1775000Y16869625D02*
X1775000Y15491000D01*
X2749115Y19474755D02*
X2616500Y19342140D01*
X1975000Y14925000D02*
X1775000Y15125000D01*
X3775000Y14925000D02*
X1975000Y14925000D01*
X2416500Y17511125D02*
X2416500Y17600000D01*
X1775000Y16869625D02*
X2416500Y17511125D01*
X2616500Y19342140D02*
X2616500Y17600000D01*
X1775000Y15125000D02*
X1592000Y15308000D01*
X1775000Y15491000D02*
X1592000Y15308000D01*
X5062500Y14750000D02*
X3950000Y14750000D01*
X1592000Y15308000D02*
X1000000Y15308000D01*
X3950000Y14750000D02*
X3775000Y14925000D01*
D40*
%TO.N,/SPI_MOSI*%
X8550000Y11200000D02*
X8600000Y11200000D01*
X8600000Y10965686D02*
X8250000Y10615686D01*
X8600000Y11200000D02*
X8600000Y10965686D01*
X8250000Y10615686D02*
X8250000Y10062500D01*
D38*
%TO.N,/SPI_MISO*%
X7750000Y10850000D02*
X7750000Y10062500D01*
%TO.N,/SPI_SCLK*%
X4615685Y6400000D02*
X2550000Y6400000D01*
X7250000Y10062500D02*
X7250000Y9576992D01*
X7250000Y9576992D02*
X7195000Y9521992D01*
X7195000Y6631827D02*
X6913173Y6350000D01*
X6913173Y6350000D02*
X4665685Y6350000D01*
X4665685Y6350000D02*
X4615685Y6400000D01*
X7195000Y9521992D02*
X7195000Y6631827D01*
%TO.N,/Red_Anode*%
X1550000Y17281021D02*
X1550000Y18240000D01*
X1000000Y16300000D02*
X1000000Y16731021D01*
X1000000Y16731021D02*
X1550000Y17281021D01*
X750000Y19300000D02*
X1290000Y19300000D01*
X1290000Y19300000D02*
X1950000Y18640000D01*
X1550000Y18240000D02*
X1950000Y18640000D01*
%TO.N,/Green_Cathode*%
X3608500Y17600000D02*
X3608500Y18391500D01*
X2988173Y21075000D02*
X2335000Y21075000D01*
X2335000Y21075000D02*
X1950000Y20690000D01*
X3375000Y20688173D02*
X2988173Y21075000D01*
X3375000Y18625000D02*
X3375000Y20688173D01*
X750000Y20700000D02*
X1940000Y20700000D01*
X1940000Y20700000D02*
X1950000Y20690000D01*
X3608500Y18391500D02*
X3375000Y18625000D01*
%TO.N,USART_TX*%
X9550000Y17761827D02*
X9750000Y17561827D01*
X9750000Y17561827D02*
X9750000Y16937500D01*
X9550000Y17950000D02*
X9550000Y17761827D01*
%TO.N,/USART_DE*%
X4950000Y10750000D02*
X4700000Y10500000D01*
X5062500Y10750000D02*
X4950000Y10750000D01*
%TO.N,/NTC_IN*%
X5587500Y9900000D02*
X3550000Y9900000D01*
X3550000Y9900000D02*
X3250000Y9600000D01*
X5750000Y10062500D02*
X5587500Y9900000D01*
%TO.N,/~{MAG2_CS}*%
X984315Y6900000D02*
X700000Y7184315D01*
X2550000Y6900000D02*
X984315Y6900000D01*
X700000Y8000000D02*
X1650000Y8950000D01*
X10050000Y16050000D02*
X10250000Y16250000D01*
X1650000Y8950000D02*
X2200000Y8950000D01*
X700000Y7184315D02*
X700000Y8000000D01*
X10250000Y16250000D02*
X10250000Y16937500D01*
%TD*%
%TA.AperFunction,Conductor*%
%TO.N,GND*%
G36*
X7924500Y16536603D02*
G01*
X7924501Y16536594D01*
X7939759Y16459883D01*
X7997887Y16372888D01*
X8018125Y16359366D01*
X8084883Y16314760D01*
X8161599Y16299500D01*
X8338400Y16299501D01*
X8338403Y16299502D01*
X8338406Y16299502D01*
X8415117Y16314760D01*
X8502112Y16372888D01*
X8506429Y16379349D01*
X8560240Y16459883D01*
X8575500Y16536599D01*
X8575500Y16900000D01*
X8900000Y16900000D01*
X8900000Y14800000D01*
X7600000Y14800000D01*
X7600000Y15327570D01*
X7614589Y15336945D01*
X7704130Y15440282D01*
X7760931Y15564658D01*
X7780390Y15700000D01*
X7760931Y15835342D01*
X7704130Y15959718D01*
X7614589Y16063055D01*
X7614588Y16063056D01*
X7608687Y16069866D01*
X7610915Y16071797D01*
X7600000Y16088790D01*
X7600000Y16900000D01*
X7924500Y16900000D01*
X7924500Y16536603D01*
G37*
%TD.AperFunction*%
%TD*%
%TA.AperFunction,Conductor*%
%TO.N,/Motor phase V/Motor*%
G36*
X23771317Y16974316D02*
G01*
X23808717Y16925892D01*
X23814500Y16892551D01*
X23814500Y15992801D01*
X23817224Y15963746D01*
X23817225Y15963741D01*
X23860046Y15841366D01*
X23860048Y15841362D01*
X23937040Y15737040D01*
X24041362Y15660048D01*
X24163742Y15617225D01*
X24192801Y15614500D01*
X26507198Y15614501D01*
X26507199Y15614501D01*
X26513009Y15615046D01*
X26536258Y15617225D01*
X26658638Y15660048D01*
X26658637Y15660048D01*
X26665640Y15662498D01*
X26666563Y15659861D01*
X26714490Y15668203D01*
X26769425Y15641262D01*
X26798032Y15587176D01*
X26799499Y15570197D01*
X26799499Y11529804D01*
X26780592Y11471613D01*
X26731092Y11435649D01*
X26669906Y11435649D01*
X26664978Y11437734D01*
X26536262Y11482774D01*
X26536253Y11482776D01*
X26507207Y11485500D01*
X24192800Y11485500D01*
X24163745Y11482776D01*
X24163740Y11482775D01*
X24041365Y11439954D01*
X24041364Y11439953D01*
X24041363Y11439953D01*
X24041362Y11439952D01*
X23937040Y11362960D01*
X23861353Y11260405D01*
X23860047Y11258636D01*
X23860046Y11258635D01*
X23817226Y11136263D01*
X23817224Y11136254D01*
X23814500Y11107210D01*
X23814500Y10157450D01*
X23795593Y10099259D01*
X23746093Y10063295D01*
X23684907Y10063295D01*
X23635407Y10099259D01*
X23626192Y10118016D01*
X23625097Y10117515D01*
X23622156Y10123955D01*
X23622156Y10123956D01*
X23570133Y10237870D01*
X23488124Y10332513D01*
X23385974Y10398161D01*
X23347244Y10445526D01*
X23340499Y10481444D01*
X23340499Y11126853D01*
X23340974Y11133700D01*
X23342658Y11145773D01*
X23340552Y11191324D01*
X23340499Y11193611D01*
X23340499Y11212345D01*
X23340499Y11212351D01*
X23339907Y11215516D01*
X23339119Y11222305D01*
X23337729Y11252394D01*
X23334189Y11260411D01*
X23327440Y11282207D01*
X23325831Y11290818D01*
X23309973Y11316428D01*
X23306778Y11322493D01*
X23300988Y11335604D01*
X23294615Y11350039D01*
X23294614Y11350040D01*
X23294613Y11350042D01*
X23288416Y11356239D01*
X23274250Y11374124D01*
X23269640Y11381569D01*
X23245613Y11399714D01*
X23240436Y11404219D01*
X22984525Y11660130D01*
X22980019Y11665308D01*
X22972677Y11675031D01*
X22938970Y11705759D01*
X22937318Y11707337D01*
X22924072Y11720582D01*
X22924064Y11720589D01*
X22921417Y11722403D01*
X22916047Y11726657D01*
X22906663Y11735211D01*
X22893797Y11746940D01*
X22893793Y11746942D01*
X22893791Y11746943D01*
X22885622Y11750108D01*
X22865448Y11760741D01*
X22864238Y11761570D01*
X22858214Y11765696D01*
X22858213Y11765697D01*
X22858212Y11765697D01*
X22828901Y11772592D01*
X22822347Y11774621D01*
X22794270Y11785498D01*
X22794267Y11785499D01*
X22794266Y11785499D01*
X22794264Y11785499D01*
X22785502Y11785499D01*
X22762835Y11788129D01*
X22754310Y11790134D01*
X22724487Y11785974D01*
X22717641Y11785499D01*
X21999000Y11785499D01*
X21940809Y11804406D01*
X21904845Y11853906D01*
X21900000Y11884499D01*
X21900000Y16065998D01*
X21918907Y16124189D01*
X21968407Y16160153D01*
X21999000Y16164998D01*
X22295805Y16164998D01*
X22295806Y16164998D01*
X22295807Y16164999D01*
X22295814Y16164999D01*
X22323796Y16170566D01*
X22342624Y16174311D01*
X22395714Y16209784D01*
X22431187Y16262874D01*
X22434932Y16281702D01*
X22440499Y16309684D01*
X22440500Y16309694D01*
X22440500Y16620980D01*
X22459407Y16679171D01*
X22508907Y16715135D01*
X22516404Y16717230D01*
X22516494Y16717270D01*
X22516497Y16717270D01*
X22614141Y16760383D01*
X22678844Y16825087D01*
X22733359Y16852864D01*
X22793791Y16843293D01*
X22823746Y16816196D01*
X22825230Y16817481D01*
X22911875Y16717488D01*
X22911875Y16717487D01*
X23017225Y16649783D01*
X23017227Y16649782D01*
X23137385Y16614500D01*
X23137386Y16614500D01*
X23262614Y16614500D01*
X23262615Y16614500D01*
X23382773Y16649782D01*
X23488124Y16717487D01*
X23570133Y16812130D01*
X23622156Y16926044D01*
X23622156Y16926046D01*
X23625097Y16932485D01*
X23627889Y16931210D01*
X23654985Y16970902D01*
X23712596Y16991508D01*
X23771317Y16974316D01*
G37*
%TD.AperFunction*%
%TD*%
%TA.AperFunction,Conductor*%
%TO.N,/Motor phase U/Motor*%
G36*
X24815616Y26799395D02*
G01*
X25069921Y26782727D01*
X25076342Y26781881D01*
X25324701Y26732479D01*
X25330958Y26730803D01*
X25570745Y26649407D01*
X25576718Y26646933D01*
X25803840Y26534928D01*
X25809448Y26531690D01*
X26019998Y26391006D01*
X26025140Y26387060D01*
X26215519Y26220103D01*
X26220102Y26215520D01*
X26387059Y26025141D01*
X26391005Y26019999D01*
X26531689Y25809449D01*
X26534930Y25803836D01*
X26646928Y25576727D01*
X26649406Y25570744D01*
X26730801Y25330962D01*
X26732478Y25324702D01*
X26781880Y25076343D01*
X26782726Y25069917D01*
X26799394Y24815619D01*
X26799500Y24812381D01*
X26799500Y18949000D01*
X26780593Y18890809D01*
X26731093Y18854845D01*
X26700500Y18850000D01*
X21999000Y18850000D01*
X21940809Y18868907D01*
X21904845Y18918407D01*
X21900000Y18949000D01*
X21900000Y23065998D01*
X21918907Y23124189D01*
X21968407Y23160153D01*
X21999000Y23164998D01*
X22295805Y23164998D01*
X22295806Y23164998D01*
X22295807Y23164999D01*
X22295814Y23164999D01*
X22323796Y23170566D01*
X22342624Y23174311D01*
X22395714Y23209784D01*
X22431187Y23262874D01*
X22434932Y23281702D01*
X22440499Y23309684D01*
X22440500Y23309694D01*
X22440500Y23716305D01*
X22440499Y23716315D01*
X22431187Y23763123D01*
X22431186Y23763126D01*
X22395715Y23816213D01*
X22395712Y23816216D01*
X22356797Y23842218D01*
X22318917Y23890268D01*
X22316515Y23951406D01*
X22321742Y23965655D01*
X22372156Y24076044D01*
X22374691Y24093675D01*
X22389978Y24199998D01*
X22389978Y24200003D01*
X22372157Y24323952D01*
X22372156Y24323954D01*
X22372156Y24323956D01*
X22320133Y24437870D01*
X22238124Y24532513D01*
X22238124Y24532514D01*
X22132774Y24600218D01*
X22012616Y24635500D01*
X22012615Y24635500D01*
X21999000Y24635500D01*
X21940809Y24654407D01*
X21904845Y24703907D01*
X21900000Y24734500D01*
X21900000Y24814000D01*
X23608357Y24814000D01*
X23628885Y24592464D01*
X23689771Y24378472D01*
X23788942Y24179311D01*
X23923019Y24001764D01*
X24087438Y23851876D01*
X24276599Y23734753D01*
X24484060Y23654382D01*
X24702757Y23613500D01*
X24925243Y23613500D01*
X25143940Y23654382D01*
X25351401Y23734753D01*
X25540562Y23851876D01*
X25704981Y24001764D01*
X25839058Y24179311D01*
X25938229Y24378472D01*
X25999115Y24592464D01*
X26019643Y24814000D01*
X25999115Y25035536D01*
X25938229Y25249528D01*
X25839058Y25448689D01*
X25704981Y25626236D01*
X25540562Y25776124D01*
X25351401Y25893247D01*
X25143940Y25973618D01*
X25143939Y25973619D01*
X25143937Y25973619D01*
X24925243Y26014500D01*
X24702757Y26014500D01*
X24484062Y25973619D01*
X24407797Y25944074D01*
X24276599Y25893247D01*
X24141260Y25809449D01*
X24087438Y25776124D01*
X23923020Y25626237D01*
X23788943Y25448691D01*
X23788938Y25448682D01*
X23689772Y25249531D01*
X23689771Y25249528D01*
X23628885Y25035536D01*
X23608357Y24814000D01*
X21900000Y24814000D01*
X21900000Y26700500D01*
X21918907Y26758691D01*
X21968407Y26794655D01*
X21999000Y26799500D01*
X24774118Y26799500D01*
X24812380Y26799500D01*
X24815616Y26799395D01*
G37*
%TD.AperFunction*%
%TD*%
%TA.AperFunction,Conductor*%
%TO.N,GND*%
G36*
X1368734Y18810653D02*
G01*
X1393793Y18792447D01*
X1440503Y18745738D01*
X1468281Y18691222D01*
X1469500Y18675734D01*
X1469500Y18604267D01*
X1450593Y18546076D01*
X1440503Y18534263D01*
X1389866Y18483627D01*
X1384690Y18479123D01*
X1374968Y18471782D01*
X1344230Y18438065D01*
X1342654Y18436414D01*
X1329414Y18423173D01*
X1327601Y18420527D01*
X1323345Y18415154D01*
X1303060Y18392904D01*
X1303057Y18392899D01*
X1299890Y18384723D01*
X1289257Y18364550D01*
X1284303Y18357318D01*
X1284302Y18357317D01*
X1277408Y18328008D01*
X1275379Y18321455D01*
X1264500Y18293370D01*
X1264500Y18284605D01*
X1261870Y18261937D01*
X1259865Y18253414D01*
X1264025Y18223591D01*
X1264500Y18216745D01*
X1264500Y17440287D01*
X1245593Y17382096D01*
X1235503Y17370283D01*
X839874Y16974655D01*
X834707Y16970157D01*
X828558Y16965511D01*
X770731Y16945517D01*
X768877Y16945500D01*
X639185Y16945500D01*
X592377Y16936188D01*
X592374Y16936187D01*
X539287Y16900716D01*
X539284Y16900713D01*
X503813Y16847626D01*
X503812Y16847623D01*
X494500Y16800815D01*
X494500Y15734186D01*
X503812Y15687378D01*
X503814Y15687372D01*
X519431Y15664000D01*
X536039Y15605112D01*
X519431Y15554000D01*
X503814Y15530629D01*
X503812Y15530623D01*
X494500Y15483815D01*
X494500Y15067186D01*
X503812Y15020378D01*
X503813Y15020375D01*
X539284Y14967288D01*
X539287Y14967285D01*
X592374Y14931814D01*
X592375Y14931814D01*
X592376Y14931813D01*
X601789Y14929941D01*
X639185Y14922501D01*
X639192Y14922501D01*
X639194Y14922500D01*
X639195Y14922500D01*
X1360805Y14922500D01*
X1360806Y14922500D01*
X1360807Y14922501D01*
X1360814Y14922501D01*
X1388796Y14928068D01*
X1407624Y14931813D01*
X1434066Y14949482D01*
X1492954Y14966090D01*
X1550358Y14944913D01*
X1559072Y14937170D01*
X1731370Y14764871D01*
X1735875Y14759694D01*
X1743218Y14749970D01*
X1743219Y14749969D01*
X1743220Y14749968D01*
X1766240Y14728982D01*
X1776925Y14719242D01*
X1778577Y14717664D01*
X1791824Y14704418D01*
X1791827Y14704415D01*
X1794474Y14702602D01*
X1799840Y14698352D01*
X1822100Y14678059D01*
X1830267Y14674895D01*
X1850454Y14664254D01*
X1857683Y14659302D01*
X1886984Y14652412D01*
X1893510Y14650393D01*
X1896194Y14649355D01*
X1897392Y14648891D01*
X1944844Y14610268D01*
X1960533Y14551129D01*
X1950623Y14513077D01*
X1925418Y14461520D01*
X1925417Y14461518D01*
X1925418Y14461518D01*
X1914500Y14386582D01*
X1914500Y13863418D01*
X1925418Y13788482D01*
X1981924Y13672898D01*
X2072898Y13581924D01*
X2188482Y13525418D01*
X2263418Y13514500D01*
X2538958Y13514500D01*
X2597149Y13495593D01*
X2608961Y13485504D01*
X2674833Y13419633D01*
X2674834Y13419631D01*
X2674835Y13419631D01*
X2688759Y13405707D01*
X2688759Y13405706D01*
X2780706Y13313759D01*
X2802910Y13302446D01*
X2816152Y13294332D01*
X2836314Y13279683D01*
X2860015Y13271983D01*
X2874358Y13266042D01*
X2896567Y13254725D01*
X2921179Y13250828D01*
X2936287Y13247200D01*
X2959982Y13239500D01*
X2959983Y13239500D01*
X2992693Y13239500D01*
X3496477Y13239500D01*
X3554668Y13220593D01*
X3590632Y13171093D01*
X3590632Y13109907D01*
X3586531Y13099378D01*
X3572465Y13068578D01*
X3572466Y13068578D01*
X3572464Y13068574D01*
X3554644Y12944625D01*
X3554644Y12944620D01*
X3572464Y12820671D01*
X3572465Y12820669D01*
X3572465Y12820668D01*
X3572466Y12820666D01*
X3624489Y12706752D01*
X3630043Y12700342D01*
X3653860Y12643983D01*
X3640001Y12584388D01*
X3593760Y12544321D01*
X3549272Y12538476D01*
X3549291Y12538083D01*
X3544648Y12537869D01*
X3541548Y12537461D01*
X3540126Y12537660D01*
X3502152Y12535904D01*
X3494565Y12535553D01*
X3492289Y12535500D01*
X3473546Y12535500D01*
X3473532Y12535499D01*
X3470380Y12534910D01*
X3463575Y12534121D01*
X3433500Y12532730D01*
X3425482Y12529190D01*
X3403698Y12522444D01*
X3395082Y12520833D01*
X3395076Y12520831D01*
X3369472Y12504979D01*
X3363405Y12501781D01*
X3335858Y12489617D01*
X3335857Y12489617D01*
X3329660Y12483419D01*
X3311781Y12469257D01*
X3304327Y12464642D01*
X3286183Y12440615D01*
X3281678Y12435439D01*
X2580856Y11734616D01*
X2526339Y11706839D01*
X2465907Y11716410D01*
X2455851Y11722304D01*
X2412625Y11751187D01*
X2412622Y11751188D01*
X2365814Y11760500D01*
X2365806Y11760500D01*
X1609500Y11760500D01*
X1551309Y11779407D01*
X1515345Y11828907D01*
X1510500Y11859500D01*
X1510500Y11974315D01*
X1529407Y12032506D01*
X1539490Y12044313D01*
X1618076Y12122898D01*
X1674582Y12238482D01*
X1685500Y12313418D01*
X1685500Y12836582D01*
X1674582Y12911518D01*
X1618076Y13027102D01*
X1527102Y13118076D01*
X1411518Y13174582D01*
X1336582Y13185500D01*
X763418Y13185500D01*
X688481Y13174582D01*
X688482Y13174582D01*
X572899Y13118077D01*
X481923Y13027101D01*
X426876Y12914500D01*
X425418Y12911518D01*
X414500Y12836582D01*
X414500Y12313418D01*
X425418Y12238482D01*
X481924Y12122898D01*
X571326Y12033496D01*
X599102Y11978981D01*
X599313Y11949406D01*
X585022Y11850005D01*
X585022Y11849998D01*
X603851Y11719036D01*
X601962Y11718765D01*
X600628Y11672203D01*
X600715Y11672185D01*
X600613Y11671677D01*
X600479Y11666971D01*
X598821Y11662667D01*
X589500Y11615814D01*
X589500Y10934186D01*
X598812Y10887378D01*
X598813Y10887375D01*
X634284Y10834288D01*
X634287Y10834285D01*
X687374Y10798814D01*
X687375Y10798814D01*
X687376Y10798813D01*
X696789Y10796941D01*
X734185Y10789501D01*
X734192Y10789501D01*
X734194Y10789500D01*
X734195Y10789500D01*
X2290500Y10789500D01*
X2348691Y10770593D01*
X2384655Y10721093D01*
X2389500Y10690500D01*
X2389500Y10509500D01*
X2370593Y10451309D01*
X2321093Y10415345D01*
X2290500Y10410500D01*
X734185Y10410500D01*
X687377Y10401188D01*
X687374Y10401187D01*
X634287Y10365716D01*
X634284Y10365713D01*
X598813Y10312626D01*
X598812Y10312623D01*
X589500Y10265815D01*
X589500Y9584186D01*
X598812Y9537378D01*
X598813Y9537375D01*
X634284Y9484288D01*
X634287Y9484285D01*
X687374Y9448814D01*
X687375Y9448814D01*
X687376Y9448813D01*
X696789Y9446941D01*
X734185Y9439501D01*
X734192Y9439501D01*
X734194Y9439500D01*
X734195Y9439500D01*
X1831127Y9439500D01*
X1889318Y9420593D01*
X1925282Y9371093D01*
X1925282Y9309907D01*
X1905946Y9275671D01*
X1903833Y9273230D01*
X1900747Y9269669D01*
X1848351Y9238073D01*
X1825928Y9235500D01*
X1709051Y9235500D01*
X1702204Y9235975D01*
X1690123Y9237661D01*
X1648943Y9235756D01*
X1644554Y9235553D01*
X1642274Y9235500D01*
X1623543Y9235500D01*
X1620387Y9234910D01*
X1613578Y9234121D01*
X1583506Y9232731D01*
X1583498Y9232729D01*
X1575482Y9229190D01*
X1553698Y9222444D01*
X1545079Y9220833D01*
X1545076Y9220832D01*
X1519474Y9204980D01*
X1513406Y9201781D01*
X1485862Y9189619D01*
X1485855Y9189615D01*
X1479660Y9183419D01*
X1461781Y9169257D01*
X1454327Y9164642D01*
X1436183Y9140615D01*
X1431678Y9135439D01*
X539867Y8243628D01*
X534691Y8239123D01*
X524967Y8231781D01*
X494230Y8198065D01*
X492654Y8196414D01*
X479414Y8183173D01*
X477601Y8180527D01*
X473345Y8175154D01*
X453060Y8152904D01*
X453057Y8152899D01*
X449890Y8144723D01*
X439257Y8124550D01*
X434303Y8117318D01*
X434302Y8117317D01*
X427408Y8088008D01*
X425379Y8081455D01*
X414500Y8053370D01*
X414500Y8044605D01*
X411870Y8021937D01*
X409865Y8013414D01*
X414025Y7983591D01*
X414500Y7976745D01*
X414500Y7243372D01*
X414025Y7236528D01*
X412339Y7224444D01*
X413609Y7196991D01*
X414226Y7183644D01*
X414447Y7178878D01*
X414500Y7176591D01*
X414500Y7157860D01*
X415088Y7154713D01*
X415879Y7147897D01*
X417269Y7117822D01*
X417269Y7117820D01*
X417270Y7117818D01*
X420810Y7109800D01*
X427557Y7088013D01*
X429168Y7079392D01*
X429169Y7079390D01*
X445016Y7053799D01*
X448217Y7047727D01*
X460383Y7020174D01*
X466584Y7013973D01*
X480746Y6996093D01*
X485359Y6988643D01*
X509380Y6970503D01*
X514559Y6965997D01*
X740685Y6739871D01*
X745190Y6734694D01*
X752533Y6724970D01*
X752534Y6724969D01*
X752535Y6724968D01*
X785408Y6695000D01*
X786240Y6694242D01*
X787892Y6692664D01*
X794582Y6685975D01*
X801142Y6679415D01*
X803789Y6677602D01*
X809155Y6673352D01*
X831415Y6653059D01*
X836381Y6651135D01*
X883812Y6612487D01*
X899467Y6553338D01*
X897717Y6539507D01*
X889500Y6498200D01*
X889500Y6301806D01*
X889501Y6301794D01*
X903163Y6233115D01*
X903164Y6233111D01*
X921946Y6205003D01*
X938555Y6146115D01*
X921947Y6095001D01*
X903165Y6066893D01*
X903163Y6066886D01*
X889501Y5998207D01*
X889500Y5998195D01*
X889500Y5801806D01*
X889501Y5801794D01*
X903163Y5733115D01*
X903164Y5733111D01*
X921947Y5705001D01*
X938555Y5646113D01*
X921947Y5594999D01*
X903164Y5566890D01*
X903163Y5566886D01*
X889501Y5498207D01*
X889500Y5498195D01*
X889500Y5301806D01*
X889501Y5301794D01*
X903163Y5233115D01*
X903164Y5233111D01*
X921947Y5205001D01*
X938555Y5146113D01*
X921947Y5094999D01*
X903164Y5066890D01*
X903163Y5066886D01*
X889501Y4998207D01*
X889500Y4998195D01*
X889500Y4801806D01*
X889501Y4801794D01*
X903163Y4733115D01*
X903165Y4733110D01*
X951792Y4660336D01*
X955214Y4655214D01*
X1033112Y4603164D01*
X1079746Y4593888D01*
X1101793Y4589502D01*
X1101798Y4589502D01*
X1101804Y4589500D01*
X3587801Y4589500D01*
X3645992Y4570593D01*
X3681956Y4521093D01*
X3681956Y4459907D01*
X3662621Y4425671D01*
X3629867Y4387871D01*
X3629867Y4387870D01*
X3577843Y4273954D01*
X3577842Y4273952D01*
X3560022Y4150003D01*
X3560022Y4149998D01*
X3577842Y4026049D01*
X3577843Y4026047D01*
X3577843Y4026046D01*
X3577844Y4026044D01*
X3629867Y3912130D01*
X3629868Y3912129D01*
X3711875Y3817488D01*
X3711875Y3817487D01*
X3817225Y3749783D01*
X3817227Y3749782D01*
X3937385Y3714500D01*
X3937386Y3714500D01*
X4062614Y3714500D01*
X4062615Y3714500D01*
X4182773Y3749782D01*
X4288124Y3817487D01*
X4370133Y3912130D01*
X4422156Y4026044D01*
X4427250Y4061470D01*
X4440986Y4157009D01*
X4443683Y4156622D01*
X4458885Y4203406D01*
X4468976Y4215220D01*
X4489262Y4235505D01*
X4543779Y4263282D01*
X4559264Y4264500D01*
X5140949Y4264500D01*
X5147796Y4264025D01*
X5159870Y4262341D01*
X5159873Y4262340D01*
X5159875Y4262341D01*
X5159876Y4262340D01*
X5183740Y4263444D01*
X5205445Y4264448D01*
X5207726Y4264500D01*
X5226448Y4264500D01*
X5226454Y4264500D01*
X5229602Y4265089D01*
X5236402Y4265880D01*
X5266497Y4267270D01*
X5274506Y4270807D01*
X5296306Y4277559D01*
X5304921Y4279168D01*
X5330523Y4295022D01*
X5336580Y4298215D01*
X5364141Y4310383D01*
X5370337Y4316581D01*
X5388223Y4330748D01*
X5395672Y4335359D01*
X5413821Y4359395D01*
X5418318Y4364561D01*
X6639262Y5585504D01*
X6693779Y5613281D01*
X6709266Y5614500D01*
X6760816Y5614500D01*
X6819007Y5595593D01*
X6854971Y5546093D01*
X6854971Y5484907D01*
X6850869Y5474373D01*
X6827844Y5423957D01*
X6827842Y5423952D01*
X6810022Y5300003D01*
X6810022Y5299998D01*
X6827842Y5176049D01*
X6827843Y5176047D01*
X6827843Y5176046D01*
X6827844Y5176044D01*
X6879867Y5062130D01*
X6879868Y5062129D01*
X6961875Y4967488D01*
X6961875Y4967487D01*
X7055709Y4907184D01*
X7067227Y4899782D01*
X7187385Y4864500D01*
X7187386Y4864500D01*
X7312614Y4864500D01*
X7312615Y4864500D01*
X7432773Y4899782D01*
X7538124Y4967487D01*
X7620133Y5062130D01*
X7672156Y5176044D01*
X7672157Y5176049D01*
X7689978Y5299998D01*
X7689978Y5300003D01*
X7672157Y5423952D01*
X7672156Y5423954D01*
X7672156Y5423956D01*
X7620133Y5537870D01*
X7538124Y5632513D01*
X7472933Y5674409D01*
X7434202Y5721776D01*
X7430710Y5782861D01*
X7456454Y5827697D01*
X8214263Y6585504D01*
X8268779Y6613281D01*
X8284266Y6614500D01*
X9740949Y6614500D01*
X9747796Y6614025D01*
X9759870Y6612341D01*
X9759873Y6612340D01*
X9759875Y6612341D01*
X9759876Y6612340D01*
X9783740Y6613444D01*
X9805445Y6614448D01*
X9807726Y6614500D01*
X9826448Y6614500D01*
X9826454Y6614500D01*
X9829602Y6615089D01*
X9836402Y6615880D01*
X9866497Y6617270D01*
X9874506Y6620807D01*
X9896306Y6627559D01*
X9904921Y6629168D01*
X9930523Y6645022D01*
X9936580Y6648215D01*
X9964141Y6660383D01*
X9970337Y6666581D01*
X9988223Y6680748D01*
X9995672Y6685359D01*
X10013821Y6709395D01*
X10018318Y6714561D01*
X10328756Y7024998D01*
X12260022Y7024998D01*
X12277842Y6901049D01*
X12277843Y6901047D01*
X12277843Y6901046D01*
X12277844Y6901044D01*
X12329867Y6787130D01*
X12329868Y6787129D01*
X12411875Y6692488D01*
X12411875Y6692487D01*
X12517225Y6624783D01*
X12517227Y6624782D01*
X12637385Y6589500D01*
X12637386Y6589500D01*
X12762614Y6589500D01*
X12762615Y6589500D01*
X12882773Y6624782D01*
X12988124Y6692487D01*
X13070133Y6787130D01*
X13122156Y6901044D01*
X13122157Y6901049D01*
X13139978Y7024998D01*
X13139978Y7025003D01*
X13122157Y7148953D01*
X13120847Y7153414D01*
X13122591Y7214575D01*
X13159951Y7263030D01*
X13176725Y7270980D01*
X13176332Y7271841D01*
X13182765Y7274780D01*
X13182773Y7274782D01*
X13288124Y7342487D01*
X13370133Y7437130D01*
X13422156Y7551044D01*
X13422157Y7551049D01*
X13439978Y7674998D01*
X13439978Y7675003D01*
X13422157Y7798952D01*
X13422156Y7798954D01*
X13422156Y7798956D01*
X13370133Y7912870D01*
X13288124Y8007513D01*
X13288124Y8007514D01*
X13182774Y8075218D01*
X13062616Y8110500D01*
X13062615Y8110500D01*
X12937385Y8110500D01*
X12937383Y8110500D01*
X12817225Y8075218D01*
X12711875Y8007514D01*
X12711875Y8007513D01*
X12629868Y7912872D01*
X12629867Y7912871D01*
X12629867Y7912870D01*
X12618451Y7887872D01*
X12577843Y7798954D01*
X12577842Y7798952D01*
X12560022Y7675003D01*
X12560022Y7674998D01*
X12577843Y7551046D01*
X12579154Y7546581D01*
X12577406Y7485421D01*
X12540043Y7436968D01*
X12523278Y7429019D01*
X12523670Y7428161D01*
X12517227Y7425219D01*
X12411875Y7357514D01*
X12411875Y7357513D01*
X12329868Y7262872D01*
X12329867Y7262871D01*
X12329867Y7262870D01*
X12314455Y7229123D01*
X12277843Y7148954D01*
X12277842Y7148952D01*
X12260022Y7025003D01*
X12260022Y7024998D01*
X10328756Y7024998D01*
X10489263Y7185504D01*
X10543779Y7213281D01*
X10559266Y7214500D01*
X10612612Y7214500D01*
X10612615Y7214500D01*
X10645140Y7224051D01*
X10706295Y7222306D01*
X10743031Y7199068D01*
X10745109Y7196990D01*
X10846173Y7152366D01*
X10870877Y7149500D01*
X11329122Y7149501D01*
X11353827Y7152366D01*
X11454891Y7196990D01*
X11533010Y7275109D01*
X11577634Y7376173D01*
X11580500Y7400877D01*
X11580499Y7759122D01*
X11577634Y7783827D01*
X11533010Y7884891D01*
X11454891Y7963010D01*
X11372392Y7999437D01*
X11326799Y8040236D01*
X11313893Y8100045D01*
X11338607Y8156017D01*
X11372390Y8180563D01*
X11454891Y8216990D01*
X11516592Y8278692D01*
X11571106Y8306468D01*
X11631538Y8296897D01*
X11674803Y8253633D01*
X11677159Y8248673D01*
X11677794Y8247235D01*
X11757235Y8167794D01*
X11860009Y8122415D01*
X11885135Y8119500D01*
X12314864Y8119501D01*
X12339991Y8122415D01*
X12442765Y8167794D01*
X12522206Y8247235D01*
X12567585Y8350009D01*
X12570500Y8375135D01*
X12570499Y8692594D01*
X12589406Y8750783D01*
X12638906Y8786747D01*
X12700091Y8786748D01*
X12726455Y8770593D01*
X12727540Y8772175D01*
X12735107Y8766992D01*
X12735109Y8766990D01*
X12836173Y8722366D01*
X12860877Y8719500D01*
X13219122Y8719501D01*
X13243827Y8722366D01*
X13344891Y8766990D01*
X13423010Y8845109D01*
X13459436Y8927609D01*
X13500234Y8973201D01*
X13560043Y8986107D01*
X13616015Y8961394D01*
X13640563Y8927607D01*
X13672534Y8855201D01*
X13676990Y8845109D01*
X13755109Y8766990D01*
X13762690Y8763643D01*
X13808286Y8722845D01*
X13821193Y8663036D01*
X13797524Y8608248D01*
X13779868Y8587872D01*
X13779867Y8587871D01*
X13779867Y8587870D01*
X13773991Y8575003D01*
X13727843Y8473954D01*
X13727842Y8473952D01*
X13710022Y8350003D01*
X13710022Y8349998D01*
X13727842Y8226049D01*
X13727843Y8226047D01*
X13727843Y8226046D01*
X13727844Y8226044D01*
X13779867Y8112130D01*
X13800769Y8088008D01*
X13861875Y8017488D01*
X13861875Y8017487D01*
X13965131Y7951129D01*
X13967227Y7949782D01*
X14087385Y7914500D01*
X14087386Y7914500D01*
X14212614Y7914500D01*
X14212615Y7914500D01*
X14332773Y7949782D01*
X14332775Y7949784D01*
X14334367Y7950510D01*
X14335820Y7950677D01*
X14339567Y7951777D01*
X14339757Y7951129D01*
X14395152Y7957490D01*
X14448432Y7927407D01*
X14473854Y7871753D01*
X14474500Y7860460D01*
X14474500Y6455534D01*
X14455593Y6397343D01*
X14406093Y6361379D01*
X14347609Y6360544D01*
X14262618Y6385500D01*
X14262615Y6385500D01*
X14137385Y6385500D01*
X14137383Y6385500D01*
X14017225Y6350218D01*
X13911875Y6282514D01*
X13911875Y6282513D01*
X13829868Y6187872D01*
X13829867Y6187871D01*
X13829867Y6187870D01*
X13814953Y6155214D01*
X13777843Y6073954D01*
X13777842Y6073952D01*
X13760022Y5950003D01*
X13760022Y5949998D01*
X13777842Y5826049D01*
X13777843Y5826047D01*
X13777843Y5826046D01*
X13777844Y5826044D01*
X13829867Y5712130D01*
X13829868Y5712129D01*
X13911875Y5617488D01*
X13911875Y5617487D01*
X14010217Y5554287D01*
X14017227Y5549782D01*
X14137385Y5514500D01*
X14137386Y5514500D01*
X14262614Y5514500D01*
X14262615Y5514500D01*
X14347609Y5539457D01*
X14408768Y5537710D01*
X14457221Y5500348D01*
X14474500Y5444467D01*
X14474500Y5227097D01*
X14474025Y5220253D01*
X14472339Y5208169D01*
X14474447Y5162603D01*
X14474500Y5160316D01*
X14474500Y5141585D01*
X14475088Y5138438D01*
X14475879Y5131622D01*
X14477269Y5101547D01*
X14477269Y5101545D01*
X14477270Y5101543D01*
X14480810Y5093525D01*
X14487557Y5071738D01*
X14489168Y5063117D01*
X14489169Y5063115D01*
X14505016Y5037524D01*
X14508217Y5031452D01*
X14520382Y5003901D01*
X14520383Y5003899D01*
X14526584Y4997698D01*
X14540748Y4979815D01*
X14545359Y4972368D01*
X14548922Y4966613D01*
X14563477Y4907184D01*
X14540321Y4850550D01*
X14488299Y4818342D01*
X14464748Y4815500D01*
X7999000Y4815500D01*
X7973112Y4813463D01*
X7962914Y4811848D01*
X7942517Y4808618D01*
X7871129Y4779049D01*
X7821627Y4743083D01*
X7821628Y4743083D01*
X7803305Y4727624D01*
X7803299Y4727618D01*
X7761508Y4660336D01*
X7761505Y4660329D01*
X7742599Y4602145D01*
X7734500Y4551005D01*
X7734500Y4360067D01*
X7728226Y4331222D01*
X7729838Y4330748D01*
X7727843Y4323955D01*
X7710022Y4200003D01*
X7710022Y4199998D01*
X7727843Y4076045D01*
X7729838Y4069251D01*
X7728223Y4068777D01*
X7734500Y4039933D01*
X7734500Y3414500D01*
X7715593Y3356309D01*
X7666093Y3320345D01*
X7635500Y3315500D01*
X5399000Y3315500D01*
X5373112Y3313463D01*
X5362914Y3311848D01*
X5342517Y3308618D01*
X5271129Y3279049D01*
X5221627Y3243083D01*
X5221628Y3243083D01*
X5203303Y3227623D01*
X5161506Y3160330D01*
X5142599Y3102143D01*
X5134500Y3051004D01*
X5134500Y2249006D01*
X5136537Y2223113D01*
X5141382Y2192518D01*
X5170951Y2121130D01*
X5206917Y2071627D01*
X5206917Y2071628D01*
X5222378Y2053303D01*
X5289668Y2011507D01*
X5328462Y1998903D01*
X5347858Y1992600D01*
X5347856Y1992600D01*
X5398997Y1984500D01*
X5399000Y1984500D01*
X16785500Y1984500D01*
X16843691Y1965593D01*
X16879655Y1916093D01*
X16884500Y1885500D01*
X16884500Y299500D01*
X16865593Y241309D01*
X16816093Y205345D01*
X16785500Y200500D01*
X2187620Y200500D01*
X2184383Y200606D01*
X2164196Y201930D01*
X1930083Y217274D01*
X1923657Y218120D01*
X1675298Y267522D01*
X1669038Y269199D01*
X1429256Y350594D01*
X1423273Y353072D01*
X1196164Y465070D01*
X1190551Y468311D01*
X980001Y608995D01*
X974859Y612941D01*
X784480Y779898D01*
X779897Y784481D01*
X612940Y974860D01*
X608994Y980002D01*
X605320Y985500D01*
X468310Y1190552D01*
X465069Y1196165D01*
X353067Y1423282D01*
X350593Y1429257D01*
X335163Y1474711D01*
X269197Y1669042D01*
X267521Y1675299D01*
X218119Y1923658D01*
X217273Y1930084D01*
X211936Y2011507D01*
X200606Y2184383D01*
X200553Y2186000D01*
X980357Y2186000D01*
X1000885Y1964464D01*
X1061771Y1750472D01*
X1160942Y1551311D01*
X1295019Y1373764D01*
X1459438Y1223876D01*
X1648599Y1106753D01*
X1856060Y1026382D01*
X2074757Y985500D01*
X2297243Y985500D01*
X2515940Y1026382D01*
X2723401Y1106753D01*
X2912562Y1223876D01*
X3076981Y1373764D01*
X3211058Y1551311D01*
X3310229Y1750472D01*
X3371115Y1964464D01*
X3391643Y2186000D01*
X3371115Y2407536D01*
X3310229Y2621528D01*
X3211058Y2820689D01*
X3076981Y2998236D01*
X2912562Y3148124D01*
X2723401Y3265247D01*
X2515940Y3345618D01*
X2515939Y3345619D01*
X2515937Y3345619D01*
X2297243Y3386500D01*
X2074757Y3386500D01*
X1856062Y3345619D01*
X1790823Y3320345D01*
X1648599Y3265247D01*
X1459437Y3148125D01*
X1459438Y3148124D01*
X1295020Y2998237D01*
X1160943Y2820691D01*
X1160938Y2820682D01*
X1061772Y2621531D01*
X1000885Y2407536D01*
X984053Y2225882D01*
X980357Y2186000D01*
X200553Y2186000D01*
X200500Y2187621D01*
X200500Y18643872D01*
X219407Y18702063D01*
X268907Y18738027D01*
X330093Y18738027D01*
X342981Y18732812D01*
X384033Y18712743D01*
X384037Y18712742D01*
X384040Y18712740D01*
X457757Y18702000D01*
X1042242Y18702001D01*
X1115960Y18712740D01*
X1229671Y18768330D01*
X1253787Y18792447D01*
X1308301Y18820224D01*
X1368734Y18810653D01*
G37*
%TD.AperFunction*%
%TA.AperFunction,Conductor*%
G36*
X2766329Y8829784D02*
G01*
X2769392Y8826850D01*
X2943504Y8652738D01*
X2971281Y8598221D01*
X2972500Y8582734D01*
X2972500Y8439186D01*
X2981812Y8392376D01*
X2984910Y8384898D01*
X2989709Y8323902D01*
X2968265Y8282185D01*
X2929868Y8237872D01*
X2929867Y8237871D01*
X2929867Y8237870D01*
X2914320Y8203827D01*
X2877843Y8123954D01*
X2877842Y8123952D01*
X2860022Y8000003D01*
X2860022Y7999998D01*
X2877842Y7876049D01*
X2877843Y7876047D01*
X2877843Y7876046D01*
X2877844Y7876044D01*
X2929867Y7762130D01*
X2932476Y7759119D01*
X3011875Y7667488D01*
X3011875Y7667487D01*
X3117225Y7599783D01*
X3117227Y7599782D01*
X3237385Y7564500D01*
X3237386Y7564500D01*
X3362614Y7564500D01*
X3362615Y7564500D01*
X3482773Y7599782D01*
X3588124Y7667487D01*
X3599253Y7680332D01*
X3651649Y7711927D01*
X3674072Y7714500D01*
X5039766Y7714500D01*
X5097957Y7695593D01*
X5130329Y7655491D01*
X5156990Y7595109D01*
X5235109Y7516990D01*
X5336173Y7472366D01*
X5360877Y7469500D01*
X5719122Y7469501D01*
X5743827Y7472366D01*
X5844891Y7516990D01*
X5923010Y7595109D01*
X5959436Y7677609D01*
X6000234Y7723201D01*
X6060043Y7736107D01*
X6116015Y7711394D01*
X6140563Y7677607D01*
X6174926Y7599783D01*
X6176990Y7595109D01*
X6227097Y7545002D01*
X6254873Y7490487D01*
X6245302Y7430055D01*
X6227098Y7405000D01*
X6198275Y7376176D01*
X6176990Y7354891D01*
X6132365Y7253825D01*
X6129500Y7229128D01*
X6129500Y6770882D01*
X6129501Y6770876D01*
X6132397Y6745903D01*
X6120318Y6685922D01*
X6075290Y6644496D01*
X6034056Y6635500D01*
X4815231Y6635500D01*
X4778081Y6646069D01*
X4777136Y6643628D01*
X4760410Y6650109D01*
X4740236Y6660742D01*
X4739380Y6661329D01*
X4733002Y6665697D01*
X4733001Y6665698D01*
X4733000Y6665698D01*
X4703689Y6672593D01*
X4697135Y6674622D01*
X4669058Y6685499D01*
X4669055Y6685500D01*
X4669054Y6685500D01*
X4669052Y6685500D01*
X4660290Y6685500D01*
X4637623Y6688130D01*
X4629098Y6690135D01*
X4599275Y6685975D01*
X4592429Y6685500D01*
X4307998Y6685500D01*
X4249807Y6704407D01*
X4213843Y6753907D01*
X4211311Y6796834D01*
X4210023Y6796960D01*
X4210500Y6801806D01*
X4210500Y6998195D01*
X4210498Y6998207D01*
X4200022Y7050869D01*
X4196836Y7066888D01*
X4144786Y7144786D01*
X4129929Y7154713D01*
X4066890Y7196835D01*
X4066885Y7196837D01*
X3998206Y7210499D01*
X3998196Y7210500D01*
X1118579Y7210500D01*
X1060388Y7229407D01*
X1048583Y7239490D01*
X1014494Y7273579D01*
X986719Y7328094D01*
X985500Y7343580D01*
X985500Y7840735D01*
X1004407Y7898926D01*
X1014490Y7910733D01*
X1739262Y8635505D01*
X1793779Y8663281D01*
X1809266Y8664500D01*
X1825928Y8664500D01*
X1884119Y8645593D01*
X1900745Y8630333D01*
X1911876Y8617487D01*
X1911878Y8617486D01*
X1911880Y8617484D01*
X2017225Y8549783D01*
X2017227Y8549782D01*
X2137385Y8514500D01*
X2137386Y8514500D01*
X2262614Y8514500D01*
X2262615Y8514500D01*
X2382773Y8549782D01*
X2488124Y8617487D01*
X2570133Y8712130D01*
X2609336Y8797975D01*
X2650705Y8843049D01*
X2710672Y8855201D01*
X2766329Y8829784D01*
G37*
%TD.AperFunction*%
%TA.AperFunction,Conductor*%
G36*
X5473352Y9595593D02*
G01*
X5497474Y9570504D01*
X5526726Y9526726D01*
X5600490Y9477438D01*
X5665535Y9464500D01*
X5834464Y9464501D01*
X5834468Y9464502D01*
X5834470Y9464502D01*
X5867512Y9471074D01*
X5899510Y9477438D01*
X5944999Y9507834D01*
X6003883Y9524442D01*
X6055001Y9507833D01*
X6059150Y9505061D01*
X6100490Y9477438D01*
X6145685Y9468449D01*
X6199068Y9438554D01*
X6224686Y9382989D01*
X6212750Y9322979D01*
X6196376Y9301348D01*
X6137795Y9242767D01*
X6137794Y9242766D01*
X6137794Y9242765D01*
X6128110Y9220833D01*
X6092414Y9139989D01*
X6089500Y9114870D01*
X6089500Y8685140D01*
X6089501Y8685137D01*
X6092414Y8660010D01*
X6119697Y8598221D01*
X6137794Y8557235D01*
X6213561Y8481468D01*
X6241338Y8426954D01*
X6231767Y8366521D01*
X6213561Y8341463D01*
X6176991Y8304893D01*
X6176990Y8304892D01*
X6176990Y8304891D01*
X6143827Y8229782D01*
X6140565Y8222395D01*
X6099764Y8176799D01*
X6039955Y8163894D01*
X5983983Y8188608D01*
X5959435Y8222395D01*
X5957824Y8226044D01*
X5923010Y8304891D01*
X5844891Y8383010D01*
X5743827Y8427634D01*
X5743826Y8427635D01*
X5743824Y8427635D01*
X5719125Y8430500D01*
X5360881Y8430500D01*
X5360878Y8430499D01*
X5336173Y8427634D01*
X5235109Y8383010D01*
X5166593Y8314495D01*
X5112079Y8286719D01*
X5096592Y8285500D01*
X3768560Y8285500D01*
X3710369Y8304407D01*
X3674405Y8353907D01*
X3671463Y8403815D01*
X3678498Y8439184D01*
X3678500Y8439196D01*
X3678500Y9160805D01*
X3678499Y9160815D01*
X3669187Y9207623D01*
X3669186Y9207626D01*
X3628808Y9268057D01*
X3612200Y9326946D01*
X3621071Y9364185D01*
X3672156Y9476044D01*
X3672276Y9476880D01*
X3679855Y9529589D01*
X3706851Y9584496D01*
X3760965Y9613050D01*
X3777847Y9614500D01*
X5415161Y9614500D01*
X5473352Y9595593D01*
G37*
%TD.AperFunction*%
%TA.AperFunction,Conductor*%
G36*
X9407289Y10520593D02*
G01*
X9419102Y10510504D01*
X9435504Y10494102D01*
X9463281Y10439585D01*
X9464500Y10424098D01*
X9464500Y9665540D01*
X9464501Y9665530D01*
X9477437Y9600492D01*
X9477438Y9600489D01*
X9520863Y9535500D01*
X9526726Y9526726D01*
X9600490Y9477438D01*
X9646695Y9468248D01*
X9700079Y9438353D01*
X9725696Y9382788D01*
X9713760Y9322778D01*
X9697386Y9301146D01*
X9456477Y9060237D01*
X9414368Y9035252D01*
X9397226Y9030219D01*
X9294163Y8963984D01*
X9234988Y8948429D01*
X9177971Y8970628D01*
X9170646Y8977255D01*
X9114891Y9033010D01*
X9013827Y9077634D01*
X9013826Y9077635D01*
X9013824Y9077635D01*
X8989127Y9080500D01*
X8989123Y9080500D01*
X8913265Y9080500D01*
X8855074Y9099407D01*
X8819110Y9148907D01*
X8819110Y9210093D01*
X8843259Y9249501D01*
X8860129Y9266372D01*
X8865312Y9270882D01*
X8875026Y9278218D01*
X8875032Y9278220D01*
X8905774Y9311944D01*
X8907328Y9313572D01*
X8920585Y9326827D01*
X8922400Y9329478D01*
X8926639Y9334832D01*
X8946941Y9357100D01*
X8950108Y9365277D01*
X8960746Y9385457D01*
X8965698Y9392684D01*
X8972592Y9422002D01*
X8974619Y9428547D01*
X8985500Y9456631D01*
X8985500Y9465396D01*
X8988129Y9488060D01*
X8990135Y9496587D01*
X8988952Y9505061D01*
X8999638Y9565306D01*
X9004676Y9573723D01*
X9022562Y9600490D01*
X9035500Y9665535D01*
X9035499Y10017892D01*
X9038130Y10040562D01*
X9040135Y10049086D01*
X9035974Y10078917D01*
X9035499Y10085763D01*
X9035499Y10426091D01*
X9054406Y10484282D01*
X9064498Y10496097D01*
X9078908Y10510506D01*
X9133425Y10538282D01*
X9148909Y10539500D01*
X9349098Y10539500D01*
X9407289Y10520593D01*
G37*
%TD.AperFunction*%
%TA.AperFunction,Conductor*%
G36*
X4410444Y11278733D02*
G01*
X4453709Y11235469D01*
X4464500Y11190526D01*
X4464500Y11165542D01*
X4464501Y11165530D01*
X4477437Y11100492D01*
X4477438Y11100489D01*
X4507832Y11055002D01*
X4524441Y10996114D01*
X4507833Y10944999D01*
X4477436Y10899509D01*
X4475264Y10894263D01*
X4437329Y10848872D01*
X4411874Y10832512D01*
X4329868Y10737872D01*
X4329867Y10737871D01*
X4329867Y10737870D01*
X4316793Y10709242D01*
X4277843Y10623954D01*
X4277842Y10623952D01*
X4260022Y10500003D01*
X4260022Y10499998D01*
X4277842Y10376049D01*
X4277844Y10376044D01*
X4300869Y10325627D01*
X4307844Y10264840D01*
X4277758Y10211563D01*
X4222102Y10186145D01*
X4210816Y10185500D01*
X3609041Y10185500D01*
X3602193Y10185975D01*
X3590124Y10187660D01*
X3551632Y10185880D01*
X3544565Y10185553D01*
X3542289Y10185500D01*
X3523546Y10185500D01*
X3523532Y10185499D01*
X3520380Y10184910D01*
X3513575Y10184121D01*
X3483500Y10182730D01*
X3475482Y10179190D01*
X3453698Y10172444D01*
X3445079Y10170833D01*
X3445076Y10170832D01*
X3419474Y10154980D01*
X3413406Y10151781D01*
X3385862Y10139619D01*
X3385855Y10139615D01*
X3379660Y10133419D01*
X3361781Y10119257D01*
X3354327Y10114642D01*
X3336180Y10090612D01*
X3331677Y10085437D01*
X3310739Y10064498D01*
X3256224Y10036719D01*
X3240734Y10035500D01*
X3187381Y10035500D01*
X3087391Y10006140D01*
X3026231Y10007888D01*
X2977778Y10045250D01*
X2960500Y10101130D01*
X2960500Y10883466D01*
X2979407Y10941657D01*
X3028907Y10977621D01*
X3090093Y10977621D01*
X3113019Y10966753D01*
X3217227Y10899782D01*
X3337385Y10864500D01*
X3337386Y10864500D01*
X3462614Y10864500D01*
X3462615Y10864500D01*
X3582773Y10899782D01*
X3688124Y10967487D01*
X3770133Y11062130D01*
X3785800Y11096439D01*
X3805857Y11125323D01*
X3811046Y11130511D01*
X3865565Y11158284D01*
X3881043Y11159501D01*
X4114861Y11159501D01*
X4114864Y11159501D01*
X4139991Y11162415D01*
X4242765Y11207794D01*
X4295498Y11260528D01*
X4350012Y11288304D01*
X4410444Y11278733D01*
G37*
%TD.AperFunction*%
%TA.AperFunction,Conductor*%
G36*
X16543691Y26780593D02*
G01*
X16579655Y26731093D01*
X16584500Y26700500D01*
X16584500Y25514500D01*
X16565593Y25456309D01*
X16516093Y25420345D01*
X16485500Y25415500D01*
X15947748Y25415500D01*
X15924208Y25413817D01*
X15924209Y25413817D01*
X15910257Y25411812D01*
X15896312Y25409807D01*
X15896310Y25409807D01*
X15896306Y25409806D01*
X15896304Y25409806D01*
X15880924Y25406461D01*
X15873234Y25404788D01*
X15873236Y25404789D01*
X15802476Y25384011D01*
X15774583Y25380000D01*
X15725418Y25380000D01*
X15697526Y25384010D01*
X15626763Y25404789D01*
X15626764Y25404788D01*
X15603692Y25409806D01*
X15603690Y25409807D01*
X15603687Y25409807D01*
X15578253Y25413463D01*
X15575791Y25413817D01*
X15575792Y25413817D01*
X15552252Y25415500D01*
X15552250Y25415500D01*
X13947750Y25415500D01*
X13947748Y25415500D01*
X13924208Y25413817D01*
X13924209Y25413817D01*
X13910257Y25411812D01*
X13896312Y25409807D01*
X13896310Y25409807D01*
X13896306Y25409806D01*
X13896304Y25409806D01*
X13880924Y25406461D01*
X13873234Y25404788D01*
X13873236Y25404789D01*
X13802476Y25384011D01*
X13774583Y25380000D01*
X13725418Y25380000D01*
X13697526Y25384010D01*
X13626763Y25404789D01*
X13626764Y25404788D01*
X13603692Y25409806D01*
X13603690Y25409807D01*
X13603687Y25409807D01*
X13578253Y25413463D01*
X13575791Y25413817D01*
X13575792Y25413817D01*
X13552252Y25415500D01*
X13552250Y25415500D01*
X11997750Y25415500D01*
X11997748Y25415500D01*
X11974208Y25413817D01*
X11974209Y25413817D01*
X11960257Y25411812D01*
X11946312Y25409807D01*
X11946310Y25409807D01*
X11946306Y25409806D01*
X11946304Y25409806D01*
X11930924Y25406461D01*
X11923234Y25404788D01*
X11923236Y25404789D01*
X11852476Y25384011D01*
X11824583Y25380000D01*
X11775418Y25380000D01*
X11747526Y25384010D01*
X11676763Y25404789D01*
X11676764Y25404788D01*
X11653692Y25409806D01*
X11653690Y25409807D01*
X11653687Y25409807D01*
X11628253Y25413463D01*
X11625791Y25413817D01*
X11625792Y25413817D01*
X11602252Y25415500D01*
X11602250Y25415500D01*
X9997750Y25415500D01*
X9997748Y25415500D01*
X9974208Y25413817D01*
X9974209Y25413817D01*
X9960257Y25411812D01*
X9946312Y25409807D01*
X9946310Y25409807D01*
X9946306Y25409806D01*
X9946304Y25409806D01*
X9930924Y25406461D01*
X9923234Y25404788D01*
X9923236Y25404789D01*
X9852476Y25384011D01*
X9824583Y25380000D01*
X9775418Y25380000D01*
X9747526Y25384010D01*
X9676763Y25404789D01*
X9676764Y25404788D01*
X9653692Y25409806D01*
X9653690Y25409807D01*
X9653687Y25409807D01*
X9628253Y25413463D01*
X9625791Y25413817D01*
X9625792Y25413817D01*
X9602252Y25415500D01*
X9602250Y25415500D01*
X8047750Y25415500D01*
X8047748Y25415500D01*
X8024208Y25413817D01*
X8024209Y25413817D01*
X8010257Y25411812D01*
X7996312Y25409807D01*
X7996310Y25409807D01*
X7996306Y25409806D01*
X7996304Y25409806D01*
X7980924Y25406461D01*
X7973234Y25404788D01*
X7973236Y25404789D01*
X7902476Y25384011D01*
X7874583Y25380000D01*
X7825418Y25380000D01*
X7797526Y25384010D01*
X7726763Y25404789D01*
X7726764Y25404788D01*
X7703692Y25409806D01*
X7703690Y25409807D01*
X7703687Y25409807D01*
X7678253Y25413463D01*
X7675791Y25413817D01*
X7675792Y25413817D01*
X7652252Y25415500D01*
X7652250Y25415500D01*
X6047750Y25415500D01*
X6047748Y25415500D01*
X6024208Y25413817D01*
X6024209Y25413817D01*
X6010257Y25411812D01*
X5996312Y25409807D01*
X5996310Y25409807D01*
X5996306Y25409806D01*
X5996304Y25409806D01*
X5980924Y25406461D01*
X5973234Y25404788D01*
X5973236Y25404789D01*
X5902476Y25384011D01*
X5874583Y25380000D01*
X5825418Y25380000D01*
X5797526Y25384010D01*
X5726763Y25404789D01*
X5726764Y25404788D01*
X5703692Y25409806D01*
X5703690Y25409807D01*
X5703687Y25409807D01*
X5678253Y25413463D01*
X5675791Y25413817D01*
X5675792Y25413817D01*
X5652252Y25415500D01*
X5652250Y25415500D01*
X5249000Y25415500D01*
X5223112Y25413463D01*
X5212914Y25411848D01*
X5192517Y25408618D01*
X5121129Y25379049D01*
X5071627Y25343083D01*
X5071628Y25343083D01*
X5053303Y25327623D01*
X5011506Y25260330D01*
X4992599Y25202143D01*
X4984500Y25151004D01*
X4984500Y25151001D01*
X4984500Y25151000D01*
X4984500Y22449000D01*
X4984759Y22445714D01*
X4986537Y22423113D01*
X4991382Y22392518D01*
X5020951Y22321130D01*
X5056917Y22271627D01*
X5056917Y22271628D01*
X5072378Y22253303D01*
X5139668Y22211507D01*
X5178462Y22198903D01*
X5197858Y22192600D01*
X5197856Y22192600D01*
X5248997Y22184500D01*
X11001000Y22184500D01*
X11059191Y22165593D01*
X11095155Y22116093D01*
X11100000Y22085501D01*
X11100000Y22050000D01*
X12454555Y22050000D01*
X12512746Y22031093D01*
X12533798Y22008802D01*
X12533858Y22008853D01*
X12535070Y22007455D01*
X12537842Y22004519D01*
X12538497Y22003499D01*
X12616421Y21913570D01*
X12640239Y21857211D01*
X12626380Y21797616D01*
X12616421Y21783908D01*
X12554868Y21712873D01*
X12502843Y21598954D01*
X12502842Y21598952D01*
X12485022Y21475003D01*
X12485022Y21474998D01*
X12502842Y21351049D01*
X12502843Y21351047D01*
X12502843Y21351046D01*
X12502844Y21351044D01*
X12554867Y21237130D01*
X12554868Y21237129D01*
X12636875Y21142488D01*
X12636875Y21142487D01*
X12709656Y21095714D01*
X12742227Y21074782D01*
X12862385Y21039500D01*
X12862386Y21039500D01*
X12987614Y21039500D01*
X12987615Y21039500D01*
X13107773Y21074782D01*
X13213124Y21142487D01*
X13295133Y21237130D01*
X13347156Y21351044D01*
X13347157Y21351049D01*
X13364978Y21474998D01*
X13364978Y21475003D01*
X13347157Y21598952D01*
X13347156Y21598954D01*
X13347156Y21598956D01*
X13295133Y21712870D01*
X13262959Y21750001D01*
X13217206Y21802803D01*
X13193388Y21859162D01*
X13207246Y21918757D01*
X13217197Y21932455D01*
X13278761Y22003502D01*
X13278765Y22003511D01*
X13279414Y22004519D01*
X13280195Y22005158D01*
X13283398Y22008854D01*
X13284037Y22008300D01*
X13326778Y22043253D01*
X13362701Y22050000D01*
X14751000Y22050000D01*
X14809191Y22031093D01*
X14845155Y21981593D01*
X14850000Y21951000D01*
X14850000Y18684500D01*
X14831093Y18626309D01*
X14781593Y18590345D01*
X14751000Y18585500D01*
X14736719Y18585500D01*
X14736705Y18585499D01*
X14733553Y18584910D01*
X14726748Y18584121D01*
X14696673Y18582730D01*
X14688655Y18579190D01*
X14666871Y18572444D01*
X14658255Y18570833D01*
X14658249Y18570831D01*
X14632645Y18554979D01*
X14626578Y18551781D01*
X14599031Y18539617D01*
X14599030Y18539617D01*
X14592833Y18533419D01*
X14574954Y18519257D01*
X14567500Y18514642D01*
X14549356Y18490615D01*
X14544852Y18485439D01*
X13838911Y17779497D01*
X13784394Y17751719D01*
X13768907Y17750500D01*
X13237649Y17750500D01*
X13179458Y17769407D01*
X13143494Y17818907D01*
X13143494Y17880093D01*
X13179458Y17929593D01*
X13184125Y17932784D01*
X13238124Y17967487D01*
X13320133Y18062130D01*
X13372156Y18176044D01*
X13372276Y18176879D01*
X13389978Y18299998D01*
X13389978Y18300003D01*
X13372157Y18423952D01*
X13372156Y18423954D01*
X13372156Y18423956D01*
X13320133Y18537870D01*
X13238124Y18632513D01*
X13238124Y18632514D01*
X13132774Y18700218D01*
X13012616Y18735500D01*
X13012615Y18735500D01*
X12887385Y18735500D01*
X12887383Y18735500D01*
X12767225Y18700218D01*
X12661875Y18632514D01*
X12661875Y18632513D01*
X12579868Y18537872D01*
X12527843Y18423954D01*
X12527842Y18423952D01*
X12510022Y18300003D01*
X12510022Y18299998D01*
X12527842Y18176049D01*
X12527843Y18176047D01*
X12527843Y18176046D01*
X12527844Y18176044D01*
X12579867Y18062130D01*
X12579868Y18062129D01*
X12661875Y17967488D01*
X12661875Y17967487D01*
X12744325Y17914500D01*
X12767227Y17899782D01*
X12839103Y17878677D01*
X12840704Y17878207D01*
X12891211Y17843671D01*
X12911772Y17786044D01*
X12894534Y17727337D01*
X12879024Y17711815D01*
X12879736Y17711103D01*
X12867051Y17698419D01*
X12849172Y17684257D01*
X12841718Y17679642D01*
X12823574Y17655615D01*
X12819069Y17650439D01*
X11777367Y16608737D01*
X11772191Y16604232D01*
X11762468Y16596890D01*
X11735950Y16567802D01*
X11682774Y16537538D01*
X11662790Y16535500D01*
X11634500Y16535500D01*
X11576309Y16554407D01*
X11540345Y16603907D01*
X11535500Y16634500D01*
X11535500Y17363957D01*
X11535975Y17370804D01*
X11537659Y17382879D01*
X11537660Y17382881D01*
X11535552Y17428464D01*
X11535500Y17430744D01*
X11535500Y17449459D01*
X11535499Y17449465D01*
X11534913Y17452599D01*
X11534121Y17459415D01*
X11532731Y17489505D01*
X11529189Y17497527D01*
X11522440Y17519325D01*
X11522158Y17520832D01*
X11520832Y17527929D01*
X11507166Y17550000D01*
X11504980Y17553530D01*
X11501779Y17559603D01*
X11495874Y17572977D01*
X11489617Y17587149D01*
X11489616Y17587150D01*
X11489616Y17587151D01*
X11483417Y17593350D01*
X11469251Y17611235D01*
X11464641Y17618680D01*
X11440614Y17636825D01*
X11435437Y17641330D01*
X11091636Y17985131D01*
X11087130Y17990309D01*
X11079788Y18000032D01*
X11046081Y18030760D01*
X11044429Y18032338D01*
X11031183Y18045583D01*
X11031175Y18045590D01*
X11028528Y18047404D01*
X11023158Y18051658D01*
X11011670Y18062130D01*
X11000908Y18071941D01*
X11000904Y18071943D01*
X11000902Y18071944D01*
X10992733Y18075109D01*
X10972559Y18085742D01*
X10971703Y18086329D01*
X10965325Y18090697D01*
X10965324Y18090698D01*
X10965323Y18090698D01*
X10936012Y18097593D01*
X10929458Y18099622D01*
X10901381Y18110499D01*
X10901378Y18110500D01*
X10901377Y18110500D01*
X10901375Y18110500D01*
X10892613Y18110500D01*
X10869946Y18113130D01*
X10861421Y18115135D01*
X10831598Y18110975D01*
X10824752Y18110500D01*
X10674072Y18110500D01*
X10615881Y18129407D01*
X10599253Y18144669D01*
X10588124Y18157513D01*
X10588121Y18157515D01*
X10588119Y18157517D01*
X10482774Y18225218D01*
X10362616Y18260500D01*
X10362615Y18260500D01*
X10237385Y18260500D01*
X10237383Y18260500D01*
X10117225Y18225218D01*
X10042009Y18176879D01*
X9982834Y18161324D01*
X9925818Y18183523D01*
X9913667Y18195332D01*
X9901389Y18209501D01*
X9838124Y18282513D01*
X9838124Y18282514D01*
X9732774Y18350218D01*
X9612616Y18385500D01*
X9612615Y18385500D01*
X9487385Y18385500D01*
X9487383Y18385500D01*
X9367225Y18350218D01*
X9261875Y18282514D01*
X9261875Y18282513D01*
X9179868Y18187872D01*
X9127843Y18073954D01*
X9127842Y18073952D01*
X9110022Y17950003D01*
X9110022Y17949998D01*
X9127842Y17826049D01*
X9127843Y17826047D01*
X9127843Y17826046D01*
X9127844Y17826044D01*
X9178785Y17714500D01*
X9179868Y17712128D01*
X9196786Y17692604D01*
X9220604Y17636245D01*
X9206746Y17576650D01*
X9160505Y17536582D01*
X9141279Y17530675D01*
X9100491Y17522563D01*
X9100488Y17522562D01*
X9026729Y17473277D01*
X9026723Y17473271D01*
X8977437Y17399511D01*
X8964500Y17334468D01*
X8964500Y16447230D01*
X8964025Y16440386D01*
X8962339Y16428302D01*
X8964447Y16382736D01*
X8964500Y16380449D01*
X8964500Y16361718D01*
X8965088Y16358571D01*
X8965879Y16351755D01*
X8967269Y16321680D01*
X8967269Y16321678D01*
X8967270Y16321676D01*
X8970810Y16313658D01*
X8977557Y16291871D01*
X8979168Y16283250D01*
X8979169Y16283248D01*
X8995016Y16257657D01*
X8998217Y16251585D01*
X9010383Y16224032D01*
X9016584Y16217831D01*
X9030746Y16199951D01*
X9033011Y16196293D01*
X9035359Y16192501D01*
X9059380Y16174361D01*
X9064559Y16169855D01*
X9084011Y16150404D01*
X9111788Y16095887D01*
X9113007Y16080400D01*
X9113007Y15710551D01*
X9112532Y15703709D01*
X9110847Y15691624D01*
X9112955Y15646055D01*
X9113008Y15643768D01*
X9113008Y15625037D01*
X9113596Y15621890D01*
X9114386Y15615076D01*
X9114489Y15612870D01*
X9115777Y15584999D01*
X9115777Y15584997D01*
X9115778Y15584995D01*
X9119318Y15576977D01*
X9126064Y15555193D01*
X9126287Y15554000D01*
X9127676Y15546569D01*
X9127677Y15546567D01*
X9143524Y15520976D01*
X9146725Y15514904D01*
X9155022Y15496114D01*
X9158891Y15487351D01*
X9165092Y15481150D01*
X9179254Y15463270D01*
X9183867Y15455820D01*
X9183868Y15455819D01*
X9184889Y15454699D01*
X9185939Y15452474D01*
X9188698Y15448018D01*
X9188190Y15447704D01*
X9209721Y15402090D01*
X9227842Y15276049D01*
X9227843Y15276047D01*
X9227843Y15276046D01*
X9227844Y15276044D01*
X9279867Y15162130D01*
X9279868Y15162129D01*
X9361875Y15067488D01*
X9361875Y15067487D01*
X9467225Y14999783D01*
X9467227Y14999782D01*
X9587385Y14964500D01*
X9587386Y14964500D01*
X9712614Y14964500D01*
X9712615Y14964500D01*
X9832773Y14999782D01*
X9938124Y15067487D01*
X9951848Y15083326D01*
X10004242Y15114923D01*
X10065203Y15109688D01*
X10101486Y15083329D01*
X10115212Y15067488D01*
X10136877Y15042486D01*
X10226299Y14985018D01*
X10242227Y14974782D01*
X10362385Y14939500D01*
X10362386Y14939500D01*
X10487614Y14939500D01*
X10487615Y14939500D01*
X10607773Y14974782D01*
X10713124Y15042487D01*
X10795133Y15137130D01*
X10847156Y15251044D01*
X10850028Y15271016D01*
X10865986Y15382008D01*
X10868684Y15381621D01*
X10883885Y15428404D01*
X10893972Y15440214D01*
X10910129Y15456372D01*
X10915312Y15460882D01*
X10925026Y15468218D01*
X10925032Y15468220D01*
X10955774Y15501944D01*
X10957328Y15503572D01*
X10970585Y15516827D01*
X10972400Y15519478D01*
X10976639Y15524832D01*
X10996941Y15547100D01*
X11000107Y15555273D01*
X11010744Y15575453D01*
X11015697Y15582683D01*
X11022593Y15612006D01*
X11024617Y15618541D01*
X11035500Y15646631D01*
X11035500Y15655395D01*
X11038130Y15678064D01*
X11040135Y15686587D01*
X11035975Y15716411D01*
X11035500Y15723258D01*
X11035500Y16244734D01*
X11054407Y16302925D01*
X11103907Y16338889D01*
X11153816Y16341831D01*
X11165535Y16339500D01*
X11240500Y16339501D01*
X11298690Y16320594D01*
X11334654Y16271095D01*
X11339500Y16240502D01*
X11339500Y16165541D01*
X11339501Y16165530D01*
X11352437Y16100492D01*
X11352438Y16100489D01*
X11382832Y16055002D01*
X11399441Y15996114D01*
X11382832Y15944998D01*
X11352437Y15899511D01*
X11352437Y15899510D01*
X11339500Y15834470D01*
X11339500Y15665540D01*
X11339501Y15665530D01*
X11352437Y15600492D01*
X11352438Y15600489D01*
X11382832Y15555002D01*
X11399441Y15496114D01*
X11382832Y15444998D01*
X11352437Y15399511D01*
X11352437Y15399510D01*
X11339500Y15334470D01*
X11339500Y15165540D01*
X11339501Y15165530D01*
X11352437Y15100492D01*
X11352438Y15100489D01*
X11382832Y15055002D01*
X11399441Y14996114D01*
X11382832Y14944998D01*
X11352437Y14899511D01*
X11352437Y14899510D01*
X11339500Y14834470D01*
X11339500Y14665540D01*
X11339501Y14665530D01*
X11352437Y14600492D01*
X11352438Y14600489D01*
X11382832Y14555003D01*
X11399441Y14496116D01*
X11382833Y14445000D01*
X11352437Y14399510D01*
X11339500Y14334470D01*
X11339500Y14165540D01*
X11339501Y14165530D01*
X11352437Y14100492D01*
X11352438Y14100489D01*
X11382832Y14055002D01*
X11399441Y13996114D01*
X11382832Y13944998D01*
X11352437Y13899511D01*
X11352437Y13899510D01*
X11339500Y13834470D01*
X11339500Y13665540D01*
X11339501Y13665530D01*
X11352437Y13600492D01*
X11352438Y13600489D01*
X11382832Y13555002D01*
X11399441Y13496114D01*
X11382832Y13444998D01*
X11352437Y13399511D01*
X11352437Y13399510D01*
X11339500Y13334470D01*
X11339500Y13265542D01*
X11320593Y13207351D01*
X11271093Y13171387D01*
X11209907Y13171387D01*
X11165681Y13200711D01*
X11138124Y13232513D01*
X11138124Y13232514D01*
X11032774Y13300218D01*
X10912616Y13335500D01*
X10912615Y13335500D01*
X10787385Y13335500D01*
X10787383Y13335500D01*
X10667225Y13300218D01*
X10561875Y13232514D01*
X10561875Y13232513D01*
X10479868Y13137872D01*
X10427843Y13023954D01*
X10427842Y13023952D01*
X10409014Y12892992D01*
X10406315Y12893381D01*
X10391115Y12846598D01*
X10381025Y12834785D01*
X10214866Y12668627D01*
X10209691Y12664123D01*
X10199967Y12656781D01*
X10169230Y12623065D01*
X10167654Y12621414D01*
X10154414Y12608173D01*
X10152601Y12605527D01*
X10148345Y12600154D01*
X10128060Y12577904D01*
X10128057Y12577899D01*
X10124890Y12569723D01*
X10114257Y12549550D01*
X10109303Y12542318D01*
X10109302Y12542317D01*
X10102408Y12513008D01*
X10100379Y12506455D01*
X10089500Y12478370D01*
X10089500Y12469605D01*
X10086870Y12446939D01*
X10085967Y12443101D01*
X10084865Y12438414D01*
X10089025Y12408591D01*
X10089500Y12401745D01*
X10089500Y12209267D01*
X10070593Y12151076D01*
X10060504Y12139264D01*
X10010738Y12089497D01*
X9956222Y12061719D01*
X9940734Y12060500D01*
X7884051Y12060500D01*
X7877204Y12060975D01*
X7865123Y12062661D01*
X7823943Y12060756D01*
X7819554Y12060553D01*
X7817274Y12060500D01*
X7798543Y12060500D01*
X7795387Y12059910D01*
X7788578Y12059121D01*
X7758506Y12057731D01*
X7758498Y12057729D01*
X7750482Y12054190D01*
X7728698Y12047444D01*
X7720079Y12045833D01*
X7720076Y12045832D01*
X7694474Y12029980D01*
X7688406Y12026781D01*
X7660862Y12014619D01*
X7660855Y12014615D01*
X7654660Y12008419D01*
X7636781Y11994257D01*
X7629327Y11989642D01*
X7611183Y11965615D01*
X7606678Y11960439D01*
X7204503Y11558263D01*
X7149986Y11530486D01*
X7089554Y11540057D01*
X7046289Y11583322D01*
X7035499Y11628263D01*
X7035499Y14840954D01*
X7035975Y14847803D01*
X7037659Y14859874D01*
X7035553Y14905427D01*
X7035500Y14907714D01*
X7035500Y14926448D01*
X7035500Y14926454D01*
X7034908Y14929619D01*
X7034120Y14936408D01*
X7032730Y14966497D01*
X7029190Y14974514D01*
X7022441Y14996310D01*
X7020832Y15004921D01*
X7004974Y15030531D01*
X7001779Y15036596D01*
X6993967Y15054288D01*
X6989616Y15064142D01*
X6989615Y15064143D01*
X6989614Y15064145D01*
X6983417Y15070342D01*
X6969251Y15088227D01*
X6964641Y15095672D01*
X6940614Y15113817D01*
X6935437Y15118322D01*
X6685242Y15368516D01*
X6657465Y15423033D01*
X6667036Y15483465D01*
X6710301Y15526730D01*
X6727351Y15533509D01*
X6771831Y15546569D01*
X6789568Y15551777D01*
X6790056Y15550114D01*
X6842078Y15556091D01*
X6895360Y15526013D01*
X6912485Y15500190D01*
X6927086Y15468220D01*
X6929868Y15462128D01*
X7011875Y15367488D01*
X7011875Y15367487D01*
X7104388Y15308033D01*
X7117227Y15299782D01*
X7237385Y15264500D01*
X7237386Y15264500D01*
X7362614Y15264500D01*
X7362615Y15264500D01*
X7482773Y15299782D01*
X7588124Y15367487D01*
X7670133Y15462130D01*
X7722156Y15576044D01*
X7723111Y15582684D01*
X7739978Y15699998D01*
X7739978Y15700003D01*
X7722157Y15823952D01*
X7722156Y15823954D01*
X7722156Y15823956D01*
X7670133Y15937870D01*
X7588124Y16032513D01*
X7588121Y16032515D01*
X7588118Y16032518D01*
X7580974Y16037109D01*
X7542244Y16084476D01*
X7535500Y16120391D01*
X7535500Y16540540D01*
X7964500Y16540540D01*
X7964501Y16540530D01*
X7977437Y16475492D01*
X7977438Y16475489D01*
X8026626Y16401875D01*
X8026726Y16401726D01*
X8100490Y16352438D01*
X8165535Y16339500D01*
X8334464Y16339501D01*
X8334468Y16339502D01*
X8334470Y16339502D01*
X8362821Y16345141D01*
X8399510Y16352438D01*
X8473274Y16401726D01*
X8522562Y16475490D01*
X8535500Y16540535D01*
X8535499Y17334464D01*
X8522562Y17399510D01*
X8504832Y17426044D01*
X8473276Y17473271D01*
X8473274Y17473274D01*
X8473270Y17473277D01*
X8399509Y17522563D01*
X8334466Y17535500D01*
X8165539Y17535500D01*
X8165529Y17535499D01*
X8100491Y17522563D01*
X8100488Y17522562D01*
X8026729Y17473277D01*
X8026723Y17473271D01*
X7977437Y17399511D01*
X7964500Y17334468D01*
X7964500Y16540540D01*
X7535500Y16540540D01*
X7535500Y16971928D01*
X7535499Y16971942D01*
X7535499Y17334461D01*
X7535498Y17334471D01*
X7525869Y17382881D01*
X7522562Y17399510D01*
X7504832Y17426044D01*
X7473276Y17473271D01*
X7473274Y17473274D01*
X7473270Y17473277D01*
X7399509Y17522563D01*
X7334466Y17535500D01*
X7165539Y17535500D01*
X7165532Y17535499D01*
X7153809Y17533167D01*
X7093048Y17540362D01*
X7048120Y17581897D01*
X7035500Y17630266D01*
X7035500Y17646592D01*
X7054407Y17704783D01*
X7064490Y17716590D01*
X7093010Y17745109D01*
X7137634Y17846173D01*
X7140500Y17870877D01*
X7140499Y18329122D01*
X7137634Y18353827D01*
X7093010Y18454891D01*
X7026437Y18521464D01*
X6998662Y18575978D01*
X7008233Y18636410D01*
X7026436Y18661466D01*
X7072206Y18707235D01*
X7117585Y18810009D01*
X7120500Y18835135D01*
X7120499Y19199998D01*
X10360022Y19199998D01*
X10377842Y19076049D01*
X10377843Y19076047D01*
X10377843Y19076046D01*
X10377844Y19076044D01*
X10429867Y18962130D01*
X10429868Y18962129D01*
X10511875Y18867488D01*
X10511875Y18867487D01*
X10601313Y18810009D01*
X10617227Y18799782D01*
X10737385Y18764500D01*
X10737386Y18764500D01*
X10862614Y18764500D01*
X10862615Y18764500D01*
X10982773Y18799782D01*
X11088124Y18867487D01*
X11170133Y18962130D01*
X11222156Y19076044D01*
X11236233Y19173954D01*
X11239978Y19199998D01*
X11239978Y19200003D01*
X11222157Y19323952D01*
X11222156Y19323954D01*
X11222156Y19323956D01*
X11170133Y19437870D01*
X11127559Y19487003D01*
X11103741Y19543362D01*
X11117599Y19602957D01*
X11148850Y19635115D01*
X11238124Y19692487D01*
X11289350Y19751606D01*
X11341744Y19783200D01*
X11402705Y19777964D01*
X11438987Y19751605D01*
X11490212Y19692488D01*
X11511877Y19667486D01*
X11616886Y19600001D01*
X11617227Y19599782D01*
X11737385Y19564500D01*
X11737386Y19564500D01*
X11862614Y19564500D01*
X11862615Y19564500D01*
X11982773Y19599782D01*
X12088124Y19667487D01*
X12170133Y19762130D01*
X12187427Y19799998D01*
X12660022Y19799998D01*
X12677842Y19676049D01*
X12677843Y19676047D01*
X12677843Y19676046D01*
X12677844Y19676044D01*
X12729867Y19562130D01*
X12729868Y19562129D01*
X12811875Y19467488D01*
X12811875Y19467487D01*
X12910217Y19404287D01*
X12917227Y19399782D01*
X13037385Y19364500D01*
X13037386Y19364500D01*
X13162614Y19364500D01*
X13162615Y19364500D01*
X13282773Y19399782D01*
X13388124Y19467487D01*
X13470133Y19562130D01*
X13522156Y19676044D01*
X13522157Y19676049D01*
X13539978Y19799998D01*
X13539978Y19800003D01*
X13522157Y19923952D01*
X13522156Y19923954D01*
X13522156Y19923956D01*
X13470133Y20037870D01*
X13388124Y20132513D01*
X13388124Y20132514D01*
X13282774Y20200218D01*
X13162616Y20235500D01*
X13162615Y20235500D01*
X13037385Y20235500D01*
X13037383Y20235500D01*
X12917225Y20200218D01*
X12811875Y20132514D01*
X12811875Y20132513D01*
X12729868Y20037872D01*
X12729867Y20037871D01*
X12729867Y20037870D01*
X12723989Y20024998D01*
X12677843Y19923954D01*
X12677842Y19923952D01*
X12660022Y19800003D01*
X12660022Y19799998D01*
X12187427Y19799998D01*
X12222156Y19876044D01*
X12222157Y19876049D01*
X12239978Y19999998D01*
X12239978Y20000003D01*
X12222157Y20123952D01*
X12222156Y20123954D01*
X12222156Y20123956D01*
X12170133Y20237870D01*
X12088124Y20332513D01*
X12088124Y20332514D01*
X11982774Y20400218D01*
X11862616Y20435500D01*
X11862615Y20435500D01*
X11737385Y20435500D01*
X11737383Y20435500D01*
X11617225Y20400218D01*
X11511877Y20332515D01*
X11460650Y20273396D01*
X11408253Y20241801D01*
X11347292Y20247037D01*
X11311012Y20273397D01*
X11238124Y20357513D01*
X11238124Y20357514D01*
X11132774Y20425218D01*
X11012616Y20460500D01*
X11012615Y20460500D01*
X10887385Y20460500D01*
X10887383Y20460500D01*
X10767225Y20425218D01*
X10661875Y20357514D01*
X10661875Y20357513D01*
X10579868Y20262872D01*
X10579867Y20262871D01*
X10579867Y20262870D01*
X10564391Y20228982D01*
X10527843Y20148954D01*
X10527842Y20148952D01*
X10510022Y20025003D01*
X10510022Y20024998D01*
X10527842Y19901049D01*
X10527843Y19901047D01*
X10527843Y19901046D01*
X10527844Y19901044D01*
X10579867Y19787130D01*
X10579868Y19787129D01*
X10622440Y19737998D01*
X10646258Y19681639D01*
X10632400Y19622044D01*
X10601145Y19589883D01*
X10511874Y19532512D01*
X10429868Y19437872D01*
X10377843Y19323954D01*
X10377842Y19323952D01*
X10360022Y19200003D01*
X10360022Y19199998D01*
X7120499Y19199998D01*
X7120499Y19264864D01*
X7117585Y19289991D01*
X7072206Y19392765D01*
X6992765Y19472206D01*
X6889991Y19517585D01*
X6889990Y19517586D01*
X6889988Y19517586D01*
X6864868Y19520500D01*
X6495140Y19520500D01*
X6495135Y19520499D01*
X6470009Y19517586D01*
X6367235Y19472206D01*
X6287792Y19392763D01*
X6282610Y19385197D01*
X6279863Y19387079D01*
X6249755Y19353439D01*
X6189945Y19340540D01*
X6133976Y19365260D01*
X6118792Y19386158D01*
X6117390Y19385197D01*
X6112207Y19392763D01*
X6112206Y19392764D01*
X6112206Y19392765D01*
X6032765Y19472206D01*
X5929991Y19517585D01*
X5929990Y19517586D01*
X5929988Y19517586D01*
X5904868Y19520500D01*
X5535140Y19520500D01*
X5535135Y19520499D01*
X5510009Y19517586D01*
X5407235Y19472206D01*
X5327794Y19392765D01*
X5282414Y19289989D01*
X5279500Y19264870D01*
X5279500Y18835140D01*
X5279501Y18835137D01*
X5282414Y18810010D01*
X5300818Y18768330D01*
X5327794Y18707235D01*
X5373562Y18661467D01*
X5401338Y18606952D01*
X5391767Y18546520D01*
X5373563Y18521465D01*
X5339968Y18487869D01*
X5306987Y18454888D01*
X5302443Y18448254D01*
X5253957Y18410935D01*
X5192795Y18409242D01*
X5150769Y18434202D01*
X5092765Y18492206D01*
X4989991Y18537585D01*
X4989990Y18537586D01*
X4989988Y18537586D01*
X4964869Y18540500D01*
X4964865Y18540500D01*
X4704634Y18540500D01*
X4646443Y18559407D01*
X4621350Y18585976D01*
X4620131Y18587873D01*
X4538124Y18682513D01*
X4538124Y18682514D01*
X4432772Y18750219D01*
X4418142Y18754515D01*
X4367636Y18789052D01*
X4347076Y18846680D01*
X4355983Y18890631D01*
X4358787Y18896771D01*
X4372156Y18926044D01*
X4372157Y18926049D01*
X4389978Y19049998D01*
X4389978Y19050003D01*
X4372157Y19173952D01*
X4372156Y19173954D01*
X4372156Y19173956D01*
X4320133Y19287870D01*
X4238124Y19382513D01*
X4238124Y19382514D01*
X4132774Y19450218D01*
X4012616Y19485500D01*
X4012615Y19485500D01*
X3887385Y19485500D01*
X3887381Y19485500D01*
X3787391Y19456140D01*
X3726231Y19457888D01*
X3677778Y19495250D01*
X3660500Y19551130D01*
X3660500Y19974998D01*
X7710022Y19974998D01*
X7727842Y19851049D01*
X7727843Y19851047D01*
X7727843Y19851046D01*
X7727844Y19851044D01*
X7779867Y19737130D01*
X7779868Y19737129D01*
X7861875Y19642488D01*
X7861875Y19642487D01*
X7943729Y19589883D01*
X7967227Y19574782D01*
X8087385Y19539500D01*
X8087386Y19539500D01*
X8212614Y19539500D01*
X8212615Y19539500D01*
X8332773Y19574782D01*
X8438124Y19642487D01*
X8520133Y19737130D01*
X8572156Y19851044D01*
X8574477Y19867188D01*
X8589978Y19974998D01*
X8589978Y19975003D01*
X8572157Y20098952D01*
X8572156Y20098954D01*
X8572156Y20098956D01*
X8520133Y20212870D01*
X8438124Y20307513D01*
X8438124Y20307514D01*
X8332774Y20375218D01*
X8212616Y20410500D01*
X8212615Y20410500D01*
X8087385Y20410500D01*
X8087383Y20410500D01*
X7967225Y20375218D01*
X7861875Y20307514D01*
X7861875Y20307513D01*
X7779868Y20212872D01*
X7727843Y20098954D01*
X7727842Y20098952D01*
X7710022Y19975003D01*
X7710022Y19974998D01*
X3660500Y19974998D01*
X3660500Y20198871D01*
X3679407Y20257062D01*
X3728907Y20293026D01*
X3787392Y20293861D01*
X3887385Y20264500D01*
X3887386Y20264500D01*
X4012614Y20264500D01*
X4012615Y20264500D01*
X4132773Y20299782D01*
X4238124Y20367487D01*
X4320133Y20462130D01*
X4372156Y20576044D01*
X4374984Y20595711D01*
X4389978Y20699998D01*
X4389978Y20700003D01*
X4372157Y20823952D01*
X4372156Y20823954D01*
X4372156Y20823956D01*
X4320133Y20937870D01*
X4238124Y21032513D01*
X4238124Y21032514D01*
X4132774Y21100218D01*
X4012616Y21135500D01*
X4012615Y21135500D01*
X3887385Y21135500D01*
X3887383Y21135500D01*
X3767225Y21100218D01*
X3661876Y21032514D01*
X3625913Y20991011D01*
X3573516Y20959416D01*
X3512556Y20964653D01*
X3481091Y20985840D01*
X3231801Y21235131D01*
X3227295Y21240309D01*
X3219953Y21250032D01*
X3208537Y21260439D01*
X3186241Y21280765D01*
X3184594Y21282338D01*
X3171348Y21295583D01*
X3171340Y21295590D01*
X3168693Y21297404D01*
X3163323Y21301658D01*
X3149107Y21314617D01*
X3141073Y21321941D01*
X3141069Y21321943D01*
X3141067Y21321944D01*
X3132898Y21325109D01*
X3112724Y21335742D01*
X3111868Y21336329D01*
X3105490Y21340697D01*
X3105489Y21340698D01*
X3105488Y21340698D01*
X3076177Y21347593D01*
X3069623Y21349622D01*
X3041546Y21360499D01*
X3041543Y21360500D01*
X3041542Y21360500D01*
X3041540Y21360500D01*
X3032778Y21360500D01*
X3010111Y21363130D01*
X3001586Y21365135D01*
X2971763Y21360975D01*
X2964917Y21360500D01*
X2394041Y21360500D01*
X2387193Y21360975D01*
X2375124Y21362660D01*
X2336632Y21360880D01*
X2329565Y21360553D01*
X2327289Y21360500D01*
X2308546Y21360500D01*
X2308532Y21360499D01*
X2305380Y21359910D01*
X2298575Y21359121D01*
X2268500Y21357730D01*
X2260482Y21354190D01*
X2238698Y21347444D01*
X2230082Y21345833D01*
X2230076Y21345831D01*
X2204472Y21329979D01*
X2198405Y21326781D01*
X2170858Y21314617D01*
X2170857Y21314617D01*
X2164660Y21308419D01*
X2146781Y21294257D01*
X2139327Y21289642D01*
X2121183Y21265615D01*
X2116678Y21260439D01*
X2005736Y21149496D01*
X1951219Y21121719D01*
X1935732Y21120500D01*
X1720882Y21120500D01*
X1720877Y21120499D01*
X1696172Y21117634D01*
X1696173Y21117634D01*
X1597252Y21073956D01*
X1595107Y21073009D01*
X1536594Y21014496D01*
X1482077Y20986719D01*
X1466591Y20985500D01*
X1457561Y20985500D01*
X1399370Y21004407D01*
X1368620Y21041019D01*
X1352981Y21073009D01*
X1319170Y21142171D01*
X1229671Y21231670D01*
X1160235Y21265615D01*
X1115960Y21287260D01*
X1115961Y21287260D01*
X1099610Y21289642D01*
X1042243Y21298000D01*
X1042239Y21298000D01*
X457762Y21298000D01*
X457756Y21297999D01*
X384043Y21287261D01*
X384036Y21287259D01*
X342980Y21267188D01*
X282397Y21258617D01*
X228348Y21287293D01*
X201476Y21342262D01*
X200500Y21356129D01*
X200500Y21618872D01*
X219407Y21677063D01*
X268907Y21713027D01*
X330093Y21713027D01*
X342981Y21707812D01*
X384033Y21687743D01*
X384037Y21687742D01*
X384040Y21687740D01*
X457757Y21677000D01*
X1042242Y21677001D01*
X1115960Y21687740D01*
X1229671Y21743330D01*
X1319170Y21832829D01*
X1374760Y21946540D01*
X1375959Y21954775D01*
X1403059Y22009630D01*
X1457227Y22038082D01*
X1473925Y22039500D01*
X2338009Y22039500D01*
X2365900Y22035491D01*
X2437385Y22014500D01*
X2437386Y22014500D01*
X2562614Y22014500D01*
X2562615Y22014500D01*
X2682773Y22049782D01*
X2788124Y22117487D01*
X2870133Y22212130D01*
X2922156Y22326044D01*
X2927380Y22362378D01*
X2939978Y22449998D01*
X2939978Y22450003D01*
X2922157Y22573952D01*
X2922156Y22573954D01*
X2922156Y22573956D01*
X2870133Y22687870D01*
X2788124Y22782513D01*
X2788124Y22782514D01*
X2682774Y22850218D01*
X2562616Y22885500D01*
X2562615Y22885500D01*
X2437385Y22885500D01*
X2437383Y22885500D01*
X2365901Y22864510D01*
X2338009Y22860500D01*
X1135213Y22860500D01*
X1120940Y22861534D01*
X1115961Y22862260D01*
X1115960Y22862260D01*
X1042243Y22873000D01*
X1042239Y22873000D01*
X457762Y22873000D01*
X457756Y22872999D01*
X384043Y22862261D01*
X384036Y22862259D01*
X342980Y22842188D01*
X282397Y22833617D01*
X228348Y22862293D01*
X201476Y22917262D01*
X200500Y22931129D01*
X200500Y24812380D01*
X200553Y24814000D01*
X980357Y24814000D01*
X1000885Y24592464D01*
X1061771Y24378472D01*
X1160942Y24179311D01*
X1295019Y24001764D01*
X1459438Y23851876D01*
X1648599Y23734753D01*
X1856060Y23654382D01*
X2074757Y23613500D01*
X2297243Y23613500D01*
X2515940Y23654382D01*
X2723401Y23734753D01*
X2912562Y23851876D01*
X3076981Y24001764D01*
X3211058Y24179311D01*
X3310229Y24378472D01*
X3371115Y24592464D01*
X3391643Y24814000D01*
X3371115Y25035536D01*
X3310229Y25249528D01*
X3211058Y25448689D01*
X3076981Y25626236D01*
X2912562Y25776124D01*
X2723401Y25893247D01*
X2515940Y25973618D01*
X2515939Y25973619D01*
X2515937Y25973619D01*
X2297243Y26014500D01*
X2074757Y26014500D01*
X1856062Y25973619D01*
X1779797Y25944074D01*
X1648599Y25893247D01*
X1513260Y25809449D01*
X1459438Y25776124D01*
X1295020Y25626237D01*
X1160943Y25448691D01*
X1160938Y25448682D01*
X1061772Y25249531D01*
X1061771Y25249528D01*
X1000885Y25035536D01*
X980357Y24814000D01*
X200553Y24814000D01*
X200606Y24815618D01*
X201981Y24836590D01*
X217273Y25069924D01*
X218119Y25076343D01*
X267521Y25324702D01*
X269196Y25330956D01*
X350595Y25570751D01*
X353065Y25576714D01*
X465075Y25803848D01*
X468310Y25809449D01*
X524302Y25893247D01*
X609001Y26020009D01*
X612931Y26025131D01*
X779907Y26215531D01*
X784469Y26220093D01*
X974869Y26387069D01*
X979991Y26390999D01*
X1190555Y26531693D01*
X1196152Y26534925D01*
X1423286Y26646935D01*
X1429249Y26649405D01*
X1669044Y26730804D01*
X1675298Y26732479D01*
X1917182Y26780593D01*
X1923659Y26781882D01*
X1930076Y26782727D01*
X2184383Y26799395D01*
X2187620Y26799500D01*
X2225882Y26799500D01*
X16485500Y26799500D01*
X16543691Y26780593D01*
G37*
%TD.AperFunction*%
%TA.AperFunction,Conductor*%
G36*
X14795946Y16908618D02*
G01*
X14839210Y16865354D01*
X14850000Y16820409D01*
X14850000Y16484118D01*
X14831093Y16425927D01*
X14781593Y16389963D01*
X14720407Y16389963D01*
X14711021Y16393550D01*
X14633827Y16427634D01*
X14633826Y16427635D01*
X14633824Y16427635D01*
X14609127Y16430500D01*
X14609123Y16430500D01*
X14578424Y16430500D01*
X14520233Y16449407D01*
X14484269Y16498907D01*
X14484269Y16560093D01*
X14505263Y16596197D01*
X14516695Y16608737D01*
X14521941Y16614491D01*
X14525107Y16622664D01*
X14535744Y16642844D01*
X14540697Y16650074D01*
X14547593Y16679397D01*
X14549617Y16685932D01*
X14560500Y16714022D01*
X14560500Y16722787D01*
X14563130Y16745453D01*
X14565013Y16753459D01*
X14591378Y16800795D01*
X14680998Y16890414D01*
X14735514Y16918190D01*
X14795946Y16908618D01*
G37*
%TD.AperFunction*%
%TD*%
%TA.AperFunction,Conductor*%
%TO.N,/Motor phase W/Motor*%
G36*
X23773692Y9081093D02*
G01*
X23809656Y9031593D01*
X23814501Y9001000D01*
X23814501Y8792801D01*
X23817224Y8763746D01*
X23817225Y8763741D01*
X23860046Y8641366D01*
X23860048Y8641362D01*
X23937040Y8537040D01*
X24041362Y8460048D01*
X24163742Y8417225D01*
X24192801Y8414500D01*
X26507198Y8414501D01*
X26507199Y8414501D01*
X26513009Y8415046D01*
X26536258Y8417225D01*
X26658638Y8460048D01*
X26658637Y8460048D01*
X26665640Y8462498D01*
X26666563Y8459861D01*
X26714490Y8468203D01*
X26769425Y8441262D01*
X26798032Y8387176D01*
X26799499Y8370197D01*
X26799500Y2225883D01*
X26799500Y2187621D01*
X26799394Y2184383D01*
X26782726Y1930084D01*
X26781880Y1923658D01*
X26732478Y1675299D01*
X26730801Y1669039D01*
X26649406Y1429257D01*
X26646926Y1423268D01*
X26534930Y1196165D01*
X26531689Y1190552D01*
X26391005Y980002D01*
X26387059Y974860D01*
X26220102Y784481D01*
X26215519Y779898D01*
X26025140Y612941D01*
X26019998Y608995D01*
X25809448Y468311D01*
X25803835Y465070D01*
X25576732Y353074D01*
X25570743Y350594D01*
X25330961Y269199D01*
X25324701Y267522D01*
X25076342Y218120D01*
X25069916Y217274D01*
X24833822Y201800D01*
X24815616Y200606D01*
X24812380Y200500D01*
X21999000Y200500D01*
X21940809Y219407D01*
X21904845Y268907D01*
X21900000Y299500D01*
X21900000Y2186000D01*
X23608357Y2186000D01*
X23628885Y1964464D01*
X23689771Y1750472D01*
X23788942Y1551311D01*
X23923019Y1373764D01*
X24087438Y1223876D01*
X24276599Y1106753D01*
X24484060Y1026382D01*
X24702757Y985500D01*
X24925243Y985500D01*
X25143940Y1026382D01*
X25351401Y1106753D01*
X25540562Y1223876D01*
X25704981Y1373764D01*
X25839058Y1551311D01*
X25938229Y1750472D01*
X25999115Y1964464D01*
X26019643Y2186000D01*
X25999115Y2407536D01*
X25938229Y2621528D01*
X25839058Y2820689D01*
X25704981Y2998236D01*
X25540562Y3148124D01*
X25351401Y3265247D01*
X25143940Y3345618D01*
X25143939Y3345619D01*
X25143937Y3345619D01*
X24925243Y3386500D01*
X24702757Y3386500D01*
X24484062Y3345619D01*
X24407797Y3316074D01*
X24276599Y3265247D01*
X24107155Y3160332D01*
X24087438Y3148124D01*
X23923020Y2998237D01*
X23788943Y2820691D01*
X23788938Y2820682D01*
X23689772Y2621531D01*
X23628885Y2407536D01*
X23612053Y2225882D01*
X23608357Y2186000D01*
X21900000Y2186000D01*
X21900000Y2315500D01*
X21918907Y2373691D01*
X21968407Y2409655D01*
X21999000Y2414500D01*
X22112614Y2414500D01*
X22112615Y2414500D01*
X22232773Y2449782D01*
X22338124Y2517487D01*
X22420133Y2612130D01*
X22472156Y2726044D01*
X22472157Y2726049D01*
X22489978Y2849998D01*
X22489978Y2850003D01*
X22472157Y2973952D01*
X22472156Y2973954D01*
X22472156Y2973956D01*
X22420133Y3087870D01*
X22419597Y3088489D01*
X22419331Y3089119D01*
X22416305Y3093827D01*
X22417120Y3094351D01*
X22395783Y3144849D01*
X22409644Y3204444D01*
X22412105Y3208318D01*
X22425004Y3227622D01*
X22431187Y3236876D01*
X22439576Y3279047D01*
X22440499Y3283686D01*
X22440500Y3283696D01*
X22440500Y3314186D01*
X22459407Y3372377D01*
X22508907Y3408341D01*
X22570093Y3408341D01*
X22593020Y3397472D01*
X22667227Y3349782D01*
X22787385Y3314500D01*
X22787386Y3314500D01*
X22912614Y3314500D01*
X22912615Y3314500D01*
X23032773Y3349782D01*
X23138124Y3417487D01*
X23220133Y3512130D01*
X23272156Y3626044D01*
X23282106Y3695247D01*
X23289978Y3749998D01*
X23289978Y3750003D01*
X23272157Y3873952D01*
X23272156Y3873954D01*
X23272156Y3873956D01*
X23220133Y3987870D01*
X23182342Y4031483D01*
X23158525Y4087843D01*
X23172384Y4147438D01*
X23184225Y4161496D01*
X23183487Y4162135D01*
X23223123Y4207878D01*
X23270133Y4262130D01*
X23322156Y4376044D01*
X23326443Y4405862D01*
X23339978Y4499998D01*
X23339978Y4500003D01*
X23322157Y4623952D01*
X23322156Y4623954D01*
X23322156Y4623956D01*
X23270133Y4737870D01*
X23188124Y4832513D01*
X23188124Y4832514D01*
X23082774Y4900218D01*
X22962616Y4935500D01*
X22962615Y4935500D01*
X22837385Y4935500D01*
X22837383Y4935500D01*
X22717225Y4900218D01*
X22611876Y4832514D01*
X22600743Y4819666D01*
X22548346Y4788072D01*
X22525926Y4785500D01*
X22273546Y4785499D01*
X21999000Y4785499D01*
X21940809Y4804406D01*
X21904845Y4853906D01*
X21900000Y4884499D01*
X21900000Y9001000D01*
X21918907Y9059191D01*
X21968407Y9095155D01*
X21999000Y9100000D01*
X23715501Y9100000D01*
X23773692Y9081093D01*
G37*
%TD.AperFunction*%
%TD*%
%TA.AperFunction,Conductor*%
%TO.N,VBUS*%
G36*
X21659191Y26780593D02*
G01*
X21695155Y26731093D01*
X21700000Y26700500D01*
X21700000Y24610760D01*
X21681093Y24552569D01*
X21665837Y24535946D01*
X21661881Y24532518D01*
X21661877Y24532514D01*
X21661876Y24532513D01*
X21579867Y24437870D01*
X21527843Y24323954D01*
X21527842Y24323952D01*
X21510022Y24200003D01*
X21510022Y24199998D01*
X21527842Y24076049D01*
X21527843Y24076047D01*
X21527843Y24076046D01*
X21527844Y24076044D01*
X21579867Y23962130D01*
X21579868Y23962129D01*
X21661873Y23867490D01*
X21665828Y23864063D01*
X21697426Y23811668D01*
X21700000Y23789241D01*
X21700000Y23778843D01*
X21698098Y23759532D01*
X21689500Y23716306D01*
X21689500Y23309692D01*
X21696301Y23275500D01*
X21698098Y23266470D01*
X21700000Y23247155D01*
X21700000Y17752845D01*
X21698098Y17733530D01*
X21689500Y17690309D01*
X21689500Y17382160D01*
X21670593Y17323969D01*
X21621093Y17288005D01*
X21595074Y17283266D01*
X21583507Y17282731D01*
X21583498Y17282729D01*
X21575482Y17279190D01*
X21553698Y17272444D01*
X21545079Y17270833D01*
X21541093Y17268364D01*
X21481665Y17253808D01*
X21425030Y17276962D01*
X21392821Y17328983D01*
X21391127Y17343013D01*
X21390986Y17342992D01*
X21372157Y17473952D01*
X21372156Y17473954D01*
X21372156Y17473956D01*
X21320133Y17587870D01*
X21238124Y17682513D01*
X21238124Y17682514D01*
X21132774Y17750218D01*
X21012616Y17785500D01*
X21012615Y17785500D01*
X20887385Y17785500D01*
X20887383Y17785500D01*
X20767225Y17750218D01*
X20661875Y17682514D01*
X20661875Y17682513D01*
X20579868Y17587872D01*
X20527843Y17473954D01*
X20527842Y17473952D01*
X20510022Y17350003D01*
X20510022Y17349998D01*
X20527842Y17226049D01*
X20527843Y17226047D01*
X20527843Y17226046D01*
X20527844Y17226044D01*
X20579867Y17112130D01*
X20579868Y17112129D01*
X20661875Y17017488D01*
X20661875Y17017487D01*
X20740015Y16967270D01*
X20767227Y16949782D01*
X20887385Y16914500D01*
X20887386Y16914500D01*
X20887981Y16914500D01*
X20888453Y16914347D01*
X20894391Y16913493D01*
X20894243Y16912466D01*
X20946172Y16895593D01*
X20982136Y16846093D01*
X20982136Y16784907D01*
X20978037Y16774378D01*
X20977843Y16773955D01*
X20977842Y16773952D01*
X20960022Y16650003D01*
X20960022Y16649998D01*
X20977842Y16526049D01*
X20977843Y16526047D01*
X20977843Y16526046D01*
X20977844Y16526044D01*
X21029867Y16412130D01*
X21029868Y16412129D01*
X21111875Y16317488D01*
X21111875Y16317487D01*
X21217225Y16249783D01*
X21217227Y16249782D01*
X21337385Y16214500D01*
X21337386Y16214500D01*
X21462614Y16214500D01*
X21462615Y16214500D01*
X21462616Y16214501D01*
X21462620Y16214501D01*
X21536910Y16236316D01*
X21573107Y16246944D01*
X21634268Y16245198D01*
X21682721Y16207836D01*
X21700000Y16151955D01*
X21700000Y10752845D01*
X21698098Y10733530D01*
X21689500Y10690309D01*
X21689499Y10690307D01*
X21689499Y10386782D01*
X21670591Y10328591D01*
X21621091Y10292627D01*
X21595072Y10287888D01*
X21561861Y10286353D01*
X21544565Y10285553D01*
X21542289Y10285500D01*
X21523539Y10285500D01*
X21520383Y10284910D01*
X21513574Y10284121D01*
X21490161Y10283039D01*
X21469763Y10285491D01*
X21469620Y10284493D01*
X21462616Y10285500D01*
X21462615Y10285500D01*
X21337385Y10285500D01*
X21337383Y10285500D01*
X21217225Y10250218D01*
X21111875Y10182514D01*
X21111875Y10182513D01*
X21029868Y10087872D01*
X20977843Y9973954D01*
X20977842Y9973952D01*
X20960022Y9850003D01*
X20960022Y9849998D01*
X20977842Y9726049D01*
X20977843Y9726047D01*
X20977843Y9726046D01*
X20977844Y9726044D01*
X21029867Y9612130D01*
X21029868Y9612129D01*
X21111875Y9517488D01*
X21111875Y9517487D01*
X21217225Y9449783D01*
X21217227Y9449782D01*
X21337385Y9414500D01*
X21337386Y9414500D01*
X21462614Y9414500D01*
X21462615Y9414500D01*
X21562608Y9443861D01*
X21623767Y9442114D01*
X21672220Y9404751D01*
X21689499Y9348873D01*
X21689499Y9309695D01*
X21689500Y9309692D01*
X21696301Y9275500D01*
X21698098Y9266470D01*
X21700000Y9247155D01*
X21700000Y3752845D01*
X21698098Y3733534D01*
X21694312Y3714500D01*
X21689500Y3690309D01*
X21689500Y3283694D01*
X21698098Y3240472D01*
X21700000Y3221156D01*
X21699999Y3148028D01*
X21682613Y3094522D01*
X21683695Y3093826D01*
X21679865Y3087867D01*
X21627844Y2973959D01*
X21627842Y2973952D01*
X21610022Y2850003D01*
X21610022Y2849998D01*
X21627842Y2726049D01*
X21627843Y2726047D01*
X21627843Y2726046D01*
X21627844Y2726044D01*
X21679867Y2612130D01*
X21679868Y2612129D01*
X21683695Y2606174D01*
X21681026Y2604460D01*
X21699633Y2560485D01*
X21700000Y2551971D01*
X21700000Y299500D01*
X21681093Y241309D01*
X21631593Y205345D01*
X21601000Y200500D01*
X17149000Y200500D01*
X17090809Y219407D01*
X17054845Y268907D01*
X17050000Y299500D01*
X17050000Y2150000D01*
X5399000Y2150000D01*
X5340809Y2168907D01*
X5304845Y2218407D01*
X5300000Y2249000D01*
X5300000Y3051000D01*
X5318907Y3109191D01*
X5368407Y3145155D01*
X5399000Y3150000D01*
X7899999Y3150000D01*
X7900000Y3150000D01*
X7900000Y4551001D01*
X7918907Y4609191D01*
X7968407Y4645155D01*
X7999000Y4650000D01*
X14833274Y4650000D01*
X14891465Y4631093D01*
X14903278Y4621004D01*
X15684410Y3839871D01*
X15688915Y3834694D01*
X15696258Y3824970D01*
X15729965Y3794242D01*
X15731617Y3792664D01*
X15744864Y3779418D01*
X15744867Y3779415D01*
X15747514Y3777602D01*
X15752880Y3773352D01*
X15775140Y3753059D01*
X15783310Y3749894D01*
X15803492Y3739256D01*
X15810723Y3734303D01*
X15840042Y3727408D01*
X15846581Y3725383D01*
X15874671Y3714500D01*
X15883435Y3714500D01*
X15906101Y3711871D01*
X15914627Y3709865D01*
X15938495Y3713195D01*
X15944450Y3714025D01*
X15951296Y3714500D01*
X17234193Y3714500D01*
X17360500Y3714500D01*
X17418691Y3695593D01*
X17454655Y3646093D01*
X17459500Y3615500D01*
X17459500Y3283686D01*
X17468812Y3236878D01*
X17468813Y3236875D01*
X17504284Y3183788D01*
X17504287Y3183785D01*
X17557374Y3148314D01*
X17557375Y3148314D01*
X17557376Y3148313D01*
X17566789Y3146441D01*
X17604185Y3139001D01*
X17604192Y3139001D01*
X17604194Y3139000D01*
X17604195Y3139000D01*
X18065805Y3139000D01*
X18065806Y3139000D01*
X18065807Y3139001D01*
X18065814Y3139001D01*
X18096748Y3145155D01*
X18112624Y3148313D01*
X18165714Y3183786D01*
X18201187Y3236876D01*
X18204932Y3255704D01*
X18210499Y3283686D01*
X18210500Y3283696D01*
X18210500Y3690307D01*
X18210499Y3690317D01*
X18201902Y3733530D01*
X18201187Y3737126D01*
X18190540Y3753060D01*
X18165715Y3790215D01*
X18165713Y3790217D01*
X18154501Y3797708D01*
X18116621Y3845758D01*
X18110501Y3880025D01*
X18110501Y3901044D01*
X18110501Y4140806D01*
X18110500Y4140812D01*
X18110500Y4140815D01*
X18101188Y4187623D01*
X18101187Y4187626D01*
X18096261Y4194998D01*
X18079652Y4253886D01*
X18096262Y4305004D01*
X18101188Y4312375D01*
X18110167Y4357513D01*
X18110500Y4359185D01*
X18110501Y4359195D01*
X18110501Y4551000D01*
X18129408Y4609191D01*
X18178908Y4645155D01*
X18209501Y4650000D01*
X18299999Y4650000D01*
X18300000Y4650000D01*
X18300000Y23550000D01*
X18299999Y23550000D01*
X18295426Y23554573D01*
X18251309Y23568907D01*
X18215345Y23618407D01*
X18210500Y23649000D01*
X18210500Y23716305D01*
X18210499Y23716315D01*
X18201187Y23763123D01*
X18201186Y23763126D01*
X18165715Y23816213D01*
X18165712Y23816216D01*
X18112625Y23851687D01*
X18112622Y23851688D01*
X18065814Y23861000D01*
X18065806Y23861000D01*
X17604194Y23861000D01*
X17604185Y23861000D01*
X17557377Y23851688D01*
X17557374Y23851687D01*
X17504287Y23816216D01*
X17504284Y23816213D01*
X17468813Y23763126D01*
X17468812Y23763123D01*
X17459500Y23716315D01*
X17459500Y23649000D01*
X17440593Y23590809D01*
X17391093Y23554845D01*
X17360500Y23550000D01*
X14850001Y23550000D01*
X14850000Y23550000D01*
X14850000Y23549999D01*
X14850000Y22449000D01*
X14831093Y22390809D01*
X14781593Y22354845D01*
X14751000Y22350000D01*
X13401408Y22350000D01*
X13343217Y22368907D01*
X13311355Y22407873D01*
X13292572Y22449000D01*
X13278761Y22479242D01*
X13196752Y22573885D01*
X13196752Y22573886D01*
X13091402Y22641590D01*
X12971244Y22676872D01*
X12971243Y22676872D01*
X12846013Y22676872D01*
X12846011Y22676872D01*
X12725853Y22641590D01*
X12620503Y22573886D01*
X12620503Y22573885D01*
X12538495Y22479243D01*
X12505901Y22407873D01*
X12464529Y22362796D01*
X12415848Y22350000D01*
X5249000Y22350000D01*
X5190809Y22368907D01*
X5154845Y22418407D01*
X5150000Y22449000D01*
X5150000Y25151000D01*
X5168907Y25209191D01*
X5218407Y25245155D01*
X5249000Y25250000D01*
X5652250Y25250000D01*
X5680140Y25245991D01*
X5787385Y25214500D01*
X5787386Y25214500D01*
X5912614Y25214500D01*
X5912615Y25214500D01*
X6019859Y25245991D01*
X6047750Y25250000D01*
X7652250Y25250000D01*
X7680140Y25245991D01*
X7787385Y25214500D01*
X7787386Y25214500D01*
X7912614Y25214500D01*
X7912615Y25214500D01*
X8019859Y25245991D01*
X8047750Y25250000D01*
X9602250Y25250000D01*
X9630140Y25245991D01*
X9737385Y25214500D01*
X9737386Y25214500D01*
X9862614Y25214500D01*
X9862615Y25214500D01*
X9969859Y25245991D01*
X9997750Y25250000D01*
X11602250Y25250000D01*
X11630140Y25245991D01*
X11737385Y25214500D01*
X11737386Y25214500D01*
X11862614Y25214500D01*
X11862615Y25214500D01*
X11969859Y25245991D01*
X11997750Y25250000D01*
X13552250Y25250000D01*
X13580140Y25245991D01*
X13687385Y25214500D01*
X13687386Y25214500D01*
X13812614Y25214500D01*
X13812615Y25214500D01*
X13919859Y25245991D01*
X13947750Y25250000D01*
X15552250Y25250000D01*
X15580140Y25245991D01*
X15687385Y25214500D01*
X15687386Y25214500D01*
X15812614Y25214500D01*
X15812615Y25214500D01*
X15919859Y25245991D01*
X15947750Y25250000D01*
X16749999Y25250000D01*
X16750000Y25250000D01*
X16750000Y26700500D01*
X16768907Y26758691D01*
X16818407Y26794655D01*
X16849000Y26799500D01*
X21601000Y26799500D01*
X21659191Y26780593D01*
G37*
%TD.AperFunction*%
%TD*%
%TA.AperFunction,Conductor*%
%TO.N,/Motor phase V/SENSE_P*%
G36*
X17418691Y16431093D02*
G01*
X17454655Y16381593D01*
X17459500Y16351000D01*
X17459500Y16309684D01*
X17468812Y16262876D01*
X17468813Y16262873D01*
X17504284Y16209786D01*
X17504287Y16209783D01*
X17557374Y16174312D01*
X17557375Y16174312D01*
X17557376Y16174311D01*
X17566789Y16172439D01*
X17604185Y16164999D01*
X17604192Y16164999D01*
X17604194Y16164998D01*
X17604195Y16164998D01*
X18001000Y16164998D01*
X18059191Y16146091D01*
X18095155Y16096591D01*
X18100000Y16065998D01*
X18100000Y11949000D01*
X18081093Y11890809D01*
X18031593Y11854845D01*
X18001000Y11850000D01*
X15744766Y11850000D01*
X15686575Y11868907D01*
X15674762Y11878996D01*
X15078996Y12474762D01*
X15051219Y12529279D01*
X15050000Y12544766D01*
X15050000Y15301000D01*
X15068907Y15359191D01*
X15118407Y15395155D01*
X15149000Y15400000D01*
X15949999Y15400000D01*
X15950000Y15400000D01*
X15950000Y16200303D01*
X15958946Y16241428D01*
X15962761Y16249782D01*
X16002156Y16336044D01*
X16006332Y16365090D01*
X16033326Y16419995D01*
X16087440Y16448550D01*
X16104324Y16450000D01*
X17360500Y16450000D01*
X17418691Y16431093D01*
G37*
%TD.AperFunction*%
%TD*%
%TA.AperFunction,Conductor*%
%TO.N,/Motor phase W/SENSE_P*%
G36*
X17428426Y9331093D02*
G01*
X17464390Y9281593D01*
X17467332Y9270318D01*
X17468812Y9262875D01*
X17468813Y9262873D01*
X17504284Y9209786D01*
X17504287Y9209783D01*
X17557374Y9174312D01*
X17557375Y9174312D01*
X17557376Y9174311D01*
X17566789Y9172439D01*
X17604185Y9164999D01*
X17604192Y9164999D01*
X17604194Y9164998D01*
X17604195Y9164998D01*
X17901000Y9164998D01*
X17959191Y9146091D01*
X17995155Y9096591D01*
X18000000Y9065998D01*
X18000000Y4949000D01*
X17981093Y4890809D01*
X17931593Y4854845D01*
X17901000Y4850000D01*
X15522805Y4850000D01*
X15464614Y4868907D01*
X15452801Y4878997D01*
X15349901Y4981897D01*
X15128996Y5202803D01*
X15101219Y5257319D01*
X15100000Y5272806D01*
X15100000Y9251000D01*
X15118907Y9309191D01*
X15168407Y9345155D01*
X15199000Y9350000D01*
X17370235Y9350000D01*
X17428426Y9331093D01*
G37*
%TD.AperFunction*%
%TD*%
%TA.AperFunction,Conductor*%
%TO.N,/Motor phase U/SENSE_P*%
G36*
X17428426Y23331093D02*
G01*
X17464390Y23281593D01*
X17467332Y23270318D01*
X17468812Y23262875D01*
X17468813Y23262873D01*
X17504284Y23209786D01*
X17504287Y23209783D01*
X17557374Y23174312D01*
X17557375Y23174312D01*
X17557376Y23174311D01*
X17566789Y23172439D01*
X17604185Y23164999D01*
X17604192Y23164999D01*
X17604194Y23164998D01*
X17604195Y23164998D01*
X17901000Y23164998D01*
X17959191Y23146091D01*
X17995155Y23096591D01*
X18000000Y23065998D01*
X18000000Y18949000D01*
X17981093Y18890809D01*
X17931593Y18854845D01*
X17901000Y18850000D01*
X15199000Y18850000D01*
X15140809Y18868907D01*
X15104845Y18918407D01*
X15100000Y18949000D01*
X15100000Y23251000D01*
X15118907Y23309191D01*
X15168407Y23345155D01*
X15199000Y23350000D01*
X17370235Y23350000D01*
X17428426Y23331093D01*
G37*
%TD.AperFunction*%
%TD*%
M02*
