M48
INCH
T1C0.0098
T2C0.0669
%
G90
G05
T1
X0.0236Y0.9173
X0.0335Y0.7146
X0.0354Y0.1663
X0.0404Y0.4665
X0.0866Y0.3524
X0.094Y0.3071
X0.0965Y0.5197
X0.0984Y0.8839
X0.1082Y0.7667
X0.1083Y0.8071
X0.126Y0.502
X0.128Y0.4134
X0.128Y0.378
X0.1299Y0.315
X0.1339Y0.4449
X0.1378Y0.565
X0.1516Y0.5374
X0.1555Y0.815
X0.1555Y0.75
X0.1573Y0.5096
X0.1575Y0.1634
X0.1634Y0.6594
X0.1673Y0.7224
X0.1811Y0.2067
X0.185Y0.4134
X0.19Y0.3671
X0.1909Y0.6654
X0.2126Y0.2244
X0.2303Y1.0098
X0.2559Y0.0551
X0.2598Y0.8514
X0.2598Y0.628
X0.2785Y0.1585
X0.2854Y0.2087
X0.2874Y0.6181
X0.2933Y0.7087
X0.3051Y0.4272
X0.3091Y1.0098
X0.315Y0.9291
X0.3209Y0.7864
X0.3209Y0.1654
X0.3307Y0.2087
X0.3346Y0.0551
X0.3386Y0.4409
X0.3484Y0.8514
X0.3543Y0.1299
X0.3642Y0.3661
X0.376Y0.7067
X0.3772Y0.3398
X0.3799Y0.6063
X0.3858Y1.0098
X0.3957Y0.6319
X0.4055Y0.7018
X0.4055Y0.3425
X0.4104Y0.6053
X0.4134Y0.0551
X0.4154Y0.3012
X0.4252Y0.8278
X0.4252Y0.7559
X0.4252Y0.2087
X0.4272Y0.5079
X0.4291Y0.4429
X0.4311Y0.7884
X0.4311Y0.4783
X0.4331Y0.1299
X0.439Y0.9291
X0.4646Y1.0098
X0.4646Y0.7874
X0.4744Y0.3583
X0.4902Y0.0531
X0.5Y0.2766
X0.5069Y0.3307
X0.5082Y0.8756
X0.5089Y0.8455
X0.5098Y0.7205
X0.5118Y0.3022
X0.5118Y0.1299
X0.5157Y0.7795
X0.5217Y0.2087
X0.5226Y0.9272
X0.5335Y0.4291
X0.5394Y0.7224
X0.5413Y1.0098
X0.5571Y0.3287
X0.5591Y0.2343
X0.5689Y0.0531
X0.5846Y0.6555
X0.5846Y0.4508
X0.5906Y0.1299
X0.6008Y0.5846
X0.6035Y0.3583
X0.6039Y0.3374
X0.6039Y0.3165
X0.6039Y0.2953
X0.6039Y0.2118
X0.6043Y0.2744
X0.6043Y0.2535
X0.6043Y0.2327
X0.6051Y0.9098
X0.6051Y0.8886
X0.6051Y0.8673
X0.6051Y0.8461
X0.6051Y0.8248
X0.6051Y0.8035
X0.6051Y0.7823
X0.6051Y0.761
X0.6122Y0.6909
X0.6134Y0.648
X0.6193Y0.5953
X0.6193Y0.574
X0.6193Y0.5323
X0.6193Y0.4902
X0.6197Y0.5531
X0.6197Y0.5114
X0.6201Y1.0098
X0.6224Y0.348
X0.6224Y0.222
X0.6224Y0.2012
X0.6228Y0.3272
X0.6228Y0.3063
X0.6228Y0.285
X0.6228Y0.2638
X0.6228Y0.2429
X0.6236Y0.8992
X0.6236Y0.878
X0.6236Y0.8567
X0.6236Y0.8354
X0.6236Y0.8142
X0.6236Y0.7929
X0.6236Y0.7717
X0.6236Y0.7508
X0.6378Y0.6272
X0.6378Y0.6063
X0.6378Y0.5846
X0.6378Y0.4795
X0.6378Y0.4232
X0.6382Y0.5638
X0.6382Y0.5429
X0.6382Y0.5217
X0.6382Y0.5004
X0.6409Y0.3583
X0.6409Y0.2323
X0.6413Y0.3374
X0.6413Y0.3165
X0.6413Y0.2953
X0.6413Y0.274
X0.6413Y0.2531
X0.6413Y0.2114
X0.6421Y0.9098
X0.6421Y0.8886
X0.6421Y0.8673
X0.6421Y0.8461
X0.6421Y0.8248
X0.6421Y0.8035
X0.6421Y0.7823
X0.6421Y0.761
X0.6496Y0.0531
X0.6559Y0.4681
X0.6563Y0.6374
X0.6563Y0.6165
X0.6563Y0.5957
X0.6567Y0.5748
X0.6567Y0.5531
X0.6567Y0.5319
X0.6567Y0.5106
X0.6567Y0.4894
X0.6594Y0.222
X0.6594Y0.2008
X0.6602Y0.7717
X0.6602Y0.7504
X0.6744Y0.4783
X0.6748Y0.6268
X0.6776Y0.2114
X0.6783Y0.761
X0.7303Y0.8583
X0.7303Y0.8071
X0.7303Y0.7539
X0.7303Y0.5827
X0.7303Y0.5315
X0.7303Y0.4783
X0.7303Y0.3071
X0.7303Y0.2559
X0.7303Y0.2047
X0.7303Y0.1594
X0.7421Y0.6201
X0.7461Y0.7185
X0.7835Y0.2579
X0.7854Y0.9035
X0.7854Y0.8583
X0.7854Y0.8071
X0.7854Y0.7559
X0.7854Y0.7106
X0.7854Y0.628
X0.7854Y0.5827
X0.7854Y0.5315
X0.7854Y0.4783
X0.7854Y0.435
X0.7854Y0.3524
X0.7854Y0.3071
X0.7854Y0.2047
X0.7854Y0.1594
X0.8248Y0.6831
X0.8425Y0.6555
X0.8425Y0.3878
X0.8642Y0.9528
X0.8681Y0.1122
X0.8996Y0.1476
X0.9016Y0.1772
X0.9134Y0.6713
X0.9134Y0.3937
T2
X0.7854Y1.0
X0.7854Y0.063
X0.998Y0.8248
X0.998Y0.6752
X0.998Y0.5413
X0.998Y0.3917
X0.998Y0.2579
T0
M30
