%TF.GenerationSoftware,KiCad,Pcbnew,7.0.7*%
%TF.CreationDate,2023-12-28T18:43:45-05:00*%
%TF.ProjectId,O32controller,4f333263-6f6e-4747-926f-6c6c65722e6b,3*%
%TF.SameCoordinates,Original*%
%TF.FileFunction,Soldermask,Bot*%
%TF.FilePolarity,Negative*%
%FSLAX46Y46*%
G04 Gerber Fmt 4.6, Leading zero omitted, Abs format (unit mm)*
G04 Created by KiCad (PCBNEW 7.0.7) date 2023-12-28 18:43:45*
%MOMM*%
%LPD*%
G01*
G04 APERTURE LIST*
G04 Aperture macros list*
%AMRoundRect*
0 Rectangle with rounded corners*
0 $1 Rounding radius*
0 $2 $3 $4 $5 $6 $7 $8 $9 X,Y pos of 4 corners*
0 Add a 4 corners polygon primitive as box body*
4,1,4,$2,$3,$4,$5,$6,$7,$8,$9,$2,$3,0*
0 Add four circle primitives for the rounded corners*
1,1,$1+$1,$2,$3*
1,1,$1+$1,$4,$5*
1,1,$1+$1,$6,$7*
1,1,$1+$1,$8,$9*
0 Add four rect primitives between the rounded corners*
20,1,$1+$1,$2,$3,$4,$5,0*
20,1,$1+$1,$4,$5,$6,$7,0*
20,1,$1+$1,$6,$7,$8,$9,0*
20,1,$1+$1,$8,$9,$2,$3,0*%
G04 Aperture macros list end*
%ADD10RoundRect,0.150000X0.150000X-0.600000X0.150000X0.600000X-0.150000X0.600000X-0.150000X-0.600000X0*%
%ADD11RoundRect,0.140000X0.140000X0.170000X-0.140000X0.170000X-0.140000X-0.170000X0.140000X-0.170000X0*%
%ADD12RoundRect,0.269607X-1.105393X-1.105393X1.105393X-1.105393X1.105393X1.105393X-1.105393X1.105393X0*%
%ADD13RoundRect,0.135000X0.135000X0.185000X-0.135000X0.185000X-0.135000X-0.185000X0.135000X-0.185000X0*%
%ADD14RoundRect,0.250000X-0.475000X0.250000X-0.475000X-0.250000X0.475000X-0.250000X0.475000X0.250000X0*%
%ADD15RoundRect,0.135000X-0.135000X-0.185000X0.135000X-0.185000X0.135000X0.185000X-0.135000X0.185000X0*%
%ADD16RoundRect,0.140000X-0.140000X-0.170000X0.140000X-0.170000X0.140000X0.170000X-0.140000X0.170000X0*%
%ADD17RoundRect,0.250000X0.475000X-0.250000X0.475000X0.250000X-0.475000X0.250000X-0.475000X-0.250000X0*%
%ADD18R,0.711200X0.254000*%
%ADD19R,0.254000X0.711200*%
%ADD20R,1.701800X1.701800*%
%ADD21RoundRect,0.135000X-0.185000X0.135000X-0.185000X-0.135000X0.185000X-0.135000X0.185000X0.135000X0*%
%ADD22RoundRect,0.050000X0.272236X-0.130815X-0.130815X0.272236X-0.272236X0.130815X0.130815X-0.272236X0*%
%ADD23RoundRect,0.140000X0.170000X-0.140000X0.170000X0.140000X-0.170000X0.140000X-0.170000X-0.140000X0*%
%ADD24RoundRect,0.140000X-0.170000X0.140000X-0.170000X-0.140000X0.170000X-0.140000X0.170000X0.140000X0*%
%ADD25RoundRect,0.250000X0.250000X0.475000X-0.250000X0.475000X-0.250000X-0.475000X0.250000X-0.475000X0*%
%ADD26R,1.550000X0.600000*%
%ADD27R,1.800000X1.200000*%
%ADD28RoundRect,0.250000X0.600000X1.450000X-0.600000X1.450000X-0.600000X-1.450000X0.600000X-1.450000X0*%
%ADD29RoundRect,0.150000X0.150000X0.600000X-0.150000X0.600000X-0.150000X-0.600000X0.150000X-0.600000X0*%
%ADD30R,0.250000X0.500000*%
%ADD31RoundRect,0.135000X0.185000X-0.135000X0.185000X0.135000X-0.185000X0.135000X-0.185000X-0.135000X0*%
G04 APERTURE END LIST*
D10*
%TO.C,J5*%
X9985000Y20250000D03*
X8715000Y20250000D03*
%TD*%
D11*
%TO.C,C58*%
X4750000Y4250000D03*
X5710000Y4250000D03*
%TD*%
D12*
%TO.C,J3*%
X25350000Y9950000D03*
%TD*%
%TO.C,J11*%
X25350000Y13750000D03*
%TD*%
%TO.C,J2*%
X19950000Y25400000D03*
%TD*%
%TO.C,J4*%
X25350000Y17150000D03*
%TD*%
%TO.C,J10*%
X25350000Y20950000D03*
%TD*%
%TO.C,J1*%
X19950000Y1600000D03*
%TD*%
%TO.C,J12*%
X25350000Y6550000D03*
%TD*%
D13*
%TO.C,R24*%
X14635000Y19150000D03*
X13615000Y19150000D03*
%TD*%
D11*
%TO.C,C13*%
X26485000Y19050000D03*
X25525000Y19050000D03*
%TD*%
%TO.C,C18*%
X18780000Y9850000D03*
X17820000Y9850000D03*
%TD*%
D14*
%TO.C,C50*%
X15000000Y2650000D03*
X15000000Y750000D03*
%TD*%
D15*
%TO.C,R9*%
X11640000Y10950000D03*
X12660000Y10950000D03*
%TD*%
D13*
%TO.C,R15*%
X14635000Y21990000D03*
X13615000Y21990000D03*
%TD*%
D16*
%TO.C,C11*%
X12770000Y16050000D03*
X13730000Y16050000D03*
%TD*%
D17*
%TO.C,C45*%
X9000000Y24350000D03*
X9000000Y26250000D03*
%TD*%
%TO.C,C42*%
X15000000Y24350000D03*
X15000000Y26250000D03*
%TD*%
D16*
%TO.C,C12*%
X13645000Y22950000D03*
X14605000Y22950000D03*
%TD*%
D11*
%TO.C,C19*%
X26480000Y4650000D03*
X25520000Y4650000D03*
%TD*%
D18*
%TO.C,U3*%
X14950000Y14250001D03*
X14950000Y13750000D03*
X14950000Y13250000D03*
X14950000Y12749999D03*
D19*
X14250001Y12050000D03*
X13750000Y12050000D03*
X13250000Y12050000D03*
X12749999Y12050000D03*
D18*
X12050000Y12749999D03*
X12050000Y13250000D03*
X12050000Y13750000D03*
X12050000Y14250001D03*
D19*
X12749999Y14950000D03*
X13250000Y14950000D03*
X13750000Y14950000D03*
X14250001Y14950000D03*
D20*
X13500000Y13500000D03*
%TD*%
D21*
%TO.C,R17*%
X12200000Y22010000D03*
X12200000Y20990000D03*
%TD*%
D22*
%TO.C,U2*%
X7953589Y13957071D03*
X7600036Y13603518D03*
X7246482Y13249964D03*
X6892929Y12896411D03*
X5846411Y13942929D03*
X6199964Y14296482D03*
X6553518Y14650036D03*
X6907071Y15003589D03*
%TD*%
D23*
%TO.C,C9*%
X6500000Y19820000D03*
X6500000Y20780000D03*
%TD*%
D17*
%TO.C,C43*%
X13000000Y24350000D03*
X13000000Y26250000D03*
%TD*%
D15*
%TO.C,R5*%
X13615000Y20100000D03*
X14635000Y20100000D03*
%TD*%
D24*
%TO.C,C8*%
X10450000Y12130000D03*
X10450000Y11170000D03*
%TD*%
D14*
%TO.C,C53*%
X9000000Y2650000D03*
X9000000Y750000D03*
%TD*%
D17*
%TO.C,C46*%
X7000000Y24350000D03*
X7000000Y26250000D03*
%TD*%
%TO.C,C44*%
X11000000Y24350000D03*
X11000000Y26250000D03*
%TD*%
D25*
%TO.C,C48*%
X7550000Y22600000D03*
X5650000Y22600000D03*
%TD*%
D13*
%TO.C,R33*%
X14610000Y7500000D03*
X13590000Y7500000D03*
%TD*%
D25*
%TO.C,C47*%
X10950000Y22600000D03*
X9050000Y22600000D03*
%TD*%
D21*
%TO.C,R25*%
X6300000Y18010000D03*
X6300000Y16990000D03*
%TD*%
D26*
%TO.C,J6*%
X5000000Y6450000D03*
X5000000Y7450000D03*
X5000000Y8450000D03*
X5000000Y9450000D03*
D27*
X1125000Y5150000D03*
X1125000Y10750000D03*
%TD*%
D11*
%TO.C,C16*%
X26500000Y11850000D03*
X25540000Y11850000D03*
%TD*%
D28*
%TO.C,R36*%
X22650000Y7450000D03*
X17250000Y7450000D03*
%TD*%
D14*
%TO.C,C52*%
X11000000Y2650000D03*
X11000000Y750000D03*
%TD*%
D21*
%TO.C,R34*%
X8050000Y18310000D03*
X8050000Y17290000D03*
%TD*%
D29*
%TO.C,TP3*%
X5150000Y1750000D03*
%TD*%
D26*
%TO.C,J9*%
X4980000Y15000000D03*
X4980000Y16000000D03*
D27*
X1105000Y13700000D03*
X1105000Y17300000D03*
%TD*%
D13*
%TO.C,R21*%
X24660000Y11850000D03*
X23640000Y11850000D03*
%TD*%
D17*
%TO.C,C56*%
X10650000Y4150000D03*
X10650000Y6050000D03*
%TD*%
D11*
%TO.C,C15*%
X18750000Y16650000D03*
X17790000Y16650000D03*
%TD*%
D15*
%TO.C,R3*%
X13615000Y21040000D03*
X14635000Y21040000D03*
%TD*%
D21*
%TO.C,R14*%
X11350000Y8560000D03*
X11350000Y7540000D03*
%TD*%
D14*
%TO.C,C51*%
X13000000Y2650000D03*
X13000000Y750000D03*
%TD*%
D13*
%TO.C,R30*%
X24660000Y4650000D03*
X23640000Y4650000D03*
%TD*%
D21*
%TO.C,R32*%
X8050000Y16410000D03*
X8050000Y15390000D03*
%TD*%
D13*
%TO.C,R26*%
X12760000Y17850000D03*
X11740000Y17850000D03*
%TD*%
D26*
%TO.C,J8*%
X4980000Y20000000D03*
X4980000Y21000000D03*
D27*
X1105000Y18700000D03*
X1105000Y22300000D03*
%TD*%
D15*
%TO.C,R6*%
X13590000Y9100000D03*
X14610000Y9100000D03*
%TD*%
D28*
%TO.C,R18*%
X22650000Y21450000D03*
X17250000Y21450000D03*
%TD*%
D13*
%TO.C,R35*%
X14610000Y6500000D03*
X13590000Y6500000D03*
%TD*%
D17*
%TO.C,C41*%
X17000000Y24350000D03*
X17000000Y26250000D03*
%TD*%
D14*
%TO.C,C54*%
X7000000Y2650000D03*
X7000000Y750000D03*
%TD*%
D30*
%TO.C,D2*%
X19975000Y9850000D03*
X20625000Y9850000D03*
%TD*%
D15*
%TO.C,R16*%
X8790000Y7850000D03*
X9810000Y7850000D03*
%TD*%
D13*
%TO.C,R12*%
X24665000Y19050000D03*
X23645000Y19050000D03*
%TD*%
D21*
%TO.C,R7*%
X7450000Y20810000D03*
X7450000Y19790000D03*
%TD*%
D17*
%TO.C,C57*%
X8650000Y4150000D03*
X8650000Y6050000D03*
%TD*%
D25*
%TO.C,C55*%
X14300000Y4400000D03*
X12400000Y4400000D03*
%TD*%
D29*
%TO.C,TP1*%
X5050000Y25200000D03*
%TD*%
D31*
%TO.C,R23*%
X5300000Y16990000D03*
X5300000Y18010000D03*
%TD*%
D14*
%TO.C,C49*%
X17000000Y2650000D03*
X17000000Y750000D03*
%TD*%
D28*
%TO.C,R27*%
X22650000Y14250000D03*
X17250000Y14250000D03*
%TD*%
M02*
