%TF.GenerationSoftware,KiCad,Pcbnew,7.0.7*%
%TF.CreationDate,2023-12-28T18:43:45-05:00*%
%TF.ProjectId,O32controller,4f333263-6f6e-4747-926f-6c6c65722e6b,3*%
%TF.SameCoordinates,Original*%
%TF.FileFunction,Legend,Bot*%
%TF.FilePolarity,Positive*%
%FSLAX46Y46*%
G04 Gerber Fmt 4.6, Leading zero omitted, Abs format (unit mm)*
G04 Created by KiCad (PCBNEW 7.0.7) date 2023-12-28 18:43:45*
%MOMM*%
%LPD*%
G01*
G04 APERTURE LIST*
G04 Aperture macros list*
%AMRoundRect*
0 Rectangle with rounded corners*
0 $1 Rounding radius*
0 $2 $3 $4 $5 $6 $7 $8 $9 X,Y pos of 4 corners*
0 Add a 4 corners polygon primitive as box body*
4,1,4,$2,$3,$4,$5,$6,$7,$8,$9,$2,$3,0*
0 Add four circle primitives for the rounded corners*
1,1,$1+$1,$2,$3*
1,1,$1+$1,$4,$5*
1,1,$1+$1,$6,$7*
1,1,$1+$1,$8,$9*
0 Add four rect primitives between the rounded corners*
20,1,$1+$1,$2,$3,$4,$5,0*
20,1,$1+$1,$4,$5,$6,$7,0*
20,1,$1+$1,$6,$7,$8,$9,0*
20,1,$1+$1,$8,$9,$2,$3,0*%
G04 Aperture macros list end*
%ADD10C,0.150000*%
%ADD11C,0.120000*%
%ADD12C,0.200000*%
%ADD13C,0.199999*%
%ADD14C,0.127000*%
%ADD15C,0.300000*%
%ADD16C,0.254000*%
%ADD17RoundRect,0.150000X0.150000X-0.600000X0.150000X0.600000X-0.150000X0.600000X-0.150000X-0.600000X0*%
%ADD18RoundRect,0.140000X0.140000X0.170000X-0.140000X0.170000X-0.140000X-0.170000X0.140000X-0.170000X0*%
%ADD19RoundRect,0.269607X-1.105393X-1.105393X1.105393X-1.105393X1.105393X1.105393X-1.105393X1.105393X0*%
%ADD20RoundRect,0.135000X0.135000X0.185000X-0.135000X0.185000X-0.135000X-0.185000X0.135000X-0.185000X0*%
%ADD21RoundRect,0.250000X-0.475000X0.250000X-0.475000X-0.250000X0.475000X-0.250000X0.475000X0.250000X0*%
%ADD22RoundRect,0.135000X-0.135000X-0.185000X0.135000X-0.185000X0.135000X0.185000X-0.135000X0.185000X0*%
%ADD23RoundRect,0.140000X-0.140000X-0.170000X0.140000X-0.170000X0.140000X0.170000X-0.140000X0.170000X0*%
%ADD24RoundRect,0.250000X0.475000X-0.250000X0.475000X0.250000X-0.475000X0.250000X-0.475000X-0.250000X0*%
%ADD25R,0.711200X0.254000*%
%ADD26R,0.254000X0.711200*%
%ADD27R,1.701800X1.701800*%
%ADD28RoundRect,0.135000X-0.185000X0.135000X-0.185000X-0.135000X0.185000X-0.135000X0.185000X0.135000X0*%
%ADD29RoundRect,0.050000X0.272236X-0.130815X-0.130815X0.272236X-0.272236X0.130815X0.130815X-0.272236X0*%
%ADD30RoundRect,0.140000X0.170000X-0.140000X0.170000X0.140000X-0.170000X0.140000X-0.170000X-0.140000X0*%
%ADD31RoundRect,0.140000X-0.170000X0.140000X-0.170000X-0.140000X0.170000X-0.140000X0.170000X0.140000X0*%
%ADD32RoundRect,0.250000X0.250000X0.475000X-0.250000X0.475000X-0.250000X-0.475000X0.250000X-0.475000X0*%
%ADD33R,1.550000X0.600000*%
%ADD34R,1.800000X1.200000*%
%ADD35RoundRect,0.250000X0.600000X1.450000X-0.600000X1.450000X-0.600000X-1.450000X0.600000X-1.450000X0*%
%ADD36RoundRect,0.150000X0.150000X0.600000X-0.150000X0.600000X-0.150000X-0.600000X0.150000X-0.600000X0*%
%ADD37R,0.250000X0.500000*%
%ADD38RoundRect,0.135000X0.185000X-0.135000X0.185000X0.135000X-0.185000X0.135000X-0.185000X-0.135000X0*%
G04 APERTURE END LIST*
D10*
X8551190Y11737705D02*
X8817857Y12118658D01*
X9008333Y11737705D02*
X9008333Y12537705D01*
X9008333Y12537705D02*
X8703571Y12537705D01*
X8703571Y12537705D02*
X8627381Y12499610D01*
X8627381Y12499610D02*
X8589286Y12461515D01*
X8589286Y12461515D02*
X8551190Y12385324D01*
X8551190Y12385324D02*
X8551190Y12271039D01*
X8551190Y12271039D02*
X8589286Y12194848D01*
X8589286Y12194848D02*
X8627381Y12156753D01*
X8627381Y12156753D02*
X8703571Y12118658D01*
X8703571Y12118658D02*
X9008333Y12118658D01*
X8246429Y11775800D02*
X8132143Y11737705D01*
X8132143Y11737705D02*
X7941667Y11737705D01*
X7941667Y11737705D02*
X7865476Y11775800D01*
X7865476Y11775800D02*
X7827381Y11813896D01*
X7827381Y11813896D02*
X7789286Y11890086D01*
X7789286Y11890086D02*
X7789286Y11966277D01*
X7789286Y11966277D02*
X7827381Y12042467D01*
X7827381Y12042467D02*
X7865476Y12080562D01*
X7865476Y12080562D02*
X7941667Y12118658D01*
X7941667Y12118658D02*
X8094048Y12156753D01*
X8094048Y12156753D02*
X8170238Y12194848D01*
X8170238Y12194848D02*
X8208333Y12232943D01*
X8208333Y12232943D02*
X8246429Y12309134D01*
X8246429Y12309134D02*
X8246429Y12385324D01*
X8246429Y12385324D02*
X8208333Y12461515D01*
X8208333Y12461515D02*
X8170238Y12499610D01*
X8170238Y12499610D02*
X8094048Y12537705D01*
X8094048Y12537705D02*
X7903571Y12537705D01*
X7903571Y12537705D02*
X7789286Y12499610D01*
X7103571Y12271039D02*
X7103571Y11737705D01*
X7294047Y12575800D02*
X7484524Y12004372D01*
X7484524Y12004372D02*
X6989285Y12004372D01*
X6570238Y12194848D02*
X6646428Y12232943D01*
X6646428Y12232943D02*
X6684523Y12271039D01*
X6684523Y12271039D02*
X6722619Y12347229D01*
X6722619Y12347229D02*
X6722619Y12385324D01*
X6722619Y12385324D02*
X6684523Y12461515D01*
X6684523Y12461515D02*
X6646428Y12499610D01*
X6646428Y12499610D02*
X6570238Y12537705D01*
X6570238Y12537705D02*
X6417857Y12537705D01*
X6417857Y12537705D02*
X6341666Y12499610D01*
X6341666Y12499610D02*
X6303571Y12461515D01*
X6303571Y12461515D02*
X6265476Y12385324D01*
X6265476Y12385324D02*
X6265476Y12347229D01*
X6265476Y12347229D02*
X6303571Y12271039D01*
X6303571Y12271039D02*
X6341666Y12232943D01*
X6341666Y12232943D02*
X6417857Y12194848D01*
X6417857Y12194848D02*
X6570238Y12194848D01*
X6570238Y12194848D02*
X6646428Y12156753D01*
X6646428Y12156753D02*
X6684523Y12118658D01*
X6684523Y12118658D02*
X6722619Y12042467D01*
X6722619Y12042467D02*
X6722619Y11890086D01*
X6722619Y11890086D02*
X6684523Y11813896D01*
X6684523Y11813896D02*
X6646428Y11775800D01*
X6646428Y11775800D02*
X6570238Y11737705D01*
X6570238Y11737705D02*
X6417857Y11737705D01*
X6417857Y11737705D02*
X6341666Y11775800D01*
X6341666Y11775800D02*
X6303571Y11813896D01*
X6303571Y11813896D02*
X6265476Y11890086D01*
X6265476Y11890086D02*
X6265476Y12042467D01*
X6265476Y12042467D02*
X6303571Y12118658D01*
X6303571Y12118658D02*
X6341666Y12156753D01*
X6341666Y12156753D02*
X6417857Y12194848D01*
X5541666Y12537705D02*
X5922618Y12537705D01*
X5922618Y12537705D02*
X5960714Y12156753D01*
X5960714Y12156753D02*
X5922618Y12194848D01*
X5922618Y12194848D02*
X5846428Y12232943D01*
X5846428Y12232943D02*
X5655952Y12232943D01*
X5655952Y12232943D02*
X5579761Y12194848D01*
X5579761Y12194848D02*
X5541666Y12156753D01*
X5541666Y12156753D02*
X5503571Y12080562D01*
X5503571Y12080562D02*
X5503571Y11890086D01*
X5503571Y11890086D02*
X5541666Y11813896D01*
X5541666Y11813896D02*
X5579761Y11775800D01*
X5579761Y11775800D02*
X5655952Y11737705D01*
X5655952Y11737705D02*
X5846428Y11737705D01*
X5846428Y11737705D02*
X5922618Y11775800D01*
X5922618Y11775800D02*
X5960714Y11813896D01*
X4186000Y2186000D02*
G75*
G03*
X4186000Y2186000I-2000000J0D01*
G01*
X26814000Y2186000D02*
G75*
G03*
X26814000Y2186000I-2000000J0D01*
G01*
X4186000Y24814000D02*
G75*
G03*
X4186000Y24814000I-2000000J0D01*
G01*
X29500000Y13500000D02*
G75*
G03*
X29500000Y13500000I-16000000J0D01*
G01*
X26814000Y24814000D02*
G75*
G03*
X26814000Y24814000I-2000000J0D01*
G01*
X6542857Y16206753D02*
X6428571Y16168658D01*
X6428571Y16168658D02*
X6390476Y16130562D01*
X6390476Y16130562D02*
X6352380Y16054372D01*
X6352380Y16054372D02*
X6352380Y15940086D01*
X6352380Y15940086D02*
X6390476Y15863896D01*
X6390476Y15863896D02*
X6428571Y15825800D01*
X6428571Y15825800D02*
X6504761Y15787705D01*
X6504761Y15787705D02*
X6809523Y15787705D01*
X6809523Y15787705D02*
X6809523Y16587705D01*
X6809523Y16587705D02*
X6542857Y16587705D01*
X6542857Y16587705D02*
X6466666Y16549610D01*
X6466666Y16549610D02*
X6428571Y16511515D01*
X6428571Y16511515D02*
X6390476Y16435324D01*
X6390476Y16435324D02*
X6390476Y16359134D01*
X6390476Y16359134D02*
X6428571Y16282943D01*
X6428571Y16282943D02*
X6466666Y16244848D01*
X6466666Y16244848D02*
X6542857Y16206753D01*
X6542857Y16206753D02*
X6809523Y16206753D01*
X7309523Y6662705D02*
X6852380Y6662705D01*
X7080952Y5862705D02*
X7080952Y6662705D01*
X6661904Y6662705D02*
X6128570Y5862705D01*
X6128570Y6662705D02*
X6661904Y5862705D01*
X21752381Y4237705D02*
X22209524Y4237705D01*
X21980952Y4237705D02*
X21980952Y5037705D01*
X21980952Y5037705D02*
X22057143Y4923420D01*
X22057143Y4923420D02*
X22133333Y4847229D01*
X22133333Y4847229D02*
X22209524Y4809134D01*
X21066666Y5037705D02*
X21219047Y5037705D01*
X21219047Y5037705D02*
X21295238Y4999610D01*
X21295238Y4999610D02*
X21333333Y4961515D01*
X21333333Y4961515D02*
X21409523Y4847229D01*
X21409523Y4847229D02*
X21447619Y4694848D01*
X21447619Y4694848D02*
X21447619Y4390086D01*
X21447619Y4390086D02*
X21409523Y4313896D01*
X21409523Y4313896D02*
X21371428Y4275800D01*
X21371428Y4275800D02*
X21295238Y4237705D01*
X21295238Y4237705D02*
X21142857Y4237705D01*
X21142857Y4237705D02*
X21066666Y4275800D01*
X21066666Y4275800D02*
X21028571Y4313896D01*
X21028571Y4313896D02*
X20990476Y4390086D01*
X20990476Y4390086D02*
X20990476Y4580562D01*
X20990476Y4580562D02*
X21028571Y4656753D01*
X21028571Y4656753D02*
X21066666Y4694848D01*
X21066666Y4694848D02*
X21142857Y4732943D01*
X21142857Y4732943D02*
X21295238Y4732943D01*
X21295238Y4732943D02*
X21371428Y4694848D01*
X21371428Y4694848D02*
X21409523Y4656753D01*
X21409523Y4656753D02*
X21447619Y4580562D01*
X20685714Y4466277D02*
X20304761Y4466277D01*
X20761904Y4237705D02*
X20495237Y5037705D01*
X20495237Y5037705D02*
X20228571Y4237705D01*
X20038095Y5037705D02*
X19847619Y4237705D01*
X19847619Y4237705D02*
X19695238Y4809134D01*
X19695238Y4809134D02*
X19542857Y4237705D01*
X19542857Y4237705D02*
X19352381Y5037705D01*
X18628571Y4999610D02*
X18704761Y5037705D01*
X18704761Y5037705D02*
X18819047Y5037705D01*
X18819047Y5037705D02*
X18933333Y4999610D01*
X18933333Y4999610D02*
X19009523Y4923420D01*
X19009523Y4923420D02*
X19047618Y4847229D01*
X19047618Y4847229D02*
X19085714Y4694848D01*
X19085714Y4694848D02*
X19085714Y4580562D01*
X19085714Y4580562D02*
X19047618Y4428181D01*
X19047618Y4428181D02*
X19009523Y4351991D01*
X19009523Y4351991D02*
X18933333Y4275800D01*
X18933333Y4275800D02*
X18819047Y4237705D01*
X18819047Y4237705D02*
X18742856Y4237705D01*
X18742856Y4237705D02*
X18628571Y4275800D01*
X18628571Y4275800D02*
X18590475Y4313896D01*
X18590475Y4313896D02*
X18590475Y4580562D01*
X18590475Y4580562D02*
X18742856Y4580562D01*
X7501189Y8213896D02*
X7539285Y8175800D01*
X7539285Y8175800D02*
X7653570Y8137705D01*
X7653570Y8137705D02*
X7729761Y8137705D01*
X7729761Y8137705D02*
X7844047Y8175800D01*
X7844047Y8175800D02*
X7920237Y8251991D01*
X7920237Y8251991D02*
X7958332Y8328181D01*
X7958332Y8328181D02*
X7996428Y8480562D01*
X7996428Y8480562D02*
X7996428Y8594848D01*
X7996428Y8594848D02*
X7958332Y8747229D01*
X7958332Y8747229D02*
X7920237Y8823420D01*
X7920237Y8823420D02*
X7844047Y8899610D01*
X7844047Y8899610D02*
X7729761Y8937705D01*
X7729761Y8937705D02*
X7653570Y8937705D01*
X7653570Y8937705D02*
X7539285Y8899610D01*
X7539285Y8899610D02*
X7501189Y8861515D01*
X6777380Y8137705D02*
X7158332Y8137705D01*
X7158332Y8137705D02*
X7158332Y8937705D01*
X6510713Y8137705D02*
X6510713Y8937705D01*
X6053570Y8137705D02*
X6396428Y8594848D01*
X6053570Y8937705D02*
X6510713Y8480562D01*
X6315476Y15316277D02*
X5934523Y15316277D01*
X6391666Y15087705D02*
X6124999Y15887705D01*
X6124999Y15887705D02*
X5858333Y15087705D01*
X16627380Y10662705D02*
X16627380Y11462705D01*
X16627380Y11462705D02*
X16360714Y10891277D01*
X16360714Y10891277D02*
X16094047Y11462705D01*
X16094047Y11462705D02*
X16094047Y10662705D01*
X15751190Y10891277D02*
X15370237Y10891277D01*
X15827380Y10662705D02*
X15560713Y11462705D01*
X15560713Y11462705D02*
X15294047Y10662705D01*
X15103571Y11462705D02*
X14570237Y11462705D01*
X14570237Y11462705D02*
X14913095Y10662705D01*
X14113094Y11462705D02*
X14036904Y11462705D01*
X14036904Y11462705D02*
X13960713Y11424610D01*
X13960713Y11424610D02*
X13922618Y11386515D01*
X13922618Y11386515D02*
X13884523Y11310324D01*
X13884523Y11310324D02*
X13846428Y11157943D01*
X13846428Y11157943D02*
X13846428Y10967467D01*
X13846428Y10967467D02*
X13884523Y10815086D01*
X13884523Y10815086D02*
X13922618Y10738896D01*
X13922618Y10738896D02*
X13960713Y10700800D01*
X13960713Y10700800D02*
X14036904Y10662705D01*
X14036904Y10662705D02*
X14113094Y10662705D01*
X14113094Y10662705D02*
X14189285Y10700800D01*
X14189285Y10700800D02*
X14227380Y10738896D01*
X14227380Y10738896D02*
X14265475Y10815086D01*
X14265475Y10815086D02*
X14303571Y10967467D01*
X14303571Y10967467D02*
X14303571Y11157943D01*
X14303571Y11157943D02*
X14265475Y11310324D01*
X14265475Y11310324D02*
X14227380Y11386515D01*
X14227380Y11386515D02*
X14189285Y11424610D01*
X14189285Y11424610D02*
X14113094Y11462705D01*
X13541666Y11386515D02*
X13503570Y11424610D01*
X13503570Y11424610D02*
X13427380Y11462705D01*
X13427380Y11462705D02*
X13236904Y11462705D01*
X13236904Y11462705D02*
X13160713Y11424610D01*
X13160713Y11424610D02*
X13122618Y11386515D01*
X13122618Y11386515D02*
X13084523Y11310324D01*
X13084523Y11310324D02*
X13084523Y11234134D01*
X13084523Y11234134D02*
X13122618Y11119848D01*
X13122618Y11119848D02*
X13579761Y10662705D01*
X13579761Y10662705D02*
X13084523Y10662705D01*
X5563094Y2737705D02*
X5829761Y3118658D01*
X6020237Y2737705D02*
X6020237Y3537705D01*
X6020237Y3537705D02*
X5715475Y3537705D01*
X5715475Y3537705D02*
X5639285Y3499610D01*
X5639285Y3499610D02*
X5601190Y3461515D01*
X5601190Y3461515D02*
X5563094Y3385324D01*
X5563094Y3385324D02*
X5563094Y3271039D01*
X5563094Y3271039D02*
X5601190Y3194848D01*
X5601190Y3194848D02*
X5639285Y3156753D01*
X5639285Y3156753D02*
X5715475Y3118658D01*
X5715475Y3118658D02*
X6020237Y3118658D01*
X5258333Y2775800D02*
X5144047Y2737705D01*
X5144047Y2737705D02*
X4953571Y2737705D01*
X4953571Y2737705D02*
X4877380Y2775800D01*
X4877380Y2775800D02*
X4839285Y2813896D01*
X4839285Y2813896D02*
X4801190Y2890086D01*
X4801190Y2890086D02*
X4801190Y2966277D01*
X4801190Y2966277D02*
X4839285Y3042467D01*
X4839285Y3042467D02*
X4877380Y3080562D01*
X4877380Y3080562D02*
X4953571Y3118658D01*
X4953571Y3118658D02*
X5105952Y3156753D01*
X5105952Y3156753D02*
X5182142Y3194848D01*
X5182142Y3194848D02*
X5220237Y3232943D01*
X5220237Y3232943D02*
X5258333Y3309134D01*
X5258333Y3309134D02*
X5258333Y3385324D01*
X5258333Y3385324D02*
X5220237Y3461515D01*
X5220237Y3461515D02*
X5182142Y3499610D01*
X5182142Y3499610D02*
X5105952Y3537705D01*
X5105952Y3537705D02*
X4915475Y3537705D01*
X4915475Y3537705D02*
X4801190Y3499610D01*
X4572618Y3537705D02*
X4115475Y3537705D01*
X4344047Y2737705D02*
X4344047Y3537705D01*
X7044046Y7012705D02*
X7044046Y7812705D01*
X6510713Y7812705D02*
X6358332Y7812705D01*
X6358332Y7812705D02*
X6282142Y7774610D01*
X6282142Y7774610D02*
X6205951Y7698420D01*
X6205951Y7698420D02*
X6167856Y7546039D01*
X6167856Y7546039D02*
X6167856Y7279372D01*
X6167856Y7279372D02*
X6205951Y7126991D01*
X6205951Y7126991D02*
X6282142Y7050800D01*
X6282142Y7050800D02*
X6358332Y7012705D01*
X6358332Y7012705D02*
X6510713Y7012705D01*
X6510713Y7012705D02*
X6586904Y7050800D01*
X6586904Y7050800D02*
X6663094Y7126991D01*
X6663094Y7126991D02*
X6701190Y7279372D01*
X6701190Y7279372D02*
X6701190Y7546039D01*
X6701190Y7546039D02*
X6663094Y7698420D01*
X6663094Y7698420D02*
X6586904Y7774610D01*
X6586904Y7774610D02*
X6510713Y7812705D01*
X7659523Y10124610D02*
X7735713Y10162705D01*
X7735713Y10162705D02*
X7849999Y10162705D01*
X7849999Y10162705D02*
X7964285Y10124610D01*
X7964285Y10124610D02*
X8040475Y10048420D01*
X8040475Y10048420D02*
X8078570Y9972229D01*
X8078570Y9972229D02*
X8116666Y9819848D01*
X8116666Y9819848D02*
X8116666Y9705562D01*
X8116666Y9705562D02*
X8078570Y9553181D01*
X8078570Y9553181D02*
X8040475Y9476991D01*
X8040475Y9476991D02*
X7964285Y9400800D01*
X7964285Y9400800D02*
X7849999Y9362705D01*
X7849999Y9362705D02*
X7773808Y9362705D01*
X7773808Y9362705D02*
X7659523Y9400800D01*
X7659523Y9400800D02*
X7621427Y9438896D01*
X7621427Y9438896D02*
X7621427Y9705562D01*
X7621427Y9705562D02*
X7773808Y9705562D01*
X7278570Y9362705D02*
X7278570Y10162705D01*
X7278570Y10162705D02*
X6821427Y9362705D01*
X6821427Y9362705D02*
X6821427Y10162705D01*
X6440475Y9362705D02*
X6440475Y10162705D01*
X6440475Y10162705D02*
X6249999Y10162705D01*
X6249999Y10162705D02*
X6135713Y10124610D01*
X6135713Y10124610D02*
X6059523Y10048420D01*
X6059523Y10048420D02*
X6021428Y9972229D01*
X6021428Y9972229D02*
X5983332Y9819848D01*
X5983332Y9819848D02*
X5983332Y9705562D01*
X5983332Y9705562D02*
X6021428Y9553181D01*
X6021428Y9553181D02*
X6059523Y9476991D01*
X6059523Y9476991D02*
X6135713Y9400800D01*
X6135713Y9400800D02*
X6249999Y9362705D01*
X6249999Y9362705D02*
X6440475Y9362705D01*
X5664285Y23487705D02*
X6045237Y23487705D01*
X6045237Y23487705D02*
X6045237Y24287705D01*
X5397618Y23906753D02*
X5130952Y23906753D01*
X5016666Y23487705D02*
X5397618Y23487705D01*
X5397618Y23487705D02*
X5397618Y24287705D01*
X5397618Y24287705D02*
X5016666Y24287705D01*
X4673808Y23487705D02*
X4673808Y24287705D01*
X4673808Y24287705D02*
X4483332Y24287705D01*
X4483332Y24287705D02*
X4369046Y24249610D01*
X4369046Y24249610D02*
X4292856Y24173420D01*
X4292856Y24173420D02*
X4254761Y24097229D01*
X4254761Y24097229D02*
X4216665Y23944848D01*
X4216665Y23944848D02*
X4216665Y23830562D01*
X4216665Y23830562D02*
X4254761Y23678181D01*
X4254761Y23678181D02*
X4292856Y23601991D01*
X4292856Y23601991D02*
X4369046Y23525800D01*
X4369046Y23525800D02*
X4483332Y23487705D01*
X4483332Y23487705D02*
X4673808Y23487705D01*
X10583332Y18537705D02*
X10583332Y19337705D01*
X10583332Y19337705D02*
X10126189Y18537705D01*
X10126189Y18537705D02*
X10126189Y19337705D01*
X9859523Y19337705D02*
X9402380Y19337705D01*
X9630952Y18537705D02*
X9630952Y19337705D01*
X8678570Y18613896D02*
X8716666Y18575800D01*
X8716666Y18575800D02*
X8830951Y18537705D01*
X8830951Y18537705D02*
X8907142Y18537705D01*
X8907142Y18537705D02*
X9021428Y18575800D01*
X9021428Y18575800D02*
X9097618Y18651991D01*
X9097618Y18651991D02*
X9135713Y18728181D01*
X9135713Y18728181D02*
X9173809Y18880562D01*
X9173809Y18880562D02*
X9173809Y18994848D01*
X9173809Y18994848D02*
X9135713Y19147229D01*
X9135713Y19147229D02*
X9097618Y19223420D01*
X9097618Y19223420D02*
X9021428Y19299610D01*
X9021428Y19299610D02*
X8907142Y19337705D01*
X8907142Y19337705D02*
X8830951Y19337705D01*
X8830951Y19337705D02*
X8716666Y19299610D01*
X8716666Y19299610D02*
X8678570Y19261515D01*
X22561905Y11761515D02*
X22523809Y11799610D01*
X22523809Y11799610D02*
X22447619Y11837705D01*
X22447619Y11837705D02*
X22257143Y11837705D01*
X22257143Y11837705D02*
X22180952Y11799610D01*
X22180952Y11799610D02*
X22142857Y11761515D01*
X22142857Y11761515D02*
X22104762Y11685324D01*
X22104762Y11685324D02*
X22104762Y11609134D01*
X22104762Y11609134D02*
X22142857Y11494848D01*
X22142857Y11494848D02*
X22600000Y11037705D01*
X22600000Y11037705D02*
X22104762Y11037705D01*
X21761904Y11037705D02*
X21761904Y11571039D01*
X21761904Y11494848D02*
X21723809Y11532943D01*
X21723809Y11532943D02*
X21647619Y11571039D01*
X21647619Y11571039D02*
X21533333Y11571039D01*
X21533333Y11571039D02*
X21457142Y11532943D01*
X21457142Y11532943D02*
X21419047Y11456753D01*
X21419047Y11456753D02*
X21419047Y11037705D01*
X21419047Y11456753D02*
X21380952Y11532943D01*
X21380952Y11532943D02*
X21304761Y11571039D01*
X21304761Y11571039D02*
X21190476Y11571039D01*
X21190476Y11571039D02*
X21114285Y11532943D01*
X21114285Y11532943D02*
X21076190Y11456753D01*
X21076190Y11456753D02*
X21076190Y11037705D01*
X20733333Y11037705D02*
X20542856Y11037705D01*
X20542856Y11037705D02*
X20542856Y11190086D01*
X20542856Y11190086D02*
X20619047Y11228181D01*
X20619047Y11228181D02*
X20695237Y11304372D01*
X20695237Y11304372D02*
X20733333Y11418658D01*
X20733333Y11418658D02*
X20733333Y11609134D01*
X20733333Y11609134D02*
X20695237Y11723420D01*
X20695237Y11723420D02*
X20619047Y11799610D01*
X20619047Y11799610D02*
X20504761Y11837705D01*
X20504761Y11837705D02*
X20352380Y11837705D01*
X20352380Y11837705D02*
X20238094Y11799610D01*
X20238094Y11799610D02*
X20161904Y11723420D01*
X20161904Y11723420D02*
X20123809Y11609134D01*
X20123809Y11609134D02*
X20123809Y11418658D01*
X20123809Y11418658D02*
X20161904Y11304372D01*
X20161904Y11304372D02*
X20238094Y11228181D01*
X20238094Y11228181D02*
X20314285Y11190086D01*
X20314285Y11190086D02*
X20314285Y11037705D01*
X20314285Y11037705D02*
X20123809Y11037705D01*
X18790475Y11837705D02*
X19171427Y11837705D01*
X19171427Y11837705D02*
X19209523Y11456753D01*
X19209523Y11456753D02*
X19171427Y11494848D01*
X19171427Y11494848D02*
X19095237Y11532943D01*
X19095237Y11532943D02*
X18904761Y11532943D01*
X18904761Y11532943D02*
X18828570Y11494848D01*
X18828570Y11494848D02*
X18790475Y11456753D01*
X18790475Y11456753D02*
X18752380Y11380562D01*
X18752380Y11380562D02*
X18752380Y11190086D01*
X18752380Y11190086D02*
X18790475Y11113896D01*
X18790475Y11113896D02*
X18828570Y11075800D01*
X18828570Y11075800D02*
X18904761Y11037705D01*
X18904761Y11037705D02*
X19095237Y11037705D01*
X19095237Y11037705D02*
X19171427Y11075800D01*
X19171427Y11075800D02*
X19209523Y11113896D01*
X18485713Y11837705D02*
X18295237Y11037705D01*
X18295237Y11037705D02*
X18142856Y11609134D01*
X18142856Y11609134D02*
X17990475Y11037705D01*
X17990475Y11037705D02*
X17799999Y11837705D01*
X22863095Y17321039D02*
X23053571Y17321039D01*
X23053571Y17321039D02*
X23053571Y18463896D01*
X23053571Y18463896D02*
X22863095Y18463896D01*
X22139286Y17587705D02*
X22596429Y17587705D01*
X22367857Y17587705D02*
X22367857Y18387705D01*
X22367857Y18387705D02*
X22444048Y18273420D01*
X22444048Y18273420D02*
X22520238Y18197229D01*
X22520238Y18197229D02*
X22596429Y18159134D01*
X21834524Y18311515D02*
X21796428Y18349610D01*
X21796428Y18349610D02*
X21720238Y18387705D01*
X21720238Y18387705D02*
X21529762Y18387705D01*
X21529762Y18387705D02*
X21453571Y18349610D01*
X21453571Y18349610D02*
X21415476Y18311515D01*
X21415476Y18311515D02*
X21377381Y18235324D01*
X21377381Y18235324D02*
X21377381Y18159134D01*
X21377381Y18159134D02*
X21415476Y18044848D01*
X21415476Y18044848D02*
X21872619Y17587705D01*
X21872619Y17587705D02*
X21377381Y17587705D01*
X20463095Y18425800D02*
X21148809Y17397229D01*
X20234524Y18311515D02*
X20196428Y18349610D01*
X20196428Y18349610D02*
X20120238Y18387705D01*
X20120238Y18387705D02*
X19929762Y18387705D01*
X19929762Y18387705D02*
X19853571Y18349610D01*
X19853571Y18349610D02*
X19815476Y18311515D01*
X19815476Y18311515D02*
X19777381Y18235324D01*
X19777381Y18235324D02*
X19777381Y18159134D01*
X19777381Y18159134D02*
X19815476Y18044848D01*
X19815476Y18044848D02*
X20272619Y17587705D01*
X20272619Y17587705D02*
X19777381Y17587705D01*
X19510714Y18387705D02*
X18977380Y18387705D01*
X18977380Y18387705D02*
X19320238Y17587705D01*
X18101190Y18425800D02*
X18786904Y17397229D01*
X17872619Y18311515D02*
X17834523Y18349610D01*
X17834523Y18349610D02*
X17758333Y18387705D01*
X17758333Y18387705D02*
X17567857Y18387705D01*
X17567857Y18387705D02*
X17491666Y18349610D01*
X17491666Y18349610D02*
X17453571Y18311515D01*
X17453571Y18311515D02*
X17415476Y18235324D01*
X17415476Y18235324D02*
X17415476Y18159134D01*
X17415476Y18159134D02*
X17453571Y18044848D01*
X17453571Y18044848D02*
X17910714Y17587705D01*
X17910714Y17587705D02*
X17415476Y17587705D01*
X17148809Y18387705D02*
X16653571Y18387705D01*
X16653571Y18387705D02*
X16920237Y18082943D01*
X16920237Y18082943D02*
X16805952Y18082943D01*
X16805952Y18082943D02*
X16729761Y18044848D01*
X16729761Y18044848D02*
X16691666Y18006753D01*
X16691666Y18006753D02*
X16653571Y17930562D01*
X16653571Y17930562D02*
X16653571Y17740086D01*
X16653571Y17740086D02*
X16691666Y17663896D01*
X16691666Y17663896D02*
X16729761Y17625800D01*
X16729761Y17625800D02*
X16805952Y17587705D01*
X16805952Y17587705D02*
X17034523Y17587705D01*
X17034523Y17587705D02*
X17110714Y17625800D01*
X17110714Y17625800D02*
X17148809Y17663896D01*
X16386904Y17321039D02*
X16196428Y17321039D01*
X16196428Y17321039D02*
X16196428Y18463896D01*
X16196428Y18463896D02*
X16386904Y18463896D01*
X4341666Y12537705D02*
X4341666Y11966277D01*
X4341666Y11966277D02*
X4379761Y11851991D01*
X4379761Y11851991D02*
X4455952Y11775800D01*
X4455952Y11775800D02*
X4570237Y11737705D01*
X4570237Y11737705D02*
X4646428Y11737705D01*
X3998809Y11775800D02*
X3884523Y11737705D01*
X3884523Y11737705D02*
X3694047Y11737705D01*
X3694047Y11737705D02*
X3617856Y11775800D01*
X3617856Y11775800D02*
X3579761Y11813896D01*
X3579761Y11813896D02*
X3541666Y11890086D01*
X3541666Y11890086D02*
X3541666Y11966277D01*
X3541666Y11966277D02*
X3579761Y12042467D01*
X3579761Y12042467D02*
X3617856Y12080562D01*
X3617856Y12080562D02*
X3694047Y12118658D01*
X3694047Y12118658D02*
X3846428Y12156753D01*
X3846428Y12156753D02*
X3922618Y12194848D01*
X3922618Y12194848D02*
X3960713Y12232943D01*
X3960713Y12232943D02*
X3998809Y12309134D01*
X3998809Y12309134D02*
X3998809Y12385324D01*
X3998809Y12385324D02*
X3960713Y12461515D01*
X3960713Y12461515D02*
X3922618Y12499610D01*
X3922618Y12499610D02*
X3846428Y12537705D01*
X3846428Y12537705D02*
X3655951Y12537705D01*
X3655951Y12537705D02*
X3541666Y12499610D01*
X3313094Y12537705D02*
X2855951Y12537705D01*
X3084523Y11737705D02*
X3084523Y12537705D01*
X2589284Y12042467D02*
X1979761Y12042467D01*
X1636904Y11775800D02*
X1522618Y11737705D01*
X1522618Y11737705D02*
X1332142Y11737705D01*
X1332142Y11737705D02*
X1255951Y11775800D01*
X1255951Y11775800D02*
X1217856Y11813896D01*
X1217856Y11813896D02*
X1179761Y11890086D01*
X1179761Y11890086D02*
X1179761Y11966277D01*
X1179761Y11966277D02*
X1217856Y12042467D01*
X1217856Y12042467D02*
X1255951Y12080562D01*
X1255951Y12080562D02*
X1332142Y12118658D01*
X1332142Y12118658D02*
X1484523Y12156753D01*
X1484523Y12156753D02*
X1560713Y12194848D01*
X1560713Y12194848D02*
X1598808Y12232943D01*
X1598808Y12232943D02*
X1636904Y12309134D01*
X1636904Y12309134D02*
X1636904Y12385324D01*
X1636904Y12385324D02*
X1598808Y12461515D01*
X1598808Y12461515D02*
X1560713Y12499610D01*
X1560713Y12499610D02*
X1484523Y12537705D01*
X1484523Y12537705D02*
X1294046Y12537705D01*
X1294046Y12537705D02*
X1179761Y12499610D01*
X836903Y11737705D02*
X836903Y12537705D01*
X836903Y12156753D02*
X379760Y12156753D01*
X379760Y11737705D02*
X379760Y12537705D01*
X10176190Y17512705D02*
X10633333Y17512705D01*
X10404761Y17512705D02*
X10404761Y18312705D01*
X10404761Y18312705D02*
X10480952Y18198420D01*
X10480952Y18198420D02*
X10557142Y18122229D01*
X10557142Y18122229D02*
X10633333Y18084134D01*
X9680951Y18312705D02*
X9604761Y18312705D01*
X9604761Y18312705D02*
X9528570Y18274610D01*
X9528570Y18274610D02*
X9490475Y18236515D01*
X9490475Y18236515D02*
X9452380Y18160324D01*
X9452380Y18160324D02*
X9414285Y18007943D01*
X9414285Y18007943D02*
X9414285Y17817467D01*
X9414285Y17817467D02*
X9452380Y17665086D01*
X9452380Y17665086D02*
X9490475Y17588896D01*
X9490475Y17588896D02*
X9528570Y17550800D01*
X9528570Y17550800D02*
X9604761Y17512705D01*
X9604761Y17512705D02*
X9680951Y17512705D01*
X9680951Y17512705D02*
X9757142Y17550800D01*
X9757142Y17550800D02*
X9795237Y17588896D01*
X9795237Y17588896D02*
X9833332Y17665086D01*
X9833332Y17665086D02*
X9871428Y17817467D01*
X9871428Y17817467D02*
X9871428Y18007943D01*
X9871428Y18007943D02*
X9833332Y18160324D01*
X9833332Y18160324D02*
X9795237Y18236515D01*
X9795237Y18236515D02*
X9757142Y18274610D01*
X9757142Y18274610D02*
X9680951Y18312705D01*
X9071427Y17512705D02*
X9071427Y18312705D01*
X8995237Y17817467D02*
X8766665Y17512705D01*
X8766665Y18046039D02*
X9071427Y17741277D01*
D11*
%TO.C,C58*%
X5337836Y4610000D02*
X5122164Y4610000D01*
X5337836Y3890000D02*
X5122164Y3890000D01*
%TO.C,R24*%
X14278641Y18770000D02*
X13971359Y18770000D01*
X14278641Y19530000D02*
X13971359Y19530000D01*
%TO.C,C13*%
X26112836Y18690000D02*
X25897164Y18690000D01*
X26112836Y19410000D02*
X25897164Y19410000D01*
%TO.C,C18*%
X18407836Y9490000D02*
X18192164Y9490000D01*
X18407836Y10210000D02*
X18192164Y10210000D01*
%TO.C,R9*%
X11996359Y11330000D02*
X12303641Y11330000D01*
X11996359Y10570000D02*
X12303641Y10570000D01*
%TO.C,R15*%
X14278641Y21610000D02*
X13971359Y21610000D01*
X14278641Y22370000D02*
X13971359Y22370000D01*
%TO.C,C11*%
X13142164Y16410000D02*
X13357836Y16410000D01*
X13142164Y15690000D02*
X13357836Y15690000D01*
%TO.C,C12*%
X14017164Y23310000D02*
X14232836Y23310000D01*
X14017164Y22590000D02*
X14232836Y22590000D01*
%TO.C,C19*%
X26107836Y4290000D02*
X25892164Y4290000D01*
X26107836Y5010000D02*
X25892164Y5010000D01*
%TO.C,U3*%
X15176400Y11823600D02*
X14709741Y11823600D01*
X15176400Y12290259D02*
X15176400Y11823600D01*
X15176400Y15176400D02*
X15176400Y14709741D01*
X14709741Y15176400D02*
X15176400Y15176400D01*
X12290259Y11823600D02*
X11823600Y11823600D01*
X11823600Y11823600D02*
X11823600Y12290259D01*
X11823600Y14709741D02*
X11823600Y15176400D01*
X11823600Y15176400D02*
X12290259Y15176400D01*
D12*
X15600000Y14550000D02*
G75*
G03*
X15600000Y14550000I-100000J0D01*
G01*
D11*
%TO.C,R17*%
X12580000Y21653641D02*
X12580000Y21346359D01*
X11820000Y21653641D02*
X11820000Y21346359D01*
%TO.C,U2*%
D13*
X8484923Y13525736D02*
G75*
G03*
X8484923Y13525736I-99999J0D01*
G01*
D11*
%TO.C,C9*%
X6140000Y20192164D02*
X6140000Y20407836D01*
X6860000Y20192164D02*
X6860000Y20407836D01*
%TO.C,R5*%
X13971359Y20480000D02*
X14278641Y20480000D01*
X13971359Y19720000D02*
X14278641Y19720000D01*
%TO.C,C8*%
X10810000Y11757836D02*
X10810000Y11542164D01*
X10090000Y11757836D02*
X10090000Y11542164D01*
%TO.C,R33*%
X14253641Y7120000D02*
X13946359Y7120000D01*
X14253641Y7880000D02*
X13946359Y7880000D01*
%TO.C,R25*%
X6680000Y17653641D02*
X6680000Y17346359D01*
X5920000Y17653641D02*
X5920000Y17346359D01*
D14*
%TO.C,J6*%
X4675000Y4950000D02*
X2400000Y4950000D01*
X4675000Y5750000D02*
X4675000Y4950000D01*
X425000Y6150000D02*
X425000Y9750000D01*
X4675000Y10150000D02*
X4675000Y10950000D01*
X4675000Y10950000D02*
X2400000Y10950000D01*
D15*
X5485000Y5500000D02*
G75*
G03*
X5485000Y5500000I-100000J0D01*
G01*
D11*
%TO.C,C16*%
X26127836Y11490000D02*
X25912164Y11490000D01*
X26127836Y12210000D02*
X25912164Y12210000D01*
%TO.C,R36*%
X21425000Y5800000D02*
X18475000Y5800000D01*
X21400000Y9100000D02*
X18450000Y9100000D01*
%TO.C,R34*%
X8430000Y17953641D02*
X8430000Y17646359D01*
X7670000Y17953641D02*
X7670000Y17646359D01*
D16*
%TO.C,J9*%
X4655000Y13500000D02*
X2442000Y13500000D01*
X4655000Y13500000D02*
X4655000Y14355000D01*
X405000Y14733000D02*
X405000Y16222000D01*
X4655000Y17500000D02*
X4655000Y16600000D01*
X4655000Y17500000D02*
X2308000Y17500000D01*
D11*
%TO.C,R21*%
X24303641Y11470000D02*
X23996359Y11470000D01*
X24303641Y12230000D02*
X23996359Y12230000D01*
%TO.C,C15*%
X18377836Y16290000D02*
X18162164Y16290000D01*
X18377836Y17010000D02*
X18162164Y17010000D01*
%TO.C,R3*%
X13971359Y21420000D02*
X14278641Y21420000D01*
X13971359Y20660000D02*
X14278641Y20660000D01*
%TO.C,R14*%
X11730000Y8203641D02*
X11730000Y7896359D01*
X10970000Y8203641D02*
X10970000Y7896359D01*
%TO.C,R30*%
X24303641Y4270000D02*
X23996359Y4270000D01*
X24303641Y5030000D02*
X23996359Y5030000D01*
%TO.C,R32*%
X8430000Y16053641D02*
X8430000Y15746359D01*
X7670000Y16053641D02*
X7670000Y15746359D01*
%TO.C,R26*%
X12403641Y17470000D02*
X12096359Y17470000D01*
X12403641Y18230000D02*
X12096359Y18230000D01*
D16*
%TO.C,J8*%
X4655000Y18500000D02*
X2442000Y18500000D01*
X4655000Y18500000D02*
X4655000Y19355000D01*
X405000Y19733000D02*
X405000Y21222000D01*
X4655000Y22500000D02*
X4655000Y21600000D01*
X4655000Y22500000D02*
X2308000Y22500000D01*
D11*
%TO.C,R6*%
X13946359Y9480000D02*
X14253641Y9480000D01*
X13946359Y8720000D02*
X14253641Y8720000D01*
%TO.C,R18*%
X21425000Y19800000D02*
X18475000Y19800000D01*
X21400000Y23100000D02*
X18450000Y23100000D01*
%TO.C,R35*%
X14253641Y6120000D02*
X13946359Y6120000D01*
X14253641Y6880000D02*
X13946359Y6880000D01*
%TO.C,D2*%
X19650000Y9600000D02*
X19650000Y10100000D01*
%TO.C,R16*%
X9146359Y8230000D02*
X9453641Y8230000D01*
X9146359Y7470000D02*
X9453641Y7470000D01*
%TO.C,R12*%
X24308641Y18670000D02*
X24001359Y18670000D01*
X24308641Y19430000D02*
X24001359Y19430000D01*
%TO.C,R7*%
X7830000Y20453641D02*
X7830000Y20146359D01*
X7070000Y20453641D02*
X7070000Y20146359D01*
%TO.C,R23*%
X4920000Y17346359D02*
X4920000Y17653641D01*
X5680000Y17346359D02*
X5680000Y17653641D01*
%TO.C,R27*%
X21425000Y12600000D02*
X18475000Y12600000D01*
X21400000Y15900000D02*
X18450000Y15900000D01*
%TD*%
%LPC*%
D17*
%TO.C,J5*%
X9985000Y20250000D03*
X8715000Y20250000D03*
%TD*%
D18*
%TO.C,C58*%
X4750000Y4250000D03*
X5710000Y4250000D03*
%TD*%
D19*
%TO.C,J3*%
X25350000Y9950000D03*
%TD*%
%TO.C,J11*%
X25350000Y13750000D03*
%TD*%
%TO.C,J2*%
X19950000Y25400000D03*
%TD*%
%TO.C,J4*%
X25350000Y17150000D03*
%TD*%
%TO.C,J10*%
X25350000Y20950000D03*
%TD*%
%TO.C,J1*%
X19950000Y1600000D03*
%TD*%
%TO.C,J12*%
X25350000Y6550000D03*
%TD*%
D20*
%TO.C,R24*%
X14635000Y19150000D03*
X13615000Y19150000D03*
%TD*%
D18*
%TO.C,C13*%
X26485000Y19050000D03*
X25525000Y19050000D03*
%TD*%
%TO.C,C18*%
X18780000Y9850000D03*
X17820000Y9850000D03*
%TD*%
D21*
%TO.C,C50*%
X15000000Y2650000D03*
X15000000Y750000D03*
%TD*%
D22*
%TO.C,R9*%
X11640000Y10950000D03*
X12660000Y10950000D03*
%TD*%
D20*
%TO.C,R15*%
X14635000Y21990000D03*
X13615000Y21990000D03*
%TD*%
D23*
%TO.C,C11*%
X12770000Y16050000D03*
X13730000Y16050000D03*
%TD*%
D24*
%TO.C,C45*%
X9000000Y24350000D03*
X9000000Y26250000D03*
%TD*%
%TO.C,C42*%
X15000000Y24350000D03*
X15000000Y26250000D03*
%TD*%
D23*
%TO.C,C12*%
X13645000Y22950000D03*
X14605000Y22950000D03*
%TD*%
D18*
%TO.C,C19*%
X26480000Y4650000D03*
X25520000Y4650000D03*
%TD*%
D25*
%TO.C,U3*%
X14950000Y14250001D03*
X14950000Y13750000D03*
X14950000Y13250000D03*
X14950000Y12749999D03*
D26*
X14250001Y12050000D03*
X13750000Y12050000D03*
X13250000Y12050000D03*
X12749999Y12050000D03*
D25*
X12050000Y12749999D03*
X12050000Y13250000D03*
X12050000Y13750000D03*
X12050000Y14250001D03*
D26*
X12749999Y14950000D03*
X13250000Y14950000D03*
X13750000Y14950000D03*
X14250001Y14950000D03*
D27*
X13500000Y13500000D03*
%TD*%
D28*
%TO.C,R17*%
X12200000Y22010000D03*
X12200000Y20990000D03*
%TD*%
D29*
%TO.C,U2*%
X7953589Y13957071D03*
X7600036Y13603518D03*
X7246482Y13249964D03*
X6892929Y12896411D03*
X5846411Y13942929D03*
X6199964Y14296482D03*
X6553518Y14650036D03*
X6907071Y15003589D03*
%TD*%
D30*
%TO.C,C9*%
X6500000Y19820000D03*
X6500000Y20780000D03*
%TD*%
D24*
%TO.C,C43*%
X13000000Y24350000D03*
X13000000Y26250000D03*
%TD*%
D22*
%TO.C,R5*%
X13615000Y20100000D03*
X14635000Y20100000D03*
%TD*%
D31*
%TO.C,C8*%
X10450000Y12130000D03*
X10450000Y11170000D03*
%TD*%
D21*
%TO.C,C53*%
X9000000Y2650000D03*
X9000000Y750000D03*
%TD*%
D24*
%TO.C,C46*%
X7000000Y24350000D03*
X7000000Y26250000D03*
%TD*%
%TO.C,C44*%
X11000000Y24350000D03*
X11000000Y26250000D03*
%TD*%
D32*
%TO.C,C48*%
X7550000Y22600000D03*
X5650000Y22600000D03*
%TD*%
D20*
%TO.C,R33*%
X14610000Y7500000D03*
X13590000Y7500000D03*
%TD*%
D32*
%TO.C,C47*%
X10950000Y22600000D03*
X9050000Y22600000D03*
%TD*%
D28*
%TO.C,R25*%
X6300000Y18010000D03*
X6300000Y16990000D03*
%TD*%
D33*
%TO.C,J6*%
X5000000Y6450000D03*
X5000000Y7450000D03*
X5000000Y8450000D03*
X5000000Y9450000D03*
D34*
X1125000Y5150000D03*
X1125000Y10750000D03*
%TD*%
D18*
%TO.C,C16*%
X26500000Y11850000D03*
X25540000Y11850000D03*
%TD*%
D35*
%TO.C,R36*%
X22650000Y7450000D03*
X17250000Y7450000D03*
%TD*%
D21*
%TO.C,C52*%
X11000000Y2650000D03*
X11000000Y750000D03*
%TD*%
D28*
%TO.C,R34*%
X8050000Y18310000D03*
X8050000Y17290000D03*
%TD*%
D36*
%TO.C,TP3*%
X5150000Y1750000D03*
%TD*%
D33*
%TO.C,J9*%
X4980000Y15000000D03*
X4980000Y16000000D03*
D34*
X1105000Y13700000D03*
X1105000Y17300000D03*
%TD*%
D20*
%TO.C,R21*%
X24660000Y11850000D03*
X23640000Y11850000D03*
%TD*%
D24*
%TO.C,C56*%
X10650000Y4150000D03*
X10650000Y6050000D03*
%TD*%
D18*
%TO.C,C15*%
X18750000Y16650000D03*
X17790000Y16650000D03*
%TD*%
D22*
%TO.C,R3*%
X13615000Y21040000D03*
X14635000Y21040000D03*
%TD*%
D28*
%TO.C,R14*%
X11350000Y8560000D03*
X11350000Y7540000D03*
%TD*%
D21*
%TO.C,C51*%
X13000000Y2650000D03*
X13000000Y750000D03*
%TD*%
D20*
%TO.C,R30*%
X24660000Y4650000D03*
X23640000Y4650000D03*
%TD*%
D28*
%TO.C,R32*%
X8050000Y16410000D03*
X8050000Y15390000D03*
%TD*%
D20*
%TO.C,R26*%
X12760000Y17850000D03*
X11740000Y17850000D03*
%TD*%
D33*
%TO.C,J8*%
X4980000Y20000000D03*
X4980000Y21000000D03*
D34*
X1105000Y18700000D03*
X1105000Y22300000D03*
%TD*%
D22*
%TO.C,R6*%
X13590000Y9100000D03*
X14610000Y9100000D03*
%TD*%
D35*
%TO.C,R18*%
X22650000Y21450000D03*
X17250000Y21450000D03*
%TD*%
D20*
%TO.C,R35*%
X14610000Y6500000D03*
X13590000Y6500000D03*
%TD*%
D24*
%TO.C,C41*%
X17000000Y24350000D03*
X17000000Y26250000D03*
%TD*%
D21*
%TO.C,C54*%
X7000000Y2650000D03*
X7000000Y750000D03*
%TD*%
D37*
%TO.C,D2*%
X19975000Y9850000D03*
X20625000Y9850000D03*
%TD*%
D22*
%TO.C,R16*%
X8790000Y7850000D03*
X9810000Y7850000D03*
%TD*%
D20*
%TO.C,R12*%
X24665000Y19050000D03*
X23645000Y19050000D03*
%TD*%
D28*
%TO.C,R7*%
X7450000Y20810000D03*
X7450000Y19790000D03*
%TD*%
D24*
%TO.C,C57*%
X8650000Y4150000D03*
X8650000Y6050000D03*
%TD*%
D32*
%TO.C,C55*%
X14300000Y4400000D03*
X12400000Y4400000D03*
%TD*%
D36*
%TO.C,TP1*%
X5050000Y25200000D03*
%TD*%
D38*
%TO.C,R23*%
X5300000Y16990000D03*
X5300000Y18010000D03*
%TD*%
D21*
%TO.C,C49*%
X17000000Y2650000D03*
X17000000Y750000D03*
%TD*%
D35*
%TO.C,R27*%
X22650000Y14250000D03*
X17250000Y14250000D03*
%TD*%
%LPD*%
M02*
