%TF.GenerationSoftware,KiCad,Pcbnew,7.0.7*%
%TF.CreationDate,2023-12-28T18:43:45-05:00*%
%TF.ProjectId,O32controller,4f333263-6f6e-4747-926f-6c6c65722e6b,3*%
%TF.SameCoordinates,Original*%
%TF.FileFunction,Copper,L3,Inr*%
%TF.FilePolarity,Positive*%
%FSLAX46Y46*%
G04 Gerber Fmt 4.6, Leading zero omitted, Abs format (unit mm)*
G04 Created by KiCad (PCBNEW 7.0.7) date 2023-12-28 18:43:45*
%MOMM*%
%LPD*%
G01*
G04 APERTURE LIST*
G04 Aperture macros list*
%AMRoundRect*
0 Rectangle with rounded corners*
0 $1 Rounding radius*
0 $2 $3 $4 $5 $6 $7 $8 $9 X,Y pos of 4 corners*
0 Add a 4 corners polygon primitive as box body*
4,1,4,$2,$3,$4,$5,$6,$7,$8,$9,$2,$3,0*
0 Add four circle primitives for the rounded corners*
1,1,$1+$1,$2,$3*
1,1,$1+$1,$4,$5*
1,1,$1+$1,$6,$7*
1,1,$1+$1,$8,$9*
0 Add four rect primitives between the rounded corners*
20,1,$1+$1,$2,$3,$4,$5,0*
20,1,$1+$1,$4,$5,$6,$7,0*
20,1,$1+$1,$6,$7,$8,$9,0*
20,1,$1+$1,$8,$9,$2,$3,0*%
G04 Aperture macros list end*
%TA.AperFunction,ComponentPad*%
%ADD10RoundRect,0.269607X-1.105393X-1.105393X1.105393X-1.105393X1.105393X1.105393X-1.105393X1.105393X0*%
%TD*%
%TA.AperFunction,ViaPad*%
%ADD11C,0.550000*%
%TD*%
G04 APERTURE END LIST*
D10*
%TO.N,GND*%
%TO.C,J3*%
X25350000Y9950000D03*
%TD*%
%TO.N,/Motor phase V/Motor*%
%TO.C,J11*%
X25350000Y13750000D03*
%TD*%
%TO.N,VBUS*%
%TO.C,J2*%
X19950000Y25400000D03*
%TD*%
%TO.N,GND*%
%TO.C,J4*%
X25350000Y17150000D03*
%TD*%
%TO.N,/Motor phase U/Motor*%
%TO.C,J10*%
X25350000Y20950000D03*
%TD*%
%TO.N,VBUS*%
%TO.C,J1*%
X19950000Y1600000D03*
%TD*%
%TO.N,/Motor phase W/Motor*%
%TO.C,J12*%
X25350000Y6550000D03*
%TD*%
D11*
%TO.N,/Motor phase W/SENSE_P*%
X15340000Y5380000D03*
%TO.N,/Motor phase U/SENSE_P*%
X17230000Y19330000D03*
%TO.N,/Motor phase W/SENSE_P*%
X17210000Y5370000D03*
X16750000Y5100000D03*
X16750000Y5640000D03*
X15810000Y5110000D03*
X16290000Y5370000D03*
X15350000Y5910000D03*
X15810000Y5640000D03*
X16280000Y5900000D03*
X15350000Y6440000D03*
X15820000Y6170000D03*
X16290000Y6430000D03*
X15810000Y8840000D03*
X15820000Y6700000D03*
X15820000Y7240000D03*
X15820000Y8310000D03*
X15820000Y7780000D03*
X16290000Y8040000D03*
X16280000Y9100000D03*
X16290000Y6960000D03*
X16290000Y7500000D03*
X16290000Y8570000D03*
X15350000Y6970000D03*
X15340000Y8570000D03*
X15340000Y8040000D03*
X15330000Y9100000D03*
X15340000Y7500000D03*
%TO.N,/Motor phase V/SENSE_P*%
X15260000Y14850000D03*
X16660000Y11890000D03*
X15730000Y12450000D03*
X15730000Y13520000D03*
X15740000Y12990000D03*
X17130000Y12150000D03*
X16680000Y12430000D03*
X16200000Y12180000D03*
X16680000Y12970000D03*
X16210000Y12710000D03*
X16680000Y13510000D03*
X16210000Y13250000D03*
X15730000Y14580000D03*
X16210000Y14320000D03*
X15740000Y14050000D03*
X16210000Y13790000D03*
X16680000Y14050000D03*
X16680000Y14600000D03*
X17140000Y15920000D03*
X16670000Y16190000D03*
X16200000Y15400000D03*
X16200000Y15930000D03*
X16670000Y15130000D03*
X15730000Y15120000D03*
X16670000Y15660000D03*
X16200000Y14850000D03*
%TO.N,/Motor phase U/SENSE_P*%
X16770000Y19060000D03*
X16770000Y19600000D03*
X15840000Y19070000D03*
X15840000Y20140000D03*
X15840000Y21220000D03*
X15840000Y22300000D03*
X15840000Y19600000D03*
X15370000Y19870000D03*
X16310000Y19330000D03*
X15370000Y19330000D03*
X16310000Y19870000D03*
X15840000Y20680000D03*
X15370000Y20950000D03*
X16310000Y20410000D03*
X15370000Y20410000D03*
X16310000Y20950000D03*
X15840000Y21760000D03*
X15370000Y22030000D03*
X16310000Y21490000D03*
X15370000Y21490000D03*
X16310000Y22030000D03*
%TO.N,GND*%
X850000Y18150000D03*
%TO.N,/Motor phase W/Sense_N*%
X14200000Y5950000D03*
X22050000Y2850000D03*
%TO.N,/Motor phase V/Sense_N*%
X12950000Y18300000D03*
X20950000Y17350000D03*
%TO.N,/Motor phase U/Sense_N*%
X21950000Y24200000D03*
X12908628Y22241372D03*
%TO.N,VBUS*%
X18550000Y6500000D03*
X13000000Y3300000D03*
X18550000Y4050000D03*
X19950000Y21800000D03*
X19950000Y13500000D03*
X18550000Y20500000D03*
X11150000Y23600000D03*
X19900000Y6550000D03*
X19950000Y8950000D03*
X19950000Y18050000D03*
X19950000Y12150000D03*
X3300000Y8000000D03*
X18550000Y13500000D03*
X19950000Y15950000D03*
X19950000Y20500000D03*
X19950000Y22950000D03*
X8150000Y4200000D03*
X19950000Y4050000D03*
X18550000Y5200000D03*
X19950000Y5200000D03*
X18550000Y19150000D03*
X18950000Y18250000D03*
X19950000Y14800000D03*
X3850000Y13650000D03*
X15000000Y3300000D03*
X18550000Y21800000D03*
X18550000Y14800000D03*
X11000000Y3300000D03*
X19950000Y19200000D03*
X9000000Y3300000D03*
X18850000Y15750000D03*
X8000000Y23600000D03*
X18550000Y7800000D03*
X19950000Y11050000D03*
X13275000Y23550000D03*
X18550000Y12150000D03*
X19950000Y7800000D03*
%TO.N,+3.3V*%
X2750000Y20500000D03*
X2500000Y22450000D03*
X10550000Y7650000D03*
X4250000Y18350000D03*
X3400000Y11300000D03*
X1025000Y11850000D03*
X4000000Y4150000D03*
%TO.N,/OP_V_P*%
X10950000Y20025000D03*
X4850000Y16900000D03*
%TO.N,/OP_V_N*%
X4150000Y16750000D03*
X10800000Y19200000D03*
%TO.N,/NRST*%
X3994622Y12944622D03*
X7250000Y5300000D03*
%TO.N,/OP_U_N*%
X9580000Y8630000D03*
X11800000Y20000000D03*
%TO.N,/OP_U_P*%
X10300000Y8700000D03*
X12925000Y21475000D03*
%TO.N,/OC_COMP*%
X13100000Y19800000D03*
X12050000Y9100000D03*
%TO.N,GND*%
X16500000Y1350000D03*
X2450000Y13200000D03*
X12875000Y8400000D03*
X13750000Y25650000D03*
X8400000Y5300000D03*
X5850000Y25650000D03*
X9800000Y25650000D03*
X10800000Y21025000D03*
X7850000Y25650000D03*
X4825500Y9325500D03*
X900000Y4225000D03*
X14450000Y1350000D03*
X10800000Y5300000D03*
X7075000Y4025000D03*
X14850000Y16650000D03*
X8850000Y21625000D03*
X7450000Y18000000D03*
X10500000Y1400000D03*
X15750000Y25650000D03*
X9250000Y9300000D03*
X2388180Y7800500D03*
X600000Y23300000D03*
X13700000Y18350000D03*
X11800000Y25650000D03*
X3250000Y10500000D03*
X8500000Y1400000D03*
X3200000Y12750000D03*
X6500000Y1400000D03*
X13250000Y5300000D03*
X12450000Y1350000D03*
X6600000Y21625000D03*
%TO.N,SWD_IO*%
X10300000Y17825000D03*
%TO.N,SWD_CLK*%
X10425000Y15375000D03*
%TO.N,/OP_W_P*%
X13000000Y7675000D03*
X7300000Y15700000D03*
%TO.N,/OP_W_N*%
X12700000Y7025000D03*
X6600000Y15950000D03*
%TO.N,/Motor phase U/GH_MOS*%
X21400000Y16650000D03*
X15580000Y16460000D03*
%TO.N,/Motor phase V/GH_MOS*%
X16200000Y10750000D03*
X21400000Y9850000D03*
%TO.N,/Motor phase W/GH_MOS*%
X14150000Y8350000D03*
X22850000Y3750000D03*
%TO.N,/OUTU*%
X15550000Y17550000D03*
X23200000Y17050000D03*
%TO.N,/VBOOTW*%
X10950000Y12150000D03*
%TO.N,/OUTV*%
X14850000Y11450000D03*
X23200000Y10000000D03*
%TO.N,/OUTW*%
X22900000Y4500000D03*
X10900000Y11250000D03*
%TO.N,/Motor phase U/SENSE_P*%
X16310000Y23110000D03*
X15370000Y22570000D03*
X16310000Y22570000D03*
X15370000Y23110000D03*
X15840000Y22840000D03*
%TO.N,/USART_RX*%
X9650000Y15400000D03*
%TO.N,/~{MAG1_CS}*%
X3500000Y14350000D03*
X13550000Y10900000D03*
%TO.N,/LED_STATUS*%
X2749115Y19474755D03*
%TO.N,/RS485_B*%
X3950000Y19050000D03*
X3950000Y20700000D03*
%TO.N,/SPI_MOSI*%
X8600000Y11200000D03*
X4600000Y5250000D03*
%TO.N,/SPI_MISO*%
X7750000Y10850000D03*
X5400000Y5700000D03*
%TO.N,/SPI_SCLK*%
X10850000Y12900000D03*
%TO.N,USART_TX*%
X9550000Y17950000D03*
%TO.N,/USART_DE*%
X4700000Y10500000D03*
%TO.N,/NTC_IN*%
X3250000Y9600000D03*
X8150000Y19975000D03*
%TO.N,/~{MAG2_CS}*%
X2200000Y8950000D03*
X10050000Y16050000D03*
%TD*%
%TA.AperFunction,Conductor*%
%TO.N,GND*%
G36*
X18410506Y26780593D02*
G01*
X18446470Y26731093D01*
X18446470Y26669907D01*
X18445759Y26667802D01*
X18417225Y26586262D01*
X18417224Y26586254D01*
X18414500Y26557210D01*
X18414500Y24242801D01*
X18417224Y24213746D01*
X18417225Y24213741D01*
X18460046Y24091366D01*
X18460048Y24091362D01*
X18537040Y23987040D01*
X18641362Y23910048D01*
X18763742Y23867225D01*
X18792801Y23864500D01*
X21107198Y23864501D01*
X21107199Y23864501D01*
X21113009Y23865046D01*
X21136258Y23867225D01*
X21258638Y23910048D01*
X21362960Y23987040D01*
X21390072Y24023777D01*
X21439836Y24059368D01*
X21501020Y24058912D01*
X21550250Y24022580D01*
X21559779Y24006115D01*
X21579867Y23962130D01*
X21579866Y23962130D01*
X21661875Y23867488D01*
X21661875Y23867487D01*
X21767225Y23799783D01*
X21767227Y23799782D01*
X21887385Y23764500D01*
X21887386Y23764500D01*
X22012614Y23764500D01*
X22012615Y23764500D01*
X22132773Y23799782D01*
X22238124Y23867487D01*
X22320133Y23962130D01*
X22372156Y24076044D01*
X22372157Y24076049D01*
X22389978Y24199998D01*
X22389978Y24200003D01*
X22372157Y24323952D01*
X22372156Y24323954D01*
X22372156Y24323956D01*
X22320133Y24437870D01*
X22238124Y24532513D01*
X22238124Y24532514D01*
X22132774Y24600218D01*
X22012616Y24635500D01*
X22012615Y24635500D01*
X21887385Y24635500D01*
X21887383Y24635500D01*
X21767225Y24600218D01*
X21661875Y24532514D01*
X21659313Y24529556D01*
X21606914Y24497965D01*
X21545953Y24503206D01*
X21499716Y24543278D01*
X21485499Y24594391D01*
X21485499Y24814000D01*
X23608357Y24814000D01*
X23628885Y24592464D01*
X23689771Y24378472D01*
X23788942Y24179311D01*
X23923019Y24001764D01*
X24087438Y23851876D01*
X24276599Y23734753D01*
X24484060Y23654382D01*
X24702757Y23613500D01*
X24925243Y23613500D01*
X25143940Y23654382D01*
X25351401Y23734753D01*
X25540562Y23851876D01*
X25704981Y24001764D01*
X25839058Y24179311D01*
X25938229Y24378472D01*
X25999115Y24592464D01*
X26019643Y24814000D01*
X25999115Y25035536D01*
X25938229Y25249528D01*
X25839058Y25448689D01*
X25704981Y25626236D01*
X25540562Y25776124D01*
X25351401Y25893247D01*
X25143940Y25973618D01*
X25143939Y25973619D01*
X25143937Y25973619D01*
X24925243Y26014500D01*
X24702757Y26014500D01*
X24484062Y25973619D01*
X24407797Y25944074D01*
X24276599Y25893247D01*
X24141260Y25809449D01*
X24087438Y25776124D01*
X23923020Y25626237D01*
X23788943Y25448691D01*
X23788938Y25448682D01*
X23689772Y25249531D01*
X23689771Y25249528D01*
X23628885Y25035536D01*
X23608357Y24814000D01*
X21485499Y24814000D01*
X21485499Y26557198D01*
X21482775Y26586258D01*
X21454240Y26667803D01*
X21452868Y26728972D01*
X21487711Y26779266D01*
X21545463Y26799475D01*
X21547685Y26799500D01*
X24774118Y26799500D01*
X24812380Y26799500D01*
X24815616Y26799395D01*
X25069921Y26782727D01*
X25076342Y26781881D01*
X25324701Y26732479D01*
X25330958Y26730803D01*
X25570745Y26649407D01*
X25576718Y26646933D01*
X25803840Y26534928D01*
X25809448Y26531690D01*
X26019998Y26391006D01*
X26025140Y26387060D01*
X26215519Y26220103D01*
X26220102Y26215520D01*
X26387059Y26025141D01*
X26391005Y26019999D01*
X26531689Y25809449D01*
X26534930Y25803836D01*
X26646928Y25576727D01*
X26649406Y25570744D01*
X26730801Y25330962D01*
X26732478Y25324702D01*
X26781880Y25076343D01*
X26782726Y25069917D01*
X26799393Y24815619D01*
X26799499Y24812381D01*
X26799499Y22529804D01*
X26780592Y22471613D01*
X26731092Y22435649D01*
X26669906Y22435649D01*
X26664978Y22437734D01*
X26536262Y22482774D01*
X26536253Y22482776D01*
X26507207Y22485500D01*
X24192800Y22485500D01*
X24163745Y22482776D01*
X24163740Y22482775D01*
X24041365Y22439954D01*
X24041364Y22439953D01*
X24041363Y22439953D01*
X24041362Y22439952D01*
X23937040Y22362960D01*
X23860222Y22258873D01*
X23860047Y22258636D01*
X23860046Y22258635D01*
X23817226Y22136263D01*
X23817224Y22136254D01*
X23814500Y22107210D01*
X23814500Y19792801D01*
X23817224Y19763746D01*
X23817225Y19763741D01*
X23860046Y19641366D01*
X23860048Y19641362D01*
X23937040Y19537040D01*
X24041362Y19460048D01*
X24163742Y19417225D01*
X24192801Y19414500D01*
X26507198Y19414501D01*
X26507199Y19414501D01*
X26513009Y19415046D01*
X26536258Y19417225D01*
X26658638Y19460048D01*
X26658637Y19460048D01*
X26665640Y19462498D01*
X26666563Y19459861D01*
X26714490Y19468203D01*
X26769425Y19441262D01*
X26798032Y19387176D01*
X26799499Y19370197D01*
X26799499Y15329804D01*
X26780592Y15271613D01*
X26731092Y15235649D01*
X26669906Y15235649D01*
X26664978Y15237734D01*
X26536262Y15282774D01*
X26536253Y15282776D01*
X26507207Y15285500D01*
X24192800Y15285500D01*
X24163745Y15282776D01*
X24163740Y15282775D01*
X24041365Y15239954D01*
X24041364Y15239953D01*
X24041363Y15239953D01*
X24041362Y15239952D01*
X23937040Y15162960D01*
X23881624Y15087872D01*
X23860047Y15058636D01*
X23860046Y15058635D01*
X23817226Y14936263D01*
X23817224Y14936254D01*
X23814500Y14907210D01*
X23814500Y12592801D01*
X23817224Y12563746D01*
X23817225Y12563741D01*
X23860046Y12441366D01*
X23860048Y12441362D01*
X23937040Y12337040D01*
X24041362Y12260048D01*
X24163742Y12217225D01*
X24192801Y12214500D01*
X26507198Y12214501D01*
X26507199Y12214501D01*
X26513009Y12215046D01*
X26536258Y12217225D01*
X26658638Y12260048D01*
X26658637Y12260048D01*
X26665640Y12262498D01*
X26666563Y12259861D01*
X26714490Y12268203D01*
X26769425Y12241262D01*
X26798032Y12187176D01*
X26799499Y12170197D01*
X26799499Y8129804D01*
X26780592Y8071613D01*
X26731092Y8035649D01*
X26669906Y8035649D01*
X26664978Y8037734D01*
X26536262Y8082774D01*
X26536253Y8082776D01*
X26507207Y8085500D01*
X24192800Y8085500D01*
X24163745Y8082776D01*
X24163740Y8082775D01*
X24041365Y8039954D01*
X24041364Y8039953D01*
X24041363Y8039953D01*
X24041362Y8039952D01*
X23937040Y7962960D01*
X23872897Y7876047D01*
X23860047Y7858636D01*
X23860046Y7858635D01*
X23817226Y7736263D01*
X23817224Y7736254D01*
X23814500Y7707210D01*
X23814500Y5392801D01*
X23817224Y5363746D01*
X23817225Y5363741D01*
X23860046Y5241366D01*
X23860048Y5241362D01*
X23937040Y5137040D01*
X24041362Y5060048D01*
X24163742Y5017225D01*
X24192801Y5014500D01*
X26507198Y5014501D01*
X26507199Y5014501D01*
X26513009Y5015046D01*
X26536258Y5017225D01*
X26658638Y5060048D01*
X26658637Y5060048D01*
X26665640Y5062498D01*
X26666563Y5059861D01*
X26714490Y5068203D01*
X26769425Y5041262D01*
X26798032Y4987176D01*
X26799499Y4970197D01*
X26799500Y2225883D01*
X26799500Y2187621D01*
X26799394Y2184383D01*
X26782726Y1930084D01*
X26781880Y1923658D01*
X26732478Y1675299D01*
X26730801Y1669039D01*
X26649406Y1429257D01*
X26646926Y1423268D01*
X26534930Y1196165D01*
X26531689Y1190552D01*
X26391005Y980002D01*
X26387059Y974860D01*
X26220102Y784481D01*
X26215519Y779898D01*
X26025140Y612941D01*
X26019998Y608995D01*
X25809448Y468311D01*
X25803835Y465070D01*
X25576732Y353074D01*
X25570743Y350594D01*
X25330961Y269199D01*
X25324701Y267522D01*
X25076342Y218120D01*
X25069916Y217274D01*
X24833822Y201800D01*
X24815616Y200606D01*
X24812380Y200500D01*
X21547685Y200500D01*
X21489494Y219407D01*
X21453530Y268907D01*
X21453530Y330093D01*
X21454241Y332198D01*
X21482774Y413739D01*
X21482774Y413740D01*
X21482775Y413742D01*
X21485500Y442801D01*
X21485499Y2186000D01*
X23608357Y2186000D01*
X23628885Y1964464D01*
X23689771Y1750472D01*
X23788942Y1551311D01*
X23923019Y1373764D01*
X24087438Y1223876D01*
X24276599Y1106753D01*
X24484060Y1026382D01*
X24702757Y985500D01*
X24925243Y985500D01*
X25143940Y1026382D01*
X25351401Y1106753D01*
X25540562Y1223876D01*
X25704981Y1373764D01*
X25839058Y1551311D01*
X25938229Y1750472D01*
X25999115Y1964464D01*
X26019643Y2186000D01*
X25999115Y2407536D01*
X25938229Y2621528D01*
X25839058Y2820689D01*
X25704981Y2998236D01*
X25540562Y3148124D01*
X25351401Y3265247D01*
X25143940Y3345618D01*
X25143939Y3345619D01*
X25143937Y3345619D01*
X24925243Y3386500D01*
X24702757Y3386500D01*
X24484062Y3345619D01*
X24407797Y3316074D01*
X24276599Y3265247D01*
X24087438Y3148124D01*
X23923019Y2998236D01*
X23898264Y2965455D01*
X23788943Y2820691D01*
X23788938Y2820682D01*
X23689772Y2621531D01*
X23628885Y2407536D01*
X23612053Y2225882D01*
X23608357Y2186000D01*
X21485499Y2186000D01*
X21485499Y2582642D01*
X21504406Y2640832D01*
X21553906Y2676796D01*
X21615092Y2676796D01*
X21664592Y2640832D01*
X21674552Y2623767D01*
X21679865Y2612132D01*
X21679866Y2612130D01*
X21761875Y2517488D01*
X21761875Y2517487D01*
X21867225Y2449783D01*
X21867227Y2449782D01*
X21987385Y2414500D01*
X21987386Y2414500D01*
X22112614Y2414500D01*
X22112615Y2414500D01*
X22232773Y2449782D01*
X22338124Y2517487D01*
X22420133Y2612130D01*
X22472156Y2726044D01*
X22472157Y2726049D01*
X22489978Y2849998D01*
X22489978Y2850003D01*
X22472157Y2973952D01*
X22472156Y2973954D01*
X22472156Y2973956D01*
X22420133Y3087870D01*
X22338124Y3182513D01*
X22338124Y3182514D01*
X22232774Y3250218D01*
X22112616Y3285500D01*
X22112615Y3285500D01*
X21987385Y3285500D01*
X21987383Y3285500D01*
X21867225Y3250218D01*
X21761875Y3182514D01*
X21761875Y3182513D01*
X21679868Y3087872D01*
X21627843Y2973954D01*
X21627842Y2973952D01*
X21623589Y2944369D01*
X21596592Y2889461D01*
X21542478Y2860909D01*
X21481915Y2869617D01*
X21446360Y2904147D01*
X21444357Y2902668D01*
X21439952Y2908636D01*
X21439952Y2908638D01*
X21362960Y3012960D01*
X21258638Y3089952D01*
X21258634Y3089954D01*
X21136262Y3132774D01*
X21136253Y3132776D01*
X21107207Y3135500D01*
X18792800Y3135500D01*
X18763745Y3132776D01*
X18763740Y3132775D01*
X18641365Y3089954D01*
X18641364Y3089953D01*
X18641363Y3089953D01*
X18641362Y3089952D01*
X18537040Y3012960D01*
X18486419Y2944369D01*
X18460047Y2908636D01*
X18460046Y2908635D01*
X18417226Y2786263D01*
X18417224Y2786254D01*
X18414500Y2757210D01*
X18414500Y442801D01*
X18417224Y413746D01*
X18417225Y413741D01*
X18445759Y332198D01*
X18447132Y271028D01*
X18412289Y220734D01*
X18354537Y200525D01*
X18352315Y200500D01*
X2187620Y200500D01*
X2184383Y200606D01*
X2164196Y201930D01*
X1930083Y217274D01*
X1923657Y218120D01*
X1675298Y267522D01*
X1669038Y269199D01*
X1429256Y350594D01*
X1423273Y353072D01*
X1196164Y465070D01*
X1190551Y468311D01*
X980001Y608995D01*
X974859Y612941D01*
X784480Y779898D01*
X779897Y784481D01*
X612940Y974860D01*
X608994Y980002D01*
X605320Y985500D01*
X468310Y1190552D01*
X465069Y1196165D01*
X353067Y1423282D01*
X350593Y1429257D01*
X335163Y1474711D01*
X269197Y1669042D01*
X267521Y1675299D01*
X218119Y1923658D01*
X217273Y1930084D01*
X209961Y2041643D01*
X200606Y2184383D01*
X200553Y2186000D01*
X980357Y2186000D01*
X1000885Y1964464D01*
X1061771Y1750472D01*
X1160942Y1551311D01*
X1295019Y1373764D01*
X1459438Y1223876D01*
X1648599Y1106753D01*
X1856060Y1026382D01*
X2074757Y985500D01*
X2297243Y985500D01*
X2515940Y1026382D01*
X2723401Y1106753D01*
X2912562Y1223876D01*
X3076981Y1373764D01*
X3211058Y1551311D01*
X3310229Y1750472D01*
X3371115Y1964464D01*
X3391643Y2186000D01*
X3371115Y2407536D01*
X3310229Y2621528D01*
X3211058Y2820689D01*
X3076981Y2998236D01*
X2912562Y3148124D01*
X2723401Y3265247D01*
X2633699Y3299998D01*
X8560022Y3299998D01*
X8577842Y3176049D01*
X8577843Y3176047D01*
X8577843Y3176046D01*
X8577844Y3176044D01*
X8629867Y3062130D01*
X8629868Y3062129D01*
X8711875Y2967488D01*
X8711875Y2967487D01*
X8812736Y2902668D01*
X8817227Y2899782D01*
X8937385Y2864500D01*
X8937386Y2864500D01*
X9062614Y2864500D01*
X9062615Y2864500D01*
X9182773Y2899782D01*
X9288124Y2967487D01*
X9370133Y3062130D01*
X9422156Y3176044D01*
X9423086Y3182513D01*
X9439978Y3299998D01*
X10560022Y3299998D01*
X10577842Y3176049D01*
X10577843Y3176047D01*
X10577843Y3176046D01*
X10577844Y3176044D01*
X10629867Y3062130D01*
X10629868Y3062129D01*
X10711875Y2967488D01*
X10711875Y2967487D01*
X10812736Y2902668D01*
X10817227Y2899782D01*
X10937385Y2864500D01*
X10937386Y2864500D01*
X11062614Y2864500D01*
X11062615Y2864500D01*
X11182773Y2899782D01*
X11288124Y2967487D01*
X11370133Y3062130D01*
X11422156Y3176044D01*
X11423086Y3182513D01*
X11439978Y3299998D01*
X12560022Y3299998D01*
X12577842Y3176049D01*
X12577843Y3176047D01*
X12577843Y3176046D01*
X12577844Y3176044D01*
X12629867Y3062130D01*
X12629868Y3062129D01*
X12711875Y2967488D01*
X12711875Y2967487D01*
X12812736Y2902668D01*
X12817227Y2899782D01*
X12937385Y2864500D01*
X12937386Y2864500D01*
X13062614Y2864500D01*
X13062615Y2864500D01*
X13182773Y2899782D01*
X13288124Y2967487D01*
X13370133Y3062130D01*
X13422156Y3176044D01*
X13423086Y3182513D01*
X13439978Y3299998D01*
X14560022Y3299998D01*
X14577842Y3176049D01*
X14577843Y3176047D01*
X14577843Y3176046D01*
X14577844Y3176044D01*
X14629867Y3062130D01*
X14629868Y3062129D01*
X14711875Y2967488D01*
X14711875Y2967487D01*
X14812736Y2902668D01*
X14817227Y2899782D01*
X14937385Y2864500D01*
X14937386Y2864500D01*
X15062614Y2864500D01*
X15062615Y2864500D01*
X15182773Y2899782D01*
X15288124Y2967487D01*
X15370133Y3062130D01*
X15422156Y3176044D01*
X15423086Y3182513D01*
X15439978Y3299998D01*
X15439978Y3300003D01*
X15422157Y3423952D01*
X15422156Y3423954D01*
X15422156Y3423956D01*
X15370133Y3537870D01*
X15288124Y3632513D01*
X15288124Y3632514D01*
X15182774Y3700218D01*
X15062616Y3735500D01*
X15062615Y3735500D01*
X14937385Y3735500D01*
X14937383Y3735500D01*
X14817225Y3700218D01*
X14711875Y3632514D01*
X14711875Y3632513D01*
X14629868Y3537872D01*
X14577843Y3423954D01*
X14577842Y3423952D01*
X14560022Y3300003D01*
X14560022Y3299998D01*
X13439978Y3299998D01*
X13439978Y3300003D01*
X13422157Y3423952D01*
X13422156Y3423954D01*
X13422156Y3423956D01*
X13370133Y3537870D01*
X13288124Y3632513D01*
X13288124Y3632514D01*
X13182774Y3700218D01*
X13062616Y3735500D01*
X13062615Y3735500D01*
X12937385Y3735500D01*
X12937383Y3735500D01*
X12817225Y3700218D01*
X12711875Y3632514D01*
X12711875Y3632513D01*
X12629868Y3537872D01*
X12577843Y3423954D01*
X12577842Y3423952D01*
X12560022Y3300003D01*
X12560022Y3299998D01*
X11439978Y3299998D01*
X11439978Y3300003D01*
X11422157Y3423952D01*
X11422156Y3423954D01*
X11422156Y3423956D01*
X11370133Y3537870D01*
X11288124Y3632513D01*
X11288124Y3632514D01*
X11182774Y3700218D01*
X11062616Y3735500D01*
X11062615Y3735500D01*
X10937385Y3735500D01*
X10937383Y3735500D01*
X10817225Y3700218D01*
X10711875Y3632514D01*
X10711875Y3632513D01*
X10629868Y3537872D01*
X10577843Y3423954D01*
X10577842Y3423952D01*
X10560022Y3300003D01*
X10560022Y3299998D01*
X9439978Y3299998D01*
X9439978Y3300003D01*
X9422157Y3423952D01*
X9422156Y3423954D01*
X9422156Y3423956D01*
X9370133Y3537870D01*
X9288124Y3632513D01*
X9288124Y3632514D01*
X9182774Y3700218D01*
X9062616Y3735500D01*
X9062615Y3735500D01*
X8937385Y3735500D01*
X8937383Y3735500D01*
X8817225Y3700218D01*
X8711875Y3632514D01*
X8711875Y3632513D01*
X8629868Y3537872D01*
X8577843Y3423954D01*
X8577842Y3423952D01*
X8560022Y3300003D01*
X8560022Y3299998D01*
X2633699Y3299998D01*
X2515940Y3345618D01*
X2515939Y3345619D01*
X2515937Y3345619D01*
X2297243Y3386500D01*
X2074757Y3386500D01*
X1856062Y3345619D01*
X1779797Y3316074D01*
X1648599Y3265247D01*
X1459438Y3148124D01*
X1295019Y2998236D01*
X1270264Y2965455D01*
X1160943Y2820691D01*
X1160938Y2820682D01*
X1061772Y2621531D01*
X1000885Y2407536D01*
X984053Y2225882D01*
X980357Y2186000D01*
X200553Y2186000D01*
X200500Y2187621D01*
X200500Y4149998D01*
X3560022Y4149998D01*
X3577842Y4026049D01*
X3577843Y4026047D01*
X3577843Y4026046D01*
X3577844Y4026044D01*
X3629867Y3912130D01*
X3629868Y3912129D01*
X3711875Y3817488D01*
X3711875Y3817487D01*
X3817225Y3749783D01*
X3817227Y3749782D01*
X3937385Y3714500D01*
X3937386Y3714500D01*
X4062614Y3714500D01*
X4062615Y3714500D01*
X4182773Y3749782D01*
X4288124Y3817487D01*
X4370133Y3912130D01*
X4422156Y4026044D01*
X4425600Y4049998D01*
X4439978Y4149998D01*
X4439978Y4150003D01*
X4432790Y4199998D01*
X7710022Y4199998D01*
X7727842Y4076049D01*
X7727843Y4076047D01*
X7727843Y4076046D01*
X7727844Y4076044D01*
X7779867Y3962130D01*
X7779868Y3962129D01*
X7861875Y3867488D01*
X7861875Y3867487D01*
X7967225Y3799783D01*
X7967227Y3799782D01*
X8087385Y3764500D01*
X8087386Y3764500D01*
X8212614Y3764500D01*
X8212615Y3764500D01*
X8332773Y3799782D01*
X8438124Y3867487D01*
X8520133Y3962130D01*
X8560261Y4049998D01*
X18110022Y4049998D01*
X18127842Y3926049D01*
X18127843Y3926047D01*
X18127843Y3926046D01*
X18127844Y3926044D01*
X18179867Y3812130D01*
X18179868Y3812129D01*
X18261875Y3717488D01*
X18261875Y3717487D01*
X18367225Y3649783D01*
X18367227Y3649782D01*
X18487385Y3614500D01*
X18487386Y3614500D01*
X18612614Y3614500D01*
X18612615Y3614500D01*
X18732773Y3649782D01*
X18838124Y3717487D01*
X18920133Y3812130D01*
X18972156Y3926044D01*
X18977344Y3962129D01*
X18989978Y4049998D01*
X19510022Y4049998D01*
X19527842Y3926049D01*
X19527843Y3926047D01*
X19527843Y3926046D01*
X19527844Y3926044D01*
X19579867Y3812130D01*
X19579868Y3812129D01*
X19661875Y3717488D01*
X19661875Y3717487D01*
X19767225Y3649783D01*
X19767227Y3649782D01*
X19887385Y3614500D01*
X19887386Y3614500D01*
X20012614Y3614500D01*
X20012615Y3614500D01*
X20132773Y3649782D01*
X20238124Y3717487D01*
X20266295Y3749998D01*
X22410022Y3749998D01*
X22427842Y3626049D01*
X22427843Y3626047D01*
X22427843Y3626046D01*
X22427844Y3626044D01*
X22479867Y3512130D01*
X22479868Y3512129D01*
X22561875Y3417488D01*
X22561875Y3417487D01*
X22667225Y3349783D01*
X22667227Y3349782D01*
X22787385Y3314500D01*
X22787386Y3314500D01*
X22912614Y3314500D01*
X22912615Y3314500D01*
X23032773Y3349782D01*
X23138124Y3417487D01*
X23220133Y3512130D01*
X23272156Y3626044D01*
X23273086Y3632513D01*
X23289978Y3749998D01*
X23289978Y3750003D01*
X23272157Y3873952D01*
X23272156Y3873954D01*
X23272156Y3873956D01*
X23220133Y3987870D01*
X23182342Y4031483D01*
X23158525Y4087843D01*
X23172384Y4147438D01*
X23184225Y4161496D01*
X23183487Y4162135D01*
X23216299Y4200003D01*
X23270133Y4262130D01*
X23322156Y4376044D01*
X23323086Y4382513D01*
X23339978Y4499998D01*
X23339978Y4500003D01*
X23322157Y4623952D01*
X23322156Y4623954D01*
X23322156Y4623956D01*
X23270133Y4737870D01*
X23188124Y4832513D01*
X23188124Y4832514D01*
X23082774Y4900218D01*
X22962616Y4935500D01*
X22962615Y4935500D01*
X22837385Y4935500D01*
X22837383Y4935500D01*
X22717225Y4900218D01*
X22611875Y4832514D01*
X22611875Y4832513D01*
X22529868Y4737872D01*
X22477843Y4623954D01*
X22477842Y4623952D01*
X22460022Y4500003D01*
X22460022Y4499998D01*
X22477842Y4376049D01*
X22477843Y4376047D01*
X22477843Y4376046D01*
X22477844Y4376044D01*
X22529867Y4262130D01*
X22529868Y4262129D01*
X22567657Y4218518D01*
X22591475Y4162159D01*
X22577617Y4102564D01*
X22565780Y4088498D01*
X22566513Y4087863D01*
X22561878Y4082515D01*
X22561876Y4082513D01*
X22479867Y3987870D01*
X22427843Y3873954D01*
X22427842Y3873952D01*
X22410022Y3750003D01*
X22410022Y3749998D01*
X20266295Y3749998D01*
X20320133Y3812130D01*
X20372156Y3926044D01*
X20377344Y3962129D01*
X20389978Y4049998D01*
X20389978Y4050003D01*
X20372157Y4173952D01*
X20372156Y4173954D01*
X20372156Y4173956D01*
X20320133Y4287870D01*
X20238124Y4382513D01*
X20238124Y4382514D01*
X20132774Y4450218D01*
X20012616Y4485500D01*
X20012615Y4485500D01*
X19887385Y4485500D01*
X19887383Y4485500D01*
X19767225Y4450218D01*
X19661875Y4382514D01*
X19661875Y4382513D01*
X19579868Y4287872D01*
X19527843Y4173954D01*
X19527842Y4173952D01*
X19510022Y4050003D01*
X19510022Y4049998D01*
X18989978Y4049998D01*
X18989978Y4050003D01*
X18972157Y4173952D01*
X18972156Y4173954D01*
X18972156Y4173956D01*
X18920133Y4287870D01*
X18838124Y4382513D01*
X18838124Y4382514D01*
X18732774Y4450218D01*
X18612616Y4485500D01*
X18612615Y4485500D01*
X18487385Y4485500D01*
X18487383Y4485500D01*
X18367225Y4450218D01*
X18261875Y4382514D01*
X18261875Y4382513D01*
X18179868Y4287872D01*
X18127843Y4173954D01*
X18127842Y4173952D01*
X18110022Y4050003D01*
X18110022Y4049998D01*
X8560261Y4049998D01*
X8572156Y4076044D01*
X8573086Y4082513D01*
X8589978Y4199998D01*
X8589978Y4200003D01*
X8572157Y4323952D01*
X8572156Y4323954D01*
X8572156Y4323956D01*
X8520133Y4437870D01*
X8438124Y4532513D01*
X8438124Y4532514D01*
X8332774Y4600218D01*
X8212616Y4635500D01*
X8212615Y4635500D01*
X8087385Y4635500D01*
X8087383Y4635500D01*
X7967225Y4600218D01*
X7861875Y4532514D01*
X7861875Y4532513D01*
X7779868Y4437872D01*
X7727843Y4323954D01*
X7727842Y4323952D01*
X7710022Y4200003D01*
X7710022Y4199998D01*
X4432790Y4199998D01*
X4422157Y4273952D01*
X4422156Y4273954D01*
X4422156Y4273956D01*
X4370133Y4387870D01*
X4288124Y4482513D01*
X4288124Y4482514D01*
X4182774Y4550218D01*
X4062616Y4585500D01*
X4062615Y4585500D01*
X3937385Y4585500D01*
X3937383Y4585500D01*
X3817225Y4550218D01*
X3711875Y4482514D01*
X3711875Y4482513D01*
X3629868Y4387872D01*
X3577843Y4273954D01*
X3577842Y4273952D01*
X3560022Y4150003D01*
X3560022Y4149998D01*
X200500Y4149998D01*
X200500Y5249998D01*
X4160022Y5249998D01*
X4177842Y5126049D01*
X4177843Y5126047D01*
X4177843Y5126046D01*
X4177844Y5126044D01*
X4229867Y5012130D01*
X4229868Y5012129D01*
X4311875Y4917488D01*
X4311875Y4917487D01*
X4394325Y4864500D01*
X4417227Y4849782D01*
X4537385Y4814500D01*
X4537386Y4814500D01*
X4662614Y4814500D01*
X4662615Y4814500D01*
X4782773Y4849782D01*
X4888124Y4917487D01*
X4970133Y5012130D01*
X5022156Y5126044D01*
X5039599Y5247369D01*
X5066594Y5302275D01*
X5120708Y5330829D01*
X5181271Y5322122D01*
X5191111Y5316566D01*
X5217227Y5299782D01*
X5337385Y5264500D01*
X5337386Y5264500D01*
X5462614Y5264500D01*
X5462615Y5264500D01*
X5582773Y5299782D01*
X5583109Y5299998D01*
X6810022Y5299998D01*
X6827842Y5176049D01*
X6827843Y5176047D01*
X6827843Y5176046D01*
X6827844Y5176044D01*
X6879867Y5062130D01*
X6892555Y5047487D01*
X6961875Y4967488D01*
X6961875Y4967487D01*
X7067225Y4899783D01*
X7067227Y4899782D01*
X7187385Y4864500D01*
X7187386Y4864500D01*
X7312614Y4864500D01*
X7312615Y4864500D01*
X7432773Y4899782D01*
X7538124Y4967487D01*
X7620133Y5062130D01*
X7672156Y5176044D01*
X7675600Y5199998D01*
X7689978Y5299998D01*
X7689978Y5300003D01*
X7672157Y5423952D01*
X7672156Y5423954D01*
X7672156Y5423956D01*
X7620133Y5537870D01*
X7538124Y5632513D01*
X7538124Y5632514D01*
X7432774Y5700218D01*
X7312616Y5735500D01*
X7312615Y5735500D01*
X7187385Y5735500D01*
X7187383Y5735500D01*
X7067225Y5700218D01*
X6961875Y5632514D01*
X6961875Y5632513D01*
X6879868Y5537872D01*
X6827843Y5423954D01*
X6827842Y5423952D01*
X6810022Y5300003D01*
X6810022Y5299998D01*
X5583109Y5299998D01*
X5688124Y5367487D01*
X5770133Y5462130D01*
X5822156Y5576044D01*
X5823086Y5582513D01*
X5839978Y5699998D01*
X5839978Y5700003D01*
X5822157Y5823952D01*
X5822156Y5823954D01*
X5822156Y5823956D01*
X5770133Y5937870D01*
X5759624Y5949998D01*
X13760022Y5949998D01*
X13777842Y5826049D01*
X13777843Y5826047D01*
X13777843Y5826046D01*
X13777844Y5826044D01*
X13829867Y5712130D01*
X13842912Y5697075D01*
X13911875Y5617488D01*
X13911875Y5617487D01*
X14017225Y5549783D01*
X14017227Y5549782D01*
X14137385Y5514500D01*
X14137386Y5514500D01*
X14262614Y5514500D01*
X14262615Y5514500D01*
X14382773Y5549782D01*
X14488124Y5617487D01*
X14570133Y5712130D01*
X14622156Y5826044D01*
X14627523Y5863373D01*
X14639978Y5949998D01*
X14639978Y5950003D01*
X14622157Y6073952D01*
X14622156Y6073954D01*
X14622156Y6073956D01*
X14570133Y6187870D01*
X14488124Y6282513D01*
X14488124Y6282514D01*
X14382774Y6350218D01*
X14262616Y6385500D01*
X14262615Y6385500D01*
X14137385Y6385500D01*
X14137383Y6385500D01*
X14017225Y6350218D01*
X13911875Y6282514D01*
X13911875Y6282513D01*
X13829868Y6187872D01*
X13829867Y6187871D01*
X13829867Y6187870D01*
X13815011Y6155339D01*
X13777843Y6073954D01*
X13777842Y6073952D01*
X13760022Y5950003D01*
X13760022Y5949998D01*
X5759624Y5949998D01*
X5688124Y6032513D01*
X5688124Y6032514D01*
X5582774Y6100218D01*
X5462616Y6135500D01*
X5462615Y6135500D01*
X5337385Y6135500D01*
X5337383Y6135500D01*
X5217225Y6100218D01*
X5111875Y6032514D01*
X5111875Y6032513D01*
X5029868Y5937872D01*
X4977843Y5823954D01*
X4977842Y5823951D01*
X4960400Y5702633D01*
X4933404Y5647725D01*
X4879290Y5619172D01*
X4818727Y5627879D01*
X4808886Y5633437D01*
X4782773Y5650218D01*
X4662616Y5685500D01*
X4662615Y5685500D01*
X4537385Y5685500D01*
X4537383Y5685500D01*
X4417225Y5650218D01*
X4311875Y5582514D01*
X4311875Y5582513D01*
X4229868Y5487872D01*
X4177843Y5373954D01*
X4177842Y5373952D01*
X4160022Y5250003D01*
X4160022Y5249998D01*
X200500Y5249998D01*
X200500Y7024998D01*
X12260022Y7024998D01*
X12277842Y6901049D01*
X12277843Y6901047D01*
X12277843Y6901046D01*
X12277844Y6901044D01*
X12329867Y6787130D01*
X12329868Y6787129D01*
X12411875Y6692488D01*
X12411875Y6692487D01*
X12517225Y6624783D01*
X12517227Y6624782D01*
X12637385Y6589500D01*
X12637386Y6589500D01*
X12762614Y6589500D01*
X12762615Y6589500D01*
X12882773Y6624782D01*
X12988124Y6692487D01*
X13070133Y6787130D01*
X13122156Y6901044D01*
X13129226Y6950218D01*
X13139978Y7024998D01*
X13139978Y7025003D01*
X13122157Y7148953D01*
X13120847Y7153414D01*
X13122591Y7214575D01*
X13159951Y7263030D01*
X13176725Y7270980D01*
X13176332Y7271841D01*
X13182765Y7274780D01*
X13182773Y7274782D01*
X13288124Y7342487D01*
X13370133Y7437130D01*
X13422156Y7551044D01*
X13424091Y7564501D01*
X13439978Y7674998D01*
X13439978Y7675003D01*
X13422157Y7798952D01*
X13422156Y7798954D01*
X13422156Y7798956D01*
X13370133Y7912870D01*
X13288124Y8007513D01*
X13288124Y8007514D01*
X13182774Y8075218D01*
X13062616Y8110500D01*
X13062615Y8110500D01*
X12937385Y8110500D01*
X12937383Y8110500D01*
X12817225Y8075218D01*
X12711875Y8007514D01*
X12711875Y8007513D01*
X12629868Y7912872D01*
X12577843Y7798954D01*
X12577842Y7798952D01*
X12560022Y7675003D01*
X12560022Y7674998D01*
X12577843Y7551046D01*
X12579154Y7546581D01*
X12577406Y7485421D01*
X12540043Y7436968D01*
X12523278Y7429019D01*
X12523670Y7428161D01*
X12517227Y7425219D01*
X12411875Y7357514D01*
X12411875Y7357513D01*
X12329868Y7262872D01*
X12277843Y7148954D01*
X12277842Y7148952D01*
X12260022Y7025003D01*
X12260022Y7024998D01*
X200500Y7024998D01*
X200500Y7999998D01*
X2860022Y7999998D01*
X2877842Y7876049D01*
X2877843Y7876047D01*
X2877843Y7876046D01*
X2877844Y7876044D01*
X2929867Y7762130D01*
X2970871Y7714809D01*
X3011875Y7667488D01*
X3011875Y7667487D01*
X3117225Y7599783D01*
X3117227Y7599782D01*
X3237385Y7564500D01*
X3237386Y7564500D01*
X3362614Y7564500D01*
X3362615Y7564500D01*
X3482773Y7599782D01*
X3560911Y7649998D01*
X10110022Y7649998D01*
X10127842Y7526049D01*
X10127843Y7526047D01*
X10127843Y7526046D01*
X10127844Y7526044D01*
X10179867Y7412130D01*
X10179868Y7412129D01*
X10261875Y7317488D01*
X10261875Y7317487D01*
X10348013Y7262130D01*
X10367227Y7249782D01*
X10487385Y7214500D01*
X10487386Y7214500D01*
X10612614Y7214500D01*
X10612615Y7214500D01*
X10732773Y7249782D01*
X10838124Y7317487D01*
X10920133Y7412130D01*
X10972156Y7526044D01*
X10975109Y7546581D01*
X10989978Y7649998D01*
X10989978Y7650003D01*
X10972157Y7773952D01*
X10972156Y7773954D01*
X10972156Y7773956D01*
X10920133Y7887870D01*
X10838124Y7982513D01*
X10838124Y7982514D01*
X10732774Y8050218D01*
X10612616Y8085500D01*
X10612615Y8085500D01*
X10487385Y8085500D01*
X10487383Y8085500D01*
X10367225Y8050218D01*
X10261875Y7982514D01*
X10261875Y7982513D01*
X10179868Y7887872D01*
X10127843Y7773954D01*
X10127842Y7773952D01*
X10110022Y7650003D01*
X10110022Y7649998D01*
X3560911Y7649998D01*
X3588124Y7667487D01*
X3670133Y7762130D01*
X3722156Y7876044D01*
X3722157Y7876049D01*
X3739978Y7999998D01*
X3739978Y8000003D01*
X3722157Y8123952D01*
X3722156Y8123954D01*
X3722156Y8123956D01*
X3670133Y8237870D01*
X3588124Y8332513D01*
X3588124Y8332514D01*
X3482774Y8400218D01*
X3362616Y8435500D01*
X3362615Y8435500D01*
X3237385Y8435500D01*
X3237383Y8435500D01*
X3117225Y8400218D01*
X3011875Y8332514D01*
X3011875Y8332513D01*
X2929868Y8237872D01*
X2877843Y8123954D01*
X2877842Y8123952D01*
X2860022Y8000003D01*
X2860022Y7999998D01*
X200500Y7999998D01*
X200500Y8949998D01*
X1760022Y8949998D01*
X1777842Y8826049D01*
X1777843Y8826047D01*
X1777843Y8826046D01*
X1777844Y8826044D01*
X1829867Y8712130D01*
X1840566Y8699783D01*
X1911875Y8617488D01*
X1911875Y8617487D01*
X1985767Y8570000D01*
X2017227Y8549782D01*
X2137385Y8514500D01*
X2137386Y8514500D01*
X2262614Y8514500D01*
X2262615Y8514500D01*
X2382773Y8549782D01*
X2488124Y8617487D01*
X2498965Y8629998D01*
X9140022Y8629998D01*
X9157842Y8506049D01*
X9157843Y8506047D01*
X9157843Y8506046D01*
X9157844Y8506044D01*
X9209867Y8392130D01*
X9209868Y8392129D01*
X9291875Y8297488D01*
X9291875Y8297487D01*
X9397225Y8229783D01*
X9397227Y8229782D01*
X9517385Y8194500D01*
X9517386Y8194500D01*
X9642614Y8194500D01*
X9642615Y8194500D01*
X9762773Y8229782D01*
X9868124Y8297487D01*
X9902326Y8336959D01*
X9954719Y8368554D01*
X10015680Y8363319D01*
X10030660Y8355416D01*
X10117227Y8299782D01*
X10237385Y8264500D01*
X10237386Y8264500D01*
X10362614Y8264500D01*
X10362615Y8264500D01*
X10482773Y8299782D01*
X10560911Y8349998D01*
X13710022Y8349998D01*
X13727842Y8226049D01*
X13727843Y8226047D01*
X13727843Y8226046D01*
X13727844Y8226044D01*
X13779867Y8112130D01*
X13802942Y8085500D01*
X13861875Y8017488D01*
X13861875Y8017487D01*
X13967225Y7949783D01*
X13967227Y7949782D01*
X14087385Y7914500D01*
X14087386Y7914500D01*
X14212614Y7914500D01*
X14212615Y7914500D01*
X14332773Y7949782D01*
X14438124Y8017487D01*
X14520133Y8112130D01*
X14572156Y8226044D01*
X14572157Y8226049D01*
X14589978Y8349998D01*
X14589978Y8350003D01*
X14572157Y8473952D01*
X14572156Y8473954D01*
X14572156Y8473956D01*
X14520133Y8587870D01*
X14438124Y8682513D01*
X14438124Y8682514D01*
X14332774Y8750218D01*
X14212616Y8785500D01*
X14212615Y8785500D01*
X14087385Y8785500D01*
X14087383Y8785500D01*
X13967225Y8750218D01*
X13861875Y8682514D01*
X13861875Y8682513D01*
X13779868Y8587872D01*
X13727843Y8473954D01*
X13727842Y8473952D01*
X13710022Y8350003D01*
X13710022Y8349998D01*
X10560911Y8349998D01*
X10588124Y8367487D01*
X10670133Y8462130D01*
X10722156Y8576044D01*
X10722157Y8576049D01*
X10739978Y8699998D01*
X10739978Y8700003D01*
X10722157Y8823952D01*
X10722156Y8823954D01*
X10722156Y8823956D01*
X10670133Y8937870D01*
X10588124Y9032513D01*
X10588124Y9032514D01*
X10483116Y9099998D01*
X11610022Y9099998D01*
X11627842Y8976049D01*
X11627843Y8976047D01*
X11627843Y8976046D01*
X11627844Y8976044D01*
X11679867Y8862130D01*
X11679868Y8862129D01*
X11761875Y8767488D01*
X11761875Y8767487D01*
X11867225Y8699783D01*
X11867227Y8699782D01*
X11987385Y8664500D01*
X11987386Y8664500D01*
X12112614Y8664500D01*
X12112615Y8664500D01*
X12232773Y8699782D01*
X12338124Y8767487D01*
X12420133Y8862130D01*
X12472156Y8976044D01*
X12480275Y9032514D01*
X12489978Y9099998D01*
X14890022Y9099998D01*
X14907842Y8976049D01*
X14907843Y8976047D01*
X14907843Y8976046D01*
X14907844Y8976044D01*
X14955981Y8870640D01*
X14958475Y8865178D01*
X14965449Y8804391D01*
X14958475Y8782926D01*
X14917843Y8693954D01*
X14917842Y8693952D01*
X14900022Y8570003D01*
X14900022Y8569998D01*
X14917842Y8446049D01*
X14917843Y8446047D01*
X14917843Y8446046D01*
X14917844Y8446044D01*
X14938772Y8400218D01*
X14963475Y8346126D01*
X14970449Y8285339D01*
X14963475Y8263874D01*
X14917843Y8163954D01*
X14917842Y8163952D01*
X14900022Y8040003D01*
X14900022Y8039998D01*
X14917842Y7916049D01*
X14917843Y7916047D01*
X14917843Y7916046D01*
X14917844Y7916044D01*
X14965759Y7811126D01*
X14972733Y7750340D01*
X14965759Y7728877D01*
X14937724Y7667487D01*
X14917843Y7623954D01*
X14917842Y7623952D01*
X14900022Y7500003D01*
X14900022Y7499998D01*
X14917842Y7376049D01*
X14917843Y7376047D01*
X14917843Y7376046D01*
X14917844Y7376044D01*
X14926307Y7357513D01*
X14968475Y7265178D01*
X14975449Y7204391D01*
X14968475Y7182926D01*
X14927843Y7093954D01*
X14927842Y7093952D01*
X14910022Y6970003D01*
X14910022Y6969998D01*
X14927842Y6846049D01*
X14927843Y6846047D01*
X14927843Y6846046D01*
X14927844Y6846044D01*
X14954410Y6787872D01*
X14973475Y6746126D01*
X14980449Y6685339D01*
X14973475Y6663874D01*
X14927843Y6563954D01*
X14927842Y6563952D01*
X14910022Y6440003D01*
X14910022Y6439998D01*
X14927842Y6316049D01*
X14927843Y6316047D01*
X14927843Y6316046D01*
X14927844Y6316044D01*
X14932411Y6306044D01*
X14973475Y6216126D01*
X14980449Y6155339D01*
X14973475Y6133874D01*
X14927843Y6033954D01*
X14927842Y6033952D01*
X14910022Y5910003D01*
X14910022Y5909998D01*
X14927842Y5786049D01*
X14927843Y5786047D01*
X14927843Y5786046D01*
X14927844Y5786044D01*
X14967040Y5700218D01*
X14968475Y5697075D01*
X14975449Y5636288D01*
X14968475Y5614823D01*
X14917843Y5503954D01*
X14917842Y5503952D01*
X14900022Y5380003D01*
X14900022Y5379998D01*
X14917842Y5256049D01*
X14917843Y5256047D01*
X14917843Y5256046D01*
X14917844Y5256044D01*
X14969867Y5142130D01*
X14983801Y5126049D01*
X15051875Y5047488D01*
X15051875Y5047487D01*
X15157225Y4979783D01*
X15157227Y4979782D01*
X15277385Y4944500D01*
X15277386Y4944500D01*
X15343193Y4944500D01*
X15401384Y4925593D01*
X15433247Y4886626D01*
X15439867Y4872130D01*
X15439867Y4872129D01*
X15521875Y4777488D01*
X15521875Y4777487D01*
X15583521Y4737870D01*
X15627227Y4709782D01*
X15747385Y4674500D01*
X15747386Y4674500D01*
X15872614Y4674500D01*
X15872615Y4674500D01*
X15992773Y4709782D01*
X16098124Y4777487D01*
X16180133Y4872130D01*
X16182185Y4876625D01*
X16223556Y4921703D01*
X16272240Y4934500D01*
X16283193Y4934500D01*
X16341384Y4915593D01*
X16373246Y4876627D01*
X16379867Y4862130D01*
X16379866Y4862130D01*
X16461875Y4767488D01*
X16461875Y4767487D01*
X16567225Y4699783D01*
X16567227Y4699782D01*
X16687385Y4664500D01*
X16687386Y4664500D01*
X16812614Y4664500D01*
X16812615Y4664500D01*
X16932773Y4699782D01*
X17038124Y4767487D01*
X17120133Y4862130D01*
X17124700Y4872130D01*
X17126754Y4876627D01*
X17168127Y4921705D01*
X17216807Y4934500D01*
X17272614Y4934500D01*
X17272615Y4934500D01*
X17392773Y4969782D01*
X17498124Y5037487D01*
X17580133Y5132130D01*
X17611127Y5199998D01*
X18110022Y5199998D01*
X18127842Y5076049D01*
X18127843Y5076047D01*
X18127843Y5076046D01*
X18127844Y5076044D01*
X18179867Y4962130D01*
X18179868Y4962129D01*
X18261875Y4867488D01*
X18261875Y4867487D01*
X18344325Y4814500D01*
X18367227Y4799782D01*
X18487385Y4764500D01*
X18487386Y4764500D01*
X18612614Y4764500D01*
X18612615Y4764500D01*
X18732773Y4799782D01*
X18838124Y4867487D01*
X18920133Y4962130D01*
X18972156Y5076044D01*
X18979345Y5126044D01*
X18989978Y5199998D01*
X19510022Y5199998D01*
X19527842Y5076049D01*
X19527843Y5076047D01*
X19527843Y5076046D01*
X19527844Y5076044D01*
X19579867Y4962130D01*
X19579868Y4962129D01*
X19661875Y4867488D01*
X19661875Y4867487D01*
X19744325Y4814500D01*
X19767227Y4799782D01*
X19887385Y4764500D01*
X19887386Y4764500D01*
X20012614Y4764500D01*
X20012615Y4764500D01*
X20132773Y4799782D01*
X20238124Y4867487D01*
X20320133Y4962130D01*
X20372156Y5076044D01*
X20379345Y5126044D01*
X20389978Y5199998D01*
X20389978Y5200003D01*
X20372157Y5323952D01*
X20372156Y5323954D01*
X20372156Y5323956D01*
X20320133Y5437870D01*
X20238124Y5532513D01*
X20238124Y5532514D01*
X20132774Y5600218D01*
X20012616Y5635500D01*
X20012615Y5635500D01*
X19887385Y5635500D01*
X19887383Y5635500D01*
X19767225Y5600218D01*
X19661875Y5532514D01*
X19661875Y5532513D01*
X19579868Y5437872D01*
X19527843Y5323954D01*
X19527842Y5323952D01*
X19510022Y5200003D01*
X19510022Y5199998D01*
X18989978Y5199998D01*
X18989978Y5200003D01*
X18972157Y5323952D01*
X18972156Y5323954D01*
X18972156Y5323956D01*
X18920133Y5437870D01*
X18838124Y5532513D01*
X18838124Y5532514D01*
X18732774Y5600218D01*
X18612616Y5635500D01*
X18612615Y5635500D01*
X18487385Y5635500D01*
X18487383Y5635500D01*
X18367225Y5600218D01*
X18261875Y5532514D01*
X18261875Y5532513D01*
X18179868Y5437872D01*
X18127843Y5323954D01*
X18127842Y5323952D01*
X18110022Y5200003D01*
X18110022Y5199998D01*
X17611127Y5199998D01*
X17632156Y5246044D01*
X17632346Y5247367D01*
X17649978Y5369998D01*
X17649978Y5370003D01*
X17632157Y5493952D01*
X17632156Y5493954D01*
X17632156Y5493956D01*
X17580133Y5607870D01*
X17498124Y5702513D01*
X17498124Y5702514D01*
X17392774Y5770218D01*
X17272616Y5805500D01*
X17272615Y5805500D01*
X17216807Y5805500D01*
X17158616Y5824407D01*
X17126754Y5863373D01*
X17123592Y5870295D01*
X17120133Y5877870D01*
X17120132Y5877871D01*
X17120133Y5877871D01*
X17038124Y5972513D01*
X17038124Y5972514D01*
X16932774Y6040218D01*
X16812616Y6075500D01*
X16812615Y6075500D01*
X16760917Y6075500D01*
X16702726Y6094407D01*
X16666762Y6143907D01*
X16666762Y6205093D01*
X16670863Y6215626D01*
X16712156Y6306044D01*
X16713594Y6316047D01*
X16729978Y6429998D01*
X16729978Y6430003D01*
X16719914Y6499998D01*
X18110022Y6499998D01*
X18127842Y6376049D01*
X18127843Y6376047D01*
X18127843Y6376046D01*
X18127844Y6376044D01*
X18179867Y6262130D01*
X18179868Y6262129D01*
X18261875Y6167488D01*
X18261875Y6167487D01*
X18367225Y6099783D01*
X18367227Y6099782D01*
X18487385Y6064500D01*
X18487386Y6064500D01*
X18612614Y6064500D01*
X18612615Y6064500D01*
X18732773Y6099782D01*
X18838124Y6167487D01*
X18920133Y6262130D01*
X18972156Y6376044D01*
X18979345Y6426044D01*
X18989978Y6499998D01*
X18989978Y6500003D01*
X18982790Y6549998D01*
X19460022Y6549998D01*
X19477842Y6426049D01*
X19477843Y6426047D01*
X19477843Y6426046D01*
X19477844Y6426044D01*
X19529867Y6312130D01*
X19529868Y6312129D01*
X19611875Y6217488D01*
X19611875Y6217487D01*
X19708580Y6155339D01*
X19717227Y6149782D01*
X19837385Y6114500D01*
X19837386Y6114500D01*
X19962614Y6114500D01*
X19962615Y6114500D01*
X20082773Y6149782D01*
X20188124Y6217487D01*
X20270133Y6312130D01*
X20322156Y6426044D01*
X20322157Y6426049D01*
X20339978Y6549998D01*
X20339978Y6550003D01*
X20322157Y6673952D01*
X20322156Y6673954D01*
X20322156Y6673956D01*
X20270133Y6787870D01*
X20188124Y6882513D01*
X20188124Y6882514D01*
X20082774Y6950218D01*
X19962616Y6985500D01*
X19962615Y6985500D01*
X19837385Y6985500D01*
X19837383Y6985500D01*
X19717225Y6950218D01*
X19611875Y6882514D01*
X19611875Y6882513D01*
X19529868Y6787872D01*
X19477843Y6673954D01*
X19477842Y6673952D01*
X19460022Y6550003D01*
X19460022Y6549998D01*
X18982790Y6549998D01*
X18972157Y6623952D01*
X18972156Y6623954D01*
X18972156Y6623956D01*
X18920133Y6737870D01*
X18838124Y6832513D01*
X18838124Y6832514D01*
X18732774Y6900218D01*
X18612616Y6935500D01*
X18612615Y6935500D01*
X18487385Y6935500D01*
X18487383Y6935500D01*
X18367225Y6900218D01*
X18261875Y6832514D01*
X18261875Y6832513D01*
X18179868Y6737872D01*
X18127843Y6623954D01*
X18127842Y6623952D01*
X18110022Y6500003D01*
X18110022Y6499998D01*
X16719914Y6499998D01*
X16712157Y6553952D01*
X16712155Y6553960D01*
X16666525Y6653874D01*
X16659550Y6714660D01*
X16666525Y6736126D01*
X16712155Y6836041D01*
X16712157Y6836049D01*
X16729978Y6959998D01*
X16729978Y6960003D01*
X16712157Y7083952D01*
X16712156Y7083954D01*
X16712156Y7083956D01*
X16664240Y7188876D01*
X16657266Y7249660D01*
X16664239Y7271121D01*
X16712156Y7376044D01*
X16717344Y7412129D01*
X16729978Y7499998D01*
X16729978Y7500003D01*
X16712157Y7623952D01*
X16712156Y7623954D01*
X16712156Y7623956D01*
X16664240Y7728876D01*
X16657266Y7789660D01*
X16660625Y7799998D01*
X18110022Y7799998D01*
X18127842Y7676049D01*
X18127843Y7676047D01*
X18127843Y7676046D01*
X18127844Y7676044D01*
X18179867Y7562130D01*
X18179868Y7562129D01*
X18261875Y7467488D01*
X18261875Y7467487D01*
X18367225Y7399783D01*
X18367227Y7399782D01*
X18487385Y7364500D01*
X18487386Y7364500D01*
X18612614Y7364500D01*
X18612615Y7364500D01*
X18732773Y7399782D01*
X18838124Y7467487D01*
X18920133Y7562130D01*
X18972156Y7676044D01*
X18972157Y7676049D01*
X18989978Y7799998D01*
X19510022Y7799998D01*
X19527842Y7676049D01*
X19527843Y7676047D01*
X19527843Y7676046D01*
X19527844Y7676044D01*
X19579867Y7562130D01*
X19579868Y7562129D01*
X19661875Y7467488D01*
X19661875Y7467487D01*
X19767225Y7399783D01*
X19767227Y7399782D01*
X19887385Y7364500D01*
X19887386Y7364500D01*
X20012614Y7364500D01*
X20012615Y7364500D01*
X20132773Y7399782D01*
X20238124Y7467487D01*
X20320133Y7562130D01*
X20372156Y7676044D01*
X20372157Y7676049D01*
X20389978Y7799998D01*
X20389978Y7800003D01*
X20372157Y7923952D01*
X20372156Y7923954D01*
X20372156Y7923956D01*
X20320133Y8037870D01*
X20238124Y8132513D01*
X20238124Y8132514D01*
X20132774Y8200218D01*
X20012616Y8235500D01*
X20012615Y8235500D01*
X19887385Y8235500D01*
X19887383Y8235500D01*
X19767225Y8200218D01*
X19661875Y8132514D01*
X19661875Y8132513D01*
X19579868Y8037872D01*
X19527843Y7923954D01*
X19527842Y7923952D01*
X19510022Y7800003D01*
X19510022Y7799998D01*
X18989978Y7799998D01*
X18989978Y7800003D01*
X18972157Y7923952D01*
X18972156Y7923954D01*
X18972156Y7923956D01*
X18920133Y8037870D01*
X18838124Y8132513D01*
X18838124Y8132514D01*
X18732774Y8200218D01*
X18612616Y8235500D01*
X18612615Y8235500D01*
X18487385Y8235500D01*
X18487383Y8235500D01*
X18367225Y8200218D01*
X18261875Y8132514D01*
X18261875Y8132513D01*
X18179868Y8037872D01*
X18127843Y7923954D01*
X18127842Y7923952D01*
X18110022Y7800003D01*
X18110022Y7799998D01*
X16660625Y7799998D01*
X16664241Y7811126D01*
X16712156Y7916044D01*
X16713293Y7923952D01*
X16729978Y8039998D01*
X16729978Y8040003D01*
X16712157Y8163952D01*
X16712155Y8163960D01*
X16666525Y8263874D01*
X16659550Y8324660D01*
X16666525Y8346126D01*
X16712155Y8446041D01*
X16712157Y8446049D01*
X16729978Y8569998D01*
X16729978Y8570003D01*
X16712157Y8693952D01*
X16712156Y8693953D01*
X16712156Y8693954D01*
X16712156Y8693956D01*
X16661523Y8804825D01*
X16654550Y8865609D01*
X16661523Y8887073D01*
X16690261Y8949998D01*
X19510022Y8949998D01*
X19527842Y8826049D01*
X19527843Y8826047D01*
X19527843Y8826046D01*
X19527844Y8826044D01*
X19579867Y8712130D01*
X19590566Y8699783D01*
X19661875Y8617488D01*
X19661875Y8617487D01*
X19735767Y8570000D01*
X19767227Y8549782D01*
X19887385Y8514500D01*
X19887386Y8514500D01*
X20012614Y8514500D01*
X20012615Y8514500D01*
X20132773Y8549782D01*
X20238124Y8617487D01*
X20320133Y8712130D01*
X20372156Y8826044D01*
X20372614Y8829230D01*
X20389978Y8949998D01*
X20389978Y8950003D01*
X20372157Y9073952D01*
X20372156Y9073954D01*
X20372156Y9073956D01*
X20320133Y9187870D01*
X20238124Y9282513D01*
X20238124Y9282514D01*
X20132774Y9350218D01*
X20012616Y9385500D01*
X20012615Y9385500D01*
X19887385Y9385500D01*
X19887383Y9385500D01*
X19767225Y9350218D01*
X19661875Y9282514D01*
X19661875Y9282513D01*
X19579868Y9187872D01*
X19527843Y9073954D01*
X19527842Y9073952D01*
X19510022Y8950003D01*
X19510022Y8949998D01*
X16690261Y8949998D01*
X16702156Y8976044D01*
X16710275Y9032514D01*
X16719978Y9099998D01*
X16719978Y9100003D01*
X16702157Y9223952D01*
X16702156Y9223954D01*
X16702156Y9223956D01*
X16650133Y9337870D01*
X16568124Y9432513D01*
X16568124Y9432514D01*
X16462774Y9500218D01*
X16342616Y9535500D01*
X16342615Y9535500D01*
X16217385Y9535500D01*
X16217383Y9535500D01*
X16097225Y9500218D01*
X15991875Y9432514D01*
X15991875Y9432513D01*
X15909867Y9337872D01*
X15909866Y9337869D01*
X15907814Y9333375D01*
X15866443Y9288297D01*
X15817760Y9275500D01*
X15792240Y9275500D01*
X15734049Y9294407D01*
X15702187Y9333372D01*
X15700132Y9337872D01*
X15618124Y9432513D01*
X15618124Y9432514D01*
X15512774Y9500218D01*
X15392616Y9535500D01*
X15392615Y9535500D01*
X15267385Y9535500D01*
X15267383Y9535500D01*
X15147225Y9500218D01*
X15041875Y9432514D01*
X15041875Y9432513D01*
X14959868Y9337872D01*
X14907843Y9223954D01*
X14907842Y9223952D01*
X14890022Y9100003D01*
X14890022Y9099998D01*
X12489978Y9099998D01*
X12489978Y9100003D01*
X12472157Y9223952D01*
X12472156Y9223954D01*
X12472156Y9223956D01*
X12420133Y9337870D01*
X12338124Y9432513D01*
X12338124Y9432514D01*
X12232774Y9500218D01*
X12112616Y9535500D01*
X12112615Y9535500D01*
X11987385Y9535500D01*
X11987383Y9535500D01*
X11867225Y9500218D01*
X11761875Y9432514D01*
X11761875Y9432513D01*
X11679868Y9337872D01*
X11627843Y9223954D01*
X11627842Y9223952D01*
X11610022Y9100003D01*
X11610022Y9099998D01*
X10483116Y9099998D01*
X10482774Y9100218D01*
X10362616Y9135500D01*
X10362615Y9135500D01*
X10237385Y9135500D01*
X10237383Y9135500D01*
X10117225Y9100218D01*
X10011877Y9032515D01*
X9977674Y8993042D01*
X9925278Y8961447D01*
X9864317Y8966683D01*
X9849335Y8974588D01*
X9797554Y9007866D01*
X9762772Y9030219D01*
X9642616Y9065500D01*
X9642615Y9065500D01*
X9517385Y9065500D01*
X9517383Y9065500D01*
X9397225Y9030218D01*
X9291875Y8962514D01*
X9291875Y8962513D01*
X9209868Y8867872D01*
X9209867Y8867871D01*
X9209867Y8867870D01*
X9208638Y8865178D01*
X9157843Y8753954D01*
X9157842Y8753952D01*
X9140022Y8630003D01*
X9140022Y8629998D01*
X2498965Y8629998D01*
X2570133Y8712130D01*
X2622156Y8826044D01*
X2622614Y8829230D01*
X2639978Y8949998D01*
X2639978Y8950003D01*
X2622157Y9073952D01*
X2622156Y9073954D01*
X2622156Y9073956D01*
X2570133Y9187870D01*
X2488124Y9282513D01*
X2488124Y9282514D01*
X2382774Y9350218D01*
X2262616Y9385500D01*
X2262615Y9385500D01*
X2137385Y9385500D01*
X2137383Y9385500D01*
X2017225Y9350218D01*
X1911875Y9282514D01*
X1911875Y9282513D01*
X1829868Y9187872D01*
X1777843Y9073954D01*
X1777842Y9073952D01*
X1760022Y8950003D01*
X1760022Y8949998D01*
X200500Y8949998D01*
X200500Y9599998D01*
X2810022Y9599998D01*
X2827842Y9476049D01*
X2827843Y9476047D01*
X2827843Y9476046D01*
X2827844Y9476044D01*
X2879867Y9362130D01*
X2904786Y9333372D01*
X2961875Y9267488D01*
X2961875Y9267487D01*
X3067225Y9199783D01*
X3067227Y9199782D01*
X3187385Y9164500D01*
X3187386Y9164500D01*
X3312614Y9164500D01*
X3312615Y9164500D01*
X3432773Y9199782D01*
X3538124Y9267487D01*
X3620133Y9362130D01*
X3672156Y9476044D01*
X3678115Y9517488D01*
X3689978Y9599998D01*
X3689978Y9600003D01*
X3672157Y9723952D01*
X3672156Y9723954D01*
X3672156Y9723956D01*
X3620133Y9837870D01*
X3609624Y9849998D01*
X20960022Y9849998D01*
X20977842Y9726049D01*
X20977843Y9726047D01*
X20977843Y9726046D01*
X20977844Y9726044D01*
X21029867Y9612130D01*
X21040566Y9599783D01*
X21111875Y9517488D01*
X21111875Y9517487D01*
X21217225Y9449783D01*
X21217227Y9449782D01*
X21337385Y9414500D01*
X21337386Y9414500D01*
X21462614Y9414500D01*
X21462615Y9414500D01*
X21582773Y9449782D01*
X21688124Y9517487D01*
X21770133Y9612130D01*
X21822156Y9726044D01*
X21827344Y9762129D01*
X21839978Y9849998D01*
X21839978Y9850003D01*
X21822157Y9973952D01*
X21822156Y9973954D01*
X21822156Y9973956D01*
X21810263Y9999998D01*
X22760022Y9999998D01*
X22777842Y9876049D01*
X22777843Y9876047D01*
X22777843Y9876046D01*
X22777844Y9876044D01*
X22829867Y9762130D01*
X22829868Y9762129D01*
X22911875Y9667488D01*
X22911875Y9667487D01*
X23017225Y9599783D01*
X23017227Y9599782D01*
X23137385Y9564500D01*
X23137386Y9564500D01*
X23262614Y9564500D01*
X23262615Y9564500D01*
X23382773Y9599782D01*
X23488124Y9667487D01*
X23570133Y9762130D01*
X23622156Y9876044D01*
X23636233Y9973954D01*
X23639978Y9999998D01*
X23639978Y10000003D01*
X23622157Y10123952D01*
X23622156Y10123954D01*
X23622156Y10123956D01*
X23570133Y10237870D01*
X23488124Y10332513D01*
X23488124Y10332514D01*
X23382774Y10400218D01*
X23262616Y10435500D01*
X23262615Y10435500D01*
X23137385Y10435500D01*
X23137383Y10435500D01*
X23017225Y10400218D01*
X22911875Y10332514D01*
X22911875Y10332513D01*
X22829868Y10237872D01*
X22777843Y10123954D01*
X22777842Y10123952D01*
X22760022Y10000003D01*
X22760022Y9999998D01*
X21810263Y9999998D01*
X21770133Y10087870D01*
X21688124Y10182513D01*
X21688124Y10182514D01*
X21582774Y10250218D01*
X21462616Y10285500D01*
X21462615Y10285500D01*
X21337385Y10285500D01*
X21337383Y10285500D01*
X21217225Y10250218D01*
X21111875Y10182514D01*
X21111875Y10182513D01*
X21029868Y10087872D01*
X20977843Y9973954D01*
X20977842Y9973952D01*
X20960022Y9850003D01*
X20960022Y9849998D01*
X3609624Y9849998D01*
X3538124Y9932513D01*
X3538124Y9932514D01*
X3432774Y10000218D01*
X3312616Y10035500D01*
X3312615Y10035500D01*
X3187385Y10035500D01*
X3187383Y10035500D01*
X3067225Y10000218D01*
X2961875Y9932514D01*
X2961875Y9932513D01*
X2879868Y9837872D01*
X2827843Y9723954D01*
X2827842Y9723952D01*
X2810022Y9600003D01*
X2810022Y9599998D01*
X200500Y9599998D01*
X200500Y10499998D01*
X4260022Y10499998D01*
X4277842Y10376049D01*
X4277843Y10376047D01*
X4277843Y10376046D01*
X4277844Y10376044D01*
X4329867Y10262130D01*
X4329868Y10262129D01*
X4411875Y10167488D01*
X4411875Y10167487D01*
X4517225Y10099783D01*
X4517227Y10099782D01*
X4637385Y10064500D01*
X4637386Y10064500D01*
X4762614Y10064500D01*
X4762615Y10064500D01*
X4882773Y10099782D01*
X4988124Y10167487D01*
X5070133Y10262130D01*
X5122156Y10376044D01*
X5127685Y10414500D01*
X5139978Y10499998D01*
X5139978Y10500003D01*
X5122157Y10623952D01*
X5122156Y10623954D01*
X5122156Y10623956D01*
X5070133Y10737870D01*
X4988124Y10832513D01*
X4988124Y10832514D01*
X4960918Y10849998D01*
X7310022Y10849998D01*
X7327842Y10726049D01*
X7327843Y10726047D01*
X7327843Y10726046D01*
X7327844Y10726044D01*
X7379867Y10612130D01*
X7379868Y10612129D01*
X7461875Y10517488D01*
X7461875Y10517487D01*
X7544325Y10464500D01*
X7567227Y10449782D01*
X7687385Y10414500D01*
X7687386Y10414500D01*
X7812614Y10414500D01*
X7812615Y10414500D01*
X7932773Y10449782D01*
X8038124Y10517487D01*
X8120133Y10612130D01*
X8172156Y10726044D01*
X8180667Y10785245D01*
X8207662Y10840149D01*
X8261776Y10868703D01*
X8322338Y10859996D01*
X8332176Y10854441D01*
X8417227Y10799782D01*
X8537385Y10764500D01*
X8537386Y10764500D01*
X8662614Y10764500D01*
X8662615Y10764500D01*
X8782773Y10799782D01*
X8888124Y10867487D01*
X8970133Y10962130D01*
X9022156Y11076044D01*
X9023086Y11082513D01*
X9039978Y11199998D01*
X9039978Y11200003D01*
X9022157Y11323952D01*
X9022156Y11323954D01*
X9022156Y11323956D01*
X8970133Y11437870D01*
X8888124Y11532513D01*
X8888124Y11532514D01*
X8782774Y11600218D01*
X8662616Y11635500D01*
X8662615Y11635500D01*
X8537385Y11635500D01*
X8537383Y11635500D01*
X8417225Y11600218D01*
X8311875Y11532514D01*
X8311875Y11532513D01*
X8229868Y11437872D01*
X8177843Y11323954D01*
X8177842Y11323951D01*
X8169332Y11264759D01*
X8142336Y11209851D01*
X8088222Y11181298D01*
X8027659Y11190006D01*
X8017817Y11195564D01*
X7932774Y11250218D01*
X7812616Y11285500D01*
X7812615Y11285500D01*
X7687385Y11285500D01*
X7687383Y11285500D01*
X7567225Y11250218D01*
X7461875Y11182514D01*
X7461875Y11182513D01*
X7379868Y11087872D01*
X7327843Y10973954D01*
X7327842Y10973952D01*
X7310022Y10850003D01*
X7310022Y10849998D01*
X4960918Y10849998D01*
X4882774Y10900218D01*
X4762616Y10935500D01*
X4762615Y10935500D01*
X4637385Y10935500D01*
X4637383Y10935500D01*
X4517225Y10900218D01*
X4411875Y10832514D01*
X4411875Y10832513D01*
X4329868Y10737872D01*
X4277843Y10623954D01*
X4277842Y10623952D01*
X4260022Y10500003D01*
X4260022Y10499998D01*
X200500Y10499998D01*
X200500Y11299998D01*
X2960022Y11299998D01*
X2977842Y11176049D01*
X2977843Y11176047D01*
X2977843Y11176046D01*
X2977844Y11176044D01*
X3029867Y11062130D01*
X3040566Y11049783D01*
X3111875Y10967488D01*
X3111875Y10967487D01*
X3217225Y10899783D01*
X3217227Y10899782D01*
X3337385Y10864500D01*
X3337386Y10864500D01*
X3462614Y10864500D01*
X3462615Y10864500D01*
X3582773Y10899782D01*
X3688124Y10967487D01*
X3770133Y11062130D01*
X3822156Y11176044D01*
X3822157Y11176049D01*
X3839978Y11299998D01*
X3839978Y11300003D01*
X3822157Y11423952D01*
X3822156Y11423954D01*
X3822156Y11423956D01*
X3770133Y11537870D01*
X3688124Y11632513D01*
X3688124Y11632514D01*
X3582774Y11700218D01*
X3462616Y11735500D01*
X3462615Y11735500D01*
X3337385Y11735500D01*
X3337383Y11735500D01*
X3217225Y11700218D01*
X3111875Y11632514D01*
X3111875Y11632513D01*
X3029868Y11537872D01*
X2977843Y11423954D01*
X2977842Y11423952D01*
X2960022Y11300003D01*
X2960022Y11299998D01*
X200500Y11299998D01*
X200500Y11849998D01*
X585022Y11849998D01*
X602842Y11726049D01*
X602843Y11726047D01*
X602843Y11726046D01*
X602844Y11726044D01*
X654867Y11612130D01*
X654868Y11612129D01*
X736875Y11517488D01*
X736875Y11517487D01*
X842225Y11449783D01*
X842227Y11449782D01*
X962385Y11414500D01*
X962386Y11414500D01*
X1087614Y11414500D01*
X1087615Y11414500D01*
X1207773Y11449782D01*
X1313124Y11517487D01*
X1395133Y11612130D01*
X1447156Y11726044D01*
X1453076Y11767219D01*
X1464978Y11849998D01*
X1464978Y11850003D01*
X1447157Y11973952D01*
X1447156Y11973954D01*
X1447156Y11973956D01*
X1395133Y12087870D01*
X1313124Y12182513D01*
X1313124Y12182514D01*
X1207774Y12250218D01*
X1087616Y12285500D01*
X1087615Y12285500D01*
X962385Y12285500D01*
X962383Y12285500D01*
X842225Y12250218D01*
X736875Y12182514D01*
X736875Y12182513D01*
X654868Y12087872D01*
X602843Y11973954D01*
X602842Y11973952D01*
X585022Y11850003D01*
X585022Y11849998D01*
X200500Y11849998D01*
X200500Y14349998D01*
X3060022Y14349998D01*
X3077842Y14226049D01*
X3077843Y14226047D01*
X3077843Y14226046D01*
X3077844Y14226044D01*
X3129867Y14112130D01*
X3129868Y14112129D01*
X3211875Y14017488D01*
X3211875Y14017487D01*
X3317225Y13949783D01*
X3317227Y13949782D01*
X3355662Y13938497D01*
X3375943Y13932541D01*
X3426450Y13898005D01*
X3447011Y13840377D01*
X3438105Y13796427D01*
X3427845Y13773960D01*
X3427842Y13773952D01*
X3410022Y13650003D01*
X3410022Y13649998D01*
X3427842Y13526049D01*
X3427843Y13526047D01*
X3427843Y13526046D01*
X3427844Y13526044D01*
X3479867Y13412130D01*
X3479868Y13412129D01*
X3546267Y13335500D01*
X3561876Y13317487D01*
X3585777Y13302127D01*
X3624508Y13254762D01*
X3628002Y13193677D01*
X3622308Y13177717D01*
X3572465Y13068576D01*
X3572464Y13068574D01*
X3554644Y12944625D01*
X3554644Y12944620D01*
X3572464Y12820671D01*
X3572465Y12820669D01*
X3572465Y12820668D01*
X3572466Y12820666D01*
X3624489Y12706752D01*
X3658181Y12667870D01*
X3706497Y12612110D01*
X3706497Y12612109D01*
X3796052Y12554556D01*
X3811849Y12544404D01*
X3932007Y12509122D01*
X3932008Y12509122D01*
X4057236Y12509122D01*
X4057237Y12509122D01*
X4177395Y12544404D01*
X4282746Y12612109D01*
X4364755Y12706752D01*
X4416778Y12820666D01*
X4420427Y12846045D01*
X4428184Y12899998D01*
X10410022Y12899998D01*
X10427842Y12776049D01*
X10427843Y12776047D01*
X10427843Y12776046D01*
X10427844Y12776044D01*
X10479867Y12662130D01*
X10479868Y12662129D01*
X10561875Y12567488D01*
X10561875Y12567487D01*
X10577285Y12557584D01*
X10616016Y12510218D01*
X10619510Y12449133D01*
X10598583Y12409471D01*
X10579868Y12387872D01*
X10527843Y12273954D01*
X10527842Y12273952D01*
X10510022Y12150003D01*
X10510022Y12149998D01*
X10527842Y12026049D01*
X10527843Y12026047D01*
X10527843Y12026046D01*
X10527844Y12026044D01*
X10579867Y11912130D01*
X10579868Y11912129D01*
X10661875Y11817488D01*
X10661875Y11817487D01*
X10690096Y11799351D01*
X10728827Y11751985D01*
X10732321Y11690900D01*
X10699242Y11639427D01*
X10690097Y11632783D01*
X10611874Y11582512D01*
X10529868Y11487872D01*
X10477843Y11373954D01*
X10477842Y11373952D01*
X10460022Y11250003D01*
X10460022Y11249998D01*
X10477842Y11126049D01*
X10477843Y11126047D01*
X10477843Y11126046D01*
X10477844Y11126044D01*
X10529867Y11012130D01*
X10529868Y11012129D01*
X10611875Y10917488D01*
X10611875Y10917487D01*
X10717225Y10849783D01*
X10717227Y10849782D01*
X10837385Y10814500D01*
X10837386Y10814500D01*
X10962614Y10814500D01*
X10962615Y10814500D01*
X11082773Y10849782D01*
X11160911Y10899998D01*
X13110022Y10899998D01*
X13127842Y10776049D01*
X13127843Y10776047D01*
X13127843Y10776046D01*
X13127844Y10776044D01*
X13179867Y10662130D01*
X13179868Y10662129D01*
X13261875Y10567488D01*
X13261875Y10567487D01*
X13367225Y10499783D01*
X13367227Y10499782D01*
X13487385Y10464500D01*
X13487386Y10464500D01*
X13612614Y10464500D01*
X13612615Y10464500D01*
X13732773Y10499782D01*
X13838124Y10567487D01*
X13920133Y10662130D01*
X13960261Y10749998D01*
X15760022Y10749998D01*
X15777842Y10626049D01*
X15777843Y10626047D01*
X15777843Y10626046D01*
X15777844Y10626044D01*
X15829867Y10512130D01*
X15840566Y10499783D01*
X15911875Y10417488D01*
X15911875Y10417487D01*
X16017225Y10349783D01*
X16017227Y10349782D01*
X16137385Y10314500D01*
X16137386Y10314500D01*
X16262614Y10314500D01*
X16262615Y10314500D01*
X16382773Y10349782D01*
X16488124Y10417487D01*
X16570133Y10512130D01*
X16622156Y10626044D01*
X16627344Y10662129D01*
X16639978Y10749998D01*
X16639978Y10750003D01*
X16622157Y10873952D01*
X16622156Y10873954D01*
X16622156Y10873956D01*
X16570133Y10987870D01*
X16516299Y11049998D01*
X19510022Y11049998D01*
X19527842Y10926049D01*
X19527843Y10926047D01*
X19527843Y10926046D01*
X19527844Y10926044D01*
X19579867Y10812130D01*
X19579868Y10812129D01*
X19661875Y10717488D01*
X19661875Y10717487D01*
X19767225Y10649783D01*
X19767227Y10649782D01*
X19887385Y10614500D01*
X19887386Y10614500D01*
X20012614Y10614500D01*
X20012615Y10614500D01*
X20132773Y10649782D01*
X20238124Y10717487D01*
X20320133Y10812130D01*
X20372156Y10926044D01*
X20377344Y10962129D01*
X20389978Y11049998D01*
X20389978Y11050003D01*
X20372157Y11173952D01*
X20372156Y11173954D01*
X20372156Y11173956D01*
X20320133Y11287870D01*
X20238124Y11382513D01*
X20238124Y11382514D01*
X20132774Y11450218D01*
X20012616Y11485500D01*
X20012615Y11485500D01*
X19887385Y11485500D01*
X19887383Y11485500D01*
X19767225Y11450218D01*
X19661875Y11382514D01*
X19661875Y11382513D01*
X19579868Y11287872D01*
X19527843Y11173954D01*
X19527842Y11173952D01*
X19510022Y11050003D01*
X19510022Y11049998D01*
X16516299Y11049998D01*
X16488124Y11082513D01*
X16488124Y11082514D01*
X16382774Y11150218D01*
X16262616Y11185500D01*
X16262615Y11185500D01*
X16137385Y11185500D01*
X16137383Y11185500D01*
X16017225Y11150218D01*
X15911875Y11082514D01*
X15911875Y11082513D01*
X15829868Y10987872D01*
X15777843Y10873954D01*
X15777842Y10873952D01*
X15760022Y10750003D01*
X15760022Y10749998D01*
X13960261Y10749998D01*
X13972156Y10776044D01*
X13972157Y10776049D01*
X13989978Y10899998D01*
X13989978Y10900003D01*
X13972157Y11023952D01*
X13972156Y11023954D01*
X13972156Y11023956D01*
X13920133Y11137870D01*
X13838124Y11232513D01*
X13838124Y11232514D01*
X13732774Y11300218D01*
X13612616Y11335500D01*
X13612615Y11335500D01*
X13487385Y11335500D01*
X13487383Y11335500D01*
X13367225Y11300218D01*
X13261875Y11232514D01*
X13261875Y11232513D01*
X13179868Y11137872D01*
X13127843Y11023954D01*
X13127842Y11023952D01*
X13110022Y10900003D01*
X13110022Y10899998D01*
X11160911Y10899998D01*
X11188124Y10917487D01*
X11270133Y11012130D01*
X11322156Y11126044D01*
X11322157Y11126049D01*
X11339978Y11249998D01*
X11339978Y11250003D01*
X11322157Y11373952D01*
X11322156Y11373954D01*
X11322156Y11373956D01*
X11287429Y11449998D01*
X14410022Y11449998D01*
X14427842Y11326049D01*
X14427843Y11326047D01*
X14427843Y11326046D01*
X14427844Y11326044D01*
X14479867Y11212130D01*
X14494222Y11195564D01*
X14561875Y11117488D01*
X14561875Y11117487D01*
X14667225Y11049783D01*
X14667227Y11049782D01*
X14787385Y11014500D01*
X14787386Y11014500D01*
X14912614Y11014500D01*
X14912615Y11014500D01*
X15032773Y11049782D01*
X15138124Y11117487D01*
X15220133Y11212130D01*
X15272156Y11326044D01*
X15279044Y11373952D01*
X15289978Y11449998D01*
X15289978Y11450003D01*
X15272157Y11573952D01*
X15272156Y11573954D01*
X15272156Y11573956D01*
X15220133Y11687870D01*
X15138124Y11782513D01*
X15138124Y11782514D01*
X15032774Y11850218D01*
X14912616Y11885500D01*
X14912615Y11885500D01*
X14787385Y11885500D01*
X14787383Y11885500D01*
X14667225Y11850218D01*
X14561875Y11782514D01*
X14561875Y11782513D01*
X14479868Y11687872D01*
X14427843Y11573954D01*
X14427842Y11573952D01*
X14410022Y11450003D01*
X14410022Y11449998D01*
X11287429Y11449998D01*
X11270133Y11487870D01*
X11195542Y11573952D01*
X11188125Y11582512D01*
X11188124Y11582513D01*
X11159901Y11600651D01*
X11121171Y11648016D01*
X11117679Y11709102D01*
X11150758Y11760574D01*
X11159883Y11767206D01*
X11238124Y11817487D01*
X11320133Y11912130D01*
X11372156Y12026044D01*
X11381045Y12087870D01*
X11389978Y12149998D01*
X11389978Y12150003D01*
X11372157Y12273952D01*
X11372156Y12273954D01*
X11372156Y12273956D01*
X11320133Y12387870D01*
X11238124Y12482513D01*
X11222712Y12492418D01*
X11183982Y12539784D01*
X11180490Y12600869D01*
X11201419Y12640533D01*
X11220131Y12662128D01*
X11220130Y12662128D01*
X11220133Y12662130D01*
X11272156Y12776044D01*
X11278572Y12820669D01*
X11289978Y12899998D01*
X11289978Y12900003D01*
X11272157Y13023952D01*
X11272156Y13023954D01*
X11272156Y13023956D01*
X11220133Y13137870D01*
X11138124Y13232513D01*
X11138124Y13232514D01*
X11032774Y13300218D01*
X10912616Y13335500D01*
X10912615Y13335500D01*
X10787385Y13335500D01*
X10787383Y13335500D01*
X10667225Y13300218D01*
X10561875Y13232514D01*
X10561875Y13232513D01*
X10479868Y13137872D01*
X10427843Y13023954D01*
X10427842Y13023952D01*
X10410022Y12900003D01*
X10410022Y12899998D01*
X4428184Y12899998D01*
X4434600Y12944620D01*
X4434600Y12944625D01*
X4416779Y13068574D01*
X4416778Y13068576D01*
X4416778Y13068578D01*
X4364755Y13182492D01*
X4282746Y13277135D01*
X4282746Y13277136D01*
X4258844Y13292496D01*
X4220113Y13339862D01*
X4216619Y13400947D01*
X4222311Y13416902D01*
X4272156Y13526044D01*
X4286233Y13623954D01*
X4289978Y13649998D01*
X4289978Y13650003D01*
X4272157Y13773952D01*
X4272156Y13773954D01*
X4272156Y13773956D01*
X4220133Y13887870D01*
X4138124Y13982513D01*
X4138124Y13982514D01*
X4032772Y14050219D01*
X4032770Y14050220D01*
X3974055Y14067461D01*
X3923549Y14101997D01*
X3902988Y14159625D01*
X3911894Y14203574D01*
X3922156Y14226044D01*
X3931045Y14287870D01*
X3939978Y14349998D01*
X3939978Y14350003D01*
X3922157Y14473952D01*
X3922156Y14473954D01*
X3922156Y14473956D01*
X3870133Y14587870D01*
X3788124Y14682513D01*
X3788124Y14682514D01*
X3682774Y14750218D01*
X3562616Y14785500D01*
X3562615Y14785500D01*
X3437385Y14785500D01*
X3437383Y14785500D01*
X3317225Y14750218D01*
X3211875Y14682514D01*
X3211875Y14682513D01*
X3129868Y14587872D01*
X3077843Y14473954D01*
X3077842Y14473952D01*
X3060022Y14350003D01*
X3060022Y14349998D01*
X200500Y14349998D01*
X200500Y14849998D01*
X14820022Y14849998D01*
X14837842Y14726049D01*
X14837843Y14726047D01*
X14837843Y14726046D01*
X14837844Y14726044D01*
X14889867Y14612130D01*
X14910887Y14587872D01*
X14971875Y14517488D01*
X14971875Y14517487D01*
X15049677Y14467487D01*
X15077227Y14449782D01*
X15197385Y14414500D01*
X15197386Y14414500D01*
X15263193Y14414500D01*
X15321384Y14395593D01*
X15353247Y14356625D01*
X15358475Y14345177D01*
X15365449Y14284391D01*
X15358475Y14262926D01*
X15317843Y14173954D01*
X15317842Y14173952D01*
X15300022Y14050003D01*
X15300022Y14049998D01*
X15317842Y13926049D01*
X15317843Y13926047D01*
X15317843Y13926046D01*
X15317844Y13926044D01*
X15330649Y13898005D01*
X15358475Y13837075D01*
X15365449Y13776288D01*
X15358475Y13754823D01*
X15307843Y13643954D01*
X15307842Y13643952D01*
X15290022Y13520003D01*
X15290022Y13519998D01*
X15307842Y13396049D01*
X15307843Y13396047D01*
X15307843Y13396046D01*
X15307844Y13396044D01*
X15316978Y13376044D01*
X15358475Y13285178D01*
X15365449Y13224391D01*
X15358475Y13202926D01*
X15317843Y13113954D01*
X15317842Y13113952D01*
X15300022Y12990003D01*
X15300022Y12989998D01*
X15317842Y12866049D01*
X15317843Y12866047D01*
X15317843Y12866046D01*
X15317844Y12866044D01*
X15358946Y12776044D01*
X15360759Y12772074D01*
X15367733Y12711287D01*
X15360758Y12689822D01*
X15307844Y12573960D01*
X15307842Y12573952D01*
X15290022Y12450003D01*
X15290022Y12449998D01*
X15307842Y12326049D01*
X15307843Y12326047D01*
X15307843Y12326046D01*
X15307844Y12326044D01*
X15359867Y12212130D01*
X15359868Y12212129D01*
X15441875Y12117488D01*
X15441875Y12117487D01*
X15547225Y12049783D01*
X15547227Y12049782D01*
X15667385Y12014500D01*
X15667386Y12014500D01*
X15733193Y12014500D01*
X15791384Y11995593D01*
X15823247Y11956626D01*
X15829867Y11942130D01*
X15829867Y11942129D01*
X15911875Y11847488D01*
X15911875Y11847487D01*
X16012977Y11782513D01*
X16017227Y11779782D01*
X16137385Y11744500D01*
X16184059Y11744500D01*
X16242250Y11725593D01*
X16274112Y11686627D01*
X16289867Y11652130D01*
X16289866Y11652130D01*
X16371875Y11557488D01*
X16371875Y11557487D01*
X16434117Y11517487D01*
X16477227Y11489782D01*
X16597385Y11454500D01*
X16597386Y11454500D01*
X16722614Y11454500D01*
X16722615Y11454500D01*
X16842773Y11489782D01*
X16948124Y11557487D01*
X17030133Y11652130D01*
X17032186Y11656627D01*
X17073555Y11701703D01*
X17122239Y11714500D01*
X17192614Y11714500D01*
X17192615Y11714500D01*
X17312773Y11749782D01*
X17418124Y11817487D01*
X17500133Y11912130D01*
X17552156Y12026044D01*
X17561045Y12087870D01*
X17569978Y12149998D01*
X18110022Y12149998D01*
X18127842Y12026049D01*
X18127843Y12026047D01*
X18127843Y12026046D01*
X18127844Y12026044D01*
X18179867Y11912130D01*
X18179868Y11912129D01*
X18261875Y11817488D01*
X18261875Y11817487D01*
X18350434Y11760574D01*
X18367227Y11749782D01*
X18487385Y11714500D01*
X18487386Y11714500D01*
X18612614Y11714500D01*
X18612615Y11714500D01*
X18732773Y11749782D01*
X18838124Y11817487D01*
X18920133Y11912130D01*
X18972156Y12026044D01*
X18981045Y12087870D01*
X18989978Y12149998D01*
X19510022Y12149998D01*
X19527842Y12026049D01*
X19527843Y12026047D01*
X19527843Y12026046D01*
X19527844Y12026044D01*
X19579867Y11912130D01*
X19579868Y11912129D01*
X19661875Y11817488D01*
X19661875Y11817487D01*
X19750434Y11760574D01*
X19767227Y11749782D01*
X19887385Y11714500D01*
X19887386Y11714500D01*
X20012614Y11714500D01*
X20012615Y11714500D01*
X20132773Y11749782D01*
X20238124Y11817487D01*
X20320133Y11912130D01*
X20372156Y12026044D01*
X20381045Y12087870D01*
X20389978Y12149998D01*
X20389978Y12150003D01*
X20372157Y12273952D01*
X20372156Y12273954D01*
X20372156Y12273956D01*
X20320133Y12387870D01*
X20238124Y12482513D01*
X20238124Y12482514D01*
X20132774Y12550218D01*
X20012616Y12585500D01*
X20012615Y12585500D01*
X19887385Y12585500D01*
X19887383Y12585500D01*
X19767225Y12550218D01*
X19661875Y12482514D01*
X19661875Y12482513D01*
X19579868Y12387872D01*
X19527843Y12273954D01*
X19527842Y12273952D01*
X19510022Y12150003D01*
X19510022Y12149998D01*
X18989978Y12149998D01*
X18989978Y12150003D01*
X18972157Y12273952D01*
X18972156Y12273954D01*
X18972156Y12273956D01*
X18920133Y12387870D01*
X18838124Y12482513D01*
X18838124Y12482514D01*
X18732774Y12550218D01*
X18612616Y12585500D01*
X18612615Y12585500D01*
X18487385Y12585500D01*
X18487383Y12585500D01*
X18367225Y12550218D01*
X18261875Y12482514D01*
X18261875Y12482513D01*
X18179868Y12387872D01*
X18127843Y12273954D01*
X18127842Y12273952D01*
X18110022Y12150003D01*
X18110022Y12149998D01*
X17569978Y12149998D01*
X17569978Y12150003D01*
X17552157Y12273952D01*
X17552156Y12273954D01*
X17552156Y12273956D01*
X17500133Y12387870D01*
X17418124Y12482513D01*
X17418124Y12482514D01*
X17312774Y12550218D01*
X17192616Y12585500D01*
X17192615Y12585500D01*
X17151374Y12585500D01*
X17093183Y12604407D01*
X17061322Y12643369D01*
X17054241Y12658874D01*
X17047265Y12719657D01*
X17054237Y12741119D01*
X17102156Y12846044D01*
X17105032Y12866047D01*
X17119978Y12969998D01*
X17119978Y12970003D01*
X17102157Y13093952D01*
X17102156Y13093954D01*
X17102156Y13093956D01*
X17054240Y13198876D01*
X17047266Y13259660D01*
X17054239Y13281121D01*
X17102156Y13386044D01*
X17103594Y13396047D01*
X17118540Y13499998D01*
X18110022Y13499998D01*
X18127842Y13376049D01*
X18127843Y13376047D01*
X18127843Y13376046D01*
X18127844Y13376044D01*
X18179867Y13262130D01*
X18190567Y13249782D01*
X18261875Y13167488D01*
X18261875Y13167487D01*
X18367225Y13099783D01*
X18367227Y13099782D01*
X18487385Y13064500D01*
X18487386Y13064500D01*
X18612614Y13064500D01*
X18612615Y13064500D01*
X18732773Y13099782D01*
X18838124Y13167487D01*
X18920133Y13262130D01*
X18972156Y13376044D01*
X18973594Y13386044D01*
X18989978Y13499998D01*
X19510022Y13499998D01*
X19527842Y13376049D01*
X19527843Y13376047D01*
X19527843Y13376046D01*
X19527844Y13376044D01*
X19579867Y13262130D01*
X19590567Y13249782D01*
X19661875Y13167488D01*
X19661875Y13167487D01*
X19767225Y13099783D01*
X19767227Y13099782D01*
X19887385Y13064500D01*
X19887386Y13064500D01*
X20012614Y13064500D01*
X20012615Y13064500D01*
X20132773Y13099782D01*
X20238124Y13167487D01*
X20320133Y13262130D01*
X20372156Y13376044D01*
X20373594Y13386044D01*
X20389978Y13499998D01*
X20389978Y13500003D01*
X20372157Y13623952D01*
X20372156Y13623954D01*
X20372156Y13623956D01*
X20320133Y13737870D01*
X20238124Y13832513D01*
X20238124Y13832514D01*
X20132774Y13900218D01*
X20012616Y13935500D01*
X20012615Y13935500D01*
X19887385Y13935500D01*
X19887383Y13935500D01*
X19767225Y13900218D01*
X19661875Y13832514D01*
X19661875Y13832513D01*
X19579868Y13737872D01*
X19527843Y13623954D01*
X19527842Y13623952D01*
X19510022Y13500003D01*
X19510022Y13499998D01*
X18989978Y13499998D01*
X18989978Y13500003D01*
X18972157Y13623952D01*
X18972156Y13623954D01*
X18972156Y13623956D01*
X18920133Y13737870D01*
X18838124Y13832513D01*
X18838124Y13832514D01*
X18732774Y13900218D01*
X18612616Y13935500D01*
X18612615Y13935500D01*
X18487385Y13935500D01*
X18487383Y13935500D01*
X18367225Y13900218D01*
X18261875Y13832514D01*
X18261875Y13832513D01*
X18179868Y13737872D01*
X18127843Y13623954D01*
X18127842Y13623952D01*
X18110022Y13500003D01*
X18110022Y13499998D01*
X17118540Y13499998D01*
X17119978Y13509998D01*
X17119978Y13510003D01*
X17102157Y13633952D01*
X17102156Y13633954D01*
X17102156Y13633956D01*
X17054240Y13738876D01*
X17047266Y13799660D01*
X17054239Y13821121D01*
X17102156Y13926044D01*
X17110275Y13982514D01*
X17119978Y14049998D01*
X17119978Y14050003D01*
X17102157Y14173952D01*
X17102155Y14173959D01*
X17051958Y14283874D01*
X17044983Y14344660D01*
X17051958Y14366126D01*
X17101201Y14473952D01*
X17102156Y14476044D01*
X17118234Y14587870D01*
X17119978Y14599998D01*
X17119978Y14600003D01*
X17102157Y14723952D01*
X17102156Y14723953D01*
X17102156Y14723956D01*
X17067428Y14799998D01*
X18110022Y14799998D01*
X18127842Y14676049D01*
X18127843Y14676047D01*
X18127843Y14676046D01*
X18127844Y14676044D01*
X18179867Y14562130D01*
X18179868Y14562129D01*
X18261875Y14467488D01*
X18261875Y14467487D01*
X18344325Y14414500D01*
X18367227Y14399782D01*
X18487385Y14364500D01*
X18487386Y14364500D01*
X18612614Y14364500D01*
X18612615Y14364500D01*
X18732773Y14399782D01*
X18838124Y14467487D01*
X18920133Y14562130D01*
X18972156Y14676044D01*
X18973086Y14682513D01*
X18989978Y14799998D01*
X19510022Y14799998D01*
X19527842Y14676049D01*
X19527843Y14676047D01*
X19527843Y14676046D01*
X19527844Y14676044D01*
X19579867Y14562130D01*
X19579868Y14562129D01*
X19661875Y14467488D01*
X19661875Y14467487D01*
X19744325Y14414500D01*
X19767227Y14399782D01*
X19887385Y14364500D01*
X19887386Y14364500D01*
X20012614Y14364500D01*
X20012615Y14364500D01*
X20132773Y14399782D01*
X20238124Y14467487D01*
X20320133Y14562130D01*
X20372156Y14676044D01*
X20373086Y14682513D01*
X20389978Y14799998D01*
X20389978Y14800003D01*
X20372157Y14923952D01*
X20372156Y14923954D01*
X20372156Y14923956D01*
X20320133Y15037870D01*
X20238124Y15132513D01*
X20238124Y15132514D01*
X20132774Y15200218D01*
X20012616Y15235500D01*
X20012615Y15235500D01*
X19887385Y15235500D01*
X19887383Y15235500D01*
X19767225Y15200218D01*
X19661875Y15132514D01*
X19661875Y15132513D01*
X19579868Y15037872D01*
X19579867Y15037871D01*
X19579867Y15037870D01*
X19562473Y14999783D01*
X19527843Y14923954D01*
X19527842Y14923952D01*
X19510022Y14800003D01*
X19510022Y14799998D01*
X18989978Y14799998D01*
X18989978Y14800003D01*
X18972157Y14923952D01*
X18972156Y14923954D01*
X18972156Y14923956D01*
X18920133Y15037870D01*
X18838124Y15132513D01*
X18832774Y15137149D01*
X18833688Y15138205D01*
X18799854Y15179585D01*
X18796363Y15240670D01*
X18829444Y15292142D01*
X18886461Y15314339D01*
X18892110Y15314500D01*
X18912614Y15314500D01*
X18912615Y15314500D01*
X19032773Y15349782D01*
X19138124Y15417487D01*
X19220133Y15512130D01*
X19272156Y15626044D01*
X19272157Y15626049D01*
X19289978Y15749998D01*
X19289978Y15750003D01*
X19272157Y15873952D01*
X19272156Y15873954D01*
X19272156Y15873956D01*
X19237429Y15949998D01*
X19510022Y15949998D01*
X19527842Y15826049D01*
X19527843Y15826047D01*
X19527843Y15826046D01*
X19527844Y15826044D01*
X19579867Y15712130D01*
X19597197Y15692130D01*
X19661875Y15617488D01*
X19661875Y15617487D01*
X19766710Y15550114D01*
X19767227Y15549782D01*
X19887385Y15514500D01*
X19887386Y15514500D01*
X20012614Y15514500D01*
X20012615Y15514500D01*
X20132773Y15549782D01*
X20238124Y15617487D01*
X20320133Y15712130D01*
X20372156Y15826044D01*
X20372207Y15826400D01*
X20389978Y15949998D01*
X20389978Y15950003D01*
X20372157Y16073952D01*
X20372156Y16073954D01*
X20372156Y16073956D01*
X20320133Y16187870D01*
X20238124Y16282513D01*
X20238124Y16282514D01*
X20132774Y16350218D01*
X20012616Y16385500D01*
X20012615Y16385500D01*
X19887385Y16385500D01*
X19887383Y16385500D01*
X19767225Y16350218D01*
X19661875Y16282514D01*
X19661875Y16282513D01*
X19579868Y16187872D01*
X19527843Y16073954D01*
X19527842Y16073952D01*
X19510022Y15950003D01*
X19510022Y15949998D01*
X19237429Y15949998D01*
X19220133Y15987870D01*
X19138124Y16082513D01*
X19138124Y16082514D01*
X19032774Y16150218D01*
X18912616Y16185500D01*
X18912615Y16185500D01*
X18787385Y16185500D01*
X18787383Y16185500D01*
X18667225Y16150218D01*
X18561875Y16082514D01*
X18561875Y16082513D01*
X18479868Y15987872D01*
X18427843Y15873954D01*
X18427842Y15873952D01*
X18410022Y15750003D01*
X18410022Y15749998D01*
X18427842Y15626049D01*
X18427843Y15626047D01*
X18427843Y15626046D01*
X18427844Y15626044D01*
X18479867Y15512130D01*
X18479868Y15512129D01*
X18561875Y15417488D01*
X18567226Y15412851D01*
X18566311Y15411796D01*
X18600146Y15370415D01*
X18603637Y15309330D01*
X18570556Y15257858D01*
X18513539Y15235661D01*
X18507890Y15235500D01*
X18487383Y15235500D01*
X18367225Y15200218D01*
X18261875Y15132514D01*
X18261875Y15132513D01*
X18179868Y15037872D01*
X18179867Y15037871D01*
X18179867Y15037870D01*
X18162473Y14999783D01*
X18127843Y14923954D01*
X18127842Y14923952D01*
X18110022Y14800003D01*
X18110022Y14799998D01*
X17067428Y14799998D01*
X17051523Y14834825D01*
X17044550Y14895609D01*
X17051523Y14917073D01*
X17092156Y15006044D01*
X17097396Y15042488D01*
X17109978Y15129998D01*
X17109978Y15130003D01*
X17092157Y15253952D01*
X17092156Y15253954D01*
X17092156Y15253956D01*
X17050862Y15344375D01*
X17043889Y15405160D01*
X17073976Y15458437D01*
X17129632Y15483855D01*
X17140917Y15484500D01*
X17202614Y15484500D01*
X17202615Y15484500D01*
X17322773Y15519782D01*
X17428124Y15587487D01*
X17510133Y15682130D01*
X17562156Y15796044D01*
X17562756Y15800218D01*
X17579978Y15919998D01*
X17579978Y15920003D01*
X17562157Y16043952D01*
X17562156Y16043954D01*
X17562156Y16043956D01*
X17510133Y16157870D01*
X17428124Y16252513D01*
X17428124Y16252514D01*
X17322774Y16320218D01*
X17202616Y16355500D01*
X17202615Y16355500D01*
X17136807Y16355500D01*
X17078616Y16374407D01*
X17046754Y16413373D01*
X17040133Y16427869D01*
X17040133Y16427870D01*
X17040132Y16427871D01*
X17040133Y16427871D01*
X16958124Y16522513D01*
X16958124Y16522514D01*
X16852774Y16590218D01*
X16732616Y16625500D01*
X16732615Y16625500D01*
X16607385Y16625500D01*
X16607383Y16625500D01*
X16487225Y16590218D01*
X16381875Y16522514D01*
X16381875Y16522513D01*
X16299867Y16427872D01*
X16299866Y16427869D01*
X16297814Y16423375D01*
X16256443Y16378297D01*
X16207760Y16365500D01*
X16137383Y16365500D01*
X16133063Y16364879D01*
X16072775Y16375315D01*
X16030134Y16419194D01*
X16022233Y16453172D01*
X16020986Y16452992D01*
X16002157Y16583952D01*
X16002156Y16583954D01*
X16002156Y16583956D01*
X15950133Y16697870D01*
X15868124Y16792513D01*
X15868124Y16792514D01*
X15762774Y16860218D01*
X15642616Y16895500D01*
X15642615Y16895500D01*
X15517385Y16895500D01*
X15517383Y16895500D01*
X15397225Y16860218D01*
X15291875Y16792514D01*
X15291875Y16792513D01*
X15209868Y16697872D01*
X15209867Y16697871D01*
X15209867Y16697870D01*
X15187906Y16649783D01*
X15157843Y16583954D01*
X15157842Y16583952D01*
X15140022Y16460003D01*
X15140022Y16459998D01*
X15157842Y16336049D01*
X15157843Y16336047D01*
X15157843Y16336046D01*
X15157844Y16336044D01*
X15209867Y16222130D01*
X15239552Y16187872D01*
X15291875Y16127488D01*
X15291875Y16127487D01*
X15397225Y16059783D01*
X15397227Y16059782D01*
X15517385Y16024500D01*
X15517386Y16024500D01*
X15642610Y16024500D01*
X15642615Y16024500D01*
X15642619Y16024502D01*
X15646928Y16025121D01*
X15707218Y16014690D01*
X15749862Y15970814D01*
X15757766Y15936829D01*
X15759014Y15937008D01*
X15777842Y15806049D01*
X15777843Y15806047D01*
X15777843Y15806046D01*
X15777844Y15806044D01*
X15806754Y15742740D01*
X15823475Y15706126D01*
X15830449Y15645339D01*
X15823478Y15623882D01*
X15818684Y15613382D01*
X15777317Y15568301D01*
X15728627Y15555500D01*
X15667383Y15555500D01*
X15547225Y15520218D01*
X15441875Y15452514D01*
X15441875Y15452513D01*
X15359867Y15357872D01*
X15359867Y15357871D01*
X15359867Y15357870D01*
X15353704Y15344374D01*
X15353247Y15343374D01*
X15311875Y15298296D01*
X15263193Y15285500D01*
X15197383Y15285500D01*
X15077225Y15250218D01*
X14971875Y15182514D01*
X14971875Y15182513D01*
X14889868Y15087872D01*
X14837843Y14973954D01*
X14837842Y14973952D01*
X14820022Y14850003D01*
X14820022Y14849998D01*
X200500Y14849998D01*
X200500Y15949998D01*
X6160022Y15949998D01*
X6177842Y15826049D01*
X6177843Y15826047D01*
X6177843Y15826046D01*
X6177844Y15826044D01*
X6229867Y15712130D01*
X6247197Y15692130D01*
X6311875Y15617488D01*
X6311875Y15617487D01*
X6416710Y15550114D01*
X6417227Y15549782D01*
X6537385Y15514500D01*
X6537386Y15514500D01*
X6662614Y15514500D01*
X6662615Y15514500D01*
X6782773Y15549782D01*
X6782773Y15549783D01*
X6789567Y15551777D01*
X6790055Y15550114D01*
X6842078Y15556091D01*
X6895360Y15526013D01*
X6912485Y15500190D01*
X6929867Y15462130D01*
X6929868Y15462128D01*
X7011875Y15367488D01*
X7011875Y15367487D01*
X7102370Y15309330D01*
X7117227Y15299782D01*
X7237385Y15264500D01*
X7237386Y15264500D01*
X7362614Y15264500D01*
X7362615Y15264500D01*
X7482773Y15299782D01*
X7588124Y15367487D01*
X7616295Y15399998D01*
X9210022Y15399998D01*
X9227842Y15276049D01*
X9227843Y15276047D01*
X9227843Y15276046D01*
X9227844Y15276044D01*
X9279867Y15162130D01*
X9279868Y15162129D01*
X9361875Y15067488D01*
X9361875Y15067487D01*
X9457475Y15006049D01*
X9467227Y14999782D01*
X9587385Y14964500D01*
X9587386Y14964500D01*
X9712614Y14964500D01*
X9712615Y14964500D01*
X9832773Y14999782D01*
X9938124Y15067487D01*
X9951848Y15083326D01*
X10004242Y15114923D01*
X10065203Y15109688D01*
X10101486Y15083329D01*
X10115212Y15067488D01*
X10136877Y15042486D01*
X10203326Y14999782D01*
X10242227Y14974782D01*
X10362385Y14939500D01*
X10362386Y14939500D01*
X10487614Y14939500D01*
X10487615Y14939500D01*
X10607773Y14974782D01*
X10713124Y15042487D01*
X10795133Y15137130D01*
X10847156Y15251044D01*
X10847574Y15253952D01*
X10864978Y15374998D01*
X10864978Y15375003D01*
X10847157Y15498952D01*
X10847156Y15498954D01*
X10847156Y15498956D01*
X10795133Y15612870D01*
X10713124Y15707513D01*
X10713124Y15707514D01*
X10607774Y15775218D01*
X10537079Y15795976D01*
X10486572Y15830512D01*
X10466011Y15888140D01*
X10472211Y15918653D01*
X10470162Y15919254D01*
X10472157Y15926049D01*
X10489978Y16049998D01*
X10489978Y16050003D01*
X10472157Y16173952D01*
X10472156Y16173954D01*
X10472156Y16173956D01*
X10420133Y16287870D01*
X10338124Y16382513D01*
X10338124Y16382514D01*
X10232774Y16450218D01*
X10112616Y16485500D01*
X10112615Y16485500D01*
X9987385Y16485500D01*
X9987383Y16485500D01*
X9867225Y16450218D01*
X9761875Y16382514D01*
X9761875Y16382513D01*
X9679868Y16287872D01*
X9627843Y16173954D01*
X9627842Y16173952D01*
X9610022Y16050003D01*
X9610022Y16049998D01*
X9626487Y15935478D01*
X9616054Y15875189D01*
X9572176Y15832546D01*
X9556388Y15826400D01*
X9467229Y15800220D01*
X9467227Y15800219D01*
X9361875Y15732514D01*
X9361875Y15732513D01*
X9279868Y15637872D01*
X9227843Y15523954D01*
X9227842Y15523952D01*
X9210022Y15400003D01*
X9210022Y15399998D01*
X7616295Y15399998D01*
X7670133Y15462130D01*
X7722156Y15576044D01*
X7722157Y15576049D01*
X7739978Y15699998D01*
X7739978Y15700003D01*
X7722157Y15823952D01*
X7722156Y15823954D01*
X7722156Y15823956D01*
X7670133Y15937870D01*
X7588124Y16032513D01*
X7588124Y16032514D01*
X7482774Y16100218D01*
X7362616Y16135500D01*
X7362615Y16135500D01*
X7237385Y16135500D01*
X7237383Y16135500D01*
X7159587Y16112657D01*
X7117227Y16100218D01*
X7117226Y16100218D01*
X7110434Y16098223D01*
X7109946Y16099883D01*
X7057898Y16093914D01*
X7004623Y16124005D01*
X6987513Y16149814D01*
X6971215Y16185500D01*
X6970133Y16187870D01*
X6888124Y16282513D01*
X6888124Y16282514D01*
X6782774Y16350218D01*
X6662616Y16385500D01*
X6662615Y16385500D01*
X6537385Y16385500D01*
X6537383Y16385500D01*
X6417225Y16350218D01*
X6311875Y16282514D01*
X6311875Y16282513D01*
X6229868Y16187872D01*
X6177843Y16073954D01*
X6177842Y16073952D01*
X6160022Y15950003D01*
X6160022Y15949998D01*
X200500Y15949998D01*
X200500Y16749998D01*
X3710022Y16749998D01*
X3727842Y16626049D01*
X3727843Y16626047D01*
X3727843Y16626046D01*
X3727844Y16626044D01*
X3779867Y16512130D01*
X3779868Y16512129D01*
X3861875Y16417488D01*
X3861875Y16417487D01*
X3967225Y16349783D01*
X3967227Y16349782D01*
X4087385Y16314500D01*
X4087386Y16314500D01*
X4212614Y16314500D01*
X4212615Y16314500D01*
X4332773Y16349782D01*
X4438124Y16417487D01*
X4509699Y16500090D01*
X4562092Y16531683D01*
X4623053Y16526447D01*
X4638034Y16518543D01*
X4667227Y16499782D01*
X4787385Y16464500D01*
X4787386Y16464500D01*
X4912614Y16464500D01*
X4912615Y16464500D01*
X5032773Y16499782D01*
X5138124Y16567487D01*
X5220133Y16662130D01*
X5272156Y16776044D01*
X5272157Y16776049D01*
X5289978Y16899998D01*
X5289978Y16900003D01*
X5272157Y17023952D01*
X5272156Y17023954D01*
X5272156Y17023956D01*
X5220133Y17137870D01*
X5138124Y17232513D01*
X5138124Y17232514D01*
X5032774Y17300218D01*
X4912616Y17335500D01*
X4912615Y17335500D01*
X4787385Y17335500D01*
X4787383Y17335500D01*
X4667225Y17300218D01*
X4561877Y17232515D01*
X4490302Y17149913D01*
X4437906Y17118318D01*
X4376945Y17123554D01*
X4361960Y17131461D01*
X4332774Y17150218D01*
X4212616Y17185500D01*
X4212615Y17185500D01*
X4087385Y17185500D01*
X4087383Y17185500D01*
X3967225Y17150218D01*
X3861875Y17082514D01*
X3861875Y17082513D01*
X3779868Y16987872D01*
X3727843Y16873954D01*
X3727842Y16873952D01*
X3710022Y16750003D01*
X3710022Y16749998D01*
X200500Y16749998D01*
X200500Y19474753D01*
X2309137Y19474753D01*
X2326957Y19350804D01*
X2326958Y19350802D01*
X2326958Y19350801D01*
X2326959Y19350799D01*
X2378982Y19236885D01*
X2378983Y19236884D01*
X2460990Y19142243D01*
X2460990Y19142242D01*
X2538968Y19092129D01*
X2566342Y19074537D01*
X2686500Y19039255D01*
X2686501Y19039255D01*
X2811729Y19039255D01*
X2811730Y19039255D01*
X2848317Y19049998D01*
X3510022Y19049998D01*
X3527842Y18926049D01*
X3527843Y18926047D01*
X3527843Y18926046D01*
X3527844Y18926044D01*
X3579867Y18812130D01*
X3579868Y18812129D01*
X3661875Y18717488D01*
X3661875Y18717487D01*
X3767226Y18649782D01*
X3781854Y18645487D01*
X3832361Y18610951D01*
X3852923Y18553324D01*
X3844017Y18509373D01*
X3827845Y18473960D01*
X3827842Y18473952D01*
X3810022Y18350003D01*
X3810022Y18349998D01*
X3827842Y18226049D01*
X3827843Y18226047D01*
X3827843Y18226046D01*
X3827844Y18226044D01*
X3879867Y18112130D01*
X3879868Y18112129D01*
X3961875Y18017488D01*
X3961875Y18017487D01*
X4067225Y17949783D01*
X4067227Y17949782D01*
X4187385Y17914500D01*
X4187386Y17914500D01*
X4312614Y17914500D01*
X4312615Y17914500D01*
X4432773Y17949782D01*
X4433109Y17949998D01*
X9110022Y17949998D01*
X9127842Y17826049D01*
X9127843Y17826047D01*
X9127843Y17826046D01*
X9127844Y17826044D01*
X9179867Y17712130D01*
X9179868Y17712129D01*
X9261875Y17617488D01*
X9261875Y17617487D01*
X9367225Y17549783D01*
X9367227Y17549782D01*
X9487385Y17514500D01*
X9487386Y17514500D01*
X9612614Y17514500D01*
X9612615Y17514500D01*
X9732773Y17549782D01*
X9807993Y17598124D01*
X9867164Y17613677D01*
X9924180Y17591479D01*
X9936332Y17579669D01*
X10011875Y17492488D01*
X10011875Y17492487D01*
X10115263Y17426044D01*
X10117227Y17424782D01*
X10237385Y17389500D01*
X10237386Y17389500D01*
X10362614Y17389500D01*
X10362615Y17389500D01*
X10482773Y17424782D01*
X10588124Y17492487D01*
X10637958Y17549998D01*
X15110022Y17549998D01*
X15127842Y17426049D01*
X15127843Y17426047D01*
X15127843Y17426046D01*
X15127844Y17426044D01*
X15179867Y17312130D01*
X15179868Y17312129D01*
X15261875Y17217488D01*
X15261875Y17217487D01*
X15367023Y17149913D01*
X15367227Y17149782D01*
X15487385Y17114500D01*
X15487386Y17114500D01*
X15612614Y17114500D01*
X15612615Y17114500D01*
X15732773Y17149782D01*
X15838124Y17217487D01*
X15920133Y17312130D01*
X15937427Y17349998D01*
X20510022Y17349998D01*
X20527842Y17226049D01*
X20527843Y17226047D01*
X20527843Y17226046D01*
X20527844Y17226044D01*
X20579867Y17112130D01*
X20579868Y17112129D01*
X20661875Y17017488D01*
X20661875Y17017487D01*
X20767225Y16949783D01*
X20767227Y16949782D01*
X20887385Y16914500D01*
X20887386Y16914500D01*
X20887981Y16914500D01*
X20888453Y16914347D01*
X20894391Y16913493D01*
X20894243Y16912466D01*
X20946172Y16895593D01*
X20982136Y16846093D01*
X20982136Y16784907D01*
X20978037Y16774378D01*
X20977843Y16773955D01*
X20977842Y16773952D01*
X20960022Y16650003D01*
X20960022Y16649998D01*
X20977842Y16526049D01*
X20977843Y16526047D01*
X20977843Y16526046D01*
X20977844Y16526044D01*
X21029867Y16412130D01*
X21029868Y16412129D01*
X21111875Y16317488D01*
X21111875Y16317487D01*
X21212977Y16252513D01*
X21217227Y16249782D01*
X21337385Y16214500D01*
X21337386Y16214500D01*
X21462614Y16214500D01*
X21462615Y16214500D01*
X21582773Y16249782D01*
X21688124Y16317487D01*
X21770133Y16412130D01*
X21822156Y16526044D01*
X21828115Y16567488D01*
X21839978Y16649998D01*
X21839978Y16650003D01*
X21822157Y16773952D01*
X21822156Y16773954D01*
X21822156Y16773955D01*
X21822156Y16773956D01*
X21770133Y16887870D01*
X21688124Y16982513D01*
X21688124Y16982514D01*
X21583116Y17049998D01*
X22760022Y17049998D01*
X22777842Y16926049D01*
X22777843Y16926047D01*
X22777843Y16926046D01*
X22777844Y16926044D01*
X22829867Y16812130D01*
X22846865Y16792513D01*
X22911875Y16717488D01*
X22911875Y16717487D01*
X23017225Y16649783D01*
X23017227Y16649782D01*
X23137385Y16614500D01*
X23137386Y16614500D01*
X23262614Y16614500D01*
X23262615Y16614500D01*
X23382773Y16649782D01*
X23488124Y16717487D01*
X23570133Y16812130D01*
X23622156Y16926044D01*
X23631045Y16987870D01*
X23639978Y17049998D01*
X23639978Y17050003D01*
X23622157Y17173952D01*
X23622156Y17173954D01*
X23622156Y17173956D01*
X23570133Y17287870D01*
X23488124Y17382513D01*
X23488124Y17382514D01*
X23382774Y17450218D01*
X23262616Y17485500D01*
X23262615Y17485500D01*
X23137385Y17485500D01*
X23137383Y17485500D01*
X23017225Y17450218D01*
X22911875Y17382514D01*
X22911875Y17382513D01*
X22829868Y17287872D01*
X22777843Y17173954D01*
X22777842Y17173952D01*
X22760022Y17050003D01*
X22760022Y17049998D01*
X21583116Y17049998D01*
X21582774Y17050218D01*
X21462616Y17085500D01*
X21462615Y17085500D01*
X21462019Y17085500D01*
X21461546Y17085654D01*
X21455609Y17086507D01*
X21455756Y17087535D01*
X21403828Y17104407D01*
X21367864Y17153907D01*
X21367864Y17215093D01*
X21371963Y17225622D01*
X21372156Y17226044D01*
X21373086Y17232513D01*
X21389978Y17349998D01*
X21389978Y17350003D01*
X21372157Y17473952D01*
X21372156Y17473954D01*
X21372156Y17473956D01*
X21320133Y17587870D01*
X21238124Y17682513D01*
X21238124Y17682514D01*
X21132774Y17750218D01*
X21012616Y17785500D01*
X21012615Y17785500D01*
X20887385Y17785500D01*
X20887383Y17785500D01*
X20767225Y17750218D01*
X20661875Y17682514D01*
X20661875Y17682513D01*
X20579868Y17587872D01*
X20527843Y17473954D01*
X20527842Y17473952D01*
X20510022Y17350003D01*
X20510022Y17349998D01*
X15937427Y17349998D01*
X15972156Y17426044D01*
X15979044Y17473952D01*
X15989978Y17549998D01*
X15989978Y17550003D01*
X15972157Y17673952D01*
X15972156Y17673954D01*
X15972156Y17673956D01*
X15920133Y17787870D01*
X15838124Y17882513D01*
X15838124Y17882514D01*
X15732774Y17950218D01*
X15612616Y17985500D01*
X15612615Y17985500D01*
X15487385Y17985500D01*
X15487383Y17985500D01*
X15367225Y17950218D01*
X15261875Y17882514D01*
X15261875Y17882513D01*
X15179868Y17787872D01*
X15127843Y17673954D01*
X15127842Y17673952D01*
X15110022Y17550003D01*
X15110022Y17549998D01*
X10637958Y17549998D01*
X10670133Y17587130D01*
X10722156Y17701044D01*
X10724520Y17717487D01*
X10739978Y17824998D01*
X10739978Y17825003D01*
X10722157Y17948952D01*
X10722156Y17948954D01*
X10722156Y17948956D01*
X10670133Y18062870D01*
X10588124Y18157513D01*
X10588124Y18157514D01*
X10482774Y18225218D01*
X10362616Y18260500D01*
X10362615Y18260500D01*
X10237385Y18260500D01*
X10237383Y18260500D01*
X10117225Y18225218D01*
X10042009Y18176879D01*
X9982834Y18161324D01*
X9925818Y18183523D01*
X9913667Y18195332D01*
X9887050Y18226049D01*
X9838124Y18282513D01*
X9838124Y18282514D01*
X9810918Y18299998D01*
X12510022Y18299998D01*
X12527842Y18176049D01*
X12527843Y18176047D01*
X12527843Y18176046D01*
X12527844Y18176044D01*
X12579867Y18062130D01*
X12607068Y18030739D01*
X12661875Y17967488D01*
X12661875Y17967487D01*
X12744325Y17914500D01*
X12767227Y17899782D01*
X12887385Y17864500D01*
X12887386Y17864500D01*
X13012614Y17864500D01*
X13012615Y17864500D01*
X13132773Y17899782D01*
X13238124Y17967487D01*
X13320133Y18062130D01*
X13372156Y18176044D01*
X13372276Y18176879D01*
X13389978Y18299998D01*
X13389978Y18300003D01*
X13372157Y18423952D01*
X13372156Y18423954D01*
X13372156Y18423956D01*
X13320133Y18537870D01*
X13238124Y18632513D01*
X13238124Y18632514D01*
X13132774Y18700218D01*
X13012616Y18735500D01*
X13012615Y18735500D01*
X12887385Y18735500D01*
X12887383Y18735500D01*
X12767225Y18700218D01*
X12661875Y18632514D01*
X12661875Y18632513D01*
X12579868Y18537872D01*
X12527843Y18423954D01*
X12527842Y18423952D01*
X12510022Y18300003D01*
X12510022Y18299998D01*
X9810918Y18299998D01*
X9732774Y18350218D01*
X9612616Y18385500D01*
X9612615Y18385500D01*
X9487385Y18385500D01*
X9487383Y18385500D01*
X9367225Y18350218D01*
X9261875Y18282514D01*
X9261875Y18282513D01*
X9179868Y18187872D01*
X9127843Y18073954D01*
X9127842Y18073952D01*
X9110022Y17950003D01*
X9110022Y17949998D01*
X4433109Y17949998D01*
X4538124Y18017487D01*
X4620133Y18112130D01*
X4672156Y18226044D01*
X4675600Y18249998D01*
X4689978Y18349998D01*
X4689978Y18350003D01*
X4672157Y18473952D01*
X4672156Y18473954D01*
X4672156Y18473956D01*
X4620133Y18587870D01*
X4538124Y18682513D01*
X4538124Y18682514D01*
X4432772Y18750219D01*
X4418142Y18754515D01*
X4367636Y18789052D01*
X4347076Y18846680D01*
X4355983Y18890631D01*
X4357750Y18894500D01*
X4372156Y18926044D01*
X4372157Y18926049D01*
X4389978Y19049998D01*
X4389978Y19050003D01*
X4372157Y19173952D01*
X4372156Y19173954D01*
X4372156Y19173956D01*
X4360263Y19199998D01*
X10360022Y19199998D01*
X10377842Y19076049D01*
X10377843Y19076047D01*
X10377843Y19076046D01*
X10377844Y19076044D01*
X10429867Y18962130D01*
X10429868Y18962129D01*
X10511875Y18867488D01*
X10511875Y18867487D01*
X10617225Y18799783D01*
X10617227Y18799782D01*
X10737385Y18764500D01*
X10737386Y18764500D01*
X10862614Y18764500D01*
X10862615Y18764500D01*
X10982773Y18799782D01*
X11088124Y18867487D01*
X11170133Y18962130D01*
X11222156Y19076044D01*
X11236233Y19173954D01*
X11239978Y19199998D01*
X11239978Y19200003D01*
X11222157Y19323952D01*
X11222156Y19323954D01*
X11222156Y19323956D01*
X11219397Y19329998D01*
X14930022Y19329998D01*
X14947842Y19206049D01*
X14947843Y19206047D01*
X14947843Y19206046D01*
X14947844Y19206044D01*
X14999867Y19092130D01*
X15036370Y19050003D01*
X15081875Y18997488D01*
X15081875Y18997487D01*
X15187225Y18929783D01*
X15187227Y18929782D01*
X15307385Y18894500D01*
X15307386Y18894500D01*
X15377760Y18894500D01*
X15435951Y18875593D01*
X15467813Y18836628D01*
X15469867Y18832129D01*
X15551875Y18737488D01*
X15551875Y18737487D01*
X15637417Y18682513D01*
X15657227Y18669782D01*
X15777385Y18634500D01*
X15777386Y18634500D01*
X15902614Y18634500D01*
X15902615Y18634500D01*
X16022773Y18669782D01*
X16128124Y18737487D01*
X16210133Y18832130D01*
X16212186Y18836627D01*
X16253555Y18881703D01*
X16302239Y18894500D01*
X16303193Y18894500D01*
X16361384Y18875593D01*
X16393246Y18836627D01*
X16399867Y18822130D01*
X16399866Y18822130D01*
X16481875Y18727488D01*
X16481875Y18727487D01*
X16587225Y18659783D01*
X16587227Y18659782D01*
X16707385Y18624500D01*
X16707386Y18624500D01*
X16832614Y18624500D01*
X16832615Y18624500D01*
X16952773Y18659782D01*
X17058124Y18727487D01*
X17140133Y18822130D01*
X17144700Y18832130D01*
X17146754Y18836627D01*
X17188127Y18881705D01*
X17236807Y18894500D01*
X17292614Y18894500D01*
X17292615Y18894500D01*
X17412773Y18929782D01*
X17518124Y18997487D01*
X17600133Y19092130D01*
X17626561Y19149998D01*
X18110022Y19149998D01*
X18127842Y19026049D01*
X18127843Y19026047D01*
X18127843Y19026046D01*
X18127844Y19026044D01*
X18179867Y18912130D01*
X18179868Y18912129D01*
X18261875Y18817488D01*
X18261875Y18817487D01*
X18367225Y18749783D01*
X18367227Y18749782D01*
X18487385Y18714500D01*
X18487386Y18714500D01*
X18559463Y18714500D01*
X18617654Y18695593D01*
X18653618Y18646093D01*
X18653618Y18584907D01*
X18634282Y18550669D01*
X18579868Y18487873D01*
X18527843Y18373954D01*
X18527842Y18373952D01*
X18510022Y18250003D01*
X18510022Y18249998D01*
X18527842Y18126049D01*
X18527843Y18126047D01*
X18527843Y18126046D01*
X18527844Y18126044D01*
X18579867Y18012130D01*
X18579868Y18012129D01*
X18661875Y17917488D01*
X18661875Y17917487D01*
X18744325Y17864500D01*
X18767227Y17849782D01*
X18887385Y17814500D01*
X18887386Y17814500D01*
X19012614Y17814500D01*
X19012615Y17814500D01*
X19132773Y17849782D01*
X19238124Y17917487D01*
X19320133Y18012130D01*
X19328632Y18030743D01*
X19370001Y18075817D01*
X19429967Y18087970D01*
X19485624Y18062554D01*
X19515713Y18009278D01*
X19516677Y18003705D01*
X19527842Y17926049D01*
X19527843Y17926047D01*
X19527843Y17926046D01*
X19527844Y17926044D01*
X19579867Y17812130D01*
X19579868Y17812129D01*
X19661875Y17717488D01*
X19661875Y17717487D01*
X19767225Y17649783D01*
X19767227Y17649782D01*
X19887385Y17614500D01*
X19887386Y17614500D01*
X20012614Y17614500D01*
X20012615Y17614500D01*
X20132773Y17649782D01*
X20238124Y17717487D01*
X20320133Y17812130D01*
X20372156Y17926044D01*
X20375600Y17949998D01*
X20389978Y18049998D01*
X20389978Y18050003D01*
X20372157Y18173952D01*
X20372156Y18173954D01*
X20372156Y18173956D01*
X20320133Y18287870D01*
X20238124Y18382513D01*
X20238124Y18382514D01*
X20132774Y18450218D01*
X20012616Y18485500D01*
X20012615Y18485500D01*
X19887385Y18485500D01*
X19887383Y18485500D01*
X19767225Y18450218D01*
X19661875Y18382514D01*
X19661875Y18382513D01*
X19579867Y18287872D01*
X19571367Y18269258D01*
X19529994Y18224181D01*
X19470027Y18212032D01*
X19414371Y18237450D01*
X19384285Y18290727D01*
X19383322Y18296297D01*
X19372157Y18373952D01*
X19372156Y18373954D01*
X19372156Y18373956D01*
X19320133Y18487870D01*
X19238124Y18582513D01*
X19238124Y18582514D01*
X19132774Y18650218D01*
X19012616Y18685500D01*
X19012615Y18685500D01*
X18940537Y18685500D01*
X18882346Y18704407D01*
X18846382Y18753907D01*
X18846382Y18815093D01*
X18865718Y18849331D01*
X18920131Y18912128D01*
X18920130Y18912128D01*
X18920133Y18912130D01*
X18972156Y19026044D01*
X18972157Y19026049D01*
X18989978Y19149998D01*
X18989978Y19150003D01*
X18982790Y19199998D01*
X19510022Y19199998D01*
X19527842Y19076049D01*
X19527843Y19076047D01*
X19527843Y19076046D01*
X19527844Y19076044D01*
X19579867Y18962130D01*
X19579868Y18962129D01*
X19661875Y18867488D01*
X19661875Y18867487D01*
X19767225Y18799783D01*
X19767227Y18799782D01*
X19887385Y18764500D01*
X19887386Y18764500D01*
X20012614Y18764500D01*
X20012615Y18764500D01*
X20132773Y18799782D01*
X20238124Y18867487D01*
X20320133Y18962130D01*
X20372156Y19076044D01*
X20386233Y19173954D01*
X20389978Y19199998D01*
X20389978Y19200003D01*
X20372157Y19323952D01*
X20372156Y19323954D01*
X20372156Y19323956D01*
X20320133Y19437870D01*
X20238124Y19532513D01*
X20238124Y19532514D01*
X20132774Y19600218D01*
X20012616Y19635500D01*
X20012615Y19635500D01*
X19887385Y19635500D01*
X19887383Y19635500D01*
X19767225Y19600218D01*
X19661875Y19532514D01*
X19661875Y19532513D01*
X19579868Y19437872D01*
X19527843Y19323954D01*
X19527842Y19323952D01*
X19510022Y19200003D01*
X19510022Y19199998D01*
X18982790Y19199998D01*
X18972157Y19273952D01*
X18972156Y19273954D01*
X18972156Y19273956D01*
X18920133Y19387870D01*
X18838124Y19482513D01*
X18838124Y19482514D01*
X18732774Y19550218D01*
X18612616Y19585500D01*
X18612615Y19585500D01*
X18487385Y19585500D01*
X18487383Y19585500D01*
X18367225Y19550218D01*
X18261875Y19482514D01*
X18261875Y19482513D01*
X18179868Y19387872D01*
X18127843Y19273954D01*
X18127842Y19273952D01*
X18110022Y19150003D01*
X18110022Y19149998D01*
X17626561Y19149998D01*
X17652156Y19206044D01*
X17656590Y19236884D01*
X17669978Y19329998D01*
X17669978Y19330003D01*
X17652157Y19453952D01*
X17652156Y19453954D01*
X17652156Y19453956D01*
X17600133Y19567870D01*
X17518124Y19662513D01*
X17518124Y19662514D01*
X17412774Y19730218D01*
X17292616Y19765500D01*
X17292615Y19765500D01*
X17236807Y19765500D01*
X17178616Y19784407D01*
X17146754Y19823373D01*
X17143592Y19830295D01*
X17140133Y19837870D01*
X17140132Y19837871D01*
X17140133Y19837871D01*
X17058124Y19932513D01*
X17058124Y19932514D01*
X16952774Y20000218D01*
X16832616Y20035500D01*
X16832615Y20035500D01*
X16776807Y20035500D01*
X16718616Y20054407D01*
X16686758Y20093363D01*
X16684244Y20098867D01*
X16677264Y20159650D01*
X16684237Y20181119D01*
X16732156Y20286044D01*
X16734131Y20299782D01*
X16749978Y20409998D01*
X16749978Y20410003D01*
X16737039Y20499998D01*
X18110022Y20499998D01*
X18127842Y20376049D01*
X18127843Y20376047D01*
X18127843Y20376046D01*
X18127844Y20376044D01*
X18179867Y20262130D01*
X18179868Y20262129D01*
X18261875Y20167488D01*
X18261875Y20167487D01*
X18367225Y20099783D01*
X18367227Y20099782D01*
X18487385Y20064500D01*
X18487386Y20064500D01*
X18612614Y20064500D01*
X18612615Y20064500D01*
X18732773Y20099782D01*
X18838124Y20167487D01*
X18920133Y20262130D01*
X18972156Y20376044D01*
X18979226Y20425218D01*
X18989978Y20499998D01*
X19510022Y20499998D01*
X19527842Y20376049D01*
X19527843Y20376047D01*
X19527843Y20376046D01*
X19527844Y20376044D01*
X19579867Y20262130D01*
X19579868Y20262129D01*
X19661875Y20167488D01*
X19661875Y20167487D01*
X19767225Y20099783D01*
X19767227Y20099782D01*
X19887385Y20064500D01*
X19887386Y20064500D01*
X20012614Y20064500D01*
X20012615Y20064500D01*
X20132773Y20099782D01*
X20238124Y20167487D01*
X20320133Y20262130D01*
X20372156Y20376044D01*
X20379226Y20425218D01*
X20389978Y20499998D01*
X20389978Y20500003D01*
X20372157Y20623952D01*
X20372156Y20623954D01*
X20372156Y20623956D01*
X20320133Y20737870D01*
X20238124Y20832513D01*
X20238124Y20832514D01*
X20132774Y20900218D01*
X20012616Y20935500D01*
X20012615Y20935500D01*
X19887385Y20935500D01*
X19887383Y20935500D01*
X19767225Y20900218D01*
X19661875Y20832514D01*
X19661875Y20832513D01*
X19579868Y20737872D01*
X19527843Y20623954D01*
X19527842Y20623952D01*
X19510022Y20500003D01*
X19510022Y20499998D01*
X18989978Y20499998D01*
X18989978Y20500003D01*
X18972157Y20623952D01*
X18972156Y20623954D01*
X18972156Y20623956D01*
X18920133Y20737870D01*
X18838124Y20832513D01*
X18838124Y20832514D01*
X18732774Y20900218D01*
X18612616Y20935500D01*
X18612615Y20935500D01*
X18487385Y20935500D01*
X18487383Y20935500D01*
X18367225Y20900218D01*
X18261875Y20832514D01*
X18261875Y20832513D01*
X18179868Y20737872D01*
X18127843Y20623954D01*
X18127842Y20623952D01*
X18110022Y20500003D01*
X18110022Y20499998D01*
X16737039Y20499998D01*
X16732157Y20533952D01*
X16732156Y20533954D01*
X16732156Y20533956D01*
X16684240Y20638876D01*
X16677266Y20699660D01*
X16684241Y20721126D01*
X16732156Y20826044D01*
X16733086Y20832513D01*
X16749978Y20949998D01*
X16749978Y20950003D01*
X16732157Y21073952D01*
X16732156Y21073954D01*
X16732156Y21073956D01*
X16684240Y21178876D01*
X16677266Y21239660D01*
X16684241Y21261126D01*
X16732156Y21366044D01*
X16746741Y21467487D01*
X16749978Y21489998D01*
X16749978Y21490003D01*
X16732157Y21613952D01*
X16732156Y21613954D01*
X16732156Y21613956D01*
X16684240Y21718876D01*
X16677266Y21779660D01*
X16683874Y21799998D01*
X18110022Y21799998D01*
X18127842Y21676049D01*
X18127843Y21676047D01*
X18127843Y21676046D01*
X18127844Y21676044D01*
X18179867Y21562130D01*
X18179868Y21562129D01*
X18261875Y21467488D01*
X18261875Y21467487D01*
X18367225Y21399783D01*
X18367227Y21399782D01*
X18487385Y21364500D01*
X18487386Y21364500D01*
X18612614Y21364500D01*
X18612615Y21364500D01*
X18732773Y21399782D01*
X18838124Y21467487D01*
X18920133Y21562130D01*
X18972156Y21676044D01*
X18978314Y21718874D01*
X18989978Y21799998D01*
X19510022Y21799998D01*
X19527842Y21676049D01*
X19527843Y21676047D01*
X19527843Y21676046D01*
X19527844Y21676044D01*
X19579867Y21562130D01*
X19579868Y21562129D01*
X19661875Y21467488D01*
X19661875Y21467487D01*
X19767225Y21399783D01*
X19767227Y21399782D01*
X19887385Y21364500D01*
X19887386Y21364500D01*
X20012614Y21364500D01*
X20012615Y21364500D01*
X20132773Y21399782D01*
X20238124Y21467487D01*
X20320133Y21562130D01*
X20372156Y21676044D01*
X20378314Y21718874D01*
X20389978Y21799998D01*
X20389978Y21800003D01*
X20372157Y21923952D01*
X20372156Y21923954D01*
X20372156Y21923956D01*
X20320133Y22037870D01*
X20238124Y22132513D01*
X20238124Y22132514D01*
X20132774Y22200218D01*
X20012616Y22235500D01*
X20012615Y22235500D01*
X19887385Y22235500D01*
X19887383Y22235500D01*
X19767225Y22200218D01*
X19661875Y22132514D01*
X19661875Y22132513D01*
X19579868Y22037872D01*
X19527843Y21923954D01*
X19527842Y21923952D01*
X19510022Y21800003D01*
X19510022Y21799998D01*
X18989978Y21799998D01*
X18989978Y21800003D01*
X18972157Y21923952D01*
X18972156Y21923954D01*
X18972156Y21923956D01*
X18920133Y22037870D01*
X18838124Y22132513D01*
X18838124Y22132514D01*
X18732774Y22200218D01*
X18612616Y22235500D01*
X18612615Y22235500D01*
X18487385Y22235500D01*
X18487383Y22235500D01*
X18367225Y22200218D01*
X18261875Y22132514D01*
X18261875Y22132513D01*
X18179868Y22037872D01*
X18127843Y21923954D01*
X18127842Y21923952D01*
X18110022Y21800003D01*
X18110022Y21799998D01*
X16683874Y21799998D01*
X16684241Y21801126D01*
X16732156Y21906044D01*
X16734731Y21923954D01*
X16749978Y22029998D01*
X16749978Y22030003D01*
X16732157Y22153952D01*
X16732156Y22153954D01*
X16732156Y22153956D01*
X16684240Y22258876D01*
X16677266Y22319660D01*
X16684241Y22341126D01*
X16732156Y22446044D01*
X16732157Y22446049D01*
X16749978Y22569998D01*
X16749978Y22570003D01*
X16732157Y22693952D01*
X16732156Y22693954D01*
X16732156Y22693956D01*
X16684240Y22798876D01*
X16677266Y22859660D01*
X16684241Y22881126D01*
X16715694Y22949998D01*
X19510022Y22949998D01*
X19527842Y22826049D01*
X19527843Y22826047D01*
X19527843Y22826046D01*
X19527844Y22826044D01*
X19579867Y22712130D01*
X19579868Y22712129D01*
X19661875Y22617488D01*
X19661875Y22617487D01*
X19735767Y22570000D01*
X19767227Y22549782D01*
X19887385Y22514500D01*
X19887386Y22514500D01*
X20012614Y22514500D01*
X20012615Y22514500D01*
X20132773Y22549782D01*
X20238124Y22617487D01*
X20320133Y22712130D01*
X20372156Y22826044D01*
X20380076Y22881127D01*
X20389978Y22949998D01*
X20389978Y22950003D01*
X20372157Y23073952D01*
X20372156Y23073954D01*
X20372156Y23073956D01*
X20320133Y23187870D01*
X20238124Y23282513D01*
X20238124Y23282514D01*
X20132774Y23350218D01*
X20012616Y23385500D01*
X20012615Y23385500D01*
X19887385Y23385500D01*
X19887383Y23385500D01*
X19767225Y23350218D01*
X19661875Y23282514D01*
X19661875Y23282513D01*
X19579868Y23187872D01*
X19527843Y23073954D01*
X19527842Y23073952D01*
X19510022Y22950003D01*
X19510022Y22949998D01*
X16715694Y22949998D01*
X16732156Y22986044D01*
X16744795Y23073952D01*
X16749978Y23109998D01*
X16749978Y23110003D01*
X16732157Y23233952D01*
X16732156Y23233954D01*
X16732156Y23233956D01*
X16680133Y23347870D01*
X16598124Y23442513D01*
X16598124Y23442514D01*
X16492774Y23510218D01*
X16372616Y23545500D01*
X16372615Y23545500D01*
X16247385Y23545500D01*
X16247383Y23545500D01*
X16127225Y23510218D01*
X16021875Y23442514D01*
X16021875Y23442513D01*
X15939867Y23347872D01*
X15939867Y23347871D01*
X15933247Y23333374D01*
X15891875Y23288296D01*
X15843193Y23275500D01*
X15836807Y23275500D01*
X15778616Y23294407D01*
X15746754Y23333373D01*
X15744027Y23339343D01*
X15740133Y23347870D01*
X15740132Y23347871D01*
X15740133Y23347871D01*
X15658124Y23442513D01*
X15658124Y23442514D01*
X15552774Y23510218D01*
X15432616Y23545500D01*
X15432615Y23545500D01*
X15307385Y23545500D01*
X15307383Y23545500D01*
X15187225Y23510218D01*
X15081875Y23442514D01*
X15081875Y23442513D01*
X14999868Y23347872D01*
X14947843Y23233954D01*
X14947842Y23233952D01*
X14930022Y23110003D01*
X14930022Y23109998D01*
X14947842Y22986049D01*
X14947843Y22986047D01*
X14947843Y22986046D01*
X14947844Y22986044D01*
X14995759Y22881126D01*
X15002733Y22820340D01*
X14995759Y22798877D01*
X14988287Y22782513D01*
X14947843Y22693954D01*
X14947842Y22693952D01*
X14930022Y22570003D01*
X14930022Y22569998D01*
X14947842Y22446049D01*
X14947843Y22446047D01*
X14947843Y22446046D01*
X14947844Y22446044D01*
X14995759Y22341126D01*
X15002733Y22280340D01*
X14995759Y22258877D01*
X14987767Y22241375D01*
X14947843Y22153954D01*
X14947842Y22153952D01*
X14930022Y22030003D01*
X14930022Y22029998D01*
X14947842Y21906049D01*
X14947843Y21906047D01*
X14947843Y21906046D01*
X14947844Y21906044D01*
X14995759Y21801126D01*
X15002733Y21740340D01*
X14995759Y21718877D01*
X14993018Y21712873D01*
X14947843Y21613954D01*
X14947842Y21613952D01*
X14930022Y21490003D01*
X14930022Y21489998D01*
X14947842Y21366049D01*
X14947843Y21366047D01*
X14947843Y21366046D01*
X14947844Y21366044D01*
X14995759Y21261126D01*
X15002733Y21200340D01*
X14995759Y21178877D01*
X14979142Y21142488D01*
X14947843Y21073954D01*
X14947842Y21073952D01*
X14930022Y20950003D01*
X14930022Y20949998D01*
X14947842Y20826049D01*
X14947843Y20826047D01*
X14947843Y20826046D01*
X14947844Y20826044D01*
X14995759Y20721126D01*
X15002733Y20660340D01*
X14995759Y20638877D01*
X14988946Y20623956D01*
X14947843Y20533954D01*
X14947842Y20533952D01*
X14930022Y20410003D01*
X14930022Y20409998D01*
X14947842Y20286049D01*
X14947843Y20286047D01*
X14947843Y20286046D01*
X14947844Y20286044D01*
X14970927Y20235500D01*
X14995759Y20181126D01*
X15002733Y20120340D01*
X14995759Y20098877D01*
X14957287Y20014635D01*
X14947843Y19993954D01*
X14947842Y19993952D01*
X14930022Y19870003D01*
X14930022Y19869998D01*
X14947842Y19746049D01*
X14947843Y19746047D01*
X14947843Y19746046D01*
X14947844Y19746044D01*
X14995651Y19641362D01*
X14995759Y19641126D01*
X15002733Y19580340D01*
X14995759Y19558877D01*
X14962936Y19487003D01*
X14947843Y19453954D01*
X14947842Y19453952D01*
X14930022Y19330003D01*
X14930022Y19329998D01*
X11219397Y19329998D01*
X11170133Y19437870D01*
X11138169Y19474758D01*
X11127559Y19487003D01*
X11103741Y19543362D01*
X11117599Y19602957D01*
X11148850Y19635115D01*
X11238124Y19692487D01*
X11289350Y19751606D01*
X11341744Y19783200D01*
X11402705Y19777964D01*
X11438987Y19751605D01*
X11490212Y19692488D01*
X11511877Y19667486D01*
X11616886Y19600001D01*
X11617227Y19599782D01*
X11737385Y19564500D01*
X11737386Y19564500D01*
X11862614Y19564500D01*
X11862615Y19564500D01*
X11982773Y19599782D01*
X12088124Y19667487D01*
X12170133Y19762130D01*
X12187427Y19799998D01*
X12660022Y19799998D01*
X12677842Y19676049D01*
X12677843Y19676047D01*
X12677843Y19676046D01*
X12677844Y19676044D01*
X12729867Y19562130D01*
X12729868Y19562129D01*
X12811875Y19467488D01*
X12811875Y19467487D01*
X12894325Y19414500D01*
X12917227Y19399782D01*
X13037385Y19364500D01*
X13037386Y19364500D01*
X13162614Y19364500D01*
X13162615Y19364500D01*
X13282773Y19399782D01*
X13388124Y19467487D01*
X13470133Y19562130D01*
X13522156Y19676044D01*
X13522157Y19676049D01*
X13539978Y19799998D01*
X13539978Y19800003D01*
X13522157Y19923952D01*
X13522156Y19923954D01*
X13522156Y19923956D01*
X13470133Y20037870D01*
X13388124Y20132513D01*
X13388124Y20132514D01*
X13282774Y20200218D01*
X13162616Y20235500D01*
X13162615Y20235500D01*
X13037385Y20235500D01*
X13037383Y20235500D01*
X12917225Y20200218D01*
X12811875Y20132514D01*
X12811875Y20132513D01*
X12729868Y20037872D01*
X12729867Y20037871D01*
X12729867Y20037870D01*
X12723989Y20024998D01*
X12677843Y19923954D01*
X12677842Y19923952D01*
X12660022Y19800003D01*
X12660022Y19799998D01*
X12187427Y19799998D01*
X12222156Y19876044D01*
X12224776Y19894266D01*
X12239978Y19999998D01*
X12239978Y20000003D01*
X12222157Y20123952D01*
X12222156Y20123954D01*
X12222156Y20123956D01*
X12170133Y20237870D01*
X12088124Y20332513D01*
X12088124Y20332514D01*
X11982774Y20400218D01*
X11862616Y20435500D01*
X11862615Y20435500D01*
X11737385Y20435500D01*
X11737383Y20435500D01*
X11617225Y20400218D01*
X11511877Y20332515D01*
X11460650Y20273396D01*
X11408253Y20241801D01*
X11347292Y20247037D01*
X11311012Y20273397D01*
X11238124Y20357513D01*
X11238124Y20357514D01*
X11132774Y20425218D01*
X11012616Y20460500D01*
X11012615Y20460500D01*
X10887385Y20460500D01*
X10887383Y20460500D01*
X10767225Y20425218D01*
X10661875Y20357514D01*
X10661875Y20357513D01*
X10579868Y20262872D01*
X10579867Y20262871D01*
X10579867Y20262870D01*
X10557034Y20212872D01*
X10527843Y20148954D01*
X10527842Y20148952D01*
X10510022Y20025003D01*
X10510022Y20024998D01*
X10527842Y19901049D01*
X10527843Y19901047D01*
X10527843Y19901046D01*
X10527844Y19901044D01*
X10579867Y19787130D01*
X10579868Y19787129D01*
X10622440Y19737998D01*
X10646258Y19681639D01*
X10632400Y19622044D01*
X10601145Y19589883D01*
X10511874Y19532512D01*
X10429868Y19437872D01*
X10377843Y19323954D01*
X10377842Y19323952D01*
X10360022Y19200003D01*
X10360022Y19199998D01*
X4360263Y19199998D01*
X4320133Y19287870D01*
X4238124Y19382513D01*
X4238124Y19382514D01*
X4132774Y19450218D01*
X4012616Y19485500D01*
X4012615Y19485500D01*
X3887385Y19485500D01*
X3887383Y19485500D01*
X3767225Y19450218D01*
X3661875Y19382514D01*
X3661875Y19382513D01*
X3579868Y19287872D01*
X3527843Y19173954D01*
X3527842Y19173952D01*
X3510022Y19050003D01*
X3510022Y19049998D01*
X2848317Y19049998D01*
X2931888Y19074537D01*
X3037239Y19142242D01*
X3119248Y19236885D01*
X3171271Y19350799D01*
X3176601Y19387870D01*
X3189093Y19474753D01*
X3189093Y19474758D01*
X3171272Y19598707D01*
X3171271Y19598709D01*
X3171271Y19598711D01*
X3119248Y19712625D01*
X3037239Y19807268D01*
X3037239Y19807269D01*
X2931889Y19874973D01*
X2873022Y19892258D01*
X2822515Y19926794D01*
X2805316Y19974998D01*
X7710022Y19974998D01*
X7727842Y19851049D01*
X7727843Y19851047D01*
X7727843Y19851046D01*
X7727844Y19851044D01*
X7779867Y19737130D01*
X7779868Y19737129D01*
X7861875Y19642488D01*
X7861875Y19642487D01*
X7967225Y19574783D01*
X7967227Y19574782D01*
X8087385Y19539500D01*
X8087386Y19539500D01*
X8212614Y19539500D01*
X8212615Y19539500D01*
X8332773Y19574782D01*
X8438124Y19642487D01*
X8520133Y19737130D01*
X8572156Y19851044D01*
X8574881Y19869998D01*
X8589978Y19974998D01*
X8589978Y19975003D01*
X8572157Y20098952D01*
X8572156Y20098954D01*
X8572156Y20098956D01*
X8520133Y20212870D01*
X8438124Y20307513D01*
X8438124Y20307514D01*
X8332774Y20375218D01*
X8212616Y20410500D01*
X8212615Y20410500D01*
X8087385Y20410500D01*
X8087383Y20410500D01*
X7967225Y20375218D01*
X7861875Y20307514D01*
X7861875Y20307513D01*
X7779868Y20212872D01*
X7727843Y20098954D01*
X7727842Y20098952D01*
X7710022Y19975003D01*
X7710022Y19974998D01*
X2805316Y19974998D01*
X2801954Y19984422D01*
X2819193Y20043128D01*
X2867646Y20080491D01*
X2873010Y20082234D01*
X2932773Y20099782D01*
X3038124Y20167487D01*
X3120133Y20262130D01*
X3172156Y20376044D01*
X3179226Y20425218D01*
X3189978Y20499998D01*
X3189978Y20500003D01*
X3172157Y20623952D01*
X3172156Y20623954D01*
X3172156Y20623956D01*
X3137429Y20699998D01*
X3510022Y20699998D01*
X3527842Y20576049D01*
X3527843Y20576047D01*
X3527843Y20576046D01*
X3527844Y20576044D01*
X3579867Y20462130D01*
X3602942Y20435500D01*
X3661875Y20367488D01*
X3661875Y20367487D01*
X3755197Y20307513D01*
X3767227Y20299782D01*
X3887385Y20264500D01*
X3887386Y20264500D01*
X4012614Y20264500D01*
X4012615Y20264500D01*
X4132773Y20299782D01*
X4238124Y20367487D01*
X4320133Y20462130D01*
X4372156Y20576044D01*
X4379044Y20623952D01*
X4389978Y20699998D01*
X4389978Y20700003D01*
X4372157Y20823952D01*
X4372156Y20823954D01*
X4372156Y20823956D01*
X4320133Y20937870D01*
X4238124Y21032513D01*
X4238124Y21032514D01*
X4132774Y21100218D01*
X4012616Y21135500D01*
X4012615Y21135500D01*
X3887385Y21135500D01*
X3887383Y21135500D01*
X3767225Y21100218D01*
X3661875Y21032514D01*
X3661875Y21032513D01*
X3579868Y20937872D01*
X3527843Y20823954D01*
X3527842Y20823952D01*
X3510022Y20700003D01*
X3510022Y20699998D01*
X3137429Y20699998D01*
X3120133Y20737870D01*
X3038124Y20832513D01*
X3038124Y20832514D01*
X2932774Y20900218D01*
X2812616Y20935500D01*
X2812615Y20935500D01*
X2687385Y20935500D01*
X2687383Y20935500D01*
X2567225Y20900218D01*
X2461875Y20832514D01*
X2461875Y20832513D01*
X2379868Y20737872D01*
X2327843Y20623954D01*
X2327842Y20623952D01*
X2310022Y20500003D01*
X2310022Y20499998D01*
X2327842Y20376049D01*
X2327843Y20376047D01*
X2327843Y20376046D01*
X2327844Y20376044D01*
X2379867Y20262130D01*
X2379868Y20262129D01*
X2461875Y20167488D01*
X2461875Y20167487D01*
X2567226Y20099782D01*
X2589088Y20093363D01*
X2626091Y20082498D01*
X2676598Y20047962D01*
X2697160Y19990335D01*
X2679922Y19931628D01*
X2631469Y19894266D01*
X2626093Y19892519D01*
X2566344Y19874975D01*
X2566342Y19874974D01*
X2460990Y19807269D01*
X2460990Y19807268D01*
X2378983Y19712627D01*
X2326958Y19598709D01*
X2326957Y19598707D01*
X2309137Y19474758D01*
X2309137Y19474753D01*
X200500Y19474753D01*
X200500Y22449998D01*
X2060022Y22449998D01*
X2077842Y22326049D01*
X2077843Y22326047D01*
X2077843Y22326046D01*
X2077844Y22326044D01*
X2129867Y22212130D01*
X2129868Y22212129D01*
X2211875Y22117488D01*
X2211875Y22117487D01*
X2227884Y22107199D01*
X2317227Y22049782D01*
X2437385Y22014500D01*
X2437386Y22014500D01*
X2562614Y22014500D01*
X2562615Y22014500D01*
X2682773Y22049782D01*
X2788124Y22117487D01*
X2870133Y22212130D01*
X2883487Y22241370D01*
X12468650Y22241370D01*
X12486470Y22117421D01*
X12486471Y22117419D01*
X12486471Y22117418D01*
X12486472Y22117416D01*
X12526394Y22030000D01*
X12538496Y22003500D01*
X12616421Y21913570D01*
X12640239Y21857211D01*
X12626380Y21797616D01*
X12616421Y21783908D01*
X12554868Y21712873D01*
X12502843Y21598954D01*
X12502842Y21598952D01*
X12485022Y21475003D01*
X12485022Y21474998D01*
X12502842Y21351049D01*
X12502843Y21351047D01*
X12502843Y21351046D01*
X12502844Y21351044D01*
X12554867Y21237130D01*
X12554868Y21237129D01*
X12636875Y21142488D01*
X12636875Y21142487D01*
X12742225Y21074783D01*
X12742227Y21074782D01*
X12862385Y21039500D01*
X12862386Y21039500D01*
X12987614Y21039500D01*
X12987615Y21039500D01*
X13107773Y21074782D01*
X13213124Y21142487D01*
X13295133Y21237130D01*
X13347156Y21351044D01*
X13349313Y21366047D01*
X13364978Y21474998D01*
X13364978Y21475003D01*
X13347157Y21598952D01*
X13347156Y21598954D01*
X13347156Y21598956D01*
X13295133Y21712870D01*
X13271330Y21740340D01*
X13217206Y21802803D01*
X13193388Y21859162D01*
X13207246Y21918757D01*
X13217197Y21932455D01*
X13278761Y22003502D01*
X13330784Y22117416D01*
X13330794Y22117487D01*
X13348606Y22241370D01*
X13348606Y22241375D01*
X13330785Y22365324D01*
X13330784Y22365326D01*
X13330784Y22365328D01*
X13278761Y22479242D01*
X13196752Y22573885D01*
X13196752Y22573886D01*
X13091402Y22641590D01*
X12971244Y22676872D01*
X12971243Y22676872D01*
X12846013Y22676872D01*
X12846011Y22676872D01*
X12725853Y22641590D01*
X12620503Y22573886D01*
X12620503Y22573885D01*
X12538496Y22479244D01*
X12486471Y22365326D01*
X12486470Y22365324D01*
X12468650Y22241375D01*
X12468650Y22241370D01*
X2883487Y22241370D01*
X2922156Y22326044D01*
X2923031Y22332130D01*
X2939978Y22449998D01*
X2939978Y22450003D01*
X2922157Y22573952D01*
X2922156Y22573954D01*
X2922156Y22573956D01*
X2870133Y22687870D01*
X2788124Y22782513D01*
X2788124Y22782514D01*
X2682774Y22850218D01*
X2562616Y22885500D01*
X2562615Y22885500D01*
X2437385Y22885500D01*
X2437383Y22885500D01*
X2317225Y22850218D01*
X2211875Y22782514D01*
X2211875Y22782513D01*
X2129868Y22687872D01*
X2077843Y22573954D01*
X2077842Y22573952D01*
X2060022Y22450003D01*
X2060022Y22449998D01*
X200500Y22449998D01*
X200500Y23599998D01*
X7560022Y23599998D01*
X7577842Y23476049D01*
X7577843Y23476047D01*
X7577843Y23476046D01*
X7577844Y23476044D01*
X7629867Y23362130D01*
X7654784Y23333374D01*
X7711875Y23267488D01*
X7711875Y23267487D01*
X7789677Y23217487D01*
X7817227Y23199782D01*
X7937385Y23164500D01*
X7937386Y23164500D01*
X8062614Y23164500D01*
X8062615Y23164500D01*
X8182773Y23199782D01*
X8288124Y23267487D01*
X8370133Y23362130D01*
X8422156Y23476044D01*
X8422157Y23476049D01*
X8439978Y23599998D01*
X10710022Y23599998D01*
X10727842Y23476049D01*
X10727843Y23476047D01*
X10727843Y23476046D01*
X10727844Y23476044D01*
X10779867Y23362130D01*
X10804784Y23333374D01*
X10861875Y23267488D01*
X10861875Y23267487D01*
X10939677Y23217487D01*
X10967227Y23199782D01*
X11087385Y23164500D01*
X11087386Y23164500D01*
X11212614Y23164500D01*
X11212615Y23164500D01*
X11332773Y23199782D01*
X11438124Y23267487D01*
X11520133Y23362130D01*
X11572156Y23476044D01*
X11572157Y23476049D01*
X11582789Y23549998D01*
X12835022Y23549998D01*
X12852842Y23426049D01*
X12852843Y23426047D01*
X12852843Y23426046D01*
X12852844Y23426044D01*
X12904867Y23312130D01*
X12904868Y23312129D01*
X12986875Y23217488D01*
X12986875Y23217487D01*
X13069325Y23164500D01*
X13092227Y23149782D01*
X13212385Y23114500D01*
X13212386Y23114500D01*
X13337614Y23114500D01*
X13337615Y23114500D01*
X13457773Y23149782D01*
X13563124Y23217487D01*
X13645133Y23312130D01*
X13697156Y23426044D01*
X13704345Y23476044D01*
X13714978Y23549998D01*
X13714978Y23550003D01*
X13697157Y23673952D01*
X13697156Y23673954D01*
X13697156Y23673956D01*
X13645133Y23787870D01*
X13563124Y23882513D01*
X13563124Y23882514D01*
X13457774Y23950218D01*
X13337616Y23985500D01*
X13337615Y23985500D01*
X13212385Y23985500D01*
X13212383Y23985500D01*
X13092225Y23950218D01*
X12986875Y23882514D01*
X12986875Y23882513D01*
X12904868Y23787872D01*
X12852843Y23673954D01*
X12852842Y23673952D01*
X12835022Y23550003D01*
X12835022Y23549998D01*
X11582789Y23549998D01*
X11589978Y23599998D01*
X11589978Y23600003D01*
X11572157Y23723952D01*
X11572156Y23723954D01*
X11572156Y23723956D01*
X11520133Y23837870D01*
X11438124Y23932513D01*
X11438124Y23932514D01*
X11332774Y24000218D01*
X11212616Y24035500D01*
X11212615Y24035500D01*
X11087385Y24035500D01*
X11087383Y24035500D01*
X10967225Y24000218D01*
X10861875Y23932514D01*
X10861875Y23932513D01*
X10779868Y23837872D01*
X10727843Y23723954D01*
X10727842Y23723952D01*
X10710022Y23600003D01*
X10710022Y23599998D01*
X8439978Y23599998D01*
X8439978Y23600003D01*
X8422157Y23723952D01*
X8422156Y23723954D01*
X8422156Y23723956D01*
X8370133Y23837870D01*
X8288124Y23932513D01*
X8288124Y23932514D01*
X8182774Y24000218D01*
X8062616Y24035500D01*
X8062615Y24035500D01*
X7937385Y24035500D01*
X7937383Y24035500D01*
X7817225Y24000218D01*
X7711875Y23932514D01*
X7711875Y23932513D01*
X7629868Y23837872D01*
X7577843Y23723954D01*
X7577842Y23723952D01*
X7560022Y23600003D01*
X7560022Y23599998D01*
X200500Y23599998D01*
X200500Y24812380D01*
X200553Y24814000D01*
X980357Y24814000D01*
X1000885Y24592464D01*
X1061771Y24378472D01*
X1160942Y24179311D01*
X1295019Y24001764D01*
X1459438Y23851876D01*
X1648599Y23734753D01*
X1856060Y23654382D01*
X2074757Y23613500D01*
X2297243Y23613500D01*
X2515940Y23654382D01*
X2723401Y23734753D01*
X2912562Y23851876D01*
X3076981Y24001764D01*
X3211058Y24179311D01*
X3310229Y24378472D01*
X3371115Y24592464D01*
X3391643Y24814000D01*
X3371115Y25035536D01*
X3310229Y25249528D01*
X3211058Y25448689D01*
X3076981Y25626236D01*
X2912562Y25776124D01*
X2723401Y25893247D01*
X2515940Y25973618D01*
X2515939Y25973619D01*
X2515937Y25973619D01*
X2297243Y26014500D01*
X2074757Y26014500D01*
X1856062Y25973619D01*
X1779797Y25944074D01*
X1648599Y25893247D01*
X1513260Y25809449D01*
X1459438Y25776124D01*
X1295020Y25626237D01*
X1160943Y25448691D01*
X1160938Y25448682D01*
X1061772Y25249531D01*
X1061771Y25249528D01*
X1000885Y25035536D01*
X980357Y24814000D01*
X200553Y24814000D01*
X200606Y24815618D01*
X201981Y24836590D01*
X217273Y25069924D01*
X218119Y25076343D01*
X267521Y25324702D01*
X269196Y25330956D01*
X350595Y25570751D01*
X353065Y25576714D01*
X465075Y25803848D01*
X468310Y25809449D01*
X524302Y25893247D01*
X609001Y26020009D01*
X612931Y26025131D01*
X779907Y26215531D01*
X784469Y26220093D01*
X974869Y26387069D01*
X979991Y26390999D01*
X1190555Y26531693D01*
X1196152Y26534925D01*
X1423286Y26646935D01*
X1429249Y26649405D01*
X1669044Y26730804D01*
X1675298Y26732479D01*
X1917182Y26780593D01*
X1923659Y26781882D01*
X1930076Y26782727D01*
X2184383Y26799395D01*
X2187620Y26799500D01*
X2225882Y26799500D01*
X18352315Y26799500D01*
X18410506Y26780593D01*
G37*
%TD.AperFunction*%
%TD*%
M02*
