G04 #@! TF.GenerationSoftware,KiCad,Pcbnew,7.0.7*
G04 #@! TF.CreationDate,2024-01-02T23:41:36-05:00*
G04 #@! TF.ProjectId,O12encoder,4f313265-6e63-46f6-9465-722e6b696361,1*
G04 #@! TF.SameCoordinates,Original*
G04 #@! TF.FileFunction,Copper,L1,Top*
G04 #@! TF.FilePolarity,Positive*
%FSLAX46Y46*%
G04 Gerber Fmt 4.6, Leading zero omitted, Abs format (unit mm)*
G04 Created by KiCad (PCBNEW 7.0.7) date 2024-01-02 23:41:36*
%MOMM*%
%LPD*%
G01*
G04 APERTURE LIST*
G04 Aperture macros list*
%AMRoundRect*
0 Rectangle with rounded corners*
0 $1 Rounding radius*
0 $2 $3 $4 $5 $6 $7 $8 $9 X,Y pos of 4 corners*
0 Add a 4 corners polygon primitive as box body*
4,1,4,$2,$3,$4,$5,$6,$7,$8,$9,$2,$3,0*
0 Add four circle primitives for the rounded corners*
1,1,$1+$1,$2,$3*
1,1,$1+$1,$4,$5*
1,1,$1+$1,$6,$7*
1,1,$1+$1,$8,$9*
0 Add four rect primitives between the rounded corners*
20,1,$1+$1,$2,$3,$4,$5,0*
20,1,$1+$1,$4,$5,$6,$7,0*
20,1,$1+$1,$6,$7,$8,$9,0*
20,1,$1+$1,$8,$9,$2,$3,0*%
G04 Aperture macros list end*
G04 #@! TA.AperFunction,SMDPad,CuDef*
%ADD10RoundRect,0.150000X-0.594615X-0.170096X-0.444615X-0.429904X0.594615X0.170096X0.444615X0.429904X0*%
G04 #@! TD*
G04 #@! TA.AperFunction,SMDPad,CuDef*
%ADD11RoundRect,0.140000X-0.140000X-0.170000X0.140000X-0.170000X0.140000X0.170000X-0.140000X0.170000X0*%
G04 #@! TD*
G04 #@! TA.AperFunction,SMDPad,CuDef*
%ADD12RoundRect,0.075000X0.912893X-0.166963X-0.874070X0.311852X-0.912893X0.166963X0.874070X-0.311852X0*%
G04 #@! TD*
G04 #@! TA.AperFunction,SMDPad,CuDef*
%ADD13RoundRect,0.075000X0.075000X-0.925000X0.075000X0.925000X-0.075000X0.925000X-0.075000X-0.925000X0*%
G04 #@! TD*
G04 #@! TA.AperFunction,SMDPad,CuDef*
%ADD14R,0.711200X0.254000*%
G04 #@! TD*
G04 #@! TA.AperFunction,SMDPad,CuDef*
%ADD15R,0.254000X0.711200*%
G04 #@! TD*
G04 #@! TA.AperFunction,SMDPad,CuDef*
%ADD16R,1.701800X1.701800*%
G04 #@! TD*
G04 #@! TA.AperFunction,SMDPad,CuDef*
%ADD17RoundRect,0.075000X-0.925000X-0.075000X0.925000X-0.075000X0.925000X0.075000X-0.925000X0.075000X0*%
G04 #@! TD*
G04 #@! TA.AperFunction,ViaPad*
%ADD18C,0.550000*%
G04 #@! TD*
G04 #@! TA.AperFunction,Conductor*
%ADD19C,0.160000*%
G04 #@! TD*
G04 #@! TA.AperFunction,Conductor*
%ADD20C,0.250000*%
G04 #@! TD*
G04 APERTURE END LIST*
D10*
X55050000Y-47070000D03*
D11*
X49520000Y-52550000D03*
X50480000Y-52550000D03*
D12*
X55111771Y-52698888D03*
X55241181Y-52215925D03*
X55370590Y-51732962D03*
X55500000Y-51249999D03*
X55629409Y-50767036D03*
X55758819Y-50284073D03*
D13*
X48750000Y-45300000D03*
X49250000Y-45300000D03*
X49750000Y-45300000D03*
X50250000Y-45300000D03*
X50750000Y-45300000D03*
X51250000Y-45300000D03*
D14*
X51450000Y-50750001D03*
X51450000Y-50250000D03*
X51450000Y-49750000D03*
X51450000Y-49249999D03*
D15*
X50750001Y-48550000D03*
X50250000Y-48550000D03*
X49750000Y-48550000D03*
X49249999Y-48550000D03*
D14*
X48550000Y-49249999D03*
X48550000Y-49750000D03*
X48550000Y-50250000D03*
X48550000Y-50750001D03*
D15*
X49249999Y-51450000D03*
X49750000Y-51450000D03*
X50250000Y-51450000D03*
X50750001Y-51450000D03*
D16*
X50000000Y-50000000D03*
D17*
X45300000Y-48800000D03*
X45300000Y-49300000D03*
X45300000Y-49800000D03*
X45300000Y-50300000D03*
X45300000Y-50800000D03*
X45300000Y-51300000D03*
D18*
X48100000Y-46575000D03*
X50500000Y-47200000D03*
X51619099Y-46344033D03*
X53983176Y-48755199D03*
X46650000Y-51400000D03*
X49650000Y-54850000D03*
X48688235Y-48441765D03*
X49399826Y-53085996D03*
X56190000Y-50220000D03*
X47350000Y-53700000D03*
X49735946Y-50650000D03*
X51310119Y-51840240D03*
X53943807Y-52783807D03*
X48335500Y-52797000D03*
X46373787Y-48199253D03*
X52350000Y-49600000D03*
X48950000Y-47760000D03*
X55600000Y-53250000D03*
X47100000Y-46530000D03*
X51700000Y-53900000D03*
X54050000Y-50300000D03*
X52500000Y-47550000D03*
X51434502Y-48550000D03*
X53550000Y-51200000D03*
X52500000Y-46450000D03*
X52050000Y-51800000D03*
X49480000Y-46760000D03*
X44560000Y-47620000D03*
X48140000Y-44580000D03*
X53939500Y-47215902D03*
D19*
X47714904Y-47727452D02*
X47117356Y-48325000D01*
X47117356Y-48325000D02*
X47115000Y-48325000D01*
X54000000Y-51900000D02*
X55241181Y-52215925D01*
X51763543Y-48121187D02*
X51890319Y-48121187D01*
X46540000Y-49060000D02*
X46300000Y-49300000D01*
X52850000Y-49828320D02*
X52850000Y-51400000D01*
X49250000Y-46250000D02*
X49250000Y-45800000D01*
X52865000Y-49813320D02*
X52850000Y-49828320D01*
X47714904Y-47360868D02*
X47714904Y-47727452D01*
X50500000Y-47200000D02*
X50952174Y-47550000D01*
X47800000Y-46750000D02*
X47800000Y-47275772D01*
X53350000Y-51900000D02*
X54000000Y-51900000D01*
X51192356Y-47550000D02*
X51763543Y-48121187D01*
X48200000Y-46550000D02*
X48950000Y-46550000D01*
X46540000Y-48900000D02*
X46540000Y-49060000D01*
X50952174Y-47550000D02*
X51192356Y-47550000D01*
X47800000Y-47275772D02*
X47714904Y-47360868D01*
X50750001Y-47700001D02*
X50750001Y-48550000D01*
X48100000Y-46575000D02*
X48200000Y-46550000D01*
X47115000Y-48325000D02*
X46540000Y-48900000D01*
X48950000Y-46550000D02*
X49250000Y-46250000D01*
X52865000Y-49269390D02*
X52865000Y-49813320D01*
X52011274Y-48415664D02*
X52865000Y-49269390D01*
X52850000Y-51400000D02*
X53350000Y-51900000D01*
X50500000Y-47200000D02*
X50750001Y-47700001D01*
X51890319Y-48121187D02*
X52011274Y-48242142D01*
X48100000Y-46575000D02*
X47800000Y-46750000D01*
X52011274Y-48242142D02*
X52011274Y-48415664D01*
X46300000Y-49300000D02*
X45300000Y-49300000D01*
X55758819Y-50284073D02*
X55758819Y-50231544D01*
D20*
X46369500Y-51300000D02*
X45300000Y-51300000D01*
D19*
X49520000Y-52550000D02*
X49249999Y-52279999D01*
D20*
X47350000Y-52800000D02*
X47950000Y-52200000D01*
X53775199Y-48755199D02*
X53060000Y-48040000D01*
X46650000Y-51400000D02*
X47950000Y-51400000D01*
D19*
X53983176Y-48755199D02*
X53980000Y-49680000D01*
X52175000Y-46965000D02*
X52635000Y-46965000D01*
X51250000Y-45974934D02*
X51619099Y-46344033D01*
D20*
X53060000Y-48040000D02*
X53060000Y-47300000D01*
D19*
X48448235Y-48441765D02*
X48688235Y-48441765D01*
X47790000Y-49100000D02*
X48448235Y-48441765D01*
D20*
X55491544Y-50231544D02*
X55321544Y-50231544D01*
X47790000Y-49100000D02*
X47790000Y-51240000D01*
X46650000Y-51400000D02*
X46369500Y-51300000D01*
X47950000Y-52200000D02*
X47950000Y-51400000D01*
X47350000Y-54050000D02*
X47350000Y-52800000D01*
D19*
X52150000Y-46940000D02*
X52175000Y-46965000D01*
D20*
X48810001Y-54440000D02*
X47740000Y-54440000D01*
D19*
X49520000Y-52965822D02*
X49399826Y-53085996D01*
X49249999Y-52279999D02*
X49249999Y-51450000D01*
D20*
X52770000Y-47010000D02*
X53060000Y-47300000D01*
X52770000Y-47010000D02*
X52680000Y-47010000D01*
X47740000Y-54440000D02*
X47350000Y-54050000D01*
X51619099Y-46409099D02*
X52150000Y-46940000D01*
D19*
X49520000Y-52550000D02*
X49520000Y-52965822D01*
X51250000Y-45300000D02*
X51250000Y-45974934D01*
D20*
X47790000Y-51240000D02*
X47950000Y-51400000D01*
X49087250Y-54558184D02*
X48928185Y-54558184D01*
X53983176Y-48893176D02*
X53983176Y-48755199D01*
X49650000Y-54850000D02*
X49379066Y-54850000D01*
X48928185Y-54558184D02*
X48810001Y-54440000D01*
X49379066Y-54850000D02*
X49087250Y-54558184D01*
D19*
X52635000Y-46965000D02*
X52680000Y-47010000D01*
D20*
X51619099Y-46344033D02*
X51619099Y-46409099D01*
D19*
X53980000Y-49680000D02*
X55758819Y-50284073D01*
X55600000Y-53250000D02*
X55600000Y-53187117D01*
X48950000Y-47760000D02*
X49249999Y-48080610D01*
X55600000Y-53187117D02*
X55111771Y-52698888D01*
X45900747Y-48199253D02*
X45300000Y-48800000D01*
X49249999Y-48080610D02*
X49249999Y-48550000D01*
X52350000Y-49600000D02*
X52350000Y-50695600D01*
X50480000Y-52550000D02*
X50600359Y-52550000D01*
X50600359Y-52550000D02*
X51310119Y-51840240D01*
X52350000Y-50695600D02*
X51310119Y-51735481D01*
X46373787Y-48199253D02*
X45900747Y-48199253D01*
X51310119Y-51735481D02*
X51310119Y-51840240D01*
X54050000Y-50300000D02*
X55629409Y-50767036D01*
X44920000Y-44300000D02*
X44620000Y-44550000D01*
X45300000Y-44190000D02*
X44920000Y-44300000D01*
X52651274Y-47701274D02*
X52270000Y-47320000D01*
X52270000Y-47320000D02*
X51867452Y-47320000D01*
X44620000Y-44550000D02*
X44350000Y-44850000D01*
X51450000Y-48776146D02*
X51434502Y-48760648D01*
X54050000Y-50300000D02*
X53520000Y-49770000D01*
X51450000Y-49249999D02*
X51450000Y-48776146D01*
X44148311Y-45350000D02*
X44350000Y-44850000D01*
X51087452Y-46540000D02*
X51044523Y-46540000D01*
X51044523Y-46540000D02*
X50750000Y-46245477D01*
X53520000Y-49770000D02*
X53520000Y-49019294D01*
X45642314Y-44050000D02*
X45300000Y-44190000D01*
X44300000Y-50800000D02*
X45400000Y-50800000D01*
X44044359Y-45647955D02*
X44040206Y-45880478D01*
X50750000Y-44354523D02*
X50445477Y-44050000D01*
X44037359Y-50537359D02*
X44300000Y-50800000D01*
X44037359Y-45883225D02*
X44037359Y-50537359D01*
X44040206Y-45880478D02*
X44037359Y-45883225D01*
X50445477Y-44050000D02*
X45642314Y-44050000D01*
X44044359Y-45647955D02*
X44148311Y-45350000D01*
X53520000Y-49019294D02*
X52651274Y-48150568D01*
X52651274Y-48150568D02*
X52651274Y-47701274D01*
X50750000Y-46245477D02*
X50750000Y-44354523D01*
X51867452Y-47320000D02*
X51087452Y-46540000D01*
X46540000Y-49965096D02*
X47180000Y-49325096D01*
X48354904Y-47992548D02*
X48354904Y-47625964D01*
X49163320Y-47245000D02*
X49338320Y-47420000D01*
X48354904Y-47625964D02*
X48735868Y-47245000D01*
X53550000Y-51200000D02*
X53550000Y-51162500D01*
X46245477Y-50300000D02*
X46540000Y-50005477D01*
X49995000Y-46745000D02*
X50140000Y-46600000D01*
X50651975Y-46600000D02*
X50911975Y-46860000D01*
X47180000Y-49325096D02*
X47180000Y-49167452D01*
X49338320Y-47420000D02*
X49750000Y-47420000D01*
X52022867Y-47801187D02*
X52331274Y-48109594D01*
X47180000Y-49167452D02*
X48354904Y-47992548D01*
X45400000Y-50300000D02*
X46245477Y-50300000D01*
X46540000Y-50005477D02*
X46540000Y-49965096D01*
X49995000Y-46973320D02*
X49995000Y-46745000D01*
X53200000Y-49151842D02*
X53200000Y-50178320D01*
X50140000Y-46600000D02*
X50651975Y-46600000D01*
X50911975Y-46860000D02*
X50954904Y-46860000D01*
X49750000Y-47218320D02*
X49995000Y-46973320D01*
X48735868Y-47245000D02*
X49163320Y-47245000D01*
X49750000Y-47420000D02*
X49750000Y-47218320D01*
X53200000Y-50178320D02*
X53550000Y-50528320D01*
X51896091Y-47801187D02*
X52022867Y-47801187D01*
X49750000Y-48400000D02*
X49800000Y-48350000D01*
X52331274Y-48283116D02*
X53200000Y-49151842D01*
X49750000Y-48550000D02*
X49840000Y-48460000D01*
X53550000Y-50528320D02*
X53550000Y-51200000D01*
X53550000Y-51200000D02*
X54100000Y-50900000D01*
X50250000Y-46500000D02*
X50250000Y-45800000D01*
X49840000Y-48460000D02*
X49840000Y-47510000D01*
X54100000Y-50900000D02*
X55500000Y-51249999D01*
X50954904Y-46860000D02*
X51896091Y-47801187D01*
X49840000Y-47510000D02*
X49750000Y-47420000D01*
X52331274Y-48109594D02*
X52331274Y-48283116D01*
X56540000Y-49640000D02*
X57150000Y-49950000D01*
X49315000Y-46925000D02*
X48603320Y-46925000D01*
X52760000Y-46450000D02*
X53425000Y-47115000D01*
X53425000Y-47115000D02*
X53425000Y-47745000D01*
X52215000Y-54113320D02*
X53801680Y-55700000D01*
X56600000Y-52050000D02*
X55370590Y-51732962D01*
X48850000Y-51050001D02*
X48850000Y-53400000D01*
X54498176Y-49278176D02*
X54810000Y-49590000D01*
X52500000Y-46450000D02*
X52760000Y-46450000D01*
X56272988Y-53156160D02*
X56600000Y-52050000D01*
X52050000Y-52000000D02*
X52050000Y-51800000D01*
X57150000Y-49950000D02*
X56600000Y-52050000D01*
X48034904Y-47493416D02*
X48034904Y-47860000D01*
X49750000Y-46500000D02*
X49750000Y-45800000D01*
X49100000Y-53650000D02*
X50400000Y-53650000D01*
X52215000Y-53686680D02*
X52215000Y-54113320D01*
X54498176Y-48541879D02*
X54498176Y-49278176D01*
X48603320Y-46925000D02*
X48034904Y-47493416D01*
X54196496Y-48240199D02*
X54498176Y-48541879D01*
X52050000Y-53521680D02*
X52215000Y-53686680D01*
X53920199Y-48240199D02*
X54196496Y-48240199D01*
X54810000Y-49590000D02*
X55570000Y-49800000D01*
X50400000Y-53650000D02*
X52050000Y-52000000D01*
X48850000Y-53400000D02*
X49100000Y-53650000D01*
X54900000Y-55700000D02*
X55750000Y-54700000D01*
X53801680Y-55700000D02*
X54900000Y-55700000D01*
X55900000Y-49740000D02*
X56540000Y-49640000D01*
X46252548Y-49800000D02*
X45300000Y-49800000D01*
X55750000Y-54700000D02*
X56272988Y-53156160D01*
X49480000Y-46760000D02*
X49315000Y-46925000D01*
X55570000Y-49800000D02*
X55900000Y-49740000D01*
X53425000Y-47745000D02*
X53920199Y-48240199D01*
X46860000Y-49192548D02*
X46252548Y-49800000D01*
X49480000Y-46760000D02*
X49750000Y-46500000D01*
X46860000Y-49034904D02*
X46860000Y-49192548D01*
X52050000Y-51800000D02*
X52050000Y-53521680D01*
X48550000Y-50750001D02*
X48850000Y-51050001D01*
X48034904Y-47860000D02*
X46860000Y-49034904D01*
X46120000Y-44470000D02*
X45680000Y-44450000D01*
X48140000Y-44580000D02*
X47735500Y-44470000D01*
X45680000Y-44450000D02*
X45240000Y-44540000D01*
X44468311Y-45421689D02*
X44468311Y-47528311D01*
X44530000Y-45360000D02*
X44468311Y-45421689D01*
X44468311Y-47528311D02*
X44560000Y-47620000D01*
X47735500Y-44470000D02*
X46120000Y-44470000D01*
X45240000Y-44540000D02*
X44910000Y-44760000D01*
X44910000Y-44760000D02*
X44660000Y-45050000D01*
X44660000Y-45050000D02*
X44530000Y-45360000D01*
X54944098Y-47215902D02*
X53939500Y-47215902D01*
X55150000Y-47010000D02*
X54944098Y-47215902D01*
G04 #@! TA.AperFunction,Conductor*
G36*
X48498870Y-51095983D02*
G01*
X48503951Y-51100640D01*
X48546360Y-51143049D01*
X48569198Y-51192025D01*
X48569499Y-51198910D01*
X48569499Y-53341357D01*
X48567571Y-53353212D01*
X48568389Y-53353326D01*
X48567377Y-53360575D01*
X48569458Y-53405570D01*
X48569500Y-53407395D01*
X48569500Y-53425999D01*
X48570193Y-53429706D01*
X48570824Y-53435142D01*
X48572115Y-53463037D01*
X48572221Y-53465333D01*
X48576441Y-53474892D01*
X48576555Y-53475149D01*
X48581938Y-53492531D01*
X48583529Y-53501044D01*
X48583911Y-53503085D01*
X48584205Y-53503559D01*
X48597733Y-53525408D01*
X48599818Y-53528774D01*
X48602370Y-53533616D01*
X48614579Y-53561266D01*
X48622162Y-53568849D01*
X48633466Y-53583119D01*
X48635877Y-53587013D01*
X48639118Y-53592246D01*
X48663238Y-53610461D01*
X48667362Y-53614049D01*
X48767238Y-53713925D01*
X48860189Y-53806876D01*
X48867202Y-53816623D01*
X48867865Y-53816123D01*
X48872276Y-53821963D01*
X48872277Y-53821964D01*
X48872279Y-53821967D01*
X48890460Y-53838541D01*
X48905574Y-53852320D01*
X48906872Y-53853559D01*
X48914194Y-53860881D01*
X48920037Y-53866724D01*
X48923148Y-53868855D01*
X48927445Y-53872257D01*
X48949778Y-53892617D01*
X48956281Y-53895136D01*
X48959783Y-53896493D01*
X48975892Y-53904984D01*
X48984738Y-53911044D01*
X49014156Y-53917963D01*
X49019378Y-53919580D01*
X49047565Y-53930500D01*
X49058292Y-53930500D01*
X49076378Y-53932597D01*
X49086821Y-53935054D01*
X49086822Y-53935054D01*
X49091808Y-53934358D01*
X49116755Y-53930878D01*
X49122210Y-53930500D01*
X50341358Y-53930500D01*
X50353211Y-53932433D01*
X50353326Y-53931611D01*
X50360573Y-53932622D01*
X50360575Y-53932621D01*
X50360576Y-53932622D01*
X50385194Y-53931483D01*
X50405570Y-53930542D01*
X50407395Y-53930500D01*
X50425991Y-53930500D01*
X50425993Y-53930500D01*
X50429708Y-53929805D01*
X50435139Y-53929174D01*
X50465333Y-53927779D01*
X50475145Y-53923446D01*
X50492540Y-53918060D01*
X50494138Y-53917761D01*
X50503084Y-53916089D01*
X50528784Y-53900174D01*
X50533611Y-53897630D01*
X50561266Y-53885421D01*
X50568852Y-53877834D01*
X50583119Y-53866532D01*
X50592245Y-53860883D01*
X50610464Y-53836755D01*
X50614047Y-53832638D01*
X51634639Y-52812046D01*
X51683614Y-52789209D01*
X51735812Y-52803195D01*
X51766807Y-52847461D01*
X51769499Y-52867908D01*
X51769499Y-53463037D01*
X51767571Y-53474892D01*
X51768389Y-53475006D01*
X51767377Y-53482255D01*
X51769458Y-53527250D01*
X51769500Y-53529075D01*
X51769500Y-53547679D01*
X51770193Y-53551386D01*
X51770824Y-53556822D01*
X51772221Y-53587013D01*
X51776555Y-53596829D01*
X51781938Y-53614211D01*
X51783272Y-53621346D01*
X51783911Y-53624765D01*
X51799818Y-53650454D01*
X51802370Y-53655296D01*
X51814579Y-53682946D01*
X51822162Y-53690529D01*
X51833467Y-53704800D01*
X51839118Y-53713926D01*
X51863238Y-53732141D01*
X51867362Y-53735729D01*
X51911361Y-53779728D01*
X51934199Y-53828704D01*
X51934500Y-53835589D01*
X51934500Y-54054677D01*
X51932567Y-54066531D01*
X51933389Y-54066646D01*
X51932377Y-54073895D01*
X51934458Y-54118890D01*
X51934500Y-54120715D01*
X51934500Y-54139319D01*
X51935193Y-54143026D01*
X51935824Y-54148462D01*
X51937221Y-54178653D01*
X51941555Y-54188469D01*
X51946938Y-54205851D01*
X51948529Y-54214364D01*
X51948911Y-54216405D01*
X51964818Y-54242094D01*
X51967370Y-54246936D01*
X51979579Y-54274586D01*
X51987162Y-54282169D01*
X51998466Y-54296439D01*
X52003760Y-54304989D01*
X52004118Y-54305566D01*
X52028238Y-54323781D01*
X52032362Y-54327369D01*
X52814711Y-55109718D01*
X53561869Y-55856876D01*
X53568882Y-55866623D01*
X53569545Y-55866123D01*
X53573956Y-55871963D01*
X53573957Y-55871964D01*
X53573959Y-55871967D01*
X53597892Y-55893785D01*
X53607254Y-55902320D01*
X53608552Y-55903559D01*
X53621716Y-55916723D01*
X53621717Y-55916724D01*
X53624828Y-55918855D01*
X53629125Y-55922257D01*
X53651458Y-55942617D01*
X53657961Y-55945136D01*
X53661463Y-55946493D01*
X53677572Y-55954984D01*
X53686418Y-55961044D01*
X53715836Y-55967963D01*
X53721058Y-55969580D01*
X53749245Y-55980500D01*
X53759972Y-55980500D01*
X53778058Y-55982597D01*
X53788501Y-55985054D01*
X53788502Y-55985054D01*
X53793488Y-55984358D01*
X53818435Y-55980878D01*
X53823890Y-55980500D01*
X54109528Y-55980500D01*
X54160308Y-55998982D01*
X54187328Y-56045782D01*
X54177944Y-56099000D01*
X54136548Y-56133736D01*
X54129975Y-56135808D01*
X48926879Y-57529974D01*
X48914092Y-57533400D01*
X48911575Y-57533987D01*
X48684514Y-57579150D01*
X48679386Y-57579825D01*
X48449675Y-57594879D01*
X48444502Y-57594879D01*
X48214790Y-57579822D01*
X48209662Y-57579147D01*
X47983889Y-57534237D01*
X47978893Y-57532899D01*
X47760897Y-57458899D01*
X47756124Y-57456922D01*
X47548419Y-57354495D01*
X47546150Y-57353283D01*
X47512796Y-57334026D01*
X47512794Y-57334025D01*
X44858716Y-55801691D01*
X44856532Y-55800333D01*
X44849381Y-55795555D01*
X44664045Y-55671715D01*
X44659943Y-55668567D01*
X44658702Y-55667478D01*
X44486856Y-55516773D01*
X44483225Y-55513142D01*
X44331421Y-55340043D01*
X44328281Y-55335951D01*
X44200381Y-55144536D01*
X44197799Y-55140064D01*
X44136666Y-55016100D01*
X44095976Y-54933591D01*
X44094001Y-54928820D01*
X44067244Y-54850000D01*
X44021301Y-54714659D01*
X44020004Y-54710838D01*
X44018665Y-54705842D01*
X43973750Y-54480060D01*
X43973074Y-54474932D01*
X43969015Y-54413022D01*
X43961971Y-54305565D01*
X43957944Y-54244137D01*
X43957859Y-54241552D01*
X43957859Y-51492154D01*
X43976341Y-51441374D01*
X44023141Y-51414354D01*
X44076359Y-51423738D01*
X44111095Y-51465134D01*
X44114341Y-51476743D01*
X44115485Y-51482496D01*
X44176375Y-51573624D01*
X44267503Y-51634514D01*
X44267504Y-51634515D01*
X44280837Y-51637166D01*
X44347867Y-51650500D01*
X46201802Y-51650499D01*
X46252582Y-51668981D01*
X46261506Y-51677765D01*
X46335410Y-51763054D01*
X46335411Y-51763055D01*
X46432340Y-51825347D01*
X46450439Y-51836978D01*
X46551853Y-51866756D01*
X46581632Y-51875500D01*
X46581633Y-51875500D01*
X46718368Y-51875500D01*
X46742637Y-51868373D01*
X46849561Y-51836978D01*
X46964589Y-51763055D01*
X46973503Y-51752766D01*
X47020725Y-51726493D01*
X47033208Y-51725500D01*
X47545500Y-51725500D01*
X47596280Y-51743982D01*
X47623300Y-51790782D01*
X47624500Y-51804500D01*
X47624500Y-52032451D01*
X47606018Y-52083231D01*
X47601361Y-52088312D01*
X47131113Y-52558560D01*
X47128572Y-52560889D01*
X47096807Y-52587543D01*
X47076072Y-52623453D01*
X47074221Y-52626359D01*
X47050446Y-52660313D01*
X47050445Y-52660315D01*
X47049372Y-52664322D01*
X47041485Y-52683363D01*
X47040243Y-52685515D01*
X47039411Y-52686956D01*
X47032211Y-52727784D01*
X47031465Y-52731147D01*
X47020735Y-52771194D01*
X47021834Y-52783745D01*
X47024350Y-52812507D01*
X47024500Y-52815935D01*
X47024500Y-53320071D01*
X47006018Y-53370851D01*
X47005205Y-53371804D01*
X46945870Y-53440281D01*
X46891604Y-53559107D01*
X46853697Y-53597620D01*
X46799902Y-53602757D01*
X46756700Y-53573897D01*
X46648342Y-53430407D01*
X46592669Y-53379654D01*
X46483921Y-53280517D01*
X46388340Y-53221336D01*
X46294761Y-53163394D01*
X46294757Y-53163392D01*
X46087305Y-53083025D01*
X46087294Y-53083021D01*
X45868602Y-53042141D01*
X45646116Y-53042141D01*
X45427423Y-53083021D01*
X45427412Y-53083025D01*
X45219960Y-53163392D01*
X45219956Y-53163394D01*
X45030800Y-53280515D01*
X45030793Y-53280520D01*
X44866378Y-53430404D01*
X44811135Y-53503559D01*
X44732301Y-53607952D01*
X44732299Y-53607954D01*
X44732297Y-53607958D01*
X44633129Y-53807114D01*
X44572244Y-54021102D01*
X44551716Y-54242641D01*
X44572244Y-54464179D01*
X44633129Y-54678167D01*
X44732297Y-54877323D01*
X44732298Y-54877324D01*
X44732301Y-54877330D01*
X44866378Y-55054877D01*
X45030797Y-55204765D01*
X45163571Y-55286975D01*
X45219956Y-55321887D01*
X45219960Y-55321889D01*
X45278982Y-55344754D01*
X45427419Y-55402259D01*
X45427421Y-55402259D01*
X45427423Y-55402260D01*
X45646116Y-55443141D01*
X45868601Y-55443141D01*
X45868602Y-55443141D01*
X46087299Y-55402259D01*
X46294760Y-55321888D01*
X46483921Y-55204765D01*
X46648340Y-55054877D01*
X46782417Y-54877330D01*
X46881588Y-54678169D01*
X46942474Y-54464177D01*
X46957184Y-54305419D01*
X46980273Y-54256563D01*
X47029365Y-54233976D01*
X47081491Y-54248230D01*
X47096362Y-54261927D01*
X47096804Y-54262454D01*
X47111261Y-54274584D01*
X47128569Y-54289107D01*
X47131103Y-54291429D01*
X47498569Y-54658897D01*
X47500894Y-54661432D01*
X47527545Y-54693194D01*
X47563460Y-54713929D01*
X47566350Y-54715771D01*
X47600313Y-54739552D01*
X47600314Y-54739552D01*
X47600316Y-54739554D01*
X47604316Y-54740625D01*
X47623368Y-54748516D01*
X47626955Y-54750588D01*
X47626957Y-54750588D01*
X47626960Y-54750590D01*
X47633453Y-54752954D01*
X47632586Y-54755335D01*
X47670022Y-54776942D01*
X47688512Y-54827720D01*
X47670037Y-54878503D01*
X47662734Y-54886112D01*
X47556108Y-54983315D01*
X47556104Y-54983319D01*
X47556105Y-54983319D01*
X47422028Y-55160866D01*
X47422026Y-55160868D01*
X47422024Y-55160872D01*
X47322856Y-55360028D01*
X47261971Y-55574016D01*
X47257928Y-55617650D01*
X47241443Y-55795555D01*
X47241972Y-55801260D01*
X47261971Y-56017093D01*
X47322856Y-56231081D01*
X47422024Y-56430237D01*
X47422025Y-56430238D01*
X47422028Y-56430244D01*
X47556105Y-56607791D01*
X47720524Y-56757679D01*
X47868542Y-56849327D01*
X47909683Y-56874801D01*
X47909687Y-56874803D01*
X48000686Y-56910056D01*
X48117146Y-56955173D01*
X48117148Y-56955173D01*
X48117150Y-56955174D01*
X48335843Y-56996055D01*
X48558328Y-56996055D01*
X48558329Y-56996055D01*
X48777026Y-56955173D01*
X48984487Y-56874802D01*
X49173648Y-56757679D01*
X49338067Y-56607791D01*
X49472144Y-56430244D01*
X49571315Y-56231083D01*
X49632201Y-56017091D01*
X49652729Y-55795555D01*
X49632201Y-55574019D01*
X49590120Y-55426119D01*
X49594000Y-55372220D01*
X49631618Y-55333424D01*
X49666104Y-55325500D01*
X49718368Y-55325500D01*
X49742637Y-55318373D01*
X49849561Y-55286978D01*
X49964589Y-55213055D01*
X50054130Y-55109718D01*
X50110931Y-54985342D01*
X50130390Y-54850000D01*
X50110931Y-54714658D01*
X50054130Y-54590282D01*
X49964589Y-54486945D01*
X49964588Y-54486944D01*
X49849565Y-54413024D01*
X49849562Y-54413023D01*
X49849561Y-54413022D01*
X49773805Y-54390778D01*
X49718368Y-54374500D01*
X49718367Y-54374500D01*
X49581633Y-54374500D01*
X49581632Y-54374500D01*
X49458288Y-54410717D01*
X49404357Y-54407290D01*
X49380170Y-54390778D01*
X49360201Y-54370809D01*
X49328678Y-54339286D01*
X49326360Y-54336756D01*
X49315472Y-54323781D01*
X49299705Y-54304990D01*
X49296096Y-54302906D01*
X49263789Y-54284252D01*
X49260883Y-54282401D01*
X49226934Y-54258630D01*
X49226931Y-54258628D01*
X49222932Y-54257557D01*
X49203880Y-54249665D01*
X49200300Y-54247598D01*
X49200293Y-54247595D01*
X49159465Y-54240395D01*
X49156101Y-54239649D01*
X49116056Y-54228919D01*
X49116055Y-54228919D01*
X49102747Y-54230084D01*
X49050549Y-54216098D01*
X49035344Y-54202165D01*
X49022456Y-54186806D01*
X49022455Y-54186805D01*
X48986540Y-54166068D01*
X48983634Y-54164217D01*
X48949685Y-54140446D01*
X48949682Y-54140444D01*
X48945683Y-54139373D01*
X48926631Y-54131481D01*
X48923051Y-54129414D01*
X48923044Y-54129411D01*
X48882216Y-54122211D01*
X48878852Y-54121465D01*
X48838807Y-54110735D01*
X48814352Y-54112875D01*
X48797492Y-54114350D01*
X48794065Y-54114500D01*
X47907549Y-54114500D01*
X47856769Y-54096018D01*
X47851688Y-54091361D01*
X47782229Y-54021902D01*
X47759391Y-53972926D01*
X47766228Y-53933226D01*
X47810931Y-53835342D01*
X47830390Y-53700000D01*
X47810931Y-53564658D01*
X47754130Y-53440282D01*
X47694794Y-53371804D01*
X47675509Y-53321324D01*
X47675499Y-53320187D01*
X47675499Y-52967546D01*
X47693981Y-52916767D01*
X47698627Y-52911697D01*
X48168912Y-52441412D01*
X48171413Y-52439121D01*
X48203194Y-52412455D01*
X48223938Y-52376523D01*
X48225761Y-52373662D01*
X48249554Y-52339684D01*
X48250624Y-52335689D01*
X48258521Y-52316624D01*
X48260588Y-52313045D01*
X48267788Y-52272204D01*
X48268532Y-52268853D01*
X48279263Y-52228807D01*
X48275648Y-52187499D01*
X48275499Y-52184069D01*
X48275499Y-51415929D01*
X48275648Y-51412500D01*
X48279263Y-51371193D01*
X48278192Y-51367195D01*
X48275500Y-51346749D01*
X48275500Y-51342605D01*
X48267973Y-51321926D01*
X48264410Y-51308630D01*
X48260588Y-51286955D01*
X48258516Y-51283368D01*
X48250623Y-51264308D01*
X48250105Y-51262374D01*
X48249554Y-51260316D01*
X48247179Y-51256924D01*
X48237654Y-51238627D01*
X48236240Y-51234740D01*
X48236238Y-51234738D01*
X48236238Y-51234737D01*
X48222096Y-51217883D01*
X48214197Y-51206603D01*
X48208076Y-51196001D01*
X48198692Y-51142782D01*
X48225712Y-51095983D01*
X48276492Y-51077501D01*
X48448090Y-51077501D01*
X48498870Y-51095983D01*
G37*
G04 #@! TD.AperFunction*
G04 #@! TA.AperFunction,Conductor*
G36*
X52618500Y-51580158D02*
G01*
X52636747Y-51590456D01*
X52663238Y-51610461D01*
X52667362Y-51614049D01*
X52928814Y-51875500D01*
X53110188Y-52056874D01*
X53117203Y-52066622D01*
X53117865Y-52066123D01*
X53122276Y-52071963D01*
X53122277Y-52071964D01*
X53122279Y-52071967D01*
X53140209Y-52088312D01*
X53155585Y-52102330D01*
X53156883Y-52103569D01*
X53170037Y-52116723D01*
X53173146Y-52118853D01*
X53177437Y-52122251D01*
X53199778Y-52142617D01*
X53209779Y-52146491D01*
X53225887Y-52154982D01*
X53234735Y-52161043D01*
X53234738Y-52161045D01*
X53234739Y-52161045D01*
X53234741Y-52161046D01*
X53246587Y-52163831D01*
X53264157Y-52167963D01*
X53269377Y-52169579D01*
X53297565Y-52180500D01*
X53308290Y-52180500D01*
X53326379Y-52182599D01*
X53336821Y-52185055D01*
X53366760Y-52180878D01*
X53372216Y-52180500D01*
X53954965Y-52180500D01*
X53974451Y-52182941D01*
X53992422Y-52187515D01*
X54085745Y-52211268D01*
X54125652Y-52235737D01*
X54157289Y-52271812D01*
X54230775Y-52308052D01*
X56006090Y-52783745D01*
X56050356Y-52814740D01*
X56064342Y-52866938D01*
X56061402Y-52882449D01*
X56005550Y-53071381D01*
X55601960Y-54262758D01*
X55568162Y-54304923D01*
X55515168Y-54315499D01*
X55467774Y-54289536D01*
X55448474Y-54244700D01*
X55448283Y-54242645D01*
X55448284Y-54242641D01*
X55427756Y-54021105D01*
X55366870Y-53807113D01*
X55267699Y-53607952D01*
X55133622Y-53430405D01*
X54969203Y-53280517D01*
X54873622Y-53221336D01*
X54780043Y-53163394D01*
X54780039Y-53163392D01*
X54572587Y-53083025D01*
X54572576Y-53083021D01*
X54353884Y-53042141D01*
X54131398Y-53042141D01*
X53912705Y-53083021D01*
X53912694Y-53083025D01*
X53705242Y-53163392D01*
X53705238Y-53163394D01*
X53516082Y-53280515D01*
X53516075Y-53280520D01*
X53351660Y-53430404D01*
X53296417Y-53503559D01*
X53217583Y-53607952D01*
X53217581Y-53607954D01*
X53217579Y-53607958D01*
X53118411Y-53807114D01*
X53057526Y-54021102D01*
X53036998Y-54242641D01*
X53047038Y-54350997D01*
X53033319Y-54403266D01*
X52989213Y-54434488D01*
X52935356Y-54430055D01*
X52912517Y-54414149D01*
X52518637Y-54020269D01*
X52495801Y-53971295D01*
X52495500Y-53964410D01*
X52495500Y-53745322D01*
X52497433Y-53733468D01*
X52496611Y-53733354D01*
X52497622Y-53726106D01*
X52495542Y-53681109D01*
X52495500Y-53679284D01*
X52495500Y-53660689D01*
X52495500Y-53660687D01*
X52494804Y-53656967D01*
X52494174Y-53651536D01*
X52492779Y-53621348D01*
X52492779Y-53621347D01*
X52488445Y-53611532D01*
X52483060Y-53594145D01*
X52481089Y-53583596D01*
X52480794Y-53583120D01*
X52474193Y-53572459D01*
X52465176Y-53557896D01*
X52462628Y-53553064D01*
X52450420Y-53525414D01*
X52450417Y-53525411D01*
X52450415Y-53525408D01*
X52442839Y-53517832D01*
X52431533Y-53503559D01*
X52425885Y-53494437D01*
X52425883Y-53494435D01*
X52401760Y-53476218D01*
X52397628Y-53472622D01*
X52353638Y-53428631D01*
X52330801Y-53379654D01*
X52330500Y-53372770D01*
X52330500Y-52228100D01*
X52348982Y-52177320D01*
X52360604Y-52167087D01*
X52360317Y-52166756D01*
X52364583Y-52163058D01*
X52364589Y-52163055D01*
X52454130Y-52059718D01*
X52510931Y-51935342D01*
X52530390Y-51800000D01*
X52510943Y-51664741D01*
X52522011Y-51611848D01*
X52564489Y-51578443D01*
X52618500Y-51580158D01*
G37*
G04 #@! TD.AperFunction*
G04 #@! TA.AperFunction,Conductor*
G36*
X51972387Y-48773464D02*
G01*
X52561361Y-49362438D01*
X52584199Y-49411414D01*
X52584500Y-49418299D01*
X52584500Y-49722398D01*
X52579165Y-49750937D01*
X52569500Y-49775884D01*
X52569500Y-49786607D01*
X52567402Y-49804694D01*
X52564944Y-49815141D01*
X52567186Y-49831211D01*
X52569121Y-49845082D01*
X52569500Y-49850535D01*
X52569500Y-51341357D01*
X52567567Y-51353211D01*
X52568389Y-51353326D01*
X52567377Y-51360575D01*
X52569458Y-51405570D01*
X52569500Y-51407395D01*
X52569500Y-51425994D01*
X52570194Y-51429706D01*
X52570824Y-51435144D01*
X52572019Y-51460974D01*
X52555902Y-51512554D01*
X52510400Y-51541706D01*
X52456805Y-51534791D01*
X52433401Y-51516359D01*
X52364589Y-51436945D01*
X52331887Y-51415929D01*
X52249565Y-51363024D01*
X52249562Y-51363023D01*
X52249561Y-51363022D01*
X52175777Y-51341357D01*
X52118368Y-51324500D01*
X52118367Y-51324500D01*
X51981633Y-51324500D01*
X51981632Y-51324500D01*
X51850439Y-51363022D01*
X51850434Y-51363024D01*
X51735411Y-51436944D01*
X51645870Y-51540281D01*
X51589068Y-51664659D01*
X51569610Y-51800000D01*
X51589068Y-51935340D01*
X51606695Y-51973937D01*
X51610977Y-52027807D01*
X51590695Y-52062616D01*
X50306952Y-53346361D01*
X50257976Y-53369199D01*
X50251091Y-53369500D01*
X49916020Y-53369500D01*
X49865240Y-53351018D01*
X49838220Y-53304218D01*
X49844159Y-53257682D01*
X49860757Y-53221338D01*
X49880216Y-53085996D01*
X49872685Y-53033621D01*
X49883752Y-52980730D01*
X49895021Y-52966518D01*
X49943222Y-52918318D01*
X49943222Y-52918317D01*
X49943224Y-52918316D01*
X49993972Y-52809487D01*
X50000500Y-52759901D01*
X50000499Y-52340100D01*
X50000444Y-52339684D01*
X49993973Y-52290517D01*
X49993971Y-52290511D01*
X49985442Y-52272221D01*
X49943224Y-52181684D01*
X49943223Y-52181683D01*
X49943221Y-52181680D01*
X49893570Y-52132029D01*
X49870732Y-52083053D01*
X49884718Y-52030855D01*
X49928984Y-51999860D01*
X49934016Y-51998686D01*
X49955231Y-51994467D01*
X49956105Y-51993882D01*
X49957413Y-51993562D01*
X49962419Y-51991489D01*
X49962737Y-51992259D01*
X50008594Y-51981034D01*
X50037546Y-51991571D01*
X50037581Y-51991489D01*
X50039480Y-51992276D01*
X50043893Y-51993882D01*
X50044769Y-51994467D01*
X50103252Y-52006100D01*
X50396748Y-52006100D01*
X50455231Y-51994467D01*
X50456105Y-51993882D01*
X50457413Y-51993562D01*
X50462419Y-51991489D01*
X50462737Y-51992259D01*
X50508594Y-51981034D01*
X50537546Y-51991571D01*
X50537580Y-51991489D01*
X50539458Y-51992267D01*
X50543893Y-51993881D01*
X50544770Y-51994467D01*
X50544769Y-51994467D01*
X50603253Y-52006100D01*
X50896749Y-52006100D01*
X50955232Y-51994467D01*
X51021553Y-51950152D01*
X51065868Y-51883831D01*
X51077501Y-51825348D01*
X51077501Y-51156500D01*
X51095983Y-51105721D01*
X51142783Y-51078701D01*
X51156501Y-51077501D01*
X51825348Y-51077501D01*
X51883831Y-51065868D01*
X51950152Y-51021553D01*
X51994467Y-50955232D01*
X52006100Y-50896749D01*
X52006100Y-50603253D01*
X51994467Y-50544770D01*
X51993881Y-50543893D01*
X51993559Y-50542577D01*
X51991489Y-50537580D01*
X51992257Y-50537261D01*
X51981034Y-50491404D01*
X51991571Y-50462453D01*
X51991489Y-50462419D01*
X51992275Y-50460520D01*
X51993882Y-50456106D01*
X51994467Y-50455231D01*
X52006100Y-50396748D01*
X52006100Y-50103252D01*
X51994467Y-50044769D01*
X51993882Y-50043894D01*
X51993562Y-50042586D01*
X51991489Y-50037581D01*
X51992259Y-50037262D01*
X51981034Y-49991406D01*
X51991571Y-49962453D01*
X51991489Y-49962419D01*
X51992276Y-49960519D01*
X51993882Y-49956106D01*
X51994467Y-49955231D01*
X52006100Y-49896748D01*
X52006100Y-49603252D01*
X51994467Y-49544769D01*
X51993881Y-49543892D01*
X51993559Y-49542576D01*
X51991489Y-49537579D01*
X51992257Y-49537260D01*
X51981034Y-49491403D01*
X51991571Y-49462452D01*
X51991489Y-49462418D01*
X51992275Y-49460519D01*
X51993882Y-49456105D01*
X51994467Y-49455230D01*
X52006100Y-49396747D01*
X52006100Y-49103251D01*
X51994467Y-49044768D01*
X51950152Y-48978447D01*
X51883831Y-48934132D01*
X51883830Y-48934131D01*
X51883829Y-48934131D01*
X51876644Y-48931155D01*
X51877476Y-48929144D01*
X51840407Y-48906649D01*
X51823038Y-48855477D01*
X51838301Y-48816227D01*
X51835575Y-48814475D01*
X51838625Y-48809724D01*
X51838632Y-48809718D01*
X51844664Y-48796508D01*
X51882572Y-48757994D01*
X51936366Y-48752857D01*
X51972387Y-48773464D01*
G37*
G04 #@! TD.AperFunction*
G04 #@! TA.AperFunction,Conductor*
G36*
X49065191Y-47543982D02*
G01*
X49070272Y-47548639D01*
X49098509Y-47576876D01*
X49105522Y-47586623D01*
X49106185Y-47586123D01*
X49110596Y-47591963D01*
X49110597Y-47591964D01*
X49110599Y-47591967D01*
X49131768Y-47611265D01*
X49143894Y-47622320D01*
X49145192Y-47623559D01*
X49155859Y-47634226D01*
X49158357Y-47636724D01*
X49161468Y-47638855D01*
X49165765Y-47642257D01*
X49188098Y-47662617D01*
X49189673Y-47663227D01*
X49198103Y-47666493D01*
X49214211Y-47674984D01*
X49223055Y-47681042D01*
X49223058Y-47681044D01*
X49252476Y-47687963D01*
X49257698Y-47689580D01*
X49285885Y-47700500D01*
X49296612Y-47700500D01*
X49314698Y-47702597D01*
X49325141Y-47705054D01*
X49325142Y-47705054D01*
X49330128Y-47704358D01*
X49355075Y-47700878D01*
X49360530Y-47700500D01*
X49480500Y-47700500D01*
X49531280Y-47718982D01*
X49558300Y-47765782D01*
X49559500Y-47779500D01*
X49559500Y-47953463D01*
X49541018Y-48004243D01*
X49524391Y-48019148D01*
X49478449Y-48049846D01*
X49434132Y-48116169D01*
X49422500Y-48174652D01*
X49422500Y-48925347D01*
X49434132Y-48983830D01*
X49434133Y-48983831D01*
X49478448Y-49050152D01*
X49544769Y-49094467D01*
X49544768Y-49094467D01*
X49603252Y-49106100D01*
X49896748Y-49106100D01*
X49955231Y-49094467D01*
X49956105Y-49093882D01*
X49957413Y-49093562D01*
X49962419Y-49091489D01*
X49962737Y-49092259D01*
X50008594Y-49081034D01*
X50037546Y-49091571D01*
X50037581Y-49091489D01*
X50039480Y-49092276D01*
X50043893Y-49093882D01*
X50044769Y-49094467D01*
X50103252Y-49106100D01*
X50396748Y-49106100D01*
X50455231Y-49094467D01*
X50456105Y-49093882D01*
X50457413Y-49093562D01*
X50462419Y-49091489D01*
X50462737Y-49092259D01*
X50508594Y-49081034D01*
X50537546Y-49091571D01*
X50537580Y-49091489D01*
X50539458Y-49092267D01*
X50543893Y-49093881D01*
X50544770Y-49094467D01*
X50544769Y-49094467D01*
X50603253Y-49106100D01*
X50814900Y-49106100D01*
X50865680Y-49124582D01*
X50892700Y-49171382D01*
X50893900Y-49185100D01*
X50893900Y-49396746D01*
X50905532Y-49455230D01*
X50905533Y-49455232D01*
X50906119Y-49456108D01*
X50906440Y-49457420D01*
X50908511Y-49462420D01*
X50907741Y-49462738D01*
X50918965Y-49508598D01*
X50908430Y-49537546D01*
X50908511Y-49537580D01*
X50907747Y-49539422D01*
X50906125Y-49543882D01*
X50905534Y-49544765D01*
X50905532Y-49544769D01*
X50893900Y-49603252D01*
X50893900Y-49896747D01*
X50905532Y-49955231D01*
X50905535Y-49955236D01*
X50906122Y-49956115D01*
X50906443Y-49957429D01*
X50908511Y-49962421D01*
X50907742Y-49962739D01*
X50918963Y-50008606D01*
X50908429Y-50037545D01*
X50908511Y-50037579D01*
X50907738Y-50039445D01*
X50906122Y-50043885D01*
X50905535Y-50044763D01*
X50905532Y-50044768D01*
X50893900Y-50103252D01*
X50893900Y-50396747D01*
X50905532Y-50455231D01*
X50905533Y-50455233D01*
X50906119Y-50456109D01*
X50906440Y-50457421D01*
X50908511Y-50462421D01*
X50907741Y-50462739D01*
X50918965Y-50508599D01*
X50908430Y-50537547D01*
X50908511Y-50537581D01*
X50907747Y-50539423D01*
X50906125Y-50543883D01*
X50905534Y-50544766D01*
X50905532Y-50544770D01*
X50893900Y-50603253D01*
X50893900Y-50814900D01*
X50875418Y-50865680D01*
X50828618Y-50892700D01*
X50814900Y-50893900D01*
X50603253Y-50893900D01*
X50544770Y-50905532D01*
X50544766Y-50905534D01*
X50543883Y-50906125D01*
X50542560Y-50906448D01*
X50537581Y-50908511D01*
X50537263Y-50907744D01*
X50491391Y-50918964D01*
X50462454Y-50908429D01*
X50462421Y-50908511D01*
X50460545Y-50907734D01*
X50456109Y-50906119D01*
X50455233Y-50905533D01*
X50455231Y-50905532D01*
X50396748Y-50893900D01*
X50103252Y-50893900D01*
X50044768Y-50905532D01*
X50044763Y-50905535D01*
X50043885Y-50906122D01*
X50042570Y-50906443D01*
X50037579Y-50908511D01*
X50037260Y-50907742D01*
X49991394Y-50918963D01*
X49962454Y-50908429D01*
X49962421Y-50908511D01*
X49960554Y-50907738D01*
X49956115Y-50906122D01*
X49955236Y-50905535D01*
X49955231Y-50905532D01*
X49896748Y-50893900D01*
X49603252Y-50893900D01*
X49544769Y-50905532D01*
X49544765Y-50905534D01*
X49543882Y-50906125D01*
X49542559Y-50906448D01*
X49537580Y-50908511D01*
X49537262Y-50907744D01*
X49491390Y-50918964D01*
X49462453Y-50908429D01*
X49462420Y-50908511D01*
X49460544Y-50907734D01*
X49456108Y-50906119D01*
X49455232Y-50905533D01*
X49455230Y-50905532D01*
X49396747Y-50893900D01*
X49185100Y-50893900D01*
X49134320Y-50875418D01*
X49107300Y-50828618D01*
X49106100Y-50814900D01*
X49106100Y-50603253D01*
X49094467Y-50544770D01*
X49093881Y-50543893D01*
X49093559Y-50542577D01*
X49091489Y-50537580D01*
X49092257Y-50537261D01*
X49081034Y-50491404D01*
X49091571Y-50462453D01*
X49091489Y-50462419D01*
X49092275Y-50460520D01*
X49093882Y-50456106D01*
X49094467Y-50455231D01*
X49106100Y-50396748D01*
X49106100Y-50103252D01*
X49094467Y-50044769D01*
X49093882Y-50043894D01*
X49093562Y-50042586D01*
X49091489Y-50037581D01*
X49092259Y-50037262D01*
X49081034Y-49991406D01*
X49091571Y-49962453D01*
X49091489Y-49962419D01*
X49092276Y-49960519D01*
X49093882Y-49956106D01*
X49094467Y-49955231D01*
X49106100Y-49896748D01*
X49106100Y-49603252D01*
X49094467Y-49544769D01*
X49093881Y-49543892D01*
X49093559Y-49542576D01*
X49091489Y-49537579D01*
X49092257Y-49537260D01*
X49081034Y-49491403D01*
X49091571Y-49462452D01*
X49091489Y-49462418D01*
X49092275Y-49460519D01*
X49093882Y-49456105D01*
X49094467Y-49455230D01*
X49106100Y-49396747D01*
X49106100Y-49103251D01*
X49094467Y-49044768D01*
X49050152Y-48978447D01*
X48994723Y-48941410D01*
X48962771Y-48897831D01*
X48966306Y-48843907D01*
X48995906Y-48809265D01*
X49002824Y-48804820D01*
X49092365Y-48701483D01*
X49149166Y-48577107D01*
X49168625Y-48441765D01*
X49149166Y-48306423D01*
X49092365Y-48182047D01*
X49002824Y-48078710D01*
X49002823Y-48078709D01*
X48887800Y-48004789D01*
X48887797Y-48004788D01*
X48887796Y-48004787D01*
X48813784Y-47983055D01*
X48756603Y-47966265D01*
X48756602Y-47966265D01*
X48714404Y-47966265D01*
X48663624Y-47947783D01*
X48636604Y-47900983D01*
X48635404Y-47887265D01*
X48635404Y-47774873D01*
X48653886Y-47724093D01*
X48658543Y-47719011D01*
X48828917Y-47548638D01*
X48877893Y-47525801D01*
X48884778Y-47525500D01*
X49014411Y-47525500D01*
X49065191Y-47543982D01*
G37*
G04 #@! TD.AperFunction*
G04 #@! TA.AperFunction,Conductor*
G36*
X48871280Y-44348982D02*
G01*
X48898300Y-44395782D01*
X48899500Y-44409500D01*
X48899500Y-46171089D01*
X48881018Y-46221869D01*
X48876363Y-46226949D01*
X48856953Y-46246360D01*
X48807977Y-46269199D01*
X48801090Y-46269500D01*
X48500539Y-46269500D01*
X48449759Y-46251018D01*
X48440835Y-46242234D01*
X48414589Y-46211945D01*
X48414588Y-46211944D01*
X48299565Y-46138024D01*
X48299562Y-46138023D01*
X48299561Y-46138022D01*
X48184541Y-46104249D01*
X48168368Y-46099500D01*
X48168367Y-46099500D01*
X48031633Y-46099500D01*
X48031632Y-46099500D01*
X47900439Y-46138022D01*
X47900434Y-46138024D01*
X47785411Y-46211944D01*
X47695870Y-46315281D01*
X47639068Y-46439659D01*
X47630487Y-46499342D01*
X47610669Y-46541324D01*
X47605515Y-46546977D01*
X47602158Y-46550247D01*
X47576885Y-46572098D01*
X47576883Y-46572100D01*
X47573547Y-46578379D01*
X47562174Y-46594521D01*
X47557385Y-46599775D01*
X47557382Y-46599779D01*
X47545313Y-46630934D01*
X47543362Y-46635198D01*
X47527684Y-46664711D01*
X47526843Y-46671763D01*
X47522067Y-46690938D01*
X47519500Y-46697565D01*
X47519500Y-46730978D01*
X47519222Y-46735661D01*
X47515264Y-46768839D01*
X47515264Y-46768843D01*
X47517027Y-46775720D01*
X47519500Y-46795332D01*
X47519500Y-47126861D01*
X47501018Y-47177641D01*
X47499642Y-47179143D01*
X47498180Y-47180903D01*
X47496038Y-47184030D01*
X47492645Y-47188312D01*
X47472287Y-47210646D01*
X47472285Y-47210649D01*
X47468409Y-47220653D01*
X47459923Y-47236753D01*
X47453859Y-47245605D01*
X47453858Y-47245606D01*
X47446940Y-47275024D01*
X47445320Y-47280255D01*
X47434404Y-47308431D01*
X47434404Y-47319155D01*
X47432306Y-47337242D01*
X47429848Y-47347689D01*
X47431606Y-47360282D01*
X47434025Y-47377630D01*
X47434404Y-47383083D01*
X47434404Y-47578542D01*
X47415922Y-47629322D01*
X47411265Y-47634403D01*
X46966390Y-48079277D01*
X46955187Y-48088582D01*
X46953738Y-48089574D01*
X46946147Y-48097165D01*
X46931885Y-48108462D01*
X46922757Y-48114114D01*
X46922755Y-48114117D01*
X46904541Y-48138235D01*
X46900946Y-48142366D01*
X46383121Y-48660190D01*
X46373373Y-48667209D01*
X46373872Y-48667869D01*
X46368032Y-48672279D01*
X46337678Y-48705574D01*
X46336420Y-48706892D01*
X46323274Y-48720038D01*
X46321134Y-48723162D01*
X46317741Y-48727444D01*
X46297383Y-48749778D01*
X46297381Y-48749781D01*
X46293505Y-48759785D01*
X46285019Y-48775885D01*
X46278955Y-48784737D01*
X46278954Y-48784738D01*
X46273607Y-48807472D01*
X46273081Y-48809714D01*
X46272036Y-48814156D01*
X46270416Y-48819387D01*
X46259500Y-48847563D01*
X46259500Y-48858287D01*
X46257401Y-48876377D01*
X46254528Y-48888590D01*
X46224908Y-48933789D01*
X46177627Y-48949500D01*
X44396858Y-48949500D01*
X44346078Y-48931018D01*
X44319058Y-48884218D01*
X44317859Y-48870511D01*
X44317859Y-48150007D01*
X44336342Y-48099227D01*
X44383141Y-48072207D01*
X44419115Y-48074206D01*
X44438413Y-48079873D01*
X44491632Y-48095500D01*
X44491633Y-48095500D01*
X44628368Y-48095500D01*
X44654877Y-48087716D01*
X44759561Y-48056978D01*
X44874589Y-47983055D01*
X44964130Y-47879718D01*
X45020931Y-47755342D01*
X45040390Y-47620000D01*
X45020931Y-47484658D01*
X44964130Y-47360282D01*
X44874589Y-47256945D01*
X44874588Y-47256944D01*
X44785101Y-47199435D01*
X44752374Y-47156433D01*
X44748811Y-47132976D01*
X44748811Y-46641336D01*
X44767293Y-46590556D01*
X44814093Y-46563536D01*
X44867311Y-46572920D01*
X44881028Y-46582950D01*
X45030797Y-46719483D01*
X45153298Y-46795332D01*
X45219956Y-46836605D01*
X45219960Y-46836607D01*
X45310959Y-46871860D01*
X45427419Y-46916977D01*
X45427421Y-46916977D01*
X45427423Y-46916978D01*
X45646116Y-46957859D01*
X45868601Y-46957859D01*
X45868602Y-46957859D01*
X46087299Y-46916977D01*
X46294760Y-46836606D01*
X46483921Y-46719483D01*
X46648340Y-46569595D01*
X46782417Y-46392048D01*
X46881588Y-46192887D01*
X46942474Y-45978895D01*
X46963002Y-45757359D01*
X46942474Y-45535823D01*
X46881588Y-45321831D01*
X46782417Y-45122670D01*
X46648340Y-44945123D01*
X46585548Y-44887880D01*
X46560474Y-44840013D01*
X46572034Y-44787224D01*
X46614822Y-44754218D01*
X46638771Y-44750500D01*
X47644355Y-44750500D01*
X47695135Y-44768982D01*
X47716216Y-44796683D01*
X47735868Y-44839716D01*
X47751939Y-44858263D01*
X47825411Y-44943055D01*
X47940439Y-45016978D01*
X48041853Y-45046756D01*
X48071632Y-45055500D01*
X48071633Y-45055500D01*
X48208368Y-45055500D01*
X48232637Y-45048373D01*
X48339561Y-45016978D01*
X48454589Y-44943055D01*
X48544130Y-44839718D01*
X48600931Y-44715342D01*
X48620390Y-44580000D01*
X48600931Y-44444658D01*
X48599861Y-44442317D01*
X48599720Y-44440534D01*
X48599340Y-44439240D01*
X48599610Y-44439160D01*
X48595579Y-44388449D01*
X48626925Y-44344430D01*
X48671723Y-44330500D01*
X48820500Y-44330500D01*
X48871280Y-44348982D01*
G37*
G04 #@! TD.AperFunction*
M02*
