G04 #@! TF.GenerationSoftware,KiCad,Pcbnew,7.0.7*
G04 #@! TF.CreationDate,2024-01-02T23:41:36-05:00*
G04 #@! TF.ProjectId,O12encoder,4f313265-6e63-46f6-9465-722e6b696361,1*
G04 #@! TF.SameCoordinates,Original*
G04 #@! TF.FileFunction,Copper,L2,Bot*
G04 #@! TF.FilePolarity,Positive*
%FSLAX46Y46*%
G04 Gerber Fmt 4.6, Leading zero omitted, Abs format (unit mm)*
G04 Created by KiCad (PCBNEW 7.0.7) date 2024-01-02 23:41:36*
%MOMM*%
%LPD*%
G01*
G04 APERTURE LIST*
G04 Aperture macros list*
%AMRoundRect*
0 Rectangle with rounded corners*
0 $1 Rounding radius*
0 $2 $3 $4 $5 $6 $7 $8 $9 X,Y pos of 4 corners*
0 Add a 4 corners polygon primitive as box body*
4,1,4,$2,$3,$4,$5,$6,$7,$8,$9,$2,$3,0*
0 Add four circle primitives for the rounded corners*
1,1,$1+$1,$2,$3*
1,1,$1+$1,$4,$5*
1,1,$1+$1,$6,$7*
1,1,$1+$1,$8,$9*
0 Add four rect primitives between the rounded corners*
20,1,$1+$1,$2,$3,$4,$5,0*
20,1,$1+$1,$4,$5,$6,$7,0*
20,1,$1+$1,$6,$7,$8,$9,0*
20,1,$1+$1,$8,$9,$2,$3,0*%
%AMFreePoly0*
4,1,6,0.325000,0.000000,0.175000,-0.150000,-0.175000,-0.150000,-0.175000,0.150000,0.325000,0.150000,0.325000,0.000000,0.325000,0.000000,$1*%
%AMFreePoly1*
4,1,6,0.325000,0.000000,0.325000,-0.150000,-0.175000,-0.150000,-0.175000,0.150000,0.175000,0.150000,0.325000,0.000000,0.325000,0.000000,$1*%
%AMFreePoly2*
4,1,6,0.150000,-0.325000,0.000000,-0.325000,-0.150000,-0.175000,-0.150000,0.175000,0.150000,0.175000,0.150000,-0.325000,0.150000,-0.325000,$1*%
%AMFreePoly3*
4,1,6,0.150000,-0.175000,0.000000,-0.325000,-0.150000,-0.325000,-0.150000,0.175000,0.150000,0.175000,0.150000,-0.175000,0.150000,-0.175000,$1*%
%AMFreePoly4*
4,1,7,0.175000,-0.150000,-0.175000,-0.150000,-0.325000,-0.150000,-0.325000,0.000000,-0.175000,0.150000,0.175000,0.150000,0.175000,-0.150000,0.175000,-0.150000,$1*%
%AMFreePoly5*
4,1,6,0.175000,-0.150000,-0.175000,-0.150000,-0.325000,0.000000,-0.325000,0.150000,0.175000,0.150000,0.175000,-0.150000,0.175000,-0.150000,$1*%
%AMFreePoly6*
4,1,6,0.150000,0.175000,0.150000,-0.175000,-0.150000,-0.175000,-0.150000,0.325000,0.000000,0.325000,0.150000,0.175000,0.150000,0.175000,$1*%
%AMFreePoly7*
4,1,6,0.150000,-0.175000,-0.150000,-0.175000,-0.150000,0.175000,0.000000,0.325000,0.150000,0.325000,0.150000,-0.175000,0.150000,-0.175000,$1*%
G04 Aperture macros list end*
G04 #@! TA.AperFunction,SMDPad,CuDef*
%ADD10RoundRect,0.075000X0.311852X-0.874070X-0.166963X0.912893X-0.311852X0.874070X0.166963X-0.912893X0*%
G04 #@! TD*
G04 #@! TA.AperFunction,SMDPad,CuDef*
%ADD11RoundRect,0.050000X0.100000X-0.285000X0.100000X0.285000X-0.100000X0.285000X-0.100000X-0.285000X0*%
G04 #@! TD*
G04 #@! TA.AperFunction,SMDPad,CuDef*
%ADD12RoundRect,0.150000X-0.600000X0.150000X-0.600000X-0.150000X0.600000X-0.150000X0.600000X0.150000X0*%
G04 #@! TD*
G04 #@! TA.AperFunction,SMDPad,CuDef*
%ADD13RoundRect,0.150000X-0.594615X-0.170096X-0.444615X-0.429904X0.594615X0.170096X0.444615X0.429904X0*%
G04 #@! TD*
G04 #@! TA.AperFunction,SMDPad,CuDef*
%ADD14RoundRect,0.140000X0.021213X-0.219203X0.219203X-0.021213X-0.021213X0.219203X-0.219203X0.021213X0*%
G04 #@! TD*
G04 #@! TA.AperFunction,SMDPad,CuDef*
%ADD15RoundRect,0.140000X0.140000X0.170000X-0.140000X0.170000X-0.140000X-0.170000X0.140000X-0.170000X0*%
G04 #@! TD*
G04 #@! TA.AperFunction,SMDPad,CuDef*
%ADD16RoundRect,0.075000X-0.912893X0.166963X0.874070X-0.311852X0.912893X-0.166963X-0.874070X0.311852X0*%
G04 #@! TD*
G04 #@! TA.AperFunction,SMDPad,CuDef*
%ADD17RoundRect,0.075000X0.925000X0.075000X-0.925000X0.075000X-0.925000X-0.075000X0.925000X-0.075000X0*%
G04 #@! TD*
G04 #@! TA.AperFunction,SMDPad,CuDef*
%ADD18FreePoly0,270.000000*%
G04 #@! TD*
G04 #@! TA.AperFunction,SMDPad,CuDef*
%ADD19R,0.300000X0.700000*%
G04 #@! TD*
G04 #@! TA.AperFunction,SMDPad,CuDef*
%ADD20FreePoly1,270.000000*%
G04 #@! TD*
G04 #@! TA.AperFunction,SMDPad,CuDef*
%ADD21FreePoly2,270.000000*%
G04 #@! TD*
G04 #@! TA.AperFunction,SMDPad,CuDef*
%ADD22R,0.700000X0.300000*%
G04 #@! TD*
G04 #@! TA.AperFunction,SMDPad,CuDef*
%ADD23FreePoly3,270.000000*%
G04 #@! TD*
G04 #@! TA.AperFunction,SMDPad,CuDef*
%ADD24FreePoly4,270.000000*%
G04 #@! TD*
G04 #@! TA.AperFunction,SMDPad,CuDef*
%ADD25FreePoly5,270.000000*%
G04 #@! TD*
G04 #@! TA.AperFunction,SMDPad,CuDef*
%ADD26FreePoly6,270.000000*%
G04 #@! TD*
G04 #@! TA.AperFunction,SMDPad,CuDef*
%ADD27FreePoly7,270.000000*%
G04 #@! TD*
G04 #@! TA.AperFunction,SMDPad,CuDef*
%ADD28R,0.600000X1.550000*%
G04 #@! TD*
G04 #@! TA.AperFunction,SMDPad,CuDef*
%ADD29R,1.200000X1.800000*%
G04 #@! TD*
G04 #@! TA.AperFunction,ViaPad*
%ADD30C,0.550000*%
G04 #@! TD*
G04 #@! TA.AperFunction,Conductor*
%ADD31C,0.160000*%
G04 #@! TD*
G04 #@! TA.AperFunction,Conductor*
%ADD32C,0.250000*%
G04 #@! TD*
G04 #@! TA.AperFunction,Conductor*
%ADD33C,0.200000*%
G04 #@! TD*
G04 APERTURE END LIST*
D10*
X52665925Y-55075000D03*
X52182962Y-55204410D03*
X51699999Y-55333819D03*
X51217036Y-55463229D03*
X50734073Y-55592638D03*
X50251110Y-55722048D03*
D11*
X49050000Y-50840000D03*
X48550000Y-50840000D03*
X48050000Y-50840000D03*
X47550000Y-50840000D03*
X47550000Y-49360000D03*
X48050000Y-49360000D03*
X48550000Y-49360000D03*
X49050000Y-49360000D03*
D12*
X45450000Y-52700000D03*
D13*
X55130000Y-47030000D03*
D14*
X52960589Y-48739411D03*
X53639411Y-48060589D03*
D15*
X49030000Y-53150000D03*
X48070000Y-53150000D03*
D16*
X55011771Y-52648888D03*
X55141181Y-52165925D03*
X55270590Y-51682962D03*
X55400000Y-51199999D03*
X55529409Y-50717036D03*
X55658819Y-50234073D03*
D12*
X45450000Y-51700000D03*
D17*
X45600000Y-48200000D03*
X45600000Y-48700000D03*
X45600000Y-49200000D03*
X45600000Y-49700000D03*
X45600000Y-50200000D03*
X45600000Y-50700000D03*
D18*
X50450000Y-50275000D03*
D19*
X50950000Y-50450000D03*
X51450000Y-50450000D03*
X51950000Y-50450000D03*
D20*
X52450000Y-50275000D03*
D21*
X52925000Y-50750000D03*
D22*
X52750000Y-51250000D03*
X52750000Y-51750000D03*
X52750000Y-52250000D03*
D23*
X52925000Y-52750000D03*
D24*
X52450000Y-53225000D03*
D19*
X51950000Y-53050000D03*
X51450000Y-53050000D03*
X50950000Y-53050000D03*
D25*
X50450000Y-53225000D03*
D26*
X49975000Y-52750000D03*
D22*
X50150000Y-52250000D03*
X50150000Y-51750000D03*
X50150000Y-51250000D03*
D27*
X49975000Y-50750000D03*
D28*
X49700000Y-48775000D03*
X50700000Y-48775000D03*
D29*
X48400000Y-44900000D03*
X52000000Y-44900000D03*
D30*
X48100000Y-46575000D03*
X50500000Y-47200000D03*
X51619099Y-46344033D03*
X53983176Y-48755199D03*
X46650000Y-51400000D03*
X49650000Y-54850000D03*
X48688235Y-48441765D03*
X49399826Y-53085996D03*
X56190000Y-50220000D03*
X47350000Y-53700000D03*
X49735946Y-50650000D03*
X51310119Y-51840240D03*
X53943807Y-52783807D03*
X48335500Y-52797000D03*
X46373787Y-48199253D03*
X52350000Y-49600000D03*
X48950000Y-47760000D03*
X55600000Y-53250000D03*
X47100000Y-46530000D03*
X51700000Y-53900000D03*
X54050000Y-50300000D03*
X52500000Y-47550000D03*
X51434502Y-48550000D03*
X53550000Y-51200000D03*
X52500000Y-46450000D03*
X52050000Y-51800000D03*
X49480000Y-46760000D03*
X44560000Y-47620000D03*
X48140000Y-44580000D03*
X53939500Y-47215902D03*
D31*
X50500000Y-47200000D02*
X50267452Y-47200000D01*
X49511680Y-47450000D02*
X49306680Y-47245000D01*
X48770000Y-47245000D02*
X48100000Y-46575000D01*
X50017452Y-47450000D02*
X49511680Y-47450000D01*
X49306680Y-47245000D02*
X48770000Y-47245000D01*
X50267452Y-47200000D02*
X50017452Y-47450000D01*
X51820000Y-49860000D02*
X51820000Y-49382548D01*
D32*
X50930000Y-46080000D02*
X51194033Y-46344033D01*
X48688235Y-48441765D02*
X49050000Y-48900000D01*
D31*
X50604663Y-55722048D02*
X50734073Y-55592638D01*
D32*
X51030000Y-53820000D02*
X49900000Y-53820000D01*
X47260000Y-45770000D02*
X47530000Y-46040000D01*
D31*
X49709347Y-54850000D02*
X50251111Y-55391764D01*
D32*
X48395623Y-48441765D02*
X48561765Y-48441765D01*
D31*
X49290000Y-46040000D02*
X47530000Y-46040000D01*
X47260000Y-47306142D02*
X46998611Y-47044753D01*
D32*
X47520000Y-53870000D02*
X48615822Y-53870000D01*
D31*
X51820000Y-49382548D02*
X52463137Y-48739411D01*
X46998611Y-47044753D02*
X45171461Y-47044753D01*
D32*
X53967388Y-48739411D02*
X52960589Y-48739411D01*
X48615822Y-53870000D02*
X49399826Y-53085996D01*
D31*
X47350000Y-53700000D02*
X47520000Y-53870000D01*
D32*
X49330000Y-46080000D02*
X50930000Y-46080000D01*
D31*
X52463137Y-48739411D02*
X52960589Y-48739411D01*
D32*
X49900000Y-53820000D02*
X49230000Y-53150000D01*
X44310000Y-46380000D02*
X44310000Y-45160000D01*
D31*
X51900000Y-50300000D02*
X51900000Y-49940000D01*
X49650000Y-54850000D02*
X49709347Y-54850000D01*
X49330000Y-46080000D02*
X49290000Y-46040000D01*
X50251110Y-55722048D02*
X50604663Y-55722048D01*
D32*
X44630000Y-46700000D02*
X44310000Y-46380000D01*
D31*
X48561765Y-48441765D02*
X48688235Y-48441765D01*
X46650000Y-51400000D02*
X45950000Y-50700000D01*
D32*
X47260000Y-47306142D02*
X48395623Y-48441765D01*
D31*
X51900000Y-49940000D02*
X51820000Y-49860000D01*
X49094004Y-53085996D02*
X49030000Y-53150000D01*
D32*
X44310000Y-45160000D02*
X45110000Y-44360000D01*
D31*
X51450000Y-53400000D02*
X51030000Y-53820000D01*
X45600000Y-50200000D02*
X45600000Y-50700000D01*
D32*
X46650000Y-44360000D02*
X47260000Y-44970000D01*
X51194033Y-46344033D02*
X51619099Y-46344033D01*
X45110000Y-44360000D02*
X46650000Y-44360000D01*
D31*
X49399826Y-53085996D02*
X49094004Y-53085996D01*
X50251111Y-55391764D02*
X50251111Y-55722048D01*
X45171461Y-47044753D02*
X44826708Y-46700000D01*
X53983176Y-48755199D02*
X53967388Y-48739411D01*
X45950000Y-50700000D02*
X45600000Y-50700000D01*
X44826708Y-46700000D02*
X44630000Y-46700000D01*
X51450000Y-53050000D02*
X51450000Y-53400000D01*
D32*
X47260000Y-44970000D02*
X47260000Y-45770000D01*
X49050000Y-48900000D02*
X49050000Y-49360000D01*
D31*
X51359760Y-51840240D02*
X51550000Y-51650000D01*
X50950000Y-50450000D02*
X50950000Y-50589412D01*
X47886680Y-47090000D02*
X47585000Y-46788320D01*
X53430000Y-49600000D02*
X52350000Y-49600000D01*
X47370000Y-46530000D02*
X47100000Y-46530000D01*
X50075000Y-50850000D02*
X49975000Y-50750000D01*
X53759801Y-49270199D02*
X53430000Y-49600000D01*
X54498176Y-48398176D02*
X54498176Y-48968519D01*
X47260000Y-49360000D02*
X46600000Y-48700000D01*
X45600000Y-48200000D02*
X46373040Y-48200000D01*
X55011771Y-52648888D02*
X54078726Y-52648888D01*
X48070000Y-53150000D02*
X48070000Y-53062500D01*
X50950000Y-50450000D02*
X50950000Y-51480121D01*
X53940000Y-47740000D02*
X54498176Y-48398176D01*
X50950000Y-50589412D02*
X50689412Y-50850000D01*
X51700000Y-53900000D02*
X51700000Y-53690000D01*
X47585000Y-46788320D02*
X47585000Y-46745000D01*
X54196496Y-49270199D02*
X53759801Y-49270199D01*
X51700000Y-53690000D02*
X51950000Y-53440000D01*
X47930000Y-47090000D02*
X47886680Y-47090000D01*
X53639411Y-48060589D02*
X53940000Y-47740000D01*
X54078726Y-52648888D02*
X53943807Y-52783807D01*
X46600000Y-48700000D02*
X45600000Y-48700000D01*
X51310119Y-51840240D02*
X51359760Y-51840240D01*
X48950000Y-47760000D02*
X48600000Y-47760000D01*
X48600000Y-47760000D02*
X47930000Y-47090000D01*
X51950000Y-53440000D02*
X51950000Y-53050000D01*
X50950000Y-51480121D02*
X51310119Y-51840240D01*
X55011771Y-52648888D02*
X55011771Y-52661771D01*
X54498176Y-48968519D02*
X54196496Y-49270199D01*
X49975000Y-50750000D02*
X49825604Y-50750000D01*
X48070000Y-53062500D02*
X48335500Y-52797000D01*
X46373040Y-48200000D02*
X46373787Y-48199253D01*
X49825604Y-50750000D02*
X49735946Y-50660342D01*
X50689412Y-50850000D02*
X50075000Y-50850000D01*
X47550000Y-49360000D02*
X47260000Y-49360000D01*
X51550000Y-51650000D02*
X51550000Y-51500000D01*
X47585000Y-46745000D02*
X47370000Y-46530000D01*
X45600000Y-48700000D02*
X45600000Y-48200000D01*
X55011771Y-52661771D02*
X55600000Y-53250000D01*
X54050000Y-50300000D02*
X54100000Y-50350000D01*
X52500000Y-47550000D02*
X51434502Y-48760066D01*
X53250000Y-52750000D02*
X53800000Y-52200000D01*
X53800000Y-52200000D02*
X54200000Y-50850000D01*
X54200000Y-50850000D02*
X54050000Y-50300000D01*
X51434502Y-48760066D02*
X51434502Y-48760648D01*
X52925000Y-52750000D02*
X53250000Y-52750000D01*
X53340000Y-52170000D02*
X53340000Y-51410000D01*
X52750000Y-52250000D02*
X53260000Y-52250000D01*
X53260000Y-52250000D02*
X53340000Y-52170000D01*
X53340000Y-51410000D02*
X53550000Y-51200000D01*
X49565000Y-46685000D02*
X51015000Y-46685000D01*
X52067452Y-46680000D02*
X52170000Y-46680000D01*
X51280000Y-46950000D02*
X51797452Y-46950000D01*
X52170000Y-46680000D02*
X52500000Y-46450000D01*
X51797452Y-46950000D02*
X52067452Y-46680000D01*
X51015000Y-46685000D02*
X51280000Y-46950000D01*
X52750000Y-51750000D02*
X52050000Y-51800000D01*
X49480000Y-46760000D02*
X49565000Y-46685000D01*
D33*
X49050000Y-51027500D02*
X49222500Y-51200000D01*
X49222500Y-51250000D02*
X50200000Y-51250000D01*
X49278406Y-51622500D02*
X47821594Y-51622500D01*
X50200000Y-51750000D02*
X49355906Y-51750000D01*
X49355906Y-51700000D02*
X49278406Y-51622500D01*
X47550000Y-51350906D02*
X47550000Y-51027500D01*
X47821594Y-51622500D02*
X47550000Y-51350906D01*
D31*
X48550000Y-50544878D02*
X48839878Y-50255000D01*
X49402670Y-50255000D02*
X49547670Y-50110000D01*
X48550000Y-50840000D02*
X48550000Y-50544878D01*
X48839878Y-50255000D02*
X49402670Y-50255000D01*
X50335000Y-50110000D02*
X50400000Y-50175000D01*
X49547670Y-50110000D02*
X50335000Y-50110000D01*
X48050000Y-50840000D02*
X48550000Y-50840000D01*
X52410000Y-45310000D02*
X52000000Y-44900000D01*
X48050000Y-49655122D02*
X48050000Y-49360000D01*
X47810000Y-54300000D02*
X50900000Y-54300000D01*
X44450000Y-54727550D02*
X44615578Y-55039379D01*
X44900000Y-55300000D02*
X45241139Y-55536074D01*
X44400000Y-53060093D02*
X44400000Y-54026747D01*
X46175000Y-55500000D02*
X46610000Y-55500000D01*
X56650000Y-51550000D02*
X57340000Y-48980000D01*
X57340000Y-48980000D02*
X57450000Y-48630000D01*
X45600000Y-49750000D02*
X44500000Y-49750000D01*
X49700000Y-48775000D02*
X49700000Y-48220000D01*
X44357359Y-53017452D02*
X44400000Y-53060093D01*
X55069965Y-44469965D02*
X56600000Y-46700000D01*
X53707631Y-44469965D02*
X55069965Y-44469965D01*
X45241139Y-55536074D02*
X45725000Y-55550000D01*
X57470000Y-48300000D02*
X57350000Y-47850000D01*
X44400000Y-54026747D02*
X44450000Y-54076747D01*
X44450000Y-54727550D02*
X44457755Y-54752690D01*
X46610000Y-55500000D02*
X47810000Y-54300000D01*
X49700000Y-48220000D02*
X50160000Y-47760000D01*
X47770122Y-49935000D02*
X48050000Y-49655122D01*
X52907186Y-47000000D02*
X53100000Y-46807186D01*
X44615578Y-55039379D02*
X44900000Y-55300000D01*
X50160000Y-47760000D02*
X51440000Y-47760000D01*
X53100000Y-46807186D02*
X53100000Y-46341264D01*
X57350000Y-47850000D02*
X57050000Y-47320000D01*
X57050000Y-47320000D02*
X56600000Y-46700000D01*
X52200000Y-47000000D02*
X52907186Y-47000000D01*
X51440000Y-47760000D02*
X52200000Y-47000000D01*
X46669875Y-47684753D02*
X48050000Y-49064878D01*
X57450000Y-48630000D02*
X57470000Y-48300000D01*
X44500000Y-49750000D02*
X44357359Y-49892641D01*
X53100000Y-46341264D02*
X52953593Y-46194857D01*
X52000000Y-44900000D02*
X48400000Y-44900000D01*
X44560000Y-47620000D02*
X44714753Y-47684753D01*
X45725000Y-55550000D02*
X46175000Y-55500000D01*
X44357359Y-49892641D02*
X44357359Y-53017452D01*
X47035000Y-49935000D02*
X47770122Y-49935000D01*
X52953593Y-45310000D02*
X52953593Y-45224003D01*
X50900000Y-54300000D02*
X51217037Y-55463229D01*
X44714753Y-47684753D02*
X46669875Y-47684753D01*
X44450000Y-54076747D02*
X44450000Y-54727550D01*
X46800000Y-49700000D02*
X47035000Y-49935000D01*
X45600000Y-49700000D02*
X46800000Y-49700000D01*
X52953593Y-46194857D02*
X52953593Y-45310000D01*
X56650000Y-51550000D02*
X55400000Y-51200000D01*
X52953593Y-45224003D02*
X53707631Y-44469965D01*
X48050000Y-49064878D02*
X48050000Y-49360000D01*
X52953593Y-45310000D02*
X52410000Y-45310000D01*
X52050000Y-56550000D02*
X53300000Y-56225000D01*
X45800000Y-49250000D02*
X44400000Y-49250000D01*
X44037359Y-54116654D02*
X44083396Y-54162691D01*
X44589499Y-55501290D02*
X44792231Y-55662964D01*
X44159041Y-54869929D02*
X44270389Y-55101142D01*
X48270122Y-48785000D02*
X48222670Y-48785000D01*
X49415122Y-49790000D02*
X50580000Y-49790000D01*
X44769160Y-47095000D02*
X44205000Y-47095000D01*
X50050000Y-57100000D02*
X52050000Y-56550000D01*
X44792231Y-55662964D02*
X45150000Y-55856074D01*
X48635000Y-49935000D02*
X49270122Y-49935000D01*
X48550000Y-49850000D02*
X48635000Y-49935000D01*
X56525000Y-52000000D02*
X55270590Y-51682963D01*
X44083396Y-54162691D02*
X44083396Y-54624706D01*
X44037359Y-49612641D02*
X44037359Y-54116654D01*
X44037359Y-48887359D02*
X44400000Y-49250000D01*
X48222670Y-48785000D02*
X46802423Y-47364753D01*
X53300000Y-56225000D02*
X53650000Y-56075000D01*
X50700000Y-49670000D02*
X50700000Y-48775000D01*
X55600000Y-55225000D02*
X55900000Y-54450000D01*
X46729127Y-55900000D02*
X47929127Y-57100000D01*
X44414949Y-55313171D02*
X44589499Y-55501290D01*
X44205000Y-47095000D02*
X44037359Y-47262641D01*
X54577598Y-55855486D02*
X55125000Y-55600000D01*
X44270389Y-55101142D02*
X44414949Y-55313171D01*
X51700000Y-55300000D02*
X52050000Y-56550000D01*
X45038913Y-47364753D02*
X44769160Y-47095000D01*
X44083396Y-54624706D02*
X44159041Y-54869929D01*
X48550000Y-49360000D02*
X48550000Y-49064878D01*
X44037359Y-47262641D02*
X44037359Y-48887359D01*
X45150000Y-55856074D02*
X45193926Y-55900000D01*
X48550000Y-49360000D02*
X48550000Y-49850000D01*
X46802423Y-47364753D02*
X45038913Y-47364753D01*
X47929127Y-57100000D02*
X50050000Y-57100000D01*
X53650000Y-56075000D02*
X54577598Y-55855486D01*
X48550000Y-49064878D02*
X48270122Y-48785000D01*
X49270122Y-49935000D02*
X49415122Y-49790000D01*
X50580000Y-49790000D02*
X50700000Y-49670000D01*
X55900000Y-54450000D02*
X56525000Y-52000000D01*
X45193926Y-55900000D02*
X46729127Y-55900000D01*
X44400000Y-49250000D02*
X44037359Y-49612641D01*
X55125000Y-55600000D02*
X55600000Y-55225000D01*
X49087573Y-51962500D02*
X45712500Y-51962500D01*
X45712500Y-51962500D02*
X45450000Y-51700000D01*
X50100000Y-52200000D02*
X49325073Y-52200000D01*
X49325073Y-52200000D02*
X49087573Y-51962500D01*
X45967500Y-52282500D02*
X45550000Y-52700000D01*
X45550000Y-52650000D02*
X45450000Y-52750000D01*
X49560000Y-52520000D02*
X49192525Y-52520000D01*
X49925000Y-52700000D02*
X49740000Y-52700000D01*
X49740000Y-52700000D02*
X49560000Y-52520000D01*
X49192525Y-52520000D02*
X48955025Y-52282500D01*
X48955025Y-52282500D02*
X45967500Y-52282500D01*
X51500000Y-49250000D02*
X52451523Y-48298477D01*
X52451523Y-48298477D02*
X52624411Y-48298477D01*
X51400000Y-50300000D02*
X51500000Y-50200000D01*
X51500000Y-50200000D02*
X51500000Y-49250000D01*
X53706986Y-47215902D02*
X53939500Y-47215902D01*
X52624411Y-48298477D02*
X53706986Y-47215902D01*
X56680000Y-47355000D02*
X56680000Y-47400000D01*
X55213934Y-49590199D02*
X55358215Y-49734480D01*
X52450000Y-50275000D02*
X53207548Y-50275000D01*
X56620000Y-49620000D02*
X56950000Y-49090000D01*
X55860844Y-49734480D02*
X56085912Y-49700000D01*
X56335000Y-47010000D02*
X56680000Y-47355000D01*
X56950000Y-49090000D02*
X57130000Y-48540000D01*
X56085912Y-49700000D02*
X56540000Y-49700000D01*
X53892349Y-49590199D02*
X55213934Y-49590199D01*
X53207548Y-50275000D02*
X53892349Y-49590199D01*
X57130000Y-48540000D02*
X57020000Y-47920000D01*
X55150000Y-47010000D02*
X56335000Y-47010000D01*
X56540000Y-49700000D02*
X56620000Y-49620000D01*
X55358215Y-49734480D02*
X55860844Y-49734480D01*
X57020000Y-47920000D02*
X56680000Y-47400000D01*
G04 #@! TA.AperFunction,Conductor*
G36*
X51197565Y-49737641D02*
G01*
X51219331Y-49787103D01*
X51219500Y-49792272D01*
X51219500Y-49870422D01*
X51201018Y-49921202D01*
X51184392Y-49936107D01*
X51155448Y-49955447D01*
X51111132Y-50021769D01*
X51099500Y-50080252D01*
X51099500Y-50819747D01*
X51111132Y-50878230D01*
X51111133Y-50878231D01*
X51155448Y-50944552D01*
X51221769Y-50988867D01*
X51221768Y-50988867D01*
X51280252Y-51000500D01*
X51619747Y-51000500D01*
X51619748Y-51000500D01*
X51678231Y-50988867D01*
X51678232Y-50988865D01*
X51684586Y-50987602D01*
X51715411Y-50987602D01*
X51721768Y-50988866D01*
X51721769Y-50988867D01*
X51780252Y-51000500D01*
X52120500Y-51000500D01*
X52171280Y-51018982D01*
X52198300Y-51065782D01*
X52199500Y-51079500D01*
X52199499Y-51245500D01*
X52181016Y-51296281D01*
X52134217Y-51323300D01*
X52120499Y-51324500D01*
X51981632Y-51324500D01*
X51850439Y-51363022D01*
X51850434Y-51363024D01*
X51735411Y-51436944D01*
X51645870Y-51540281D01*
X51589068Y-51664659D01*
X51569610Y-51800000D01*
X51589068Y-51935340D01*
X51625636Y-52015413D01*
X51645870Y-52059718D01*
X51735411Y-52163055D01*
X51850439Y-52236978D01*
X51944852Y-52264700D01*
X51981632Y-52275500D01*
X52120500Y-52275500D01*
X52171280Y-52293982D01*
X52198300Y-52340782D01*
X52199499Y-52354495D01*
X52199500Y-52419748D01*
X52201387Y-52429236D01*
X52211132Y-52478230D01*
X52211133Y-52478231D01*
X52255448Y-52544552D01*
X52281256Y-52561796D01*
X52313210Y-52605375D01*
X52309676Y-52659298D01*
X52272308Y-52698335D01*
X52252780Y-52704964D01*
X52221769Y-52711133D01*
X52155448Y-52755448D01*
X52111132Y-52821769D01*
X52095572Y-52900000D01*
X52095572Y-53399999D01*
X52111132Y-53478230D01*
X52111133Y-53478231D01*
X52155448Y-53544552D01*
X52221769Y-53588867D01*
X52221768Y-53588867D01*
X52300000Y-53604428D01*
X52600000Y-53604428D01*
X52678231Y-53588867D01*
X52744552Y-53544552D01*
X52788867Y-53478231D01*
X52804428Y-53400000D01*
X52804428Y-53183428D01*
X52822910Y-53132648D01*
X52869710Y-53105628D01*
X52883428Y-53104428D01*
X53100000Y-53104428D01*
X53178231Y-53088867D01*
X53178233Y-53088866D01*
X53226696Y-53056483D01*
X53244552Y-53044552D01*
X53244552Y-53044551D01*
X53247977Y-53042263D01*
X53288220Y-53029032D01*
X53315333Y-53027779D01*
X53325145Y-53023446D01*
X53342540Y-53018060D01*
X53344138Y-53017761D01*
X53353084Y-53016089D01*
X53378784Y-53000174D01*
X53383611Y-52997630D01*
X53411266Y-52985421D01*
X53418852Y-52977834D01*
X53433119Y-52966532D01*
X53442245Y-52960883D01*
X53460464Y-52936755D01*
X53464047Y-52932638D01*
X53967453Y-52429232D01*
X53982455Y-52417481D01*
X53989944Y-52412957D01*
X54009483Y-52387656D01*
X54012806Y-52383880D01*
X54016723Y-52379964D01*
X54026269Y-52366025D01*
X54027582Y-52364224D01*
X54040196Y-52347893D01*
X54054047Y-52329961D01*
X54054048Y-52329956D01*
X54057381Y-52323443D01*
X54057781Y-52323647D01*
X54058497Y-52322144D01*
X54058085Y-52321962D01*
X54061039Y-52315269D01*
X54061044Y-52315262D01*
X54070396Y-52275500D01*
X54070958Y-52273113D01*
X54071536Y-52270935D01*
X54081598Y-52236975D01*
X54199661Y-51838508D01*
X54231807Y-51795074D01*
X54284354Y-51782462D01*
X54295849Y-51784645D01*
X56087442Y-52264700D01*
X56131708Y-52295695D01*
X56145694Y-52347893D01*
X56143543Y-52360536D01*
X55997105Y-52934575D01*
X55632937Y-54362109D01*
X55631500Y-54366601D01*
X55580162Y-54499225D01*
X55544594Y-54539909D01*
X55491197Y-54548212D01*
X55444955Y-54520249D01*
X55427505Y-54469105D01*
X55427826Y-54463417D01*
X55448284Y-54242641D01*
X55427756Y-54021105D01*
X55366870Y-53807113D01*
X55267699Y-53607952D01*
X55133622Y-53430405D01*
X54969203Y-53280517D01*
X54839971Y-53200500D01*
X54780043Y-53163394D01*
X54780039Y-53163392D01*
X54572587Y-53083025D01*
X54572576Y-53083021D01*
X54353884Y-53042141D01*
X54131398Y-53042141D01*
X53912705Y-53083021D01*
X53912694Y-53083025D01*
X53705242Y-53163392D01*
X53705238Y-53163394D01*
X53516082Y-53280515D01*
X53516075Y-53280520D01*
X53351660Y-53430404D01*
X53272933Y-53534655D01*
X53217583Y-53607952D01*
X53217581Y-53607954D01*
X53217579Y-53607958D01*
X53118411Y-53807114D01*
X53057526Y-54021102D01*
X53036998Y-54242640D01*
X53057526Y-54464179D01*
X53118411Y-54678167D01*
X53217579Y-54877323D01*
X53217580Y-54877324D01*
X53217583Y-54877330D01*
X53351660Y-55054877D01*
X53516079Y-55204765D01*
X53664097Y-55296413D01*
X53705238Y-55321887D01*
X53705242Y-55321889D01*
X53762271Y-55343982D01*
X53912701Y-55402259D01*
X53912703Y-55402259D01*
X53912705Y-55402260D01*
X54131398Y-55443141D01*
X54353882Y-55443141D01*
X54353884Y-55443141D01*
X54481118Y-55419356D01*
X54534428Y-55428193D01*
X54569587Y-55469230D01*
X54570142Y-55523267D01*
X54535834Y-55565018D01*
X54529045Y-55568598D01*
X54492360Y-55585720D01*
X54477141Y-55591010D01*
X53619987Y-55793854D01*
X53604587Y-55795928D01*
X53587698Y-55796525D01*
X53565105Y-55806207D01*
X53562171Y-55807329D01*
X53560118Y-55808021D01*
X53537905Y-55817865D01*
X53214425Y-55956499D01*
X53203184Y-55960345D01*
X52369967Y-56176982D01*
X52316170Y-56171872D01*
X52278244Y-56133378D01*
X52273780Y-56120971D01*
X51792126Y-54323417D01*
X51792121Y-54323405D01*
X51755887Y-54249928D01*
X51747582Y-54242645D01*
X51692093Y-54193982D01*
X51673483Y-54177661D01*
X51569701Y-54142431D01*
X51487937Y-54147791D01*
X51332521Y-54189435D01*
X51278687Y-54184725D01*
X51240476Y-54146514D01*
X51235766Y-54092680D01*
X51251556Y-54062347D01*
X51316240Y-53985261D01*
X51341617Y-53915536D01*
X51359988Y-53886697D01*
X51606874Y-53639810D01*
X51616625Y-53632799D01*
X51616123Y-53632134D01*
X51621964Y-53627722D01*
X51621967Y-53627721D01*
X51635271Y-53613125D01*
X51671408Y-53592724D01*
X51671044Y-53591844D01*
X51678228Y-53588868D01*
X51678228Y-53588867D01*
X51678231Y-53588867D01*
X51744552Y-53544552D01*
X51788867Y-53478231D01*
X51800500Y-53419748D01*
X51800500Y-52680252D01*
X51788867Y-52621769D01*
X51744552Y-52555448D01*
X51678231Y-52511133D01*
X51678230Y-52511132D01*
X51678231Y-52511132D01*
X51619748Y-52499500D01*
X51280252Y-52499500D01*
X51215412Y-52512397D01*
X51184588Y-52512397D01*
X51119748Y-52499500D01*
X50780252Y-52499500D01*
X50779500Y-52499500D01*
X50728720Y-52481018D01*
X50701700Y-52434218D01*
X50700500Y-52420500D01*
X50700500Y-52080253D01*
X50700500Y-52080252D01*
X50688867Y-52021769D01*
X50688866Y-52021767D01*
X50687602Y-52015413D01*
X50687602Y-51984587D01*
X50688866Y-51978232D01*
X50688867Y-51978231D01*
X50700500Y-51919748D01*
X50700500Y-51580252D01*
X50688867Y-51521769D01*
X50688866Y-51521767D01*
X50687602Y-51515413D01*
X50687602Y-51484587D01*
X50688866Y-51478232D01*
X50688867Y-51478231D01*
X50700500Y-51419748D01*
X50700500Y-51080252D01*
X50688867Y-51021769D01*
X50644552Y-50955448D01*
X50635650Y-50949500D01*
X50618743Y-50938203D01*
X50586789Y-50894624D01*
X50590323Y-50840700D01*
X50627692Y-50801664D01*
X50647222Y-50795035D01*
X50659509Y-50792591D01*
X50678231Y-50788867D01*
X50744552Y-50744552D01*
X50788867Y-50678231D01*
X50804428Y-50600000D01*
X50804428Y-50100000D01*
X50789812Y-50026524D01*
X50798034Y-49973114D01*
X50811430Y-49955255D01*
X50856875Y-49909810D01*
X50866626Y-49902800D01*
X50866123Y-49902134D01*
X50871962Y-49897723D01*
X50871967Y-49897721D01*
X50902340Y-49864402D01*
X50903529Y-49863156D01*
X50916724Y-49849963D01*
X50918863Y-49846838D01*
X50922255Y-49842556D01*
X50942617Y-49820222D01*
X50946492Y-49810217D01*
X50954982Y-49794112D01*
X50961045Y-49785262D01*
X50961045Y-49785261D01*
X50961533Y-49784549D01*
X51005479Y-49753102D01*
X51018975Y-49750575D01*
X51019737Y-49750500D01*
X51019748Y-49750500D01*
X51078231Y-49738867D01*
X51096609Y-49726586D01*
X51149098Y-49713741D01*
X51197565Y-49737641D01*
G37*
G04 #@! TD.AperFunction*
G04 #@! TA.AperFunction,Conductor*
G36*
X48685517Y-52581482D02*
G01*
X48712537Y-52628282D01*
X48703153Y-52681500D01*
X48690598Y-52697861D01*
X48606778Y-52781680D01*
X48606776Y-52781683D01*
X48556028Y-52890510D01*
X48556028Y-52890512D01*
X48549500Y-52940096D01*
X48549500Y-53359901D01*
X48549501Y-53359907D01*
X48556026Y-53409483D01*
X48556478Y-53411032D01*
X48556395Y-53412287D01*
X48556816Y-53415480D01*
X48556180Y-53415563D01*
X48552943Y-53464955D01*
X48536496Y-53488999D01*
X48504135Y-53521361D01*
X48455160Y-53544199D01*
X48448273Y-53544500D01*
X47852495Y-53544500D01*
X47801715Y-53526018D01*
X47780634Y-53498318D01*
X47754130Y-53440282D01*
X47664589Y-53336945D01*
X47664588Y-53336944D01*
X47549565Y-53263024D01*
X47549562Y-53263023D01*
X47549561Y-53263022D01*
X47469337Y-53239466D01*
X47418368Y-53224500D01*
X47418367Y-53224500D01*
X47281633Y-53224500D01*
X47281632Y-53224500D01*
X47150439Y-53263022D01*
X47150434Y-53263024D01*
X47035411Y-53336944D01*
X46945870Y-53440281D01*
X46891604Y-53559107D01*
X46853697Y-53597620D01*
X46799902Y-53602757D01*
X46756700Y-53573897D01*
X46648342Y-53430407D01*
X46648339Y-53430404D01*
X46483921Y-53280517D01*
X46354689Y-53200500D01*
X46340974Y-53192008D01*
X46307529Y-53149562D01*
X46309194Y-53095548D01*
X46326700Y-53068980D01*
X46339198Y-53056483D01*
X46390573Y-52951393D01*
X46400500Y-52883260D01*
X46400500Y-52641999D01*
X46418982Y-52591220D01*
X46465782Y-52564200D01*
X46479500Y-52563000D01*
X48634737Y-52563000D01*
X48685517Y-52581482D01*
G37*
G04 #@! TD.AperFunction*
G04 #@! TA.AperFunction,Conductor*
G36*
X50069683Y-50408982D02*
G01*
X50096385Y-50454088D01*
X50111132Y-50528230D01*
X50121883Y-50544319D01*
X50155448Y-50594552D01*
X50155450Y-50594554D01*
X50155452Y-50594557D01*
X50305442Y-50744547D01*
X50305452Y-50744555D01*
X50320806Y-50754815D01*
X50352759Y-50798395D01*
X50349224Y-50852319D01*
X50311854Y-50891354D01*
X50276915Y-50899500D01*
X49780252Y-50899500D01*
X49721768Y-50911132D01*
X49721767Y-50911133D01*
X49684274Y-50936186D01*
X49640384Y-50949500D01*
X49479500Y-50949500D01*
X49428720Y-50931018D01*
X49401700Y-50884218D01*
X49400500Y-50870500D01*
X49400500Y-50743373D01*
X49400500Y-50611227D01*
X49418981Y-50560450D01*
X49461414Y-50534328D01*
X49467998Y-50532779D01*
X49468003Y-50532779D01*
X49477815Y-50528446D01*
X49495210Y-50523060D01*
X49496808Y-50522761D01*
X49505754Y-50521089D01*
X49531454Y-50505174D01*
X49536281Y-50502630D01*
X49563936Y-50490421D01*
X49571522Y-50482834D01*
X49585789Y-50471532D01*
X49594915Y-50465883D01*
X49613130Y-50441760D01*
X49616722Y-50437634D01*
X49640720Y-50413637D01*
X49689696Y-50390800D01*
X49696580Y-50390500D01*
X50018903Y-50390500D01*
X50069683Y-50408982D01*
G37*
G04 #@! TD.AperFunction*
G04 #@! TA.AperFunction,Conductor*
G36*
X52615753Y-49075801D02*
G01*
X52626302Y-49084653D01*
X52769235Y-49227586D01*
X52769242Y-49227592D01*
X52769247Y-49227597D01*
X52808925Y-49258045D01*
X52921763Y-49299114D01*
X53041842Y-49299114D01*
X53081944Y-49284518D01*
X53154679Y-49258045D01*
X53194358Y-49227598D01*
X53333905Y-49088049D01*
X53382881Y-49065212D01*
X53389767Y-49064911D01*
X53586288Y-49064911D01*
X53637068Y-49083393D01*
X53645989Y-49092174D01*
X53668587Y-49118254D01*
X53785595Y-49193450D01*
X53818322Y-49236452D01*
X53815751Y-49290430D01*
X53784472Y-49327077D01*
X53763567Y-49340020D01*
X53758728Y-49342570D01*
X53731083Y-49354778D01*
X53731081Y-49354779D01*
X53723497Y-49362363D01*
X53709232Y-49373662D01*
X53700108Y-49379312D01*
X53700104Y-49379316D01*
X53681890Y-49403434D01*
X53678294Y-49407565D01*
X53114499Y-49971361D01*
X53065524Y-49994199D01*
X53058639Y-49994500D01*
X52812872Y-49994500D01*
X52762092Y-49976018D01*
X52747186Y-49959390D01*
X52744552Y-49955448D01*
X52716861Y-49936945D01*
X52678231Y-49911133D01*
X52678230Y-49911132D01*
X52678231Y-49911132D01*
X52600000Y-49895572D01*
X52300000Y-49895572D01*
X52299999Y-49895572D01*
X52259842Y-49903559D01*
X52206432Y-49895338D01*
X52170802Y-49854708D01*
X52166777Y-49840597D01*
X52166089Y-49836916D01*
X52166087Y-49836912D01*
X52166087Y-49836911D01*
X52150178Y-49811218D01*
X52147627Y-49806380D01*
X52135421Y-49778734D01*
X52127834Y-49771147D01*
X52116531Y-49756877D01*
X52112328Y-49750089D01*
X52100499Y-49708507D01*
X52100499Y-49626280D01*
X52100499Y-49531454D01*
X52118981Y-49480677D01*
X52123615Y-49475619D01*
X52514582Y-49084651D01*
X52563556Y-49061815D01*
X52615753Y-49075801D01*
G37*
G04 #@! TD.AperFunction*
G04 #@! TA.AperFunction,Conductor*
G36*
X46571746Y-47983735D02*
G01*
X46576826Y-47988391D01*
X47676360Y-49087926D01*
X47699198Y-49136901D01*
X47699499Y-49143786D01*
X47699499Y-49575500D01*
X47681017Y-49626280D01*
X47634217Y-49653300D01*
X47620499Y-49654500D01*
X47183909Y-49654500D01*
X47133129Y-49636018D01*
X47128048Y-49631361D01*
X47039810Y-49543123D01*
X47032801Y-49533374D01*
X47032135Y-49533878D01*
X47027722Y-49528035D01*
X47027721Y-49528034D01*
X47027721Y-49528033D01*
X46994415Y-49497670D01*
X46993125Y-49496438D01*
X46979964Y-49483277D01*
X46979963Y-49483276D01*
X46979962Y-49483275D01*
X46976846Y-49481141D01*
X46972555Y-49477742D01*
X46969083Y-49474577D01*
X46950222Y-49457383D01*
X46950220Y-49457382D01*
X46940217Y-49453507D01*
X46924110Y-49445016D01*
X46915263Y-49438955D01*
X46915261Y-49438954D01*
X46885840Y-49432035D01*
X46880608Y-49430414D01*
X46845608Y-49416855D01*
X46846804Y-49413765D01*
X46811860Y-49393081D01*
X46793931Y-49342103D01*
X46795443Y-49327554D01*
X46800500Y-49302133D01*
X46800499Y-49097868D01*
X46784515Y-49017505D01*
X46783924Y-49016620D01*
X46723624Y-48926375D01*
X46632496Y-48865485D01*
X46632495Y-48865484D01*
X46565465Y-48852151D01*
X46552133Y-48849500D01*
X46552132Y-48849500D01*
X44647868Y-48849500D01*
X44567503Y-48865485D01*
X44528296Y-48891683D01*
X44475805Y-48904527D01*
X44428545Y-48881858D01*
X44340998Y-48794311D01*
X44318160Y-48745335D01*
X44317859Y-48738450D01*
X44317859Y-48150007D01*
X44336341Y-48099227D01*
X44383141Y-48072207D01*
X44419115Y-48074206D01*
X44438413Y-48079873D01*
X44491632Y-48095500D01*
X44491633Y-48095500D01*
X44628368Y-48095500D01*
X44652637Y-48088373D01*
X44759561Y-48056978D01*
X44855347Y-47995421D01*
X44879343Y-47980000D01*
X44880412Y-47981664D01*
X44923348Y-47965263D01*
X44924599Y-47965253D01*
X46520966Y-47965253D01*
X46571746Y-47983735D01*
G37*
G04 #@! TD.AperFunction*
G04 #@! TA.AperFunction,Conductor*
G36*
X54354647Y-47591932D02*
G01*
X54365030Y-47606034D01*
X54398474Y-47663961D01*
X54441131Y-47717994D01*
X54441138Y-47718001D01*
X54538167Y-47783319D01*
X54538171Y-47783321D01*
X54538173Y-47783322D01*
X54538174Y-47783322D01*
X54538176Y-47783323D01*
X54590479Y-47797337D01*
X54651164Y-47813598D01*
X54651164Y-47813597D01*
X54657487Y-47815292D01*
X54657080Y-47816810D01*
X54698911Y-47836785D01*
X54721299Y-47885968D01*
X54713258Y-47927345D01*
X54671325Y-48011559D01*
X54610440Y-48225547D01*
X54589912Y-48447086D01*
X54610074Y-48664675D01*
X54609710Y-48666060D01*
X54671325Y-48882612D01*
X54770493Y-49081768D01*
X54770494Y-49081769D01*
X54770497Y-49081775D01*
X54847008Y-49183092D01*
X54862860Y-49234753D01*
X54841796Y-49284518D01*
X54793672Y-49309100D01*
X54783964Y-49309699D01*
X54268919Y-49309699D01*
X54218139Y-49291217D01*
X54191119Y-49244417D01*
X54200503Y-49191199D01*
X54226209Y-49164240D01*
X54272115Y-49134738D01*
X54297765Y-49118254D01*
X54387306Y-49014917D01*
X54444107Y-48890541D01*
X54463566Y-48755199D01*
X54455417Y-48698522D01*
X54456403Y-48693808D01*
X54453215Y-48683206D01*
X54444107Y-48619858D01*
X54418627Y-48564065D01*
X54387306Y-48495481D01*
X54297765Y-48392144D01*
X54297764Y-48392143D01*
X54182741Y-48318223D01*
X54182738Y-48318222D01*
X54182737Y-48318221D01*
X54117139Y-48298960D01*
X54051544Y-48279699D01*
X54051543Y-48279699D01*
X53914809Y-48279699D01*
X53914808Y-48279699D01*
X53783615Y-48318221D01*
X53783610Y-48318223D01*
X53668587Y-48392143D01*
X53665734Y-48394616D01*
X53615253Y-48413901D01*
X53614001Y-48413911D01*
X53347341Y-48413911D01*
X53296561Y-48395429D01*
X53291480Y-48390773D01*
X53166001Y-48265295D01*
X53143163Y-48216319D01*
X53157149Y-48164121D01*
X53165995Y-48153578D01*
X53650872Y-47668701D01*
X53699847Y-47645864D01*
X53734365Y-47651808D01*
X53734518Y-47651288D01*
X53739026Y-47652611D01*
X53739550Y-47652702D01*
X53739933Y-47652876D01*
X53739939Y-47652880D01*
X53841353Y-47682658D01*
X53871132Y-47691402D01*
X53871133Y-47691402D01*
X54007868Y-47691402D01*
X54032137Y-47684275D01*
X54139061Y-47652880D01*
X54253906Y-47579074D01*
X54306615Y-47567170D01*
X54354647Y-47591932D01*
G37*
G04 #@! TD.AperFunction*
G04 #@! TA.AperFunction,Conductor*
G36*
X47052169Y-46022495D02*
G01*
X47319972Y-46290298D01*
X47390316Y-46339554D01*
X47501193Y-46369264D01*
X47501193Y-46369263D01*
X47501194Y-46369264D01*
X47551814Y-46364836D01*
X47604012Y-46378822D01*
X47635007Y-46423088D01*
X47636895Y-46454778D01*
X47619610Y-46575000D01*
X47639068Y-46710340D01*
X47695870Y-46834718D01*
X47785411Y-46938055D01*
X47898333Y-47010625D01*
X47900439Y-47011978D01*
X48001853Y-47041756D01*
X48031632Y-47050500D01*
X48146091Y-47050500D01*
X48196871Y-47068982D01*
X48201952Y-47073639D01*
X48530189Y-47401876D01*
X48537202Y-47411623D01*
X48537865Y-47411123D01*
X48542276Y-47416963D01*
X48542277Y-47416964D01*
X48542279Y-47416967D01*
X48564908Y-47437596D01*
X48575574Y-47447320D01*
X48576872Y-47448559D01*
X48584674Y-47456361D01*
X48590037Y-47461724D01*
X48593148Y-47463855D01*
X48597445Y-47467257D01*
X48619778Y-47487617D01*
X48629779Y-47491491D01*
X48645887Y-47499982D01*
X48650580Y-47503196D01*
X48654738Y-47506045D01*
X48684080Y-47512946D01*
X48684157Y-47512964D01*
X48689391Y-47514585D01*
X48717565Y-47525500D01*
X48728291Y-47525500D01*
X48746377Y-47527598D01*
X48750408Y-47528545D01*
X48756821Y-47530054D01*
X48756821Y-47530053D01*
X48756822Y-47530054D01*
X48761808Y-47529358D01*
X48786755Y-47525878D01*
X48792210Y-47525500D01*
X49157770Y-47525500D01*
X49208550Y-47543982D01*
X49213631Y-47548638D01*
X49271869Y-47606875D01*
X49278882Y-47616623D01*
X49279545Y-47616123D01*
X49283956Y-47621963D01*
X49283957Y-47621964D01*
X49283959Y-47621967D01*
X49307908Y-47643799D01*
X49317265Y-47652330D01*
X49318563Y-47653569D01*
X49331717Y-47666723D01*
X49334826Y-47668853D01*
X49339117Y-47672252D01*
X49346543Y-47679021D01*
X49371621Y-47726889D01*
X49360063Y-47779677D01*
X49328086Y-47806582D01*
X49328239Y-47806810D01*
X49326186Y-47808181D01*
X49323563Y-47810389D01*
X49321772Y-47811130D01*
X49255448Y-47855448D01*
X49211132Y-47921769D01*
X49199499Y-47980252D01*
X49199499Y-48093880D01*
X49181016Y-48144660D01*
X49134217Y-48171679D01*
X49080998Y-48162295D01*
X49060797Y-48145616D01*
X49002824Y-48078710D01*
X48969008Y-48056978D01*
X48887800Y-48004789D01*
X48887797Y-48004788D01*
X48887796Y-48004787D01*
X48822199Y-47985526D01*
X48756603Y-47966265D01*
X48756602Y-47966265D01*
X48619868Y-47966265D01*
X48619867Y-47966265D01*
X48546374Y-47987844D01*
X48488674Y-48004787D01*
X48488673Y-48004787D01*
X48483253Y-48006379D01*
X48482700Y-48004497D01*
X48436820Y-48008128D01*
X48402038Y-47987853D01*
X47470035Y-47055850D01*
X47470032Y-47055848D01*
X47470028Y-47055844D01*
X47399684Y-47006588D01*
X47399683Y-47006587D01*
X47399682Y-47006587D01*
X47362001Y-46996490D01*
X47326588Y-46976043D01*
X47238422Y-46887877D01*
X47231410Y-46878129D01*
X47230746Y-46878631D01*
X47226333Y-46872788D01*
X47226332Y-46872787D01*
X47226332Y-46872786D01*
X47193026Y-46842423D01*
X47191736Y-46841191D01*
X47178575Y-46828030D01*
X47178574Y-46828029D01*
X47178573Y-46828028D01*
X47175457Y-46825894D01*
X47171166Y-46822495D01*
X47167012Y-46818708D01*
X47148833Y-46802136D01*
X47148831Y-46802135D01*
X47138828Y-46798260D01*
X47122721Y-46789769D01*
X47113874Y-46783708D01*
X47113872Y-46783707D01*
X47084451Y-46776788D01*
X47079219Y-46775167D01*
X47051047Y-46764253D01*
X47051046Y-46764253D01*
X47040321Y-46764253D01*
X47022232Y-46762154D01*
X47011791Y-46759698D01*
X47011789Y-46759697D01*
X46994184Y-46762154D01*
X46981850Y-46763874D01*
X46976395Y-46764253D01*
X46638733Y-46764253D01*
X46587953Y-46745771D01*
X46560933Y-46698971D01*
X46570317Y-46645753D01*
X46585511Y-46626871D01*
X46648340Y-46569595D01*
X46782417Y-46392048D01*
X46881588Y-46192887D01*
X46920326Y-46056736D01*
X46951998Y-46012954D01*
X47004405Y-45999773D01*
X47052169Y-46022495D01*
G37*
G04 #@! TD.AperFunction*
G04 #@! TA.AperFunction,Conductor*
G36*
X54754925Y-50058152D02*
G01*
X54980006Y-50112682D01*
X56538267Y-50490198D01*
X56583267Y-50520117D01*
X56598508Y-50571963D01*
X56595133Y-50590336D01*
X56512104Y-50858587D01*
X56479433Y-50901632D01*
X56426737Y-50913605D01*
X56417476Y-50911869D01*
X54647966Y-50469491D01*
X54603184Y-50439245D01*
X54588322Y-50387289D01*
X54590822Y-50372390D01*
X54660023Y-50114457D01*
X54691032Y-50070203D01*
X54743235Y-50056234D01*
X54754925Y-50058152D01*
G37*
G04 #@! TD.AperFunction*
G04 #@! TA.AperFunction,Conductor*
G36*
X46567137Y-50239280D02*
G01*
X46595277Y-50285414D01*
X46596773Y-50304035D01*
X46586001Y-50584634D01*
X46565584Y-50634667D01*
X46517783Y-50659872D01*
X46508388Y-50660592D01*
X44718188Y-50690706D01*
X44667104Y-50673080D01*
X44639301Y-50626742D01*
X44637859Y-50611717D01*
X44637859Y-50344435D01*
X44656341Y-50293655D01*
X44703141Y-50266635D01*
X44714936Y-50265459D01*
X46515927Y-50222027D01*
X46567137Y-50239280D01*
G37*
G04 #@! TD.AperFunction*
G04 #@! TA.AperFunction,Conductor*
G36*
X50389447Y-54675917D02*
G01*
X50426164Y-54715566D01*
X50429291Y-54724455D01*
X50930936Y-56478085D01*
X50927133Y-56531990D01*
X50889569Y-56570839D01*
X50875405Y-56576127D01*
X50617440Y-56645159D01*
X50563608Y-56640432D01*
X50525409Y-56602208D01*
X50521225Y-56591124D01*
X50465172Y-56400446D01*
X50003717Y-54830680D01*
X50007128Y-54776751D01*
X50044407Y-54737629D01*
X50062003Y-54731366D01*
X50335834Y-54669146D01*
X50389447Y-54675917D01*
G37*
G04 #@! TD.AperFunction*
M02*
