G04 #@! TF.GenerationSoftware,KiCad,Pcbnew,7.0.7*
G04 #@! TF.CreationDate,2024-01-02T23:41:36-05:00*
G04 #@! TF.ProjectId,O12encoder,4f313265-6e63-46f6-9465-722e6b696361,1*
G04 #@! TF.SameCoordinates,Original*
G04 #@! TF.FileFunction,Soldermask,Bot*
G04 #@! TF.FilePolarity,Negative*
%FSLAX46Y46*%
G04 Gerber Fmt 4.6, Leading zero omitted, Abs format (unit mm)*
G04 Created by KiCad (PCBNEW 7.0.7) date 2024-01-02 23:41:36*
%MOMM*%
%LPD*%
G01*
G04 APERTURE LIST*
G04 Aperture macros list*
%AMRoundRect*
0 Rectangle with rounded corners*
0 $1 Rounding radius*
0 $2 $3 $4 $5 $6 $7 $8 $9 X,Y pos of 4 corners*
0 Add a 4 corners polygon primitive as box body*
4,1,4,$2,$3,$4,$5,$6,$7,$8,$9,$2,$3,0*
0 Add four circle primitives for the rounded corners*
1,1,$1+$1,$2,$3*
1,1,$1+$1,$4,$5*
1,1,$1+$1,$6,$7*
1,1,$1+$1,$8,$9*
0 Add four rect primitives between the rounded corners*
20,1,$1+$1,$2,$3,$4,$5,0*
20,1,$1+$1,$4,$5,$6,$7,0*
20,1,$1+$1,$6,$7,$8,$9,0*
20,1,$1+$1,$8,$9,$2,$3,0*%
%AMFreePoly0*
4,1,6,0.325000,0.000000,0.175000,-0.150000,-0.175000,-0.150000,-0.175000,0.150000,0.325000,0.150000,0.325000,0.000000,0.325000,0.000000,$1*%
%AMFreePoly1*
4,1,6,0.325000,0.000000,0.325000,-0.150000,-0.175000,-0.150000,-0.175000,0.150000,0.175000,0.150000,0.325000,0.000000,0.325000,0.000000,$1*%
%AMFreePoly2*
4,1,6,0.150000,-0.325000,0.000000,-0.325000,-0.150000,-0.175000,-0.150000,0.175000,0.150000,0.175000,0.150000,-0.325000,0.150000,-0.325000,$1*%
%AMFreePoly3*
4,1,6,0.150000,-0.175000,0.000000,-0.325000,-0.150000,-0.325000,-0.150000,0.175000,0.150000,0.175000,0.150000,-0.175000,0.150000,-0.175000,$1*%
%AMFreePoly4*
4,1,7,0.175000,-0.150000,-0.175000,-0.150000,-0.325000,-0.150000,-0.325000,0.000000,-0.175000,0.150000,0.175000,0.150000,0.175000,-0.150000,0.175000,-0.150000,$1*%
%AMFreePoly5*
4,1,6,0.175000,-0.150000,-0.175000,-0.150000,-0.325000,0.000000,-0.325000,0.150000,0.175000,0.150000,0.175000,-0.150000,0.175000,-0.150000,$1*%
%AMFreePoly6*
4,1,6,0.150000,0.175000,0.150000,-0.175000,-0.150000,-0.175000,-0.150000,0.325000,0.000000,0.325000,0.150000,0.175000,0.150000,0.175000,$1*%
%AMFreePoly7*
4,1,6,0.150000,-0.175000,-0.150000,-0.175000,-0.150000,0.175000,0.000000,0.325000,0.150000,0.325000,0.150000,-0.175000,0.150000,-0.175000,$1*%
G04 Aperture macros list end*
%ADD10RoundRect,0.075000X0.311852X-0.874070X-0.166963X0.912893X-0.311852X0.874070X0.166963X-0.912893X0*%
%ADD11RoundRect,0.050000X0.100000X-0.285000X0.100000X0.285000X-0.100000X0.285000X-0.100000X-0.285000X0*%
%ADD12RoundRect,0.150000X-0.600000X0.150000X-0.600000X-0.150000X0.600000X-0.150000X0.600000X0.150000X0*%
%ADD13RoundRect,0.150000X-0.594615X-0.170096X-0.444615X-0.429904X0.594615X0.170096X0.444615X0.429904X0*%
%ADD14RoundRect,0.140000X0.021213X-0.219203X0.219203X-0.021213X-0.021213X0.219203X-0.219203X0.021213X0*%
%ADD15RoundRect,0.140000X0.140000X0.170000X-0.140000X0.170000X-0.140000X-0.170000X0.140000X-0.170000X0*%
%ADD16RoundRect,0.075000X-0.912893X0.166963X0.874070X-0.311852X0.912893X-0.166963X-0.874070X0.311852X0*%
%ADD17RoundRect,0.075000X0.925000X0.075000X-0.925000X0.075000X-0.925000X-0.075000X0.925000X-0.075000X0*%
%ADD18FreePoly0,270.000000*%
%ADD19R,0.300000X0.700000*%
%ADD20FreePoly1,270.000000*%
%ADD21FreePoly2,270.000000*%
%ADD22R,0.700000X0.300000*%
%ADD23FreePoly3,270.000000*%
%ADD24FreePoly4,270.000000*%
%ADD25FreePoly5,270.000000*%
%ADD26FreePoly6,270.000000*%
%ADD27FreePoly7,270.000000*%
%ADD28R,0.600000X1.550000*%
%ADD29R,1.200000X1.800000*%
G04 APERTURE END LIST*
D10*
X52665925Y-55075000D03*
X52182962Y-55204410D03*
X51699999Y-55333819D03*
X51217036Y-55463229D03*
X50734073Y-55592638D03*
X50251110Y-55722048D03*
D11*
X49050000Y-50840000D03*
X48550000Y-50840000D03*
X48050000Y-50840000D03*
X47550000Y-50840000D03*
X47550000Y-49360000D03*
X48050000Y-49360000D03*
X48550000Y-49360000D03*
X49050000Y-49360000D03*
D12*
X45450000Y-52700000D03*
D13*
X55130000Y-47030000D03*
D14*
X52960589Y-48739411D03*
X53639411Y-48060589D03*
D15*
X49030000Y-53150000D03*
X48070000Y-53150000D03*
D16*
X55011771Y-52648888D03*
X55141181Y-52165925D03*
X55270590Y-51682962D03*
X55400000Y-51199999D03*
X55529409Y-50717036D03*
X55658819Y-50234073D03*
D12*
X45450000Y-51700000D03*
D17*
X45600000Y-48200000D03*
X45600000Y-48700000D03*
X45600000Y-49200000D03*
X45600000Y-49700000D03*
X45600000Y-50200000D03*
X45600000Y-50700000D03*
D18*
X50450000Y-50275000D03*
D19*
X50950000Y-50450000D03*
X51450000Y-50450000D03*
X51950000Y-50450000D03*
D20*
X52450000Y-50275000D03*
D21*
X52925000Y-50750000D03*
D22*
X52750000Y-51250000D03*
X52750000Y-51750000D03*
X52750000Y-52250000D03*
D23*
X52925000Y-52750000D03*
D24*
X52450000Y-53225000D03*
D19*
X51950000Y-53050000D03*
X51450000Y-53050000D03*
X50950000Y-53050000D03*
D25*
X50450000Y-53225000D03*
D26*
X49975000Y-52750000D03*
D22*
X50150000Y-52250000D03*
X50150000Y-51750000D03*
X50150000Y-51250000D03*
D27*
X49975000Y-50750000D03*
D28*
X49700000Y-48775000D03*
X50700000Y-48775000D03*
D29*
X48400000Y-44900000D03*
X52000000Y-44900000D03*
M02*
