M48
; DRILL file {KiCad 7.0.7} date 2024 January 02, Tuesday 23:41:26
; FORMAT={-:-/ absolute / metric / decimal}
; #@! TF.CreationDate,2024-01-02T23:41:26-05:00
; #@! TF.GenerationSoftware,Kicad,Pcbnew,7.0.7
; #@! TF.FileFunction,Plated,1,2,PTH
FMAT,2
METRIC
; #@! TA.AperFunction,Plated,PTH,ViaDrill
T1C0.250
%
G90
G05
T1
X44.56Y-47.62
X46.374Y-48.199
X46.65Y-51.4
X47.1Y-46.53
X47.35Y-53.7
X48.1Y-46.575
X48.14Y-44.58
X48.335Y-52.797
X48.688Y-48.442
X48.95Y-47.76
X49.4Y-53.086
X49.48Y-46.76
X49.65Y-54.85
X49.736Y-50.65
X50.5Y-47.2
X51.31Y-51.84
X51.435Y-48.55
X51.619Y-46.344
X51.7Y-53.9
X52.05Y-51.8
X52.35Y-49.6
X52.5Y-46.45
X52.5Y-47.55
X53.55Y-51.2
X53.939Y-47.216
X53.944Y-52.784
X53.983Y-48.755
X54.05Y-50.3
X55.6Y-53.25
X56.19Y-50.22
T0
M30
