%TF.GenerationSoftware,KiCad,Pcbnew,7.0.7*%
%TF.CreationDate,2024-01-02T23:41:26-05:00*%
%TF.ProjectId,O12encoder,4f313265-6e63-46f6-9465-722e6b696361,1*%
%TF.SameCoordinates,Original*%
%TF.FileFunction,Drillmap*%
%TF.FilePolarity,Positive*%
%FSLAX45Y45*%
G04 Gerber Fmt 4.5, Leading zero omitted, Abs format (unit mm)*
G04 Created by KiCad (PCBNEW 7.0.7) date 2024-01-02 23:41:26*
%MOMM*%
%LPD*%
G01*
G04 APERTURE LIST*
%ADD10C,0.150000*%
%ADD11C,0.200000*%
G04 APERTURE END LIST*
D10*
X4744709Y-5752760D02*
G75*
G03*
X4896472Y-5772741I100001J173210D01*
G01*
X4675736Y-5424264D02*
G75*
G03*
X4675736Y-5424264I-100000J0D01*
G01*
X4575736Y-4375736D02*
G75*
G03*
X4375736Y-4575736I4J-200004D01*
G01*
X4896472Y-5772741D02*
X5476028Y-5617449D01*
X5679555Y-4844709D02*
G75*
G03*
X5679555Y-4844709I-100000J0D01*
G01*
X5524264Y-5424264D02*
G75*
G03*
X5524264Y-5424264I-100000J0D01*
G01*
X4375735Y-5424264D02*
G75*
G03*
X4475736Y-5597469I200006J4D01*
G01*
X5617449Y-5476028D02*
X5772741Y-4896472D01*
X5597472Y-4475734D02*
G75*
G03*
X5424264Y-4375736I-173212J-100016D01*
G01*
X4675736Y-4575736D02*
G75*
G03*
X4675736Y-4575736I-100000J0D01*
G01*
X5772743Y-4896473D02*
G75*
G03*
X5752760Y-4744709I-193173J51763D01*
G01*
X4944709Y-5579556D02*
G75*
G03*
X4944709Y-5579556I-100000J0D01*
G01*
X5524264Y-4575736D02*
G75*
G03*
X5524264Y-4575736I-100000J0D01*
G01*
X5424264Y-4375736D02*
X4575736Y-4375736D01*
X5752761Y-4744709D02*
X5597469Y-4475736D01*
X4475736Y-5597469D02*
X4744709Y-5752761D01*
X4375736Y-4575736D02*
X4375736Y-5424264D01*
X5476028Y-5617449D02*
G75*
G03*
X5617449Y-5476028I-51768J193189D01*
G01*
D11*
X4629013Y-6098539D02*
X4629013Y-5898539D01*
X4629013Y-5898539D02*
X4676632Y-5898539D01*
X4676632Y-5898539D02*
X4705203Y-5908063D01*
X4705203Y-5908063D02*
X4724251Y-5927110D01*
X4724251Y-5927110D02*
X4733775Y-5946158D01*
X4733775Y-5946158D02*
X4743298Y-5984253D01*
X4743298Y-5984253D02*
X4743298Y-6012824D01*
X4743298Y-6012824D02*
X4733775Y-6050920D01*
X4733775Y-6050920D02*
X4724251Y-6069967D01*
X4724251Y-6069967D02*
X4705203Y-6089015D01*
X4705203Y-6089015D02*
X4676632Y-6098539D01*
X4676632Y-6098539D02*
X4629013Y-6098539D01*
X4829013Y-6098539D02*
X4829013Y-5965205D01*
X4829013Y-6003301D02*
X4838537Y-5984253D01*
X4838537Y-5984253D02*
X4848060Y-5974729D01*
X4848060Y-5974729D02*
X4867108Y-5965205D01*
X4867108Y-5965205D02*
X4886156Y-5965205D01*
X4952822Y-6098539D02*
X4952822Y-5965205D01*
X4952822Y-5898539D02*
X4943298Y-5908063D01*
X4943298Y-5908063D02*
X4952822Y-5917586D01*
X4952822Y-5917586D02*
X4962346Y-5908063D01*
X4962346Y-5908063D02*
X4952822Y-5898539D01*
X4952822Y-5898539D02*
X4952822Y-5917586D01*
X5076632Y-6098539D02*
X5057584Y-6089015D01*
X5057584Y-6089015D02*
X5048060Y-6069967D01*
X5048060Y-6069967D02*
X5048060Y-5898539D01*
X5181394Y-6098539D02*
X5162346Y-6089015D01*
X5162346Y-6089015D02*
X5152822Y-6069967D01*
X5152822Y-6069967D02*
X5152822Y-5898539D01*
X5409965Y-6098539D02*
X5409965Y-5898539D01*
X5409965Y-5898539D02*
X5476632Y-6041396D01*
X5476632Y-6041396D02*
X5543298Y-5898539D01*
X5543298Y-5898539D02*
X5543298Y-6098539D01*
X5724251Y-6098539D02*
X5724251Y-5993777D01*
X5724251Y-5993777D02*
X5714727Y-5974729D01*
X5714727Y-5974729D02*
X5695679Y-5965205D01*
X5695679Y-5965205D02*
X5657584Y-5965205D01*
X5657584Y-5965205D02*
X5638536Y-5974729D01*
X5724251Y-6089015D02*
X5705203Y-6098539D01*
X5705203Y-6098539D02*
X5657584Y-6098539D01*
X5657584Y-6098539D02*
X5638536Y-6089015D01*
X5638536Y-6089015D02*
X5629013Y-6069967D01*
X5629013Y-6069967D02*
X5629013Y-6050920D01*
X5629013Y-6050920D02*
X5638536Y-6031872D01*
X5638536Y-6031872D02*
X5657584Y-6022348D01*
X5657584Y-6022348D02*
X5705203Y-6022348D01*
X5705203Y-6022348D02*
X5724251Y-6012824D01*
X5819489Y-5965205D02*
X5819489Y-6165205D01*
X5819489Y-5974729D02*
X5838536Y-5965205D01*
X5838536Y-5965205D02*
X5876632Y-5965205D01*
X5876632Y-5965205D02*
X5895679Y-5974729D01*
X5895679Y-5974729D02*
X5905203Y-5984253D01*
X5905203Y-5984253D02*
X5914727Y-6003301D01*
X5914727Y-6003301D02*
X5914727Y-6060443D01*
X5914727Y-6060443D02*
X5905203Y-6079491D01*
X5905203Y-6079491D02*
X5895679Y-6089015D01*
X5895679Y-6089015D02*
X5876632Y-6098539D01*
X5876632Y-6098539D02*
X5838536Y-6098539D01*
X5838536Y-6098539D02*
X5819489Y-6089015D01*
X6000441Y-6079491D02*
X6009965Y-6089015D01*
X6009965Y-6089015D02*
X6000441Y-6098539D01*
X6000441Y-6098539D02*
X5990917Y-6089015D01*
X5990917Y-6089015D02*
X6000441Y-6079491D01*
X6000441Y-6079491D02*
X6000441Y-6098539D01*
X6000441Y-5974729D02*
X6009965Y-5984253D01*
X6009965Y-5984253D02*
X6000441Y-5993777D01*
X6000441Y-5993777D02*
X5990917Y-5984253D01*
X5990917Y-5984253D02*
X6000441Y-5974729D01*
X6000441Y-5974729D02*
X6000441Y-5993777D01*
M02*
