G04 #@! TF.GenerationSoftware,KiCad,Pcbnew,7.0.7*
G04 #@! TF.CreationDate,2024-01-02T23:41:36-05:00*
G04 #@! TF.ProjectId,O12encoder,4f313265-6e63-46f6-9465-722e6b696361,1*
G04 #@! TF.SameCoordinates,Original*
G04 #@! TF.FileFunction,Legend,Top*
G04 #@! TF.FilePolarity,Positive*
%FSLAX46Y46*%
G04 Gerber Fmt 4.6, Leading zero omitted, Abs format (unit mm)*
G04 Created by KiCad (PCBNEW 7.0.7) date 2024-01-02 23:41:36*
%MOMM*%
%LPD*%
G01*
G04 APERTURE LIST*
G04 Aperture macros list*
%AMRoundRect*
0 Rectangle with rounded corners*
0 $1 Rounding radius*
0 $2 $3 $4 $5 $6 $7 $8 $9 X,Y pos of 4 corners*
0 Add a 4 corners polygon primitive as box body*
4,1,4,$2,$3,$4,$5,$6,$7,$8,$9,$2,$3,0*
0 Add four circle primitives for the rounded corners*
1,1,$1+$1,$2,$3*
1,1,$1+$1,$4,$5*
1,1,$1+$1,$6,$7*
1,1,$1+$1,$8,$9*
0 Add four rect primitives between the rounded corners*
20,1,$1+$1,$2,$3,$4,$5,0*
20,1,$1+$1,$4,$5,$6,$7,0*
20,1,$1+$1,$6,$7,$8,$9,0*
20,1,$1+$1,$8,$9,$2,$3,0*%
G04 Aperture macros list end*
%ADD10C,0.150000*%
%ADD11C,0.100000*%
%ADD12C,0.120000*%
%ADD13C,0.200000*%
%ADD14RoundRect,0.150000X-0.594615X-0.170096X-0.444615X-0.429904X0.594615X0.170096X0.444615X0.429904X0*%
%ADD15RoundRect,0.140000X-0.140000X-0.170000X0.140000X-0.170000X0.140000X0.170000X-0.140000X0.170000X0*%
%ADD16RoundRect,0.075000X0.912893X-0.166963X-0.874070X0.311852X-0.912893X0.166963X0.874070X-0.311852X0*%
%ADD17RoundRect,0.075000X0.075000X-0.925000X0.075000X0.925000X-0.075000X0.925000X-0.075000X-0.925000X0*%
%ADD18R,0.711200X0.254000*%
%ADD19R,0.254000X0.711200*%
%ADD20R,1.701800X1.701800*%
%ADD21RoundRect,0.075000X-0.925000X-0.075000X0.925000X-0.075000X0.925000X0.075000X-0.925000X0.075000X0*%
G04 APERTURE END LIST*
D10*
X53746733Y-52073712D02*
X53895961Y-51854880D01*
X53698677Y-51485721D02*
X53763377Y-51244239D01*
X54051856Y-50926967D02*
X53945790Y-50743257D01*
X53891857Y-51537485D02*
X54060896Y-51582779D01*
X53517329Y-52012243D02*
X53746733Y-52073712D01*
X53914211Y-51856744D02*
X53986653Y-51876151D01*
X53553782Y-51446900D02*
X53698677Y-51485721D01*
X54051856Y-50926967D02*
X53868145Y-51033035D01*
X54121481Y-50544705D02*
X53638519Y-50415295D01*
X53638519Y-50415295D02*
X53822229Y-50309230D01*
X48683111Y-54414657D02*
X49036889Y-54245342D01*
X53437145Y-51731937D02*
X53509587Y-51751348D01*
X53568891Y-50797559D02*
X54051856Y-50926967D01*
X53509587Y-51751348D02*
X53517329Y-52012243D01*
X48683111Y-54414657D02*
X48916794Y-54753355D01*
X53763377Y-51244239D02*
X53956564Y-51296002D01*
X53956564Y-51296002D02*
X53891857Y-51537485D01*
X53638519Y-50415295D02*
X53744583Y-50599009D01*
D11*
X56000000Y-50000000D02*
G75*
G03*
X56000000Y-50000000I-6000000J0D01*
G01*
D10*
X48683118Y-54414635D02*
G75*
G03*
X51107338Y-54459220I1289582J4190135D01*
G01*
X47352493Y-47064295D02*
X46742969Y-47864295D01*
X46971541Y-47864295D02*
X46895350Y-47826200D01*
X46895350Y-47826200D02*
X46819160Y-47750009D01*
X46819160Y-47750009D02*
X46781064Y-47597628D01*
X46781064Y-47597628D02*
X46781064Y-47330961D01*
X46781064Y-47330961D02*
X46819160Y-47178580D01*
X46819160Y-47178580D02*
X46895350Y-47102390D01*
X46895350Y-47102390D02*
X46971541Y-47064295D01*
X46971541Y-47064295D02*
X47123922Y-47064295D01*
X47123922Y-47064295D02*
X47200112Y-47102390D01*
X47200112Y-47102390D02*
X47276303Y-47178580D01*
X47276303Y-47178580D02*
X47314398Y-47330961D01*
X47314398Y-47330961D02*
X47314398Y-47597628D01*
X47314398Y-47597628D02*
X47276303Y-47750009D01*
X47276303Y-47750009D02*
X47200112Y-47826200D01*
X47200112Y-47826200D02*
X47123922Y-47864295D01*
X47123922Y-47864295D02*
X46971541Y-47864295D01*
X48076302Y-47864295D02*
X47619159Y-47864295D01*
X47847731Y-47864295D02*
X47847731Y-47064295D01*
X47847731Y-47064295D02*
X47771540Y-47178580D01*
X47771540Y-47178580D02*
X47695350Y-47254771D01*
X47695350Y-47254771D02*
X47619159Y-47292866D01*
X48381064Y-47140485D02*
X48419160Y-47102390D01*
X48419160Y-47102390D02*
X48495350Y-47064295D01*
X48495350Y-47064295D02*
X48685826Y-47064295D01*
X48685826Y-47064295D02*
X48762017Y-47102390D01*
X48762017Y-47102390D02*
X48800112Y-47140485D01*
X48800112Y-47140485D02*
X48838207Y-47216676D01*
X48838207Y-47216676D02*
X48838207Y-47292866D01*
X48838207Y-47292866D02*
X48800112Y-47407152D01*
X48800112Y-47407152D02*
X48342969Y-47864295D01*
X48342969Y-47864295D02*
X48838207Y-47864295D01*
X49485827Y-47826200D02*
X49409636Y-47864295D01*
X49409636Y-47864295D02*
X49257255Y-47864295D01*
X49257255Y-47864295D02*
X49181065Y-47826200D01*
X49181065Y-47826200D02*
X49142969Y-47750009D01*
X49142969Y-47750009D02*
X49142969Y-47445247D01*
X49142969Y-47445247D02*
X49181065Y-47369057D01*
X49181065Y-47369057D02*
X49257255Y-47330961D01*
X49257255Y-47330961D02*
X49409636Y-47330961D01*
X49409636Y-47330961D02*
X49485827Y-47369057D01*
X49485827Y-47369057D02*
X49523922Y-47445247D01*
X49523922Y-47445247D02*
X49523922Y-47521438D01*
X49523922Y-47521438D02*
X49142969Y-47597628D01*
X49866779Y-47330961D02*
X49866779Y-47864295D01*
X49866779Y-47407152D02*
X49904874Y-47369057D01*
X49904874Y-47369057D02*
X49981064Y-47330961D01*
X49981064Y-47330961D02*
X50095350Y-47330961D01*
X50095350Y-47330961D02*
X50171541Y-47369057D01*
X50171541Y-47369057D02*
X50209636Y-47445247D01*
X50209636Y-47445247D02*
X50209636Y-47864295D01*
X50933446Y-47826200D02*
X50857255Y-47864295D01*
X50857255Y-47864295D02*
X50704874Y-47864295D01*
X50704874Y-47864295D02*
X50628684Y-47826200D01*
X50628684Y-47826200D02*
X50590589Y-47788104D01*
X50590589Y-47788104D02*
X50552493Y-47711914D01*
X50552493Y-47711914D02*
X50552493Y-47483342D01*
X50552493Y-47483342D02*
X50590589Y-47407152D01*
X50590589Y-47407152D02*
X50628684Y-47369057D01*
X50628684Y-47369057D02*
X50704874Y-47330961D01*
X50704874Y-47330961D02*
X50857255Y-47330961D01*
X50857255Y-47330961D02*
X50933446Y-47369057D01*
X51390588Y-47864295D02*
X51314398Y-47826200D01*
X51314398Y-47826200D02*
X51276303Y-47788104D01*
X51276303Y-47788104D02*
X51238207Y-47711914D01*
X51238207Y-47711914D02*
X51238207Y-47483342D01*
X51238207Y-47483342D02*
X51276303Y-47407152D01*
X51276303Y-47407152D02*
X51314398Y-47369057D01*
X51314398Y-47369057D02*
X51390588Y-47330961D01*
X51390588Y-47330961D02*
X51504874Y-47330961D01*
X51504874Y-47330961D02*
X51581065Y-47369057D01*
X51581065Y-47369057D02*
X51619160Y-47407152D01*
X51619160Y-47407152D02*
X51657255Y-47483342D01*
X51657255Y-47483342D02*
X51657255Y-47711914D01*
X51657255Y-47711914D02*
X51619160Y-47788104D01*
X51619160Y-47788104D02*
X51581065Y-47826200D01*
X51581065Y-47826200D02*
X51504874Y-47864295D01*
X51504874Y-47864295D02*
X51390588Y-47864295D01*
X52342970Y-47864295D02*
X52342970Y-47064295D01*
X52342970Y-47826200D02*
X52266779Y-47864295D01*
X52266779Y-47864295D02*
X52114398Y-47864295D01*
X52114398Y-47864295D02*
X52038208Y-47826200D01*
X52038208Y-47826200D02*
X52000113Y-47788104D01*
X52000113Y-47788104D02*
X51962017Y-47711914D01*
X51962017Y-47711914D02*
X51962017Y-47483342D01*
X51962017Y-47483342D02*
X52000113Y-47407152D01*
X52000113Y-47407152D02*
X52038208Y-47369057D01*
X52038208Y-47369057D02*
X52114398Y-47330961D01*
X52114398Y-47330961D02*
X52266779Y-47330961D01*
X52266779Y-47330961D02*
X52342970Y-47369057D01*
X53028685Y-47826200D02*
X52952494Y-47864295D01*
X52952494Y-47864295D02*
X52800113Y-47864295D01*
X52800113Y-47864295D02*
X52723923Y-47826200D01*
X52723923Y-47826200D02*
X52685827Y-47750009D01*
X52685827Y-47750009D02*
X52685827Y-47445247D01*
X52685827Y-47445247D02*
X52723923Y-47369057D01*
X52723923Y-47369057D02*
X52800113Y-47330961D01*
X52800113Y-47330961D02*
X52952494Y-47330961D01*
X52952494Y-47330961D02*
X53028685Y-47369057D01*
X53028685Y-47369057D02*
X53066780Y-47445247D01*
X53066780Y-47445247D02*
X53066780Y-47521438D01*
X53066780Y-47521438D02*
X52685827Y-47597628D01*
X53409637Y-47864295D02*
X53409637Y-47330961D01*
X53409637Y-47483342D02*
X53447732Y-47407152D01*
X53447732Y-47407152D02*
X53485827Y-47369057D01*
X53485827Y-47369057D02*
X53562018Y-47330961D01*
X53562018Y-47330961D02*
X53638208Y-47330961D01*
X49326049Y-53834875D02*
X49935573Y-53834875D01*
X49630811Y-54139637D02*
X49630811Y-53530113D01*
X50278429Y-53720589D02*
X50697477Y-53720589D01*
X50430810Y-53339637D02*
X50545096Y-53339637D01*
X50545096Y-53339637D02*
X50621287Y-53377732D01*
X50621287Y-53377732D02*
X50659382Y-53415827D01*
X50659382Y-53415827D02*
X50697477Y-53530113D01*
X50697477Y-53530113D02*
X50697477Y-53949161D01*
X50697477Y-53949161D02*
X50659382Y-54063446D01*
X50659382Y-54063446D02*
X50621287Y-54101542D01*
X50621287Y-54101542D02*
X50545096Y-54139637D01*
X50545096Y-54139637D02*
X50430810Y-54139637D01*
X50430810Y-54139637D02*
X50354620Y-54101542D01*
X50354620Y-54101542D02*
X50316525Y-54063446D01*
X50316525Y-54063446D02*
X50278429Y-53949161D01*
X50278429Y-53949161D02*
X50278429Y-53530113D01*
X50278429Y-53530113D02*
X50316525Y-53415827D01*
X50316525Y-53415827D02*
X50354620Y-53377732D01*
X50354620Y-53377732D02*
X50430810Y-53339637D01*
X45629328Y-55850998D02*
X45676263Y-55922084D01*
X45676263Y-55922084D02*
X45808229Y-55998275D01*
X45808229Y-55998275D02*
X45893260Y-56003378D01*
X45893260Y-56003378D02*
X45964346Y-55956443D01*
X45964346Y-55956443D02*
X45983394Y-55923452D01*
X45983394Y-55923452D02*
X45988498Y-55838421D01*
X45988498Y-55838421D02*
X45941563Y-55767335D01*
X45941563Y-55767335D02*
X45842588Y-55710192D01*
X45842588Y-55710192D02*
X45795653Y-55639105D01*
X45795653Y-55639105D02*
X45800757Y-55554075D01*
X45800757Y-55554075D02*
X45819804Y-55521083D01*
X45819804Y-55521083D02*
X45890891Y-55474148D01*
X45890891Y-55474148D02*
X45975922Y-55479252D01*
X45975922Y-55479252D02*
X46074896Y-55536394D01*
X46074896Y-55536394D02*
X46121831Y-55607481D01*
X46470793Y-55764966D02*
X46070793Y-56457786D01*
X46451746Y-55797957D02*
X46536776Y-55803061D01*
X46536776Y-55803061D02*
X46668742Y-55879252D01*
X46668742Y-55879252D02*
X46715677Y-55950338D01*
X46715677Y-55950338D02*
X46729621Y-56002377D01*
X46729621Y-56002377D02*
X46724517Y-56087408D01*
X46724517Y-56087408D02*
X46610231Y-56285357D01*
X46610231Y-56285357D02*
X46539145Y-56332292D01*
X46539145Y-56332292D02*
X46487106Y-56346236D01*
X46487106Y-56346236D02*
X46402075Y-56341132D01*
X46402075Y-56341132D02*
X46270109Y-56264941D01*
X46270109Y-56264941D02*
X46223174Y-56193855D01*
X46830964Y-56588751D02*
X47097631Y-56126871D01*
X47230964Y-55895931D02*
X47178925Y-55909875D01*
X47178925Y-55909875D02*
X47192869Y-55961914D01*
X47192869Y-55961914D02*
X47244908Y-55947970D01*
X47244908Y-55947970D02*
X47230964Y-55895931D01*
X47230964Y-55895931D02*
X47192869Y-55961914D01*
X45025238Y-48067533D02*
X45634762Y-48067533D01*
X55370731Y-53506694D02*
X55959486Y-53664451D01*
X54569268Y-49883305D02*
X53980513Y-49725548D01*
X54353768Y-49510049D02*
X54196012Y-50098804D01*
X47495238Y-45297533D02*
X48104762Y-45297533D01*
X45035238Y-52217533D02*
X45644762Y-52217533D01*
X45340000Y-52522295D02*
X45340000Y-51912771D01*
X56450731Y-49696694D02*
X57039486Y-49854451D01*
X56666231Y-50069950D02*
X56823987Y-49481195D01*
X53843479Y-52490049D02*
X53254724Y-52332292D01*
X51865238Y-45287533D02*
X52474762Y-45287533D01*
X52170000Y-45592295D02*
X52170000Y-44982771D01*
X56743876Y-46802432D02*
X56281996Y-47069098D01*
X56413962Y-46992908D02*
X56328931Y-46998012D01*
X56328931Y-46998012D02*
X56276892Y-46984068D01*
X56276892Y-46984068D02*
X56205806Y-46937133D01*
X56205806Y-46937133D02*
X56167710Y-46871150D01*
X56482314Y-46425582D02*
X56477210Y-46340552D01*
X56477210Y-46340552D02*
X56401019Y-46208586D01*
X56401019Y-46208586D02*
X56329933Y-46161651D01*
X56329933Y-46161651D02*
X56244902Y-46166754D01*
X56244902Y-46166754D02*
X56211911Y-46185802D01*
X56211911Y-46185802D02*
X56164975Y-46256889D01*
X56164975Y-46256889D02*
X56170079Y-46341919D01*
X56170079Y-46341919D02*
X56227222Y-46440894D01*
X56227222Y-46440894D02*
X56232326Y-46525924D01*
X56232326Y-46525924D02*
X56185391Y-46597011D01*
X56185391Y-46597011D02*
X56152399Y-46616058D01*
X56152399Y-46616058D02*
X56067369Y-46621162D01*
X56067369Y-46621162D02*
X55996282Y-46574227D01*
X55996282Y-46574227D02*
X55939139Y-46475253D01*
X55939139Y-46475253D02*
X55934035Y-46390222D01*
X55767711Y-46178330D02*
X55615330Y-45914398D01*
X55479628Y-46212689D02*
X56073474Y-45869831D01*
X56073474Y-45869831D02*
X56120409Y-45798745D01*
X56120409Y-45798745D02*
X56115305Y-45713714D01*
X56115305Y-45713714D02*
X56077210Y-45647731D01*
D12*
X49892164Y-52190000D02*
X50107836Y-52190000D01*
X49892164Y-52910000D02*
X50107836Y-52910000D01*
X51676400Y-51676400D02*
X51676400Y-51209741D01*
X51676400Y-48790259D02*
X51676400Y-48323600D01*
X51676400Y-48323600D02*
X51209741Y-48323600D01*
X51209741Y-51676400D02*
X51676400Y-51676400D01*
X48790259Y-48323600D02*
X48323600Y-48323600D01*
X48323600Y-51676400D02*
X48790259Y-51676400D01*
X48323600Y-51209741D02*
X48323600Y-51676400D01*
X48323600Y-48323600D02*
X48323600Y-48790259D01*
D13*
X52100000Y-51050000D02*
G75*
G03*
X52100000Y-51050000I-100000J0D01*
G01*
%LPC*%
D14*
X55050000Y-47070000D03*
D15*
X49520000Y-52550000D03*
X50480000Y-52550000D03*
D16*
X55111771Y-52698888D03*
X55241181Y-52215925D03*
X55370590Y-51732962D03*
X55500000Y-51249999D03*
X55629409Y-50767036D03*
X55758819Y-50284073D03*
D17*
X48750000Y-45300000D03*
X49250000Y-45300000D03*
X49750000Y-45300000D03*
X50250000Y-45300000D03*
X50750000Y-45300000D03*
X51250000Y-45300000D03*
D18*
X51450000Y-50750001D03*
X51450000Y-50250000D03*
X51450000Y-49750000D03*
X51450000Y-49249999D03*
D19*
X50750001Y-48550000D03*
X50250000Y-48550000D03*
X49750000Y-48550000D03*
X49249999Y-48550000D03*
D18*
X48550000Y-49249999D03*
X48550000Y-49750000D03*
X48550000Y-50250000D03*
X48550000Y-50750001D03*
D19*
X49249999Y-51450000D03*
X49750000Y-51450000D03*
X50250000Y-51450000D03*
X50750001Y-51450000D03*
D20*
X50000000Y-50000000D03*
D21*
X45300000Y-48800000D03*
X45300000Y-49300000D03*
X45300000Y-49800000D03*
X45300000Y-50300000D03*
X45300000Y-50800000D03*
X45300000Y-51300000D03*
%LPD*%
M02*
