G04 #@! TF.GenerationSoftware,KiCad,Pcbnew,7.0.7*
G04 #@! TF.CreationDate,2024-01-02T23:41:36-05:00*
G04 #@! TF.ProjectId,O12encoder,4f313265-6e63-46f6-9465-722e6b696361,1*
G04 #@! TF.SameCoordinates,Original*
G04 #@! TF.FileFunction,Legend,Bot*
G04 #@! TF.FilePolarity,Positive*
%FSLAX46Y46*%
G04 Gerber Fmt 4.6, Leading zero omitted, Abs format (unit mm)*
G04 Created by KiCad (PCBNEW 7.0.7) date 2024-01-02 23:41:36*
%MOMM*%
%LPD*%
G01*
G04 APERTURE LIST*
G04 Aperture macros list*
%AMRoundRect*
0 Rectangle with rounded corners*
0 $1 Rounding radius*
0 $2 $3 $4 $5 $6 $7 $8 $9 X,Y pos of 4 corners*
0 Add a 4 corners polygon primitive as box body*
4,1,4,$2,$3,$4,$5,$6,$7,$8,$9,$2,$3,0*
0 Add four circle primitives for the rounded corners*
1,1,$1+$1,$2,$3*
1,1,$1+$1,$4,$5*
1,1,$1+$1,$6,$7*
1,1,$1+$1,$8,$9*
0 Add four rect primitives between the rounded corners*
20,1,$1+$1,$2,$3,$4,$5,0*
20,1,$1+$1,$4,$5,$6,$7,0*
20,1,$1+$1,$6,$7,$8,$9,0*
20,1,$1+$1,$8,$9,$2,$3,0*%
%AMFreePoly0*
4,1,6,0.325000,0.000000,0.175000,-0.150000,-0.175000,-0.150000,-0.175000,0.150000,0.325000,0.150000,0.325000,0.000000,0.325000,0.000000,$1*%
%AMFreePoly1*
4,1,6,0.325000,0.000000,0.325000,-0.150000,-0.175000,-0.150000,-0.175000,0.150000,0.175000,0.150000,0.325000,0.000000,0.325000,0.000000,$1*%
%AMFreePoly2*
4,1,6,0.150000,-0.325000,0.000000,-0.325000,-0.150000,-0.175000,-0.150000,0.175000,0.150000,0.175000,0.150000,-0.325000,0.150000,-0.325000,$1*%
%AMFreePoly3*
4,1,6,0.150000,-0.175000,0.000000,-0.325000,-0.150000,-0.325000,-0.150000,0.175000,0.150000,0.175000,0.150000,-0.175000,0.150000,-0.175000,$1*%
%AMFreePoly4*
4,1,7,0.175000,-0.150000,-0.175000,-0.150000,-0.325000,-0.150000,-0.325000,0.000000,-0.175000,0.150000,0.175000,0.150000,0.175000,-0.150000,0.175000,-0.150000,$1*%
%AMFreePoly5*
4,1,6,0.175000,-0.150000,-0.175000,-0.150000,-0.325000,0.000000,-0.325000,0.150000,0.175000,0.150000,0.175000,-0.150000,0.175000,-0.150000,$1*%
%AMFreePoly6*
4,1,6,0.150000,0.175000,0.150000,-0.175000,-0.150000,-0.175000,-0.150000,0.325000,0.000000,0.325000,0.150000,0.175000,0.150000,0.175000,$1*%
%AMFreePoly7*
4,1,6,0.150000,-0.175000,-0.150000,-0.175000,-0.150000,0.175000,0.000000,0.325000,0.150000,0.325000,0.150000,-0.175000,0.150000,-0.175000,$1*%
G04 Aperture macros list end*
%ADD10C,0.150000*%
%ADD11C,0.200000*%
%ADD12C,0.120000*%
%ADD13C,0.254000*%
%ADD14RoundRect,0.075000X0.311852X-0.874070X-0.166963X0.912893X-0.311852X0.874070X0.166963X-0.912893X0*%
%ADD15RoundRect,0.050000X0.100000X-0.285000X0.100000X0.285000X-0.100000X0.285000X-0.100000X-0.285000X0*%
%ADD16RoundRect,0.150000X-0.600000X0.150000X-0.600000X-0.150000X0.600000X-0.150000X0.600000X0.150000X0*%
%ADD17RoundRect,0.150000X-0.594615X-0.170096X-0.444615X-0.429904X0.594615X0.170096X0.444615X0.429904X0*%
%ADD18RoundRect,0.140000X0.021213X-0.219203X0.219203X-0.021213X-0.021213X0.219203X-0.219203X0.021213X0*%
%ADD19RoundRect,0.140000X0.140000X0.170000X-0.140000X0.170000X-0.140000X-0.170000X0.140000X-0.170000X0*%
%ADD20RoundRect,0.075000X-0.912893X0.166963X0.874070X-0.311852X0.912893X-0.166963X-0.874070X0.311852X0*%
%ADD21RoundRect,0.075000X0.925000X0.075000X-0.925000X0.075000X-0.925000X-0.075000X0.925000X-0.075000X0*%
%ADD22FreePoly0,270.000000*%
%ADD23R,0.300000X0.700000*%
%ADD24FreePoly1,270.000000*%
%ADD25FreePoly2,270.000000*%
%ADD26R,0.700000X0.300000*%
%ADD27FreePoly3,270.000000*%
%ADD28FreePoly4,270.000000*%
%ADD29FreePoly5,270.000000*%
%ADD30FreePoly6,270.000000*%
%ADD31FreePoly7,270.000000*%
%ADD32R,0.600000X1.550000*%
%ADD33R,1.200000X1.800000*%
G04 APERTURE END LIST*
D10*
X54390000Y-50920000D02*
X54040000Y-50830000D01*
X56890000Y-50360000D02*
X57110000Y-50420000D01*
X47810000Y-48790000D02*
X47640000Y-48670000D01*
X57110000Y-50420000D02*
X56880000Y-51280000D01*
X56880000Y-51280000D02*
X56670000Y-51220000D01*
X54040000Y-50830000D02*
X53870000Y-50570000D01*
X54260000Y-51390000D02*
X53920000Y-51300000D01*
X56340000Y-53240000D02*
X56130000Y-53180000D01*
X53920000Y-51300000D02*
X53790000Y-51410000D01*
X56570000Y-52380000D02*
X56340000Y-53240000D01*
X49290000Y-48790000D02*
X47810000Y-48790000D01*
X56350000Y-52320000D02*
X56570000Y-52380000D01*
X47221904Y-53092295D02*
X47221904Y-52558961D01*
X47221904Y-52292295D02*
X47260000Y-52330390D01*
X47260000Y-52330390D02*
X47221904Y-52368485D01*
X47221904Y-52368485D02*
X47183809Y-52330390D01*
X47183809Y-52330390D02*
X47221904Y-52292295D01*
X47221904Y-52292295D02*
X47221904Y-52368485D01*
X46726667Y-53092295D02*
X46802857Y-53054200D01*
X46802857Y-53054200D02*
X46840952Y-53016104D01*
X46840952Y-53016104D02*
X46879048Y-52939914D01*
X46879048Y-52939914D02*
X46879048Y-52711342D01*
X46879048Y-52711342D02*
X46840952Y-52635152D01*
X46840952Y-52635152D02*
X46802857Y-52597057D01*
X46802857Y-52597057D02*
X46726667Y-52558961D01*
X46726667Y-52558961D02*
X46612381Y-52558961D01*
X46612381Y-52558961D02*
X46536190Y-52597057D01*
X46536190Y-52597057D02*
X46498095Y-52635152D01*
X46498095Y-52635152D02*
X46460000Y-52711342D01*
X46460000Y-52711342D02*
X46460000Y-52939914D01*
X46460000Y-52939914D02*
X46498095Y-53016104D01*
X46498095Y-53016104D02*
X46536190Y-53054200D01*
X46536190Y-53054200D02*
X46612381Y-53092295D01*
X46612381Y-53092295D02*
X46726667Y-53092295D01*
X48098510Y-57565661D02*
X48365177Y-57103781D01*
X48288986Y-57235747D02*
X48294090Y-57150716D01*
X48294090Y-57150716D02*
X48280146Y-57098677D01*
X48280146Y-57098677D02*
X48233211Y-57027591D01*
X48233211Y-57027591D02*
X48167228Y-56989495D01*
X47721660Y-57304098D02*
X47636630Y-57298995D01*
X47636630Y-57298995D02*
X47504664Y-57222804D01*
X47504664Y-57222804D02*
X47457729Y-57151718D01*
X47457729Y-57151718D02*
X47462833Y-57066687D01*
X47462833Y-57066687D02*
X47481880Y-57033696D01*
X47481880Y-57033696D02*
X47552967Y-56986760D01*
X47552967Y-56986760D02*
X47637997Y-56991864D01*
X47637997Y-56991864D02*
X47736972Y-57049007D01*
X47736972Y-57049007D02*
X47822002Y-57054111D01*
X47822002Y-57054111D02*
X47893089Y-57007175D01*
X47893089Y-57007175D02*
X47912136Y-56974184D01*
X47912136Y-56974184D02*
X47917240Y-56889154D01*
X47917240Y-56889154D02*
X47870305Y-56818067D01*
X47870305Y-56818067D02*
X47771331Y-56760924D01*
X47771331Y-56760924D02*
X47686300Y-56755820D01*
X47078510Y-56360924D02*
X46811844Y-56822804D01*
X47395849Y-56192231D02*
X47275091Y-56782340D01*
X47275091Y-56782340D02*
X46846203Y-56534721D01*
X46578535Y-56160240D02*
X46663565Y-56165344D01*
X46663565Y-56165344D02*
X46715604Y-56151400D01*
X46715604Y-56151400D02*
X46786691Y-56104465D01*
X46786691Y-56104465D02*
X46805739Y-56071473D01*
X46805739Y-56071473D02*
X46810842Y-55986443D01*
X46810842Y-55986443D02*
X46796899Y-55934404D01*
X46796899Y-55934404D02*
X46749963Y-55863317D01*
X46749963Y-55863317D02*
X46617997Y-55787127D01*
X46617997Y-55787127D02*
X46532967Y-55782023D01*
X46532967Y-55782023D02*
X46480928Y-55795967D01*
X46480928Y-55795967D02*
X46409841Y-55842902D01*
X46409841Y-55842902D02*
X46390794Y-55875893D01*
X46390794Y-55875893D02*
X46385690Y-55960924D01*
X46385690Y-55960924D02*
X46399634Y-56012963D01*
X46399634Y-56012963D02*
X46446569Y-56084050D01*
X46446569Y-56084050D02*
X46578535Y-56160240D01*
X46578535Y-56160240D02*
X46625470Y-56231327D01*
X46625470Y-56231327D02*
X46639414Y-56283366D01*
X46639414Y-56283366D02*
X46634310Y-56368396D01*
X46634310Y-56368396D02*
X46558120Y-56500362D01*
X46558120Y-56500362D02*
X46487033Y-56547297D01*
X46487033Y-56547297D02*
X46434994Y-56561241D01*
X46434994Y-56561241D02*
X46349963Y-56556137D01*
X46349963Y-56556137D02*
X46217997Y-56479947D01*
X46217997Y-56479947D02*
X46171062Y-56408860D01*
X46171062Y-56408860D02*
X46157118Y-56356821D01*
X46157118Y-56356821D02*
X46162222Y-56271791D01*
X46162222Y-56271791D02*
X46238413Y-56139825D01*
X46238413Y-56139825D02*
X46309499Y-56092890D01*
X46309499Y-56092890D02*
X46361538Y-56078946D01*
X46361538Y-56078946D02*
X46446569Y-56084050D01*
X45859194Y-55349031D02*
X46189109Y-55539507D01*
X46189109Y-55539507D02*
X46031624Y-55888470D01*
X46031624Y-55888470D02*
X46017680Y-55836430D01*
X46017680Y-55836430D02*
X45970745Y-55765344D01*
X45970745Y-55765344D02*
X45805787Y-55670106D01*
X45805787Y-55670106D02*
X45720757Y-55665002D01*
X45720757Y-55665002D02*
X45668718Y-55678946D01*
X45668718Y-55678946D02*
X45597631Y-55725881D01*
X45597631Y-55725881D02*
X45502393Y-55890838D01*
X45502393Y-55890838D02*
X45497289Y-55975869D01*
X45497289Y-55975869D02*
X45511233Y-56027908D01*
X45511233Y-56027908D02*
X45558168Y-56098994D01*
X45558168Y-56098994D02*
X45723126Y-56194233D01*
X45723126Y-56194233D02*
X45808156Y-56199336D01*
X45808156Y-56199336D02*
X45860195Y-56185393D01*
X51318571Y-49552295D02*
X51318571Y-49133247D01*
X51318571Y-49133247D02*
X51356666Y-49057057D01*
X51356666Y-49057057D02*
X51432857Y-49018961D01*
X51432857Y-49018961D02*
X51585238Y-49018961D01*
X51585238Y-49018961D02*
X51661428Y-49057057D01*
X51318571Y-49514200D02*
X51394762Y-49552295D01*
X51394762Y-49552295D02*
X51585238Y-49552295D01*
X51585238Y-49552295D02*
X51661428Y-49514200D01*
X51661428Y-49514200D02*
X51699524Y-49438009D01*
X51699524Y-49438009D02*
X51699524Y-49361819D01*
X51699524Y-49361819D02*
X51661428Y-49285628D01*
X51661428Y-49285628D02*
X51585238Y-49247533D01*
X51585238Y-49247533D02*
X51394762Y-49247533D01*
X51394762Y-49247533D02*
X51318571Y-49209438D01*
X47461428Y-48522295D02*
X47461428Y-47722295D01*
X47461428Y-48027057D02*
X47385238Y-47988961D01*
X47385238Y-47988961D02*
X47232857Y-47988961D01*
X47232857Y-47988961D02*
X47156666Y-48027057D01*
X47156666Y-48027057D02*
X47118571Y-48065152D01*
X47118571Y-48065152D02*
X47080476Y-48141342D01*
X47080476Y-48141342D02*
X47080476Y-48369914D01*
X47080476Y-48369914D02*
X47118571Y-48446104D01*
X47118571Y-48446104D02*
X47156666Y-48484200D01*
X47156666Y-48484200D02*
X47232857Y-48522295D01*
X47232857Y-48522295D02*
X47385238Y-48522295D01*
X47385238Y-48522295D02*
X47461428Y-48484200D01*
X49480513Y-56864451D02*
X50069268Y-56706694D01*
X49853768Y-57079950D02*
X49696012Y-56491195D01*
X55414733Y-45693724D02*
X56107554Y-45293724D01*
X55447725Y-45674676D02*
X55452828Y-45759707D01*
X55452828Y-45759707D02*
X55529019Y-45891672D01*
X55529019Y-45891672D02*
X55600106Y-45938608D01*
X55600106Y-45938608D02*
X55652145Y-45952552D01*
X55652145Y-45952552D02*
X55737175Y-45947448D01*
X55737175Y-45947448D02*
X55935124Y-45833162D01*
X55935124Y-45833162D02*
X55982059Y-45762075D01*
X55982059Y-45762075D02*
X55996003Y-45710036D01*
X55996003Y-45710036D02*
X55990899Y-45625006D01*
X55990899Y-45625006D02*
X55914709Y-45493040D01*
X55914709Y-45493040D02*
X55843622Y-45446105D01*
X56409947Y-46350818D02*
X56047041Y-46560342D01*
X56047041Y-46560342D02*
X55962011Y-46565446D01*
X55962011Y-46565446D02*
X55890924Y-46518510D01*
X55890924Y-46518510D02*
X55814733Y-46386545D01*
X55814733Y-46386545D02*
X55809630Y-46301514D01*
X56376956Y-46369866D02*
X56371852Y-46284835D01*
X56371852Y-46284835D02*
X56276614Y-46119878D01*
X56276614Y-46119878D02*
X56205527Y-46072943D01*
X56205527Y-46072943D02*
X56120497Y-46078046D01*
X56120497Y-46078046D02*
X56054514Y-46116142D01*
X56054514Y-46116142D02*
X56007578Y-46187228D01*
X56007578Y-46187228D02*
X56012682Y-46272259D01*
X56012682Y-46272259D02*
X56107920Y-46437216D01*
X56107920Y-46437216D02*
X56113024Y-46522247D01*
X55983794Y-47212699D02*
X56021889Y-47278682D01*
X56021889Y-47278682D02*
X56092976Y-47325617D01*
X56092976Y-47325617D02*
X56145015Y-47339561D01*
X56145015Y-47339561D02*
X56230045Y-47334457D01*
X56230045Y-47334457D02*
X56381059Y-47291258D01*
X56381059Y-47291258D02*
X56546016Y-47196020D01*
X56546016Y-47196020D02*
X56658934Y-47086838D01*
X56658934Y-47086838D02*
X56705869Y-47015751D01*
X56705869Y-47015751D02*
X56719813Y-46963712D01*
X56719813Y-46963712D02*
X56714709Y-46878682D01*
X56714709Y-46878682D02*
X56676614Y-46812699D01*
X56676614Y-46812699D02*
X56605527Y-46765763D01*
X56605527Y-46765763D02*
X56553488Y-46751820D01*
X56553488Y-46751820D02*
X56468458Y-46756923D01*
X56468458Y-46756923D02*
X56317444Y-46800122D01*
X56317444Y-46800122D02*
X56152487Y-46895360D01*
X56152487Y-46895360D02*
X56039569Y-47004542D01*
X56039569Y-47004542D02*
X55992634Y-47075629D01*
X55992634Y-47075629D02*
X55978690Y-47127668D01*
X55978690Y-47127668D02*
X55983794Y-47212699D01*
X44005238Y-51187533D02*
X44614762Y-51187533D01*
X44310000Y-51492295D02*
X44310000Y-50882771D01*
X53448571Y-50422295D02*
X53448571Y-50003247D01*
X53448571Y-50003247D02*
X53486666Y-49927057D01*
X53486666Y-49927057D02*
X53562857Y-49888961D01*
X53562857Y-49888961D02*
X53715238Y-49888961D01*
X53715238Y-49888961D02*
X53791428Y-49927057D01*
X53448571Y-50384200D02*
X53524762Y-50422295D01*
X53524762Y-50422295D02*
X53715238Y-50422295D01*
X53715238Y-50422295D02*
X53791428Y-50384200D01*
X53791428Y-50384200D02*
X53829524Y-50308009D01*
X53829524Y-50308009D02*
X53829524Y-50231819D01*
X53829524Y-50231819D02*
X53791428Y-50155628D01*
X53791428Y-50155628D02*
X53715238Y-50117533D01*
X53715238Y-50117533D02*
X53524762Y-50117533D01*
X53524762Y-50117533D02*
X53448571Y-50079438D01*
X47128571Y-44862295D02*
X47128571Y-44443247D01*
X47128571Y-44443247D02*
X47166666Y-44367057D01*
X47166666Y-44367057D02*
X47242857Y-44328961D01*
X47242857Y-44328961D02*
X47395238Y-44328961D01*
X47395238Y-44328961D02*
X47471428Y-44367057D01*
X47128571Y-44824200D02*
X47204762Y-44862295D01*
X47204762Y-44862295D02*
X47395238Y-44862295D01*
X47395238Y-44862295D02*
X47471428Y-44824200D01*
X47471428Y-44824200D02*
X47509524Y-44748009D01*
X47509524Y-44748009D02*
X47509524Y-44671819D01*
X47509524Y-44671819D02*
X47471428Y-44595628D01*
X47471428Y-44595628D02*
X47395238Y-44557533D01*
X47395238Y-44557533D02*
X47204762Y-44557533D01*
X47204762Y-44557533D02*
X47128571Y-44519438D01*
X44015238Y-47347533D02*
X44624762Y-47347533D01*
X53480513Y-55784451D02*
X54069268Y-55626694D01*
X52888571Y-44842295D02*
X52888571Y-44423247D01*
X52888571Y-44423247D02*
X52926666Y-44347057D01*
X52926666Y-44347057D02*
X53002857Y-44308961D01*
X53002857Y-44308961D02*
X53155238Y-44308961D01*
X53155238Y-44308961D02*
X53231428Y-44347057D01*
X52888571Y-44804200D02*
X52964762Y-44842295D01*
X52964762Y-44842295D02*
X53155238Y-44842295D01*
X53155238Y-44842295D02*
X53231428Y-44804200D01*
X53231428Y-44804200D02*
X53269524Y-44728009D01*
X53269524Y-44728009D02*
X53269524Y-44651819D01*
X53269524Y-44651819D02*
X53231428Y-44575628D01*
X53231428Y-44575628D02*
X53155238Y-44537533D01*
X53155238Y-44537533D02*
X52964762Y-44537533D01*
X52964762Y-44537533D02*
X52888571Y-44499438D01*
X53641428Y-52312295D02*
X53641428Y-51512295D01*
X53641428Y-51817057D02*
X53565238Y-51778961D01*
X53565238Y-51778961D02*
X53412857Y-51778961D01*
X53412857Y-51778961D02*
X53336666Y-51817057D01*
X53336666Y-51817057D02*
X53298571Y-51855152D01*
X53298571Y-51855152D02*
X53260476Y-51931342D01*
X53260476Y-51931342D02*
X53260476Y-52159914D01*
X53260476Y-52159914D02*
X53298571Y-52236104D01*
X53298571Y-52236104D02*
X53336666Y-52274200D01*
X53336666Y-52274200D02*
X53412857Y-52312295D01*
X53412857Y-52312295D02*
X53565238Y-52312295D01*
X53565238Y-52312295D02*
X53641428Y-52274200D01*
X47592856Y-52034200D02*
X47669047Y-52072295D01*
X47669047Y-52072295D02*
X47821428Y-52072295D01*
X47821428Y-52072295D02*
X47897618Y-52034200D01*
X47897618Y-52034200D02*
X47935713Y-51996104D01*
X47935713Y-51996104D02*
X47973809Y-51919914D01*
X47973809Y-51919914D02*
X47973809Y-51691342D01*
X47973809Y-51691342D02*
X47935713Y-51615152D01*
X47935713Y-51615152D02*
X47897618Y-51577057D01*
X47897618Y-51577057D02*
X47821428Y-51538961D01*
X47821428Y-51538961D02*
X47669047Y-51538961D01*
X47669047Y-51538961D02*
X47592856Y-51577057D01*
X47135714Y-52072295D02*
X47211904Y-52034200D01*
X47211904Y-52034200D02*
X47249999Y-51958009D01*
X47249999Y-51958009D02*
X47249999Y-51272295D01*
X46830951Y-52072295D02*
X46830951Y-51272295D01*
X46754761Y-51767533D02*
X46526189Y-52072295D01*
X46526189Y-51538961D02*
X46830951Y-51843723D01*
X56600731Y-49606694D02*
X57189486Y-49764451D01*
X56816231Y-49979950D02*
X56973987Y-49391195D01*
X55400731Y-53536694D02*
X55989486Y-53694451D01*
D11*
X49150000Y-51450000D02*
G75*
G03*
X49150000Y-51450000I-100000J0D01*
G01*
D12*
X52969190Y-48221693D02*
X53121693Y-48069190D01*
X53478307Y-48730810D02*
X53630810Y-48578307D01*
X48657836Y-53510000D02*
X48442164Y-53510000D01*
X48657836Y-52790000D02*
X48442164Y-52790000D01*
X53070000Y-50130000D02*
X52770000Y-50130000D01*
X53070000Y-50130000D02*
X53070000Y-50430000D01*
X49830000Y-50130000D02*
X49830000Y-50430000D01*
X53070000Y-53370000D02*
X53070000Y-53070000D01*
X53070000Y-53370000D02*
X52770000Y-53370000D01*
X49830000Y-53370000D02*
X49830000Y-53070000D01*
X49830000Y-53370000D02*
X50130000Y-53370000D01*
D13*
X48200000Y-48450000D02*
X48200000Y-46237000D01*
X48200000Y-48450000D02*
X49055000Y-48450000D01*
X49433000Y-44200000D02*
X50922000Y-44200000D01*
X52200000Y-48450000D02*
X51300000Y-48450000D01*
X52200000Y-48450000D02*
X52200000Y-46103000D01*
%LPC*%
D14*
X52665925Y-55075000D03*
X52182962Y-55204410D03*
X51699999Y-55333819D03*
X51217036Y-55463229D03*
X50734073Y-55592638D03*
X50251110Y-55722048D03*
D15*
X49050000Y-50840000D03*
X48550000Y-50840000D03*
X48050000Y-50840000D03*
X47550000Y-50840000D03*
X47550000Y-49360000D03*
X48050000Y-49360000D03*
X48550000Y-49360000D03*
X49050000Y-49360000D03*
D16*
X45450000Y-52700000D03*
D17*
X55130000Y-47030000D03*
D18*
X52960589Y-48739411D03*
X53639411Y-48060589D03*
D19*
X49030000Y-53150000D03*
X48070000Y-53150000D03*
D20*
X55011771Y-52648888D03*
X55141181Y-52165925D03*
X55270590Y-51682962D03*
X55400000Y-51199999D03*
X55529409Y-50717036D03*
X55658819Y-50234073D03*
D16*
X45450000Y-51700000D03*
D21*
X45600000Y-48200000D03*
X45600000Y-48700000D03*
X45600000Y-49200000D03*
X45600000Y-49700000D03*
X45600000Y-50200000D03*
X45600000Y-50700000D03*
D22*
X50450000Y-50275000D03*
D23*
X50950000Y-50450000D03*
X51450000Y-50450000D03*
X51950000Y-50450000D03*
D24*
X52450000Y-50275000D03*
D25*
X52925000Y-50750000D03*
D26*
X52750000Y-51250000D03*
X52750000Y-51750000D03*
X52750000Y-52250000D03*
D27*
X52925000Y-52750000D03*
D28*
X52450000Y-53225000D03*
D23*
X51950000Y-53050000D03*
X51450000Y-53050000D03*
X50950000Y-53050000D03*
D29*
X50450000Y-53225000D03*
D30*
X49975000Y-52750000D03*
D26*
X50150000Y-52250000D03*
X50150000Y-51750000D03*
X50150000Y-51250000D03*
D31*
X49975000Y-50750000D03*
D32*
X49700000Y-48775000D03*
X50700000Y-48775000D03*
D33*
X48400000Y-44900000D03*
X52000000Y-44900000D03*
%LPD*%
M02*
