%TF.GenerationSoftware,KiCad,Pcbnew,7.0.7*%
%TF.CreationDate,2024-01-02T23:41:26-05:00*%
%TF.ProjectId,O12encoder,4f313265-6e63-46f6-9465-722e6b696361,1*%
%TF.SameCoordinates,Original*%
%TF.FileFunction,Drillmap*%
%TF.FilePolarity,Positive*%
%FSLAX45Y45*%
G04 Gerber Fmt 4.5, Leading zero omitted, Abs format (unit mm)*
G04 Created by KiCad (PCBNEW 7.0.7) date 2024-01-02 23:41:26*
%MOMM*%
%LPD*%
G01*
G04 APERTURE LIST*
%ADD10C,0.150000*%
%ADD11C,0.200000*%
%ADD12C,0.025000*%
G04 APERTURE END LIST*
D10*
X4744709Y-5752760D02*
G75*
G03*
X4896472Y-5772741I100001J173210D01*
G01*
X4675736Y-5424264D02*
G75*
G03*
X4675736Y-5424264I-100000J0D01*
G01*
X4575736Y-4375736D02*
G75*
G03*
X4375736Y-4575736I4J-200004D01*
G01*
X4896472Y-5772741D02*
X5476028Y-5617449D01*
X5679555Y-4844709D02*
G75*
G03*
X5679555Y-4844709I-100000J0D01*
G01*
X5524264Y-5424264D02*
G75*
G03*
X5524264Y-5424264I-100000J0D01*
G01*
X4375735Y-5424264D02*
G75*
G03*
X4475736Y-5597469I200006J4D01*
G01*
X5617449Y-5476028D02*
X5772741Y-4896472D01*
X5597472Y-4475734D02*
G75*
G03*
X5424264Y-4375736I-173212J-100016D01*
G01*
X4675736Y-4575736D02*
G75*
G03*
X4675736Y-4575736I-100000J0D01*
G01*
X5772743Y-4896473D02*
G75*
G03*
X5752760Y-4744709I-193173J51763D01*
G01*
X4944709Y-5579556D02*
G75*
G03*
X4944709Y-5579556I-100000J0D01*
G01*
X5524264Y-4575736D02*
G75*
G03*
X5524264Y-4575736I-100000J0D01*
G01*
X5424264Y-4375736D02*
X4575736Y-4375736D01*
X5752761Y-4744709D02*
X5597469Y-4475736D01*
X4475736Y-5597469D02*
X4744709Y-5752761D01*
X4375736Y-4575736D02*
X4375736Y-5424264D01*
X5476028Y-5617449D02*
G75*
G03*
X5617449Y-5476028I-51768J193189D01*
G01*
D11*
D12*
X4443500Y-4749500D02*
X4468500Y-4774500D01*
X4468500Y-4749500D02*
X4443500Y-4774500D01*
X4624879Y-4807425D02*
X4649879Y-4832425D01*
X4649879Y-4807425D02*
X4624879Y-4832425D01*
X4652500Y-5127500D02*
X4677500Y-5152500D01*
X4677500Y-5127500D02*
X4652500Y-5152500D01*
X4697500Y-4640500D02*
X4722500Y-4665500D01*
X4722500Y-4640500D02*
X4697500Y-4665500D01*
X4722500Y-5357500D02*
X4747500Y-5382500D01*
X4747500Y-5357500D02*
X4722500Y-5382500D01*
X4797500Y-4645000D02*
X4822500Y-4670000D01*
X4822500Y-4645000D02*
X4797500Y-4670000D01*
X4801500Y-4445500D02*
X4826500Y-4470500D01*
X4826500Y-4445500D02*
X4801500Y-4470500D01*
X4821050Y-5267200D02*
X4846050Y-5292200D01*
X4846050Y-5267200D02*
X4821050Y-5292200D01*
X4856324Y-4831677D02*
X4881324Y-4856677D01*
X4881324Y-4831677D02*
X4856324Y-4856677D01*
X4882500Y-4763500D02*
X4907500Y-4788500D01*
X4907500Y-4763500D02*
X4882500Y-4788500D01*
X4927483Y-5296100D02*
X4952483Y-5321100D01*
X4952483Y-5296100D02*
X4927483Y-5321100D01*
X4935500Y-4663500D02*
X4960500Y-4688500D01*
X4960500Y-4663500D02*
X4935500Y-4688500D01*
X4952500Y-5472500D02*
X4977500Y-5497500D01*
X4977500Y-5472500D02*
X4952500Y-5497500D01*
X4961095Y-5052500D02*
X4986095Y-5077500D01*
X4986095Y-5052500D02*
X4961095Y-5077500D01*
X5037500Y-4707500D02*
X5062500Y-4732500D01*
X5062500Y-4707500D02*
X5037500Y-4732500D01*
X5118512Y-5171524D02*
X5143512Y-5196524D01*
X5143512Y-5171524D02*
X5118512Y-5196524D01*
X5130950Y-4842500D02*
X5155950Y-4867500D01*
X5155950Y-4842500D02*
X5130950Y-4867500D01*
X5149410Y-4621903D02*
X5174410Y-4646903D01*
X5174410Y-4621903D02*
X5149410Y-4646903D01*
X5157500Y-5377500D02*
X5182500Y-5402500D01*
X5182500Y-5377500D02*
X5157500Y-5402500D01*
X5192500Y-5167500D02*
X5217500Y-5192500D01*
X5217500Y-5167500D02*
X5192500Y-5192500D01*
X5222500Y-4947500D02*
X5247500Y-4972500D01*
X5247500Y-4947500D02*
X5222500Y-4972500D01*
X5237500Y-4632500D02*
X5262500Y-4657500D01*
X5262500Y-4632500D02*
X5237500Y-4657500D01*
X5237500Y-4742500D02*
X5262500Y-4767500D01*
X5262500Y-4742500D02*
X5237500Y-4767500D01*
X5342500Y-5107500D02*
X5367500Y-5132500D01*
X5367500Y-5107500D02*
X5342500Y-5132500D01*
X5381450Y-4709090D02*
X5406450Y-4734090D01*
X5406450Y-4709090D02*
X5381450Y-4734090D01*
X5381881Y-5265881D02*
X5406881Y-5290881D01*
X5406881Y-5265881D02*
X5381881Y-5290881D01*
X5385818Y-4863020D02*
X5410818Y-4888020D01*
X5410818Y-4863020D02*
X5385818Y-4888020D01*
X5392500Y-5017500D02*
X5417500Y-5042500D01*
X5417500Y-5017500D02*
X5392500Y-5042500D01*
X5547500Y-5312500D02*
X5572500Y-5337500D01*
X5572500Y-5312500D02*
X5547500Y-5337500D01*
X5606500Y-5009500D02*
X5631500Y-5034500D01*
X5631500Y-5009500D02*
X5606500Y-5034500D01*
D11*
X4629013Y-6098539D02*
X4629013Y-5898539D01*
X4629013Y-5898539D02*
X4676632Y-5898539D01*
X4676632Y-5898539D02*
X4705203Y-5908063D01*
X4705203Y-5908063D02*
X4724251Y-5927110D01*
X4724251Y-5927110D02*
X4733775Y-5946158D01*
X4733775Y-5946158D02*
X4743298Y-5984253D01*
X4743298Y-5984253D02*
X4743298Y-6012824D01*
X4743298Y-6012824D02*
X4733775Y-6050920D01*
X4733775Y-6050920D02*
X4724251Y-6069967D01*
X4724251Y-6069967D02*
X4705203Y-6089015D01*
X4705203Y-6089015D02*
X4676632Y-6098539D01*
X4676632Y-6098539D02*
X4629013Y-6098539D01*
X4829013Y-6098539D02*
X4829013Y-5965205D01*
X4829013Y-6003301D02*
X4838537Y-5984253D01*
X4838537Y-5984253D02*
X4848060Y-5974729D01*
X4848060Y-5974729D02*
X4867108Y-5965205D01*
X4867108Y-5965205D02*
X4886156Y-5965205D01*
X4952822Y-6098539D02*
X4952822Y-5965205D01*
X4952822Y-5898539D02*
X4943298Y-5908063D01*
X4943298Y-5908063D02*
X4952822Y-5917586D01*
X4952822Y-5917586D02*
X4962346Y-5908063D01*
X4962346Y-5908063D02*
X4952822Y-5898539D01*
X4952822Y-5898539D02*
X4952822Y-5917586D01*
X5076632Y-6098539D02*
X5057584Y-6089015D01*
X5057584Y-6089015D02*
X5048060Y-6069967D01*
X5048060Y-6069967D02*
X5048060Y-5898539D01*
X5181394Y-6098539D02*
X5162346Y-6089015D01*
X5162346Y-6089015D02*
X5152822Y-6069967D01*
X5152822Y-6069967D02*
X5152822Y-5898539D01*
X5409965Y-6098539D02*
X5409965Y-5898539D01*
X5409965Y-5898539D02*
X5476632Y-6041396D01*
X5476632Y-6041396D02*
X5543298Y-5898539D01*
X5543298Y-5898539D02*
X5543298Y-6098539D01*
X5724251Y-6098539D02*
X5724251Y-5993777D01*
X5724251Y-5993777D02*
X5714727Y-5974729D01*
X5714727Y-5974729D02*
X5695679Y-5965205D01*
X5695679Y-5965205D02*
X5657584Y-5965205D01*
X5657584Y-5965205D02*
X5638536Y-5974729D01*
X5724251Y-6089015D02*
X5705203Y-6098539D01*
X5705203Y-6098539D02*
X5657584Y-6098539D01*
X5657584Y-6098539D02*
X5638536Y-6089015D01*
X5638536Y-6089015D02*
X5629013Y-6069967D01*
X5629013Y-6069967D02*
X5629013Y-6050920D01*
X5629013Y-6050920D02*
X5638536Y-6031872D01*
X5638536Y-6031872D02*
X5657584Y-6022348D01*
X5657584Y-6022348D02*
X5705203Y-6022348D01*
X5705203Y-6022348D02*
X5724251Y-6012824D01*
X5819489Y-5965205D02*
X5819489Y-6165205D01*
X5819489Y-5974729D02*
X5838536Y-5965205D01*
X5838536Y-5965205D02*
X5876632Y-5965205D01*
X5876632Y-5965205D02*
X5895679Y-5974729D01*
X5895679Y-5974729D02*
X5905203Y-5984253D01*
X5905203Y-5984253D02*
X5914727Y-6003301D01*
X5914727Y-6003301D02*
X5914727Y-6060443D01*
X5914727Y-6060443D02*
X5905203Y-6079491D01*
X5905203Y-6079491D02*
X5895679Y-6089015D01*
X5895679Y-6089015D02*
X5876632Y-6098539D01*
X5876632Y-6098539D02*
X5838536Y-6098539D01*
X5838536Y-6098539D02*
X5819489Y-6089015D01*
X6000441Y-6079491D02*
X6009965Y-6089015D01*
X6009965Y-6089015D02*
X6000441Y-6098539D01*
X6000441Y-6098539D02*
X5990917Y-6089015D01*
X5990917Y-6089015D02*
X6000441Y-6079491D01*
X6000441Y-6079491D02*
X6000441Y-6098539D01*
X6000441Y-5974729D02*
X6009965Y-5984253D01*
X6009965Y-5984253D02*
X6000441Y-5993777D01*
X6000441Y-5993777D02*
X5990917Y-5984253D01*
X5990917Y-5984253D02*
X6000441Y-5974729D01*
X6000441Y-5974729D02*
X6000441Y-5993777D01*
D12*
X4343236Y-6414555D02*
X4368236Y-6439555D01*
X4368236Y-6414555D02*
X4343236Y-6439555D01*
D11*
X4667108Y-6318539D02*
X4686156Y-6318539D01*
X4686156Y-6318539D02*
X4705203Y-6328063D01*
X4705203Y-6328063D02*
X4714727Y-6337586D01*
X4714727Y-6337586D02*
X4724251Y-6356634D01*
X4724251Y-6356634D02*
X4733775Y-6394729D01*
X4733775Y-6394729D02*
X4733775Y-6442348D01*
X4733775Y-6442348D02*
X4724251Y-6480443D01*
X4724251Y-6480443D02*
X4714727Y-6499491D01*
X4714727Y-6499491D02*
X4705203Y-6509015D01*
X4705203Y-6509015D02*
X4686156Y-6518539D01*
X4686156Y-6518539D02*
X4667108Y-6518539D01*
X4667108Y-6518539D02*
X4648060Y-6509015D01*
X4648060Y-6509015D02*
X4638537Y-6499491D01*
X4638537Y-6499491D02*
X4629013Y-6480443D01*
X4629013Y-6480443D02*
X4619489Y-6442348D01*
X4619489Y-6442348D02*
X4619489Y-6394729D01*
X4619489Y-6394729D02*
X4629013Y-6356634D01*
X4629013Y-6356634D02*
X4638537Y-6337586D01*
X4638537Y-6337586D02*
X4648060Y-6328063D01*
X4648060Y-6328063D02*
X4667108Y-6318539D01*
X4819489Y-6499491D02*
X4829013Y-6509015D01*
X4829013Y-6509015D02*
X4819489Y-6518539D01*
X4819489Y-6518539D02*
X4809965Y-6509015D01*
X4809965Y-6509015D02*
X4819489Y-6499491D01*
X4819489Y-6499491D02*
X4819489Y-6518539D01*
X4905203Y-6337586D02*
X4914727Y-6328063D01*
X4914727Y-6328063D02*
X4933775Y-6318539D01*
X4933775Y-6318539D02*
X4981394Y-6318539D01*
X4981394Y-6318539D02*
X5000441Y-6328063D01*
X5000441Y-6328063D02*
X5009965Y-6337586D01*
X5009965Y-6337586D02*
X5019489Y-6356634D01*
X5019489Y-6356634D02*
X5019489Y-6375682D01*
X5019489Y-6375682D02*
X5009965Y-6404253D01*
X5009965Y-6404253D02*
X4895679Y-6518539D01*
X4895679Y-6518539D02*
X5019489Y-6518539D01*
X5200441Y-6318539D02*
X5105203Y-6318539D01*
X5105203Y-6318539D02*
X5095679Y-6413777D01*
X5095679Y-6413777D02*
X5105203Y-6404253D01*
X5105203Y-6404253D02*
X5124251Y-6394729D01*
X5124251Y-6394729D02*
X5171870Y-6394729D01*
X5171870Y-6394729D02*
X5190918Y-6404253D01*
X5190918Y-6404253D02*
X5200441Y-6413777D01*
X5200441Y-6413777D02*
X5209965Y-6432824D01*
X5209965Y-6432824D02*
X5209965Y-6480443D01*
X5209965Y-6480443D02*
X5200441Y-6499491D01*
X5200441Y-6499491D02*
X5190918Y-6509015D01*
X5190918Y-6509015D02*
X5171870Y-6518539D01*
X5171870Y-6518539D02*
X5124251Y-6518539D01*
X5124251Y-6518539D02*
X5105203Y-6509015D01*
X5105203Y-6509015D02*
X5095679Y-6499491D01*
X5333775Y-6318539D02*
X5352822Y-6318539D01*
X5352822Y-6318539D02*
X5371870Y-6328063D01*
X5371870Y-6328063D02*
X5381394Y-6337586D01*
X5381394Y-6337586D02*
X5390918Y-6356634D01*
X5390918Y-6356634D02*
X5400441Y-6394729D01*
X5400441Y-6394729D02*
X5400441Y-6442348D01*
X5400441Y-6442348D02*
X5390918Y-6480443D01*
X5390918Y-6480443D02*
X5381394Y-6499491D01*
X5381394Y-6499491D02*
X5371870Y-6509015D01*
X5371870Y-6509015D02*
X5352822Y-6518539D01*
X5352822Y-6518539D02*
X5333775Y-6518539D01*
X5333775Y-6518539D02*
X5314727Y-6509015D01*
X5314727Y-6509015D02*
X5305203Y-6499491D01*
X5305203Y-6499491D02*
X5295679Y-6480443D01*
X5295679Y-6480443D02*
X5286156Y-6442348D01*
X5286156Y-6442348D02*
X5286156Y-6394729D01*
X5286156Y-6394729D02*
X5295679Y-6356634D01*
X5295679Y-6356634D02*
X5305203Y-6337586D01*
X5305203Y-6337586D02*
X5314727Y-6328063D01*
X5314727Y-6328063D02*
X5333775Y-6318539D01*
X5486156Y-6518539D02*
X5486156Y-6385205D01*
X5486156Y-6404253D02*
X5495679Y-6394729D01*
X5495679Y-6394729D02*
X5514727Y-6385205D01*
X5514727Y-6385205D02*
X5543299Y-6385205D01*
X5543299Y-6385205D02*
X5562346Y-6394729D01*
X5562346Y-6394729D02*
X5571870Y-6413777D01*
X5571870Y-6413777D02*
X5571870Y-6518539D01*
X5571870Y-6413777D02*
X5581394Y-6394729D01*
X5581394Y-6394729D02*
X5600441Y-6385205D01*
X5600441Y-6385205D02*
X5629013Y-6385205D01*
X5629013Y-6385205D02*
X5648060Y-6394729D01*
X5648060Y-6394729D02*
X5657584Y-6413777D01*
X5657584Y-6413777D02*
X5657584Y-6518539D01*
X5752822Y-6518539D02*
X5752822Y-6385205D01*
X5752822Y-6404253D02*
X5762346Y-6394729D01*
X5762346Y-6394729D02*
X5781394Y-6385205D01*
X5781394Y-6385205D02*
X5809965Y-6385205D01*
X5809965Y-6385205D02*
X5829013Y-6394729D01*
X5829013Y-6394729D02*
X5838537Y-6413777D01*
X5838537Y-6413777D02*
X5838537Y-6518539D01*
X5838537Y-6413777D02*
X5848060Y-6394729D01*
X5848060Y-6394729D02*
X5867108Y-6385205D01*
X5867108Y-6385205D02*
X5895679Y-6385205D01*
X5895679Y-6385205D02*
X5914727Y-6394729D01*
X5914727Y-6394729D02*
X5924251Y-6413777D01*
X5924251Y-6413777D02*
X5924251Y-6518539D01*
X6314727Y-6309015D02*
X6143299Y-6566158D01*
X6571870Y-6318539D02*
X6590918Y-6318539D01*
X6590918Y-6318539D02*
X6609965Y-6328063D01*
X6609965Y-6328063D02*
X6619489Y-6337586D01*
X6619489Y-6337586D02*
X6629013Y-6356634D01*
X6629013Y-6356634D02*
X6638537Y-6394729D01*
X6638537Y-6394729D02*
X6638537Y-6442348D01*
X6638537Y-6442348D02*
X6629013Y-6480443D01*
X6629013Y-6480443D02*
X6619489Y-6499491D01*
X6619489Y-6499491D02*
X6609965Y-6509015D01*
X6609965Y-6509015D02*
X6590918Y-6518539D01*
X6590918Y-6518539D02*
X6571870Y-6518539D01*
X6571870Y-6518539D02*
X6552822Y-6509015D01*
X6552822Y-6509015D02*
X6543299Y-6499491D01*
X6543299Y-6499491D02*
X6533775Y-6480443D01*
X6533775Y-6480443D02*
X6524251Y-6442348D01*
X6524251Y-6442348D02*
X6524251Y-6394729D01*
X6524251Y-6394729D02*
X6533775Y-6356634D01*
X6533775Y-6356634D02*
X6543299Y-6337586D01*
X6543299Y-6337586D02*
X6552822Y-6328063D01*
X6552822Y-6328063D02*
X6571870Y-6318539D01*
X6724251Y-6499491D02*
X6733775Y-6509015D01*
X6733775Y-6509015D02*
X6724251Y-6518539D01*
X6724251Y-6518539D02*
X6714727Y-6509015D01*
X6714727Y-6509015D02*
X6724251Y-6499491D01*
X6724251Y-6499491D02*
X6724251Y-6518539D01*
X6857584Y-6318539D02*
X6876632Y-6318539D01*
X6876632Y-6318539D02*
X6895680Y-6328063D01*
X6895680Y-6328063D02*
X6905203Y-6337586D01*
X6905203Y-6337586D02*
X6914727Y-6356634D01*
X6914727Y-6356634D02*
X6924251Y-6394729D01*
X6924251Y-6394729D02*
X6924251Y-6442348D01*
X6924251Y-6442348D02*
X6914727Y-6480443D01*
X6914727Y-6480443D02*
X6905203Y-6499491D01*
X6905203Y-6499491D02*
X6895680Y-6509015D01*
X6895680Y-6509015D02*
X6876632Y-6518539D01*
X6876632Y-6518539D02*
X6857584Y-6518539D01*
X6857584Y-6518539D02*
X6838537Y-6509015D01*
X6838537Y-6509015D02*
X6829013Y-6499491D01*
X6829013Y-6499491D02*
X6819489Y-6480443D01*
X6819489Y-6480443D02*
X6809965Y-6442348D01*
X6809965Y-6442348D02*
X6809965Y-6394729D01*
X6809965Y-6394729D02*
X6819489Y-6356634D01*
X6819489Y-6356634D02*
X6829013Y-6337586D01*
X6829013Y-6337586D02*
X6838537Y-6328063D01*
X6838537Y-6328063D02*
X6857584Y-6318539D01*
X7048060Y-6318539D02*
X7067108Y-6318539D01*
X7067108Y-6318539D02*
X7086156Y-6328063D01*
X7086156Y-6328063D02*
X7095680Y-6337586D01*
X7095680Y-6337586D02*
X7105203Y-6356634D01*
X7105203Y-6356634D02*
X7114727Y-6394729D01*
X7114727Y-6394729D02*
X7114727Y-6442348D01*
X7114727Y-6442348D02*
X7105203Y-6480443D01*
X7105203Y-6480443D02*
X7095680Y-6499491D01*
X7095680Y-6499491D02*
X7086156Y-6509015D01*
X7086156Y-6509015D02*
X7067108Y-6518539D01*
X7067108Y-6518539D02*
X7048060Y-6518539D01*
X7048060Y-6518539D02*
X7029013Y-6509015D01*
X7029013Y-6509015D02*
X7019489Y-6499491D01*
X7019489Y-6499491D02*
X7009965Y-6480443D01*
X7009965Y-6480443D02*
X7000441Y-6442348D01*
X7000441Y-6442348D02*
X7000441Y-6394729D01*
X7000441Y-6394729D02*
X7009965Y-6356634D01*
X7009965Y-6356634D02*
X7019489Y-6337586D01*
X7019489Y-6337586D02*
X7029013Y-6328063D01*
X7029013Y-6328063D02*
X7048060Y-6318539D01*
X7209965Y-6518539D02*
X7248060Y-6518539D01*
X7248060Y-6518539D02*
X7267108Y-6509015D01*
X7267108Y-6509015D02*
X7276632Y-6499491D01*
X7276632Y-6499491D02*
X7295680Y-6470920D01*
X7295680Y-6470920D02*
X7305203Y-6432824D01*
X7305203Y-6432824D02*
X7305203Y-6356634D01*
X7305203Y-6356634D02*
X7295680Y-6337586D01*
X7295680Y-6337586D02*
X7286156Y-6328063D01*
X7286156Y-6328063D02*
X7267108Y-6318539D01*
X7267108Y-6318539D02*
X7229013Y-6318539D01*
X7229013Y-6318539D02*
X7209965Y-6328063D01*
X7209965Y-6328063D02*
X7200441Y-6337586D01*
X7200441Y-6337586D02*
X7190918Y-6356634D01*
X7190918Y-6356634D02*
X7190918Y-6404253D01*
X7190918Y-6404253D02*
X7200441Y-6423301D01*
X7200441Y-6423301D02*
X7209965Y-6432824D01*
X7209965Y-6432824D02*
X7229013Y-6442348D01*
X7229013Y-6442348D02*
X7267108Y-6442348D01*
X7267108Y-6442348D02*
X7286156Y-6432824D01*
X7286156Y-6432824D02*
X7295680Y-6423301D01*
X7295680Y-6423301D02*
X7305203Y-6404253D01*
X7419489Y-6404253D02*
X7400441Y-6394729D01*
X7400441Y-6394729D02*
X7390918Y-6385205D01*
X7390918Y-6385205D02*
X7381394Y-6366158D01*
X7381394Y-6366158D02*
X7381394Y-6356634D01*
X7381394Y-6356634D02*
X7390918Y-6337586D01*
X7390918Y-6337586D02*
X7400441Y-6328063D01*
X7400441Y-6328063D02*
X7419489Y-6318539D01*
X7419489Y-6318539D02*
X7457584Y-6318539D01*
X7457584Y-6318539D02*
X7476632Y-6328063D01*
X7476632Y-6328063D02*
X7486156Y-6337586D01*
X7486156Y-6337586D02*
X7495680Y-6356634D01*
X7495680Y-6356634D02*
X7495680Y-6366158D01*
X7495680Y-6366158D02*
X7486156Y-6385205D01*
X7486156Y-6385205D02*
X7476632Y-6394729D01*
X7476632Y-6394729D02*
X7457584Y-6404253D01*
X7457584Y-6404253D02*
X7419489Y-6404253D01*
X7419489Y-6404253D02*
X7400441Y-6413777D01*
X7400441Y-6413777D02*
X7390918Y-6423301D01*
X7390918Y-6423301D02*
X7381394Y-6442348D01*
X7381394Y-6442348D02*
X7381394Y-6480443D01*
X7381394Y-6480443D02*
X7390918Y-6499491D01*
X7390918Y-6499491D02*
X7400441Y-6509015D01*
X7400441Y-6509015D02*
X7419489Y-6518539D01*
X7419489Y-6518539D02*
X7457584Y-6518539D01*
X7457584Y-6518539D02*
X7476632Y-6509015D01*
X7476632Y-6509015D02*
X7486156Y-6499491D01*
X7486156Y-6499491D02*
X7495680Y-6480443D01*
X7495680Y-6480443D02*
X7495680Y-6442348D01*
X7495680Y-6442348D02*
X7486156Y-6423301D01*
X7486156Y-6423301D02*
X7476632Y-6413777D01*
X7476632Y-6413777D02*
X7457584Y-6404253D01*
X7571870Y-6318539D02*
X7571870Y-6356634D01*
X7648061Y-6318539D02*
X7648061Y-6356634D01*
X7943299Y-6594729D02*
X7933775Y-6585205D01*
X7933775Y-6585205D02*
X7914727Y-6556634D01*
X7914727Y-6556634D02*
X7905203Y-6537586D01*
X7905203Y-6537586D02*
X7895680Y-6509015D01*
X7895680Y-6509015D02*
X7886156Y-6461396D01*
X7886156Y-6461396D02*
X7886156Y-6423301D01*
X7886156Y-6423301D02*
X7895680Y-6375682D01*
X7895680Y-6375682D02*
X7905203Y-6347110D01*
X7905203Y-6347110D02*
X7914727Y-6328063D01*
X7914727Y-6328063D02*
X7933775Y-6299491D01*
X7933775Y-6299491D02*
X7943299Y-6289967D01*
X8000442Y-6318539D02*
X8124251Y-6318539D01*
X8124251Y-6318539D02*
X8057584Y-6394729D01*
X8057584Y-6394729D02*
X8086156Y-6394729D01*
X8086156Y-6394729D02*
X8105203Y-6404253D01*
X8105203Y-6404253D02*
X8114727Y-6413777D01*
X8114727Y-6413777D02*
X8124251Y-6432824D01*
X8124251Y-6432824D02*
X8124251Y-6480443D01*
X8124251Y-6480443D02*
X8114727Y-6499491D01*
X8114727Y-6499491D02*
X8105203Y-6509015D01*
X8105203Y-6509015D02*
X8086156Y-6518539D01*
X8086156Y-6518539D02*
X8029013Y-6518539D01*
X8029013Y-6518539D02*
X8009965Y-6509015D01*
X8009965Y-6509015D02*
X8000442Y-6499491D01*
X8248061Y-6318539D02*
X8267108Y-6318539D01*
X8267108Y-6318539D02*
X8286156Y-6328063D01*
X8286156Y-6328063D02*
X8295680Y-6337586D01*
X8295680Y-6337586D02*
X8305203Y-6356634D01*
X8305203Y-6356634D02*
X8314727Y-6394729D01*
X8314727Y-6394729D02*
X8314727Y-6442348D01*
X8314727Y-6442348D02*
X8305203Y-6480443D01*
X8305203Y-6480443D02*
X8295680Y-6499491D01*
X8295680Y-6499491D02*
X8286156Y-6509015D01*
X8286156Y-6509015D02*
X8267108Y-6518539D01*
X8267108Y-6518539D02*
X8248061Y-6518539D01*
X8248061Y-6518539D02*
X8229013Y-6509015D01*
X8229013Y-6509015D02*
X8219489Y-6499491D01*
X8219489Y-6499491D02*
X8209965Y-6480443D01*
X8209965Y-6480443D02*
X8200442Y-6442348D01*
X8200442Y-6442348D02*
X8200442Y-6394729D01*
X8200442Y-6394729D02*
X8209965Y-6356634D01*
X8209965Y-6356634D02*
X8219489Y-6337586D01*
X8219489Y-6337586D02*
X8229013Y-6328063D01*
X8229013Y-6328063D02*
X8248061Y-6318539D01*
X8552823Y-6518539D02*
X8552823Y-6318539D01*
X8638537Y-6518539D02*
X8638537Y-6413777D01*
X8638537Y-6413777D02*
X8629013Y-6394729D01*
X8629013Y-6394729D02*
X8609966Y-6385205D01*
X8609966Y-6385205D02*
X8581394Y-6385205D01*
X8581394Y-6385205D02*
X8562346Y-6394729D01*
X8562346Y-6394729D02*
X8552823Y-6404253D01*
X8762346Y-6518539D02*
X8743299Y-6509015D01*
X8743299Y-6509015D02*
X8733775Y-6499491D01*
X8733775Y-6499491D02*
X8724251Y-6480443D01*
X8724251Y-6480443D02*
X8724251Y-6423301D01*
X8724251Y-6423301D02*
X8733775Y-6404253D01*
X8733775Y-6404253D02*
X8743299Y-6394729D01*
X8743299Y-6394729D02*
X8762346Y-6385205D01*
X8762346Y-6385205D02*
X8790918Y-6385205D01*
X8790918Y-6385205D02*
X8809966Y-6394729D01*
X8809966Y-6394729D02*
X8819489Y-6404253D01*
X8819489Y-6404253D02*
X8829013Y-6423301D01*
X8829013Y-6423301D02*
X8829013Y-6480443D01*
X8829013Y-6480443D02*
X8819489Y-6499491D01*
X8819489Y-6499491D02*
X8809966Y-6509015D01*
X8809966Y-6509015D02*
X8790918Y-6518539D01*
X8790918Y-6518539D02*
X8762346Y-6518539D01*
X8943299Y-6518539D02*
X8924251Y-6509015D01*
X8924251Y-6509015D02*
X8914727Y-6489967D01*
X8914727Y-6489967D02*
X8914727Y-6318539D01*
X9095680Y-6509015D02*
X9076632Y-6518539D01*
X9076632Y-6518539D02*
X9038537Y-6518539D01*
X9038537Y-6518539D02*
X9019489Y-6509015D01*
X9019489Y-6509015D02*
X9009966Y-6489967D01*
X9009966Y-6489967D02*
X9009966Y-6413777D01*
X9009966Y-6413777D02*
X9019489Y-6394729D01*
X9019489Y-6394729D02*
X9038537Y-6385205D01*
X9038537Y-6385205D02*
X9076632Y-6385205D01*
X9076632Y-6385205D02*
X9095680Y-6394729D01*
X9095680Y-6394729D02*
X9105204Y-6413777D01*
X9105204Y-6413777D02*
X9105204Y-6432824D01*
X9105204Y-6432824D02*
X9009966Y-6451872D01*
X9181394Y-6509015D02*
X9200442Y-6518539D01*
X9200442Y-6518539D02*
X9238537Y-6518539D01*
X9238537Y-6518539D02*
X9257585Y-6509015D01*
X9257585Y-6509015D02*
X9267108Y-6489967D01*
X9267108Y-6489967D02*
X9267108Y-6480443D01*
X9267108Y-6480443D02*
X9257585Y-6461396D01*
X9257585Y-6461396D02*
X9238537Y-6451872D01*
X9238537Y-6451872D02*
X9209966Y-6451872D01*
X9209966Y-6451872D02*
X9190918Y-6442348D01*
X9190918Y-6442348D02*
X9181394Y-6423301D01*
X9181394Y-6423301D02*
X9181394Y-6413777D01*
X9181394Y-6413777D02*
X9190918Y-6394729D01*
X9190918Y-6394729D02*
X9209966Y-6385205D01*
X9209966Y-6385205D02*
X9238537Y-6385205D01*
X9238537Y-6385205D02*
X9257585Y-6394729D01*
X9333775Y-6594729D02*
X9343299Y-6585205D01*
X9343299Y-6585205D02*
X9362347Y-6556634D01*
X9362347Y-6556634D02*
X9371870Y-6537586D01*
X9371870Y-6537586D02*
X9381394Y-6509015D01*
X9381394Y-6509015D02*
X9390918Y-6461396D01*
X9390918Y-6461396D02*
X9390918Y-6423301D01*
X9390918Y-6423301D02*
X9381394Y-6375682D01*
X9381394Y-6375682D02*
X9371870Y-6347110D01*
X9371870Y-6347110D02*
X9362347Y-6328063D01*
X9362347Y-6328063D02*
X9343299Y-6299491D01*
X9343299Y-6299491D02*
X9333775Y-6289967D01*
M02*
