G04 #@! TF.GenerationSoftware,KiCad,Pcbnew,7.0.7*
G04 #@! TF.CreationDate,2024-08-09T21:04:11-05:00*
G04 #@! TF.ProjectId,O32controller,4f333263-6f6e-4747-926f-6c6c65722e6b,3.1*
G04 #@! TF.SameCoordinates,Original*
G04 #@! TF.FileFunction,Copper,L2,Inr*
G04 #@! TF.FilePolarity,Positive*
%FSLAX46Y46*%
G04 Gerber Fmt 4.6, Leading zero omitted, Abs format (unit mm)*
G04 Created by KiCad (PCBNEW 7.0.7) date 2024-08-09 21:04:11*
%MOMM*%
%LPD*%
G01*
G04 APERTURE LIST*
G04 Aperture macros list*
%AMRoundRect*
0 Rectangle with rounded corners*
0 $1 Rounding radius*
0 $2 $3 $4 $5 $6 $7 $8 $9 X,Y pos of 4 corners*
0 Add a 4 corners polygon primitive as box body*
4,1,4,$2,$3,$4,$5,$6,$7,$8,$9,$2,$3,0*
0 Add four circle primitives for the rounded corners*
1,1,$1+$1,$2,$3*
1,1,$1+$1,$4,$5*
1,1,$1+$1,$6,$7*
1,1,$1+$1,$8,$9*
0 Add four rect primitives between the rounded corners*
20,1,$1+$1,$2,$3,$4,$5,0*
20,1,$1+$1,$4,$5,$6,$7,0*
20,1,$1+$1,$6,$7,$8,$9,0*
20,1,$1+$1,$8,$9,$2,$3,0*%
G04 Aperture macros list end*
G04 #@! TA.AperFunction,ComponentPad*
%ADD10RoundRect,0.269607X-1.105393X-1.105393X1.105393X-1.105393X1.105393X1.105393X-1.105393X1.105393X0*%
G04 #@! TD*
G04 #@! TA.AperFunction,ViaPad*
%ADD11C,0.550000*%
G04 #@! TD*
G04 #@! TA.AperFunction,Conductor*
%ADD12C,0.250000*%
G04 #@! TD*
G04 #@! TA.AperFunction,Conductor*
%ADD13C,0.500000*%
G04 #@! TD*
G04 #@! TA.AperFunction,Conductor*
%ADD14C,0.200000*%
G04 #@! TD*
G04 APERTURE END LIST*
D10*
X61850000Y-53550000D03*
X61850000Y-49750000D03*
X56450000Y-38100000D03*
X61850000Y-46350000D03*
X61850000Y-42550000D03*
X56450000Y-61900000D03*
X61850000Y-56950000D03*
D11*
X39395600Y-56286400D03*
X39763615Y-57645585D03*
X41173600Y-57784502D03*
X50700000Y-57550000D03*
X58550000Y-60650000D03*
X49450000Y-45200000D03*
X57450000Y-46150000D03*
X58450000Y-39300000D03*
X49408628Y-41258628D03*
X55050000Y-57000000D03*
X49500000Y-60200000D03*
X55050000Y-59450000D03*
X56450000Y-41700000D03*
X56450000Y-50000000D03*
X55050000Y-43000000D03*
X47650000Y-39900000D03*
X56400000Y-56950000D03*
X56450000Y-54550000D03*
X56450000Y-45450000D03*
X56450000Y-51350000D03*
X55050000Y-50000000D03*
X56450000Y-47550000D03*
X56450000Y-43000000D03*
X56450000Y-40550000D03*
X44650000Y-59300000D03*
X56450000Y-59450000D03*
X55050000Y-58300000D03*
X56450000Y-58300000D03*
X55050000Y-44350000D03*
X55450000Y-45250000D03*
X56450000Y-48700000D03*
X40350000Y-49850000D03*
X51500000Y-60200000D03*
X43866000Y-56642000D03*
X55050000Y-41700000D03*
X55050000Y-48700000D03*
X47500000Y-60200000D03*
X56450000Y-44300000D03*
X45500000Y-60200000D03*
X55350000Y-47750000D03*
X44500000Y-39900000D03*
X55050000Y-55700000D03*
X56450000Y-52450000D03*
X49775000Y-39950000D03*
X55050000Y-51350000D03*
X56450000Y-55700000D03*
X39250000Y-43000000D03*
X39000000Y-41050000D03*
X47050000Y-55850000D03*
X40750000Y-45150000D03*
X39695591Y-52292587D03*
X37540500Y-54508400D03*
X37262000Y-51650000D03*
X40500000Y-59350000D03*
X47450000Y-43475000D03*
X41350000Y-46482000D03*
X40650000Y-46634400D03*
X47300000Y-44300000D03*
X40659364Y-50697700D03*
X43750000Y-58200000D03*
X46080000Y-54870000D03*
X48300000Y-43500000D03*
X46800000Y-54800000D03*
X49425000Y-42025000D03*
X49600000Y-43700000D03*
X48550000Y-54400000D03*
X53000000Y-62150000D03*
X38939100Y-50300858D03*
X49375000Y-55100000D03*
X50250000Y-37850000D03*
X44900000Y-58200000D03*
X42350000Y-37850000D03*
X46300000Y-37850000D03*
X47300000Y-42475000D03*
X37350000Y-45350000D03*
X44350000Y-37850000D03*
X41325500Y-54174500D03*
X37400000Y-59275000D03*
X50950000Y-62150000D03*
X47300000Y-58200000D03*
X43575000Y-59475000D03*
X51350000Y-46850000D03*
X45350000Y-41875000D03*
X43950000Y-45500000D03*
X47000000Y-62100000D03*
X52250000Y-37850000D03*
X45750000Y-54200000D03*
X39649600Y-55524400D03*
X37100000Y-40200000D03*
X50200000Y-45150000D03*
X48300000Y-37850000D03*
X39750500Y-53109763D03*
X45000000Y-62100000D03*
X39968945Y-50534250D03*
X43000000Y-62100000D03*
X49750000Y-58200000D03*
X48950000Y-62150000D03*
X43100000Y-41875000D03*
X46800000Y-45675000D03*
X46925000Y-48125000D03*
X49500000Y-55825000D03*
X43866000Y-47599600D03*
X49200000Y-56475000D03*
X43035561Y-47549500D03*
X57900000Y-46850000D03*
X52080000Y-47040000D03*
X52700000Y-52750000D03*
X57900000Y-53650000D03*
X50650000Y-55150000D03*
X59350000Y-59750000D03*
X52050000Y-45950000D03*
X59700000Y-46450000D03*
X47450000Y-51350000D03*
X51350000Y-52050000D03*
X59700000Y-53500000D03*
X59400000Y-59000000D03*
X47400000Y-52250000D03*
X52340000Y-41200000D03*
X52810000Y-43090000D03*
X52340000Y-43360000D03*
X53270000Y-44440000D03*
X52340000Y-43900000D03*
X52810000Y-43630000D03*
X52810000Y-42550000D03*
X53730000Y-44170000D03*
X51870000Y-43090000D03*
X52810000Y-40390000D03*
X52340000Y-42820000D03*
X51870000Y-40930000D03*
X51870000Y-41470000D03*
X52810000Y-40930000D03*
X52810000Y-44170000D03*
X51870000Y-40390000D03*
X53270000Y-43900000D03*
X52810000Y-41470000D03*
X52340000Y-40660000D03*
X52810000Y-42010000D03*
X52340000Y-42280000D03*
X51870000Y-43630000D03*
X51870000Y-42010000D03*
X51870000Y-44170000D03*
X51870000Y-42550000D03*
X52340000Y-44430000D03*
X52340000Y-41740000D03*
X46150000Y-48100000D03*
X53630000Y-51350000D03*
X52700000Y-48100000D03*
X52710000Y-50790000D03*
X53170000Y-48370000D03*
X53160000Y-51610000D03*
X52710000Y-49180000D03*
X53640000Y-47580000D03*
X53180000Y-50530000D03*
X51760000Y-48650000D03*
X53180000Y-49990000D03*
X52230000Y-48920000D03*
X53180000Y-48900000D03*
X52700000Y-48650000D03*
X52710000Y-50250000D03*
X52240000Y-49450000D03*
X52230000Y-48380000D03*
X53170000Y-47840000D03*
X53180000Y-51070000D03*
X53170000Y-47310000D03*
X52700000Y-47570000D03*
X52710000Y-49710000D03*
X52240000Y-50510000D03*
X52700000Y-51320000D03*
X52230000Y-51050000D03*
X53180000Y-49450000D03*
X52230000Y-49980000D03*
X52790000Y-56540000D03*
X52790000Y-56000000D03*
X51840000Y-55460000D03*
X52320000Y-55720000D03*
X52320000Y-56800000D03*
X52790000Y-57070000D03*
X53250000Y-58400000D03*
X52780000Y-57600000D03*
X52310000Y-58390000D03*
X52320000Y-55190000D03*
X52320000Y-56260000D03*
X51850000Y-56530000D03*
X51850000Y-57060000D03*
X51840000Y-56000000D03*
X52790000Y-54930000D03*
X51840000Y-54930000D03*
X52320000Y-57330000D03*
X52790000Y-58130000D03*
X51850000Y-57590000D03*
X52780000Y-54400000D03*
X51840000Y-58120000D03*
X53250000Y-57860000D03*
X52310000Y-57860000D03*
X52310000Y-54660000D03*
X51830000Y-54400000D03*
X53710000Y-58130000D03*
X52790000Y-55460000D03*
X40000000Y-49150000D03*
X50050000Y-52600000D03*
X39249115Y-44025245D03*
X40450000Y-44450000D03*
X40450000Y-42800000D03*
X45100000Y-52300000D03*
X44408181Y-52470879D03*
X47350000Y-50600000D03*
X46050000Y-45550000D03*
X41626500Y-53040500D03*
X39750000Y-53900000D03*
X44650000Y-43525000D03*
X46550000Y-47450000D03*
D12*
X46836827Y-56450000D02*
X48425000Y-56450000D01*
X48975000Y-55900000D02*
X49425000Y-55900000D01*
X45150000Y-54763173D02*
X46836827Y-56450000D01*
X45150000Y-54450572D02*
X45150000Y-54763173D01*
X43866000Y-52210320D02*
X43848681Y-52227639D01*
X43866000Y-47599600D02*
X43866000Y-52210320D01*
X43848681Y-53149253D02*
X45150000Y-54450572D01*
X49425000Y-55900000D02*
X49500000Y-55825000D01*
X43848681Y-52227639D02*
X43848681Y-53149253D01*
X48425000Y-56450000D02*
X48975000Y-55900000D01*
X44650000Y-43525000D02*
X43845172Y-43525000D01*
X37543000Y-49045800D02*
X37543000Y-51139040D01*
X38100000Y-51696040D02*
X38100000Y-52400000D01*
X40767440Y-45725000D02*
X40090000Y-46402440D01*
X39600000Y-53900000D02*
X39750000Y-53900000D01*
X43845172Y-43525000D02*
X41645172Y-45725000D01*
X40090000Y-46402440D02*
X40090000Y-46498800D01*
X41645172Y-45725000D02*
X40767440Y-45725000D01*
X37543000Y-51139040D02*
X38100000Y-51696040D01*
X40090000Y-46498800D02*
X37543000Y-49045800D01*
X38100000Y-52400000D02*
X39600000Y-53900000D01*
X46550000Y-47450000D02*
X46550000Y-47250000D01*
X38647388Y-51663600D02*
X39933372Y-51663600D01*
X46550000Y-47250000D02*
X45782000Y-46482000D01*
X39716628Y-47452000D02*
X37953000Y-49215628D01*
X45782000Y-46482000D02*
X42684224Y-46482000D01*
X42684224Y-46482000D02*
X42335001Y-46831223D01*
X41173600Y-57607200D02*
X41173600Y-57784502D01*
X42335001Y-46831223D02*
X42335001Y-46868787D01*
X42335001Y-46868787D02*
X41751788Y-47452000D01*
X41751788Y-47452000D02*
X39716628Y-47452000D01*
X37953000Y-49215628D02*
X37953000Y-50969212D01*
X37953000Y-50969212D02*
X38647388Y-51663600D01*
X39933372Y-51663600D02*
X40310000Y-52040228D01*
X40310000Y-52040228D02*
X40310000Y-56743600D01*
X40310000Y-56743600D02*
X41173600Y-57607200D01*
X39763615Y-57645585D02*
X40462532Y-58344502D01*
X40005200Y-51155600D02*
X38735200Y-51155600D01*
X40462532Y-58344502D02*
X41405560Y-58344502D01*
X40767200Y-51917600D02*
X40005200Y-51155600D01*
X41783200Y-57966862D02*
X41783200Y-57602142D01*
X41783200Y-57602142D02*
X40765500Y-56584442D01*
X40765500Y-56584442D02*
X40765500Y-52427300D01*
X41405560Y-58344502D02*
X41783200Y-57966862D01*
X40767200Y-52425600D02*
X40767200Y-51917600D01*
X40765500Y-52427300D02*
X40767200Y-52425600D01*
X38735200Y-51155600D02*
X38379600Y-50800000D01*
X38379600Y-50800000D02*
X38379600Y-49368856D01*
X38379600Y-49368856D02*
X39886456Y-47862000D01*
X39886456Y-47862000D02*
X41921616Y-47862000D01*
X41921616Y-47862000D02*
X42793616Y-46990000D01*
X42793616Y-46990000D02*
X45040000Y-46990000D01*
X45040000Y-46990000D02*
X46150000Y-48100000D01*
X40350000Y-49850000D02*
X40680800Y-49850000D01*
X40680800Y-49850000D02*
X42596000Y-51765200D01*
X42596000Y-51765200D02*
X42596000Y-53690631D01*
X42697600Y-53792231D02*
X42697600Y-56261204D01*
X42596000Y-53690631D02*
X42697600Y-53792231D01*
X42697600Y-56261204D02*
X43472198Y-57035802D01*
X49760000Y-56488400D02*
X49760000Y-56706960D01*
X50050000Y-55636827D02*
X50225000Y-55811827D01*
X49760000Y-56706960D02*
X49116960Y-57350000D01*
X50225000Y-55811827D02*
X50225000Y-56023400D01*
X49116960Y-57350000D02*
X46520172Y-57350000D01*
X50225000Y-56023400D02*
X49760000Y-56488400D01*
X50050000Y-52600000D02*
X50050000Y-55636827D01*
X46520172Y-57350000D02*
X43662800Y-54492628D01*
X43662800Y-54492628D02*
X43662800Y-54183403D01*
X43028681Y-51486681D02*
X40692000Y-49150000D01*
X43662800Y-54183403D02*
X43028681Y-53549284D01*
X43028681Y-53549284D02*
X43028681Y-51486681D01*
X40692000Y-49150000D02*
X40000000Y-49150000D01*
X44650000Y-59300000D02*
X44650000Y-58797600D01*
X44650000Y-58797600D02*
X44327400Y-58475000D01*
X44327400Y-58475000D02*
X44325000Y-58475000D01*
X44325000Y-58475000D02*
X44325000Y-57888604D01*
X44325000Y-57888604D02*
X43472198Y-57035802D01*
X43035561Y-47549500D02*
X43035561Y-47827521D01*
X46650000Y-56900000D02*
X48782576Y-56900000D01*
X48782576Y-56900000D02*
X49200000Y-56482576D01*
X43035561Y-47827521D02*
X43438681Y-48230641D01*
X43438681Y-53319081D02*
X44700000Y-54580400D01*
X44700000Y-54950000D02*
X46650000Y-56900000D01*
X49200000Y-56482576D02*
X49200000Y-56475000D01*
X44700000Y-54580400D02*
X44700000Y-54950000D01*
X43438681Y-48230641D02*
X43438681Y-53319081D01*
D13*
X37525000Y-51913000D02*
X37525000Y-56375000D01*
X39350000Y-46482196D02*
X37008000Y-48824196D01*
X37008000Y-48824196D02*
X37008000Y-51396000D01*
X37008000Y-51396000D02*
X37525000Y-51913000D01*
X39350000Y-45150000D02*
X39350000Y-46482196D01*
X37525000Y-56375000D02*
X40500000Y-59350000D01*
X40750000Y-45150000D02*
X39350000Y-45150000D01*
D12*
X40659364Y-50697700D02*
X40813721Y-50697700D01*
X40813721Y-50697700D02*
X42186000Y-52069979D01*
X42186000Y-53860459D02*
X42287600Y-53962059D01*
X43750000Y-57950000D02*
X43750000Y-58200000D01*
X42186000Y-52069979D02*
X42186000Y-53860459D01*
X42287600Y-53962059D02*
X42287600Y-56487600D01*
X42287600Y-56487600D02*
X43750000Y-57950000D01*
X50700000Y-57810000D02*
X50700000Y-57550000D01*
X58550000Y-60650000D02*
X58100000Y-60200000D01*
X58100000Y-60200000D02*
X53090000Y-60200000D01*
X53090000Y-60200000D02*
X50700000Y-57810000D01*
D14*
X49450000Y-45250000D02*
X49450000Y-45200000D01*
X50050000Y-45850000D02*
X49450000Y-45250000D01*
X54800000Y-46300000D02*
X52477818Y-46300000D01*
X57201040Y-46150000D02*
X56876040Y-46475000D01*
X56876040Y-46475000D02*
X54975000Y-46475000D01*
X57450000Y-46150000D02*
X57201040Y-46150000D01*
X54975000Y-46475000D02*
X54800000Y-46300000D01*
X52477818Y-46300000D02*
X52277818Y-46500000D01*
X51822182Y-46500000D02*
X51172182Y-45850000D01*
X51172182Y-45850000D02*
X50050000Y-45850000D01*
X52277818Y-46500000D02*
X51822182Y-46500000D01*
D12*
X50842256Y-39825000D02*
X57925000Y-39825000D01*
X49408628Y-41258628D02*
X50842256Y-39825000D01*
X57925000Y-39825000D02*
X58450000Y-39300000D01*
X43866000Y-56642000D02*
X43472198Y-57035802D01*
D13*
X38500000Y-43050000D02*
X38550000Y-43000000D01*
X38550000Y-43000000D02*
X38500000Y-42950000D01*
X38500000Y-44266080D02*
X38500000Y-43050000D01*
X38500000Y-42950000D02*
X38500000Y-41550000D01*
X39250000Y-43000000D02*
X38550000Y-43000000D01*
X39350000Y-45116080D02*
X38500000Y-44266080D01*
X38500000Y-41550000D02*
X39000000Y-41050000D01*
X39350000Y-45150000D02*
X39350000Y-45116080D01*
D12*
X47450000Y-43475000D02*
X47333040Y-43475000D01*
X47333040Y-43475000D02*
X46683040Y-44125000D01*
X46683040Y-44125000D02*
X43825000Y-44125000D01*
X43825000Y-44125000D02*
X41350000Y-46600000D01*
X41118040Y-47042000D02*
X41581960Y-47042000D01*
X41925000Y-46698960D02*
X41925000Y-46661396D01*
X41581960Y-47042000D02*
X41925000Y-46698960D01*
X47025000Y-44575000D02*
X47300000Y-44300000D01*
X40826040Y-46750000D02*
X41118040Y-47042000D01*
X44011396Y-44575000D02*
X47025000Y-44575000D01*
X41925000Y-46661396D02*
X44011396Y-44575000D01*
X40650000Y-46750000D02*
X40826040Y-46750000D01*
X47900000Y-47977208D02*
X47900000Y-43900000D01*
X47900000Y-43900000D02*
X48300000Y-43500000D01*
X46100000Y-54686828D02*
X46325000Y-54461828D01*
X46080000Y-54870000D02*
X46100000Y-54686828D01*
X45875000Y-50002208D02*
X47900000Y-47977208D01*
X46325000Y-53575000D02*
X45875000Y-53125000D01*
X45875000Y-53125000D02*
X45875000Y-50002208D01*
X46325000Y-54461828D02*
X46325000Y-53575000D01*
X46325000Y-50188604D02*
X46325000Y-52911396D01*
X46800000Y-53386396D02*
X46800000Y-54800000D01*
X48350000Y-44313604D02*
X48350000Y-48163604D01*
X49025000Y-43638604D02*
X48350000Y-44313604D01*
X49025000Y-43461827D02*
X49025000Y-43638604D01*
X49425000Y-43061827D02*
X49025000Y-43461827D01*
X46325000Y-52911396D02*
X46800000Y-53386396D01*
X49425000Y-42025000D02*
X49425000Y-43061827D01*
X48350000Y-48163604D02*
X46325000Y-50188604D01*
X48550000Y-54350000D02*
X46775000Y-52575000D01*
X48550000Y-54400000D02*
X48550000Y-54350000D01*
X48800000Y-44500000D02*
X49600000Y-43700000D01*
X48800000Y-48350000D02*
X48800000Y-44500000D01*
X46775000Y-52575000D02*
X46775000Y-50375000D01*
X46775000Y-50375000D02*
X48800000Y-48350000D01*
X57850000Y-46900000D02*
X57900000Y-46850000D01*
X54125000Y-46725000D02*
X54300000Y-46900000D01*
X52597290Y-46725000D02*
X54125000Y-46725000D01*
X52282290Y-47040000D02*
X52597290Y-46725000D01*
X52080000Y-47040000D02*
X52282290Y-47040000D01*
X54300000Y-46900000D02*
X57850000Y-46900000D01*
X55400000Y-53650000D02*
X54500000Y-52750000D01*
X57900000Y-53650000D02*
X55400000Y-53650000D01*
X54500000Y-52750000D02*
X52700000Y-52750000D01*
X56286828Y-57650000D02*
X56750000Y-57650000D01*
X54886827Y-56350000D02*
X55250000Y-56350000D01*
X55650000Y-56750000D02*
X55650000Y-57013172D01*
X55250000Y-56350000D02*
X55650000Y-56750000D01*
X50650000Y-54768414D02*
X51578414Y-53840000D01*
X55650000Y-57013172D02*
X56286828Y-57650000D01*
X53040000Y-53840000D02*
X54475000Y-55275000D01*
X50650000Y-55150000D02*
X50650000Y-54768414D01*
X58850000Y-59750000D02*
X59350000Y-59750000D01*
X54475000Y-55275000D02*
X54475000Y-55938173D01*
X56750000Y-57650000D02*
X58850000Y-59750000D01*
X51578414Y-53840000D02*
X53040000Y-53840000D01*
X54475000Y-55938173D02*
X54886827Y-56350000D01*
X59175000Y-45575000D02*
X59700000Y-46450000D01*
X57175000Y-45575000D02*
X59175000Y-45575000D01*
X52125000Y-45875000D02*
X55261827Y-45875000D01*
X56700000Y-46050000D02*
X57175000Y-45575000D01*
X55261827Y-45875000D02*
X55436827Y-46050000D01*
X52050000Y-45950000D02*
X52125000Y-45875000D01*
X55436827Y-46050000D02*
X56700000Y-46050000D01*
X53463173Y-52150000D02*
X55200000Y-52150000D01*
X53438173Y-52175000D02*
X53463173Y-52150000D01*
X51475000Y-52175000D02*
X53438173Y-52175000D01*
X51350000Y-52050000D02*
X51475000Y-52175000D01*
X55200000Y-52150000D02*
X56100000Y-53050000D01*
X59600000Y-53050000D02*
X59700000Y-53500000D01*
X56100000Y-53050000D02*
X59600000Y-53050000D01*
X55609984Y-55953188D02*
X55625000Y-55938173D01*
X58900000Y-59000000D02*
X57024999Y-57124999D01*
X57024999Y-56761827D02*
X56613172Y-56350000D01*
X51650000Y-53350000D02*
X50100000Y-51800000D01*
X59400000Y-59000000D02*
X58900000Y-59000000D01*
X50100000Y-51800000D02*
X47850000Y-51800000D01*
X47850000Y-51800000D02*
X47400000Y-52250000D01*
X55625000Y-55461827D02*
X55288173Y-55125000D01*
X55288173Y-55125000D02*
X54924569Y-55125000D01*
X57024999Y-57124999D02*
X57024999Y-56761827D01*
X56613172Y-56350000D02*
X56006796Y-56350000D01*
X55625000Y-55938173D02*
X55625000Y-55461827D01*
X54924569Y-55125000D02*
X53149569Y-53350000D01*
X56006796Y-56350000D02*
X55609984Y-55953188D01*
X53149569Y-53350000D02*
X51650000Y-53350000D01*
X40450000Y-42800000D02*
X40450000Y-44450000D01*
G04 #@! TA.AperFunction,Conductor*
G36*
X36879593Y-51865739D02*
G01*
X36889551Y-51882799D01*
X36891867Y-51887870D01*
X36891868Y-51887872D01*
X36973875Y-51982512D01*
X36973875Y-51982513D01*
X37028328Y-52017507D01*
X37045607Y-52028612D01*
X37069023Y-52043660D01*
X37107754Y-52091026D01*
X37114500Y-52126944D01*
X37114500Y-54404100D01*
X37113492Y-54418189D01*
X37100522Y-54508398D01*
X37100522Y-54508402D01*
X37113492Y-54598609D01*
X37114500Y-54612698D01*
X37114500Y-56440020D01*
X37122199Y-56463714D01*
X37125825Y-56478814D01*
X37129725Y-56503433D01*
X37129725Y-56503434D01*
X37141038Y-56525638D01*
X37146980Y-56539983D01*
X37154682Y-56563685D01*
X37154683Y-56563687D01*
X37169328Y-56583844D01*
X37177445Y-56597089D01*
X37188759Y-56619294D01*
X37188758Y-56619294D01*
X37211888Y-56642424D01*
X40094149Y-59524684D01*
X40114198Y-59553561D01*
X40129867Y-59587870D01*
X40129866Y-59587870D01*
X40211875Y-59682512D01*
X40211875Y-59682513D01*
X40317225Y-59750217D01*
X40317227Y-59750218D01*
X40437385Y-59785500D01*
X40437386Y-59785500D01*
X40562614Y-59785500D01*
X40562615Y-59785500D01*
X40682773Y-59750218D01*
X40788124Y-59682513D01*
X40870133Y-59587870D01*
X40922156Y-59473956D01*
X40925600Y-59450002D01*
X40939978Y-59350002D01*
X40939978Y-59349997D01*
X40922157Y-59226048D01*
X40922156Y-59226046D01*
X40922156Y-59226044D01*
X40870133Y-59112130D01*
X40788124Y-59017487D01*
X40684855Y-58951120D01*
X40668375Y-58937840D01*
X40529541Y-58799006D01*
X40501764Y-58744489D01*
X40511335Y-58684057D01*
X40554600Y-58640792D01*
X40599545Y-58630002D01*
X41346509Y-58630002D01*
X41353356Y-58630477D01*
X41365430Y-58632161D01*
X41365433Y-58632162D01*
X41365435Y-58632161D01*
X41365436Y-58632162D01*
X41389300Y-58631058D01*
X41411005Y-58630054D01*
X41413286Y-58630002D01*
X41432008Y-58630002D01*
X41432014Y-58630002D01*
X41435162Y-58629413D01*
X41441962Y-58628622D01*
X41472057Y-58627232D01*
X41480066Y-58623695D01*
X41501866Y-58616943D01*
X41510481Y-58615334D01*
X41536083Y-58599480D01*
X41542140Y-58596287D01*
X41569701Y-58584119D01*
X41575897Y-58577921D01*
X41593783Y-58563754D01*
X41601232Y-58559143D01*
X41619381Y-58535107D01*
X41623878Y-58529941D01*
X41943331Y-58210488D01*
X41948513Y-58205979D01*
X41958226Y-58198644D01*
X41958232Y-58198642D01*
X41988974Y-58164918D01*
X41990528Y-58163290D01*
X42003785Y-58150035D01*
X42005600Y-58147384D01*
X42009839Y-58142030D01*
X42030141Y-58119762D01*
X42033303Y-58111598D01*
X42043946Y-58091406D01*
X42048898Y-58084179D01*
X42055794Y-58054852D01*
X42057817Y-58048319D01*
X42068700Y-58020231D01*
X42068700Y-58011466D01*
X42071329Y-57988802D01*
X42073335Y-57980275D01*
X42069175Y-57950449D01*
X42068700Y-57943603D01*
X42068700Y-57661186D01*
X42069175Y-57654339D01*
X42070859Y-57642266D01*
X42069102Y-57604255D01*
X42068752Y-57596707D01*
X42068700Y-57594428D01*
X42068700Y-57575694D01*
X42068700Y-57575688D01*
X42068108Y-57572523D01*
X42067320Y-57565734D01*
X42065930Y-57535645D01*
X42062390Y-57527628D01*
X42055641Y-57505832D01*
X42054032Y-57497221D01*
X42038174Y-57471611D01*
X42034979Y-57465546D01*
X42029189Y-57452435D01*
X42022816Y-57438000D01*
X42022815Y-57437999D01*
X42022814Y-57437997D01*
X42016617Y-57431800D01*
X42002451Y-57413915D01*
X41997841Y-57406470D01*
X41973814Y-57388325D01*
X41968637Y-57383820D01*
X41079996Y-56495179D01*
X41052219Y-56440662D01*
X41051000Y-56425175D01*
X41051000Y-53283774D01*
X41069907Y-53225583D01*
X41119407Y-53189619D01*
X41180593Y-53189619D01*
X41230093Y-53225583D01*
X41240050Y-53242642D01*
X41249528Y-53263395D01*
X41256368Y-53278372D01*
X41338375Y-53373012D01*
X41338375Y-53373013D01*
X41433446Y-53434111D01*
X41443727Y-53440718D01*
X41563885Y-53476000D01*
X41563886Y-53476000D01*
X41689114Y-53476000D01*
X41689115Y-53476000D01*
X41773608Y-53451190D01*
X41834768Y-53452937D01*
X41883221Y-53490300D01*
X41900500Y-53546180D01*
X41900500Y-53801402D01*
X41900025Y-53808246D01*
X41898339Y-53820330D01*
X41900447Y-53865896D01*
X41900500Y-53868183D01*
X41900500Y-53886914D01*
X41901088Y-53890061D01*
X41901879Y-53896877D01*
X41903269Y-53926952D01*
X41903269Y-53926954D01*
X41903270Y-53926956D01*
X41906810Y-53934974D01*
X41913557Y-53956761D01*
X41915168Y-53965382D01*
X41915169Y-53965384D01*
X41931016Y-53990975D01*
X41934217Y-53997047D01*
X41946383Y-54024600D01*
X41952584Y-54030801D01*
X41966746Y-54048681D01*
X41971359Y-54056131D01*
X41971360Y-54056132D01*
X41976261Y-54061508D01*
X42001492Y-54117248D01*
X42002100Y-54128205D01*
X42002100Y-56428543D01*
X42001625Y-56435387D01*
X41999939Y-56447471D01*
X42002047Y-56493037D01*
X42002100Y-56495324D01*
X42002100Y-56514055D01*
X42002688Y-56517202D01*
X42003479Y-56524018D01*
X42004869Y-56554093D01*
X42004869Y-56554095D01*
X42004870Y-56554097D01*
X42008410Y-56562115D01*
X42015157Y-56583902D01*
X42016768Y-56592523D01*
X42016769Y-56592525D01*
X42032616Y-56618116D01*
X42035817Y-56624188D01*
X42043682Y-56642000D01*
X42047983Y-56651741D01*
X42054184Y-56657942D01*
X42068346Y-56675822D01*
X42070088Y-56678635D01*
X42072959Y-56683272D01*
X42096980Y-56701412D01*
X42102159Y-56705918D01*
X43324523Y-57928281D01*
X43352300Y-57982798D01*
X43344574Y-58039409D01*
X43327843Y-58076046D01*
X43327842Y-58076048D01*
X43310022Y-58199997D01*
X43310022Y-58200002D01*
X43327842Y-58323951D01*
X43327843Y-58323953D01*
X43327843Y-58323954D01*
X43327844Y-58323956D01*
X43379867Y-58437870D01*
X43379868Y-58437871D01*
X43461875Y-58532512D01*
X43461875Y-58532513D01*
X43567225Y-58600217D01*
X43567227Y-58600218D01*
X43687385Y-58635500D01*
X43687386Y-58635500D01*
X43812614Y-58635500D01*
X43812615Y-58635500D01*
X43932773Y-58600218D01*
X43942616Y-58593891D01*
X44001791Y-58578336D01*
X44058808Y-58600534D01*
X44084762Y-58633047D01*
X44087674Y-58638895D01*
X44088618Y-58641025D01*
X44089374Y-58642309D01*
X44093220Y-58650032D01*
X44093698Y-58650665D01*
X44109833Y-58670095D01*
X44110357Y-58670668D01*
X44110359Y-58670672D01*
X44139499Y-58692677D01*
X44140584Y-58693496D01*
X44144098Y-58696413D01*
X44148270Y-58700217D01*
X44154082Y-58705516D01*
X44155735Y-58707094D01*
X44321886Y-58873244D01*
X44349663Y-58927761D01*
X44340092Y-58988193D01*
X44326702Y-59008078D01*
X44279868Y-59062128D01*
X44227843Y-59176046D01*
X44227842Y-59176048D01*
X44210022Y-59299997D01*
X44210022Y-59300002D01*
X44227842Y-59423951D01*
X44227843Y-59423953D01*
X44227843Y-59423954D01*
X44227844Y-59423956D01*
X44279867Y-59537870D01*
X44279868Y-59537871D01*
X44361875Y-59632512D01*
X44361875Y-59632513D01*
X44439677Y-59682513D01*
X44467227Y-59700218D01*
X44587385Y-59735500D01*
X44587386Y-59735500D01*
X44712614Y-59735500D01*
X44712615Y-59735500D01*
X44832773Y-59700218D01*
X44938124Y-59632513D01*
X45020133Y-59537870D01*
X45072156Y-59423956D01*
X45073086Y-59417487D01*
X45089978Y-59300002D01*
X45089978Y-59299997D01*
X45072157Y-59176048D01*
X45072156Y-59176046D01*
X45072156Y-59176044D01*
X45020133Y-59062130D01*
X45020131Y-59062128D01*
X45020131Y-59062127D01*
X44959681Y-58992364D01*
X44935863Y-58936005D01*
X44935500Y-58927533D01*
X44935500Y-58856644D01*
X44935975Y-58849797D01*
X44937659Y-58837724D01*
X44935553Y-58792173D01*
X44935500Y-58789886D01*
X44935500Y-58771152D01*
X44935500Y-58771146D01*
X44934908Y-58767981D01*
X44934120Y-58761192D01*
X44932730Y-58731103D01*
X44929190Y-58723086D01*
X44922441Y-58701290D01*
X44922241Y-58700218D01*
X44920832Y-58692679D01*
X44904974Y-58667069D01*
X44901779Y-58661004D01*
X44892125Y-58639141D01*
X44889616Y-58633458D01*
X44889615Y-58633457D01*
X44889614Y-58633455D01*
X44883417Y-58627258D01*
X44869251Y-58609373D01*
X44864641Y-58601928D01*
X44840614Y-58583783D01*
X44835437Y-58579278D01*
X44639496Y-58383338D01*
X44611719Y-58328821D01*
X44610500Y-58313334D01*
X44610500Y-57947648D01*
X44610975Y-57940801D01*
X44612659Y-57928728D01*
X44610856Y-57889736D01*
X44610552Y-57883169D01*
X44610500Y-57880890D01*
X44610500Y-57862156D01*
X44610500Y-57862150D01*
X44609908Y-57858985D01*
X44609120Y-57852196D01*
X44607730Y-57822107D01*
X44604190Y-57814090D01*
X44597441Y-57792294D01*
X44595832Y-57783683D01*
X44579974Y-57758073D01*
X44576779Y-57752008D01*
X44566965Y-57729782D01*
X44564616Y-57724462D01*
X44564615Y-57724461D01*
X44564614Y-57724459D01*
X44558417Y-57718262D01*
X44544251Y-57700377D01*
X44539641Y-57692932D01*
X44515614Y-57674787D01*
X44510437Y-57670282D01*
X44034342Y-57194188D01*
X44006565Y-57139671D01*
X44016136Y-57079239D01*
X44050821Y-57040901D01*
X44154124Y-56974513D01*
X44236133Y-56879870D01*
X44288156Y-56765956D01*
X44288157Y-56765951D01*
X44305978Y-56642002D01*
X44305978Y-56641997D01*
X44288157Y-56518048D01*
X44288156Y-56518046D01*
X44288156Y-56518044D01*
X44236133Y-56404130D01*
X44154124Y-56309487D01*
X44154124Y-56309486D01*
X44048774Y-56241782D01*
X43928616Y-56206500D01*
X43928615Y-56206500D01*
X43803385Y-56206500D01*
X43803383Y-56206500D01*
X43683225Y-56241782D01*
X43577875Y-56309486D01*
X43577875Y-56309487D01*
X43495867Y-56404128D01*
X43476225Y-56447138D01*
X43434852Y-56492215D01*
X43374885Y-56504364D01*
X43319229Y-56478946D01*
X43316168Y-56476013D01*
X43012096Y-56171940D01*
X42984319Y-56117424D01*
X42983100Y-56101937D01*
X42983100Y-54146469D01*
X43002007Y-54088278D01*
X43051507Y-54052314D01*
X43112693Y-54052314D01*
X43152104Y-54076465D01*
X43348304Y-54272665D01*
X43376081Y-54327182D01*
X43377300Y-54342669D01*
X43377300Y-54433571D01*
X43376825Y-54440415D01*
X43375139Y-54452499D01*
X43377247Y-54498065D01*
X43377300Y-54500352D01*
X43377300Y-54519083D01*
X43377888Y-54522230D01*
X43378679Y-54529046D01*
X43380069Y-54559121D01*
X43380069Y-54559123D01*
X43380070Y-54559125D01*
X43383610Y-54567143D01*
X43390357Y-54588930D01*
X43391968Y-54597551D01*
X43391969Y-54597553D01*
X43407816Y-54623144D01*
X43411017Y-54629216D01*
X43423182Y-54656767D01*
X43423183Y-54656769D01*
X43429384Y-54662970D01*
X43443546Y-54680850D01*
X43445345Y-54683755D01*
X43448159Y-54688300D01*
X43472180Y-54706440D01*
X43477359Y-54710946D01*
X46276542Y-57510129D01*
X46281047Y-57515306D01*
X46288390Y-57525030D01*
X46288391Y-57525031D01*
X46288392Y-57525032D01*
X46315780Y-57550000D01*
X46322097Y-57555758D01*
X46323749Y-57557336D01*
X46331053Y-57564639D01*
X46336999Y-57570585D01*
X46339646Y-57572398D01*
X46345012Y-57576648D01*
X46367272Y-57596941D01*
X46375442Y-57600106D01*
X46395624Y-57610744D01*
X46402855Y-57615697D01*
X46432174Y-57622592D01*
X46438713Y-57624617D01*
X46450526Y-57629194D01*
X46465287Y-57634913D01*
X46466803Y-57635500D01*
X46475567Y-57635500D01*
X46498233Y-57638129D01*
X46506759Y-57640135D01*
X46530627Y-57636805D01*
X46536582Y-57635975D01*
X46543428Y-57635500D01*
X49057909Y-57635500D01*
X49064756Y-57635975D01*
X49076830Y-57637659D01*
X49076833Y-57637660D01*
X49076835Y-57637659D01*
X49076836Y-57637660D01*
X49100700Y-57636556D01*
X49122405Y-57635552D01*
X49124686Y-57635500D01*
X49143408Y-57635500D01*
X49143414Y-57635500D01*
X49146562Y-57634911D01*
X49153362Y-57634120D01*
X49183457Y-57632730D01*
X49191466Y-57629193D01*
X49213266Y-57622441D01*
X49221881Y-57620832D01*
X49247483Y-57604978D01*
X49253540Y-57601785D01*
X49281101Y-57589617D01*
X49287297Y-57583419D01*
X49305183Y-57569252D01*
X49312632Y-57564641D01*
X49330781Y-57540605D01*
X49335278Y-57535439D01*
X49920131Y-56950586D01*
X49925313Y-56946077D01*
X49935026Y-56938742D01*
X49935032Y-56938740D01*
X49965774Y-56905016D01*
X49967328Y-56903388D01*
X49980585Y-56890133D01*
X49982400Y-56887482D01*
X49986639Y-56882128D01*
X50006941Y-56859860D01*
X50010103Y-56851696D01*
X50020746Y-56831504D01*
X50025698Y-56824277D01*
X50032594Y-56794950D01*
X50034617Y-56788417D01*
X50045500Y-56760329D01*
X50045500Y-56751564D01*
X50048129Y-56728900D01*
X50050135Y-56720373D01*
X50047046Y-56698230D01*
X50045975Y-56690549D01*
X50045500Y-56683702D01*
X50045500Y-56647664D01*
X50064407Y-56589473D01*
X50074490Y-56577667D01*
X50385134Y-56267022D01*
X50390309Y-56262520D01*
X50400026Y-56255182D01*
X50400032Y-56255180D01*
X50430774Y-56221456D01*
X50432328Y-56219828D01*
X50445585Y-56206573D01*
X50447400Y-56203922D01*
X50451639Y-56198568D01*
X50471941Y-56176300D01*
X50475107Y-56168127D01*
X50485744Y-56147947D01*
X50490697Y-56140717D01*
X50497593Y-56111394D01*
X50499617Y-56104859D01*
X50510500Y-56076769D01*
X50510500Y-56068005D01*
X50513130Y-56045336D01*
X50515135Y-56036813D01*
X50510975Y-56006989D01*
X50510500Y-56000142D01*
X50510500Y-55870871D01*
X50510975Y-55864024D01*
X50512659Y-55851951D01*
X50510553Y-55806400D01*
X50510500Y-55804113D01*
X50510500Y-55785379D01*
X50510500Y-55785373D01*
X50509908Y-55782208D01*
X50509120Y-55775419D01*
X50507730Y-55745330D01*
X50504190Y-55737313D01*
X50497443Y-55715525D01*
X50495832Y-55706906D01*
X50495830Y-55706903D01*
X50495043Y-55702690D01*
X50502937Y-55642016D01*
X50544986Y-55597569D01*
X50592358Y-55585500D01*
X50712614Y-55585500D01*
X50712615Y-55585500D01*
X50832773Y-55550218D01*
X50938124Y-55482513D01*
X51020133Y-55387870D01*
X51072156Y-55273956D01*
X51072267Y-55273187D01*
X51089978Y-55150002D01*
X51089978Y-55149997D01*
X51072157Y-55026048D01*
X51072156Y-55026046D01*
X51072156Y-55026044D01*
X51020133Y-54912130D01*
X51020131Y-54912128D01*
X51017191Y-54905689D01*
X51018339Y-54905164D01*
X51004638Y-54853058D01*
X51026832Y-54796039D01*
X51033463Y-54788707D01*
X51272651Y-54549519D01*
X51327166Y-54521744D01*
X51387598Y-54531315D01*
X51430863Y-54574580D01*
X51432706Y-54578398D01*
X51458474Y-54634821D01*
X51465449Y-54695608D01*
X51458475Y-54717074D01*
X51417843Y-54806046D01*
X51417842Y-54806048D01*
X51400022Y-54929997D01*
X51400022Y-54930002D01*
X51417842Y-55053951D01*
X51417843Y-55053953D01*
X51417843Y-55053954D01*
X51417844Y-55053956D01*
X51442466Y-55107870D01*
X51463475Y-55153874D01*
X51470449Y-55214661D01*
X51463475Y-55236126D01*
X51417843Y-55336046D01*
X51417842Y-55336048D01*
X51400022Y-55459997D01*
X51400022Y-55460002D01*
X51417842Y-55583951D01*
X51417843Y-55583953D01*
X51417843Y-55583954D01*
X51417844Y-55583956D01*
X51465759Y-55688874D01*
X51472733Y-55749660D01*
X51465759Y-55771123D01*
X51441942Y-55823278D01*
X51417843Y-55876046D01*
X51417842Y-55876048D01*
X51400022Y-55999997D01*
X51400022Y-56000002D01*
X51417842Y-56123951D01*
X51417843Y-56123953D01*
X51417843Y-56123954D01*
X51417844Y-56123956D01*
X51459961Y-56216178D01*
X51468475Y-56234822D01*
X51475449Y-56295609D01*
X51468475Y-56317074D01*
X51427843Y-56406046D01*
X51427842Y-56406048D01*
X51410022Y-56529997D01*
X51410022Y-56530002D01*
X51427842Y-56653951D01*
X51427843Y-56653953D01*
X51427843Y-56653954D01*
X51427844Y-56653956D01*
X51449517Y-56701412D01*
X51473475Y-56753874D01*
X51480449Y-56814661D01*
X51473475Y-56836126D01*
X51427843Y-56936046D01*
X51427842Y-56936048D01*
X51410022Y-57059997D01*
X51410022Y-57060002D01*
X51427842Y-57183951D01*
X51427843Y-57183953D01*
X51427843Y-57183954D01*
X51427844Y-57183956D01*
X51443157Y-57217486D01*
X51473475Y-57283874D01*
X51480449Y-57344661D01*
X51473475Y-57366126D01*
X51427843Y-57466046D01*
X51427842Y-57466048D01*
X51410022Y-57589997D01*
X51410022Y-57590002D01*
X51427842Y-57713951D01*
X51427843Y-57713953D01*
X51427843Y-57713954D01*
X51427844Y-57713956D01*
X51468475Y-57802925D01*
X51475449Y-57863712D01*
X51468475Y-57885177D01*
X51436935Y-57954241D01*
X51395563Y-57999319D01*
X51335596Y-58011470D01*
X51279940Y-57986053D01*
X51276877Y-57983119D01*
X51122340Y-57828582D01*
X51094563Y-57774065D01*
X51102291Y-57717451D01*
X51122156Y-57673956D01*
X51133229Y-57596939D01*
X51139978Y-57550002D01*
X51139978Y-57549997D01*
X51122157Y-57426048D01*
X51122156Y-57426046D01*
X51122156Y-57426044D01*
X51070133Y-57312130D01*
X50988124Y-57217487D01*
X50988124Y-57217486D01*
X50882774Y-57149782D01*
X50762616Y-57114500D01*
X50762615Y-57114500D01*
X50637385Y-57114500D01*
X50637383Y-57114500D01*
X50517225Y-57149782D01*
X50411875Y-57217486D01*
X50411875Y-57217487D01*
X50329868Y-57312128D01*
X50329867Y-57312129D01*
X50329867Y-57312130D01*
X50316734Y-57340888D01*
X50277843Y-57426046D01*
X50277842Y-57426048D01*
X50260022Y-57549997D01*
X50260022Y-57550002D01*
X50277842Y-57673951D01*
X50277843Y-57673953D01*
X50277843Y-57673954D01*
X50277844Y-57673956D01*
X50329867Y-57787870D01*
X50409170Y-57879390D01*
X50426664Y-57908457D01*
X50429169Y-57914925D01*
X50445016Y-57940516D01*
X50448217Y-57946588D01*
X50457445Y-57967487D01*
X50460383Y-57974141D01*
X50466584Y-57980342D01*
X50480746Y-57998222D01*
X50481836Y-57999982D01*
X50485359Y-58005672D01*
X50509380Y-58023812D01*
X50514559Y-58028318D01*
X52846367Y-60360125D01*
X52850872Y-60365302D01*
X52858218Y-60375030D01*
X52891935Y-60405768D01*
X52893589Y-60407347D01*
X52906828Y-60420585D01*
X52909470Y-60422396D01*
X52914845Y-60426653D01*
X52937100Y-60446941D01*
X52945269Y-60450105D01*
X52965453Y-60460744D01*
X52972683Y-60465697D01*
X53001998Y-60472591D01*
X53008541Y-60474617D01*
X53036631Y-60485500D01*
X53045395Y-60485500D01*
X53068061Y-60488129D01*
X53076587Y-60490135D01*
X53100455Y-60486805D01*
X53106410Y-60485975D01*
X53113256Y-60485500D01*
X54857563Y-60485500D01*
X54915754Y-60504407D01*
X54951718Y-60553907D01*
X54951718Y-60615093D01*
X54951007Y-60617198D01*
X54917226Y-60713737D01*
X54917224Y-60713746D01*
X54914500Y-60742790D01*
X54914500Y-63057199D01*
X54917224Y-63086254D01*
X54917225Y-63086259D01*
X54945759Y-63167802D01*
X54947132Y-63228972D01*
X54912289Y-63279266D01*
X54854537Y-63299475D01*
X54852315Y-63299500D01*
X38687620Y-63299500D01*
X38684383Y-63299394D01*
X38664196Y-63298070D01*
X38430083Y-63282726D01*
X38423657Y-63281880D01*
X38175298Y-63232478D01*
X38169038Y-63230801D01*
X37929256Y-63149406D01*
X37923273Y-63146928D01*
X37696164Y-63034930D01*
X37690551Y-63031689D01*
X37480001Y-62891005D01*
X37474859Y-62887059D01*
X37284480Y-62720102D01*
X37279897Y-62715519D01*
X37112940Y-62525140D01*
X37108994Y-62519998D01*
X37105320Y-62514500D01*
X36968310Y-62309448D01*
X36965069Y-62303835D01*
X36853067Y-62076718D01*
X36850593Y-62070743D01*
X36835163Y-62025289D01*
X36769197Y-61830958D01*
X36767521Y-61824701D01*
X36718119Y-61576342D01*
X36717273Y-61569916D01*
X36709961Y-61458357D01*
X36700606Y-61315617D01*
X36700553Y-61314000D01*
X37480357Y-61314000D01*
X37500885Y-61535536D01*
X37561771Y-61749528D01*
X37660942Y-61948689D01*
X37795019Y-62126236D01*
X37959438Y-62276124D01*
X38148599Y-62393247D01*
X38356060Y-62473618D01*
X38574757Y-62514500D01*
X38797243Y-62514500D01*
X39015940Y-62473618D01*
X39223401Y-62393247D01*
X39412562Y-62276124D01*
X39576981Y-62126236D01*
X39711058Y-61948689D01*
X39810229Y-61749528D01*
X39871115Y-61535536D01*
X39891643Y-61314000D01*
X39871115Y-61092464D01*
X39810229Y-60878472D01*
X39711058Y-60679311D01*
X39576981Y-60501764D01*
X39412562Y-60351876D01*
X39223401Y-60234753D01*
X39133699Y-60200002D01*
X45060022Y-60200002D01*
X45077842Y-60323951D01*
X45077843Y-60323953D01*
X45077843Y-60323954D01*
X45077844Y-60323956D01*
X45129867Y-60437870D01*
X45153979Y-60465697D01*
X45211875Y-60532512D01*
X45211875Y-60532513D01*
X45317225Y-60600217D01*
X45317227Y-60600218D01*
X45437385Y-60635500D01*
X45437386Y-60635500D01*
X45562614Y-60635500D01*
X45562615Y-60635500D01*
X45682773Y-60600218D01*
X45788124Y-60532513D01*
X45870133Y-60437870D01*
X45922156Y-60323956D01*
X45923086Y-60317487D01*
X45939978Y-60200002D01*
X47060022Y-60200002D01*
X47077842Y-60323951D01*
X47077843Y-60323953D01*
X47077843Y-60323954D01*
X47077844Y-60323956D01*
X47129867Y-60437870D01*
X47153979Y-60465697D01*
X47211875Y-60532512D01*
X47211875Y-60532513D01*
X47317225Y-60600217D01*
X47317227Y-60600218D01*
X47437385Y-60635500D01*
X47437386Y-60635500D01*
X47562614Y-60635500D01*
X47562615Y-60635500D01*
X47682773Y-60600218D01*
X47788124Y-60532513D01*
X47870133Y-60437870D01*
X47922156Y-60323956D01*
X47923086Y-60317487D01*
X47939978Y-60200002D01*
X49060022Y-60200002D01*
X49077842Y-60323951D01*
X49077843Y-60323953D01*
X49077843Y-60323954D01*
X49077844Y-60323956D01*
X49129867Y-60437870D01*
X49153979Y-60465697D01*
X49211875Y-60532512D01*
X49211875Y-60532513D01*
X49317225Y-60600217D01*
X49317227Y-60600218D01*
X49437385Y-60635500D01*
X49437386Y-60635500D01*
X49562614Y-60635500D01*
X49562615Y-60635500D01*
X49682773Y-60600218D01*
X49788124Y-60532513D01*
X49870133Y-60437870D01*
X49922156Y-60323956D01*
X49923086Y-60317487D01*
X49939978Y-60200002D01*
X51060022Y-60200002D01*
X51077842Y-60323951D01*
X51077843Y-60323953D01*
X51077843Y-60323954D01*
X51077844Y-60323956D01*
X51129867Y-60437870D01*
X51153979Y-60465697D01*
X51211875Y-60532512D01*
X51211875Y-60532513D01*
X51317225Y-60600217D01*
X51317227Y-60600218D01*
X51437385Y-60635500D01*
X51437386Y-60635500D01*
X51562614Y-60635500D01*
X51562615Y-60635500D01*
X51682773Y-60600218D01*
X51788124Y-60532513D01*
X51870133Y-60437870D01*
X51922156Y-60323956D01*
X51923086Y-60317487D01*
X51939978Y-60200002D01*
X51939978Y-60199997D01*
X51922157Y-60076048D01*
X51922156Y-60076046D01*
X51922156Y-60076044D01*
X51870133Y-59962130D01*
X51788124Y-59867487D01*
X51788124Y-59867486D01*
X51682774Y-59799782D01*
X51562616Y-59764500D01*
X51562615Y-59764500D01*
X51437385Y-59764500D01*
X51437383Y-59764500D01*
X51317225Y-59799782D01*
X51211875Y-59867486D01*
X51211875Y-59867487D01*
X51129868Y-59962128D01*
X51129867Y-59962129D01*
X51129867Y-59962130D01*
X51121973Y-59979415D01*
X51077843Y-60076046D01*
X51077842Y-60076048D01*
X51060022Y-60199997D01*
X51060022Y-60200002D01*
X49939978Y-60200002D01*
X49939978Y-60199997D01*
X49922157Y-60076048D01*
X49922156Y-60076046D01*
X49922156Y-60076044D01*
X49870133Y-59962130D01*
X49788124Y-59867487D01*
X49788124Y-59867486D01*
X49682774Y-59799782D01*
X49562616Y-59764500D01*
X49562615Y-59764500D01*
X49437385Y-59764500D01*
X49437383Y-59764500D01*
X49317225Y-59799782D01*
X49211875Y-59867486D01*
X49211875Y-59867487D01*
X49129868Y-59962128D01*
X49129867Y-59962129D01*
X49129867Y-59962130D01*
X49121973Y-59979415D01*
X49077843Y-60076046D01*
X49077842Y-60076048D01*
X49060022Y-60199997D01*
X49060022Y-60200002D01*
X47939978Y-60200002D01*
X47939978Y-60199997D01*
X47922157Y-60076048D01*
X47922156Y-60076046D01*
X47922156Y-60076044D01*
X47870133Y-59962130D01*
X47788124Y-59867487D01*
X47788124Y-59867486D01*
X47682774Y-59799782D01*
X47562616Y-59764500D01*
X47562615Y-59764500D01*
X47437385Y-59764500D01*
X47437383Y-59764500D01*
X47317225Y-59799782D01*
X47211875Y-59867486D01*
X47211875Y-59867487D01*
X47129868Y-59962128D01*
X47129867Y-59962129D01*
X47129867Y-59962130D01*
X47121973Y-59979415D01*
X47077843Y-60076046D01*
X47077842Y-60076048D01*
X47060022Y-60199997D01*
X47060022Y-60200002D01*
X45939978Y-60200002D01*
X45939978Y-60199997D01*
X45922157Y-60076048D01*
X45922156Y-60076046D01*
X45922156Y-60076044D01*
X45870133Y-59962130D01*
X45788124Y-59867487D01*
X45788124Y-59867486D01*
X45682774Y-59799782D01*
X45562616Y-59764500D01*
X45562615Y-59764500D01*
X45437385Y-59764500D01*
X45437383Y-59764500D01*
X45317225Y-59799782D01*
X45211875Y-59867486D01*
X45211875Y-59867487D01*
X45129868Y-59962128D01*
X45129867Y-59962129D01*
X45129867Y-59962130D01*
X45121973Y-59979415D01*
X45077843Y-60076046D01*
X45077842Y-60076048D01*
X45060022Y-60199997D01*
X45060022Y-60200002D01*
X39133699Y-60200002D01*
X39015940Y-60154382D01*
X39015939Y-60154381D01*
X39015937Y-60154381D01*
X38797243Y-60113500D01*
X38574757Y-60113500D01*
X38356062Y-60154381D01*
X38279797Y-60183926D01*
X38148599Y-60234753D01*
X38004531Y-60323956D01*
X37959438Y-60351876D01*
X37834583Y-60465697D01*
X37795019Y-60501764D01*
X37770264Y-60534545D01*
X37660943Y-60679309D01*
X37660938Y-60679318D01*
X37561772Y-60878469D01*
X37500885Y-61092464D01*
X37484053Y-61274118D01*
X37480357Y-61314000D01*
X36700553Y-61314000D01*
X36700500Y-61312379D01*
X36700500Y-51923930D01*
X36719407Y-51865739D01*
X36768907Y-51829775D01*
X36830093Y-51829775D01*
X36879593Y-51865739D01*
G37*
G04 #@! TD.AperFunction*
G04 #@! TA.AperFunction,Conductor*
G36*
X61315616Y-36700605D02*
G01*
X61569921Y-36717273D01*
X61576342Y-36718119D01*
X61824701Y-36767521D01*
X61830958Y-36769197D01*
X62070745Y-36850593D01*
X62076718Y-36853067D01*
X62303840Y-36965072D01*
X62309448Y-36968310D01*
X62519998Y-37108994D01*
X62525140Y-37112940D01*
X62715519Y-37279897D01*
X62720102Y-37284480D01*
X62887059Y-37474859D01*
X62891005Y-37480001D01*
X63031689Y-37690551D01*
X63034930Y-37696164D01*
X63146928Y-37923273D01*
X63149406Y-37929256D01*
X63230801Y-38169038D01*
X63232478Y-38175298D01*
X63281880Y-38423657D01*
X63282726Y-38430083D01*
X63299393Y-38684381D01*
X63299499Y-38687619D01*
X63299499Y-40970196D01*
X63280592Y-41028387D01*
X63231092Y-41064351D01*
X63169906Y-41064351D01*
X63164978Y-41062266D01*
X63036262Y-41017226D01*
X63036253Y-41017224D01*
X63007207Y-41014500D01*
X60692800Y-41014500D01*
X60663745Y-41017224D01*
X60663740Y-41017225D01*
X60541365Y-41060046D01*
X60541364Y-41060047D01*
X60541363Y-41060047D01*
X60541362Y-41060048D01*
X60437040Y-41137040D01*
X60360222Y-41241127D01*
X60360047Y-41241364D01*
X60360046Y-41241365D01*
X60317226Y-41363737D01*
X60317224Y-41363746D01*
X60314500Y-41392790D01*
X60314500Y-43707199D01*
X60317224Y-43736254D01*
X60317225Y-43736259D01*
X60360046Y-43858634D01*
X60360048Y-43858638D01*
X60437040Y-43962960D01*
X60541362Y-44039952D01*
X60663742Y-44082775D01*
X60692801Y-44085500D01*
X63007198Y-44085499D01*
X63007199Y-44085499D01*
X63013009Y-44084954D01*
X63036258Y-44082775D01*
X63158638Y-44039952D01*
X63158637Y-44039952D01*
X63165640Y-44037502D01*
X63166563Y-44040139D01*
X63214490Y-44031797D01*
X63269425Y-44058738D01*
X63298032Y-44112824D01*
X63299499Y-44129803D01*
X63299499Y-48170196D01*
X63280592Y-48228387D01*
X63231092Y-48264351D01*
X63169906Y-48264351D01*
X63164978Y-48262266D01*
X63036262Y-48217226D01*
X63036253Y-48217224D01*
X63007207Y-48214500D01*
X60692800Y-48214500D01*
X60663745Y-48217224D01*
X60663740Y-48217225D01*
X60541365Y-48260046D01*
X60541364Y-48260047D01*
X60541363Y-48260047D01*
X60541362Y-48260048D01*
X60437040Y-48337040D01*
X60381624Y-48412128D01*
X60360047Y-48441364D01*
X60360046Y-48441365D01*
X60317226Y-48563737D01*
X60317224Y-48563746D01*
X60314500Y-48592790D01*
X60314500Y-50907199D01*
X60317224Y-50936254D01*
X60317225Y-50936259D01*
X60360046Y-51058634D01*
X60360048Y-51058638D01*
X60437040Y-51162960D01*
X60541362Y-51239952D01*
X60663742Y-51282775D01*
X60692801Y-51285500D01*
X63007198Y-51285499D01*
X63007199Y-51285499D01*
X63013009Y-51284954D01*
X63036258Y-51282775D01*
X63158638Y-51239952D01*
X63158637Y-51239952D01*
X63165640Y-51237502D01*
X63166563Y-51240139D01*
X63214490Y-51231797D01*
X63269425Y-51258738D01*
X63298032Y-51312824D01*
X63299499Y-51329803D01*
X63299499Y-55370196D01*
X63280592Y-55428387D01*
X63231092Y-55464351D01*
X63169906Y-55464351D01*
X63164978Y-55462266D01*
X63036262Y-55417226D01*
X63036253Y-55417224D01*
X63007207Y-55414500D01*
X60692800Y-55414500D01*
X60663745Y-55417224D01*
X60663740Y-55417225D01*
X60541365Y-55460046D01*
X60541364Y-55460047D01*
X60541363Y-55460047D01*
X60541362Y-55460048D01*
X60437040Y-55537040D01*
X60365949Y-55633367D01*
X60360047Y-55641364D01*
X60360046Y-55641365D01*
X60317226Y-55763737D01*
X60317224Y-55763746D01*
X60314500Y-55792790D01*
X60314500Y-58107199D01*
X60317224Y-58136254D01*
X60317225Y-58136259D01*
X60360046Y-58258634D01*
X60360048Y-58258638D01*
X60437040Y-58362960D01*
X60541362Y-58439952D01*
X60663742Y-58482775D01*
X60692801Y-58485500D01*
X63007198Y-58485499D01*
X63007199Y-58485499D01*
X63013009Y-58484954D01*
X63036258Y-58482775D01*
X63158638Y-58439952D01*
X63158637Y-58439952D01*
X63165640Y-58437502D01*
X63166563Y-58440139D01*
X63214490Y-58431797D01*
X63269425Y-58458738D01*
X63298032Y-58512824D01*
X63299499Y-58529803D01*
X63299500Y-61274117D01*
X63299500Y-61312379D01*
X63299394Y-61315617D01*
X63282726Y-61569916D01*
X63281880Y-61576342D01*
X63232478Y-61824701D01*
X63230801Y-61830961D01*
X63149406Y-62070743D01*
X63146926Y-62076732D01*
X63034930Y-62303835D01*
X63031689Y-62309448D01*
X62891005Y-62519998D01*
X62887059Y-62525140D01*
X62720102Y-62715519D01*
X62715519Y-62720102D01*
X62525140Y-62887059D01*
X62519998Y-62891005D01*
X62309448Y-63031689D01*
X62303835Y-63034930D01*
X62076732Y-63146926D01*
X62070743Y-63149406D01*
X61830961Y-63230801D01*
X61824701Y-63232478D01*
X61576342Y-63281880D01*
X61569916Y-63282726D01*
X61333822Y-63298200D01*
X61315616Y-63299394D01*
X61312380Y-63299500D01*
X58047685Y-63299500D01*
X57989494Y-63280593D01*
X57953530Y-63231093D01*
X57953530Y-63169907D01*
X57954241Y-63167802D01*
X57982774Y-63086261D01*
X57982774Y-63086260D01*
X57982775Y-63086258D01*
X57985500Y-63057199D01*
X57985499Y-61314000D01*
X60108357Y-61314000D01*
X60128885Y-61535536D01*
X60189771Y-61749528D01*
X60288942Y-61948689D01*
X60423019Y-62126236D01*
X60587438Y-62276124D01*
X60776599Y-62393247D01*
X60984060Y-62473618D01*
X61202757Y-62514500D01*
X61425243Y-62514500D01*
X61643940Y-62473618D01*
X61851401Y-62393247D01*
X62040562Y-62276124D01*
X62204981Y-62126236D01*
X62339058Y-61948689D01*
X62438229Y-61749528D01*
X62499115Y-61535536D01*
X62519643Y-61314000D01*
X62499115Y-61092464D01*
X62438229Y-60878472D01*
X62339058Y-60679311D01*
X62204981Y-60501764D01*
X62040562Y-60351876D01*
X61851401Y-60234753D01*
X61643940Y-60154382D01*
X61643939Y-60154381D01*
X61643937Y-60154381D01*
X61425243Y-60113500D01*
X61202757Y-60113500D01*
X60984062Y-60154381D01*
X60907797Y-60183926D01*
X60776599Y-60234753D01*
X60632531Y-60323956D01*
X60587438Y-60351876D01*
X60462583Y-60465697D01*
X60423019Y-60501764D01*
X60398264Y-60534545D01*
X60288943Y-60679309D01*
X60288938Y-60679318D01*
X60189772Y-60878469D01*
X60128885Y-61092464D01*
X60112053Y-61274118D01*
X60108357Y-61314000D01*
X57985499Y-61314000D01*
X57985499Y-60917358D01*
X58004406Y-60859168D01*
X58053906Y-60823204D01*
X58115092Y-60823204D01*
X58164592Y-60859168D01*
X58174552Y-60876233D01*
X58179865Y-60887868D01*
X58179866Y-60887870D01*
X58261875Y-60982512D01*
X58261875Y-60982513D01*
X58367225Y-61050217D01*
X58367227Y-61050218D01*
X58487385Y-61085500D01*
X58487386Y-61085500D01*
X58612614Y-61085500D01*
X58612615Y-61085500D01*
X58732773Y-61050218D01*
X58838124Y-60982513D01*
X58920133Y-60887870D01*
X58972156Y-60773956D01*
X58972157Y-60773951D01*
X58989978Y-60650002D01*
X58989978Y-60649997D01*
X58972157Y-60526048D01*
X58972156Y-60526046D01*
X58972156Y-60526044D01*
X58920133Y-60412130D01*
X58838124Y-60317487D01*
X58838124Y-60317486D01*
X58732774Y-60249782D01*
X58612616Y-60214500D01*
X58612615Y-60214500D01*
X58559266Y-60214500D01*
X58501075Y-60195593D01*
X58489262Y-60185504D01*
X58343629Y-60039870D01*
X58339125Y-60034694D01*
X58331780Y-60024969D01*
X58331780Y-60024968D01*
X58304507Y-60000105D01*
X58298073Y-59994239D01*
X58296420Y-59992661D01*
X58283175Y-59979417D01*
X58283167Y-59979410D01*
X58280520Y-59977596D01*
X58275150Y-59973342D01*
X58262848Y-59962128D01*
X58252900Y-59953059D01*
X58252896Y-59953057D01*
X58252894Y-59953056D01*
X58244725Y-59949891D01*
X58224551Y-59939258D01*
X58223695Y-59938671D01*
X58217317Y-59934303D01*
X58217316Y-59934302D01*
X58217315Y-59934302D01*
X58188004Y-59927407D01*
X58181450Y-59925378D01*
X58153373Y-59914501D01*
X58153370Y-59914500D01*
X58153369Y-59914500D01*
X58153367Y-59914500D01*
X58144605Y-59914500D01*
X58121938Y-59911870D01*
X58113413Y-59909865D01*
X58083590Y-59914025D01*
X58076744Y-59914500D01*
X56840537Y-59914500D01*
X56782346Y-59895593D01*
X56746382Y-59846093D01*
X56746382Y-59784907D01*
X56765718Y-59750669D01*
X56820131Y-59687872D01*
X56820130Y-59687872D01*
X56820133Y-59687870D01*
X56872156Y-59573956D01*
X56872157Y-59573951D01*
X56889978Y-59450002D01*
X56889978Y-59449997D01*
X56872157Y-59326048D01*
X56872156Y-59326046D01*
X56872156Y-59326044D01*
X56820133Y-59212130D01*
X56738124Y-59117487D01*
X56738124Y-59117486D01*
X56632774Y-59049782D01*
X56512616Y-59014500D01*
X56512615Y-59014500D01*
X56387385Y-59014500D01*
X56387383Y-59014500D01*
X56267225Y-59049782D01*
X56161875Y-59117486D01*
X56161875Y-59117487D01*
X56079868Y-59212128D01*
X56027843Y-59326046D01*
X56027842Y-59326048D01*
X56010022Y-59449997D01*
X56010022Y-59450002D01*
X56027842Y-59573951D01*
X56027843Y-59573953D01*
X56027843Y-59573954D01*
X56027844Y-59573956D01*
X56034199Y-59587871D01*
X56079868Y-59687872D01*
X56134282Y-59750669D01*
X56158100Y-59807028D01*
X56144241Y-59866624D01*
X56098001Y-59906691D01*
X56059463Y-59914500D01*
X55440537Y-59914500D01*
X55382346Y-59895593D01*
X55346382Y-59846093D01*
X55346382Y-59784907D01*
X55365718Y-59750669D01*
X55420131Y-59687872D01*
X55420130Y-59687872D01*
X55420133Y-59687870D01*
X55472156Y-59573956D01*
X55472157Y-59573951D01*
X55489978Y-59450002D01*
X55489978Y-59449997D01*
X55472157Y-59326048D01*
X55472156Y-59326046D01*
X55472156Y-59326044D01*
X55420133Y-59212130D01*
X55338124Y-59117487D01*
X55338124Y-59117486D01*
X55232774Y-59049782D01*
X55112616Y-59014500D01*
X55112615Y-59014500D01*
X54987385Y-59014500D01*
X54987383Y-59014500D01*
X54867225Y-59049782D01*
X54761875Y-59117486D01*
X54761875Y-59117487D01*
X54679868Y-59212128D01*
X54627843Y-59326046D01*
X54627842Y-59326048D01*
X54610022Y-59449997D01*
X54610022Y-59450002D01*
X54627842Y-59573951D01*
X54627843Y-59573953D01*
X54627843Y-59573954D01*
X54627844Y-59573956D01*
X54634199Y-59587871D01*
X54679868Y-59687872D01*
X54734282Y-59750669D01*
X54758100Y-59807028D01*
X54744241Y-59866624D01*
X54698001Y-59906691D01*
X54659463Y-59914500D01*
X53249266Y-59914500D01*
X53191075Y-59895593D01*
X53179262Y-59885504D01*
X52288262Y-58994504D01*
X52260485Y-58939987D01*
X52270056Y-58879555D01*
X52313321Y-58836290D01*
X52358266Y-58825500D01*
X52372614Y-58825500D01*
X52372615Y-58825500D01*
X52492773Y-58790218D01*
X52598124Y-58722513D01*
X52680133Y-58627870D01*
X52682185Y-58623375D01*
X52723556Y-58578297D01*
X52772240Y-58565500D01*
X52783193Y-58565500D01*
X52841384Y-58584407D01*
X52873246Y-58623373D01*
X52879867Y-58637870D01*
X52879866Y-58637870D01*
X52961875Y-58732512D01*
X52961875Y-58732513D01*
X53065341Y-58799006D01*
X53067227Y-58800218D01*
X53187385Y-58835500D01*
X53187386Y-58835500D01*
X53312614Y-58835500D01*
X53312615Y-58835500D01*
X53432773Y-58800218D01*
X53538124Y-58732513D01*
X53620133Y-58637870D01*
X53626606Y-58623696D01*
X53626754Y-58623373D01*
X53668127Y-58578295D01*
X53716807Y-58565500D01*
X53772614Y-58565500D01*
X53772615Y-58565500D01*
X53892773Y-58530218D01*
X53998124Y-58462513D01*
X54080133Y-58367870D01*
X54111127Y-58300002D01*
X54610022Y-58300002D01*
X54627842Y-58423951D01*
X54627843Y-58423953D01*
X54627843Y-58423954D01*
X54627844Y-58423956D01*
X54679867Y-58537870D01*
X54679868Y-58537871D01*
X54761875Y-58632512D01*
X54761875Y-58632513D01*
X54858919Y-58694879D01*
X54867227Y-58700218D01*
X54987385Y-58735500D01*
X54987386Y-58735500D01*
X55112614Y-58735500D01*
X55112615Y-58735500D01*
X55232773Y-58700218D01*
X55338124Y-58632513D01*
X55420133Y-58537870D01*
X55472156Y-58423956D01*
X55482165Y-58354342D01*
X55489978Y-58300002D01*
X55489978Y-58299997D01*
X55472157Y-58176048D01*
X55472156Y-58176046D01*
X55472156Y-58176044D01*
X55420133Y-58062130D01*
X55338124Y-57967487D01*
X55338124Y-57967486D01*
X55232774Y-57899782D01*
X55112616Y-57864500D01*
X55112615Y-57864500D01*
X54987385Y-57864500D01*
X54987383Y-57864500D01*
X54867225Y-57899782D01*
X54761875Y-57967486D01*
X54761875Y-57967487D01*
X54679868Y-58062128D01*
X54627843Y-58176046D01*
X54627842Y-58176048D01*
X54610022Y-58299997D01*
X54610022Y-58300002D01*
X54111127Y-58300002D01*
X54132156Y-58253956D01*
X54139674Y-58201670D01*
X54149978Y-58130002D01*
X54149978Y-58129997D01*
X54132157Y-58006048D01*
X54132156Y-58006046D01*
X54132156Y-58006044D01*
X54080133Y-57892130D01*
X53998124Y-57797487D01*
X53998124Y-57797486D01*
X53892774Y-57729782D01*
X53772616Y-57694500D01*
X53772615Y-57694500D01*
X53716807Y-57694500D01*
X53658616Y-57675593D01*
X53626754Y-57636627D01*
X53623359Y-57629194D01*
X53620133Y-57622130D01*
X53620132Y-57622129D01*
X53620133Y-57622129D01*
X53538124Y-57527487D01*
X53538124Y-57527486D01*
X53432774Y-57459782D01*
X53312616Y-57424500D01*
X53312615Y-57424500D01*
X53260917Y-57424500D01*
X53202726Y-57405593D01*
X53166762Y-57356093D01*
X53166762Y-57294907D01*
X53170863Y-57284374D01*
X53212156Y-57193956D01*
X53213594Y-57183953D01*
X53229978Y-57070002D01*
X53229978Y-57069997D01*
X53212157Y-56946048D01*
X53212155Y-56946040D01*
X53166525Y-56846126D01*
X53159550Y-56785340D01*
X53166525Y-56763874D01*
X53212155Y-56663959D01*
X53212157Y-56663951D01*
X53229978Y-56540002D01*
X53229978Y-56539997D01*
X53212157Y-56416048D01*
X53212156Y-56416046D01*
X53212156Y-56416044D01*
X53164240Y-56311124D01*
X53157266Y-56250340D01*
X53164239Y-56228879D01*
X53212156Y-56123956D01*
X53216162Y-56096093D01*
X53229978Y-56000002D01*
X53229978Y-55999997D01*
X53212157Y-55876048D01*
X53212156Y-55876046D01*
X53212156Y-55876044D01*
X53164240Y-55771124D01*
X53157266Y-55710340D01*
X53164241Y-55688874D01*
X53212156Y-55583956D01*
X53213293Y-55576048D01*
X53229978Y-55460002D01*
X53229978Y-55459997D01*
X53212157Y-55336048D01*
X53212155Y-55336040D01*
X53166525Y-55236126D01*
X53159550Y-55175340D01*
X53166525Y-55153874D01*
X53212155Y-55053959D01*
X53212157Y-55053951D01*
X53229978Y-54930002D01*
X53229978Y-54929997D01*
X53212157Y-54806048D01*
X53212156Y-54806047D01*
X53212156Y-54806046D01*
X53212156Y-54806044D01*
X53161523Y-54695175D01*
X53154550Y-54634391D01*
X53161521Y-54612932D01*
X53179931Y-54572619D01*
X53221301Y-54527545D01*
X53281268Y-54515394D01*
X53336924Y-54540811D01*
X53339987Y-54543745D01*
X54160504Y-55364261D01*
X54188281Y-55418778D01*
X54189500Y-55434265D01*
X54189500Y-55879116D01*
X54189025Y-55885960D01*
X54187339Y-55898044D01*
X54189036Y-55934727D01*
X54189181Y-55937872D01*
X54189447Y-55943610D01*
X54189500Y-55945897D01*
X54189500Y-55964628D01*
X54190088Y-55967775D01*
X54190879Y-55974591D01*
X54192269Y-56004666D01*
X54192269Y-56004668D01*
X54192270Y-56004670D01*
X54195810Y-56012688D01*
X54202556Y-56034472D01*
X54202779Y-56035662D01*
X54204168Y-56043096D01*
X54204169Y-56043098D01*
X54220016Y-56068689D01*
X54223217Y-56074761D01*
X54235382Y-56102312D01*
X54235383Y-56102314D01*
X54241584Y-56108515D01*
X54255746Y-56126395D01*
X54260359Y-56133845D01*
X54284380Y-56151985D01*
X54289559Y-56156491D01*
X54643197Y-56510129D01*
X54647702Y-56515306D01*
X54655045Y-56525030D01*
X54655046Y-56525031D01*
X54655047Y-56525032D01*
X54686925Y-56554093D01*
X54688752Y-56555758D01*
X54690404Y-56557336D01*
X54703654Y-56570585D01*
X54707175Y-56573509D01*
X54705951Y-56574981D01*
X54738686Y-56617474D01*
X54740403Y-56678635D01*
X54720247Y-56715529D01*
X54679867Y-56762130D01*
X54627843Y-56876046D01*
X54627842Y-56876048D01*
X54610022Y-56999997D01*
X54610022Y-57000002D01*
X54627842Y-57123951D01*
X54627843Y-57123953D01*
X54627843Y-57123954D01*
X54627844Y-57123956D01*
X54679867Y-57237870D01*
X54679868Y-57237871D01*
X54761875Y-57332512D01*
X54761875Y-57332513D01*
X54845495Y-57386252D01*
X54867227Y-57400218D01*
X54987385Y-57435500D01*
X54987386Y-57435500D01*
X55112614Y-57435500D01*
X55112615Y-57435500D01*
X55232773Y-57400218D01*
X55338124Y-57332513D01*
X55374086Y-57291010D01*
X55426479Y-57259415D01*
X55487440Y-57264650D01*
X55518908Y-57285838D01*
X56043198Y-57810129D01*
X56047703Y-57815306D01*
X56055046Y-57825030D01*
X56055047Y-57825031D01*
X56055048Y-57825032D01*
X56088600Y-57855619D01*
X56088753Y-57855758D01*
X56090405Y-57857336D01*
X56103655Y-57870585D01*
X56107176Y-57873509D01*
X56105957Y-57874976D01*
X56138696Y-57917503D01*
X56140395Y-57978665D01*
X56120247Y-58015529D01*
X56079867Y-58062130D01*
X56027843Y-58176046D01*
X56027842Y-58176048D01*
X56010022Y-58299997D01*
X56010022Y-58300002D01*
X56027842Y-58423951D01*
X56027843Y-58423953D01*
X56027843Y-58423954D01*
X56027844Y-58423956D01*
X56079867Y-58537870D01*
X56079868Y-58537871D01*
X56161875Y-58632512D01*
X56161875Y-58632513D01*
X56258919Y-58694879D01*
X56267227Y-58700218D01*
X56387385Y-58735500D01*
X56387386Y-58735500D01*
X56512614Y-58735500D01*
X56512615Y-58735500D01*
X56632773Y-58700218D01*
X56738124Y-58632513D01*
X56820133Y-58537870D01*
X56872156Y-58423956D01*
X56875189Y-58402859D01*
X56902182Y-58347953D01*
X56956295Y-58319398D01*
X57016858Y-58328103D01*
X57043185Y-58346943D01*
X58606370Y-59910129D01*
X58610875Y-59915306D01*
X58618218Y-59925030D01*
X58651925Y-59955758D01*
X58653577Y-59957336D01*
X58666822Y-59970581D01*
X58666826Y-59970584D01*
X58669462Y-59972390D01*
X58674840Y-59976649D01*
X58687149Y-59987870D01*
X58697100Y-59996941D01*
X58705269Y-60000105D01*
X58725456Y-60010747D01*
X58732680Y-60015695D01*
X58732683Y-60015697D01*
X58761998Y-60022591D01*
X58768541Y-60024617D01*
X58769448Y-60024969D01*
X58794550Y-60034694D01*
X58796631Y-60035500D01*
X58805395Y-60035500D01*
X58828061Y-60038129D01*
X58836587Y-60040135D01*
X58860455Y-60036805D01*
X58866410Y-60035975D01*
X58873256Y-60035500D01*
X58975928Y-60035500D01*
X59034119Y-60054407D01*
X59050745Y-60069667D01*
X59061876Y-60082513D01*
X59061878Y-60082514D01*
X59061880Y-60082516D01*
X59167225Y-60150217D01*
X59167227Y-60150218D01*
X59287385Y-60185500D01*
X59287386Y-60185500D01*
X59412614Y-60185500D01*
X59412615Y-60185500D01*
X59532773Y-60150218D01*
X59638124Y-60082513D01*
X59720133Y-59987870D01*
X59772156Y-59873956D01*
X59773086Y-59867487D01*
X59789978Y-59750002D01*
X59789978Y-59749997D01*
X59772157Y-59626048D01*
X59772156Y-59626046D01*
X59772156Y-59626044D01*
X59720133Y-59512130D01*
X59682342Y-59468517D01*
X59658525Y-59412157D01*
X59672384Y-59352562D01*
X59684225Y-59338504D01*
X59683487Y-59337865D01*
X59739364Y-59273379D01*
X59770133Y-59237870D01*
X59822156Y-59123956D01*
X59823086Y-59117487D01*
X59839978Y-59000002D01*
X59839978Y-58999997D01*
X59822157Y-58876048D01*
X59822156Y-58876046D01*
X59822156Y-58876044D01*
X59770133Y-58762130D01*
X59688124Y-58667487D01*
X59688124Y-58667486D01*
X59582774Y-58599782D01*
X59462616Y-58564500D01*
X59462615Y-58564500D01*
X59337385Y-58564500D01*
X59337383Y-58564500D01*
X59217225Y-58599782D01*
X59111880Y-58667483D01*
X59106528Y-58672122D01*
X59104389Y-58669654D01*
X59063587Y-58694121D01*
X59002639Y-58688733D01*
X58971400Y-58667642D01*
X58162766Y-57859008D01*
X57339495Y-57035736D01*
X57311718Y-56981219D01*
X57310499Y-56965732D01*
X57310499Y-56820871D01*
X57310974Y-56814024D01*
X57312658Y-56801951D01*
X57310552Y-56756400D01*
X57310499Y-56754113D01*
X57310499Y-56735379D01*
X57310499Y-56735373D01*
X57309907Y-56732208D01*
X57309119Y-56725419D01*
X57307729Y-56695330D01*
X57304189Y-56687313D01*
X57297440Y-56665517D01*
X57297149Y-56663959D01*
X57295831Y-56656906D01*
X57279973Y-56631296D01*
X57276778Y-56625231D01*
X57267516Y-56604255D01*
X57264615Y-56597685D01*
X57264614Y-56597684D01*
X57264613Y-56597682D01*
X57258416Y-56591485D01*
X57244250Y-56573600D01*
X57239640Y-56566155D01*
X57215613Y-56548010D01*
X57210436Y-56543505D01*
X56856800Y-56189869D01*
X56852294Y-56184691D01*
X56844952Y-56174968D01*
X56819741Y-56151985D01*
X56811240Y-56144235D01*
X56809593Y-56142662D01*
X56796347Y-56129417D01*
X56792828Y-56126495D01*
X56794039Y-56125035D01*
X56761289Y-56082456D01*
X56759616Y-56021293D01*
X56779753Y-55984470D01*
X56820133Y-55937870D01*
X56872156Y-55823956D01*
X56872157Y-55823951D01*
X56889978Y-55700002D01*
X56889978Y-55699997D01*
X56872157Y-55576048D01*
X56872156Y-55576046D01*
X56872156Y-55576044D01*
X56820133Y-55462130D01*
X56738124Y-55367487D01*
X56738124Y-55367486D01*
X56632774Y-55299782D01*
X56512616Y-55264500D01*
X56512615Y-55264500D01*
X56387385Y-55264500D01*
X56387383Y-55264500D01*
X56267225Y-55299782D01*
X56161877Y-55367485D01*
X56081650Y-55460072D01*
X56029254Y-55491667D01*
X55968293Y-55486431D01*
X55922052Y-55446363D01*
X55907937Y-55399809D01*
X55907730Y-55395330D01*
X55904190Y-55387313D01*
X55897441Y-55365517D01*
X55895832Y-55356906D01*
X55879974Y-55331296D01*
X55876779Y-55325231D01*
X55870989Y-55312120D01*
X55864616Y-55297685D01*
X55864615Y-55297684D01*
X55864614Y-55297682D01*
X55858417Y-55291485D01*
X55844251Y-55273600D01*
X55839641Y-55266155D01*
X55815614Y-55248010D01*
X55810437Y-55243505D01*
X55531801Y-54964869D01*
X55527295Y-54959691D01*
X55519953Y-54949968D01*
X55486246Y-54919240D01*
X55484594Y-54917662D01*
X55471348Y-54904417D01*
X55471340Y-54904410D01*
X55468693Y-54902596D01*
X55463323Y-54898342D01*
X55453939Y-54889788D01*
X55441073Y-54878059D01*
X55441069Y-54878057D01*
X55441067Y-54878056D01*
X55432898Y-54874891D01*
X55412724Y-54864258D01*
X55411868Y-54863671D01*
X55405490Y-54859303D01*
X55405489Y-54859302D01*
X55405488Y-54859302D01*
X55376177Y-54852407D01*
X55369623Y-54850378D01*
X55341546Y-54839501D01*
X55341543Y-54839500D01*
X55341542Y-54839500D01*
X55341540Y-54839500D01*
X55332778Y-54839500D01*
X55310111Y-54836870D01*
X55301586Y-54834865D01*
X55271763Y-54839025D01*
X55264917Y-54839500D01*
X55083835Y-54839500D01*
X55025644Y-54820593D01*
X55013831Y-54810504D01*
X53407831Y-53204504D01*
X53380054Y-53149987D01*
X53389625Y-53089555D01*
X53432890Y-53046290D01*
X53477835Y-53035500D01*
X54340734Y-53035500D01*
X54398925Y-53054407D01*
X54410738Y-53064496D01*
X55156370Y-53810129D01*
X55160875Y-53815306D01*
X55168218Y-53825030D01*
X55201925Y-53855758D01*
X55203577Y-53857336D01*
X55212138Y-53865896D01*
X55216827Y-53870585D01*
X55219474Y-53872398D01*
X55224840Y-53876648D01*
X55247100Y-53896941D01*
X55255270Y-53900106D01*
X55275452Y-53910744D01*
X55282683Y-53915697D01*
X55312002Y-53922592D01*
X55318541Y-53924617D01*
X55346631Y-53935500D01*
X55355395Y-53935500D01*
X55378061Y-53938129D01*
X55386587Y-53940135D01*
X55410455Y-53936805D01*
X55416410Y-53935975D01*
X55423256Y-53935500D01*
X56308442Y-53935500D01*
X56366633Y-53954407D01*
X56402597Y-54003907D01*
X56402597Y-54065093D01*
X56366633Y-54114593D01*
X56336334Y-54129490D01*
X56267225Y-54149782D01*
X56161875Y-54217486D01*
X56161875Y-54217487D01*
X56079868Y-54312128D01*
X56079867Y-54312129D01*
X56079867Y-54312130D01*
X56065053Y-54344568D01*
X56027843Y-54426046D01*
X56027842Y-54426048D01*
X56010022Y-54549997D01*
X56010022Y-54550002D01*
X56027842Y-54673951D01*
X56027843Y-54673953D01*
X56027843Y-54673954D01*
X56027844Y-54673956D01*
X56079867Y-54787870D01*
X56090566Y-54800217D01*
X56161875Y-54882512D01*
X56161875Y-54882513D01*
X56235767Y-54930000D01*
X56267227Y-54950218D01*
X56387385Y-54985500D01*
X56387386Y-54985500D01*
X56512614Y-54985500D01*
X56512615Y-54985500D01*
X56632773Y-54950218D01*
X56738124Y-54882513D01*
X56820133Y-54787870D01*
X56872156Y-54673956D01*
X56872157Y-54673951D01*
X56889978Y-54550002D01*
X56889978Y-54549997D01*
X56872157Y-54426048D01*
X56872156Y-54426046D01*
X56872156Y-54426044D01*
X56820133Y-54312130D01*
X56738124Y-54217487D01*
X56738124Y-54217486D01*
X56632774Y-54149782D01*
X56563666Y-54129490D01*
X56513159Y-54094954D01*
X56492598Y-54037327D01*
X56509837Y-53978620D01*
X56558290Y-53941257D01*
X56591558Y-53935500D01*
X57525928Y-53935500D01*
X57584119Y-53954407D01*
X57600745Y-53969667D01*
X57611876Y-53982513D01*
X57611878Y-53982514D01*
X57611880Y-53982516D01*
X57714843Y-54048686D01*
X57717227Y-54050218D01*
X57837385Y-54085500D01*
X57837386Y-54085500D01*
X57962614Y-54085500D01*
X57962615Y-54085500D01*
X58082773Y-54050218D01*
X58188124Y-53982513D01*
X58270133Y-53887870D01*
X58322156Y-53773956D01*
X58327344Y-53737871D01*
X58339978Y-53650002D01*
X58339978Y-53649997D01*
X58322157Y-53526048D01*
X58322156Y-53526046D01*
X58322156Y-53526044D01*
X58299130Y-53475626D01*
X58292156Y-53414840D01*
X58322242Y-53361563D01*
X58377898Y-53336145D01*
X58389184Y-53335500D01*
X59169421Y-53335500D01*
X59227612Y-53354407D01*
X59263576Y-53403907D01*
X59267413Y-53448589D01*
X59260022Y-53499996D01*
X59260022Y-53500002D01*
X59277842Y-53623951D01*
X59277843Y-53623953D01*
X59277843Y-53623954D01*
X59277844Y-53623956D01*
X59329867Y-53737870D01*
X59329868Y-53737871D01*
X59411875Y-53832512D01*
X59411875Y-53832513D01*
X59517225Y-53900217D01*
X59517227Y-53900218D01*
X59637385Y-53935500D01*
X59637386Y-53935500D01*
X59762614Y-53935500D01*
X59762615Y-53935500D01*
X59882773Y-53900218D01*
X59988124Y-53832513D01*
X60070133Y-53737870D01*
X60122156Y-53623956D01*
X60122157Y-53623951D01*
X60139978Y-53500002D01*
X60139978Y-53499997D01*
X60122157Y-53376048D01*
X60122156Y-53376046D01*
X60122156Y-53376044D01*
X60070133Y-53262130D01*
X59988124Y-53167487D01*
X59978680Y-53161418D01*
X59963176Y-53151454D01*
X59941263Y-53137371D01*
X59902533Y-53090006D01*
X59898145Y-53075564D01*
X59895686Y-53064500D01*
X59883294Y-53008732D01*
X59882326Y-53002556D01*
X59880965Y-52987870D01*
X59879357Y-52970516D01*
X59859944Y-52931529D01*
X59858733Y-52928908D01*
X59841622Y-52888826D01*
X59836906Y-52881756D01*
X59831782Y-52874970D01*
X59830664Y-52873951D01*
X59799578Y-52845611D01*
X59797530Y-52843632D01*
X59767083Y-52812425D01*
X59767081Y-52812424D01*
X59767078Y-52812421D01*
X59760143Y-52807543D01*
X59752899Y-52803058D01*
X59712278Y-52787321D01*
X59709610Y-52786196D01*
X59669975Y-52768109D01*
X59661740Y-52766064D01*
X59653369Y-52764500D01*
X59653368Y-52764500D01*
X59609797Y-52764500D01*
X59606910Y-52764415D01*
X59581833Y-52762945D01*
X59563427Y-52761867D01*
X59563425Y-52761867D01*
X59563423Y-52761867D01*
X59563420Y-52761867D01*
X59554322Y-52763023D01*
X59554220Y-52762224D01*
X59539710Y-52764500D01*
X56939184Y-52764500D01*
X56880993Y-52745593D01*
X56845029Y-52696093D01*
X56845029Y-52634907D01*
X56849131Y-52624373D01*
X56872156Y-52573956D01*
X56877257Y-52538477D01*
X56889978Y-52450002D01*
X56889978Y-52449997D01*
X56872157Y-52326048D01*
X56872156Y-52326046D01*
X56872156Y-52326044D01*
X56820133Y-52212130D01*
X56738124Y-52117487D01*
X56738124Y-52117486D01*
X56632774Y-52049782D01*
X56512616Y-52014500D01*
X56512615Y-52014500D01*
X56387385Y-52014500D01*
X56387383Y-52014500D01*
X56267225Y-52049782D01*
X56161875Y-52117486D01*
X56161875Y-52117487D01*
X56079868Y-52212128D01*
X56027843Y-52326046D01*
X56027842Y-52326049D01*
X56024810Y-52347141D01*
X55997814Y-52402049D01*
X55943700Y-52430602D01*
X55883137Y-52421894D01*
X55856814Y-52403056D01*
X55443628Y-51989869D01*
X55439122Y-51984691D01*
X55431780Y-51974968D01*
X55408489Y-51953735D01*
X55398068Y-51944235D01*
X55396421Y-51942662D01*
X55383175Y-51929417D01*
X55383167Y-51929410D01*
X55380520Y-51927596D01*
X55375150Y-51923342D01*
X55361107Y-51910541D01*
X55352900Y-51903059D01*
X55352896Y-51903057D01*
X55352894Y-51903056D01*
X55344725Y-51899891D01*
X55324551Y-51889258D01*
X55317313Y-51884300D01*
X55311899Y-51881910D01*
X55266305Y-51841108D01*
X55253401Y-51781299D01*
X55278117Y-51725328D01*
X55298360Y-51708067D01*
X55338124Y-51682513D01*
X55420133Y-51587870D01*
X55472156Y-51473956D01*
X55476162Y-51446093D01*
X55489978Y-51350002D01*
X56010022Y-51350002D01*
X56027842Y-51473951D01*
X56027843Y-51473953D01*
X56027843Y-51473954D01*
X56027844Y-51473956D01*
X56079867Y-51587870D01*
X56079868Y-51587871D01*
X56161875Y-51682512D01*
X56161875Y-51682513D01*
X56249989Y-51739140D01*
X56267227Y-51750218D01*
X56387385Y-51785500D01*
X56387386Y-51785500D01*
X56512614Y-51785500D01*
X56512615Y-51785500D01*
X56632773Y-51750218D01*
X56738124Y-51682513D01*
X56820133Y-51587870D01*
X56872156Y-51473956D01*
X56876162Y-51446093D01*
X56889978Y-51350002D01*
X56889978Y-51349997D01*
X56872157Y-51226048D01*
X56872156Y-51226046D01*
X56872156Y-51226044D01*
X56820133Y-51112130D01*
X56738124Y-51017487D01*
X56738124Y-51017486D01*
X56632774Y-50949782D01*
X56512616Y-50914500D01*
X56512615Y-50914500D01*
X56387385Y-50914500D01*
X56387383Y-50914500D01*
X56267225Y-50949782D01*
X56161875Y-51017486D01*
X56161875Y-51017487D01*
X56079868Y-51112128D01*
X56027843Y-51226046D01*
X56027842Y-51226048D01*
X56010022Y-51349997D01*
X56010022Y-51350002D01*
X55489978Y-51350002D01*
X55489978Y-51349997D01*
X55472157Y-51226048D01*
X55472156Y-51226046D01*
X55472156Y-51226044D01*
X55420133Y-51112130D01*
X55338124Y-51017487D01*
X55338124Y-51017486D01*
X55232774Y-50949782D01*
X55112616Y-50914500D01*
X55112615Y-50914500D01*
X54987385Y-50914500D01*
X54987383Y-50914500D01*
X54867225Y-50949782D01*
X54761875Y-51017486D01*
X54761875Y-51017487D01*
X54679868Y-51112128D01*
X54627843Y-51226046D01*
X54627842Y-51226048D01*
X54610022Y-51349997D01*
X54610022Y-51350002D01*
X54627842Y-51473951D01*
X54627843Y-51473953D01*
X54627843Y-51473954D01*
X54627844Y-51473956D01*
X54679867Y-51587870D01*
X54679868Y-51587871D01*
X54761875Y-51682512D01*
X54767226Y-51687149D01*
X54766311Y-51688204D01*
X54800146Y-51729585D01*
X54803637Y-51790670D01*
X54770556Y-51842142D01*
X54713539Y-51864339D01*
X54707890Y-51864500D01*
X53972110Y-51864500D01*
X53913919Y-51845593D01*
X53877955Y-51796093D01*
X53877955Y-51734907D01*
X53913919Y-51685407D01*
X53918024Y-51682599D01*
X53918119Y-51682515D01*
X53918124Y-51682513D01*
X54000133Y-51587870D01*
X54052156Y-51473956D01*
X54056162Y-51446093D01*
X54069978Y-51350002D01*
X54069978Y-51349997D01*
X54052157Y-51226048D01*
X54052156Y-51226046D01*
X54052156Y-51226044D01*
X54000133Y-51112130D01*
X53918124Y-51017487D01*
X53918124Y-51017486D01*
X53812774Y-50949782D01*
X53692616Y-50914500D01*
X53692615Y-50914500D01*
X53651374Y-50914500D01*
X53593183Y-50895593D01*
X53561322Y-50856631D01*
X53554241Y-50841126D01*
X53547265Y-50780343D01*
X53554237Y-50758881D01*
X53602156Y-50653956D01*
X53605032Y-50633953D01*
X53619978Y-50530002D01*
X53619978Y-50529997D01*
X53602157Y-50406048D01*
X53602156Y-50406046D01*
X53602156Y-50406044D01*
X53554240Y-50301124D01*
X53547266Y-50240340D01*
X53554239Y-50218879D01*
X53602156Y-50113956D01*
X53603594Y-50103953D01*
X53618540Y-50000002D01*
X54610022Y-50000002D01*
X54627842Y-50123951D01*
X54627843Y-50123953D01*
X54627843Y-50123954D01*
X54627844Y-50123956D01*
X54679867Y-50237870D01*
X54679868Y-50237871D01*
X54761875Y-50332512D01*
X54761875Y-50332513D01*
X54867225Y-50400217D01*
X54867227Y-50400218D01*
X54987385Y-50435500D01*
X54987386Y-50435500D01*
X55112614Y-50435500D01*
X55112615Y-50435500D01*
X55232773Y-50400218D01*
X55338124Y-50332513D01*
X55420133Y-50237870D01*
X55472156Y-50123956D01*
X55473594Y-50113956D01*
X55489978Y-50000002D01*
X56010022Y-50000002D01*
X56027842Y-50123951D01*
X56027843Y-50123953D01*
X56027843Y-50123954D01*
X56027844Y-50123956D01*
X56079867Y-50237870D01*
X56079868Y-50237871D01*
X56161875Y-50332512D01*
X56161875Y-50332513D01*
X56267225Y-50400217D01*
X56267227Y-50400218D01*
X56387385Y-50435500D01*
X56387386Y-50435500D01*
X56512614Y-50435500D01*
X56512615Y-50435500D01*
X56632773Y-50400218D01*
X56738124Y-50332513D01*
X56820133Y-50237870D01*
X56872156Y-50123956D01*
X56873594Y-50113956D01*
X56889978Y-50000002D01*
X56889978Y-49999997D01*
X56872157Y-49876048D01*
X56872156Y-49876046D01*
X56872156Y-49876044D01*
X56820133Y-49762130D01*
X56738124Y-49667487D01*
X56738124Y-49667486D01*
X56632774Y-49599782D01*
X56512616Y-49564500D01*
X56512615Y-49564500D01*
X56387385Y-49564500D01*
X56387383Y-49564500D01*
X56267225Y-49599782D01*
X56161875Y-49667486D01*
X56161875Y-49667487D01*
X56079868Y-49762128D01*
X56027843Y-49876046D01*
X56027842Y-49876048D01*
X56010022Y-49999997D01*
X56010022Y-50000002D01*
X55489978Y-50000002D01*
X55489978Y-49999997D01*
X55472157Y-49876048D01*
X55472156Y-49876046D01*
X55472156Y-49876044D01*
X55420133Y-49762130D01*
X55338124Y-49667487D01*
X55338124Y-49667486D01*
X55232774Y-49599782D01*
X55112616Y-49564500D01*
X55112615Y-49564500D01*
X54987385Y-49564500D01*
X54987383Y-49564500D01*
X54867225Y-49599782D01*
X54761875Y-49667486D01*
X54761875Y-49667487D01*
X54679868Y-49762128D01*
X54627843Y-49876046D01*
X54627842Y-49876048D01*
X54610022Y-49999997D01*
X54610022Y-50000002D01*
X53618540Y-50000002D01*
X53619978Y-49990002D01*
X53619978Y-49989997D01*
X53602157Y-49866048D01*
X53602156Y-49866046D01*
X53602156Y-49866044D01*
X53554240Y-49761124D01*
X53547266Y-49700340D01*
X53554239Y-49678879D01*
X53602156Y-49573956D01*
X53603516Y-49564500D01*
X53619978Y-49450002D01*
X53619978Y-49449997D01*
X53602157Y-49326048D01*
X53602155Y-49326041D01*
X53551958Y-49216126D01*
X53544983Y-49155340D01*
X53551958Y-49133874D01*
X53601201Y-49026048D01*
X53602156Y-49023956D01*
X53607057Y-48989870D01*
X53619978Y-48900002D01*
X53619978Y-48899997D01*
X53602157Y-48776048D01*
X53602156Y-48776047D01*
X53602156Y-48776044D01*
X53551523Y-48665175D01*
X53544550Y-48604391D01*
X53551523Y-48582927D01*
X53592156Y-48493956D01*
X53597396Y-48457513D01*
X53609978Y-48370002D01*
X53609978Y-48369997D01*
X53592157Y-48246048D01*
X53592156Y-48246046D01*
X53592156Y-48246044D01*
X53550862Y-48155625D01*
X53543889Y-48094840D01*
X53573976Y-48041563D01*
X53629632Y-48016145D01*
X53640917Y-48015500D01*
X53702614Y-48015500D01*
X53702615Y-48015500D01*
X53822773Y-47980218D01*
X53928124Y-47912513D01*
X54010133Y-47817870D01*
X54062156Y-47703956D01*
X54063594Y-47693953D01*
X54079978Y-47580002D01*
X54079978Y-47579997D01*
X54062157Y-47456048D01*
X54062156Y-47456046D01*
X54062156Y-47456044D01*
X54010133Y-47342130D01*
X53928124Y-47247487D01*
X53928124Y-47247486D01*
X53843005Y-47192784D01*
X53804273Y-47145418D01*
X53800780Y-47084332D01*
X53833860Y-47032860D01*
X53890876Y-47010661D01*
X53896528Y-47010500D01*
X53965734Y-47010500D01*
X54023925Y-47029407D01*
X54035738Y-47039496D01*
X54056370Y-47060129D01*
X54060875Y-47065306D01*
X54068218Y-47075030D01*
X54101925Y-47105758D01*
X54103577Y-47107336D01*
X54113726Y-47117484D01*
X54116827Y-47120585D01*
X54119474Y-47122398D01*
X54124840Y-47126648D01*
X54147100Y-47146941D01*
X54155270Y-47150106D01*
X54175452Y-47160744D01*
X54182683Y-47165697D01*
X54212002Y-47172592D01*
X54218541Y-47174617D01*
X54246631Y-47185500D01*
X54255395Y-47185500D01*
X54278061Y-47188129D01*
X54286587Y-47190135D01*
X54310455Y-47186805D01*
X54316410Y-47185975D01*
X54323256Y-47185500D01*
X55085692Y-47185500D01*
X55143883Y-47204407D01*
X55179847Y-47253907D01*
X55179847Y-47315093D01*
X55143883Y-47364593D01*
X55139215Y-47367784D01*
X55061875Y-47417486D01*
X55061875Y-47417487D01*
X54979868Y-47512128D01*
X54927843Y-47626046D01*
X54927842Y-47626048D01*
X54910022Y-47749997D01*
X54910022Y-47750002D01*
X54927842Y-47873951D01*
X54927843Y-47873953D01*
X54927843Y-47873954D01*
X54927844Y-47873956D01*
X54979867Y-47987870D01*
X55001841Y-48013229D01*
X55061875Y-48082512D01*
X55067226Y-48087149D01*
X55066311Y-48088204D01*
X55100146Y-48129585D01*
X55103637Y-48190670D01*
X55070556Y-48242142D01*
X55013539Y-48264339D01*
X55007890Y-48264500D01*
X54987383Y-48264500D01*
X54867225Y-48299782D01*
X54761875Y-48367486D01*
X54761875Y-48367487D01*
X54679868Y-48462128D01*
X54679867Y-48462129D01*
X54679867Y-48462130D01*
X54664979Y-48494730D01*
X54627843Y-48576046D01*
X54627842Y-48576048D01*
X54610022Y-48699997D01*
X54610022Y-48700002D01*
X54627842Y-48823951D01*
X54627843Y-48823953D01*
X54627843Y-48823954D01*
X54627844Y-48823956D01*
X54679867Y-48937870D01*
X54679868Y-48937871D01*
X54761875Y-49032512D01*
X54761875Y-49032513D01*
X54844325Y-49085500D01*
X54867227Y-49100218D01*
X54987385Y-49135500D01*
X54987386Y-49135500D01*
X55112614Y-49135500D01*
X55112615Y-49135500D01*
X55232773Y-49100218D01*
X55338124Y-49032513D01*
X55420133Y-48937870D01*
X55472156Y-48823956D01*
X55473086Y-48817487D01*
X55489978Y-48700002D01*
X56010022Y-48700002D01*
X56027842Y-48823951D01*
X56027843Y-48823953D01*
X56027843Y-48823954D01*
X56027844Y-48823956D01*
X56079867Y-48937870D01*
X56079868Y-48937871D01*
X56161875Y-49032512D01*
X56161875Y-49032513D01*
X56244325Y-49085500D01*
X56267227Y-49100218D01*
X56387385Y-49135500D01*
X56387386Y-49135500D01*
X56512614Y-49135500D01*
X56512615Y-49135500D01*
X56632773Y-49100218D01*
X56738124Y-49032513D01*
X56820133Y-48937870D01*
X56872156Y-48823956D01*
X56873086Y-48817487D01*
X56889978Y-48700002D01*
X56889978Y-48699997D01*
X56872157Y-48576048D01*
X56872156Y-48576046D01*
X56872156Y-48576044D01*
X56820133Y-48462130D01*
X56738124Y-48367487D01*
X56738124Y-48367486D01*
X56632774Y-48299782D01*
X56512616Y-48264500D01*
X56512615Y-48264500D01*
X56387385Y-48264500D01*
X56387383Y-48264500D01*
X56267225Y-48299782D01*
X56161875Y-48367486D01*
X56161875Y-48367487D01*
X56079868Y-48462128D01*
X56079867Y-48462129D01*
X56079867Y-48462130D01*
X56064979Y-48494730D01*
X56027843Y-48576046D01*
X56027842Y-48576048D01*
X56010022Y-48699997D01*
X56010022Y-48700002D01*
X55489978Y-48700002D01*
X55489978Y-48699997D01*
X55472157Y-48576048D01*
X55472156Y-48576046D01*
X55472156Y-48576044D01*
X55420133Y-48462130D01*
X55338124Y-48367487D01*
X55332774Y-48362851D01*
X55333688Y-48361795D01*
X55299854Y-48320415D01*
X55296363Y-48259330D01*
X55329444Y-48207858D01*
X55386461Y-48185661D01*
X55392110Y-48185500D01*
X55412614Y-48185500D01*
X55412615Y-48185500D01*
X55532773Y-48150218D01*
X55638124Y-48082513D01*
X55720133Y-47987870D01*
X55772156Y-47873956D01*
X55772582Y-47870993D01*
X55789978Y-47750002D01*
X55789978Y-47749997D01*
X55772157Y-47626048D01*
X55772156Y-47626046D01*
X55772156Y-47626044D01*
X55720133Y-47512130D01*
X55638124Y-47417487D01*
X55638124Y-47417486D01*
X55560785Y-47367784D01*
X55522053Y-47320418D01*
X55518560Y-47259332D01*
X55551640Y-47207860D01*
X55608656Y-47185661D01*
X55614308Y-47185500D01*
X55983650Y-47185500D01*
X56041841Y-47204407D01*
X56077805Y-47253907D01*
X56077805Y-47315093D01*
X56073706Y-47325619D01*
X56052291Y-47372513D01*
X56027843Y-47426046D01*
X56027842Y-47426048D01*
X56010022Y-47549997D01*
X56010022Y-47550002D01*
X56027842Y-47673951D01*
X56027843Y-47673953D01*
X56027843Y-47673954D01*
X56027844Y-47673956D01*
X56079867Y-47787870D01*
X56079868Y-47787871D01*
X56161875Y-47882512D01*
X56161875Y-47882513D01*
X56267225Y-47950217D01*
X56267227Y-47950218D01*
X56387385Y-47985500D01*
X56387386Y-47985500D01*
X56512614Y-47985500D01*
X56512615Y-47985500D01*
X56632773Y-47950218D01*
X56738124Y-47882513D01*
X56820133Y-47787870D01*
X56872156Y-47673956D01*
X56872228Y-47673456D01*
X56889978Y-47550002D01*
X56889978Y-47549997D01*
X56872157Y-47426048D01*
X56872156Y-47426046D01*
X56872156Y-47426044D01*
X56826295Y-47325624D01*
X56819322Y-47264840D01*
X56849409Y-47211563D01*
X56905065Y-47186145D01*
X56916350Y-47185500D01*
X57587455Y-47185500D01*
X57640978Y-47201216D01*
X57712977Y-47247487D01*
X57717227Y-47250218D01*
X57837385Y-47285500D01*
X57837386Y-47285500D01*
X57962614Y-47285500D01*
X57962615Y-47285500D01*
X58082773Y-47250218D01*
X58188124Y-47182513D01*
X58270133Y-47087870D01*
X58322156Y-46973956D01*
X58330482Y-46916046D01*
X58339978Y-46850002D01*
X58339978Y-46849997D01*
X58322157Y-46726048D01*
X58322156Y-46726046D01*
X58322156Y-46726044D01*
X58270133Y-46612130D01*
X58188124Y-46517487D01*
X58188124Y-46517486D01*
X58082774Y-46449782D01*
X57962616Y-46414500D01*
X57962615Y-46414500D01*
X57962019Y-46414500D01*
X57961546Y-46414346D01*
X57955609Y-46413493D01*
X57955756Y-46412465D01*
X57903828Y-46395593D01*
X57867864Y-46346093D01*
X57867864Y-46284907D01*
X57871963Y-46274378D01*
X57872156Y-46273956D01*
X57874499Y-46257661D01*
X57889978Y-46150002D01*
X57889978Y-46149997D01*
X57872157Y-46026048D01*
X57872156Y-46026044D01*
X57863693Y-46007513D01*
X57860547Y-46000625D01*
X57853573Y-45939841D01*
X57883659Y-45886563D01*
X57939315Y-45861145D01*
X57950601Y-45860500D01*
X58957300Y-45860500D01*
X59015491Y-45879407D01*
X59042192Y-45908565D01*
X59262601Y-46275915D01*
X59276327Y-46335541D01*
X59275701Y-46340938D01*
X59260022Y-46449995D01*
X59260022Y-46450002D01*
X59277842Y-46573951D01*
X59277843Y-46573953D01*
X59277843Y-46573954D01*
X59277844Y-46573956D01*
X59329867Y-46687870D01*
X59329868Y-46687871D01*
X59411875Y-46782512D01*
X59411875Y-46782513D01*
X59517225Y-46850217D01*
X59517227Y-46850218D01*
X59637385Y-46885500D01*
X59637386Y-46885500D01*
X59762614Y-46885500D01*
X59762615Y-46885500D01*
X59882773Y-46850218D01*
X59988124Y-46782513D01*
X60070133Y-46687870D01*
X60122156Y-46573956D01*
X60139978Y-46450000D01*
X60139977Y-46449995D01*
X60122157Y-46326048D01*
X60122156Y-46326046D01*
X60122156Y-46326044D01*
X60070133Y-46212130D01*
X59988124Y-46117487D01*
X59988124Y-46117486D01*
X59882772Y-46049781D01*
X59882770Y-46049780D01*
X59810682Y-46028612D01*
X59760176Y-45994076D01*
X59753683Y-45984558D01*
X59567946Y-45674997D01*
X59426559Y-45439352D01*
X59424707Y-45435970D01*
X59406780Y-45399968D01*
X59406779Y-45399967D01*
X59380520Y-45376028D01*
X59376829Y-45372286D01*
X59353255Y-45345689D01*
X59353254Y-45345688D01*
X59351052Y-45344553D01*
X59329727Y-45329724D01*
X59327900Y-45328059D01*
X59327898Y-45328057D01*
X59294764Y-45315221D01*
X59289961Y-45313060D01*
X59258384Y-45296782D01*
X59258381Y-45296781D01*
X59258380Y-45296780D01*
X59258377Y-45296780D01*
X59255921Y-45296518D01*
X59230680Y-45290394D01*
X59228375Y-45289501D01*
X59228369Y-45289500D01*
X59228368Y-45289500D01*
X59192828Y-45289500D01*
X59187575Y-45289220D01*
X59158493Y-45286115D01*
X59152247Y-45285448D01*
X59152241Y-45285448D01*
X59149862Y-45286090D01*
X59124104Y-45289500D01*
X57234041Y-45289500D01*
X57227193Y-45289025D01*
X57215124Y-45287340D01*
X57176632Y-45289120D01*
X57169565Y-45289447D01*
X57167289Y-45289500D01*
X57148546Y-45289500D01*
X57148532Y-45289501D01*
X57145380Y-45290090D01*
X57138575Y-45290879D01*
X57108500Y-45292270D01*
X57100482Y-45295810D01*
X57078698Y-45302556D01*
X57070082Y-45304167D01*
X57070076Y-45304169D01*
X57044472Y-45320021D01*
X57038405Y-45323219D01*
X57010856Y-45335384D01*
X57005557Y-45339014D01*
X56946864Y-45356298D01*
X56889220Y-45335782D01*
X56859560Y-45298463D01*
X56820133Y-45212130D01*
X56738124Y-45117487D01*
X56738124Y-45117486D01*
X56632774Y-45049782D01*
X56512616Y-45014500D01*
X56512615Y-45014500D01*
X56387385Y-45014500D01*
X56387383Y-45014500D01*
X56267225Y-45049782D01*
X56161875Y-45117486D01*
X56161875Y-45117487D01*
X56079867Y-45212128D01*
X56071367Y-45230742D01*
X56029994Y-45275819D01*
X55970027Y-45287968D01*
X55914371Y-45262550D01*
X55884285Y-45209273D01*
X55883322Y-45203703D01*
X55872157Y-45126048D01*
X55872156Y-45126046D01*
X55872156Y-45126044D01*
X55820133Y-45012130D01*
X55738124Y-44917487D01*
X55738124Y-44917486D01*
X55632774Y-44849782D01*
X55512616Y-44814500D01*
X55512615Y-44814500D01*
X55440537Y-44814500D01*
X55382346Y-44795593D01*
X55346382Y-44746093D01*
X55346382Y-44684907D01*
X55365718Y-44650669D01*
X55408692Y-44601073D01*
X55420133Y-44587870D01*
X55472156Y-44473956D01*
X55472506Y-44471523D01*
X55489978Y-44350002D01*
X55489978Y-44349997D01*
X55482790Y-44300002D01*
X56010022Y-44300002D01*
X56027842Y-44423951D01*
X56027843Y-44423953D01*
X56027843Y-44423954D01*
X56027844Y-44423956D01*
X56079867Y-44537870D01*
X56079868Y-44537871D01*
X56161875Y-44632512D01*
X56161875Y-44632513D01*
X56248013Y-44687870D01*
X56267227Y-44700218D01*
X56387385Y-44735500D01*
X56387386Y-44735500D01*
X56512614Y-44735500D01*
X56512615Y-44735500D01*
X56632773Y-44700218D01*
X56738124Y-44632513D01*
X56820133Y-44537870D01*
X56872156Y-44423956D01*
X56876389Y-44394514D01*
X56889978Y-44300002D01*
X56889978Y-44299997D01*
X56872157Y-44176048D01*
X56872156Y-44176046D01*
X56872156Y-44176044D01*
X56820133Y-44062130D01*
X56738124Y-43967487D01*
X56738124Y-43967486D01*
X56632774Y-43899782D01*
X56512616Y-43864500D01*
X56512615Y-43864500D01*
X56387385Y-43864500D01*
X56387383Y-43864500D01*
X56267225Y-43899782D01*
X56161875Y-43967486D01*
X56161875Y-43967487D01*
X56079868Y-44062128D01*
X56027843Y-44176046D01*
X56027842Y-44176048D01*
X56010022Y-44299997D01*
X56010022Y-44300002D01*
X55482790Y-44300002D01*
X55472157Y-44226048D01*
X55472156Y-44226046D01*
X55472156Y-44226044D01*
X55420133Y-44112130D01*
X55338124Y-44017487D01*
X55338124Y-44017486D01*
X55232774Y-43949782D01*
X55112616Y-43914500D01*
X55112615Y-43914500D01*
X54987385Y-43914500D01*
X54987383Y-43914500D01*
X54867225Y-43949782D01*
X54761875Y-44017486D01*
X54761875Y-44017487D01*
X54679868Y-44112128D01*
X54627843Y-44226046D01*
X54627842Y-44226048D01*
X54610022Y-44349997D01*
X54610022Y-44350002D01*
X54627842Y-44473951D01*
X54627843Y-44473953D01*
X54627843Y-44473954D01*
X54627844Y-44473956D01*
X54679867Y-44587870D01*
X54691308Y-44601073D01*
X54761875Y-44682512D01*
X54761875Y-44682513D01*
X54867225Y-44750217D01*
X54867227Y-44750218D01*
X54987385Y-44785500D01*
X54987386Y-44785500D01*
X55059463Y-44785500D01*
X55117654Y-44804407D01*
X55153618Y-44853907D01*
X55153618Y-44915093D01*
X55134282Y-44949331D01*
X55079868Y-45012127D01*
X55027843Y-45126046D01*
X55027842Y-45126048D01*
X55010022Y-45249997D01*
X55010022Y-45250002D01*
X55027842Y-45373951D01*
X55027844Y-45373959D01*
X55062286Y-45449374D01*
X55069261Y-45510160D01*
X55039174Y-45563437D01*
X54983518Y-45588855D01*
X54972233Y-45589500D01*
X52323644Y-45589500D01*
X52270121Y-45573784D01*
X52234737Y-45551044D01*
X52232772Y-45549781D01*
X52112616Y-45514500D01*
X52112615Y-45514500D01*
X51987385Y-45514500D01*
X51987383Y-45514500D01*
X51867225Y-45549782D01*
X51761875Y-45617486D01*
X51761875Y-45617487D01*
X51679867Y-45712129D01*
X51652209Y-45772691D01*
X51610837Y-45817768D01*
X51550870Y-45829919D01*
X51495214Y-45804501D01*
X51492152Y-45801568D01*
X51381419Y-45690835D01*
X51369106Y-45675830D01*
X51359993Y-45662191D01*
X51348343Y-45654407D01*
X51293087Y-45617486D01*
X51273826Y-45604616D01*
X51273825Y-45604615D01*
X51273824Y-45604615D01*
X51197836Y-45589500D01*
X51172182Y-45584397D01*
X51172181Y-45584397D01*
X51156090Y-45587598D01*
X51136776Y-45589500D01*
X50198910Y-45589500D01*
X50140719Y-45570593D01*
X50128906Y-45560504D01*
X49909736Y-45341334D01*
X49881959Y-45286817D01*
X49881748Y-45257240D01*
X49889978Y-45200001D01*
X49889978Y-45199997D01*
X49872157Y-45076048D01*
X49872156Y-45076046D01*
X49872156Y-45076044D01*
X49820133Y-44962130D01*
X49738124Y-44867487D01*
X49738124Y-44867486D01*
X49632774Y-44799782D01*
X49512616Y-44764500D01*
X49512615Y-44764500D01*
X49387385Y-44764500D01*
X49387383Y-44764500D01*
X49267226Y-44799782D01*
X49238022Y-44818550D01*
X49178846Y-44834103D01*
X49121830Y-44811904D01*
X49088752Y-44760431D01*
X49085500Y-44735265D01*
X49085500Y-44659264D01*
X49104407Y-44601073D01*
X49114497Y-44589260D01*
X49539262Y-44164496D01*
X49593778Y-44136719D01*
X49609265Y-44135500D01*
X49662614Y-44135500D01*
X49662615Y-44135500D01*
X49782773Y-44100218D01*
X49888124Y-44032513D01*
X49970133Y-43937870D01*
X50022156Y-43823956D01*
X50022640Y-43820593D01*
X50039978Y-43700002D01*
X50039978Y-43699997D01*
X50022157Y-43576048D01*
X50022156Y-43576046D01*
X50022156Y-43576044D01*
X49970133Y-43462130D01*
X49888124Y-43367487D01*
X49888124Y-43367486D01*
X49782773Y-43299781D01*
X49760044Y-43293108D01*
X49709537Y-43258572D01*
X49688975Y-43200945D01*
X49691564Y-43175455D01*
X49697592Y-43149828D01*
X49699617Y-43143286D01*
X49710500Y-43115196D01*
X49710500Y-43106432D01*
X49713130Y-43083763D01*
X49715135Y-43075240D01*
X49710975Y-43045416D01*
X49710500Y-43038569D01*
X49710500Y-42397466D01*
X49729407Y-42339275D01*
X49734671Y-42332646D01*
X49795133Y-42262870D01*
X49847156Y-42148956D01*
X49849313Y-42133953D01*
X49864978Y-42025002D01*
X49864978Y-42024997D01*
X49847157Y-41901048D01*
X49847156Y-41901046D01*
X49847156Y-41901044D01*
X49795133Y-41787130D01*
X49771330Y-41759660D01*
X49717206Y-41697197D01*
X49693388Y-41640838D01*
X49707246Y-41581243D01*
X49717197Y-41567545D01*
X49778761Y-41496498D01*
X49830784Y-41382584D01*
X49830794Y-41382513D01*
X49849614Y-41251620D01*
X49852312Y-41252007D01*
X49867513Y-41205224D01*
X49877602Y-41193411D01*
X50931518Y-40139496D01*
X50986035Y-40111719D01*
X51001522Y-40110500D01*
X51364832Y-40110500D01*
X51423023Y-40129407D01*
X51458987Y-40178907D01*
X51458987Y-40240093D01*
X51454885Y-40250627D01*
X51447843Y-40266044D01*
X51447842Y-40266048D01*
X51430022Y-40389997D01*
X51430022Y-40390002D01*
X51447842Y-40513951D01*
X51447843Y-40513953D01*
X51447843Y-40513954D01*
X51447844Y-40513956D01*
X51495759Y-40618874D01*
X51502733Y-40679660D01*
X51495759Y-40701123D01*
X51488287Y-40717487D01*
X51447843Y-40806046D01*
X51447842Y-40806048D01*
X51430022Y-40929997D01*
X51430022Y-40930002D01*
X51447842Y-41053951D01*
X51447843Y-41053953D01*
X51447843Y-41053954D01*
X51447844Y-41053956D01*
X51495759Y-41158874D01*
X51502733Y-41219660D01*
X51495759Y-41241123D01*
X51487767Y-41258625D01*
X51447843Y-41346046D01*
X51447842Y-41346048D01*
X51430022Y-41469997D01*
X51430022Y-41470002D01*
X51447842Y-41593951D01*
X51447843Y-41593953D01*
X51447843Y-41593954D01*
X51447844Y-41593956D01*
X51495759Y-41698874D01*
X51502733Y-41759660D01*
X51495759Y-41781123D01*
X51493018Y-41787127D01*
X51447843Y-41886046D01*
X51447842Y-41886048D01*
X51430022Y-42009997D01*
X51430022Y-42010002D01*
X51447842Y-42133951D01*
X51447843Y-42133953D01*
X51447843Y-42133954D01*
X51447844Y-42133956D01*
X51495759Y-42238874D01*
X51502733Y-42299660D01*
X51495759Y-42321123D01*
X51479141Y-42357513D01*
X51447843Y-42426046D01*
X51447842Y-42426048D01*
X51430022Y-42549997D01*
X51430022Y-42550002D01*
X51447842Y-42673951D01*
X51447843Y-42673953D01*
X51447843Y-42673954D01*
X51447844Y-42673956D01*
X51495759Y-42778874D01*
X51502733Y-42839660D01*
X51495759Y-42861123D01*
X51488946Y-42876044D01*
X51447843Y-42966046D01*
X51447842Y-42966048D01*
X51430022Y-43089997D01*
X51430022Y-43090002D01*
X51447842Y-43213951D01*
X51447843Y-43213953D01*
X51447843Y-43213954D01*
X51447844Y-43213956D01*
X51483992Y-43293108D01*
X51495759Y-43318874D01*
X51502733Y-43379660D01*
X51495759Y-43401123D01*
X51483163Y-43428707D01*
X51447843Y-43506046D01*
X51447842Y-43506048D01*
X51430022Y-43629997D01*
X51430022Y-43630002D01*
X51447842Y-43753951D01*
X51447843Y-43753953D01*
X51447843Y-43753954D01*
X51447844Y-43753956D01*
X51495651Y-43858638D01*
X51495759Y-43858874D01*
X51502733Y-43919660D01*
X51495759Y-43941123D01*
X51483720Y-43967487D01*
X51447843Y-44046046D01*
X51447842Y-44046048D01*
X51430022Y-44169997D01*
X51430022Y-44170002D01*
X51447842Y-44293951D01*
X51447843Y-44293953D01*
X51447843Y-44293954D01*
X51447844Y-44293956D01*
X51499867Y-44407870D01*
X51515936Y-44426415D01*
X51581875Y-44502512D01*
X51581875Y-44502513D01*
X51687225Y-44570217D01*
X51687227Y-44570218D01*
X51807385Y-44605500D01*
X51807386Y-44605500D01*
X51877760Y-44605500D01*
X51935951Y-44624407D01*
X51967813Y-44663372D01*
X51969867Y-44667871D01*
X52051875Y-44762512D01*
X52051875Y-44762513D01*
X52156858Y-44829981D01*
X52157227Y-44830218D01*
X52277385Y-44865500D01*
X52277386Y-44865500D01*
X52402614Y-44865500D01*
X52402615Y-44865500D01*
X52522773Y-44830218D01*
X52628124Y-44762513D01*
X52710133Y-44667870D01*
X52712186Y-44663373D01*
X52753555Y-44618297D01*
X52802239Y-44605500D01*
X52803193Y-44605500D01*
X52861384Y-44624407D01*
X52893246Y-44663373D01*
X52899867Y-44677870D01*
X52899866Y-44677870D01*
X52981875Y-44772512D01*
X52981875Y-44772513D01*
X53087225Y-44840217D01*
X53087227Y-44840218D01*
X53207385Y-44875500D01*
X53207386Y-44875500D01*
X53332614Y-44875500D01*
X53332615Y-44875500D01*
X53452773Y-44840218D01*
X53558124Y-44772513D01*
X53640133Y-44677870D01*
X53644700Y-44667870D01*
X53646754Y-44663373D01*
X53688127Y-44618295D01*
X53736807Y-44605500D01*
X53792614Y-44605500D01*
X53792615Y-44605500D01*
X53912773Y-44570218D01*
X54018124Y-44502513D01*
X54100133Y-44407870D01*
X54152156Y-44293956D01*
X54156590Y-44263116D01*
X54169978Y-44170002D01*
X54169978Y-44169997D01*
X54152157Y-44046048D01*
X54152156Y-44046046D01*
X54152156Y-44046044D01*
X54100133Y-43932130D01*
X54018124Y-43837487D01*
X54018124Y-43837486D01*
X53912774Y-43769782D01*
X53792616Y-43734500D01*
X53792615Y-43734500D01*
X53736807Y-43734500D01*
X53678616Y-43715593D01*
X53646754Y-43676627D01*
X53643592Y-43669705D01*
X53640133Y-43662130D01*
X53640132Y-43662129D01*
X53640133Y-43662129D01*
X53558124Y-43567487D01*
X53558124Y-43567486D01*
X53452774Y-43499782D01*
X53332616Y-43464500D01*
X53332615Y-43464500D01*
X53276807Y-43464500D01*
X53218616Y-43445593D01*
X53186758Y-43406637D01*
X53185097Y-43403000D01*
X53184244Y-43401133D01*
X53177264Y-43340350D01*
X53184237Y-43318881D01*
X53232156Y-43213956D01*
X53235243Y-43192486D01*
X53249978Y-43090002D01*
X53249978Y-43089997D01*
X53237039Y-43000002D01*
X54610022Y-43000002D01*
X54627842Y-43123951D01*
X54627843Y-43123953D01*
X54627843Y-43123954D01*
X54627844Y-43123956D01*
X54679867Y-43237870D01*
X54698209Y-43259038D01*
X54761875Y-43332512D01*
X54761875Y-43332513D01*
X54867225Y-43400217D01*
X54867227Y-43400218D01*
X54987385Y-43435500D01*
X54987386Y-43435500D01*
X55112614Y-43435500D01*
X55112615Y-43435500D01*
X55232773Y-43400218D01*
X55338124Y-43332513D01*
X55420133Y-43237870D01*
X55472156Y-43123956D01*
X55472157Y-43123951D01*
X55489978Y-43000002D01*
X56010022Y-43000002D01*
X56027842Y-43123951D01*
X56027843Y-43123953D01*
X56027843Y-43123954D01*
X56027844Y-43123956D01*
X56079867Y-43237870D01*
X56098209Y-43259038D01*
X56161875Y-43332512D01*
X56161875Y-43332513D01*
X56267225Y-43400217D01*
X56267227Y-43400218D01*
X56387385Y-43435500D01*
X56387386Y-43435500D01*
X56512614Y-43435500D01*
X56512615Y-43435500D01*
X56632773Y-43400218D01*
X56738124Y-43332513D01*
X56820133Y-43237870D01*
X56872156Y-43123956D01*
X56872157Y-43123951D01*
X56889978Y-43000002D01*
X56889978Y-42999997D01*
X56872157Y-42876048D01*
X56872156Y-42876046D01*
X56872156Y-42876044D01*
X56820133Y-42762130D01*
X56738124Y-42667487D01*
X56738124Y-42667486D01*
X56632774Y-42599782D01*
X56512616Y-42564500D01*
X56512615Y-42564500D01*
X56387385Y-42564500D01*
X56387383Y-42564500D01*
X56267225Y-42599782D01*
X56161875Y-42667486D01*
X56161875Y-42667487D01*
X56079868Y-42762128D01*
X56027843Y-42876046D01*
X56027842Y-42876048D01*
X56010022Y-42999997D01*
X56010022Y-43000002D01*
X55489978Y-43000002D01*
X55489978Y-42999997D01*
X55472157Y-42876048D01*
X55472156Y-42876046D01*
X55472156Y-42876044D01*
X55420133Y-42762130D01*
X55338124Y-42667487D01*
X55338124Y-42667486D01*
X55232774Y-42599782D01*
X55112616Y-42564500D01*
X55112615Y-42564500D01*
X54987385Y-42564500D01*
X54987383Y-42564500D01*
X54867225Y-42599782D01*
X54761875Y-42667486D01*
X54761875Y-42667487D01*
X54679868Y-42762128D01*
X54627843Y-42876046D01*
X54627842Y-42876048D01*
X54610022Y-42999997D01*
X54610022Y-43000002D01*
X53237039Y-43000002D01*
X53232157Y-42966048D01*
X53232156Y-42966046D01*
X53232156Y-42966044D01*
X53184240Y-42861124D01*
X53177266Y-42800340D01*
X53184241Y-42778874D01*
X53232156Y-42673956D01*
X53233086Y-42667487D01*
X53249978Y-42550002D01*
X53249978Y-42549997D01*
X53232157Y-42426048D01*
X53232156Y-42426046D01*
X53232156Y-42426044D01*
X53184240Y-42321124D01*
X53177266Y-42260340D01*
X53184241Y-42238874D01*
X53232156Y-42133956D01*
X53246741Y-42032513D01*
X53249978Y-42010002D01*
X53249978Y-42009997D01*
X53232157Y-41886048D01*
X53232156Y-41886046D01*
X53232156Y-41886044D01*
X53184240Y-41781124D01*
X53177266Y-41720340D01*
X53183874Y-41700002D01*
X54610022Y-41700002D01*
X54627842Y-41823951D01*
X54627843Y-41823953D01*
X54627843Y-41823954D01*
X54627844Y-41823956D01*
X54679867Y-41937870D01*
X54679868Y-41937871D01*
X54761875Y-42032512D01*
X54761875Y-42032513D01*
X54867225Y-42100217D01*
X54867227Y-42100218D01*
X54987385Y-42135500D01*
X54987386Y-42135500D01*
X55112614Y-42135500D01*
X55112615Y-42135500D01*
X55232773Y-42100218D01*
X55338124Y-42032513D01*
X55420133Y-41937870D01*
X55472156Y-41823956D01*
X55478314Y-41781126D01*
X55489978Y-41700002D01*
X56010022Y-41700002D01*
X56027842Y-41823951D01*
X56027843Y-41823953D01*
X56027843Y-41823954D01*
X56027844Y-41823956D01*
X56079867Y-41937870D01*
X56079868Y-41937871D01*
X56161875Y-42032512D01*
X56161875Y-42032513D01*
X56267225Y-42100217D01*
X56267227Y-42100218D01*
X56387385Y-42135500D01*
X56387386Y-42135500D01*
X56512614Y-42135500D01*
X56512615Y-42135500D01*
X56632773Y-42100218D01*
X56738124Y-42032513D01*
X56820133Y-41937870D01*
X56872156Y-41823956D01*
X56878314Y-41781126D01*
X56889978Y-41700002D01*
X56889978Y-41699997D01*
X56872157Y-41576048D01*
X56872156Y-41576046D01*
X56872156Y-41576044D01*
X56820133Y-41462130D01*
X56738124Y-41367487D01*
X56738124Y-41367486D01*
X56632774Y-41299782D01*
X56512616Y-41264500D01*
X56512615Y-41264500D01*
X56387385Y-41264500D01*
X56387383Y-41264500D01*
X56267225Y-41299782D01*
X56161875Y-41367486D01*
X56161875Y-41367487D01*
X56079868Y-41462128D01*
X56027843Y-41576046D01*
X56027842Y-41576048D01*
X56010022Y-41699997D01*
X56010022Y-41700002D01*
X55489978Y-41700002D01*
X55489978Y-41699997D01*
X55472157Y-41576048D01*
X55472156Y-41576046D01*
X55472156Y-41576044D01*
X55420133Y-41462130D01*
X55338124Y-41367487D01*
X55338124Y-41367486D01*
X55232774Y-41299782D01*
X55112616Y-41264500D01*
X55112615Y-41264500D01*
X54987385Y-41264500D01*
X54987383Y-41264500D01*
X54867225Y-41299782D01*
X54761875Y-41367486D01*
X54761875Y-41367487D01*
X54679868Y-41462128D01*
X54627843Y-41576046D01*
X54627842Y-41576048D01*
X54610022Y-41699997D01*
X54610022Y-41700002D01*
X53183874Y-41700002D01*
X53184241Y-41698874D01*
X53232156Y-41593956D01*
X53234731Y-41576046D01*
X53249978Y-41470002D01*
X53249978Y-41469997D01*
X53232157Y-41346048D01*
X53232156Y-41346046D01*
X53232156Y-41346044D01*
X53184240Y-41241124D01*
X53177266Y-41180340D01*
X53184241Y-41158874D01*
X53232156Y-41053956D01*
X53232157Y-41053951D01*
X53249978Y-40930002D01*
X53249978Y-40929997D01*
X53232157Y-40806048D01*
X53232156Y-40806046D01*
X53232156Y-40806044D01*
X53184240Y-40701124D01*
X53177266Y-40640340D01*
X53184241Y-40618874D01*
X53232156Y-40513956D01*
X53232157Y-40513951D01*
X53249978Y-40390002D01*
X53249978Y-40389997D01*
X53232157Y-40266048D01*
X53232156Y-40266044D01*
X53225115Y-40250627D01*
X53218140Y-40189841D01*
X53248226Y-40136563D01*
X53303882Y-40111145D01*
X53315168Y-40110500D01*
X56037801Y-40110500D01*
X56095992Y-40129407D01*
X56131956Y-40178907D01*
X56131956Y-40240093D01*
X56112621Y-40274329D01*
X56090190Y-40300217D01*
X56079867Y-40312130D01*
X56027843Y-40426046D01*
X56027842Y-40426048D01*
X56010022Y-40549997D01*
X56010022Y-40550002D01*
X56027842Y-40673951D01*
X56027843Y-40673953D01*
X56027843Y-40673954D01*
X56027844Y-40673956D01*
X56079867Y-40787870D01*
X56079868Y-40787871D01*
X56161875Y-40882512D01*
X56161875Y-40882513D01*
X56235767Y-40930000D01*
X56267227Y-40950218D01*
X56387385Y-40985500D01*
X56387386Y-40985500D01*
X56512614Y-40985500D01*
X56512615Y-40985500D01*
X56632773Y-40950218D01*
X56738124Y-40882513D01*
X56820133Y-40787870D01*
X56872156Y-40673956D01*
X56880076Y-40618873D01*
X56889978Y-40550002D01*
X56889978Y-40549997D01*
X56872157Y-40426048D01*
X56872156Y-40426046D01*
X56872156Y-40426044D01*
X56820133Y-40312130D01*
X56787379Y-40274330D01*
X56763562Y-40217972D01*
X56777420Y-40158377D01*
X56823661Y-40118309D01*
X56862199Y-40110500D01*
X57865949Y-40110500D01*
X57872796Y-40110975D01*
X57884870Y-40112659D01*
X57884873Y-40112660D01*
X57884875Y-40112659D01*
X57884876Y-40112660D01*
X57908740Y-40111556D01*
X57930445Y-40110552D01*
X57932726Y-40110500D01*
X57951448Y-40110500D01*
X57951454Y-40110500D01*
X57954602Y-40109911D01*
X57961402Y-40109120D01*
X57991497Y-40107730D01*
X57999506Y-40104193D01*
X58021306Y-40097441D01*
X58029921Y-40095832D01*
X58055523Y-40079978D01*
X58061580Y-40076785D01*
X58089141Y-40064617D01*
X58095337Y-40058419D01*
X58113223Y-40044252D01*
X58120672Y-40039641D01*
X58138824Y-40015601D01*
X58143314Y-40010442D01*
X58389261Y-39764496D01*
X58443778Y-39736719D01*
X58459265Y-39735500D01*
X58512614Y-39735500D01*
X58512615Y-39735500D01*
X58632773Y-39700218D01*
X58738124Y-39632513D01*
X58820133Y-39537870D01*
X58872156Y-39423956D01*
X58872157Y-39423951D01*
X58889978Y-39300002D01*
X58889978Y-39299997D01*
X58872157Y-39176048D01*
X58872156Y-39176046D01*
X58872156Y-39176044D01*
X58820133Y-39062130D01*
X58738124Y-38967487D01*
X58738124Y-38967486D01*
X58632774Y-38899782D01*
X58512616Y-38864500D01*
X58512615Y-38864500D01*
X58387385Y-38864500D01*
X58387383Y-38864500D01*
X58267225Y-38899782D01*
X58161875Y-38967486D01*
X58159313Y-38970444D01*
X58106914Y-39002035D01*
X58045953Y-38996794D01*
X57999716Y-38956722D01*
X57985499Y-38905609D01*
X57985499Y-38686000D01*
X60108357Y-38686000D01*
X60128885Y-38907536D01*
X60189771Y-39121528D01*
X60288942Y-39320689D01*
X60423019Y-39498236D01*
X60587438Y-39648124D01*
X60776599Y-39765247D01*
X60984060Y-39845618D01*
X61202757Y-39886500D01*
X61425243Y-39886500D01*
X61643940Y-39845618D01*
X61851401Y-39765247D01*
X62040562Y-39648124D01*
X62204981Y-39498236D01*
X62339058Y-39320689D01*
X62438229Y-39121528D01*
X62499115Y-38907536D01*
X62519643Y-38686000D01*
X62499115Y-38464464D01*
X62438229Y-38250472D01*
X62339058Y-38051311D01*
X62204981Y-37873764D01*
X62040562Y-37723876D01*
X61851401Y-37606753D01*
X61643940Y-37526382D01*
X61643939Y-37526381D01*
X61643937Y-37526381D01*
X61425243Y-37485500D01*
X61202757Y-37485500D01*
X60984062Y-37526381D01*
X60907797Y-37555926D01*
X60776599Y-37606753D01*
X60641260Y-37690551D01*
X60587438Y-37723876D01*
X60423020Y-37873763D01*
X60288943Y-38051309D01*
X60288938Y-38051318D01*
X60189772Y-38250469D01*
X60189771Y-38250472D01*
X60128885Y-38464464D01*
X60108357Y-38686000D01*
X57985499Y-38686000D01*
X57985499Y-36942802D01*
X57982775Y-36913742D01*
X57954240Y-36832197D01*
X57952868Y-36771028D01*
X57987711Y-36720734D01*
X58045463Y-36700525D01*
X58047685Y-36700500D01*
X61274118Y-36700500D01*
X61312380Y-36700500D01*
X61315616Y-36700605D01*
G37*
G04 #@! TD.AperFunction*
G04 #@! TA.AperFunction,Conductor*
G36*
X38104504Y-52808262D02*
G01*
X39321641Y-54025399D01*
X39341690Y-54054276D01*
X39379867Y-54137870D01*
X39461875Y-54232512D01*
X39461875Y-54232513D01*
X39550669Y-54289577D01*
X39567227Y-54300218D01*
X39687385Y-54335500D01*
X39687386Y-54335500D01*
X39812614Y-54335500D01*
X39812615Y-54335500D01*
X39897609Y-54310543D01*
X39958768Y-54312290D01*
X40007221Y-54349652D01*
X40024500Y-54405533D01*
X40024500Y-56216178D01*
X40005593Y-56274369D01*
X39988637Y-56286687D01*
X40013059Y-56310421D01*
X40024500Y-56356621D01*
X40024500Y-56684543D01*
X40024025Y-56691387D01*
X40022339Y-56703471D01*
X40024447Y-56749037D01*
X40024500Y-56751324D01*
X40024500Y-56770055D01*
X40025088Y-56773202D01*
X40025879Y-56780018D01*
X40027269Y-56810093D01*
X40027269Y-56810095D01*
X40027270Y-56810097D01*
X40030810Y-56818115D01*
X40037557Y-56839902D01*
X40039168Y-56848523D01*
X40039169Y-56848525D01*
X40055016Y-56874116D01*
X40058217Y-56880188D01*
X40069182Y-56905022D01*
X40070383Y-56907741D01*
X40076584Y-56913942D01*
X40090746Y-56931822D01*
X40093362Y-56936046D01*
X40095359Y-56939272D01*
X40119380Y-56957412D01*
X40124559Y-56961918D01*
X40726193Y-57563551D01*
X40753970Y-57618068D01*
X40751696Y-57653429D01*
X40752451Y-57653538D01*
X40733622Y-57784499D01*
X40733622Y-57784504D01*
X40751442Y-57908453D01*
X40751444Y-57908458D01*
X40756202Y-57918877D01*
X40763176Y-57979664D01*
X40733088Y-58032940D01*
X40677432Y-58058357D01*
X40666148Y-58059002D01*
X40621798Y-58059002D01*
X40563607Y-58040095D01*
X40551794Y-58030005D01*
X40232589Y-57710799D01*
X40204812Y-57656283D01*
X40204425Y-57651371D01*
X40185772Y-57521633D01*
X40185771Y-57521631D01*
X40185771Y-57521629D01*
X40133748Y-57407715D01*
X40051739Y-57313072D01*
X40051739Y-57313071D01*
X39946389Y-57245367D01*
X39826231Y-57210085D01*
X39826230Y-57210085D01*
X39701000Y-57210085D01*
X39700998Y-57210085D01*
X39580840Y-57245367D01*
X39475490Y-57313071D01*
X39475490Y-57313072D01*
X39393482Y-57407713D01*
X39372696Y-57453228D01*
X39331323Y-57498305D01*
X39271356Y-57510454D01*
X39215700Y-57485036D01*
X39212639Y-57482104D01*
X38016937Y-56286402D01*
X38955622Y-56286402D01*
X38973442Y-56410351D01*
X38973443Y-56410353D01*
X38973443Y-56410354D01*
X38973444Y-56410356D01*
X39025467Y-56524270D01*
X39039095Y-56539997D01*
X39107475Y-56618912D01*
X39107475Y-56618913D01*
X39209598Y-56684543D01*
X39212827Y-56686618D01*
X39332985Y-56721900D01*
X39332986Y-56721900D01*
X39458214Y-56721900D01*
X39458215Y-56721900D01*
X39578373Y-56686618D01*
X39683724Y-56618913D01*
X39765733Y-56524270D01*
X39817756Y-56410356D01*
X39817757Y-56410351D01*
X39827508Y-56342532D01*
X39854504Y-56287625D01*
X39859803Y-56284828D01*
X39845407Y-56274369D01*
X39827508Y-56230267D01*
X39817757Y-56162449D01*
X39817756Y-56162446D01*
X39817756Y-56162444D01*
X39765733Y-56048530D01*
X39683724Y-55953887D01*
X39683724Y-55953886D01*
X39578374Y-55886182D01*
X39458216Y-55850900D01*
X39458215Y-55850900D01*
X39332985Y-55850900D01*
X39332983Y-55850900D01*
X39212825Y-55886182D01*
X39107475Y-55953886D01*
X39107475Y-55953887D01*
X39025468Y-56048528D01*
X38973443Y-56162446D01*
X38973442Y-56162448D01*
X38955622Y-56286397D01*
X38955622Y-56286402D01*
X38016937Y-56286402D01*
X37964496Y-56233961D01*
X37936719Y-56179444D01*
X37935500Y-56163957D01*
X37935500Y-54713354D01*
X37944447Y-54672227D01*
X37944968Y-54671087D01*
X37962656Y-54632356D01*
X37962657Y-54632351D01*
X37980478Y-54508402D01*
X37980478Y-54508397D01*
X37962657Y-54384448D01*
X37962656Y-54384446D01*
X37962656Y-54384444D01*
X37951837Y-54360753D01*
X37944446Y-54344568D01*
X37935500Y-54303443D01*
X37935500Y-52878266D01*
X37954407Y-52820075D01*
X38003907Y-52784111D01*
X38065093Y-52784111D01*
X38104504Y-52808262D01*
G37*
G04 #@! TD.AperFunction*
G04 #@! TA.AperFunction,Conductor*
G36*
X49766081Y-52104407D02*
G01*
X49802045Y-52153907D01*
X49802045Y-52215093D01*
X49766081Y-52264593D01*
X49761975Y-52267400D01*
X49761875Y-52267487D01*
X49679868Y-52362128D01*
X49627843Y-52476046D01*
X49627842Y-52476048D01*
X49610022Y-52599997D01*
X49610022Y-52600002D01*
X49627842Y-52723951D01*
X49627843Y-52723953D01*
X49627843Y-52723954D01*
X49627844Y-52723956D01*
X49679867Y-52837870D01*
X49740319Y-52907635D01*
X49764137Y-52963994D01*
X49764500Y-52972466D01*
X49764500Y-55316530D01*
X49745593Y-55374721D01*
X49696093Y-55410685D01*
X49637608Y-55411520D01*
X49562616Y-55389500D01*
X49562615Y-55389500D01*
X49437385Y-55389500D01*
X49437383Y-55389500D01*
X49317225Y-55424782D01*
X49211875Y-55492486D01*
X49211875Y-55492487D01*
X49135758Y-55580331D01*
X49083362Y-55611927D01*
X49060939Y-55614500D01*
X49034041Y-55614500D01*
X49027193Y-55614025D01*
X49015124Y-55612340D01*
X48976632Y-55614120D01*
X48969565Y-55614447D01*
X48967289Y-55614500D01*
X48948546Y-55614500D01*
X48948532Y-55614501D01*
X48945380Y-55615090D01*
X48938575Y-55615879D01*
X48908500Y-55617270D01*
X48900482Y-55620810D01*
X48878698Y-55627556D01*
X48870082Y-55629167D01*
X48870076Y-55629169D01*
X48844472Y-55645021D01*
X48838405Y-55648219D01*
X48810858Y-55660383D01*
X48810857Y-55660383D01*
X48804660Y-55666581D01*
X48786781Y-55680743D01*
X48779327Y-55685358D01*
X48761180Y-55709389D01*
X48756675Y-55714565D01*
X48533370Y-55937872D01*
X48335739Y-56135503D01*
X48281222Y-56163281D01*
X48265735Y-56164500D01*
X47539184Y-56164500D01*
X47480993Y-56145593D01*
X47445029Y-56096093D01*
X47445029Y-56034907D01*
X47449131Y-56024373D01*
X47460261Y-56000002D01*
X47472156Y-55973956D01*
X47473497Y-55964628D01*
X47489978Y-55850002D01*
X47489978Y-55849997D01*
X47472157Y-55726048D01*
X47472156Y-55726046D01*
X47472156Y-55726044D01*
X47420133Y-55612130D01*
X47338124Y-55517487D01*
X47338124Y-55517486D01*
X47232774Y-55449782D01*
X47112616Y-55414500D01*
X47112615Y-55414500D01*
X46987385Y-55414500D01*
X46987383Y-55414500D01*
X46867225Y-55449782D01*
X46761875Y-55517486D01*
X46761875Y-55517487D01*
X46679867Y-55612129D01*
X46652209Y-55672690D01*
X46610836Y-55717768D01*
X46550869Y-55729918D01*
X46495214Y-55704499D01*
X46492152Y-55701567D01*
X46224631Y-55434046D01*
X46196854Y-55379529D01*
X46206425Y-55319097D01*
X46249690Y-55275832D01*
X46256342Y-55273187D01*
X46256330Y-55273161D01*
X46262770Y-55270218D01*
X46262773Y-55270218D01*
X46368124Y-55202513D01*
X46402326Y-55163041D01*
X46454719Y-55131446D01*
X46515680Y-55136681D01*
X46530660Y-55144584D01*
X46617227Y-55200218D01*
X46737385Y-55235500D01*
X46737386Y-55235500D01*
X46862614Y-55235500D01*
X46862615Y-55235500D01*
X46982773Y-55200218D01*
X47088124Y-55132513D01*
X47170133Y-55037870D01*
X47222156Y-54923956D01*
X47223061Y-54917662D01*
X47239978Y-54800002D01*
X47239978Y-54799997D01*
X47222157Y-54676048D01*
X47222156Y-54676046D01*
X47222156Y-54676044D01*
X47170133Y-54562130D01*
X47170131Y-54562128D01*
X47170131Y-54562127D01*
X47109681Y-54492364D01*
X47085863Y-54436005D01*
X47085500Y-54427533D01*
X47085500Y-53528266D01*
X47104407Y-53470075D01*
X47153907Y-53434111D01*
X47215093Y-53434111D01*
X47254504Y-53458262D01*
X48085819Y-54289577D01*
X48113596Y-54344094D01*
X48113807Y-54373669D01*
X48110022Y-54399996D01*
X48110022Y-54400002D01*
X48127842Y-54523951D01*
X48127843Y-54523953D01*
X48127843Y-54523954D01*
X48127844Y-54523956D01*
X48179867Y-54637870D01*
X48179868Y-54637871D01*
X48261875Y-54732512D01*
X48261875Y-54732513D01*
X48367225Y-54800217D01*
X48367227Y-54800218D01*
X48487385Y-54835500D01*
X48487386Y-54835500D01*
X48612614Y-54835500D01*
X48612615Y-54835500D01*
X48732773Y-54800218D01*
X48838124Y-54732513D01*
X48920133Y-54637870D01*
X48972156Y-54523956D01*
X48974217Y-54509623D01*
X48989978Y-54400002D01*
X48989978Y-54399997D01*
X48972157Y-54276048D01*
X48972156Y-54276046D01*
X48972156Y-54276044D01*
X48920133Y-54162130D01*
X48838124Y-54067487D01*
X48838124Y-54067486D01*
X48732774Y-53999782D01*
X48612616Y-53964500D01*
X48612615Y-53964500D01*
X48609266Y-53964500D01*
X48606609Y-53963636D01*
X48605609Y-53963493D01*
X48605633Y-53963319D01*
X48551075Y-53945593D01*
X48539262Y-53935504D01*
X47446591Y-52842833D01*
X47418814Y-52788316D01*
X47428385Y-52727884D01*
X47471650Y-52684619D01*
X47488699Y-52677840D01*
X47582773Y-52650218D01*
X47688124Y-52582513D01*
X47770133Y-52487870D01*
X47822156Y-52373956D01*
X47822157Y-52373951D01*
X47840986Y-52242992D01*
X47843683Y-52243379D01*
X47858885Y-52196595D01*
X47868975Y-52184782D01*
X47939262Y-52114496D01*
X47993779Y-52086719D01*
X48009265Y-52085500D01*
X49707890Y-52085500D01*
X49766081Y-52104407D01*
G37*
G04 #@! TD.AperFunction*
G04 #@! TA.AperFunction,Conductor*
G36*
X45529038Y-52574351D02*
G01*
X45575278Y-52614418D01*
X45589500Y-52665542D01*
X45589500Y-53065943D01*
X45589025Y-53072787D01*
X45587339Y-53084871D01*
X45589447Y-53130437D01*
X45589500Y-53132724D01*
X45589500Y-53151455D01*
X45590088Y-53154602D01*
X45590879Y-53161418D01*
X45592269Y-53191493D01*
X45592269Y-53191495D01*
X45592270Y-53191497D01*
X45595810Y-53199515D01*
X45602557Y-53221302D01*
X45604168Y-53229923D01*
X45604169Y-53229925D01*
X45620016Y-53255516D01*
X45623217Y-53261588D01*
X45624015Y-53263395D01*
X45635383Y-53289141D01*
X45641584Y-53295342D01*
X45655746Y-53313222D01*
X45657279Y-53315697D01*
X45660359Y-53320672D01*
X45684380Y-53338812D01*
X45689559Y-53343318D01*
X46010503Y-53664261D01*
X46038280Y-53718778D01*
X46039499Y-53734265D01*
X46039500Y-54302562D01*
X46020593Y-54360753D01*
X46010505Y-54372564D01*
X45937828Y-54445240D01*
X45903186Y-54465794D01*
X45903665Y-54466842D01*
X45897225Y-54469782D01*
X45791874Y-54537488D01*
X45709867Y-54632129D01*
X45679074Y-54699555D01*
X45637702Y-54744632D01*
X45577735Y-54756783D01*
X45522079Y-54731365D01*
X45519017Y-54728432D01*
X45464496Y-54673911D01*
X45436719Y-54619394D01*
X45435500Y-54603907D01*
X45435500Y-54509623D01*
X45435975Y-54502776D01*
X45437659Y-54490701D01*
X45437660Y-54490699D01*
X45435552Y-54445126D01*
X45435500Y-54442846D01*
X45435500Y-54424120D01*
X45435500Y-54424118D01*
X45434909Y-54420962D01*
X45434120Y-54414156D01*
X45432730Y-54384075D01*
X45429190Y-54376058D01*
X45422441Y-54354262D01*
X45420832Y-54345651D01*
X45420829Y-54345646D01*
X45404978Y-54320046D01*
X45401781Y-54313982D01*
X45389617Y-54286431D01*
X45389616Y-54286430D01*
X45389616Y-54286429D01*
X45383417Y-54280230D01*
X45369251Y-54262345D01*
X45364641Y-54254900D01*
X45340614Y-54236755D01*
X45335437Y-54232250D01*
X44163177Y-53059991D01*
X44135400Y-53005474D01*
X44134181Y-52989987D01*
X44134181Y-52976559D01*
X44153088Y-52918368D01*
X44202588Y-52882404D01*
X44261071Y-52881569D01*
X44345566Y-52906379D01*
X44345567Y-52906379D01*
X44470795Y-52906379D01*
X44470796Y-52906379D01*
X44590954Y-52871097D01*
X44696305Y-52803392D01*
X44776575Y-52710755D01*
X44828967Y-52679162D01*
X44889928Y-52684397D01*
X44904909Y-52692302D01*
X44917227Y-52700218D01*
X45037385Y-52735500D01*
X45037386Y-52735500D01*
X45162614Y-52735500D01*
X45162615Y-52735500D01*
X45282773Y-52700218D01*
X45388124Y-52632513D01*
X45415680Y-52600711D01*
X45468077Y-52569115D01*
X45529038Y-52574351D01*
G37*
G04 #@! TD.AperFunction*
G04 #@! TA.AperFunction,Conductor*
G36*
X38524491Y-51926834D02*
G01*
X38530067Y-51929295D01*
X38530071Y-51929298D01*
X38548511Y-51933634D01*
X38559381Y-51936191D01*
X38565933Y-51938219D01*
X38594019Y-51949100D01*
X38602781Y-51949100D01*
X38625445Y-51951729D01*
X38633975Y-51953735D01*
X38657843Y-51950405D01*
X38663798Y-51949575D01*
X38670644Y-51949100D01*
X39219645Y-51949100D01*
X39277836Y-51968007D01*
X39313800Y-52017507D01*
X39313800Y-52078693D01*
X39309698Y-52089226D01*
X39273435Y-52168628D01*
X39273433Y-52168635D01*
X39255613Y-52292584D01*
X39255613Y-52292589D01*
X39273433Y-52416538D01*
X39273434Y-52416540D01*
X39273434Y-52416541D01*
X39273435Y-52416543D01*
X39325458Y-52530457D01*
X39336729Y-52543464D01*
X39407466Y-52625099D01*
X39407466Y-52625100D01*
X39500080Y-52684619D01*
X39512818Y-52692805D01*
X39632976Y-52728087D01*
X39632977Y-52728087D01*
X39758205Y-52728087D01*
X39758206Y-52728087D01*
X39878364Y-52692805D01*
X39878368Y-52692801D01*
X39884366Y-52690063D01*
X39945152Y-52683083D01*
X39998432Y-52713166D01*
X40023854Y-52768820D01*
X40024500Y-52780113D01*
X40024500Y-53394466D01*
X40005593Y-53452657D01*
X39956093Y-53488621D01*
X39897609Y-53489456D01*
X39812618Y-53464500D01*
X39812615Y-53464500D01*
X39687385Y-53464500D01*
X39687383Y-53464500D01*
X39687379Y-53464501D01*
X39651656Y-53474990D01*
X39590496Y-53473242D01*
X39553762Y-53450004D01*
X38414496Y-52310738D01*
X38386719Y-52256221D01*
X38385500Y-52240734D01*
X38385500Y-52017397D01*
X38404407Y-51959206D01*
X38453907Y-51923242D01*
X38515093Y-51923242D01*
X38524491Y-51926834D01*
G37*
G04 #@! TD.AperFunction*
G04 #@! TA.AperFunction,Conductor*
G36*
X49238021Y-45581448D02*
G01*
X49267227Y-45600218D01*
X49387385Y-45635500D01*
X49426090Y-45635500D01*
X49484281Y-45654407D01*
X49496094Y-45664496D01*
X49840762Y-46009164D01*
X49853071Y-46024162D01*
X49862190Y-46037810D01*
X49875196Y-46046500D01*
X49940488Y-46090127D01*
X49948355Y-46095383D01*
X49948356Y-46095384D01*
X49948358Y-46095385D01*
X50050000Y-46115603D01*
X50066092Y-46112401D01*
X50085406Y-46110500D01*
X51023272Y-46110500D01*
X51081463Y-46129407D01*
X51093275Y-46139495D01*
X51366244Y-46412465D01*
X51612946Y-46659167D01*
X51625255Y-46674165D01*
X51634372Y-46687810D01*
X51634375Y-46687812D01*
X51634376Y-46687813D01*
X51662166Y-46706381D01*
X51700046Y-46754430D01*
X51702450Y-46815568D01*
X51697220Y-46829823D01*
X51657843Y-46916046D01*
X51657842Y-46916048D01*
X51640022Y-47039997D01*
X51640022Y-47040002D01*
X51657842Y-47163951D01*
X51657843Y-47163953D01*
X51657843Y-47163954D01*
X51657844Y-47163956D01*
X51709867Y-47277870D01*
X51730397Y-47301563D01*
X51791875Y-47372512D01*
X51791875Y-47372513D01*
X51888440Y-47434571D01*
X51897227Y-47440218D01*
X52017385Y-47475500D01*
X52017386Y-47475500D01*
X52142610Y-47475500D01*
X52142615Y-47475500D01*
X52142619Y-47475498D01*
X52146928Y-47474879D01*
X52207218Y-47485310D01*
X52249862Y-47529186D01*
X52257766Y-47563171D01*
X52259014Y-47562992D01*
X52277842Y-47693951D01*
X52277843Y-47693953D01*
X52277843Y-47693954D01*
X52277844Y-47693956D01*
X52306754Y-47757260D01*
X52323475Y-47793874D01*
X52330449Y-47854661D01*
X52323478Y-47876118D01*
X52318684Y-47886618D01*
X52277317Y-47931699D01*
X52228627Y-47944500D01*
X52167383Y-47944500D01*
X52047225Y-47979782D01*
X51941875Y-48047486D01*
X51941875Y-48047487D01*
X51859867Y-48142128D01*
X51859867Y-48142129D01*
X51856858Y-48148719D01*
X51853704Y-48155626D01*
X51853247Y-48156626D01*
X51811875Y-48201704D01*
X51763193Y-48214500D01*
X51697383Y-48214500D01*
X51577225Y-48249782D01*
X51471875Y-48317486D01*
X51471875Y-48317487D01*
X51389868Y-48412128D01*
X51337843Y-48526046D01*
X51337842Y-48526048D01*
X51320022Y-48649997D01*
X51320022Y-48650002D01*
X51337842Y-48773951D01*
X51337843Y-48773953D01*
X51337843Y-48773954D01*
X51337844Y-48773956D01*
X51389867Y-48887870D01*
X51403026Y-48903056D01*
X51471875Y-48982512D01*
X51471875Y-48982513D01*
X51549677Y-49032513D01*
X51577227Y-49050218D01*
X51697385Y-49085500D01*
X51697386Y-49085500D01*
X51763193Y-49085500D01*
X51821384Y-49104407D01*
X51853247Y-49143375D01*
X51858475Y-49154823D01*
X51865449Y-49215609D01*
X51858475Y-49237074D01*
X51817843Y-49326046D01*
X51817842Y-49326048D01*
X51800022Y-49449997D01*
X51800022Y-49450002D01*
X51817842Y-49573951D01*
X51817843Y-49573953D01*
X51817843Y-49573954D01*
X51817844Y-49573956D01*
X51830649Y-49601995D01*
X51858475Y-49662925D01*
X51865449Y-49723712D01*
X51858475Y-49745177D01*
X51807843Y-49856046D01*
X51807842Y-49856048D01*
X51790022Y-49979997D01*
X51790022Y-49980002D01*
X51807842Y-50103951D01*
X51807843Y-50103953D01*
X51807843Y-50103954D01*
X51807844Y-50103956D01*
X51843720Y-50182513D01*
X51858475Y-50214822D01*
X51865449Y-50275609D01*
X51858475Y-50297074D01*
X51817843Y-50386046D01*
X51817842Y-50386048D01*
X51800022Y-50509997D01*
X51800022Y-50510002D01*
X51817842Y-50633951D01*
X51817843Y-50633953D01*
X51817843Y-50633954D01*
X51817844Y-50633956D01*
X51858946Y-50723956D01*
X51860759Y-50727926D01*
X51867733Y-50788713D01*
X51860758Y-50810178D01*
X51807844Y-50926040D01*
X51807842Y-50926048D01*
X51790022Y-51049997D01*
X51790022Y-51050002D01*
X51807842Y-51173951D01*
X51807843Y-51173953D01*
X51807843Y-51173954D01*
X51807844Y-51173956D01*
X51859867Y-51287870D01*
X51859868Y-51287871D01*
X51941875Y-51382512D01*
X51941875Y-51382513D01*
X52040808Y-51446093D01*
X52047227Y-51450218D01*
X52167385Y-51485500D01*
X52167386Y-51485500D01*
X52233193Y-51485500D01*
X52291384Y-51504407D01*
X52323246Y-51543373D01*
X52327670Y-51553059D01*
X52329867Y-51557870D01*
X52329867Y-51557871D01*
X52411875Y-51652512D01*
X52411875Y-51652513D01*
X52496995Y-51707216D01*
X52535727Y-51754582D01*
X52539220Y-51815668D01*
X52506140Y-51867140D01*
X52449124Y-51889339D01*
X52443472Y-51889500D01*
X51819090Y-51889500D01*
X51760899Y-51870593D01*
X51729037Y-51831627D01*
X51720133Y-51812130D01*
X51720131Y-51812128D01*
X51720131Y-51812127D01*
X51638124Y-51717487D01*
X51638124Y-51717486D01*
X51532774Y-51649782D01*
X51412616Y-51614500D01*
X51412615Y-51614500D01*
X51287385Y-51614500D01*
X51287383Y-51614500D01*
X51167225Y-51649782D01*
X51061875Y-51717486D01*
X51061875Y-51717487D01*
X50979868Y-51812128D01*
X50927843Y-51926046D01*
X50927842Y-51926048D01*
X50918524Y-51990856D01*
X50891527Y-52045764D01*
X50837413Y-52074316D01*
X50776850Y-52065608D01*
X50750528Y-52046770D01*
X50343628Y-51639869D01*
X50339122Y-51634691D01*
X50331780Y-51624968D01*
X50298073Y-51594240D01*
X50296421Y-51592662D01*
X50283175Y-51579417D01*
X50283167Y-51579410D01*
X50280520Y-51577596D01*
X50275150Y-51573342D01*
X50258177Y-51557870D01*
X50252900Y-51553059D01*
X50252896Y-51553057D01*
X50252894Y-51553056D01*
X50244725Y-51549891D01*
X50224551Y-51539258D01*
X50223695Y-51538671D01*
X50217317Y-51534303D01*
X50217316Y-51534302D01*
X50217315Y-51534302D01*
X50188004Y-51527407D01*
X50181450Y-51525378D01*
X50153373Y-51514501D01*
X50153370Y-51514500D01*
X50153369Y-51514500D01*
X50153367Y-51514500D01*
X50144605Y-51514500D01*
X50121938Y-51511870D01*
X50113413Y-51509865D01*
X50083590Y-51514025D01*
X50076744Y-51514500D01*
X47980579Y-51514500D01*
X47922388Y-51495593D01*
X47886424Y-51446093D01*
X47882587Y-51401411D01*
X47889978Y-51350003D01*
X47889978Y-51349997D01*
X47872157Y-51226048D01*
X47872156Y-51226046D01*
X47872156Y-51226044D01*
X47820133Y-51112130D01*
X47738124Y-51017487D01*
X47722712Y-51007582D01*
X47683982Y-50960216D01*
X47680490Y-50899131D01*
X47701419Y-50859467D01*
X47703876Y-50856631D01*
X47720133Y-50837870D01*
X47772156Y-50723956D01*
X47775931Y-50697700D01*
X47789978Y-50600002D01*
X47789978Y-50599997D01*
X47772157Y-50476048D01*
X47772156Y-50476046D01*
X47772156Y-50476044D01*
X47720133Y-50362130D01*
X47638124Y-50267487D01*
X47562479Y-50218873D01*
X47527276Y-50196249D01*
X47488545Y-50148883D01*
X47485053Y-50087797D01*
X47510794Y-50042963D01*
X48960131Y-48593625D01*
X48965313Y-48589117D01*
X48975023Y-48581784D01*
X48975032Y-48581780D01*
X49005795Y-48548032D01*
X49007307Y-48546449D01*
X49020584Y-48533174D01*
X49022397Y-48530526D01*
X49026647Y-48525161D01*
X49046941Y-48502900D01*
X49050106Y-48494730D01*
X49060750Y-48474538D01*
X49065696Y-48467318D01*
X49065695Y-48467318D01*
X49065697Y-48467317D01*
X49072593Y-48437994D01*
X49074617Y-48431459D01*
X49085500Y-48403369D01*
X49085500Y-48394605D01*
X49088130Y-48371936D01*
X49088586Y-48370000D01*
X49090135Y-48363413D01*
X49085973Y-48333577D01*
X49085500Y-48326757D01*
X49085500Y-45664734D01*
X49104407Y-45606543D01*
X49153907Y-45570579D01*
X49215093Y-45570579D01*
X49238021Y-45581448D01*
G37*
G04 #@! TD.AperFunction*
G04 #@! TA.AperFunction,Conductor*
G36*
X42596339Y-47687776D02*
G01*
X42639604Y-47731041D01*
X42641436Y-47734836D01*
X42665428Y-47787370D01*
X42691857Y-47817870D01*
X42737888Y-47870993D01*
X42753633Y-47895835D01*
X42756368Y-47902029D01*
X42763118Y-47923823D01*
X42764729Y-47932444D01*
X42764730Y-47932446D01*
X42780577Y-47958037D01*
X42783778Y-47964109D01*
X42790891Y-47980218D01*
X42795944Y-47991662D01*
X42802145Y-47997863D01*
X42816307Y-48015743D01*
X42820920Y-48023193D01*
X42844941Y-48041333D01*
X42850120Y-48045839D01*
X43124185Y-48319903D01*
X43151962Y-48374420D01*
X43153181Y-48389907D01*
X43153181Y-50968414D01*
X43134274Y-51026605D01*
X43084774Y-51062569D01*
X43023588Y-51062569D01*
X42984177Y-51038418D01*
X40935628Y-48989870D01*
X40931122Y-48984691D01*
X40923780Y-48974968D01*
X40890073Y-48944240D01*
X40888421Y-48942662D01*
X40875175Y-48929417D01*
X40875167Y-48929410D01*
X40872520Y-48927596D01*
X40867150Y-48923342D01*
X40854848Y-48912128D01*
X40844900Y-48903059D01*
X40844896Y-48903057D01*
X40844894Y-48903056D01*
X40836725Y-48899891D01*
X40816551Y-48889258D01*
X40814526Y-48887871D01*
X40809317Y-48884303D01*
X40809316Y-48884302D01*
X40809315Y-48884302D01*
X40780004Y-48877407D01*
X40773450Y-48875378D01*
X40745373Y-48864501D01*
X40745370Y-48864500D01*
X40745369Y-48864500D01*
X40745367Y-48864500D01*
X40736605Y-48864500D01*
X40713938Y-48861870D01*
X40705413Y-48859865D01*
X40675590Y-48864025D01*
X40668744Y-48864500D01*
X40374072Y-48864500D01*
X40315881Y-48845593D01*
X40299253Y-48830331D01*
X40293729Y-48823956D01*
X40288124Y-48817487D01*
X40288121Y-48817485D01*
X40288119Y-48817483D01*
X40182774Y-48749782D01*
X40062616Y-48714500D01*
X40062615Y-48714500D01*
X39937385Y-48714500D01*
X39937383Y-48714500D01*
X39817225Y-48749782D01*
X39711875Y-48817486D01*
X39711875Y-48817487D01*
X39629868Y-48912128D01*
X39629867Y-48912129D01*
X39629867Y-48912130D01*
X39621973Y-48929415D01*
X39577843Y-49026046D01*
X39577842Y-49026048D01*
X39560022Y-49149997D01*
X39560022Y-49150002D01*
X39577842Y-49273951D01*
X39577843Y-49273953D01*
X39577843Y-49273954D01*
X39577844Y-49273956D01*
X39629867Y-49387870D01*
X39629868Y-49387871D01*
X39711875Y-49482512D01*
X39711875Y-49482513D01*
X39817225Y-49550217D01*
X39817227Y-49550218D01*
X39850081Y-49559865D01*
X39875943Y-49567459D01*
X39926450Y-49601995D01*
X39947011Y-49659623D01*
X39938105Y-49703573D01*
X39927845Y-49726040D01*
X39927842Y-49726048D01*
X39910022Y-49849997D01*
X39910022Y-49850002D01*
X39927842Y-49973951D01*
X39927843Y-49973953D01*
X39927843Y-49973954D01*
X39927844Y-49973956D01*
X39979867Y-50087870D01*
X39979868Y-50087871D01*
X40061875Y-50182512D01*
X40061875Y-50182513D01*
X40167225Y-50250217D01*
X40167227Y-50250218D01*
X40261469Y-50277890D01*
X40311975Y-50312426D01*
X40332537Y-50370053D01*
X40315299Y-50428760D01*
X40308397Y-50437710D01*
X40289232Y-50459827D01*
X40237207Y-50573746D01*
X40237206Y-50573748D01*
X40219386Y-50697697D01*
X40219386Y-50697700D01*
X40223160Y-50723951D01*
X40230717Y-50776514D01*
X40220282Y-50836803D01*
X40176404Y-50879445D01*
X40115841Y-50888152D01*
X40110058Y-50886972D01*
X40107543Y-50886380D01*
X40093201Y-50883006D01*
X40086649Y-50880977D01*
X40058574Y-50870101D01*
X40058570Y-50870100D01*
X40058569Y-50870100D01*
X40058567Y-50870100D01*
X40049805Y-50870100D01*
X40027138Y-50867470D01*
X40018613Y-50865465D01*
X39988790Y-50869625D01*
X39981944Y-50870100D01*
X38894465Y-50870100D01*
X38836274Y-50851193D01*
X38824461Y-50841103D01*
X38694096Y-50710737D01*
X38666319Y-50656221D01*
X38665100Y-50640734D01*
X38665100Y-49528122D01*
X38684007Y-49469931D01*
X38694096Y-49458118D01*
X39975718Y-48176496D01*
X40030235Y-48148719D01*
X40045722Y-48147500D01*
X41862565Y-48147500D01*
X41869412Y-48147975D01*
X41881486Y-48149659D01*
X41881489Y-48149660D01*
X41881491Y-48149659D01*
X41881492Y-48149660D01*
X41905356Y-48148556D01*
X41927061Y-48147552D01*
X41929342Y-48147500D01*
X41948064Y-48147500D01*
X41948070Y-48147500D01*
X41951218Y-48146911D01*
X41958018Y-48146120D01*
X41988113Y-48144730D01*
X41996122Y-48141193D01*
X42017922Y-48134441D01*
X42026537Y-48132832D01*
X42052139Y-48116978D01*
X42058196Y-48113785D01*
X42085757Y-48101617D01*
X42091953Y-48095419D01*
X42109839Y-48081252D01*
X42117288Y-48076641D01*
X42135437Y-48052605D01*
X42139934Y-48047439D01*
X42305360Y-47882013D01*
X42481392Y-47705980D01*
X42535907Y-47678205D01*
X42596339Y-47687776D01*
G37*
G04 #@! TD.AperFunction*
G04 #@! TA.AperFunction,Conductor*
G36*
X54910506Y-36719407D02*
G01*
X54946470Y-36768907D01*
X54946470Y-36830093D01*
X54945759Y-36832198D01*
X54917225Y-36913738D01*
X54917224Y-36913746D01*
X54914500Y-36942790D01*
X54914500Y-39257199D01*
X54917224Y-39286254D01*
X54917225Y-39286259D01*
X54959755Y-39407802D01*
X54961128Y-39468972D01*
X54926284Y-39519267D01*
X54868532Y-39539475D01*
X54866311Y-39539500D01*
X50901297Y-39539500D01*
X50894449Y-39539025D01*
X50882380Y-39537340D01*
X50843888Y-39539120D01*
X50836821Y-39539447D01*
X50834545Y-39539500D01*
X50815802Y-39539500D01*
X50815788Y-39539501D01*
X50812636Y-39540090D01*
X50805831Y-39540879D01*
X50775756Y-39542270D01*
X50767738Y-39545810D01*
X50745954Y-39552556D01*
X50737338Y-39554167D01*
X50737332Y-39554169D01*
X50711728Y-39570021D01*
X50705661Y-39573219D01*
X50678114Y-39585383D01*
X50678113Y-39585383D01*
X50671916Y-39591581D01*
X50654037Y-39605743D01*
X50646583Y-39610358D01*
X50628439Y-39634385D01*
X50623934Y-39639561D01*
X50367212Y-39896284D01*
X50312695Y-39924061D01*
X50252263Y-39914490D01*
X50208998Y-39871225D01*
X50199215Y-39840368D01*
X50197156Y-39826044D01*
X50145133Y-39712130D01*
X50063124Y-39617487D01*
X50063124Y-39617486D01*
X49957774Y-39549782D01*
X49837616Y-39514500D01*
X49837615Y-39514500D01*
X49712385Y-39514500D01*
X49712383Y-39514500D01*
X49592225Y-39549782D01*
X49486875Y-39617486D01*
X49486875Y-39617487D01*
X49404868Y-39712128D01*
X49352843Y-39826046D01*
X49352842Y-39826048D01*
X49335022Y-39949997D01*
X49335022Y-39950002D01*
X49352842Y-40073951D01*
X49352843Y-40073953D01*
X49352843Y-40073954D01*
X49352844Y-40073956D01*
X49404867Y-40187870D01*
X49404868Y-40187871D01*
X49486875Y-40282512D01*
X49486875Y-40282513D01*
X49592226Y-40350218D01*
X49623920Y-40359524D01*
X49680310Y-40376081D01*
X49730816Y-40410617D01*
X49751378Y-40468244D01*
X49734140Y-40526951D01*
X49722422Y-40541074D01*
X49469367Y-40794131D01*
X49414850Y-40821909D01*
X49399363Y-40823128D01*
X49346011Y-40823128D01*
X49225853Y-40858410D01*
X49120503Y-40926114D01*
X49120503Y-40926115D01*
X49038496Y-41020756D01*
X48986471Y-41134674D01*
X48986470Y-41134676D01*
X48968650Y-41258625D01*
X48968650Y-41258630D01*
X48986470Y-41382579D01*
X48986471Y-41382581D01*
X48986471Y-41382582D01*
X48986472Y-41382584D01*
X49026394Y-41470000D01*
X49038496Y-41496500D01*
X49116421Y-41586430D01*
X49140239Y-41642789D01*
X49126380Y-41702384D01*
X49116421Y-41716092D01*
X49054868Y-41787127D01*
X49002843Y-41901046D01*
X49002842Y-41901048D01*
X48985022Y-42024997D01*
X48985022Y-42025002D01*
X49002842Y-42148951D01*
X49002843Y-42148953D01*
X49002843Y-42148954D01*
X49002844Y-42148956D01*
X49054867Y-42262870D01*
X49115319Y-42332635D01*
X49139137Y-42388994D01*
X49139500Y-42397466D01*
X49139500Y-42902561D01*
X49120593Y-42960752D01*
X49110503Y-42972565D01*
X48864871Y-43218197D01*
X48859695Y-43222701D01*
X48849967Y-43230046D01*
X48819229Y-43263764D01*
X48817651Y-43265417D01*
X48815332Y-43267736D01*
X48760815Y-43295513D01*
X48700383Y-43285942D01*
X48670509Y-43262563D01*
X48588125Y-43167487D01*
X48588124Y-43167486D01*
X48482774Y-43099782D01*
X48362616Y-43064500D01*
X48362615Y-43064500D01*
X48237385Y-43064500D01*
X48237383Y-43064500D01*
X48117225Y-43099782D01*
X48011877Y-43167485D01*
X47960650Y-43226604D01*
X47908253Y-43258199D01*
X47847292Y-43252963D01*
X47811012Y-43226603D01*
X47738124Y-43142487D01*
X47738124Y-43142486D01*
X47632774Y-43074782D01*
X47512616Y-43039500D01*
X47512615Y-43039500D01*
X47387385Y-43039500D01*
X47387383Y-43039500D01*
X47267225Y-43074782D01*
X47161875Y-43142486D01*
X47161875Y-43142487D01*
X47079866Y-43237129D01*
X47079865Y-43237131D01*
X47027844Y-43351040D01*
X47025850Y-43357834D01*
X47023777Y-43357225D01*
X47001266Y-43403000D01*
X47000281Y-43403999D01*
X46593779Y-43810503D01*
X46539262Y-43838281D01*
X46523775Y-43839500D01*
X45139184Y-43839500D01*
X45080993Y-43820593D01*
X45045029Y-43771093D01*
X45045029Y-43709907D01*
X45049131Y-43699373D01*
X45052164Y-43692732D01*
X45072156Y-43648956D01*
X45074881Y-43630002D01*
X45089978Y-43525002D01*
X45089978Y-43524997D01*
X45072157Y-43401048D01*
X45072156Y-43401046D01*
X45072156Y-43401044D01*
X45020133Y-43287130D01*
X44938124Y-43192487D01*
X44938124Y-43192486D01*
X44832774Y-43124782D01*
X44712616Y-43089500D01*
X44712615Y-43089500D01*
X44587385Y-43089500D01*
X44587383Y-43089500D01*
X44467225Y-43124782D01*
X44361880Y-43192483D01*
X44361875Y-43192488D01*
X44350747Y-43205331D01*
X44298351Y-43236927D01*
X44275928Y-43239500D01*
X43904223Y-43239500D01*
X43897376Y-43239025D01*
X43885295Y-43237339D01*
X43844115Y-43239244D01*
X43839726Y-43239447D01*
X43837446Y-43239500D01*
X43818715Y-43239500D01*
X43815559Y-43240090D01*
X43808750Y-43240879D01*
X43778678Y-43242269D01*
X43778670Y-43242271D01*
X43770654Y-43245810D01*
X43748870Y-43252556D01*
X43740251Y-43254167D01*
X43740248Y-43254168D01*
X43714646Y-43270020D01*
X43708578Y-43273219D01*
X43681034Y-43285381D01*
X43681027Y-43285385D01*
X43674832Y-43291581D01*
X43656953Y-43305743D01*
X43649499Y-43310358D01*
X43631355Y-43334385D01*
X43626851Y-43339561D01*
X41555910Y-45410504D01*
X41501393Y-45438281D01*
X41485906Y-45439500D01*
X41250601Y-45439500D01*
X41192410Y-45420593D01*
X41156446Y-45371093D01*
X41156446Y-45309907D01*
X41160548Y-45299373D01*
X41160964Y-45298462D01*
X41172156Y-45273956D01*
X41173796Y-45262550D01*
X41189978Y-45150002D01*
X41189978Y-45149997D01*
X41172157Y-45026048D01*
X41172156Y-45026046D01*
X41172156Y-45026044D01*
X41120133Y-44912130D01*
X41038124Y-44817487D01*
X41038124Y-44817486D01*
X40932772Y-44749781D01*
X40918142Y-44745485D01*
X40867636Y-44710948D01*
X40847076Y-44653320D01*
X40855983Y-44609369D01*
X40857750Y-44605500D01*
X40872156Y-44573956D01*
X40872157Y-44573951D01*
X40889978Y-44450002D01*
X40889978Y-44449997D01*
X40872157Y-44326048D01*
X40872156Y-44326046D01*
X40872156Y-44326044D01*
X40820133Y-44212130D01*
X40820131Y-44212128D01*
X40820131Y-44212127D01*
X40759681Y-44142364D01*
X40735863Y-44086005D01*
X40735500Y-44077533D01*
X40735500Y-43172466D01*
X40754407Y-43114275D01*
X40759671Y-43107646D01*
X40820133Y-43037870D01*
X40872156Y-42923956D01*
X40875232Y-42902561D01*
X40889978Y-42800002D01*
X40889978Y-42799997D01*
X40872157Y-42676048D01*
X40872156Y-42676046D01*
X40872156Y-42676044D01*
X40820133Y-42562130D01*
X40738124Y-42467487D01*
X40738124Y-42467486D01*
X40632774Y-42399782D01*
X40512616Y-42364500D01*
X40512615Y-42364500D01*
X40387385Y-42364500D01*
X40387383Y-42364500D01*
X40267225Y-42399782D01*
X40161875Y-42467486D01*
X40161875Y-42467487D01*
X40079868Y-42562128D01*
X40079867Y-42562129D01*
X40079867Y-42562130D01*
X40062672Y-42599782D01*
X40027843Y-42676046D01*
X40027842Y-42676048D01*
X40010022Y-42799997D01*
X40010022Y-42800002D01*
X40027842Y-42923951D01*
X40027843Y-42923953D01*
X40027843Y-42923954D01*
X40027844Y-42923956D01*
X40079867Y-43037870D01*
X40140319Y-43107635D01*
X40164137Y-43163994D01*
X40164500Y-43172466D01*
X40164500Y-44077533D01*
X40145593Y-44135724D01*
X40140319Y-44142364D01*
X40079868Y-44212127D01*
X40027843Y-44326046D01*
X40027842Y-44326048D01*
X40010022Y-44449997D01*
X40010022Y-44450002D01*
X40027842Y-44573951D01*
X40027843Y-44573955D01*
X40039452Y-44599373D01*
X40046427Y-44660159D01*
X40016341Y-44713437D01*
X39960685Y-44738855D01*
X39949399Y-44739500D01*
X39594963Y-44739500D01*
X39536772Y-44720593D01*
X39524959Y-44710504D01*
X39400927Y-44586472D01*
X39373150Y-44531955D01*
X39382721Y-44471523D01*
X39425986Y-44428258D01*
X39429803Y-44426415D01*
X39431881Y-44425464D01*
X39431888Y-44425463D01*
X39537239Y-44357758D01*
X39619248Y-44263115D01*
X39671271Y-44149201D01*
X39675831Y-44117487D01*
X39689093Y-44025247D01*
X39689093Y-44025242D01*
X39671272Y-43901293D01*
X39671271Y-43901291D01*
X39671271Y-43901289D01*
X39619248Y-43787375D01*
X39537239Y-43692732D01*
X39537239Y-43692731D01*
X39431889Y-43625027D01*
X39373022Y-43607742D01*
X39322515Y-43573206D01*
X39301954Y-43515578D01*
X39319193Y-43456872D01*
X39367646Y-43419509D01*
X39373010Y-43417766D01*
X39432773Y-43400218D01*
X39538124Y-43332513D01*
X39620133Y-43237870D01*
X39672156Y-43123956D01*
X39672157Y-43123951D01*
X39689978Y-43000002D01*
X39689978Y-42999997D01*
X39672157Y-42876048D01*
X39672156Y-42876046D01*
X39672156Y-42876044D01*
X39620133Y-42762130D01*
X39538124Y-42667487D01*
X39538124Y-42667486D01*
X39432774Y-42599782D01*
X39312616Y-42564500D01*
X39312615Y-42564500D01*
X39187385Y-42564500D01*
X39187383Y-42564500D01*
X39115901Y-42585490D01*
X39088009Y-42589500D01*
X39009500Y-42589500D01*
X38951309Y-42570593D01*
X38915345Y-42521093D01*
X38910500Y-42490500D01*
X38910500Y-41761041D01*
X38929407Y-41702850D01*
X38939490Y-41691044D01*
X39168373Y-41462160D01*
X39184849Y-41448884D01*
X39288124Y-41382513D01*
X39370133Y-41287870D01*
X39422156Y-41173956D01*
X39423031Y-41167870D01*
X39439978Y-41050002D01*
X39439978Y-41049997D01*
X39422157Y-40926048D01*
X39422156Y-40926046D01*
X39422156Y-40926044D01*
X39370133Y-40812130D01*
X39288124Y-40717487D01*
X39288124Y-40717486D01*
X39182774Y-40649782D01*
X39062616Y-40614500D01*
X39062615Y-40614500D01*
X38937385Y-40614500D01*
X38937383Y-40614500D01*
X38817225Y-40649782D01*
X38711875Y-40717486D01*
X38711875Y-40717487D01*
X38629867Y-40812128D01*
X38629866Y-40812130D01*
X38614197Y-40846440D01*
X38594148Y-40875315D01*
X38255706Y-41213758D01*
X38163759Y-41305704D01*
X38163759Y-41305706D01*
X38152445Y-41327910D01*
X38144330Y-41341151D01*
X38129686Y-41361306D01*
X38129681Y-41361317D01*
X38121978Y-41385020D01*
X38116039Y-41399359D01*
X38104724Y-41421567D01*
X38100825Y-41446186D01*
X38097199Y-41461288D01*
X38089500Y-41484982D01*
X38089500Y-44331100D01*
X38097199Y-44354794D01*
X38100825Y-44369894D01*
X38104725Y-44394513D01*
X38104725Y-44394514D01*
X38116038Y-44416718D01*
X38121980Y-44431063D01*
X38129682Y-44454765D01*
X38129683Y-44454767D01*
X38144328Y-44474924D01*
X38152445Y-44488169D01*
X38163759Y-44510374D01*
X38163758Y-44510374D01*
X38186888Y-44533504D01*
X38910504Y-45257119D01*
X38938281Y-45311636D01*
X38939500Y-45327123D01*
X38939500Y-46271152D01*
X38920593Y-46329343D01*
X38910504Y-46341156D01*
X36869504Y-48382157D01*
X36814987Y-48409934D01*
X36754555Y-48400363D01*
X36711290Y-48357098D01*
X36700500Y-48312153D01*
X36700500Y-39900002D01*
X44060022Y-39900002D01*
X44077842Y-40023951D01*
X44077843Y-40023953D01*
X44077843Y-40023954D01*
X44077844Y-40023956D01*
X44129867Y-40137870D01*
X44165426Y-40178907D01*
X44211875Y-40232512D01*
X44211875Y-40232513D01*
X44289677Y-40282513D01*
X44317227Y-40300218D01*
X44437385Y-40335500D01*
X44437386Y-40335500D01*
X44562614Y-40335500D01*
X44562615Y-40335500D01*
X44682773Y-40300218D01*
X44788124Y-40232513D01*
X44870133Y-40137870D01*
X44922156Y-40023956D01*
X44922157Y-40023951D01*
X44939978Y-39900002D01*
X47210022Y-39900002D01*
X47227842Y-40023951D01*
X47227843Y-40023953D01*
X47227843Y-40023954D01*
X47227844Y-40023956D01*
X47279867Y-40137870D01*
X47315426Y-40178907D01*
X47361875Y-40232512D01*
X47361875Y-40232513D01*
X47439677Y-40282513D01*
X47467227Y-40300218D01*
X47587385Y-40335500D01*
X47587386Y-40335500D01*
X47712614Y-40335500D01*
X47712615Y-40335500D01*
X47832773Y-40300218D01*
X47938124Y-40232513D01*
X48020133Y-40137870D01*
X48072156Y-40023956D01*
X48072157Y-40023951D01*
X48089978Y-39900002D01*
X48089978Y-39899997D01*
X48072157Y-39776048D01*
X48072156Y-39776046D01*
X48072156Y-39776044D01*
X48020133Y-39662130D01*
X47938124Y-39567487D01*
X47938124Y-39567486D01*
X47832774Y-39499782D01*
X47712616Y-39464500D01*
X47712615Y-39464500D01*
X47587385Y-39464500D01*
X47587383Y-39464500D01*
X47467225Y-39499782D01*
X47361875Y-39567486D01*
X47361875Y-39567487D01*
X47279868Y-39662128D01*
X47227843Y-39776046D01*
X47227842Y-39776048D01*
X47210022Y-39899997D01*
X47210022Y-39900002D01*
X44939978Y-39900002D01*
X44939978Y-39899997D01*
X44922157Y-39776048D01*
X44922156Y-39776046D01*
X44922156Y-39776044D01*
X44870133Y-39662130D01*
X44788124Y-39567487D01*
X44788124Y-39567486D01*
X44682774Y-39499782D01*
X44562616Y-39464500D01*
X44562615Y-39464500D01*
X44437385Y-39464500D01*
X44437383Y-39464500D01*
X44317225Y-39499782D01*
X44211875Y-39567486D01*
X44211875Y-39567487D01*
X44129868Y-39662128D01*
X44077843Y-39776046D01*
X44077842Y-39776048D01*
X44060022Y-39899997D01*
X44060022Y-39900002D01*
X36700500Y-39900002D01*
X36700500Y-38687620D01*
X36700553Y-38686000D01*
X37480357Y-38686000D01*
X37500885Y-38907536D01*
X37561771Y-39121528D01*
X37660942Y-39320689D01*
X37795019Y-39498236D01*
X37959438Y-39648124D01*
X38148599Y-39765247D01*
X38356060Y-39845618D01*
X38574757Y-39886500D01*
X38797243Y-39886500D01*
X39015940Y-39845618D01*
X39223401Y-39765247D01*
X39412562Y-39648124D01*
X39576981Y-39498236D01*
X39711058Y-39320689D01*
X39810229Y-39121528D01*
X39871115Y-38907536D01*
X39891643Y-38686000D01*
X39871115Y-38464464D01*
X39810229Y-38250472D01*
X39711058Y-38051311D01*
X39576981Y-37873764D01*
X39412562Y-37723876D01*
X39223401Y-37606753D01*
X39015940Y-37526382D01*
X39015939Y-37526381D01*
X39015937Y-37526381D01*
X38797243Y-37485500D01*
X38574757Y-37485500D01*
X38356062Y-37526381D01*
X38279797Y-37555926D01*
X38148599Y-37606753D01*
X38013260Y-37690551D01*
X37959438Y-37723876D01*
X37795020Y-37873763D01*
X37660943Y-38051309D01*
X37660938Y-38051318D01*
X37561772Y-38250469D01*
X37561771Y-38250472D01*
X37500885Y-38464464D01*
X37480357Y-38686000D01*
X36700553Y-38686000D01*
X36700606Y-38684382D01*
X36701981Y-38663410D01*
X36717273Y-38430076D01*
X36718119Y-38423657D01*
X36767521Y-38175298D01*
X36769196Y-38169044D01*
X36850595Y-37929249D01*
X36853065Y-37923286D01*
X36965075Y-37696152D01*
X36968310Y-37690551D01*
X37024302Y-37606753D01*
X37109001Y-37479991D01*
X37112931Y-37474869D01*
X37279907Y-37284469D01*
X37284469Y-37279907D01*
X37474869Y-37112931D01*
X37479991Y-37109001D01*
X37690555Y-36968307D01*
X37696152Y-36965075D01*
X37923286Y-36853065D01*
X37929249Y-36850595D01*
X38169044Y-36769196D01*
X38175298Y-36767521D01*
X38417182Y-36719407D01*
X38423659Y-36718118D01*
X38430076Y-36717273D01*
X38684383Y-36700605D01*
X38687620Y-36700500D01*
X38725882Y-36700500D01*
X54852315Y-36700500D01*
X54910506Y-36719407D01*
G37*
G04 #@! TD.AperFunction*
G04 #@! TA.AperFunction,Conductor*
G36*
X47548768Y-44700545D02*
G01*
X47597221Y-44737908D01*
X47614500Y-44793788D01*
X47614500Y-47817942D01*
X47595593Y-47876133D01*
X47585503Y-47887946D01*
X47487246Y-47986202D01*
X47432730Y-48013979D01*
X47372297Y-48004407D01*
X47329033Y-47961143D01*
X47327201Y-47957349D01*
X47295133Y-47887130D01*
X47295131Y-47887128D01*
X47295131Y-47887127D01*
X47213124Y-47792487D01*
X47213124Y-47792486D01*
X47107774Y-47724782D01*
X47037079Y-47704024D01*
X46986572Y-47669488D01*
X46966011Y-47611860D01*
X46972211Y-47581347D01*
X46970162Y-47580746D01*
X46972157Y-47573951D01*
X46989978Y-47450002D01*
X46989978Y-47449997D01*
X46972157Y-47326048D01*
X46972156Y-47326046D01*
X46972156Y-47326044D01*
X46920133Y-47212130D01*
X46838124Y-47117487D01*
X46838121Y-47117485D01*
X46838120Y-47117484D01*
X46799877Y-47092906D01*
X46769230Y-47061739D01*
X46764642Y-47054329D01*
X46764641Y-47054328D01*
X46740614Y-47036183D01*
X46735437Y-47031678D01*
X46025628Y-46321869D01*
X46021122Y-46316691D01*
X46013780Y-46306968D01*
X45980073Y-46276240D01*
X45978421Y-46274662D01*
X45965175Y-46261417D01*
X45965167Y-46261410D01*
X45962520Y-46259596D01*
X45957150Y-46255342D01*
X45944850Y-46244130D01*
X45934900Y-46235059D01*
X45934896Y-46235057D01*
X45934894Y-46235056D01*
X45926725Y-46231891D01*
X45906551Y-46221258D01*
X45903644Y-46219267D01*
X45899317Y-46216303D01*
X45899316Y-46216302D01*
X45899315Y-46216302D01*
X45870004Y-46209407D01*
X45863450Y-46207378D01*
X45835373Y-46196501D01*
X45835370Y-46196500D01*
X45835369Y-46196500D01*
X45835367Y-46196500D01*
X45826605Y-46196500D01*
X45803938Y-46193870D01*
X45795413Y-46191865D01*
X45765590Y-46196025D01*
X45758744Y-46196500D01*
X43032662Y-46196500D01*
X42974471Y-46177593D01*
X42938507Y-46128093D01*
X42938507Y-46066907D01*
X42962658Y-46027496D01*
X43440152Y-45550002D01*
X45610022Y-45550002D01*
X45627842Y-45673951D01*
X45627843Y-45673953D01*
X45627843Y-45673954D01*
X45627844Y-45673956D01*
X45679867Y-45787870D01*
X45694278Y-45804501D01*
X45761875Y-45882512D01*
X45761875Y-45882513D01*
X45851080Y-45939841D01*
X45867227Y-45950218D01*
X45987385Y-45985500D01*
X45987386Y-45985500D01*
X46112614Y-45985500D01*
X46112615Y-45985500D01*
X46232773Y-45950218D01*
X46307993Y-45901876D01*
X46367164Y-45886323D01*
X46424180Y-45908521D01*
X46436332Y-45920331D01*
X46511875Y-46007512D01*
X46511875Y-46007513D01*
X46617225Y-46075217D01*
X46617227Y-46075218D01*
X46737385Y-46110500D01*
X46737386Y-46110500D01*
X46862614Y-46110500D01*
X46862615Y-46110500D01*
X46982773Y-46075218D01*
X47088124Y-46007513D01*
X47170133Y-45912870D01*
X47222156Y-45798956D01*
X47223750Y-45787870D01*
X47239978Y-45675002D01*
X47239978Y-45674997D01*
X47222157Y-45551048D01*
X47222156Y-45551046D01*
X47222156Y-45551044D01*
X47170133Y-45437130D01*
X47088124Y-45342487D01*
X47088124Y-45342486D01*
X46982774Y-45274782D01*
X46862616Y-45239500D01*
X46862615Y-45239500D01*
X46737385Y-45239500D01*
X46737383Y-45239500D01*
X46617225Y-45274782D01*
X46542009Y-45323121D01*
X46482834Y-45338676D01*
X46425818Y-45316477D01*
X46413667Y-45304668D01*
X46410009Y-45300447D01*
X46338124Y-45217487D01*
X46338124Y-45217486D01*
X46232774Y-45149782D01*
X46112616Y-45114500D01*
X46112615Y-45114500D01*
X45987385Y-45114500D01*
X45987383Y-45114500D01*
X45867225Y-45149782D01*
X45761875Y-45217486D01*
X45761875Y-45217487D01*
X45679868Y-45312128D01*
X45679867Y-45312129D01*
X45679867Y-45312130D01*
X45671832Y-45329724D01*
X45627843Y-45426046D01*
X45627842Y-45426048D01*
X45610022Y-45549997D01*
X45610022Y-45550002D01*
X43440152Y-45550002D01*
X44100658Y-44889496D01*
X44155175Y-44861719D01*
X44170662Y-44860500D01*
X46965949Y-44860500D01*
X46972796Y-44860975D01*
X46984870Y-44862659D01*
X46984873Y-44862660D01*
X46984875Y-44862659D01*
X46984876Y-44862660D01*
X47008740Y-44861556D01*
X47030445Y-44860552D01*
X47032726Y-44860500D01*
X47051448Y-44860500D01*
X47051454Y-44860500D01*
X47054602Y-44859911D01*
X47061402Y-44859120D01*
X47091497Y-44857730D01*
X47099506Y-44854193D01*
X47121306Y-44847441D01*
X47129921Y-44845832D01*
X47155523Y-44829978D01*
X47161580Y-44826785D01*
X47189141Y-44814617D01*
X47195337Y-44808419D01*
X47213223Y-44794252D01*
X47220672Y-44789641D01*
X47231847Y-44774841D01*
X47282003Y-44739797D01*
X47310853Y-44735500D01*
X47362614Y-44735500D01*
X47362615Y-44735500D01*
X47482773Y-44700218D01*
X47482773Y-44700217D01*
X47487608Y-44698798D01*
X47548768Y-44700545D01*
G37*
G04 #@! TD.AperFunction*
M02*
