M48
; DRILL file {KiCad 7.0.7} date 2024 August 09, Friday 21:04:43
; FORMAT={-:-/ absolute / metric / decimal}
; #@! TF.CreationDate,2024-08-09T21:04:43-05:00
; #@! TF.GenerationSoftware,Kicad,Pcbnew,7.0.7
; #@! TF.FileFunction,Plated,1,4,PTH
FMAT,2
METRIC
; #@! TA.AperFunction,Plated,PTH,ViaDrill
T1C0.250
; #@! TA.AperFunction,Plated,PTH,ComponentDrill
T2C1.700
%
G90
G05
T1
X37.1Y-40.2
X37.262Y-51.65
X37.35Y-45.35
X37.4Y-59.275
X37.541Y-54.508
X38.939Y-50.301
X39.0Y-41.05
X39.249Y-44.025
X39.25Y-43.0
X39.396Y-56.286
X39.65Y-55.524
X39.696Y-52.293
X39.75Y-53.9
X39.75Y-53.11
X39.764Y-57.646
X39.969Y-50.534
X40.0Y-49.15
X40.35Y-49.85
X40.45Y-42.8
X40.45Y-44.45
X40.5Y-59.35
X40.65Y-46.634
X40.659Y-50.698
X40.75Y-45.15
X41.174Y-57.785
X41.325Y-54.174
X41.35Y-46.482
X41.627Y-53.04
X42.35Y-37.85
X43.0Y-62.1
X43.036Y-47.549
X43.1Y-41.875
X43.575Y-59.475
X43.75Y-58.2
X43.866Y-47.6
X43.866Y-56.642
X43.95Y-45.5
X44.35Y-37.85
X44.408Y-52.471
X44.5Y-39.9
X44.65Y-43.525
X44.65Y-59.3
X44.9Y-58.2
X45.0Y-62.1
X45.1Y-52.3
X45.35Y-41.875
X45.5Y-60.2
X45.75Y-54.2
X46.05Y-45.55
X46.08Y-54.87
X46.15Y-48.1
X46.3Y-37.85
X46.55Y-47.45
X46.8Y-45.675
X46.8Y-54.8
X46.925Y-48.125
X47.0Y-62.1
X47.05Y-55.85
X47.3Y-42.475
X47.3Y-44.3
X47.3Y-58.2
X47.35Y-50.6
X47.4Y-52.25
X47.45Y-43.475
X47.45Y-51.35
X47.5Y-60.2
X47.65Y-39.9
X48.3Y-37.85
X48.3Y-43.5
X48.55Y-54.4
X48.95Y-62.15
X49.2Y-56.475
X49.375Y-55.1
X49.409Y-41.259
X49.425Y-42.025
X49.45Y-45.2
X49.5Y-55.825
X49.5Y-60.2
X49.6Y-43.7
X49.75Y-58.2
X49.775Y-39.95
X50.05Y-52.6
X50.2Y-45.15
X50.25Y-37.85
X50.65Y-55.15
X50.7Y-57.55
X50.95Y-62.15
X51.35Y-46.85
X51.35Y-52.05
X51.5Y-60.2
X51.76Y-48.65
X51.83Y-54.4
X51.84Y-54.93
X51.84Y-55.46
X51.84Y-56.0
X51.84Y-58.12
X51.85Y-56.53
X51.85Y-57.06
X51.85Y-57.59
X51.87Y-40.39
X51.87Y-40.93
X51.87Y-41.47
X51.87Y-42.01
X51.87Y-42.55
X51.87Y-43.09
X51.87Y-43.63
X51.87Y-44.17
X52.05Y-45.95
X52.08Y-47.04
X52.23Y-48.38
X52.23Y-48.92
X52.23Y-49.98
X52.23Y-51.05
X52.24Y-49.45
X52.24Y-50.51
X52.25Y-37.85
X52.31Y-54.66
X52.31Y-57.86
X52.31Y-58.39
X52.32Y-55.19
X52.32Y-55.72
X52.32Y-56.26
X52.32Y-56.8
X52.32Y-57.33
X52.34Y-40.66
X52.34Y-41.2
X52.34Y-41.74
X52.34Y-42.28
X52.34Y-42.82
X52.34Y-43.36
X52.34Y-43.9
X52.34Y-44.43
X52.7Y-47.57
X52.7Y-48.1
X52.7Y-48.65
X52.7Y-51.32
X52.7Y-52.75
X52.71Y-49.18
X52.71Y-49.71
X52.71Y-50.25
X52.71Y-50.79
X52.78Y-54.4
X52.78Y-57.6
X52.79Y-54.93
X52.79Y-55.46
X52.79Y-56.0
X52.79Y-56.54
X52.79Y-57.07
X52.79Y-58.13
X52.81Y-40.39
X52.81Y-40.93
X52.81Y-41.47
X52.81Y-42.01
X52.81Y-42.55
X52.81Y-43.09
X52.81Y-43.63
X52.81Y-44.17
X53.0Y-62.15
X53.16Y-51.61
X53.17Y-47.31
X53.17Y-47.84
X53.17Y-48.37
X53.18Y-48.9
X53.18Y-49.45
X53.18Y-49.99
X53.18Y-50.53
X53.18Y-51.07
X53.25Y-57.86
X53.25Y-58.4
X53.27Y-43.9
X53.27Y-44.44
X53.63Y-51.35
X53.64Y-47.58
X53.71Y-58.13
X53.73Y-44.17
X55.05Y-41.7
X55.05Y-43.0
X55.05Y-44.35
X55.05Y-48.7
X55.05Y-50.0
X55.05Y-51.35
X55.05Y-55.7
X55.05Y-57.0
X55.05Y-58.3
X55.05Y-59.45
X55.35Y-47.75
X55.45Y-45.25
X56.4Y-56.95
X56.45Y-40.55
X56.45Y-41.7
X56.45Y-43.0
X56.45Y-44.3
X56.45Y-45.45
X56.45Y-47.55
X56.45Y-48.7
X56.45Y-50.0
X56.45Y-51.35
X56.45Y-52.45
X56.45Y-54.55
X56.45Y-55.7
X56.45Y-58.3
X56.45Y-59.45
X57.45Y-46.15
X57.9Y-46.85
X57.9Y-53.65
X58.45Y-39.3
X58.55Y-60.65
X59.35Y-59.75
X59.4Y-59.0
X59.7Y-46.45
X59.7Y-53.5
T2
X56.45Y-38.1
X56.45Y-61.9
X61.85Y-42.55
X61.85Y-46.35
X61.85Y-49.75
X61.85Y-53.55
X61.85Y-56.95
T0
M30
