G04 #@! TF.GenerationSoftware,KiCad,Pcbnew,7.0.7*
G04 #@! TF.CreationDate,2024-08-09T21:04:11-05:00*
G04 #@! TF.ProjectId,O32controller,4f333263-6f6e-4747-926f-6c6c65722e6b,3.1*
G04 #@! TF.SameCoordinates,Original*
G04 #@! TF.FileFunction,Copper,L4,Bot*
G04 #@! TF.FilePolarity,Positive*
%FSLAX46Y46*%
G04 Gerber Fmt 4.6, Leading zero omitted, Abs format (unit mm)*
G04 Created by KiCad (PCBNEW 7.0.7) date 2024-08-09 21:04:11*
%MOMM*%
%LPD*%
G01*
G04 APERTURE LIST*
G04 Aperture macros list*
%AMRoundRect*
0 Rectangle with rounded corners*
0 $1 Rounding radius*
0 $2 $3 $4 $5 $6 $7 $8 $9 X,Y pos of 4 corners*
0 Add a 4 corners polygon primitive as box body*
4,1,4,$2,$3,$4,$5,$6,$7,$8,$9,$2,$3,0*
0 Add four circle primitives for the rounded corners*
1,1,$1+$1,$2,$3*
1,1,$1+$1,$4,$5*
1,1,$1+$1,$6,$7*
1,1,$1+$1,$8,$9*
0 Add four rect primitives between the rounded corners*
20,1,$1+$1,$2,$3,$4,$5,0*
20,1,$1+$1,$4,$5,$6,$7,0*
20,1,$1+$1,$6,$7,$8,$9,0*
20,1,$1+$1,$8,$9,$2,$3,0*%
G04 Aperture macros list end*
G04 #@! TA.AperFunction,ComponentPad*
%ADD10RoundRect,0.269607X-1.105393X-1.105393X1.105393X-1.105393X1.105393X1.105393X-1.105393X1.105393X0*%
G04 #@! TD*
G04 #@! TA.AperFunction,SMDPad,CuDef*
%ADD11RoundRect,0.135000X0.135000X0.185000X-0.135000X0.185000X-0.135000X-0.185000X0.135000X-0.185000X0*%
G04 #@! TD*
G04 #@! TA.AperFunction,SMDPad,CuDef*
%ADD12RoundRect,0.140000X0.140000X0.170000X-0.140000X0.170000X-0.140000X-0.170000X0.140000X-0.170000X0*%
G04 #@! TD*
G04 #@! TA.AperFunction,SMDPad,CuDef*
%ADD13RoundRect,0.250000X-0.475000X0.250000X-0.475000X-0.250000X0.475000X-0.250000X0.475000X0.250000X0*%
G04 #@! TD*
G04 #@! TA.AperFunction,SMDPad,CuDef*
%ADD14RoundRect,0.135000X-0.135000X-0.185000X0.135000X-0.185000X0.135000X0.185000X-0.135000X0.185000X0*%
G04 #@! TD*
G04 #@! TA.AperFunction,SMDPad,CuDef*
%ADD15RoundRect,0.140000X-0.140000X-0.170000X0.140000X-0.170000X0.140000X0.170000X-0.140000X0.170000X0*%
G04 #@! TD*
G04 #@! TA.AperFunction,SMDPad,CuDef*
%ADD16RoundRect,0.250000X0.475000X-0.250000X0.475000X0.250000X-0.475000X0.250000X-0.475000X-0.250000X0*%
G04 #@! TD*
G04 #@! TA.AperFunction,SMDPad,CuDef*
%ADD17C,0.250000*%
G04 #@! TD*
G04 #@! TA.AperFunction,SMDPad,CuDef*
%ADD18R,0.600000X0.250000*%
G04 #@! TD*
G04 #@! TA.AperFunction,SMDPad,CuDef*
%ADD19RoundRect,0.135000X-0.185000X0.135000X-0.185000X-0.135000X0.185000X-0.135000X0.185000X0.135000X0*%
G04 #@! TD*
G04 #@! TA.AperFunction,SMDPad,CuDef*
%ADD20RoundRect,0.050000X0.272236X-0.130815X-0.130815X0.272236X-0.272236X0.130815X0.130815X-0.272236X0*%
G04 #@! TD*
G04 #@! TA.AperFunction,SMDPad,CuDef*
%ADD21RoundRect,0.140000X0.170000X-0.140000X0.170000X0.140000X-0.170000X0.140000X-0.170000X-0.140000X0*%
G04 #@! TD*
G04 #@! TA.AperFunction,SMDPad,CuDef*
%ADD22RoundRect,0.140000X-0.170000X0.140000X-0.170000X-0.140000X0.170000X-0.140000X0.170000X0.140000X0*%
G04 #@! TD*
G04 #@! TA.AperFunction,SMDPad,CuDef*
%ADD23RoundRect,0.250000X0.250000X0.475000X-0.250000X0.475000X-0.250000X-0.475000X0.250000X-0.475000X0*%
G04 #@! TD*
G04 #@! TA.AperFunction,SMDPad,CuDef*
%ADD24R,1.550000X0.600000*%
G04 #@! TD*
G04 #@! TA.AperFunction,SMDPad,CuDef*
%ADD25R,1.800000X1.200000*%
G04 #@! TD*
G04 #@! TA.AperFunction,SMDPad,CuDef*
%ADD26RoundRect,0.250000X0.600000X1.450000X-0.600000X1.450000X-0.600000X-1.450000X0.600000X-1.450000X0*%
G04 #@! TD*
G04 #@! TA.AperFunction,SMDPad,CuDef*
%ADD27RoundRect,0.150000X0.150000X0.600000X-0.150000X0.600000X-0.150000X-0.600000X0.150000X-0.600000X0*%
G04 #@! TD*
G04 #@! TA.AperFunction,SMDPad,CuDef*
%ADD28RoundRect,0.150000X0.150000X-0.600000X0.150000X0.600000X-0.150000X0.600000X-0.150000X-0.600000X0*%
G04 #@! TD*
G04 #@! TA.AperFunction,SMDPad,CuDef*
%ADD29RoundRect,0.250000X-0.400000X-0.450000X0.400000X-0.450000X0.400000X0.450000X-0.400000X0.450000X0*%
G04 #@! TD*
G04 #@! TA.AperFunction,SMDPad,CuDef*
%ADD30R,0.812800X0.254000*%
G04 #@! TD*
G04 #@! TA.AperFunction,SMDPad,CuDef*
%ADD31R,0.254000X0.812800*%
G04 #@! TD*
G04 #@! TA.AperFunction,SMDPad,CuDef*
%ADD32R,1.701800X1.701800*%
G04 #@! TD*
G04 #@! TA.AperFunction,SMDPad,CuDef*
%ADD33RoundRect,0.135000X0.185000X-0.135000X0.185000X0.135000X-0.185000X0.135000X-0.185000X-0.135000X0*%
G04 #@! TD*
G04 #@! TA.AperFunction,ViaPad*
%ADD34C,0.550000*%
G04 #@! TD*
G04 #@! TA.AperFunction,Conductor*
%ADD35C,0.250000*%
G04 #@! TD*
G04 #@! TA.AperFunction,Conductor*
%ADD36C,0.200000*%
G04 #@! TD*
G04 #@! TA.AperFunction,Conductor*
%ADD37C,0.500000*%
G04 #@! TD*
G04 APERTURE END LIST*
D10*
X61850000Y-53550000D03*
X61850000Y-49750000D03*
X56450000Y-38100000D03*
X61850000Y-46350000D03*
X61850000Y-42550000D03*
X56450000Y-61900000D03*
X61850000Y-56950000D03*
D11*
X51135000Y-44350000D03*
X50115000Y-44350000D03*
D12*
X62985000Y-44450000D03*
X62025000Y-44450000D03*
X54080000Y-53500000D03*
X53120000Y-53500000D03*
D13*
X51500000Y-60850000D03*
X51500000Y-62750000D03*
D14*
X48140000Y-52550000D03*
X49160000Y-52550000D03*
D11*
X51135000Y-41510000D03*
X50115000Y-41510000D03*
D15*
X49270000Y-47450000D03*
X50230000Y-47450000D03*
D16*
X45500000Y-39150000D03*
X45500000Y-37250000D03*
D17*
X57100000Y-56500000D03*
D18*
X57400000Y-56500000D03*
D17*
X57700000Y-56500000D03*
X57050000Y-41700000D03*
D18*
X57350000Y-41700000D03*
D17*
X57650000Y-41700000D03*
D16*
X51500000Y-39150000D03*
X51500000Y-37250000D03*
D15*
X50145000Y-40550000D03*
X51105000Y-40550000D03*
D12*
X62980000Y-58850000D03*
X62020000Y-58850000D03*
D19*
X48700000Y-41490000D03*
X48700000Y-42510000D03*
D20*
X44453589Y-49542929D03*
X44100036Y-49896482D03*
X43746482Y-50250036D03*
X43392929Y-50603589D03*
X42346411Y-49557071D03*
X42699964Y-49203518D03*
X43053518Y-48849964D03*
X43407071Y-48496411D03*
D21*
X43000000Y-43680000D03*
X43000000Y-42720000D03*
D16*
X49500000Y-39150000D03*
X49500000Y-37250000D03*
D14*
X50115000Y-43400000D03*
X51135000Y-43400000D03*
D22*
X46950000Y-51370000D03*
X46950000Y-52330000D03*
D13*
X45500000Y-60850000D03*
X45500000Y-62750000D03*
D16*
X43500000Y-39150000D03*
X43500000Y-37250000D03*
X47500000Y-39150000D03*
X47500000Y-37250000D03*
D23*
X44050000Y-40900000D03*
X42150000Y-40900000D03*
D11*
X51110000Y-56000000D03*
X50090000Y-56000000D03*
D23*
X47450000Y-40900000D03*
X45550000Y-40900000D03*
D19*
X42800000Y-45490000D03*
X42800000Y-46510000D03*
D24*
X41500000Y-57050000D03*
X41500000Y-56050000D03*
X41500000Y-55050000D03*
X41500000Y-54050000D03*
D25*
X37625000Y-58350000D03*
X37625000Y-52750000D03*
D12*
X63000000Y-51650000D03*
X62040000Y-51650000D03*
D26*
X59150000Y-56050000D03*
X53750000Y-56050000D03*
D13*
X47500000Y-60850000D03*
X47500000Y-62750000D03*
D19*
X44550000Y-45190000D03*
X44550000Y-46210000D03*
D27*
X41650000Y-61750000D03*
D24*
X41480000Y-48500000D03*
X41480000Y-47500000D03*
D25*
X37605000Y-49800000D03*
X37605000Y-46200000D03*
D28*
X46485000Y-43250000D03*
X45215000Y-43250000D03*
D11*
X61160000Y-51650000D03*
X60140000Y-51650000D03*
D16*
X47150000Y-59350000D03*
X47150000Y-57450000D03*
D12*
X55250000Y-46850000D03*
X54290000Y-46850000D03*
D14*
X50115000Y-42460000D03*
X51135000Y-42460000D03*
D19*
X47850000Y-54940000D03*
X47850000Y-55960000D03*
D13*
X49500000Y-60850000D03*
X49500000Y-62750000D03*
D11*
X61160000Y-58850000D03*
X60140000Y-58850000D03*
D19*
X44550000Y-47090000D03*
X44550000Y-48110000D03*
D11*
X49260000Y-45650000D03*
X48240000Y-45650000D03*
D24*
X41480000Y-43500000D03*
X41480000Y-42500000D03*
D25*
X37605000Y-44800000D03*
X37605000Y-41200000D03*
D14*
X50090000Y-54400000D03*
X51110000Y-54400000D03*
D26*
X59150000Y-42050000D03*
X53750000Y-42050000D03*
D29*
X55450000Y-52500000D03*
X58350000Y-52500000D03*
D11*
X51110000Y-57000000D03*
X50090000Y-57000000D03*
D16*
X53500000Y-39150000D03*
X53500000Y-37250000D03*
D13*
X43500000Y-60850000D03*
X43500000Y-62750000D03*
D14*
X45290000Y-55650000D03*
X46310000Y-55650000D03*
D11*
X61165000Y-44450000D03*
X60145000Y-44450000D03*
D19*
X43950000Y-42690000D03*
X43950000Y-43710000D03*
D12*
X42210000Y-59250000D03*
X41250000Y-59250000D03*
D16*
X45150000Y-59350000D03*
X45150000Y-57450000D03*
D30*
X51384400Y-49237199D03*
X51384400Y-49737200D03*
X51384400Y-50237200D03*
X51384400Y-50737201D03*
D31*
X50686601Y-51435000D03*
X50186600Y-51435000D03*
X49686600Y-51435000D03*
X49186599Y-51435000D03*
D30*
X48488800Y-50737201D03*
X48488800Y-50237200D03*
X48488800Y-49737200D03*
X48488800Y-49237199D03*
D31*
X49186599Y-48539400D03*
X49686600Y-48539400D03*
X50186600Y-48539400D03*
X50686601Y-48539400D03*
D32*
X49936600Y-49987200D03*
D23*
X50800000Y-59100000D03*
X48900000Y-59100000D03*
D27*
X41550000Y-38300000D03*
D33*
X41800000Y-46510000D03*
X41800000Y-45490000D03*
D17*
X57100000Y-49350000D03*
D18*
X57400000Y-49350000D03*
D17*
X57700000Y-49350000D03*
D13*
X53500000Y-60850000D03*
X53500000Y-62750000D03*
D26*
X59150000Y-49250000D03*
X53750000Y-49250000D03*
D34*
X39395600Y-56286400D03*
X39763615Y-57645585D03*
X41173600Y-57784502D03*
X50700000Y-57550000D03*
X58550000Y-60650000D03*
X49450000Y-45200000D03*
X57450000Y-46150000D03*
X58450000Y-39300000D03*
X49408628Y-41258628D03*
X55050000Y-57000000D03*
X49500000Y-60200000D03*
X55050000Y-59450000D03*
X56450000Y-41700000D03*
X56450000Y-50000000D03*
X55050000Y-43000000D03*
X47650000Y-39900000D03*
X56400000Y-56950000D03*
X56450000Y-54550000D03*
X56450000Y-45450000D03*
X56450000Y-51350000D03*
X55050000Y-50000000D03*
X56450000Y-47550000D03*
X56450000Y-43000000D03*
X56450000Y-40550000D03*
X44650000Y-59300000D03*
X56450000Y-59450000D03*
X55050000Y-58300000D03*
X56450000Y-58300000D03*
X55050000Y-44350000D03*
X55450000Y-45250000D03*
X56450000Y-48700000D03*
X40350000Y-49850000D03*
X51500000Y-60200000D03*
X43866000Y-56642000D03*
X55050000Y-41700000D03*
X55050000Y-48700000D03*
X47500000Y-60200000D03*
X56450000Y-44300000D03*
X45500000Y-60200000D03*
X55350000Y-47750000D03*
X44500000Y-39900000D03*
X55050000Y-55700000D03*
X56450000Y-52450000D03*
X49775000Y-39950000D03*
X55050000Y-51350000D03*
X56450000Y-55700000D03*
X39250000Y-43000000D03*
X39000000Y-41050000D03*
X47050000Y-55850000D03*
X40750000Y-45150000D03*
X39695591Y-52292587D03*
X37540500Y-54508400D03*
X37262000Y-51650000D03*
X40500000Y-59350000D03*
X47450000Y-43475000D03*
X41350000Y-46482000D03*
X40650000Y-46634400D03*
X47300000Y-44300000D03*
X40659364Y-50697700D03*
X43750000Y-58200000D03*
X46080000Y-54870000D03*
X48300000Y-43500000D03*
X46800000Y-54800000D03*
X49425000Y-42025000D03*
X49600000Y-43700000D03*
X48550000Y-54400000D03*
X53000000Y-62150000D03*
X38939100Y-50300858D03*
X49375000Y-55100000D03*
X50250000Y-37850000D03*
X44900000Y-58200000D03*
X42350000Y-37850000D03*
X46300000Y-37850000D03*
X47300000Y-42475000D03*
X37350000Y-45350000D03*
X44350000Y-37850000D03*
X41325500Y-54174500D03*
X37400000Y-59275000D03*
X50950000Y-62150000D03*
X47300000Y-58200000D03*
X43575000Y-59475000D03*
X51350000Y-46850000D03*
X45350000Y-41875000D03*
X43950000Y-45500000D03*
X47000000Y-62100000D03*
X52250000Y-37850000D03*
X45750000Y-54200000D03*
X39649600Y-55524400D03*
X37100000Y-40200000D03*
X50200000Y-45150000D03*
X48300000Y-37850000D03*
X39750500Y-53109763D03*
X45000000Y-62100000D03*
X39968945Y-50534250D03*
X43000000Y-62100000D03*
X49750000Y-58200000D03*
X48950000Y-62150000D03*
X43100000Y-41875000D03*
X46800000Y-45675000D03*
X46925000Y-48125000D03*
X49500000Y-55825000D03*
X43866000Y-47599600D03*
X49200000Y-56475000D03*
X43035561Y-47549500D03*
X57900000Y-46850000D03*
X52080000Y-47040000D03*
X52700000Y-52750000D03*
X57900000Y-53650000D03*
X50650000Y-55150000D03*
X59350000Y-59750000D03*
X52050000Y-45950000D03*
X59700000Y-46450000D03*
X47450000Y-51350000D03*
X51350000Y-52050000D03*
X59700000Y-53500000D03*
X59400000Y-59000000D03*
X47400000Y-52250000D03*
X52340000Y-41200000D03*
X52810000Y-43090000D03*
X52340000Y-43360000D03*
X53270000Y-44440000D03*
X52340000Y-43900000D03*
X52810000Y-43630000D03*
X52810000Y-42550000D03*
X53730000Y-44170000D03*
X51870000Y-43090000D03*
X52810000Y-40390000D03*
X52340000Y-42820000D03*
X51870000Y-40930000D03*
X51870000Y-41470000D03*
X52810000Y-40930000D03*
X52810000Y-44170000D03*
X51870000Y-40390000D03*
X53270000Y-43900000D03*
X52810000Y-41470000D03*
X52340000Y-40660000D03*
X52810000Y-42010000D03*
X52340000Y-42280000D03*
X51870000Y-43630000D03*
X51870000Y-42010000D03*
X51870000Y-44170000D03*
X51870000Y-42550000D03*
X52340000Y-44430000D03*
X52340000Y-41740000D03*
X46150000Y-48100000D03*
X53630000Y-51350000D03*
X52700000Y-48100000D03*
X52710000Y-50790000D03*
X53170000Y-48370000D03*
X53160000Y-51610000D03*
X52710000Y-49180000D03*
X53640000Y-47580000D03*
X53180000Y-50530000D03*
X51760000Y-48650000D03*
X53180000Y-49990000D03*
X52230000Y-48920000D03*
X53180000Y-48900000D03*
X52700000Y-48650000D03*
X52710000Y-50250000D03*
X52240000Y-49450000D03*
X52230000Y-48380000D03*
X53170000Y-47840000D03*
X53180000Y-51070000D03*
X53170000Y-47310000D03*
X52700000Y-47570000D03*
X52710000Y-49710000D03*
X52240000Y-50510000D03*
X52700000Y-51320000D03*
X52230000Y-51050000D03*
X53180000Y-49450000D03*
X52230000Y-49980000D03*
X52790000Y-56540000D03*
X52790000Y-56000000D03*
X51840000Y-55460000D03*
X52320000Y-55720000D03*
X52320000Y-56800000D03*
X52790000Y-57070000D03*
X53250000Y-58400000D03*
X52780000Y-57600000D03*
X52310000Y-58390000D03*
X52320000Y-55190000D03*
X52320000Y-56260000D03*
X51850000Y-56530000D03*
X51850000Y-57060000D03*
X51840000Y-56000000D03*
X52790000Y-54930000D03*
X51840000Y-54930000D03*
X52320000Y-57330000D03*
X52790000Y-58130000D03*
X51850000Y-57590000D03*
X52780000Y-54400000D03*
X51840000Y-58120000D03*
X53250000Y-57860000D03*
X52310000Y-57860000D03*
X52310000Y-54660000D03*
X51830000Y-54400000D03*
X53710000Y-58130000D03*
X52790000Y-55460000D03*
X40000000Y-49150000D03*
X50050000Y-52600000D03*
X39249115Y-44025245D03*
X40450000Y-44450000D03*
X40450000Y-42800000D03*
X45100000Y-52300000D03*
X44408181Y-52470879D03*
X47350000Y-50600000D03*
X46050000Y-45550000D03*
X41626500Y-53040500D03*
X39750000Y-53900000D03*
X44650000Y-43525000D03*
X46550000Y-47450000D03*
D35*
X44040400Y-47599600D02*
X44550000Y-47090000D01*
X43866000Y-47599600D02*
X44040400Y-47599600D01*
D36*
X44408181Y-52470879D02*
X44408181Y-52214001D01*
X44408181Y-52214001D02*
X44872182Y-51750000D01*
X44872182Y-51750000D02*
X45400000Y-51750000D01*
X45400000Y-51750000D02*
X45500000Y-51850000D01*
D37*
X39695591Y-52292587D02*
X39053004Y-51650000D01*
X39053004Y-51650000D02*
X37262000Y-51650000D01*
X41800000Y-45490000D02*
X41090000Y-45490000D01*
X41090000Y-45490000D02*
X40750000Y-45150000D01*
D35*
X50750001Y-51450000D02*
X50750001Y-51899999D01*
X50750001Y-51899999D02*
X50050000Y-52600000D01*
X40400000Y-56600000D02*
X39709200Y-56600000D01*
X39709200Y-56600000D02*
X39395600Y-56286400D01*
X41626500Y-53040500D02*
X43167000Y-51500000D01*
X44000166Y-50876180D02*
X44000166Y-50503720D01*
X43167000Y-51500000D02*
X43376346Y-51500000D01*
X43376346Y-51500000D02*
X44000166Y-50876180D01*
X44000166Y-50503720D02*
X43746482Y-50250036D01*
X51110000Y-57140000D02*
X50700000Y-57550000D01*
X51110000Y-57000000D02*
X51110000Y-57140000D01*
D36*
X57050000Y-59483668D02*
X57050000Y-56550000D01*
X58216332Y-60650000D02*
X57050000Y-59483668D01*
X58550000Y-60650000D02*
X58216332Y-60650000D01*
X57472182Y-46150000D02*
X57450000Y-46150000D01*
X49260000Y-45650000D02*
X49260000Y-45390000D01*
X57000000Y-49250000D02*
X57000000Y-46622182D01*
X49260000Y-45390000D02*
X49450000Y-45200000D01*
X57100000Y-49350000D02*
X57000000Y-49250000D01*
X57000000Y-46622182D02*
X57472182Y-46150000D01*
D35*
X57850000Y-39900000D02*
X58450000Y-39300000D01*
D36*
X57050000Y-41650000D02*
X57050000Y-41700000D01*
D35*
X49049712Y-41490000D02*
X48700000Y-41490000D01*
X49281084Y-41258628D02*
X49049712Y-41490000D01*
D36*
X57000000Y-41600000D02*
X57050000Y-41650000D01*
X57000000Y-39900000D02*
X57000000Y-41600000D01*
D35*
X57000000Y-39900000D02*
X57850000Y-39900000D01*
X49408628Y-41258628D02*
X49281084Y-41258628D01*
D37*
X62985000Y-43685000D02*
X61850000Y-42550000D01*
X62985000Y-44450000D02*
X62985000Y-43685000D01*
X63000000Y-51650000D02*
X63000000Y-50900000D01*
X63000000Y-50900000D02*
X61850000Y-49750000D01*
X62980000Y-58080000D02*
X61850000Y-56950000D01*
X62980000Y-58850000D02*
X62980000Y-58080000D01*
X44500000Y-39900000D02*
X44450000Y-39900000D01*
X44500000Y-39900000D02*
X44075000Y-39900000D01*
X49775000Y-39425000D02*
X49500000Y-39150000D01*
X49940000Y-39950000D02*
X50120000Y-39770000D01*
X47450000Y-40900000D02*
X47300000Y-40750000D01*
X47650000Y-39900000D02*
X47650000Y-40700000D01*
X47650000Y-39300000D02*
X47500000Y-39150000D01*
X49775000Y-39950000D02*
X49940000Y-39950000D01*
X50120000Y-39770000D02*
X49500000Y-39150000D01*
X44075000Y-39900000D02*
X44050000Y-39925000D01*
X49775000Y-39950000D02*
X49775000Y-39425000D01*
X44050000Y-40300000D02*
X44050000Y-40900000D01*
X47150000Y-59350000D02*
X47150000Y-60500000D01*
X44050000Y-39925000D02*
X44050000Y-39700000D01*
X47650000Y-39900000D02*
X47650000Y-39300000D01*
D35*
X55400000Y-53000000D02*
X55400000Y-52400000D01*
X54080000Y-53500000D02*
X54900000Y-53500000D01*
D37*
X50800000Y-59100000D02*
X50800000Y-60150000D01*
X47300000Y-39350000D02*
X47500000Y-39150000D01*
X44500000Y-39900000D02*
X44500000Y-39875000D01*
X44050000Y-39700000D02*
X43500000Y-39150000D01*
X47150000Y-60500000D02*
X47500000Y-60850000D01*
D35*
X54900000Y-53500000D02*
X55400000Y-53000000D01*
D37*
X55841350Y-38708650D02*
X56450000Y-38100000D01*
X50800000Y-60150000D02*
X51500000Y-60850000D01*
X47300000Y-40750000D02*
X47300000Y-39350000D01*
X56350000Y-38200000D02*
X56450000Y-38100000D01*
X44500000Y-39875000D02*
X45225000Y-39150000D01*
X50120000Y-40550000D02*
X50120000Y-39770000D01*
X45225000Y-39150000D02*
X45500000Y-39150000D01*
X44450000Y-39900000D02*
X44050000Y-40300000D01*
X47650000Y-40700000D02*
X47450000Y-40900000D01*
X44050000Y-40900000D02*
X44050000Y-39925000D01*
D35*
X45350000Y-45107315D02*
X45482315Y-44975000D01*
D37*
X41800000Y-45490000D02*
X41800000Y-45200000D01*
X48850000Y-47450000D02*
X49270000Y-47450000D01*
X41800000Y-45200000D02*
X42530000Y-44470000D01*
D35*
X49270000Y-47450000D02*
X49270000Y-48529999D01*
D37*
X47500000Y-46100000D02*
X48850000Y-47450000D01*
X46510050Y-44975000D02*
X47089950Y-44975000D01*
D35*
X46485000Y-43250000D02*
X46485000Y-44750050D01*
D37*
X45607315Y-44850000D02*
X46385050Y-44850000D01*
D35*
X44550000Y-48110000D02*
X44303173Y-48110000D01*
X49270000Y-48529999D02*
X49249999Y-48550000D01*
X47090000Y-55810000D02*
X47050000Y-55850000D01*
X44303173Y-48110000D02*
X43916762Y-48496411D01*
D37*
X46385050Y-44850000D02*
X46510050Y-44975000D01*
X42530000Y-44470000D02*
X45220000Y-44470000D01*
D35*
X47850000Y-55810000D02*
X47090000Y-55810000D01*
D37*
X47089950Y-44975000D02*
X47500000Y-45385050D01*
D35*
X44550000Y-48110000D02*
X45350000Y-47310000D01*
D37*
X47500000Y-45385050D02*
X47500000Y-46100000D01*
D35*
X45350000Y-47310000D02*
X45350000Y-45107315D01*
D37*
X45220000Y-44470000D02*
X45482315Y-44732315D01*
D35*
X43916762Y-48496411D02*
X43407071Y-48496411D01*
X46485000Y-44750050D02*
X46385050Y-44850000D01*
D37*
X41800000Y-46510000D02*
X42800000Y-46510000D01*
D35*
X41710000Y-46600000D02*
X41800000Y-46510000D01*
X47450000Y-43475000D02*
X48325000Y-44350000D01*
X41350000Y-46600000D02*
X41710000Y-46600000D01*
X48325000Y-44350000D02*
X50090000Y-44350000D01*
X48240000Y-45650000D02*
X48240000Y-45063223D01*
X47526777Y-44350000D02*
X47250000Y-44350000D01*
X48240000Y-45063223D02*
X47526777Y-44350000D01*
X41650000Y-60300000D02*
X41650000Y-61750000D01*
X43750000Y-58200000D02*
X41650000Y-60300000D01*
X48300000Y-43500000D02*
X48300000Y-42910000D01*
X48300000Y-42910000D02*
X48700000Y-42510000D01*
X49425000Y-42025000D02*
X49554462Y-42025000D01*
X49554462Y-42025000D02*
X50069462Y-41510000D01*
X46800000Y-55160000D02*
X46310000Y-55650000D01*
X47850000Y-54790000D02*
X46810000Y-54790000D01*
X50069462Y-41510000D02*
X50090000Y-41510000D01*
X46810000Y-54790000D02*
X46800000Y-54800000D01*
X46800000Y-54800000D02*
X46800000Y-55160000D01*
X49600000Y-43700000D02*
X49790000Y-43700000D01*
X49790000Y-43700000D02*
X50090000Y-43400000D01*
X48550000Y-54400000D02*
X50090000Y-54400000D01*
X50090000Y-42460000D02*
X50090000Y-43400000D01*
X48550000Y-50250000D02*
X49750000Y-50250000D01*
D36*
X59050000Y-49350000D02*
X59150000Y-49250000D01*
D37*
X44100000Y-45490000D02*
X44400000Y-45190000D01*
D36*
X57700000Y-49350000D02*
X59050000Y-49350000D01*
D35*
X49249999Y-50750001D02*
X50000000Y-50000000D01*
X50230000Y-48530000D02*
X50250000Y-48550000D01*
X45290000Y-54660000D02*
X45750000Y-54200000D01*
X49750000Y-50250000D02*
X50000000Y-50000000D01*
D37*
X42800000Y-45490000D02*
X44100000Y-45490000D01*
D35*
X50250000Y-48550000D02*
X50250000Y-49750000D01*
X51350000Y-46850000D02*
X50830000Y-46850000D01*
D36*
X58800000Y-41700000D02*
X59150000Y-42050000D01*
X57650000Y-56500000D02*
X58700000Y-56500000D01*
X58700000Y-56500000D02*
X59150000Y-56050000D01*
D35*
X45290000Y-55650000D02*
X45290000Y-54660000D01*
D36*
X57650000Y-41700000D02*
X58800000Y-41700000D01*
D35*
X49249999Y-51450000D02*
X49249999Y-50750001D01*
X50830000Y-46850000D02*
X50230000Y-47450000D01*
X50250000Y-49750000D02*
X50000000Y-50000000D01*
X50230000Y-47450000D02*
X50230000Y-48530000D01*
X43550000Y-52527710D02*
X47550000Y-48527710D01*
X42750000Y-56050000D02*
X43550000Y-55250000D01*
X47550000Y-48527710D02*
X47550000Y-47000000D01*
X43550000Y-55250000D02*
X43550000Y-52527710D01*
X46800000Y-46250000D02*
X46800000Y-45675000D01*
X47550000Y-47000000D02*
X46800000Y-46250000D01*
X41500000Y-56050000D02*
X42750000Y-56050000D01*
X43000000Y-55050000D02*
X43100000Y-54950000D01*
X46925000Y-48555000D02*
X46925000Y-48125000D01*
X43100000Y-54950000D02*
X43100000Y-52380000D01*
X41500000Y-55050000D02*
X43000000Y-55050000D01*
X43100000Y-52380000D02*
X46925000Y-48555000D01*
X49675000Y-56000000D02*
X49500000Y-55825000D01*
X44550000Y-47090000D02*
X44550000Y-46360000D01*
X50090000Y-56000000D02*
X49675000Y-56000000D01*
X44550000Y-46360000D02*
X44400000Y-46210000D01*
X49200000Y-56475000D02*
X49400000Y-56475000D01*
X49400000Y-56475000D02*
X49925000Y-57000000D01*
X49925000Y-57000000D02*
X50090000Y-57000000D01*
X46850000Y-51370000D02*
X47430000Y-51370000D01*
X47430000Y-51370000D02*
X47450000Y-51350000D01*
X47320000Y-52330000D02*
X47400000Y-52250000D01*
X46850000Y-52330000D02*
X47320000Y-52330000D01*
D37*
X62025000Y-44450000D02*
X61165000Y-44450000D01*
D35*
X51110000Y-42460000D02*
X51110000Y-41510000D01*
X53800000Y-42000000D02*
X53750000Y-42050000D01*
D36*
X51450000Y-39950000D02*
X53600000Y-39950000D01*
D35*
X51150000Y-40250000D02*
X51400000Y-40000000D01*
D36*
X51400000Y-40000000D02*
X51450000Y-39950000D01*
X53600000Y-39950000D02*
X53750000Y-40100000D01*
X53750000Y-40100000D02*
X53750000Y-40300000D01*
D35*
X53750000Y-40300000D02*
X53750000Y-42050000D01*
X51110000Y-41510000D02*
X51150000Y-41470000D01*
X51150000Y-41470000D02*
X51150000Y-40250000D01*
X46150000Y-48236396D02*
X46150000Y-48100000D01*
X44603589Y-49692929D02*
X44693467Y-49692929D01*
X44693467Y-49692929D02*
X46150000Y-48236396D01*
X51110000Y-44350000D02*
X51110000Y-43350000D01*
X54290000Y-48710000D02*
X53750000Y-49250000D01*
X52625000Y-45711827D02*
X52288173Y-45375000D01*
X52135000Y-45375000D02*
X51110000Y-44350000D01*
X53500000Y-46850000D02*
X52625000Y-45975000D01*
X52625000Y-45975000D02*
X52625000Y-45711827D01*
X52288173Y-45375000D02*
X52135000Y-45375000D01*
X54290000Y-46850000D02*
X53500000Y-46850000D01*
X54290000Y-46850000D02*
X54290000Y-48710000D01*
X51110000Y-55503173D02*
X51110000Y-56000000D01*
D36*
X53100000Y-53900000D02*
X51610000Y-53900000D01*
X51610000Y-53900000D02*
X51110000Y-54400000D01*
D35*
X51110000Y-54400000D02*
X51110000Y-54796827D01*
X51110000Y-54796827D02*
X51225000Y-54911827D01*
X54270000Y-55270000D02*
X54270000Y-55530000D01*
D36*
X54270000Y-55530000D02*
X53750000Y-56050000D01*
X53200000Y-53800000D02*
X53100000Y-53900000D01*
D35*
X53200000Y-53600000D02*
X53200000Y-54200000D01*
X53200000Y-54200000D02*
X54270000Y-55270000D01*
D36*
X53200000Y-53500000D02*
X53200000Y-53800000D01*
D35*
X51225000Y-55388173D02*
X51110000Y-55503173D01*
X51225000Y-54911827D02*
X51225000Y-55388173D01*
X41600000Y-38800000D02*
X41600000Y-38400000D01*
X39825000Y-40575000D02*
X41600000Y-38800000D01*
X39249115Y-44025245D02*
X39825000Y-43449360D01*
X39825000Y-43449360D02*
X39825000Y-40575000D01*
X40586827Y-43500000D02*
X41480000Y-43500000D01*
X39600000Y-47636396D02*
X39600000Y-44486827D01*
X41480000Y-48500000D02*
X40463604Y-48500000D01*
X39600000Y-44486827D02*
X40586827Y-43500000D01*
X40463604Y-48500000D02*
X39600000Y-47636396D01*
X41996446Y-48500000D02*
X41480000Y-48500000D01*
X42849964Y-49353518D02*
X41996446Y-48500000D01*
D37*
X40450000Y-42800000D02*
X40750000Y-42500000D01*
D35*
X40075000Y-44825000D02*
X40075000Y-46988173D01*
X40450000Y-44450000D02*
X40075000Y-44825000D01*
X42205000Y-47500000D02*
X41480000Y-47500000D01*
X42580000Y-48376446D02*
X42580000Y-47875000D01*
X40075000Y-46988173D02*
X40586827Y-47500000D01*
X43203518Y-48999964D02*
X42580000Y-48376446D01*
D37*
X40750000Y-42500000D02*
X41480000Y-42500000D01*
D35*
X42580000Y-47875000D02*
X42205000Y-47500000D01*
X40586827Y-47500000D02*
X41480000Y-47500000D01*
X51588173Y-52625000D02*
X50825000Y-52625000D01*
X49813173Y-53650000D02*
X46004800Y-53650000D01*
X50625000Y-52825000D02*
X50625000Y-52838173D01*
X51950000Y-51836827D02*
X51950000Y-52263173D01*
X45100000Y-52745200D02*
X45100000Y-52300000D01*
X46004800Y-53650000D02*
X45100000Y-52745200D01*
X51450000Y-51336827D02*
X51950000Y-51836827D01*
X50825000Y-52625000D02*
X50625000Y-52825000D01*
X50625000Y-52838173D02*
X49813173Y-53650000D01*
X51950000Y-52263173D02*
X51588173Y-52625000D01*
X51450000Y-50750001D02*
X51450000Y-51336827D01*
X49750000Y-52082599D02*
X49750000Y-51450000D01*
X48632599Y-53200000D02*
X49750000Y-52082599D01*
X45675000Y-52025000D02*
X45675000Y-52538173D01*
X46331396Y-53200000D02*
X48632599Y-53200000D01*
X45672285Y-52540889D02*
X46331396Y-53200000D01*
X45675000Y-52538173D02*
X45672285Y-52540889D01*
X45500000Y-51850000D02*
X45675000Y-52025000D01*
X47350000Y-49817400D02*
X47917401Y-49249999D01*
X47350000Y-50600000D02*
X47350000Y-49817400D01*
X47917401Y-49249999D02*
X48550000Y-49249999D01*
X40961827Y-52425000D02*
X40400000Y-52986827D01*
X43249246Y-50459906D02*
X43542929Y-50753589D01*
X46050000Y-45550000D02*
X45950000Y-45650000D01*
X44167444Y-48895693D02*
X42850000Y-50213137D01*
X43002477Y-50213137D02*
X42850000Y-50213137D01*
X40400000Y-52986827D02*
X40400000Y-56600000D01*
X41138604Y-52425000D02*
X40961827Y-52425000D01*
X42850000Y-50213137D02*
X42850000Y-50713604D01*
X43392929Y-50603589D02*
X43002477Y-50213137D01*
X44734845Y-48895693D02*
X44167444Y-48895693D01*
X40850000Y-57050000D02*
X41500000Y-57050000D01*
X45450000Y-47900000D02*
X45450000Y-48180538D01*
X40400000Y-56600000D02*
X40850000Y-57050000D01*
X42850000Y-50713604D02*
X41138604Y-52425000D01*
X45950000Y-47400000D02*
X45450000Y-47900000D01*
X45450000Y-48180538D02*
X44734845Y-48895693D01*
X45950000Y-45650000D02*
X45950000Y-47400000D01*
X44250036Y-50046482D02*
X43896482Y-50400036D01*
X44135000Y-43525000D02*
X43950000Y-43710000D01*
X44650000Y-43525000D02*
X44135000Y-43525000D01*
X43000000Y-43680000D02*
X43920000Y-43680000D01*
X43920000Y-43680000D02*
X43950000Y-43710000D01*
X44650000Y-43525000D02*
X44940000Y-43525000D01*
X44940000Y-43525000D02*
X45215000Y-43250000D01*
D37*
X62040000Y-51650000D02*
X61160000Y-51650000D01*
X62020000Y-58850000D02*
X61160000Y-58850000D01*
G04 #@! TA.AperFunction,Conductor*
G36*
X54559191Y-47068907D02*
G01*
X54595155Y-47118407D01*
X54600000Y-47149000D01*
X54600000Y-51551000D01*
X54581093Y-51609191D01*
X54531593Y-51645155D01*
X54501000Y-51650000D01*
X52209536Y-51650000D01*
X52151345Y-51631093D01*
X52149877Y-51630005D01*
X52140616Y-51623011D01*
X52135437Y-51618505D01*
X51764496Y-51247565D01*
X51736719Y-51193048D01*
X51735500Y-51177561D01*
X51735500Y-51120092D01*
X51754407Y-51061901D01*
X51803907Y-51025937D01*
X51815177Y-51022995D01*
X51853424Y-51015388D01*
X51906514Y-50979915D01*
X51941987Y-50926825D01*
X51945732Y-50907997D01*
X51951299Y-50880015D01*
X51951300Y-50880005D01*
X51951300Y-50594396D01*
X51951299Y-50594386D01*
X51941987Y-50547578D01*
X51941986Y-50547575D01*
X51938395Y-50542201D01*
X51921787Y-50483313D01*
X51938396Y-50432197D01*
X51941987Y-50426824D01*
X51945732Y-50407996D01*
X51951299Y-50380014D01*
X51951300Y-50380004D01*
X51951300Y-50094395D01*
X51951299Y-50094385D01*
X51941987Y-50047577D01*
X51941987Y-50047576D01*
X51938396Y-50042202D01*
X51921787Y-49983316D01*
X51938396Y-49932197D01*
X51941987Y-49926824D01*
X51945732Y-49907996D01*
X51951299Y-49880014D01*
X51951300Y-49880004D01*
X51951300Y-49594395D01*
X51951299Y-49594385D01*
X51941987Y-49547577D01*
X51941986Y-49547574D01*
X51938395Y-49542200D01*
X51921787Y-49483312D01*
X51938396Y-49432196D01*
X51941987Y-49426823D01*
X51945732Y-49407995D01*
X51951299Y-49380013D01*
X51951300Y-49380003D01*
X51951300Y-49094394D01*
X51951299Y-49094384D01*
X51941987Y-49047576D01*
X51941986Y-49047573D01*
X51906515Y-48994486D01*
X51906512Y-48994483D01*
X51853425Y-48959012D01*
X51853422Y-48959011D01*
X51806614Y-48949699D01*
X51806606Y-48949699D01*
X51649000Y-48949699D01*
X51590809Y-48930792D01*
X51554845Y-48881292D01*
X51550000Y-48850699D01*
X51550000Y-48199000D01*
X51568907Y-48140809D01*
X51618407Y-48104845D01*
X51649000Y-48100000D01*
X52449999Y-48100000D01*
X52450000Y-48100000D01*
X52450000Y-47299697D01*
X52458946Y-47258572D01*
X52493681Y-47182513D01*
X52502156Y-47163956D01*
X52506332Y-47134910D01*
X52533326Y-47080005D01*
X52587440Y-47051450D01*
X52604324Y-47050000D01*
X54501000Y-47050000D01*
X54559191Y-47068907D01*
G37*
G04 #@! TD.AperFunction*
G04 #@! TA.AperFunction,Conductor*
G36*
X54459191Y-54168907D02*
G01*
X54495155Y-54218407D01*
X54500000Y-54249000D01*
X54500000Y-58551000D01*
X54481093Y-58609191D01*
X54431593Y-58645155D01*
X54401000Y-58650000D01*
X51699000Y-58650000D01*
X51640809Y-58631093D01*
X51604845Y-58581593D01*
X51600000Y-58551000D01*
X51600000Y-54249000D01*
X51618907Y-54190809D01*
X51668407Y-54154845D01*
X51699000Y-54150000D01*
X54401000Y-54150000D01*
X54459191Y-54168907D01*
G37*
G04 #@! TD.AperFunction*
G04 #@! TA.AperFunction,Conductor*
G36*
X54459191Y-40168907D02*
G01*
X54495155Y-40218407D01*
X54500000Y-40249000D01*
X54500000Y-44551000D01*
X54481093Y-44609191D01*
X54431593Y-44645155D01*
X54401000Y-44650000D01*
X51854766Y-44650000D01*
X51796575Y-44631093D01*
X51784762Y-44621004D01*
X51628996Y-44465238D01*
X51601219Y-44410721D01*
X51600000Y-44395234D01*
X51600000Y-40249000D01*
X51618907Y-40190809D01*
X51668407Y-40154845D01*
X51699000Y-40150000D01*
X54401000Y-40150000D01*
X54459191Y-40168907D01*
G37*
G04 #@! TD.AperFunction*
G04 #@! TA.AperFunction,Conductor*
G36*
X54593691Y-36719407D02*
G01*
X54629655Y-36768907D01*
X54634500Y-36799500D01*
X54634500Y-37985500D01*
X54615593Y-38043691D01*
X54566093Y-38079655D01*
X54535500Y-38084500D01*
X52447748Y-38084500D01*
X52424208Y-38086183D01*
X52424209Y-38086183D01*
X52410257Y-38088188D01*
X52396312Y-38090193D01*
X52396310Y-38090193D01*
X52396306Y-38090194D01*
X52396304Y-38090194D01*
X52390845Y-38091382D01*
X52373231Y-38095212D01*
X52373232Y-38095212D01*
X52373230Y-38095213D01*
X52370589Y-38095988D01*
X52342693Y-38100000D01*
X52157305Y-38100000D01*
X52129412Y-38095989D01*
X52126762Y-38095211D01*
X52126764Y-38095212D01*
X52103692Y-38090194D01*
X52103690Y-38090193D01*
X52103687Y-38090193D01*
X52078253Y-38086537D01*
X52075791Y-38086183D01*
X52075792Y-38086183D01*
X52052252Y-38084500D01*
X52052250Y-38084500D01*
X50447750Y-38084500D01*
X50447748Y-38084500D01*
X50424208Y-38086183D01*
X50424209Y-38086183D01*
X50410257Y-38088188D01*
X50396312Y-38090193D01*
X50396310Y-38090193D01*
X50396306Y-38090194D01*
X50396304Y-38090194D01*
X50380924Y-38093539D01*
X50373234Y-38095212D01*
X50373236Y-38095211D01*
X50302476Y-38115989D01*
X50274583Y-38120000D01*
X50225418Y-38120000D01*
X50197526Y-38115990D01*
X50126763Y-38095211D01*
X50126764Y-38095212D01*
X50103692Y-38090194D01*
X50103690Y-38090193D01*
X50103687Y-38090193D01*
X50078253Y-38086537D01*
X50075791Y-38086183D01*
X50075792Y-38086183D01*
X50052252Y-38084500D01*
X50052250Y-38084500D01*
X48497750Y-38084500D01*
X48497748Y-38084500D01*
X48474208Y-38086183D01*
X48474209Y-38086183D01*
X48460257Y-38088188D01*
X48446312Y-38090193D01*
X48446310Y-38090193D01*
X48446306Y-38090194D01*
X48446304Y-38090194D01*
X48430924Y-38093539D01*
X48423234Y-38095212D01*
X48423236Y-38095211D01*
X48352476Y-38115989D01*
X48324583Y-38120000D01*
X48275418Y-38120000D01*
X48247526Y-38115990D01*
X48176763Y-38095211D01*
X48176764Y-38095212D01*
X48153692Y-38090194D01*
X48153690Y-38090193D01*
X48153687Y-38090193D01*
X48128253Y-38086537D01*
X48125791Y-38086183D01*
X48125792Y-38086183D01*
X48102252Y-38084500D01*
X48102250Y-38084500D01*
X46497750Y-38084500D01*
X46497748Y-38084500D01*
X46474208Y-38086183D01*
X46474209Y-38086183D01*
X46460257Y-38088188D01*
X46446312Y-38090193D01*
X46446310Y-38090193D01*
X46446306Y-38090194D01*
X46446304Y-38090194D01*
X46430924Y-38093539D01*
X46423234Y-38095212D01*
X46423236Y-38095211D01*
X46352476Y-38115989D01*
X46324583Y-38120000D01*
X46275418Y-38120000D01*
X46247526Y-38115990D01*
X46176763Y-38095211D01*
X46176764Y-38095212D01*
X46153692Y-38090194D01*
X46153690Y-38090193D01*
X46153687Y-38090193D01*
X46128253Y-38086537D01*
X46125791Y-38086183D01*
X46125792Y-38086183D01*
X46102252Y-38084500D01*
X46102250Y-38084500D01*
X44547750Y-38084500D01*
X44547748Y-38084500D01*
X44524208Y-38086183D01*
X44524209Y-38086183D01*
X44510257Y-38088188D01*
X44496312Y-38090193D01*
X44496310Y-38090193D01*
X44496306Y-38090194D01*
X44496304Y-38090194D01*
X44480924Y-38093539D01*
X44473234Y-38095212D01*
X44473236Y-38095211D01*
X44402476Y-38115989D01*
X44374583Y-38120000D01*
X44325418Y-38120000D01*
X44297526Y-38115990D01*
X44226763Y-38095211D01*
X44226764Y-38095212D01*
X44203692Y-38090194D01*
X44203690Y-38090193D01*
X44203687Y-38090193D01*
X44178253Y-38086537D01*
X44175791Y-38086183D01*
X44175792Y-38086183D01*
X44152252Y-38084500D01*
X44152250Y-38084500D01*
X42547750Y-38084500D01*
X42547748Y-38084500D01*
X42524208Y-38086183D01*
X42524209Y-38086183D01*
X42510257Y-38088188D01*
X42496312Y-38090193D01*
X42496310Y-38090193D01*
X42496306Y-38090194D01*
X42496304Y-38090194D01*
X42480924Y-38093539D01*
X42473234Y-38095212D01*
X42473236Y-38095211D01*
X42402476Y-38115989D01*
X42374583Y-38120000D01*
X42325418Y-38120000D01*
X42297526Y-38115990D01*
X42226763Y-38095211D01*
X42226764Y-38095212D01*
X42203692Y-38090194D01*
X42203690Y-38090193D01*
X42203687Y-38090193D01*
X42178253Y-38086537D01*
X42175791Y-38086183D01*
X42175792Y-38086183D01*
X42152252Y-38084500D01*
X42152250Y-38084500D01*
X42109499Y-38084500D01*
X42051308Y-38065593D01*
X42015344Y-38016093D01*
X42010499Y-37985500D01*
X42010499Y-37653647D01*
X42010499Y-37653644D01*
X42007488Y-37627680D01*
X41960599Y-37521486D01*
X41878514Y-37439401D01*
X41772320Y-37392512D01*
X41772317Y-37392511D01*
X41772319Y-37392511D01*
X41746359Y-37389500D01*
X41353647Y-37389500D01*
X41353644Y-37389501D01*
X41327680Y-37392512D01*
X41221486Y-37439401D01*
X41139401Y-37521486D01*
X41092511Y-37627682D01*
X41089500Y-37653638D01*
X41089500Y-38865733D01*
X41070593Y-38923924D01*
X41060504Y-38935737D01*
X39664867Y-40331372D01*
X39659691Y-40335877D01*
X39649967Y-40343219D01*
X39619230Y-40376935D01*
X39617654Y-40378586D01*
X39604414Y-40391827D01*
X39602601Y-40394473D01*
X39598345Y-40399846D01*
X39578060Y-40422096D01*
X39578057Y-40422101D01*
X39574890Y-40430277D01*
X39564257Y-40450450D01*
X39559303Y-40457682D01*
X39559302Y-40457683D01*
X39552408Y-40486992D01*
X39550379Y-40493545D01*
X39539500Y-40521630D01*
X39539500Y-40530395D01*
X39536870Y-40553063D01*
X39534865Y-40561586D01*
X39539025Y-40591409D01*
X39539500Y-40598255D01*
X39539500Y-40742160D01*
X39520593Y-40800351D01*
X39471093Y-40836315D01*
X39409907Y-40836315D01*
X39365681Y-40806992D01*
X39288122Y-40717485D01*
X39182774Y-40649782D01*
X39062616Y-40614500D01*
X39062615Y-40614500D01*
X38937385Y-40614500D01*
X38937383Y-40614500D01*
X38817225Y-40649782D01*
X38711875Y-40717486D01*
X38711875Y-40717487D01*
X38629868Y-40812128D01*
X38577843Y-40926046D01*
X38577842Y-40926048D01*
X38560022Y-41049997D01*
X38560022Y-41050002D01*
X38577842Y-41173951D01*
X38577843Y-41173953D01*
X38577843Y-41173954D01*
X38577844Y-41173956D01*
X38629867Y-41287870D01*
X38629868Y-41287871D01*
X38711875Y-41382512D01*
X38711875Y-41382513D01*
X38817225Y-41450217D01*
X38817227Y-41450218D01*
X38937385Y-41485500D01*
X38937386Y-41485500D01*
X39062614Y-41485500D01*
X39062615Y-41485500D01*
X39182773Y-41450218D01*
X39288124Y-41382513D01*
X39356065Y-41304104D01*
X39365681Y-41293008D01*
X39418077Y-41261412D01*
X39479038Y-41266648D01*
X39525279Y-41306716D01*
X39539500Y-41357839D01*
X39539500Y-42498870D01*
X39520593Y-42557061D01*
X39471093Y-42593025D01*
X39412609Y-42593860D01*
X39312618Y-42564500D01*
X39312615Y-42564500D01*
X39187385Y-42564500D01*
X39187383Y-42564500D01*
X39067225Y-42599782D01*
X38961875Y-42667486D01*
X38961875Y-42667487D01*
X38879868Y-42762128D01*
X38827843Y-42876046D01*
X38827842Y-42876048D01*
X38810022Y-42999997D01*
X38810022Y-43000002D01*
X38827842Y-43123951D01*
X38827843Y-43123953D01*
X38827843Y-43123954D01*
X38827844Y-43123956D01*
X38879867Y-43237870D01*
X38883805Y-43242415D01*
X38961875Y-43332512D01*
X38961875Y-43332513D01*
X39067226Y-43400218D01*
X39099647Y-43409737D01*
X39126091Y-43417502D01*
X39176598Y-43452038D01*
X39197160Y-43509665D01*
X39179922Y-43568372D01*
X39131469Y-43605734D01*
X39126093Y-43607481D01*
X39066344Y-43625025D01*
X39066342Y-43625026D01*
X38960990Y-43692731D01*
X38960990Y-43692732D01*
X38878983Y-43787373D01*
X38826958Y-43901291D01*
X38826957Y-43901293D01*
X38809137Y-44025242D01*
X38809137Y-44025247D01*
X38826957Y-44149196D01*
X38826958Y-44149198D01*
X38826958Y-44149199D01*
X38826959Y-44149201D01*
X38878982Y-44263115D01*
X38878983Y-44263116D01*
X38960990Y-44357757D01*
X38960990Y-44357758D01*
X39043065Y-44410504D01*
X39066342Y-44425463D01*
X39186500Y-44460745D01*
X39186501Y-44460745D01*
X39215500Y-44460745D01*
X39273691Y-44479652D01*
X39309655Y-44529152D01*
X39314500Y-44559745D01*
X39314500Y-47577339D01*
X39314025Y-47584183D01*
X39312339Y-47596267D01*
X39314447Y-47641833D01*
X39314500Y-47644120D01*
X39314500Y-47662851D01*
X39315088Y-47665998D01*
X39315878Y-47672812D01*
X39316020Y-47675866D01*
X39317269Y-47702889D01*
X39317269Y-47702891D01*
X39317270Y-47702893D01*
X39320810Y-47710911D01*
X39327557Y-47732698D01*
X39329168Y-47741319D01*
X39329169Y-47741321D01*
X39345016Y-47766912D01*
X39348217Y-47772984D01*
X39356951Y-47792764D01*
X39360383Y-47800537D01*
X39366584Y-47806738D01*
X39380746Y-47824618D01*
X39384341Y-47830424D01*
X39385359Y-47832068D01*
X39409380Y-47850208D01*
X39414559Y-47854714D01*
X40105342Y-48545496D01*
X40133119Y-48600013D01*
X40123548Y-48660445D01*
X40080283Y-48703710D01*
X40035338Y-48714500D01*
X39937383Y-48714500D01*
X39817225Y-48749782D01*
X39711875Y-48817486D01*
X39711875Y-48817487D01*
X39629868Y-48912128D01*
X39577843Y-49026046D01*
X39577842Y-49026048D01*
X39560022Y-49149997D01*
X39560022Y-49150002D01*
X39577842Y-49273951D01*
X39577843Y-49273953D01*
X39577843Y-49273954D01*
X39577844Y-49273956D01*
X39629867Y-49387870D01*
X39629868Y-49387871D01*
X39711875Y-49482512D01*
X39711875Y-49482513D01*
X39817225Y-49550217D01*
X39817227Y-49550218D01*
X39855662Y-49561503D01*
X39875943Y-49567459D01*
X39926450Y-49601995D01*
X39947011Y-49659623D01*
X39938105Y-49703573D01*
X39927845Y-49726040D01*
X39927842Y-49726048D01*
X39910022Y-49849997D01*
X39910022Y-49850002D01*
X39927842Y-49973951D01*
X39927843Y-49973953D01*
X39927843Y-49973954D01*
X39927844Y-49973956D01*
X39979867Y-50087870D01*
X39998549Y-50109430D01*
X40061875Y-50182512D01*
X40061875Y-50182513D01*
X40135059Y-50229545D01*
X40167227Y-50250218D01*
X40261469Y-50277890D01*
X40311975Y-50312426D01*
X40332537Y-50370053D01*
X40315299Y-50428760D01*
X40308397Y-50437710D01*
X40289232Y-50459827D01*
X40237207Y-50573746D01*
X40237206Y-50573748D01*
X40219386Y-50697697D01*
X40219386Y-50697702D01*
X40237206Y-50821651D01*
X40237207Y-50821653D01*
X40237207Y-50821654D01*
X40237208Y-50821656D01*
X40289231Y-50935570D01*
X40289232Y-50935571D01*
X40371239Y-51030212D01*
X40371239Y-51030213D01*
X40476589Y-51097917D01*
X40476591Y-51097918D01*
X40596749Y-51133200D01*
X40596750Y-51133200D01*
X40721978Y-51133200D01*
X40721979Y-51133200D01*
X40842137Y-51097918D01*
X40947488Y-51030213D01*
X41029497Y-50935570D01*
X41081520Y-50821656D01*
X41081521Y-50821651D01*
X41099342Y-50697702D01*
X41099342Y-50697697D01*
X41081521Y-50573748D01*
X41081520Y-50573746D01*
X41081520Y-50573744D01*
X41029497Y-50459830D01*
X40947488Y-50365187D01*
X40947488Y-50365186D01*
X40842138Y-50297482D01*
X40747894Y-50269809D01*
X40697387Y-50235273D01*
X40676826Y-50177645D01*
X40694065Y-50118938D01*
X40700957Y-50109999D01*
X40720133Y-50087870D01*
X40772156Y-49973956D01*
X40773087Y-49967481D01*
X40789978Y-49850002D01*
X40789978Y-49849997D01*
X40772157Y-49726048D01*
X40772156Y-49726046D01*
X40772156Y-49726044D01*
X40720133Y-49612130D01*
X40638124Y-49517487D01*
X40638124Y-49517486D01*
X40532772Y-49449781D01*
X40532770Y-49449780D01*
X40474055Y-49432539D01*
X40423549Y-49398003D01*
X40402988Y-49340375D01*
X40411894Y-49296426D01*
X40422156Y-49273956D01*
X40435669Y-49179972D01*
X40439978Y-49150002D01*
X40439978Y-49149997D01*
X40422157Y-49026048D01*
X40422156Y-49026044D01*
X40417834Y-49016580D01*
X40412977Y-49005946D01*
X40406003Y-48945162D01*
X40436089Y-48891885D01*
X40491744Y-48866466D01*
X40551711Y-48878616D01*
X40585346Y-48909819D01*
X40589282Y-48915710D01*
X40589287Y-48915715D01*
X40642374Y-48951186D01*
X40642375Y-48951186D01*
X40642376Y-48951187D01*
X40651789Y-48953059D01*
X40689185Y-48960499D01*
X40689192Y-48960499D01*
X40689194Y-48960500D01*
X42012180Y-48960500D01*
X42070371Y-48979407D01*
X42082184Y-48989496D01*
X42203716Y-49111028D01*
X42222932Y-49146978D01*
X42225709Y-49145828D01*
X42229440Y-49154836D01*
X42229441Y-49154837D01*
X42264221Y-49206889D01*
X42264224Y-49206892D01*
X42264228Y-49206897D01*
X42624793Y-49567459D01*
X42696593Y-49639259D01*
X42748645Y-49674041D01*
X42764410Y-49677176D01*
X42817793Y-49707073D01*
X42843409Y-49762638D01*
X42831472Y-49822648D01*
X42815099Y-49844278D01*
X42689868Y-49969508D01*
X42684692Y-49974012D01*
X42674353Y-49981820D01*
X42654889Y-49997984D01*
X42654323Y-49998499D01*
X42636182Y-50022521D01*
X42631690Y-50027686D01*
X42629422Y-50029955D01*
X42629415Y-50029963D01*
X42627599Y-50032614D01*
X42623345Y-50037983D01*
X42603059Y-50060236D01*
X42602642Y-50060910D01*
X42590348Y-50082982D01*
X42587012Y-50089681D01*
X42584302Y-50095820D01*
X42577408Y-50125130D01*
X42575379Y-50131682D01*
X42564499Y-50159768D01*
X42564355Y-50160536D01*
X42560866Y-50185547D01*
X42560175Y-50193004D01*
X42559865Y-50199724D01*
X42564025Y-50229545D01*
X42564500Y-50236392D01*
X42564500Y-50554338D01*
X42545593Y-50612529D01*
X42535504Y-50624342D01*
X41050620Y-52109225D01*
X40996103Y-52137002D01*
X40985192Y-52138115D01*
X40963753Y-52139106D01*
X40956390Y-52139447D01*
X40954116Y-52139500D01*
X40935373Y-52139500D01*
X40935359Y-52139501D01*
X40932207Y-52140090D01*
X40925402Y-52140879D01*
X40895327Y-52142270D01*
X40887309Y-52145810D01*
X40865525Y-52152556D01*
X40856909Y-52154167D01*
X40856903Y-52154169D01*
X40831299Y-52170021D01*
X40825232Y-52173219D01*
X40797685Y-52185383D01*
X40797684Y-52185383D01*
X40791487Y-52191581D01*
X40773608Y-52205743D01*
X40766154Y-52210358D01*
X40748010Y-52234385D01*
X40743505Y-52239561D01*
X40239867Y-52743199D01*
X40234691Y-52747704D01*
X40224967Y-52755046D01*
X40194230Y-52788762D01*
X40192654Y-52790413D01*
X40179414Y-52803654D01*
X40177601Y-52806300D01*
X40173345Y-52811673D01*
X40153060Y-52833923D01*
X40153057Y-52833928D01*
X40149890Y-52842104D01*
X40139257Y-52862277D01*
X40134303Y-52869509D01*
X40134302Y-52869510D01*
X40127408Y-52898819D01*
X40125379Y-52905372D01*
X40114500Y-52933457D01*
X40114500Y-52942222D01*
X40111870Y-52964888D01*
X40109865Y-52973414D01*
X40111204Y-52983010D01*
X40114025Y-53003236D01*
X40114500Y-53010082D01*
X40114500Y-53435265D01*
X40095593Y-53493456D01*
X40046093Y-53529420D01*
X39984907Y-53529420D01*
X39961978Y-53518550D01*
X39932773Y-53499782D01*
X39812616Y-53464500D01*
X39812615Y-53464500D01*
X39687385Y-53464500D01*
X39687383Y-53464500D01*
X39567225Y-53499782D01*
X39461875Y-53567486D01*
X39461875Y-53567487D01*
X39379868Y-53662128D01*
X39327843Y-53776046D01*
X39327842Y-53776048D01*
X39310022Y-53899997D01*
X39310022Y-53900002D01*
X39327842Y-54023951D01*
X39327843Y-54023953D01*
X39327843Y-54023954D01*
X39327844Y-54023956D01*
X39379867Y-54137870D01*
X39379868Y-54137871D01*
X39461875Y-54232512D01*
X39461875Y-54232513D01*
X39567225Y-54300217D01*
X39567227Y-54300218D01*
X39687385Y-54335500D01*
X39687386Y-54335500D01*
X39812614Y-54335500D01*
X39812615Y-54335500D01*
X39932773Y-54300218D01*
X39961976Y-54281449D01*
X40021152Y-54265895D01*
X40078168Y-54288094D01*
X40111248Y-54339566D01*
X40114500Y-54364734D01*
X40114500Y-56215500D01*
X40095593Y-56273691D01*
X40046093Y-56309655D01*
X40015500Y-56314500D01*
X39925402Y-56314500D01*
X39867211Y-56295593D01*
X39831247Y-56246093D01*
X39827410Y-56229588D01*
X39817757Y-56162449D01*
X39817756Y-56162446D01*
X39817756Y-56162444D01*
X39765733Y-56048530D01*
X39683724Y-55953887D01*
X39683724Y-55953886D01*
X39578374Y-55886182D01*
X39458216Y-55850900D01*
X39458215Y-55850900D01*
X39332985Y-55850900D01*
X39332983Y-55850900D01*
X39212825Y-55886182D01*
X39107475Y-55953886D01*
X39107475Y-55953887D01*
X39025468Y-56048528D01*
X38973443Y-56162446D01*
X38973442Y-56162448D01*
X38955622Y-56286397D01*
X38955622Y-56286402D01*
X38973442Y-56410351D01*
X38973443Y-56410353D01*
X38973443Y-56410354D01*
X38973444Y-56410356D01*
X39025467Y-56524270D01*
X39025468Y-56524271D01*
X39107475Y-56618912D01*
X39107475Y-56618913D01*
X39212825Y-56686617D01*
X39212827Y-56686618D01*
X39332985Y-56721900D01*
X39386334Y-56721900D01*
X39444525Y-56740807D01*
X39456338Y-56750896D01*
X39465570Y-56760129D01*
X39470075Y-56765306D01*
X39477418Y-56775030D01*
X39511125Y-56805758D01*
X39512777Y-56807336D01*
X39526024Y-56820582D01*
X39526027Y-56820585D01*
X39528674Y-56822398D01*
X39534040Y-56826648D01*
X39556300Y-56846941D01*
X39564470Y-56850106D01*
X39584652Y-56860744D01*
X39591883Y-56865697D01*
X39621202Y-56872592D01*
X39627741Y-56874617D01*
X39655831Y-56885500D01*
X39664595Y-56885500D01*
X39687261Y-56888129D01*
X39695787Y-56890135D01*
X39719655Y-56886805D01*
X39725610Y-56885975D01*
X39732456Y-56885500D01*
X40240734Y-56885500D01*
X40298925Y-56904407D01*
X40310738Y-56914496D01*
X40535503Y-57139261D01*
X40563280Y-57193778D01*
X40564499Y-57209264D01*
X40564499Y-57365804D01*
X40564500Y-57365814D01*
X40573812Y-57412622D01*
X40573813Y-57412625D01*
X40609284Y-57465712D01*
X40609287Y-57465715D01*
X40662374Y-57501186D01*
X40662376Y-57501187D01*
X40673458Y-57503391D01*
X40688027Y-57506290D01*
X40741411Y-57536187D01*
X40767026Y-57591752D01*
X40758766Y-57644511D01*
X40751445Y-57660542D01*
X40751442Y-57660550D01*
X40733622Y-57784499D01*
X40733622Y-57784504D01*
X40751442Y-57908453D01*
X40751443Y-57908455D01*
X40751443Y-57908456D01*
X40751444Y-57908458D01*
X40803467Y-58022372D01*
X40803468Y-58022373D01*
X40885475Y-58117014D01*
X40885475Y-58117015D01*
X40990825Y-58184719D01*
X40990827Y-58184720D01*
X41110985Y-58220002D01*
X41110986Y-58220002D01*
X41236214Y-58220002D01*
X41236215Y-58220002D01*
X41356373Y-58184720D01*
X41461724Y-58117015D01*
X41543733Y-58022372D01*
X41595756Y-57908458D01*
X41599351Y-57883455D01*
X41613578Y-57784504D01*
X41613578Y-57784499D01*
X41595757Y-57660550D01*
X41595756Y-57660548D01*
X41595756Y-57660546D01*
X41591225Y-57650626D01*
X41584251Y-57589840D01*
X41614337Y-57536563D01*
X41669993Y-57511145D01*
X41681279Y-57510500D01*
X42290805Y-57510500D01*
X42290806Y-57510500D01*
X42290807Y-57510499D01*
X42290814Y-57510499D01*
X42318796Y-57504932D01*
X42337624Y-57501187D01*
X42390714Y-57465714D01*
X42426187Y-57412624D01*
X42429932Y-57393796D01*
X42435499Y-57365814D01*
X42435500Y-57365804D01*
X42435500Y-56734195D01*
X42435499Y-56734185D01*
X42426187Y-56687377D01*
X42426186Y-56687374D01*
X42395870Y-56642002D01*
X43426022Y-56642002D01*
X43443842Y-56765951D01*
X43443843Y-56765953D01*
X43443843Y-56765954D01*
X43443844Y-56765956D01*
X43495867Y-56879870D01*
X43517129Y-56904407D01*
X43577875Y-56974512D01*
X43577875Y-56974513D01*
X43683225Y-57042217D01*
X43683227Y-57042218D01*
X43803385Y-57077500D01*
X43803386Y-57077500D01*
X43928614Y-57077500D01*
X43928615Y-57077500D01*
X44048773Y-57042218D01*
X44154124Y-56974513D01*
X44236133Y-56879870D01*
X44288156Y-56765956D01*
X44288157Y-56765951D01*
X44305978Y-56642002D01*
X44305978Y-56641997D01*
X44288157Y-56518048D01*
X44288156Y-56518046D01*
X44288156Y-56518044D01*
X44236133Y-56404130D01*
X44154124Y-56309487D01*
X44154124Y-56309486D01*
X44048774Y-56241782D01*
X43928616Y-56206500D01*
X43928615Y-56206500D01*
X43803385Y-56206500D01*
X43803383Y-56206500D01*
X43683225Y-56241782D01*
X43577875Y-56309486D01*
X43577875Y-56309487D01*
X43495868Y-56404128D01*
X43495867Y-56404129D01*
X43495867Y-56404130D01*
X43487519Y-56422410D01*
X43443843Y-56518046D01*
X43443842Y-56518048D01*
X43426022Y-56641997D01*
X43426022Y-56642002D01*
X42395870Y-56642002D01*
X42390715Y-56634287D01*
X42390709Y-56634281D01*
X42387762Y-56632312D01*
X42384120Y-56627692D01*
X42383819Y-56627391D01*
X42383854Y-56627355D01*
X42349885Y-56584261D01*
X42347485Y-56523123D01*
X42381480Y-56472250D01*
X42387773Y-56467679D01*
X42390714Y-56465714D01*
X42426187Y-56412624D01*
X42426187Y-56412621D01*
X42429917Y-56403618D01*
X42431733Y-56404370D01*
X42455576Y-56361800D01*
X42511142Y-56336186D01*
X42522775Y-56335500D01*
X42690949Y-56335500D01*
X42697796Y-56335975D01*
X42709870Y-56337659D01*
X42709873Y-56337660D01*
X42709875Y-56337659D01*
X42709876Y-56337660D01*
X42733740Y-56336556D01*
X42755445Y-56335552D01*
X42757726Y-56335500D01*
X42776448Y-56335500D01*
X42776454Y-56335500D01*
X42779602Y-56334911D01*
X42786402Y-56334120D01*
X42816497Y-56332730D01*
X42824506Y-56329193D01*
X42846306Y-56322441D01*
X42854921Y-56320832D01*
X42880523Y-56304978D01*
X42886580Y-56301785D01*
X42914141Y-56289617D01*
X42920337Y-56283419D01*
X42938223Y-56269252D01*
X42945672Y-56264641D01*
X42963821Y-56240605D01*
X42968318Y-56235439D01*
X43710131Y-55493626D01*
X43715313Y-55489117D01*
X43725026Y-55481782D01*
X43725032Y-55481780D01*
X43755774Y-55448056D01*
X43757328Y-55446428D01*
X43770585Y-55433173D01*
X43772400Y-55430522D01*
X43776639Y-55425168D01*
X43796941Y-55402900D01*
X43800103Y-55394736D01*
X43810746Y-55374544D01*
X43815698Y-55367317D01*
X43822594Y-55337990D01*
X43824617Y-55331457D01*
X43835500Y-55303369D01*
X43835500Y-55294604D01*
X43838129Y-55271940D01*
X43840135Y-55263413D01*
X43835975Y-55233589D01*
X43835500Y-55226742D01*
X43835500Y-52720326D01*
X43854407Y-52662135D01*
X43903907Y-52626171D01*
X43965093Y-52626171D01*
X44014593Y-52662135D01*
X44024551Y-52679195D01*
X44030767Y-52692805D01*
X44038049Y-52708751D01*
X44120056Y-52803391D01*
X44120056Y-52803392D01*
X44225406Y-52871096D01*
X44225408Y-52871097D01*
X44345566Y-52906379D01*
X44345567Y-52906379D01*
X44470795Y-52906379D01*
X44470796Y-52906379D01*
X44590954Y-52871097D01*
X44686164Y-52809909D01*
X44745336Y-52794355D01*
X44802353Y-52816554D01*
X44822059Y-52843731D01*
X44824337Y-52842321D01*
X44845016Y-52875716D01*
X44848217Y-52881788D01*
X44859075Y-52906378D01*
X44860383Y-52909341D01*
X44866584Y-52915542D01*
X44880746Y-52933422D01*
X44885359Y-52940872D01*
X44902355Y-52953707D01*
X44909384Y-52959015D01*
X44914561Y-52963520D01*
X45761167Y-53810125D01*
X45765672Y-53815302D01*
X45773018Y-53825030D01*
X45806735Y-53855768D01*
X45808389Y-53857347D01*
X45821628Y-53870585D01*
X45824270Y-53872396D01*
X45829645Y-53876653D01*
X45851900Y-53896941D01*
X45860069Y-53900105D01*
X45880253Y-53910744D01*
X45887483Y-53915697D01*
X45916798Y-53922591D01*
X45923341Y-53924617D01*
X45951431Y-53935500D01*
X45960195Y-53935500D01*
X45982861Y-53938129D01*
X45991387Y-53940135D01*
X46015255Y-53936805D01*
X46021210Y-53935975D01*
X46028056Y-53935500D01*
X48159463Y-53935500D01*
X48217654Y-53954407D01*
X48253618Y-54003907D01*
X48253618Y-54065093D01*
X48234282Y-54099331D01*
X48179868Y-54162127D01*
X48127843Y-54276046D01*
X48127842Y-54276048D01*
X48110022Y-54399997D01*
X48110022Y-54407080D01*
X48107658Y-54407080D01*
X48099077Y-54456693D01*
X48055202Y-54499339D01*
X48011514Y-54509500D01*
X47934782Y-54509500D01*
X47912544Y-54505343D01*
X47912387Y-54506186D01*
X47903370Y-54504500D01*
X47903369Y-54504500D01*
X47903367Y-54504500D01*
X47165407Y-54504500D01*
X47107216Y-54485593D01*
X47090588Y-54470331D01*
X47088124Y-54467487D01*
X47088121Y-54467485D01*
X47088119Y-54467483D01*
X46982774Y-54399782D01*
X46862616Y-54364500D01*
X46862615Y-54364500D01*
X46737385Y-54364500D01*
X46737383Y-54364500D01*
X46617225Y-54399782D01*
X46511877Y-54467485D01*
X46477674Y-54506958D01*
X46425278Y-54538553D01*
X46364317Y-54533317D01*
X46349335Y-54525412D01*
X46295011Y-54490500D01*
X46262772Y-54469781D01*
X46142616Y-54434500D01*
X46142615Y-54434500D01*
X46017385Y-54434500D01*
X46017383Y-54434500D01*
X45897225Y-54469782D01*
X45791875Y-54537486D01*
X45791875Y-54537487D01*
X45709868Y-54632128D01*
X45657843Y-54746046D01*
X45657842Y-54746048D01*
X45640022Y-54869997D01*
X45640022Y-54870002D01*
X45657842Y-54993951D01*
X45657843Y-54993953D01*
X45657843Y-54993954D01*
X45657844Y-54993956D01*
X45709867Y-55107870D01*
X45709868Y-55107871D01*
X45791875Y-55202512D01*
X45791875Y-55202513D01*
X45857719Y-55244828D01*
X45896451Y-55292194D01*
X45899944Y-55353280D01*
X45894762Y-55368097D01*
X45882366Y-55396172D01*
X45882365Y-55396175D01*
X45879500Y-55420872D01*
X45879500Y-55879118D01*
X45879500Y-55879120D01*
X45879501Y-55879122D01*
X45882366Y-55903827D01*
X45926990Y-56004891D01*
X46005109Y-56083010D01*
X46106173Y-56127634D01*
X46130877Y-56130500D01*
X46489122Y-56130499D01*
X46513827Y-56127634D01*
X46591930Y-56093147D01*
X46652800Y-56086939D01*
X46705694Y-56117695D01*
X46706738Y-56118881D01*
X46761875Y-56182512D01*
X46761875Y-56182513D01*
X46849158Y-56238606D01*
X46867227Y-56250218D01*
X46987385Y-56285500D01*
X46987386Y-56285500D01*
X47112614Y-56285500D01*
X47112615Y-56285500D01*
X47232773Y-56250218D01*
X47273877Y-56223801D01*
X47333051Y-56208247D01*
X47390068Y-56230446D01*
X47410963Y-56257899D01*
X47411806Y-56257323D01*
X47416988Y-56264888D01*
X47416989Y-56264889D01*
X47416990Y-56264891D01*
X47495109Y-56343010D01*
X47596173Y-56387634D01*
X47620877Y-56390500D01*
X48079122Y-56390499D01*
X48103827Y-56387634D01*
X48204891Y-56343010D01*
X48283010Y-56264891D01*
X48327634Y-56163827D01*
X48330500Y-56139123D01*
X48330499Y-55780878D01*
X48327634Y-55756173D01*
X48283010Y-55655109D01*
X48204891Y-55576990D01*
X48122392Y-55540563D01*
X48076799Y-55499764D01*
X48063893Y-55439955D01*
X48088607Y-55383983D01*
X48122390Y-55359437D01*
X48204891Y-55323010D01*
X48283010Y-55244891D01*
X48327634Y-55143827D01*
X48330500Y-55119123D01*
X48330499Y-54921681D01*
X48349406Y-54863493D01*
X48398906Y-54827529D01*
X48457391Y-54826693D01*
X48464980Y-54828921D01*
X48487385Y-54835500D01*
X48487386Y-54835500D01*
X48612614Y-54835500D01*
X48612615Y-54835500D01*
X48732773Y-54800218D01*
X48838124Y-54732513D01*
X48849253Y-54719668D01*
X48901649Y-54688073D01*
X48924072Y-54685500D01*
X49611843Y-54685500D01*
X49670034Y-54704407D01*
X49702407Y-54744512D01*
X49706990Y-54754891D01*
X49785109Y-54833010D01*
X49886173Y-54877634D01*
X49910877Y-54880500D01*
X50140266Y-54880499D01*
X50198455Y-54899406D01*
X50234419Y-54948906D01*
X50234420Y-55010091D01*
X50230319Y-55020623D01*
X50227845Y-55026040D01*
X50227842Y-55026048D01*
X50210022Y-55149997D01*
X50210022Y-55150002D01*
X50227842Y-55273951D01*
X50227843Y-55273953D01*
X50227843Y-55273954D01*
X50227844Y-55273956D01*
X50270837Y-55368097D01*
X50275987Y-55379374D01*
X50282961Y-55440161D01*
X50252874Y-55493438D01*
X50197218Y-55518855D01*
X50185933Y-55519500D01*
X49910881Y-55519500D01*
X49910878Y-55519501D01*
X49893917Y-55521468D01*
X49878775Y-55523224D01*
X49878571Y-55521468D01*
X49826699Y-55518939D01*
X49794227Y-55496250D01*
X49793472Y-55497122D01*
X49788119Y-55492483D01*
X49682774Y-55424782D01*
X49562616Y-55389500D01*
X49562615Y-55389500D01*
X49437385Y-55389500D01*
X49437383Y-55389500D01*
X49317225Y-55424782D01*
X49211875Y-55492486D01*
X49211875Y-55492487D01*
X49129868Y-55587128D01*
X49129867Y-55587129D01*
X49129867Y-55587130D01*
X49108331Y-55634287D01*
X49077843Y-55701046D01*
X49077842Y-55701048D01*
X49060022Y-55824997D01*
X49060022Y-55825002D01*
X49077843Y-55948954D01*
X49079154Y-55953419D01*
X49077406Y-56014579D01*
X49040043Y-56063032D01*
X49023278Y-56070981D01*
X49023670Y-56071839D01*
X49017227Y-56074781D01*
X48911875Y-56142486D01*
X48911875Y-56142487D01*
X48829868Y-56237128D01*
X48829867Y-56237129D01*
X48829867Y-56237130D01*
X48825774Y-56246093D01*
X48777843Y-56351046D01*
X48777842Y-56351048D01*
X48760022Y-56474997D01*
X48760022Y-56475002D01*
X48777842Y-56598951D01*
X48777843Y-56598953D01*
X48777843Y-56598954D01*
X48777844Y-56598956D01*
X48829867Y-56712870D01*
X48848345Y-56734195D01*
X48911875Y-56807512D01*
X48911875Y-56807513D01*
X49017225Y-56875217D01*
X49017227Y-56875218D01*
X49137385Y-56910500D01*
X49137386Y-56910500D01*
X49262614Y-56910500D01*
X49262615Y-56910500D01*
X49262616Y-56910499D01*
X49262620Y-56910499D01*
X49336991Y-56888661D01*
X49398152Y-56890407D01*
X49434888Y-56913646D01*
X49630504Y-57109262D01*
X49658281Y-57163779D01*
X49659500Y-57179264D01*
X49659500Y-57229117D01*
X49659501Y-57229122D01*
X49662366Y-57253827D01*
X49706990Y-57354891D01*
X49785109Y-57433010D01*
X49886173Y-57477634D01*
X49910877Y-57480500D01*
X50164245Y-57480499D01*
X50222435Y-57499406D01*
X50258399Y-57548906D01*
X50262237Y-57565410D01*
X50277842Y-57673950D01*
X50277843Y-57673953D01*
X50277843Y-57673954D01*
X50277844Y-57673956D01*
X50329867Y-57787870D01*
X50329868Y-57787871D01*
X50411875Y-57882512D01*
X50411875Y-57882513D01*
X50517225Y-57950217D01*
X50517227Y-57950218D01*
X50637385Y-57985500D01*
X50637386Y-57985500D01*
X50762614Y-57985500D01*
X50762615Y-57985500D01*
X50882773Y-57950218D01*
X50988124Y-57882513D01*
X51070133Y-57787870D01*
X51110947Y-57698499D01*
X51152317Y-57653424D01*
X51212283Y-57641272D01*
X51267940Y-57666689D01*
X51298027Y-57719966D01*
X51299999Y-57739627D01*
X51300000Y-58133065D01*
X51281093Y-58191256D01*
X51231593Y-58227220D01*
X51185513Y-58230846D01*
X51082310Y-58214500D01*
X50517691Y-58214500D01*
X50421567Y-58229725D01*
X50421560Y-58229727D01*
X50305708Y-58288757D01*
X50213757Y-58380708D01*
X50154726Y-58496563D01*
X50154725Y-58496565D01*
X50139499Y-58592691D01*
X50139499Y-58909639D01*
X50138281Y-58925123D01*
X50134500Y-58949000D01*
X50134500Y-59785500D01*
X50115593Y-59843691D01*
X50066093Y-59879655D01*
X50035500Y-59884500D01*
X49843666Y-59884500D01*
X49790143Y-59868784D01*
X49682774Y-59799782D01*
X49562616Y-59764500D01*
X49562615Y-59764500D01*
X49437385Y-59764500D01*
X49437383Y-59764500D01*
X49317225Y-59799782D01*
X49209857Y-59868784D01*
X49156334Y-59884500D01*
X48114500Y-59884500D01*
X48056309Y-59865593D01*
X48020345Y-59816093D01*
X48015500Y-59785500D01*
X48015500Y-59758808D01*
X48019091Y-59736133D01*
X48019056Y-59736128D01*
X48027548Y-59682512D01*
X48035500Y-59632307D01*
X48035499Y-59067694D01*
X48020275Y-58971567D01*
X48020272Y-58971562D01*
X48020272Y-58971560D01*
X47961242Y-58855708D01*
X47961241Y-58855706D01*
X47869294Y-58763759D01*
X47869291Y-58763757D01*
X47753436Y-58704726D01*
X47753434Y-58704725D01*
X47657308Y-58689500D01*
X46642691Y-58689500D01*
X46546567Y-58704725D01*
X46546560Y-58704727D01*
X46430712Y-58763755D01*
X46428182Y-58765594D01*
X46425207Y-58766560D01*
X46423764Y-58767296D01*
X46423647Y-58767067D01*
X46369992Y-58784500D01*
X45930008Y-58784500D01*
X45876352Y-58767067D01*
X45876236Y-58767296D01*
X45874792Y-58766560D01*
X45871818Y-58765594D01*
X45869297Y-58763762D01*
X45869294Y-58763759D01*
X45869288Y-58763756D01*
X45869287Y-58763755D01*
X45753436Y-58704726D01*
X45753434Y-58704725D01*
X45657308Y-58689500D01*
X44642691Y-58689500D01*
X44546567Y-58704725D01*
X44546560Y-58704727D01*
X44430708Y-58763757D01*
X44338757Y-58855708D01*
X44279726Y-58971563D01*
X44279725Y-58971565D01*
X44264500Y-59067691D01*
X44264500Y-59074241D01*
X44255554Y-59115366D01*
X44227844Y-59176043D01*
X44227842Y-59176048D01*
X44210022Y-59299997D01*
X44210022Y-59300002D01*
X44227842Y-59423951D01*
X44227843Y-59423953D01*
X44227843Y-59423954D01*
X44227844Y-59423956D01*
X44246525Y-59464863D01*
X44255554Y-59484632D01*
X44264500Y-59525757D01*
X44264500Y-59632308D01*
X44272452Y-59682512D01*
X44279725Y-59728433D01*
X44285901Y-59740554D01*
X44295473Y-59800985D01*
X44267697Y-59855502D01*
X44213181Y-59883281D01*
X44197692Y-59884500D01*
X42849000Y-59884500D01*
X42823112Y-59886537D01*
X42812914Y-59888152D01*
X42792517Y-59891382D01*
X42721131Y-59920950D01*
X42684443Y-59947606D01*
X42656209Y-59956779D01*
X42646059Y-59984039D01*
X42611507Y-60039667D01*
X42611506Y-60039669D01*
X42592599Y-60097857D01*
X42584500Y-60148996D01*
X42584500Y-61587275D01*
X42591884Y-61636158D01*
X42609166Y-61692048D01*
X42616885Y-61712234D01*
X42616886Y-61712236D01*
X42666215Y-61774211D01*
X42666217Y-61774213D01*
X42714670Y-61811575D01*
X42725013Y-61818416D01*
X42734660Y-61824798D01*
X42734661Y-61824798D01*
X42734664Y-61824800D01*
X42811003Y-61845946D01*
X42872163Y-61847694D01*
X42923519Y-61841058D01*
X42947521Y-61834010D01*
X42975414Y-61830000D01*
X43024586Y-61830000D01*
X43052476Y-61834010D01*
X43076477Y-61841057D01*
X43099650Y-61847861D01*
X43099654Y-61847862D01*
X43125286Y-61859567D01*
X43180753Y-61895214D01*
X43180772Y-61895226D01*
X43187023Y-61900046D01*
X43187147Y-61899879D01*
X43191408Y-61903020D01*
X43191414Y-61903026D01*
X43195427Y-61905368D01*
X43200186Y-61908529D01*
X43202441Y-61910222D01*
X43203623Y-61911109D01*
X43210458Y-61914737D01*
X43210414Y-61914819D01*
X43216044Y-61917401D01*
X43252177Y-61938493D01*
X43310368Y-61957400D01*
X43330824Y-61960640D01*
X43361506Y-61965500D01*
X43361509Y-61965500D01*
X44643211Y-61965500D01*
X44643217Y-61965500D01*
X44651305Y-61965038D01*
X44652654Y-61964961D01*
X44652653Y-61964961D01*
X44679766Y-61961851D01*
X44746366Y-61939158D01*
X44766776Y-61926851D01*
X44771855Y-61925670D01*
X44801350Y-61906713D01*
X44801351Y-61906714D01*
X44819276Y-61895193D01*
X44822255Y-61893398D01*
X44823504Y-61892477D01*
X44829285Y-61888761D01*
X44874711Y-61859567D01*
X44900336Y-61847864D01*
X44947526Y-61834008D01*
X44975413Y-61830000D01*
X45024586Y-61830000D01*
X45052476Y-61834010D01*
X45076477Y-61841057D01*
X45099650Y-61847861D01*
X45099654Y-61847862D01*
X45125286Y-61859567D01*
X45180753Y-61895214D01*
X45180772Y-61895226D01*
X45187023Y-61900046D01*
X45187147Y-61899879D01*
X45191408Y-61903020D01*
X45191414Y-61903026D01*
X45195427Y-61905368D01*
X45200186Y-61908529D01*
X45202441Y-61910222D01*
X45203623Y-61911109D01*
X45210458Y-61914737D01*
X45210414Y-61914819D01*
X45216044Y-61917401D01*
X45252177Y-61938493D01*
X45310368Y-61957400D01*
X45330824Y-61960640D01*
X45361506Y-61965500D01*
X45361509Y-61965500D01*
X46643211Y-61965500D01*
X46643217Y-61965500D01*
X46651305Y-61965038D01*
X46652654Y-61964961D01*
X46652653Y-61964961D01*
X46679766Y-61961851D01*
X46746366Y-61939158D01*
X46766776Y-61926851D01*
X46771855Y-61925670D01*
X46801350Y-61906713D01*
X46801351Y-61906714D01*
X46819276Y-61895193D01*
X46822255Y-61893398D01*
X46823504Y-61892477D01*
X46829285Y-61888761D01*
X46874711Y-61859567D01*
X46900336Y-61847864D01*
X46947526Y-61834008D01*
X46975413Y-61830000D01*
X47024586Y-61830000D01*
X47052476Y-61834010D01*
X47076477Y-61841057D01*
X47099650Y-61847861D01*
X47099654Y-61847862D01*
X47125286Y-61859567D01*
X47180753Y-61895214D01*
X47180772Y-61895226D01*
X47187023Y-61900046D01*
X47187147Y-61899879D01*
X47191408Y-61903020D01*
X47191414Y-61903026D01*
X47195427Y-61905368D01*
X47200186Y-61908529D01*
X47202441Y-61910222D01*
X47203623Y-61911109D01*
X47210458Y-61914737D01*
X47210414Y-61914819D01*
X47216044Y-61917401D01*
X47252177Y-61938493D01*
X47310368Y-61957400D01*
X47330824Y-61960640D01*
X47361506Y-61965500D01*
X47361509Y-61965500D01*
X48660017Y-61965500D01*
X48660018Y-61965500D01*
X48706647Y-61958795D01*
X48760168Y-61943079D01*
X48803015Y-61923512D01*
X48824714Y-61909566D01*
X48850338Y-61897863D01*
X48897525Y-61884008D01*
X48925412Y-61880000D01*
X48974587Y-61880000D01*
X49002478Y-61884010D01*
X49049654Y-61897862D01*
X49075281Y-61909565D01*
X49096984Y-61923512D01*
X49139832Y-61943080D01*
X49193354Y-61958796D01*
X49219258Y-61962520D01*
X49239978Y-61965500D01*
X49239982Y-61965500D01*
X50660017Y-61965500D01*
X50660018Y-61965500D01*
X50706647Y-61958795D01*
X50760168Y-61943079D01*
X50803015Y-61923512D01*
X50824714Y-61909566D01*
X50850338Y-61897863D01*
X50897525Y-61884008D01*
X50925412Y-61880000D01*
X50974587Y-61880000D01*
X51002478Y-61884010D01*
X51049654Y-61897862D01*
X51075281Y-61909565D01*
X51096984Y-61923512D01*
X51139832Y-61943080D01*
X51193354Y-61958796D01*
X51219258Y-61962520D01*
X51239978Y-61965500D01*
X51239982Y-61965500D01*
X52710017Y-61965500D01*
X52710018Y-61965500D01*
X52756647Y-61958795D01*
X52810168Y-61943079D01*
X52853015Y-61923512D01*
X52857605Y-61920561D01*
X52865145Y-61915717D01*
X52918669Y-61900000D01*
X53081330Y-61900000D01*
X53134853Y-61915716D01*
X53146984Y-61923512D01*
X53189832Y-61943080D01*
X53243354Y-61958796D01*
X53269258Y-61962520D01*
X53289978Y-61965500D01*
X53289982Y-61965500D01*
X54501000Y-61965500D01*
X54559191Y-61984407D01*
X54595155Y-62033907D01*
X54600000Y-62064500D01*
X54600000Y-63200500D01*
X54581093Y-63258691D01*
X54531593Y-63294655D01*
X54501000Y-63299500D01*
X38687620Y-63299500D01*
X38684383Y-63299394D01*
X38664196Y-63298070D01*
X38430083Y-63282726D01*
X38423657Y-63281880D01*
X38175298Y-63232478D01*
X38169038Y-63230801D01*
X37929256Y-63149406D01*
X37923273Y-63146928D01*
X37696164Y-63034930D01*
X37690551Y-63031689D01*
X37480001Y-62891005D01*
X37474859Y-62887059D01*
X37284480Y-62720102D01*
X37279897Y-62715519D01*
X37231645Y-62660498D01*
X37112937Y-62525137D01*
X37108994Y-62519998D01*
X37105320Y-62514500D01*
X36968310Y-62309448D01*
X36965069Y-62303835D01*
X36853067Y-62076718D01*
X36850593Y-62070743D01*
X36835163Y-62025289D01*
X36769197Y-61830958D01*
X36767521Y-61824701D01*
X36718119Y-61576342D01*
X36717273Y-61569916D01*
X36709961Y-61458357D01*
X36700606Y-61315617D01*
X36700553Y-61314000D01*
X37480357Y-61314000D01*
X37500885Y-61535536D01*
X37561771Y-61749528D01*
X37660942Y-61948689D01*
X37795019Y-62126236D01*
X37959438Y-62276124D01*
X38148599Y-62393247D01*
X38356060Y-62473618D01*
X38574757Y-62514500D01*
X38797243Y-62514500D01*
X39015940Y-62473618D01*
X39215381Y-62396354D01*
X41189500Y-62396354D01*
X41189501Y-62396356D01*
X41192512Y-62422320D01*
X41239401Y-62528514D01*
X41321486Y-62610599D01*
X41427680Y-62657488D01*
X41453643Y-62660500D01*
X41846356Y-62660499D01*
X41872320Y-62657488D01*
X41978514Y-62610599D01*
X42060599Y-62528514D01*
X42107488Y-62422320D01*
X42110500Y-62396357D01*
X42110499Y-61103644D01*
X42107488Y-61077680D01*
X42060599Y-60971486D01*
X41978514Y-60889401D01*
X41978512Y-60889400D01*
X41972027Y-60882915D01*
X41972880Y-60882061D01*
X41941226Y-60840932D01*
X41935500Y-60807751D01*
X41935500Y-60459266D01*
X41954407Y-60401075D01*
X41964496Y-60389262D01*
X42206662Y-60147096D01*
X42491959Y-59861798D01*
X42532098Y-59841347D01*
X42532099Y-59836918D01*
X42556247Y-59797510D01*
X43689262Y-58664495D01*
X43743779Y-58636719D01*
X43759266Y-58635500D01*
X43812614Y-58635500D01*
X43812615Y-58635500D01*
X43932773Y-58600218D01*
X44038124Y-58532513D01*
X44120133Y-58437870D01*
X44172156Y-58323956D01*
X44177217Y-58288757D01*
X44189978Y-58200002D01*
X44189978Y-58199997D01*
X44172157Y-58076048D01*
X44172156Y-58076046D01*
X44172156Y-58076044D01*
X44120133Y-57962130D01*
X44038124Y-57867487D01*
X44038124Y-57867486D01*
X43932774Y-57799782D01*
X43812616Y-57764500D01*
X43812615Y-57764500D01*
X43687385Y-57764500D01*
X43687383Y-57764500D01*
X43567225Y-57799782D01*
X43461875Y-57867486D01*
X43461875Y-57867487D01*
X43379868Y-57962128D01*
X43327843Y-58076046D01*
X43327842Y-58076048D01*
X43309014Y-58207008D01*
X43306314Y-58206619D01*
X43291115Y-58253401D01*
X43281026Y-58265214D01*
X42690609Y-58855631D01*
X42636092Y-58883408D01*
X42575660Y-58873837D01*
X42550604Y-58855633D01*
X42522765Y-58827794D01*
X42419991Y-58782415D01*
X42419990Y-58782414D01*
X42419988Y-58782414D01*
X42394868Y-58779500D01*
X42025140Y-58779500D01*
X42025135Y-58779501D01*
X42000009Y-58782414D01*
X41897235Y-58827794D01*
X41817794Y-58907235D01*
X41772414Y-59010011D01*
X41769500Y-59035130D01*
X41769500Y-59464860D01*
X41769501Y-59464863D01*
X41772414Y-59489990D01*
X41788207Y-59525757D01*
X41817794Y-59592765D01*
X41817795Y-59592765D01*
X41817795Y-59592766D01*
X41822979Y-59600334D01*
X41821208Y-59601547D01*
X41843408Y-59645118D01*
X41833837Y-59705550D01*
X41815631Y-59730609D01*
X41489867Y-60056372D01*
X41484691Y-60060877D01*
X41474967Y-60068219D01*
X41444230Y-60101935D01*
X41442654Y-60103586D01*
X41429414Y-60116827D01*
X41427601Y-60119473D01*
X41423345Y-60124846D01*
X41403060Y-60147096D01*
X41403057Y-60147101D01*
X41399890Y-60155277D01*
X41389257Y-60175450D01*
X41384303Y-60182682D01*
X41384302Y-60182683D01*
X41377408Y-60211992D01*
X41375379Y-60218545D01*
X41364500Y-60246630D01*
X41364500Y-60255395D01*
X41361870Y-60278063D01*
X41359865Y-60286586D01*
X41364025Y-60316409D01*
X41364500Y-60323255D01*
X41364500Y-60807751D01*
X41345593Y-60865942D01*
X41321860Y-60889027D01*
X41239401Y-60971486D01*
X41192511Y-61077682D01*
X41189500Y-61103638D01*
X41189500Y-62396352D01*
X41189500Y-62396354D01*
X39215381Y-62396354D01*
X39223401Y-62393247D01*
X39412562Y-62276124D01*
X39576981Y-62126236D01*
X39711058Y-61948689D01*
X39810229Y-61749528D01*
X39871115Y-61535536D01*
X39891643Y-61314000D01*
X39871115Y-61092464D01*
X39810229Y-60878472D01*
X39711058Y-60679311D01*
X39576981Y-60501764D01*
X39412562Y-60351876D01*
X39223401Y-60234753D01*
X39015940Y-60154382D01*
X39015939Y-60154381D01*
X39015937Y-60154381D01*
X38797243Y-60113500D01*
X38574757Y-60113500D01*
X38356062Y-60154381D01*
X38301677Y-60175450D01*
X38148599Y-60234753D01*
X38011222Y-60319813D01*
X37959438Y-60351876D01*
X37795020Y-60501763D01*
X37660943Y-60679309D01*
X37660938Y-60679318D01*
X37568010Y-60865942D01*
X37561771Y-60878472D01*
X37536551Y-60967110D01*
X37500885Y-61092464D01*
X37484053Y-61274118D01*
X37480357Y-61314000D01*
X36700553Y-61314000D01*
X36700500Y-61312379D01*
X36700500Y-59350002D01*
X40060022Y-59350002D01*
X40077842Y-59473951D01*
X40077843Y-59473953D01*
X40077843Y-59473954D01*
X40077844Y-59473956D01*
X40129867Y-59587870D01*
X40140667Y-59600334D01*
X40211875Y-59682512D01*
X40211875Y-59682513D01*
X40317225Y-59750217D01*
X40317227Y-59750218D01*
X40437385Y-59785500D01*
X40437386Y-59785500D01*
X40562614Y-59785500D01*
X40562615Y-59785500D01*
X40682773Y-59750218D01*
X40788124Y-59682513D01*
X40870133Y-59587870D01*
X40922156Y-59473956D01*
X40922157Y-59473951D01*
X40939978Y-59350002D01*
X40939978Y-59349997D01*
X40922157Y-59226048D01*
X40922156Y-59226046D01*
X40922156Y-59226044D01*
X40870133Y-59112130D01*
X40788124Y-59017487D01*
X40788124Y-59017486D01*
X40682774Y-58949782D01*
X40562616Y-58914500D01*
X40562615Y-58914500D01*
X40437385Y-58914500D01*
X40437383Y-58914500D01*
X40317225Y-58949782D01*
X40211875Y-59017486D01*
X40211875Y-59017487D01*
X40129868Y-59112128D01*
X40077843Y-59226046D01*
X40077842Y-59226048D01*
X40060022Y-59349997D01*
X40060022Y-59350002D01*
X36700500Y-59350002D01*
X36700500Y-57645587D01*
X39323637Y-57645587D01*
X39341457Y-57769536D01*
X39341458Y-57769538D01*
X39341458Y-57769539D01*
X39341459Y-57769541D01*
X39393482Y-57883455D01*
X39393483Y-57883456D01*
X39475490Y-57978097D01*
X39475490Y-57978098D01*
X39544384Y-58022373D01*
X39580842Y-58045803D01*
X39701000Y-58081085D01*
X39701001Y-58081085D01*
X39826229Y-58081085D01*
X39826230Y-58081085D01*
X39946388Y-58045803D01*
X40051739Y-57978098D01*
X40133748Y-57883455D01*
X40185771Y-57769541D01*
X40190072Y-57739627D01*
X40203593Y-57645587D01*
X40203593Y-57645582D01*
X40185772Y-57521633D01*
X40185771Y-57521631D01*
X40185771Y-57521629D01*
X40133748Y-57407715D01*
X40051739Y-57313072D01*
X40051739Y-57313071D01*
X39946389Y-57245367D01*
X39826231Y-57210085D01*
X39826230Y-57210085D01*
X39701000Y-57210085D01*
X39700998Y-57210085D01*
X39580840Y-57245367D01*
X39475490Y-57313071D01*
X39475490Y-57313072D01*
X39393483Y-57407713D01*
X39341458Y-57521631D01*
X39341457Y-57521633D01*
X39323637Y-57645582D01*
X39323637Y-57645587D01*
X36700500Y-57645587D01*
X36700500Y-54508402D01*
X37100522Y-54508402D01*
X37118342Y-54632351D01*
X37118343Y-54632353D01*
X37118343Y-54632354D01*
X37118344Y-54632356D01*
X37170367Y-54746270D01*
X37196660Y-54776614D01*
X37252375Y-54840912D01*
X37252375Y-54840913D01*
X37357725Y-54908617D01*
X37357727Y-54908618D01*
X37477885Y-54943900D01*
X37477886Y-54943900D01*
X37603114Y-54943900D01*
X37603115Y-54943900D01*
X37723273Y-54908618D01*
X37828624Y-54840913D01*
X37910633Y-54746270D01*
X37962656Y-54632356D01*
X37962657Y-54632351D01*
X37980478Y-54508402D01*
X37980478Y-54508397D01*
X37962657Y-54384448D01*
X37962656Y-54384446D01*
X37962656Y-54384444D01*
X37910633Y-54270530D01*
X37828624Y-54175887D01*
X37828624Y-54175886D01*
X37723274Y-54108182D01*
X37603116Y-54072900D01*
X37603115Y-54072900D01*
X37477885Y-54072900D01*
X37477883Y-54072900D01*
X37357725Y-54108182D01*
X37252375Y-54175886D01*
X37252375Y-54175887D01*
X37170368Y-54270528D01*
X37118343Y-54384446D01*
X37118342Y-54384448D01*
X37100522Y-54508397D01*
X37100522Y-54508402D01*
X36700500Y-54508402D01*
X36700500Y-51923930D01*
X36719407Y-51865739D01*
X36768907Y-51829775D01*
X36830093Y-51829775D01*
X36879593Y-51865739D01*
X36889551Y-51882799D01*
X36889825Y-51883398D01*
X36891868Y-51887872D01*
X36973875Y-51982512D01*
X36973875Y-51982513D01*
X37079225Y-52050217D01*
X37079227Y-52050218D01*
X37199385Y-52085500D01*
X37199386Y-52085500D01*
X37324614Y-52085500D01*
X37324615Y-52085500D01*
X37396099Y-52064509D01*
X37423991Y-52060500D01*
X38841961Y-52060500D01*
X38900152Y-52079407D01*
X38911965Y-52089496D01*
X39289740Y-52467271D01*
X39309789Y-52496148D01*
X39325458Y-52530457D01*
X39325457Y-52530457D01*
X39407466Y-52625099D01*
X39407466Y-52625100D01*
X39501451Y-52685500D01*
X39512818Y-52692805D01*
X39632976Y-52728087D01*
X39632977Y-52728087D01*
X39758205Y-52728087D01*
X39758206Y-52728087D01*
X39878364Y-52692805D01*
X39983715Y-52625100D01*
X40065724Y-52530457D01*
X40117747Y-52416543D01*
X40120151Y-52399825D01*
X40135569Y-52292589D01*
X40135569Y-52292584D01*
X40117748Y-52168635D01*
X40117747Y-52168633D01*
X40117747Y-52168631D01*
X40065724Y-52054717D01*
X39990813Y-51968265D01*
X39983716Y-51960075D01*
X39983715Y-51960074D01*
X39880446Y-51893707D01*
X39863966Y-51880427D01*
X39320428Y-51336888D01*
X39297298Y-51313759D01*
X39275093Y-51302445D01*
X39261848Y-51294328D01*
X39241691Y-51279683D01*
X39241689Y-51279682D01*
X39217987Y-51271980D01*
X39203642Y-51266038D01*
X39181438Y-51254725D01*
X39156818Y-51250825D01*
X39141718Y-51247199D01*
X39118024Y-51239500D01*
X39118020Y-51239500D01*
X39085311Y-51239500D01*
X37423991Y-51239500D01*
X37396099Y-51235490D01*
X37324616Y-51214500D01*
X37324615Y-51214500D01*
X37199385Y-51214500D01*
X37199383Y-51214500D01*
X37079225Y-51249782D01*
X36973875Y-51317486D01*
X36973875Y-51317487D01*
X36891866Y-51412129D01*
X36891866Y-51412130D01*
X36889552Y-51417198D01*
X36848179Y-51462274D01*
X36788212Y-51474423D01*
X36732557Y-51449005D01*
X36702471Y-51395727D01*
X36700500Y-51376069D01*
X36700500Y-38687620D01*
X36700553Y-38686000D01*
X37480357Y-38686000D01*
X37500885Y-38907536D01*
X37561771Y-39121528D01*
X37660942Y-39320689D01*
X37795019Y-39498236D01*
X37959438Y-39648124D01*
X38148599Y-39765247D01*
X38356060Y-39845618D01*
X38574757Y-39886500D01*
X38797243Y-39886500D01*
X39015940Y-39845618D01*
X39223401Y-39765247D01*
X39412562Y-39648124D01*
X39576981Y-39498236D01*
X39711058Y-39320689D01*
X39810229Y-39121528D01*
X39871115Y-38907536D01*
X39891643Y-38686000D01*
X39871115Y-38464464D01*
X39810229Y-38250472D01*
X39711058Y-38051311D01*
X39576981Y-37873764D01*
X39412562Y-37723876D01*
X39223401Y-37606753D01*
X39015940Y-37526382D01*
X39015939Y-37526381D01*
X39015937Y-37526381D01*
X38797243Y-37485500D01*
X38574757Y-37485500D01*
X38356062Y-37526381D01*
X38279797Y-37555926D01*
X38148599Y-37606753D01*
X38013260Y-37690551D01*
X37959438Y-37723876D01*
X37795020Y-37873763D01*
X37660943Y-38051309D01*
X37660938Y-38051318D01*
X37561772Y-38250469D01*
X37561771Y-38250472D01*
X37500885Y-38464464D01*
X37480357Y-38686000D01*
X36700553Y-38686000D01*
X36700606Y-38684382D01*
X36701981Y-38663410D01*
X36717273Y-38430076D01*
X36718119Y-38423657D01*
X36767521Y-38175298D01*
X36769196Y-38169044D01*
X36850595Y-37929249D01*
X36853065Y-37923286D01*
X36965075Y-37696152D01*
X36968310Y-37690551D01*
X37109001Y-37479991D01*
X37112931Y-37474869D01*
X37279907Y-37284469D01*
X37284469Y-37279907D01*
X37474869Y-37112931D01*
X37479991Y-37109001D01*
X37690555Y-36968307D01*
X37696152Y-36965075D01*
X37923286Y-36853065D01*
X37929249Y-36850595D01*
X38169044Y-36769196D01*
X38175298Y-36767521D01*
X38417182Y-36719407D01*
X38423659Y-36718118D01*
X38430076Y-36717273D01*
X38684383Y-36700605D01*
X38687620Y-36700500D01*
X38725882Y-36700500D01*
X54535500Y-36700500D01*
X54593691Y-36719407D01*
G37*
G04 #@! TD.AperFunction*
G04 #@! TA.AperFunction,Conductor*
G36*
X42760445Y-52407055D02*
G01*
X42803710Y-52450320D01*
X42814500Y-52495265D01*
X42814500Y-54665500D01*
X42795593Y-54723691D01*
X42746093Y-54759655D01*
X42715500Y-54764500D01*
X42522775Y-54764500D01*
X42464584Y-54745593D01*
X42428620Y-54696093D01*
X42426616Y-54688412D01*
X42426186Y-54687374D01*
X42390715Y-54634287D01*
X42390712Y-54634284D01*
X42337625Y-54598813D01*
X42337622Y-54598812D01*
X42290814Y-54589500D01*
X42290806Y-54589500D01*
X40784500Y-54589500D01*
X40726309Y-54570593D01*
X40690345Y-54521093D01*
X40685500Y-54490500D01*
X40685500Y-53146091D01*
X40704407Y-53087900D01*
X40714489Y-53076094D01*
X41049811Y-52740773D01*
X41104325Y-52712998D01*
X41115235Y-52711885D01*
X41139753Y-52710751D01*
X41198755Y-52726949D01*
X41236967Y-52774734D01*
X41239795Y-52835854D01*
X41234381Y-52850770D01*
X41204344Y-52916543D01*
X41204342Y-52916548D01*
X41186522Y-53040497D01*
X41186522Y-53040502D01*
X41204342Y-53164451D01*
X41204343Y-53164453D01*
X41204343Y-53164454D01*
X41204344Y-53164456D01*
X41256367Y-53278370D01*
X41256368Y-53278371D01*
X41338375Y-53373012D01*
X41338375Y-53373013D01*
X41443725Y-53440717D01*
X41443727Y-53440718D01*
X41563885Y-53476000D01*
X41563886Y-53476000D01*
X41689114Y-53476000D01*
X41689115Y-53476000D01*
X41809273Y-53440718D01*
X41914624Y-53373013D01*
X41996633Y-53278370D01*
X42048656Y-53164456D01*
X42048657Y-53164451D01*
X42067486Y-53033492D01*
X42070184Y-53033879D01*
X42085385Y-52987096D01*
X42095474Y-52975283D01*
X42645496Y-52425261D01*
X42700013Y-52397484D01*
X42760445Y-52407055D01*
G37*
G04 #@! TD.AperFunction*
G04 #@! TA.AperFunction,Conductor*
G36*
X50691015Y-44588606D02*
G01*
X50715563Y-44622393D01*
X50751989Y-44704889D01*
X50751990Y-44704891D01*
X50830109Y-44783010D01*
X50931173Y-44827634D01*
X50955877Y-44830500D01*
X51145732Y-44830499D01*
X51203923Y-44849406D01*
X51215737Y-44859495D01*
X51271004Y-44914762D01*
X51298781Y-44969279D01*
X51300000Y-44984766D01*
X51300000Y-48850699D01*
X51281093Y-48908890D01*
X51231593Y-48944854D01*
X51201000Y-48949699D01*
X51073101Y-48949699D01*
X51014910Y-48930792D01*
X50978946Y-48881292D01*
X50974101Y-48850699D01*
X50974101Y-48117195D01*
X50974100Y-48117185D01*
X50964788Y-48070377D01*
X50964787Y-48070374D01*
X50929316Y-48017287D01*
X50929313Y-48017284D01*
X50876226Y-47981813D01*
X50876223Y-47981812D01*
X50829415Y-47972500D01*
X50829407Y-47972500D01*
X50543795Y-47972500D01*
X50543786Y-47972500D01*
X50496978Y-47981812D01*
X50496975Y-47981813D01*
X50443888Y-48017284D01*
X50443885Y-48017287D01*
X50408414Y-48070374D01*
X50408413Y-48070377D01*
X50399101Y-48117185D01*
X50399101Y-48961614D01*
X50408413Y-49008422D01*
X50408414Y-49008425D01*
X50443885Y-49061512D01*
X50443888Y-49061515D01*
X50496975Y-49096986D01*
X50496976Y-49096986D01*
X50496977Y-49096987D01*
X50506390Y-49098859D01*
X50543786Y-49106299D01*
X50543793Y-49106299D01*
X50543795Y-49106300D01*
X50718500Y-49106300D01*
X50776691Y-49125207D01*
X50812655Y-49174707D01*
X50817500Y-49205300D01*
X50817500Y-49380013D01*
X50826812Y-49426821D01*
X50826813Y-49426823D01*
X50830405Y-49432199D01*
X50847012Y-49491088D01*
X50830406Y-49542196D01*
X50826815Y-49547569D01*
X50826812Y-49547577D01*
X50817500Y-49594385D01*
X50817500Y-49880014D01*
X50826812Y-49926822D01*
X50826813Y-49926824D01*
X50830405Y-49932200D01*
X50847012Y-49991089D01*
X50830405Y-50042200D01*
X50826813Y-50047575D01*
X50826812Y-50047577D01*
X50817500Y-50094385D01*
X50817500Y-50380014D01*
X50826812Y-50426822D01*
X50826813Y-50426824D01*
X50830405Y-50432200D01*
X50847012Y-50491089D01*
X50830406Y-50542197D01*
X50826815Y-50547570D01*
X50826812Y-50547578D01*
X50817500Y-50594386D01*
X50817500Y-50769100D01*
X50798593Y-50827291D01*
X50749093Y-50863255D01*
X50718500Y-50868100D01*
X50543786Y-50868100D01*
X50496978Y-50877412D01*
X50496970Y-50877415D01*
X50491597Y-50881006D01*
X50432708Y-50897611D01*
X50381600Y-50881005D01*
X50376224Y-50877413D01*
X50376222Y-50877412D01*
X50329414Y-50868100D01*
X50329406Y-50868100D01*
X50043794Y-50868100D01*
X50043785Y-50868100D01*
X49996977Y-50877412D01*
X49996975Y-50877413D01*
X49991600Y-50881005D01*
X49932711Y-50897612D01*
X49881600Y-50881005D01*
X49876224Y-50877413D01*
X49876222Y-50877412D01*
X49829414Y-50868100D01*
X49829406Y-50868100D01*
X49543794Y-50868100D01*
X49543785Y-50868100D01*
X49496977Y-50877412D01*
X49496974Y-50877413D01*
X49443887Y-50912884D01*
X49443884Y-50912887D01*
X49408413Y-50965974D01*
X49408412Y-50965977D01*
X49399100Y-51012785D01*
X49399100Y-51857214D01*
X49408412Y-51904022D01*
X49408415Y-51904029D01*
X49409901Y-51906253D01*
X49411104Y-51910522D01*
X49412145Y-51913034D01*
X49411847Y-51913157D01*
X49426505Y-51965142D01*
X49405324Y-52022544D01*
X49397586Y-52031253D01*
X49388335Y-52040504D01*
X49333818Y-52068281D01*
X49318331Y-52069500D01*
X48980881Y-52069500D01*
X48980878Y-52069501D01*
X48956173Y-52072366D01*
X48855109Y-52116990D01*
X48776990Y-52195109D01*
X48732365Y-52296175D01*
X48729500Y-52320872D01*
X48729500Y-52658333D01*
X48710593Y-52716524D01*
X48700504Y-52728336D01*
X48543338Y-52885503D01*
X48488821Y-52913281D01*
X48473334Y-52914500D01*
X47326571Y-52914500D01*
X47268380Y-52895593D01*
X47232416Y-52846093D01*
X47232416Y-52784907D01*
X47268380Y-52735407D01*
X47286578Y-52724937D01*
X47292765Y-52722206D01*
X47300471Y-52714499D01*
X47354988Y-52686719D01*
X47370478Y-52685500D01*
X47462614Y-52685500D01*
X47462615Y-52685500D01*
X47582773Y-52650218D01*
X47688124Y-52582513D01*
X47770133Y-52487870D01*
X47822156Y-52373956D01*
X47822462Y-52371830D01*
X47839978Y-52250002D01*
X47839978Y-52249997D01*
X47822157Y-52126048D01*
X47822156Y-52126046D01*
X47822156Y-52126044D01*
X47770133Y-52012130D01*
X47705720Y-51937794D01*
X47688125Y-51917488D01*
X47688124Y-51917487D01*
X47659901Y-51899349D01*
X47621171Y-51851984D01*
X47617679Y-51790898D01*
X47650758Y-51739426D01*
X47659883Y-51732794D01*
X47738124Y-51682513D01*
X47820133Y-51587870D01*
X47872156Y-51473956D01*
X47873836Y-51462274D01*
X47889978Y-51350002D01*
X47889978Y-51349997D01*
X47872157Y-51226048D01*
X47872156Y-51226046D01*
X47872156Y-51226044D01*
X47820133Y-51112130D01*
X47820131Y-51112128D01*
X47816621Y-51106666D01*
X47816097Y-51104674D01*
X47810046Y-51100489D01*
X47807817Y-51097917D01*
X47738124Y-51017487D01*
X47722712Y-51007582D01*
X47683982Y-50960216D01*
X47680490Y-50899131D01*
X47701419Y-50859467D01*
X47709453Y-50850195D01*
X47720133Y-50837870D01*
X47732847Y-50810029D01*
X47774218Y-50764953D01*
X47834185Y-50752802D01*
X47889841Y-50778219D01*
X47919928Y-50831496D01*
X47921900Y-50851157D01*
X47921900Y-50880015D01*
X47931212Y-50926823D01*
X47931213Y-50926826D01*
X47966686Y-50979915D01*
X48019774Y-51015387D01*
X48019775Y-51015387D01*
X48019776Y-51015388D01*
X48029189Y-51017260D01*
X48066585Y-51024700D01*
X48066592Y-51024700D01*
X48066594Y-51024701D01*
X48066595Y-51024701D01*
X48911005Y-51024701D01*
X48911006Y-51024701D01*
X48911007Y-51024700D01*
X48911014Y-51024700D01*
X48938996Y-51019133D01*
X48957824Y-51015388D01*
X49010914Y-50979915D01*
X49046387Y-50926825D01*
X49052887Y-50894150D01*
X49055699Y-50880015D01*
X49055700Y-50880005D01*
X49055700Y-50594396D01*
X49055699Y-50594386D01*
X49046387Y-50547578D01*
X49046386Y-50547575D01*
X49010915Y-50494488D01*
X49010912Y-50494485D01*
X48957825Y-50459014D01*
X48957822Y-50459013D01*
X48911014Y-50449701D01*
X48911006Y-50449701D01*
X48066594Y-50449701D01*
X48066585Y-50449701D01*
X48019777Y-50459013D01*
X48019774Y-50459014D01*
X47966687Y-50494485D01*
X47966683Y-50494489D01*
X47952323Y-50515981D01*
X47904273Y-50553860D01*
X47843135Y-50556262D01*
X47792261Y-50522269D01*
X47775217Y-50482528D01*
X47774152Y-50482841D01*
X47772156Y-50476046D01*
X47772156Y-50476044D01*
X47720133Y-50362130D01*
X47720131Y-50362128D01*
X47720131Y-50362127D01*
X47659681Y-50292364D01*
X47635863Y-50236005D01*
X47635500Y-50227533D01*
X47635500Y-49976666D01*
X47654407Y-49918475D01*
X47664496Y-49906663D01*
X47753200Y-49817958D01*
X47807716Y-49790180D01*
X47868149Y-49799751D01*
X47911413Y-49843015D01*
X47920848Y-49875254D01*
X47920950Y-49875234D01*
X47921178Y-49876383D01*
X47921727Y-49878257D01*
X47921899Y-49880005D01*
X47931212Y-49926822D01*
X47931213Y-49926825D01*
X47966684Y-49979912D01*
X47966687Y-49979915D01*
X48019774Y-50015386D01*
X48019775Y-50015386D01*
X48019776Y-50015387D01*
X48029189Y-50017259D01*
X48066585Y-50024699D01*
X48066592Y-50024699D01*
X48066594Y-50024700D01*
X48066595Y-50024700D01*
X48911005Y-50024700D01*
X48911006Y-50024700D01*
X48911007Y-50024699D01*
X48911014Y-50024699D01*
X48938996Y-50019132D01*
X48957824Y-50015387D01*
X49010914Y-49979914D01*
X49046387Y-49926824D01*
X49055543Y-49880797D01*
X49055699Y-49880014D01*
X49055700Y-49880004D01*
X49055700Y-49594395D01*
X49055699Y-49594385D01*
X49048259Y-49556989D01*
X49046387Y-49547576D01*
X49046382Y-49547569D01*
X49042795Y-49542200D01*
X49026187Y-49483312D01*
X49042796Y-49432196D01*
X49046387Y-49426823D01*
X49052120Y-49398003D01*
X49055699Y-49380013D01*
X49055700Y-49380003D01*
X49055700Y-49205300D01*
X49074607Y-49147109D01*
X49124107Y-49111145D01*
X49154700Y-49106300D01*
X49329404Y-49106300D01*
X49329405Y-49106300D01*
X49329406Y-49106299D01*
X49329413Y-49106299D01*
X49357395Y-49100732D01*
X49376223Y-49096987D01*
X49381596Y-49093396D01*
X49440483Y-49076787D01*
X49491600Y-49093395D01*
X49496974Y-49096986D01*
X49496975Y-49096986D01*
X49496976Y-49096987D01*
X49506389Y-49098859D01*
X49543785Y-49106299D01*
X49543792Y-49106299D01*
X49543794Y-49106300D01*
X49543795Y-49106300D01*
X49829405Y-49106300D01*
X49829406Y-49106300D01*
X49829407Y-49106299D01*
X49829414Y-49106299D01*
X49857396Y-49100732D01*
X49876224Y-49096987D01*
X49929314Y-49061514D01*
X49964787Y-49008424D01*
X49970607Y-48979166D01*
X49974099Y-48961614D01*
X49974100Y-48961604D01*
X49974100Y-48117195D01*
X49974099Y-48117185D01*
X49964787Y-48070377D01*
X49964786Y-48070374D01*
X49929315Y-48017287D01*
X49929312Y-48017284D01*
X49876225Y-47981813D01*
X49876222Y-47981812D01*
X49829414Y-47972500D01*
X49829406Y-47972500D01*
X49721478Y-47972500D01*
X49663287Y-47953593D01*
X49627323Y-47904093D01*
X49627323Y-47842907D01*
X49651472Y-47803498D01*
X49662206Y-47792765D01*
X49707585Y-47689991D01*
X49710500Y-47664865D01*
X49710499Y-47235136D01*
X49707585Y-47210009D01*
X49662206Y-47107235D01*
X49582765Y-47027794D01*
X49479991Y-46982415D01*
X49479990Y-46982414D01*
X49479988Y-46982414D01*
X49454868Y-46979500D01*
X49085140Y-46979500D01*
X49085135Y-46979501D01*
X49060010Y-46982414D01*
X49060003Y-46982416D01*
X49054709Y-46984754D01*
X48993839Y-46990957D01*
X48944725Y-46964190D01*
X48280038Y-46299503D01*
X48252261Y-46244986D01*
X48261832Y-46184554D01*
X48305097Y-46141289D01*
X48350042Y-46130499D01*
X48419119Y-46130499D01*
X48419122Y-46130499D01*
X48443827Y-46127634D01*
X48544891Y-46083010D01*
X48623010Y-46004891D01*
X48659436Y-45922391D01*
X48700234Y-45876799D01*
X48760043Y-45863893D01*
X48816015Y-45888606D01*
X48840563Y-45922393D01*
X48852753Y-45950000D01*
X48876990Y-46004891D01*
X48955109Y-46083010D01*
X49056173Y-46127634D01*
X49080877Y-46130500D01*
X49439122Y-46130499D01*
X49463827Y-46127634D01*
X49564891Y-46083010D01*
X49643010Y-46004891D01*
X49687634Y-45903827D01*
X49690500Y-45879123D01*
X49690499Y-45617176D01*
X49709406Y-45558987D01*
X49735984Y-45533888D01*
X49736795Y-45533367D01*
X49738124Y-45532513D01*
X49820133Y-45437870D01*
X49872156Y-45323956D01*
X49872157Y-45323951D01*
X49889978Y-45200002D01*
X49889978Y-45199997D01*
X49872157Y-45076048D01*
X49872155Y-45076041D01*
X49823113Y-44968655D01*
X49816138Y-44907869D01*
X49846224Y-44854592D01*
X49901880Y-44829174D01*
X49924576Y-44829189D01*
X49925667Y-44829315D01*
X49935877Y-44830500D01*
X50294122Y-44830499D01*
X50318827Y-44827634D01*
X50419891Y-44783010D01*
X50498010Y-44704891D01*
X50534436Y-44622391D01*
X50575234Y-44576799D01*
X50635043Y-44563893D01*
X50691015Y-44588606D01*
G37*
G04 #@! TD.AperFunction*
G04 #@! TA.AperFunction,Conductor*
G36*
X45043261Y-44899407D02*
G01*
X45079225Y-44948907D01*
X45081440Y-45002169D01*
X45077408Y-45019307D01*
X45075379Y-45025860D01*
X45064500Y-45053945D01*
X45064500Y-45062710D01*
X45061870Y-45085378D01*
X45059865Y-45093901D01*
X45064025Y-45123724D01*
X45064500Y-45130570D01*
X45064500Y-45748507D01*
X45045593Y-45806698D01*
X44996093Y-45842662D01*
X44934907Y-45842662D01*
X44909556Y-45830185D01*
X44904894Y-45826992D01*
X44904892Y-45826991D01*
X44904891Y-45826990D01*
X44803827Y-45782366D01*
X44803826Y-45782365D01*
X44803824Y-45782365D01*
X44779125Y-45779500D01*
X44320881Y-45779500D01*
X44320878Y-45779501D01*
X44296173Y-45782366D01*
X44195109Y-45826990D01*
X44116990Y-45905109D01*
X44072365Y-46006175D01*
X44069500Y-46030872D01*
X44069500Y-46389118D01*
X44069500Y-46389120D01*
X44069501Y-46389122D01*
X44072366Y-46413827D01*
X44116990Y-46514891D01*
X44182097Y-46579998D01*
X44209873Y-46634513D01*
X44200302Y-46694945D01*
X44182098Y-46720000D01*
X44116989Y-46785109D01*
X44116990Y-46785109D01*
X44072365Y-46886175D01*
X44069500Y-46910872D01*
X44069499Y-46910875D01*
X44069499Y-47073219D01*
X44050591Y-47131409D01*
X44001091Y-47167373D01*
X43942610Y-47168209D01*
X43928616Y-47164100D01*
X43928615Y-47164100D01*
X43803385Y-47164100D01*
X43803383Y-47164100D01*
X43683225Y-47199382D01*
X43577875Y-47267086D01*
X43577874Y-47267088D01*
X43547304Y-47302367D01*
X43494908Y-47333963D01*
X43433947Y-47328726D01*
X43397667Y-47302366D01*
X43323685Y-47216987D01*
X43323685Y-47216986D01*
X43218335Y-47149282D01*
X43091382Y-47112005D01*
X43092307Y-47108851D01*
X43049643Y-47087472D01*
X43021500Y-47033143D01*
X43030666Y-46972648D01*
X43073639Y-46929094D01*
X43079160Y-46926448D01*
X43154891Y-46893010D01*
X43233010Y-46814891D01*
X43277634Y-46713827D01*
X43280500Y-46689123D01*
X43280499Y-46330878D01*
X43277634Y-46306173D01*
X43233010Y-46205109D01*
X43154891Y-46126990D01*
X43053827Y-46082366D01*
X43053826Y-46082365D01*
X43053824Y-46082365D01*
X43029125Y-46079500D01*
X42570881Y-46079500D01*
X42570878Y-46079501D01*
X42546173Y-46082366D01*
X42538770Y-46085635D01*
X42526472Y-46091065D01*
X42486484Y-46099500D01*
X42113516Y-46099500D01*
X42073547Y-46091073D01*
X42072411Y-46090571D01*
X42026809Y-46049781D01*
X42013892Y-45989975D01*
X42038595Y-45933998D01*
X42072393Y-45909436D01*
X42154891Y-45873010D01*
X42233010Y-45794891D01*
X42277634Y-45693827D01*
X42280500Y-45669123D01*
X42280499Y-45341040D01*
X42299406Y-45282851D01*
X42309489Y-45271044D01*
X42671038Y-44909496D01*
X42725555Y-44881719D01*
X42741042Y-44880500D01*
X44985070Y-44880500D01*
X45043261Y-44899407D01*
G37*
G04 #@! TD.AperFunction*
G04 #@! TA.AperFunction,Conductor*
G36*
X41709375Y-39229406D02*
G01*
X41745339Y-39278906D01*
X41750133Y-39312691D01*
X41737882Y-39692467D01*
X41739438Y-39721062D01*
X41739438Y-39721063D01*
X41744231Y-39754842D01*
X41744325Y-39755501D01*
X41744328Y-39755511D01*
X41774196Y-39828870D01*
X41810162Y-39878373D01*
X41810162Y-39878372D01*
X41825623Y-39896697D01*
X41892913Y-39938493D01*
X41931707Y-39951097D01*
X41951103Y-39957400D01*
X41951101Y-39957400D01*
X42002242Y-39965500D01*
X42002245Y-39965500D01*
X43439958Y-39965500D01*
X43498149Y-39984407D01*
X43534113Y-40033907D01*
X43534113Y-40095093D01*
X43509963Y-40134501D01*
X43472317Y-40172148D01*
X43463757Y-40180708D01*
X43404726Y-40296563D01*
X43404725Y-40296565D01*
X43389500Y-40392691D01*
X43389500Y-41407308D01*
X43404725Y-41503432D01*
X43404727Y-41503439D01*
X43460832Y-41613550D01*
X43463759Y-41619294D01*
X43555706Y-41711241D01*
X43555708Y-41711242D01*
X43605866Y-41736799D01*
X43671567Y-41770275D01*
X43767693Y-41785500D01*
X44332306Y-41785499D01*
X44332308Y-41785499D01*
X44352948Y-41782229D01*
X44428433Y-41770275D01*
X44544294Y-41711241D01*
X44636241Y-41619294D01*
X44695275Y-41503433D01*
X44710500Y-41407307D01*
X44710499Y-40392694D01*
X44704753Y-40356419D01*
X44714325Y-40295987D01*
X44749011Y-40257648D01*
X44788124Y-40232513D01*
X44870133Y-40137870D01*
X44906815Y-40057544D01*
X44926862Y-40028672D01*
X44961041Y-39994493D01*
X45015558Y-39966718D01*
X45031042Y-39965500D01*
X46790500Y-39965500D01*
X46848691Y-39984407D01*
X46884655Y-40033907D01*
X46889500Y-40064500D01*
X46889500Y-40113957D01*
X46870593Y-40172148D01*
X46866464Y-40176982D01*
X46863757Y-40180708D01*
X46804726Y-40296563D01*
X46804725Y-40296565D01*
X46789500Y-40392691D01*
X46789500Y-41407308D01*
X46804725Y-41503432D01*
X46804727Y-41503439D01*
X46860832Y-41613550D01*
X46863759Y-41619294D01*
X46955706Y-41711241D01*
X46955708Y-41711242D01*
X47005866Y-41736799D01*
X47071567Y-41770275D01*
X47167693Y-41785500D01*
X47732306Y-41785499D01*
X47732308Y-41785499D01*
X47752948Y-41782229D01*
X47828433Y-41770275D01*
X47944294Y-41711241D01*
X48036241Y-41619294D01*
X48036246Y-41619283D01*
X48040402Y-41613564D01*
X48089899Y-41577596D01*
X48151085Y-41577591D01*
X48200588Y-41613550D01*
X48217871Y-41666349D01*
X48219336Y-41666265D01*
X48219500Y-41669120D01*
X48219501Y-41669122D01*
X48222366Y-41693827D01*
X48266990Y-41794891D01*
X48345109Y-41873010D01*
X48427606Y-41909435D01*
X48473200Y-41950234D01*
X48486106Y-42010043D01*
X48461393Y-42066015D01*
X48427606Y-42090563D01*
X48345110Y-42126989D01*
X48266990Y-42205109D01*
X48222365Y-42306175D01*
X48219500Y-42330872D01*
X48219500Y-42545733D01*
X48200593Y-42603924D01*
X48190503Y-42615737D01*
X48139866Y-42666373D01*
X48134690Y-42670877D01*
X48124968Y-42678218D01*
X48094230Y-42711935D01*
X48092654Y-42713586D01*
X48079414Y-42726827D01*
X48077601Y-42729473D01*
X48073345Y-42734846D01*
X48053060Y-42757096D01*
X48053057Y-42757101D01*
X48049890Y-42765277D01*
X48039257Y-42785450D01*
X48034303Y-42792682D01*
X48034302Y-42792683D01*
X48027408Y-42821992D01*
X48025379Y-42828545D01*
X48014500Y-42856630D01*
X48014500Y-42865395D01*
X48011870Y-42888063D01*
X48009865Y-42896586D01*
X48014025Y-42926409D01*
X48014500Y-42933255D01*
X48014500Y-43127533D01*
X47995593Y-43185724D01*
X47990318Y-43192365D01*
X47960649Y-43226604D01*
X47908253Y-43258199D01*
X47847292Y-43252963D01*
X47811012Y-43226603D01*
X47738124Y-43142487D01*
X47738124Y-43142486D01*
X47632774Y-43074782D01*
X47512616Y-43039500D01*
X47512615Y-43039500D01*
X47387385Y-43039500D01*
X47387383Y-43039500D01*
X47267225Y-43074782D01*
X47161877Y-43142485D01*
X47119318Y-43191601D01*
X47066921Y-43223196D01*
X47005960Y-43217960D01*
X46959720Y-43177892D01*
X46945499Y-43126769D01*
X46945499Y-42603647D01*
X46945499Y-42603644D01*
X46942488Y-42577680D01*
X46895599Y-42471486D01*
X46813514Y-42389401D01*
X46707320Y-42342512D01*
X46707317Y-42342511D01*
X46707319Y-42342511D01*
X46681359Y-42339500D01*
X46288647Y-42339500D01*
X46288644Y-42339501D01*
X46262680Y-42342512D01*
X46156486Y-42389401D01*
X46074401Y-42471486D01*
X46027511Y-42577682D01*
X46024500Y-42603638D01*
X46024500Y-43896352D01*
X46024500Y-43896354D01*
X46024501Y-43896356D01*
X46027512Y-43922320D01*
X46074401Y-44028514D01*
X46074402Y-44028515D01*
X46162973Y-44117087D01*
X46162118Y-44117941D01*
X46193768Y-44159050D01*
X46199500Y-44192248D01*
X46199500Y-44340500D01*
X46180593Y-44398691D01*
X46131093Y-44434655D01*
X46100500Y-44439500D01*
X45811043Y-44439500D01*
X45752852Y-44420593D01*
X45741039Y-44410504D01*
X45562327Y-44231792D01*
X45534550Y-44177275D01*
X45544121Y-44116843D01*
X45562325Y-44091787D01*
X45625599Y-44028514D01*
X45672488Y-43922320D01*
X45675500Y-43896357D01*
X45675499Y-42603644D01*
X45672488Y-42577680D01*
X45625599Y-42471486D01*
X45543514Y-42389401D01*
X45437320Y-42342512D01*
X45437317Y-42342511D01*
X45437319Y-42342511D01*
X45411359Y-42339500D01*
X45018647Y-42339500D01*
X45018644Y-42339501D01*
X44992680Y-42342512D01*
X44886486Y-42389401D01*
X44804401Y-42471486D01*
X44757511Y-42577682D01*
X44754500Y-42603638D01*
X44754500Y-42990500D01*
X44735593Y-43048691D01*
X44686093Y-43084655D01*
X44655500Y-43089500D01*
X44587383Y-43089500D01*
X44467225Y-43124782D01*
X44361880Y-43192483D01*
X44361875Y-43192488D01*
X44350747Y-43205331D01*
X44298351Y-43236927D01*
X44275928Y-43239500D01*
X44194051Y-43239500D01*
X44187204Y-43239025D01*
X44175124Y-43237339D01*
X44136601Y-43239120D01*
X44129543Y-43239447D01*
X44127267Y-43239500D01*
X44108540Y-43239500D01*
X44105392Y-43240089D01*
X44098583Y-43240878D01*
X44068507Y-43242268D01*
X44068500Y-43242269D01*
X44060476Y-43245812D01*
X44038696Y-43252556D01*
X44030082Y-43254166D01*
X44030076Y-43254169D01*
X44013113Y-43264672D01*
X43960998Y-43279500D01*
X43720882Y-43279500D01*
X43720877Y-43279501D01*
X43696172Y-43282366D01*
X43696173Y-43282366D01*
X43628753Y-43312135D01*
X43595107Y-43326991D01*
X43558536Y-43363561D01*
X43504019Y-43391338D01*
X43443587Y-43381765D01*
X43418533Y-43363562D01*
X43342765Y-43287794D01*
X43239991Y-43242415D01*
X43239990Y-43242414D01*
X43239988Y-43242414D01*
X43214868Y-43239500D01*
X42785139Y-43239500D01*
X42785136Y-43239501D01*
X42760009Y-43242414D01*
X42693392Y-43271829D01*
X42657235Y-43287794D01*
X42584501Y-43360527D01*
X42529987Y-43388303D01*
X42469555Y-43378732D01*
X42426290Y-43335467D01*
X42415500Y-43290522D01*
X42415500Y-43184195D01*
X42415499Y-43184185D01*
X42406187Y-43137377D01*
X42406186Y-43137374D01*
X42370715Y-43084287D01*
X42370712Y-43084284D01*
X42367768Y-43082317D01*
X42364128Y-43077700D01*
X42363819Y-43077391D01*
X42363855Y-43077354D01*
X42329887Y-43034268D01*
X42327483Y-42973130D01*
X42361475Y-42922255D01*
X42367768Y-42917683D01*
X42369630Y-42916437D01*
X42370714Y-42915714D01*
X42406187Y-42862624D01*
X42412966Y-42828545D01*
X42415499Y-42815814D01*
X42415500Y-42815804D01*
X42415500Y-42184195D01*
X42415499Y-42184185D01*
X42407564Y-42144299D01*
X42406187Y-42137376D01*
X42399247Y-42126990D01*
X42370715Y-42084287D01*
X42370712Y-42084284D01*
X42317625Y-42048813D01*
X42317622Y-42048812D01*
X42270814Y-42039500D01*
X42270806Y-42039500D01*
X40689194Y-42039500D01*
X40689185Y-42039500D01*
X40642377Y-42048812D01*
X40642374Y-42048813D01*
X40589284Y-42084287D01*
X40589283Y-42084288D01*
X40566545Y-42118317D01*
X40542464Y-42143376D01*
X40541195Y-42144299D01*
X40527908Y-42152446D01*
X40505708Y-42163757D01*
X40482577Y-42186888D01*
X40281623Y-42387840D01*
X40265159Y-42401110D01*
X40263039Y-42402473D01*
X40203867Y-42418039D01*
X40146846Y-42395851D01*
X40113757Y-42344384D01*
X40110500Y-42319199D01*
X40110500Y-40734265D01*
X40129407Y-40676074D01*
X40139490Y-40664267D01*
X41564262Y-39239494D01*
X41618779Y-39211718D01*
X41634266Y-39210499D01*
X41651184Y-39210499D01*
X41709375Y-39229406D01*
G37*
G04 #@! TD.AperFunction*
G04 #@! TA.AperFunction,Conductor*
G36*
X61315616Y-36700605D02*
G01*
X61569921Y-36717273D01*
X61576342Y-36718119D01*
X61824701Y-36767521D01*
X61830958Y-36769197D01*
X62070745Y-36850593D01*
X62076718Y-36853067D01*
X62303840Y-36965072D01*
X62309448Y-36968310D01*
X62519998Y-37108994D01*
X62525140Y-37112940D01*
X62715519Y-37279897D01*
X62720102Y-37284480D01*
X62887059Y-37474859D01*
X62891005Y-37480001D01*
X63031689Y-37690551D01*
X63034930Y-37696164D01*
X63146928Y-37923273D01*
X63149406Y-37929256D01*
X63230801Y-38169038D01*
X63232478Y-38175298D01*
X63281880Y-38423657D01*
X63282726Y-38430083D01*
X63299393Y-38684381D01*
X63299499Y-38687619D01*
X63299499Y-40970196D01*
X63280592Y-41028387D01*
X63231092Y-41064351D01*
X63169906Y-41064351D01*
X63164978Y-41062266D01*
X63036262Y-41017226D01*
X63036253Y-41017224D01*
X63007207Y-41014500D01*
X60692800Y-41014500D01*
X60663745Y-41017224D01*
X60663740Y-41017225D01*
X60541365Y-41060046D01*
X60541364Y-41060047D01*
X60541363Y-41060047D01*
X60541362Y-41060048D01*
X60437040Y-41137040D01*
X60400501Y-41186550D01*
X60360047Y-41241364D01*
X60360046Y-41241365D01*
X60317226Y-41363737D01*
X60317224Y-41363746D01*
X60314500Y-41392790D01*
X60314500Y-43707199D01*
X60317224Y-43736254D01*
X60317225Y-43736259D01*
X60360046Y-43858634D01*
X60360048Y-43858638D01*
X60437040Y-43962960D01*
X60541362Y-44039952D01*
X60541365Y-44039953D01*
X60669428Y-44084765D01*
X60668730Y-44086756D01*
X60713654Y-44113032D01*
X60738224Y-44169067D01*
X60738051Y-44190267D01*
X60734500Y-44220879D01*
X60734500Y-44679118D01*
X60734500Y-44679120D01*
X60734501Y-44679122D01*
X60737366Y-44703827D01*
X60781990Y-44804891D01*
X60860109Y-44883010D01*
X60961173Y-44927634D01*
X60985877Y-44930500D01*
X61344122Y-44930499D01*
X61368827Y-44927634D01*
X61469891Y-44883010D01*
X61469895Y-44883005D01*
X61477460Y-44877825D01*
X61533408Y-44860500D01*
X61664840Y-44860500D01*
X61704828Y-44868935D01*
X61712234Y-44872205D01*
X61712235Y-44872206D01*
X61815009Y-44917585D01*
X61840135Y-44920500D01*
X62209864Y-44920499D01*
X62234991Y-44917585D01*
X62337765Y-44872206D01*
X62417206Y-44792765D01*
X62417207Y-44792760D01*
X62422390Y-44785197D01*
X62425142Y-44787082D01*
X62455195Y-44753467D01*
X62514998Y-44740533D01*
X62570981Y-44765221D01*
X62586206Y-44786158D01*
X62587610Y-44785197D01*
X62592792Y-44792762D01*
X62592793Y-44792763D01*
X62592794Y-44792765D01*
X62672235Y-44872206D01*
X62775009Y-44917585D01*
X62800135Y-44920500D01*
X63169864Y-44920499D01*
X63189095Y-44918268D01*
X63249074Y-44930345D01*
X63290502Y-44975371D01*
X63299499Y-45016609D01*
X63299499Y-48170196D01*
X63280592Y-48228387D01*
X63231092Y-48264351D01*
X63169906Y-48264351D01*
X63164978Y-48262266D01*
X63036262Y-48217226D01*
X63036253Y-48217224D01*
X63007207Y-48214500D01*
X60692800Y-48214500D01*
X60663745Y-48217224D01*
X60663740Y-48217225D01*
X60541365Y-48260046D01*
X60541364Y-48260047D01*
X60541363Y-48260047D01*
X60541362Y-48260048D01*
X60437040Y-48337040D01*
X60400501Y-48386550D01*
X60360047Y-48441364D01*
X60360046Y-48441365D01*
X60317226Y-48563737D01*
X60317224Y-48563746D01*
X60314500Y-48592790D01*
X60314500Y-50907199D01*
X60317224Y-50936254D01*
X60317225Y-50936259D01*
X60360046Y-51058634D01*
X60360048Y-51058638D01*
X60437040Y-51162960D01*
X60541362Y-51239952D01*
X60541365Y-51239953D01*
X60667560Y-51284111D01*
X60716240Y-51321176D01*
X60733837Y-51379777D01*
X60733202Y-51388964D01*
X60729500Y-51420870D01*
X60729500Y-51879118D01*
X60729500Y-51879120D01*
X60729501Y-51879122D01*
X60732366Y-51903827D01*
X60776990Y-52004891D01*
X60855109Y-52083010D01*
X60956173Y-52127634D01*
X60980877Y-52130500D01*
X61339122Y-52130499D01*
X61363827Y-52127634D01*
X61464891Y-52083010D01*
X61464895Y-52083005D01*
X61472460Y-52077825D01*
X61528408Y-52060500D01*
X61679840Y-52060500D01*
X61719828Y-52068935D01*
X61727234Y-52072205D01*
X61727235Y-52072206D01*
X61830009Y-52117585D01*
X61855135Y-52120500D01*
X62224864Y-52120499D01*
X62249991Y-52117585D01*
X62352765Y-52072206D01*
X62432206Y-51992765D01*
X62432207Y-51992760D01*
X62437390Y-51985197D01*
X62440142Y-51987082D01*
X62470195Y-51953467D01*
X62529998Y-51940533D01*
X62585981Y-51965221D01*
X62601206Y-51986158D01*
X62602610Y-51985197D01*
X62607792Y-51992762D01*
X62607793Y-51992763D01*
X62607794Y-51992765D01*
X62687235Y-52072206D01*
X62790009Y-52117585D01*
X62815135Y-52120500D01*
X63184864Y-52120499D01*
X63189094Y-52120008D01*
X63249075Y-52132085D01*
X63290502Y-52177112D01*
X63299499Y-52218349D01*
X63299499Y-55370196D01*
X63280592Y-55428387D01*
X63231092Y-55464351D01*
X63169906Y-55464351D01*
X63164978Y-55462266D01*
X63036262Y-55417226D01*
X63036253Y-55417224D01*
X63007207Y-55414500D01*
X60692800Y-55414500D01*
X60663745Y-55417224D01*
X60663740Y-55417225D01*
X60541365Y-55460046D01*
X60541364Y-55460047D01*
X60541363Y-55460047D01*
X60541362Y-55460048D01*
X60437040Y-55537040D01*
X60400501Y-55586550D01*
X60360047Y-55641364D01*
X60360046Y-55641365D01*
X60317226Y-55763737D01*
X60317224Y-55763746D01*
X60314500Y-55792790D01*
X60314500Y-58107199D01*
X60317224Y-58136254D01*
X60317225Y-58136259D01*
X60360046Y-58258634D01*
X60360048Y-58258638D01*
X60437040Y-58362960D01*
X60541362Y-58439952D01*
X60541365Y-58439953D01*
X60667560Y-58484111D01*
X60716240Y-58521176D01*
X60733837Y-58579777D01*
X60733202Y-58588964D01*
X60729500Y-58620870D01*
X60729500Y-59079118D01*
X60729500Y-59079120D01*
X60729501Y-59079122D01*
X60732366Y-59103827D01*
X60776990Y-59204891D01*
X60855109Y-59283010D01*
X60956173Y-59327634D01*
X60980877Y-59330500D01*
X61339122Y-59330499D01*
X61363827Y-59327634D01*
X61464891Y-59283010D01*
X61464895Y-59283005D01*
X61472460Y-59277825D01*
X61528408Y-59260500D01*
X61659840Y-59260500D01*
X61699828Y-59268935D01*
X61707234Y-59272205D01*
X61707235Y-59272206D01*
X61810009Y-59317585D01*
X61835135Y-59320500D01*
X62204864Y-59320499D01*
X62229991Y-59317585D01*
X62332765Y-59272206D01*
X62412206Y-59192765D01*
X62412207Y-59192760D01*
X62417390Y-59185197D01*
X62420142Y-59187082D01*
X62450195Y-59153467D01*
X62509998Y-59140533D01*
X62565981Y-59165221D01*
X62581206Y-59186158D01*
X62582610Y-59185197D01*
X62587792Y-59192762D01*
X62587793Y-59192763D01*
X62587794Y-59192765D01*
X62667235Y-59272206D01*
X62770009Y-59317585D01*
X62795135Y-59320500D01*
X63164864Y-59320499D01*
X63189096Y-59317688D01*
X63249075Y-59329765D01*
X63290503Y-59374792D01*
X63299500Y-59416029D01*
X63299500Y-61312379D01*
X63299394Y-61315617D01*
X63282726Y-61569916D01*
X63281880Y-61576342D01*
X63232478Y-61824701D01*
X63230801Y-61830961D01*
X63149406Y-62070743D01*
X63146926Y-62076732D01*
X63034930Y-62303835D01*
X63031689Y-62309448D01*
X62891005Y-62519998D01*
X62887059Y-62525140D01*
X62720102Y-62715519D01*
X62715519Y-62720102D01*
X62525140Y-62887059D01*
X62519998Y-62891005D01*
X62309448Y-63031689D01*
X62303835Y-63034930D01*
X62076732Y-63146926D01*
X62070743Y-63149406D01*
X61830961Y-63230801D01*
X61824701Y-63232478D01*
X61576342Y-63281880D01*
X61569916Y-63282726D01*
X61333822Y-63298200D01*
X61315616Y-63299394D01*
X61312380Y-63299500D01*
X58047685Y-63299500D01*
X57989494Y-63280593D01*
X57953530Y-63231093D01*
X57953530Y-63169907D01*
X57954241Y-63167802D01*
X57982774Y-63086261D01*
X57982774Y-63086260D01*
X57982775Y-63086258D01*
X57985500Y-63057199D01*
X57985499Y-61314000D01*
X60108357Y-61314000D01*
X60128885Y-61535536D01*
X60189771Y-61749528D01*
X60288942Y-61948689D01*
X60423019Y-62126236D01*
X60587438Y-62276124D01*
X60776599Y-62393247D01*
X60984060Y-62473618D01*
X61202757Y-62514500D01*
X61425243Y-62514500D01*
X61643940Y-62473618D01*
X61851401Y-62393247D01*
X62040562Y-62276124D01*
X62204981Y-62126236D01*
X62339058Y-61948689D01*
X62438229Y-61749528D01*
X62499115Y-61535536D01*
X62519643Y-61314000D01*
X62499115Y-61092464D01*
X62438229Y-60878472D01*
X62339058Y-60679311D01*
X62204981Y-60501764D01*
X62040562Y-60351876D01*
X61851401Y-60234753D01*
X61643940Y-60154382D01*
X61643939Y-60154381D01*
X61643937Y-60154381D01*
X61425243Y-60113500D01*
X61202757Y-60113500D01*
X60984062Y-60154381D01*
X60907797Y-60183926D01*
X60776599Y-60234753D01*
X60597585Y-60345593D01*
X60587438Y-60351876D01*
X60423020Y-60501763D01*
X60288943Y-60679309D01*
X60288938Y-60679318D01*
X60210018Y-60837810D01*
X60189771Y-60878472D01*
X60174585Y-60931845D01*
X60128885Y-61092464D01*
X60112053Y-61274118D01*
X60108357Y-61314000D01*
X57985499Y-61314000D01*
X57985499Y-60990035D01*
X58004406Y-60931845D01*
X58053906Y-60895881D01*
X58104650Y-60895881D01*
X58105127Y-60893483D01*
X58130421Y-60898514D01*
X58141597Y-60900737D01*
X58168028Y-60905994D01*
X58221411Y-60935891D01*
X58223513Y-60938239D01*
X58261876Y-60982513D01*
X58261878Y-60982514D01*
X58261880Y-60982516D01*
X58367225Y-61050217D01*
X58367227Y-61050218D01*
X58487385Y-61085500D01*
X58487386Y-61085500D01*
X58612614Y-61085500D01*
X58612615Y-61085500D01*
X58732773Y-61050218D01*
X58838124Y-60982513D01*
X58920133Y-60887870D01*
X58972156Y-60773956D01*
X58972157Y-60773951D01*
X58989978Y-60650002D01*
X58989978Y-60649997D01*
X58972157Y-60526048D01*
X58972156Y-60526046D01*
X58972156Y-60526044D01*
X58920133Y-60412130D01*
X58838124Y-60317487D01*
X58838124Y-60317486D01*
X58732774Y-60249782D01*
X58612616Y-60214500D01*
X58612615Y-60214500D01*
X58487385Y-60214500D01*
X58487383Y-60214500D01*
X58367226Y-60249782D01*
X58323112Y-60278132D01*
X58263937Y-60293685D01*
X58206921Y-60271486D01*
X58199586Y-60264851D01*
X57684737Y-59750002D01*
X58910022Y-59750002D01*
X58927842Y-59873951D01*
X58927843Y-59873953D01*
X58927843Y-59873954D01*
X58927844Y-59873956D01*
X58979867Y-59987870D01*
X58979868Y-59987871D01*
X59061875Y-60082512D01*
X59061875Y-60082513D01*
X59167225Y-60150217D01*
X59167227Y-60150218D01*
X59287385Y-60185500D01*
X59287386Y-60185500D01*
X59412614Y-60185500D01*
X59412615Y-60185500D01*
X59532773Y-60150218D01*
X59638124Y-60082513D01*
X59720133Y-59987870D01*
X59772156Y-59873956D01*
X59772157Y-59873951D01*
X59789978Y-59750002D01*
X59789978Y-59749997D01*
X59772157Y-59626048D01*
X59772156Y-59626046D01*
X59772156Y-59626044D01*
X59720133Y-59512130D01*
X59682342Y-59468517D01*
X59658525Y-59412157D01*
X59672384Y-59352562D01*
X59684225Y-59338504D01*
X59683487Y-59337865D01*
X59711984Y-59304976D01*
X59770133Y-59237870D01*
X59822156Y-59123956D01*
X59825050Y-59103827D01*
X59839978Y-59000002D01*
X59839978Y-58999997D01*
X59822157Y-58876048D01*
X59822156Y-58876046D01*
X59822156Y-58876044D01*
X59770133Y-58762130D01*
X59688124Y-58667487D01*
X59688124Y-58667486D01*
X59582774Y-58599782D01*
X59462616Y-58564500D01*
X59462615Y-58564500D01*
X59337385Y-58564500D01*
X59337383Y-58564500D01*
X59217225Y-58599782D01*
X59111875Y-58667486D01*
X59111875Y-58667487D01*
X59029868Y-58762128D01*
X58977843Y-58876046D01*
X58977842Y-58876048D01*
X58960022Y-58999997D01*
X58960022Y-59000002D01*
X58977842Y-59123951D01*
X58977843Y-59123953D01*
X58977843Y-59123954D01*
X58977844Y-59123956D01*
X59029867Y-59237870D01*
X59029868Y-59237871D01*
X59067657Y-59281482D01*
X59091475Y-59337841D01*
X59077617Y-59397436D01*
X59065780Y-59411502D01*
X59066513Y-59412137D01*
X59061878Y-59417485D01*
X59061876Y-59417487D01*
X58979867Y-59512130D01*
X58927843Y-59626046D01*
X58927842Y-59626048D01*
X58910022Y-59749997D01*
X58910022Y-59750002D01*
X57684737Y-59750002D01*
X57339496Y-59404761D01*
X57311719Y-59350244D01*
X57310500Y-59334757D01*
X57310500Y-56884500D01*
X57329407Y-56826309D01*
X57378907Y-56790345D01*
X57409500Y-56785500D01*
X57715805Y-56785500D01*
X57715806Y-56785500D01*
X57715807Y-56785499D01*
X57715814Y-56785499D01*
X57743796Y-56779932D01*
X57762624Y-56776187D01*
X57815714Y-56740714D01*
X57851187Y-56687624D01*
X57854932Y-56668796D01*
X57860499Y-56640814D01*
X57860500Y-56640804D01*
X57860500Y-56359195D01*
X57860499Y-56359185D01*
X57851187Y-56312377D01*
X57851186Y-56312374D01*
X57815715Y-56259287D01*
X57815712Y-56259284D01*
X57762625Y-56223813D01*
X57762622Y-56223812D01*
X57715814Y-56214500D01*
X57715806Y-56214500D01*
X57150341Y-56214500D01*
X57049659Y-56214500D01*
X57049656Y-56214500D01*
X57032858Y-56220614D01*
X56971710Y-56222748D01*
X56920985Y-56188533D01*
X56900060Y-56131037D01*
X56900000Y-56127584D01*
X56900000Y-53650002D01*
X57460022Y-53650002D01*
X57477842Y-53773951D01*
X57477843Y-53773953D01*
X57477843Y-53773954D01*
X57477844Y-53773956D01*
X57529867Y-53887870D01*
X57529868Y-53887871D01*
X57611875Y-53982512D01*
X57611875Y-53982513D01*
X57717225Y-54050217D01*
X57717227Y-54050218D01*
X57837385Y-54085500D01*
X57837386Y-54085500D01*
X57962614Y-54085500D01*
X57962615Y-54085500D01*
X58082773Y-54050218D01*
X58188124Y-53982513D01*
X58270133Y-53887870D01*
X58322156Y-53773956D01*
X58327344Y-53737871D01*
X58339978Y-53650002D01*
X58339978Y-53649997D01*
X58322157Y-53526048D01*
X58322156Y-53526046D01*
X58322156Y-53526044D01*
X58310263Y-53500002D01*
X59260022Y-53500002D01*
X59277842Y-53623951D01*
X59277843Y-53623953D01*
X59277843Y-53623954D01*
X59277844Y-53623956D01*
X59329867Y-53737870D01*
X59329868Y-53737871D01*
X59411875Y-53832512D01*
X59411875Y-53832513D01*
X59517225Y-53900217D01*
X59517227Y-53900218D01*
X59637385Y-53935500D01*
X59637386Y-53935500D01*
X59762614Y-53935500D01*
X59762615Y-53935500D01*
X59882773Y-53900218D01*
X59988124Y-53832513D01*
X60070133Y-53737870D01*
X60122156Y-53623956D01*
X60136233Y-53526046D01*
X60139978Y-53500002D01*
X60139978Y-53499997D01*
X60122157Y-53376048D01*
X60122156Y-53376046D01*
X60122156Y-53376044D01*
X60070133Y-53262130D01*
X59988124Y-53167487D01*
X59988124Y-53167486D01*
X59882774Y-53099782D01*
X59762616Y-53064500D01*
X59762615Y-53064500D01*
X59637385Y-53064500D01*
X59637383Y-53064500D01*
X59517225Y-53099782D01*
X59411875Y-53167486D01*
X59411875Y-53167487D01*
X59329868Y-53262128D01*
X59277843Y-53376046D01*
X59277842Y-53376048D01*
X59260022Y-53499997D01*
X59260022Y-53500002D01*
X58310263Y-53500002D01*
X58270133Y-53412130D01*
X58188124Y-53317487D01*
X58188124Y-53317486D01*
X58082774Y-53249782D01*
X57962616Y-53214500D01*
X57962615Y-53214500D01*
X57837385Y-53214500D01*
X57837383Y-53214500D01*
X57717225Y-53249782D01*
X57611875Y-53317486D01*
X57611875Y-53317487D01*
X57529868Y-53412128D01*
X57477843Y-53526046D01*
X57477842Y-53526048D01*
X57460022Y-53649997D01*
X57460022Y-53650002D01*
X56900000Y-53650002D01*
X56900000Y-49722415D01*
X56918907Y-49664224D01*
X56968407Y-49628260D01*
X57029593Y-49628260D01*
X57032863Y-49629386D01*
X57049659Y-49635500D01*
X57715805Y-49635500D01*
X57715806Y-49635500D01*
X57715807Y-49635499D01*
X57715814Y-49635499D01*
X57746542Y-49629386D01*
X57762624Y-49626187D01*
X57815714Y-49590714D01*
X57851187Y-49537624D01*
X57855721Y-49514833D01*
X57860499Y-49490814D01*
X57860500Y-49490804D01*
X57860500Y-49209195D01*
X57860499Y-49209185D01*
X57851187Y-49162377D01*
X57851186Y-49162374D01*
X57815715Y-49109287D01*
X57815712Y-49109284D01*
X57762625Y-49073813D01*
X57762622Y-49073812D01*
X57715814Y-49064500D01*
X57715806Y-49064500D01*
X57359500Y-49064500D01*
X57301309Y-49045593D01*
X57265345Y-48996093D01*
X57260500Y-48965500D01*
X57260500Y-46771090D01*
X57279407Y-46712899D01*
X57289494Y-46701089D01*
X57303334Y-46687248D01*
X57357847Y-46659470D01*
X57418280Y-46669040D01*
X57461546Y-46712303D01*
X57471331Y-46771339D01*
X57469725Y-46782512D01*
X57460023Y-46849997D01*
X57460022Y-46850002D01*
X57477842Y-46973951D01*
X57477843Y-46973953D01*
X57477843Y-46973954D01*
X57477844Y-46973956D01*
X57529867Y-47087870D01*
X57529868Y-47087871D01*
X57611875Y-47182512D01*
X57611875Y-47182513D01*
X57717225Y-47250217D01*
X57717227Y-47250218D01*
X57837385Y-47285500D01*
X57837386Y-47285500D01*
X57962614Y-47285500D01*
X57962615Y-47285500D01*
X58082773Y-47250218D01*
X58188124Y-47182513D01*
X58270133Y-47087870D01*
X58322156Y-46973956D01*
X58339978Y-46850000D01*
X58328668Y-46771339D01*
X58322157Y-46726048D01*
X58322156Y-46726046D01*
X58322156Y-46726044D01*
X58270133Y-46612130D01*
X58188124Y-46517487D01*
X58188124Y-46517486D01*
X58083116Y-46450002D01*
X59260022Y-46450002D01*
X59277842Y-46573951D01*
X59277843Y-46573953D01*
X59277843Y-46573954D01*
X59277844Y-46573956D01*
X59329867Y-46687870D01*
X59329868Y-46687871D01*
X59411875Y-46782512D01*
X59411875Y-46782513D01*
X59517225Y-46850217D01*
X59517227Y-46850218D01*
X59637385Y-46885500D01*
X59637386Y-46885500D01*
X59762614Y-46885500D01*
X59762615Y-46885500D01*
X59882773Y-46850218D01*
X59988124Y-46782513D01*
X60070133Y-46687870D01*
X60122156Y-46573956D01*
X60139978Y-46450000D01*
X60137157Y-46430382D01*
X60122157Y-46326048D01*
X60122156Y-46326046D01*
X60122156Y-46326044D01*
X60070133Y-46212130D01*
X59988124Y-46117487D01*
X59988124Y-46117486D01*
X59882774Y-46049782D01*
X59762616Y-46014500D01*
X59762615Y-46014500D01*
X59637385Y-46014500D01*
X59637383Y-46014500D01*
X59517225Y-46049782D01*
X59411875Y-46117486D01*
X59411875Y-46117487D01*
X59329868Y-46212128D01*
X59277843Y-46326046D01*
X59277842Y-46326048D01*
X59260022Y-46449997D01*
X59260022Y-46450002D01*
X58083116Y-46450002D01*
X58082774Y-46449782D01*
X57962616Y-46414500D01*
X57962615Y-46414500D01*
X57962019Y-46414500D01*
X57961546Y-46414346D01*
X57955609Y-46413493D01*
X57955756Y-46412465D01*
X57903828Y-46395593D01*
X57867864Y-46346093D01*
X57867864Y-46284907D01*
X57871963Y-46274378D01*
X57872156Y-46273956D01*
X57872157Y-46273951D01*
X57889978Y-46150002D01*
X57889978Y-46149997D01*
X57872157Y-46026048D01*
X57872156Y-46026046D01*
X57872156Y-46026044D01*
X57820133Y-45912130D01*
X57738124Y-45817487D01*
X57738124Y-45817486D01*
X57632774Y-45749782D01*
X57512616Y-45714500D01*
X57512615Y-45714500D01*
X57387385Y-45714500D01*
X57387383Y-45714500D01*
X57267225Y-45749782D01*
X57161875Y-45817486D01*
X57161875Y-45817487D01*
X57075230Y-45917481D01*
X57073245Y-45915761D01*
X57034907Y-45947104D01*
X56973821Y-45950590D01*
X56922353Y-45917504D01*
X56900161Y-45860485D01*
X56900000Y-45854845D01*
X56900000Y-42084500D01*
X56918907Y-42026309D01*
X56968407Y-41990345D01*
X56999000Y-41985500D01*
X57665805Y-41985500D01*
X57665806Y-41985500D01*
X57665807Y-41985499D01*
X57665814Y-41985499D01*
X57693796Y-41979932D01*
X57712624Y-41976187D01*
X57765714Y-41940714D01*
X57801187Y-41887624D01*
X57804932Y-41868796D01*
X57810499Y-41840814D01*
X57810500Y-41840804D01*
X57810500Y-41559195D01*
X57810499Y-41559185D01*
X57801187Y-41512377D01*
X57801186Y-41512374D01*
X57765715Y-41459287D01*
X57765712Y-41459284D01*
X57712625Y-41423813D01*
X57712622Y-41423812D01*
X57665814Y-41414500D01*
X57665806Y-41414500D01*
X57359500Y-41414500D01*
X57301309Y-41395593D01*
X57265345Y-41346093D01*
X57260500Y-41315500D01*
X57260500Y-40284500D01*
X57279407Y-40226309D01*
X57328907Y-40190345D01*
X57359500Y-40185500D01*
X57790949Y-40185500D01*
X57797796Y-40185975D01*
X57809870Y-40187659D01*
X57809873Y-40187660D01*
X57809875Y-40187659D01*
X57809876Y-40187660D01*
X57833740Y-40186556D01*
X57855445Y-40185552D01*
X57857726Y-40185500D01*
X57876448Y-40185500D01*
X57876454Y-40185500D01*
X57879602Y-40184911D01*
X57886402Y-40184120D01*
X57916497Y-40182730D01*
X57924506Y-40179193D01*
X57946306Y-40172441D01*
X57954921Y-40170832D01*
X57980523Y-40154978D01*
X57986580Y-40151785D01*
X58014141Y-40139617D01*
X58020337Y-40133419D01*
X58038223Y-40119252D01*
X58045672Y-40114641D01*
X58063824Y-40090601D01*
X58068314Y-40085442D01*
X58389261Y-39764496D01*
X58443778Y-39736719D01*
X58459265Y-39735500D01*
X58512614Y-39735500D01*
X58512615Y-39735500D01*
X58632773Y-39700218D01*
X58738124Y-39632513D01*
X58820133Y-39537870D01*
X58872156Y-39423956D01*
X58885425Y-39331667D01*
X58889978Y-39300002D01*
X58889978Y-39299997D01*
X58872157Y-39176048D01*
X58872156Y-39176046D01*
X58872156Y-39176044D01*
X58820133Y-39062130D01*
X58738124Y-38967487D01*
X58738124Y-38967486D01*
X58632774Y-38899782D01*
X58512616Y-38864500D01*
X58512615Y-38864500D01*
X58387385Y-38864500D01*
X58387383Y-38864500D01*
X58267225Y-38899782D01*
X58161875Y-38967486D01*
X58159313Y-38970444D01*
X58106914Y-39002035D01*
X58045953Y-38996794D01*
X57999716Y-38956722D01*
X57985499Y-38905609D01*
X57985499Y-38686000D01*
X60108357Y-38686000D01*
X60128885Y-38907536D01*
X60189771Y-39121528D01*
X60288942Y-39320689D01*
X60423019Y-39498236D01*
X60587438Y-39648124D01*
X60776599Y-39765247D01*
X60984060Y-39845618D01*
X61202757Y-39886500D01*
X61425243Y-39886500D01*
X61643940Y-39845618D01*
X61851401Y-39765247D01*
X62040562Y-39648124D01*
X62204981Y-39498236D01*
X62339058Y-39320689D01*
X62438229Y-39121528D01*
X62499115Y-38907536D01*
X62519643Y-38686000D01*
X62499115Y-38464464D01*
X62438229Y-38250472D01*
X62339058Y-38051311D01*
X62204981Y-37873764D01*
X62040562Y-37723876D01*
X61851401Y-37606753D01*
X61643940Y-37526382D01*
X61643939Y-37526381D01*
X61643937Y-37526381D01*
X61425243Y-37485500D01*
X61202757Y-37485500D01*
X60984062Y-37526381D01*
X60907797Y-37555926D01*
X60776599Y-37606753D01*
X60641260Y-37690551D01*
X60587438Y-37723876D01*
X60423020Y-37873763D01*
X60288943Y-38051309D01*
X60288938Y-38051318D01*
X60195151Y-38239667D01*
X60189771Y-38250472D01*
X60128885Y-38464464D01*
X60108357Y-38686000D01*
X57985499Y-38686000D01*
X57985499Y-36942802D01*
X57982775Y-36913742D01*
X57954240Y-36832197D01*
X57952868Y-36771028D01*
X57987711Y-36720734D01*
X58045463Y-36700525D01*
X58047685Y-36700500D01*
X61274118Y-36700500D01*
X61312380Y-36700500D01*
X61315616Y-36700605D01*
G37*
G04 #@! TD.AperFunction*
G04 #@! TA.AperFunction,Conductor*
G36*
X56659191Y-36719407D02*
G01*
X56695155Y-36768907D01*
X56700000Y-36799500D01*
X56700000Y-63200500D01*
X56681093Y-63258691D01*
X56631593Y-63294655D01*
X56601000Y-63299500D01*
X54899000Y-63299500D01*
X54840809Y-63280593D01*
X54804845Y-63231093D01*
X54800000Y-63200500D01*
X54800000Y-61800001D01*
X54800000Y-61800000D01*
X54799999Y-61800000D01*
X53289982Y-61800000D01*
X53236460Y-61784284D01*
X53200358Y-61761083D01*
X53182772Y-61749781D01*
X53062616Y-61714500D01*
X53062615Y-61714500D01*
X52937385Y-61714500D01*
X52937383Y-61714500D01*
X52817227Y-61749781D01*
X52789679Y-61767486D01*
X52763539Y-61784284D01*
X52710018Y-61800000D01*
X51239982Y-61800000D01*
X51186460Y-61784284D01*
X51150358Y-61761083D01*
X51132772Y-61749781D01*
X51012616Y-61714500D01*
X51012615Y-61714500D01*
X50887385Y-61714500D01*
X50887383Y-61714500D01*
X50767227Y-61749781D01*
X50739679Y-61767486D01*
X50713539Y-61784284D01*
X50660018Y-61800000D01*
X49239982Y-61800000D01*
X49186460Y-61784284D01*
X49150358Y-61761083D01*
X49132772Y-61749781D01*
X49012616Y-61714500D01*
X49012615Y-61714500D01*
X48887385Y-61714500D01*
X48887383Y-61714500D01*
X48767227Y-61749781D01*
X48739679Y-61767486D01*
X48713539Y-61784284D01*
X48660018Y-61800000D01*
X47361509Y-61800000D01*
X47303318Y-61781093D01*
X47293506Y-61772088D01*
X47293476Y-61772124D01*
X47288124Y-61767486D01*
X47182774Y-61699782D01*
X47062616Y-61664500D01*
X47062615Y-61664500D01*
X46937385Y-61664500D01*
X46937383Y-61664500D01*
X46817225Y-61699782D01*
X46711875Y-61767486D01*
X46706524Y-61772124D01*
X46705272Y-61770679D01*
X46660908Y-61797429D01*
X46638491Y-61800000D01*
X45361509Y-61800000D01*
X45303318Y-61781093D01*
X45293506Y-61772088D01*
X45293476Y-61772124D01*
X45288124Y-61767486D01*
X45182774Y-61699782D01*
X45062616Y-61664500D01*
X45062615Y-61664500D01*
X44937385Y-61664500D01*
X44937383Y-61664500D01*
X44817225Y-61699782D01*
X44711875Y-61767486D01*
X44706524Y-61772124D01*
X44705272Y-61770679D01*
X44660908Y-61797429D01*
X44638491Y-61800000D01*
X43361509Y-61800000D01*
X43303318Y-61781093D01*
X43293506Y-61772088D01*
X43293476Y-61772124D01*
X43288124Y-61767486D01*
X43182774Y-61699782D01*
X43062616Y-61664500D01*
X43062615Y-61664500D01*
X42937385Y-61664500D01*
X42937381Y-61664500D01*
X42876891Y-61682262D01*
X42815731Y-61680514D01*
X42767278Y-61643152D01*
X42750000Y-61587272D01*
X42750000Y-60149000D01*
X42768907Y-60090809D01*
X42818407Y-60054845D01*
X42849000Y-60050000D01*
X44499999Y-60050000D01*
X44500000Y-60050000D01*
X44500000Y-59048999D01*
X44518907Y-58990809D01*
X44568407Y-58954845D01*
X44599000Y-58950000D01*
X47751000Y-58950000D01*
X47809191Y-58968907D01*
X47845155Y-59018407D01*
X47850000Y-59049000D01*
X47849999Y-60049999D01*
X47850000Y-60049999D01*
X47850000Y-60050000D01*
X50299999Y-60050000D01*
X50300000Y-60050000D01*
X50300000Y-58949000D01*
X50318907Y-58890809D01*
X50368407Y-58854845D01*
X50399000Y-58850000D01*
X54799999Y-58850000D01*
X54800000Y-58850000D01*
X54800000Y-39800000D01*
X54799999Y-39800000D01*
X53865991Y-39800000D01*
X53807800Y-39781093D01*
X53795498Y-39768296D01*
X53794708Y-39769087D01*
X53787812Y-39762192D01*
X53787810Y-39762191D01*
X53787810Y-39762190D01*
X53728539Y-39722587D01*
X53701644Y-39704616D01*
X53701643Y-39704615D01*
X53701642Y-39704615D01*
X53625654Y-39689500D01*
X53600000Y-39684397D01*
X53599999Y-39684397D01*
X53583908Y-39687598D01*
X53564594Y-39689500D01*
X51485411Y-39689500D01*
X51466097Y-39687598D01*
X51450000Y-39684396D01*
X51364090Y-39701485D01*
X51353577Y-39703576D01*
X51348356Y-39704615D01*
X51328611Y-39717809D01*
X51313599Y-39726057D01*
X51235859Y-39760383D01*
X51235858Y-39760383D01*
X51235858Y-39760384D01*
X51225236Y-39771005D01*
X51170722Y-39798781D01*
X51155235Y-39800000D01*
X42002245Y-39800000D01*
X41944054Y-39781093D01*
X41908090Y-39731593D01*
X41903296Y-39697810D01*
X41920767Y-39156207D01*
X41941540Y-39098661D01*
X41949700Y-39089413D01*
X41960599Y-39078514D01*
X42007488Y-38972320D01*
X42010500Y-38946357D01*
X42010499Y-38348999D01*
X42029406Y-38290809D01*
X42078906Y-38254845D01*
X42109499Y-38250000D01*
X42152250Y-38250000D01*
X42180140Y-38254009D01*
X42287385Y-38285500D01*
X42287386Y-38285500D01*
X42412614Y-38285500D01*
X42412615Y-38285500D01*
X42519859Y-38254009D01*
X42547750Y-38250000D01*
X44152250Y-38250000D01*
X44180140Y-38254009D01*
X44287385Y-38285500D01*
X44287386Y-38285500D01*
X44412614Y-38285500D01*
X44412615Y-38285500D01*
X44519859Y-38254009D01*
X44547750Y-38250000D01*
X46102250Y-38250000D01*
X46130140Y-38254009D01*
X46237385Y-38285500D01*
X46237386Y-38285500D01*
X46362614Y-38285500D01*
X46362615Y-38285500D01*
X46469859Y-38254009D01*
X46497750Y-38250000D01*
X48102250Y-38250000D01*
X48130140Y-38254009D01*
X48237385Y-38285500D01*
X48237386Y-38285500D01*
X48362614Y-38285500D01*
X48362615Y-38285500D01*
X48469859Y-38254009D01*
X48497750Y-38250000D01*
X50052250Y-38250000D01*
X50080140Y-38254009D01*
X50187385Y-38285500D01*
X50187386Y-38285500D01*
X50312614Y-38285500D01*
X50312615Y-38285500D01*
X50419859Y-38254009D01*
X50447750Y-38250000D01*
X52052250Y-38250000D01*
X52080140Y-38254009D01*
X52187385Y-38285500D01*
X52187386Y-38285500D01*
X52312614Y-38285500D01*
X52312615Y-38285500D01*
X52419859Y-38254009D01*
X52447750Y-38250000D01*
X54799999Y-38250000D01*
X54800000Y-38250000D01*
X54800000Y-36799500D01*
X54818907Y-36741309D01*
X54868407Y-36705345D01*
X54899000Y-36700500D01*
X56601000Y-36700500D01*
X56659191Y-36719407D01*
G37*
G04 #@! TD.AperFunction*
M02*
