G04 #@! TF.GenerationSoftware,KiCad,Pcbnew,7.0.7*
G04 #@! TF.CreationDate,2024-08-09T21:04:11-05:00*
G04 #@! TF.ProjectId,O32controller,4f333263-6f6e-4747-926f-6c6c65722e6b,3.1*
G04 #@! TF.SameCoordinates,Original*
G04 #@! TF.FileFunction,Legend,Bot*
G04 #@! TF.FilePolarity,Positive*
%FSLAX46Y46*%
G04 Gerber Fmt 4.6, Leading zero omitted, Abs format (unit mm)*
G04 Created by KiCad (PCBNEW 7.0.7) date 2024-08-09 21:04:11*
%MOMM*%
%LPD*%
G01*
G04 APERTURE LIST*
G04 Aperture macros list*
%AMRoundRect*
0 Rectangle with rounded corners*
0 $1 Rounding radius*
0 $2 $3 $4 $5 $6 $7 $8 $9 X,Y pos of 4 corners*
0 Add a 4 corners polygon primitive as box body*
4,1,4,$2,$3,$4,$5,$6,$7,$8,$9,$2,$3,0*
0 Add four circle primitives for the rounded corners*
1,1,$1+$1,$2,$3*
1,1,$1+$1,$4,$5*
1,1,$1+$1,$6,$7*
1,1,$1+$1,$8,$9*
0 Add four rect primitives between the rounded corners*
20,1,$1+$1,$2,$3,$4,$5,0*
20,1,$1+$1,$4,$5,$6,$7,0*
20,1,$1+$1,$6,$7,$8,$9,0*
20,1,$1+$1,$8,$9,$2,$3,0*%
G04 Aperture macros list end*
%ADD10C,0.150000*%
%ADD11C,0.120000*%
%ADD12C,0.199999*%
%ADD13C,0.127000*%
%ADD14C,0.300000*%
%ADD15C,0.254000*%
%ADD16C,0.152400*%
%ADD17C,0.200000*%
%ADD18RoundRect,0.269607X-1.105393X-1.105393X1.105393X-1.105393X1.105393X1.105393X-1.105393X1.105393X0*%
%ADD19RoundRect,0.135000X0.135000X0.185000X-0.135000X0.185000X-0.135000X-0.185000X0.135000X-0.185000X0*%
%ADD20RoundRect,0.140000X0.140000X0.170000X-0.140000X0.170000X-0.140000X-0.170000X0.140000X-0.170000X0*%
%ADD21RoundRect,0.250000X-0.475000X0.250000X-0.475000X-0.250000X0.475000X-0.250000X0.475000X0.250000X0*%
%ADD22RoundRect,0.135000X-0.135000X-0.185000X0.135000X-0.185000X0.135000X0.185000X-0.135000X0.185000X0*%
%ADD23RoundRect,0.140000X-0.140000X-0.170000X0.140000X-0.170000X0.140000X0.170000X-0.140000X0.170000X0*%
%ADD24RoundRect,0.250000X0.475000X-0.250000X0.475000X0.250000X-0.475000X0.250000X-0.475000X-0.250000X0*%
%ADD25RoundRect,0.135000X-0.185000X0.135000X-0.185000X-0.135000X0.185000X-0.135000X0.185000X0.135000X0*%
%ADD26RoundRect,0.050000X0.272236X-0.130815X-0.130815X0.272236X-0.272236X0.130815X0.130815X-0.272236X0*%
%ADD27RoundRect,0.140000X0.170000X-0.140000X0.170000X0.140000X-0.170000X0.140000X-0.170000X-0.140000X0*%
%ADD28RoundRect,0.140000X-0.170000X0.140000X-0.170000X-0.140000X0.170000X-0.140000X0.170000X0.140000X0*%
%ADD29RoundRect,0.250000X0.250000X0.475000X-0.250000X0.475000X-0.250000X-0.475000X0.250000X-0.475000X0*%
%ADD30R,1.550000X0.600000*%
%ADD31R,1.800000X1.200000*%
%ADD32RoundRect,0.250000X0.600000X1.450000X-0.600000X1.450000X-0.600000X-1.450000X0.600000X-1.450000X0*%
%ADD33RoundRect,0.150000X0.150000X0.600000X-0.150000X0.600000X-0.150000X-0.600000X0.150000X-0.600000X0*%
%ADD34RoundRect,0.150000X0.150000X-0.600000X0.150000X0.600000X-0.150000X0.600000X-0.150000X-0.600000X0*%
%ADD35RoundRect,0.250000X-0.400000X-0.450000X0.400000X-0.450000X0.400000X0.450000X-0.400000X0.450000X0*%
%ADD36R,0.812800X0.254000*%
%ADD37R,0.254000X0.812800*%
%ADD38R,1.701800X1.701800*%
%ADD39RoundRect,0.135000X0.185000X-0.135000X0.185000X0.135000X-0.185000X0.135000X-0.185000X-0.135000X0*%
G04 APERTURE END LIST*
D10*
X40686000Y-61314000D02*
G75*
G03*
X40686000Y-61314000I-2000000J0D01*
G01*
X63314000Y-61314000D02*
G75*
G03*
X63314000Y-61314000I-2000000J0D01*
G01*
X40686000Y-38686000D02*
G75*
G03*
X40686000Y-38686000I-2000000J0D01*
G01*
X66000000Y-50000000D02*
G75*
G03*
X66000000Y-50000000I-16000000J0D01*
G01*
X63314000Y-38686000D02*
G75*
G03*
X63314000Y-38686000I-2000000J0D01*
G01*
X43042857Y-47293247D02*
X42928571Y-47331342D01*
X42928571Y-47331342D02*
X42890476Y-47369438D01*
X42890476Y-47369438D02*
X42852380Y-47445628D01*
X42852380Y-47445628D02*
X42852380Y-47559914D01*
X42852380Y-47559914D02*
X42890476Y-47636104D01*
X42890476Y-47636104D02*
X42928571Y-47674200D01*
X42928571Y-47674200D02*
X43004761Y-47712295D01*
X43004761Y-47712295D02*
X43309523Y-47712295D01*
X43309523Y-47712295D02*
X43309523Y-46912295D01*
X43309523Y-46912295D02*
X43042857Y-46912295D01*
X43042857Y-46912295D02*
X42966666Y-46950390D01*
X42966666Y-46950390D02*
X42928571Y-46988485D01*
X42928571Y-46988485D02*
X42890476Y-47064676D01*
X42890476Y-47064676D02*
X42890476Y-47140866D01*
X42890476Y-47140866D02*
X42928571Y-47217057D01*
X42928571Y-47217057D02*
X42966666Y-47255152D01*
X42966666Y-47255152D02*
X43042857Y-47293247D01*
X43042857Y-47293247D02*
X43309523Y-47293247D01*
X43809523Y-56837295D02*
X43352380Y-56837295D01*
X43580952Y-57637295D02*
X43580952Y-56837295D01*
X43161904Y-56837295D02*
X42628570Y-57637295D01*
X42628570Y-56837295D02*
X43161904Y-57637295D01*
X58252381Y-59262295D02*
X58709524Y-59262295D01*
X58480952Y-59262295D02*
X58480952Y-58462295D01*
X58480952Y-58462295D02*
X58557143Y-58576580D01*
X58557143Y-58576580D02*
X58633333Y-58652771D01*
X58633333Y-58652771D02*
X58709524Y-58690866D01*
X57566666Y-58462295D02*
X57719047Y-58462295D01*
X57719047Y-58462295D02*
X57795238Y-58500390D01*
X57795238Y-58500390D02*
X57833333Y-58538485D01*
X57833333Y-58538485D02*
X57909523Y-58652771D01*
X57909523Y-58652771D02*
X57947619Y-58805152D01*
X57947619Y-58805152D02*
X57947619Y-59109914D01*
X57947619Y-59109914D02*
X57909523Y-59186104D01*
X57909523Y-59186104D02*
X57871428Y-59224200D01*
X57871428Y-59224200D02*
X57795238Y-59262295D01*
X57795238Y-59262295D02*
X57642857Y-59262295D01*
X57642857Y-59262295D02*
X57566666Y-59224200D01*
X57566666Y-59224200D02*
X57528571Y-59186104D01*
X57528571Y-59186104D02*
X57490476Y-59109914D01*
X57490476Y-59109914D02*
X57490476Y-58919438D01*
X57490476Y-58919438D02*
X57528571Y-58843247D01*
X57528571Y-58843247D02*
X57566666Y-58805152D01*
X57566666Y-58805152D02*
X57642857Y-58767057D01*
X57642857Y-58767057D02*
X57795238Y-58767057D01*
X57795238Y-58767057D02*
X57871428Y-58805152D01*
X57871428Y-58805152D02*
X57909523Y-58843247D01*
X57909523Y-58843247D02*
X57947619Y-58919438D01*
X57185714Y-59033723D02*
X56804761Y-59033723D01*
X57261904Y-59262295D02*
X56995237Y-58462295D01*
X56995237Y-58462295D02*
X56728571Y-59262295D01*
X56538095Y-58462295D02*
X56347619Y-59262295D01*
X56347619Y-59262295D02*
X56195238Y-58690866D01*
X56195238Y-58690866D02*
X56042857Y-59262295D01*
X56042857Y-59262295D02*
X55852381Y-58462295D01*
X55128571Y-58500390D02*
X55204761Y-58462295D01*
X55204761Y-58462295D02*
X55319047Y-58462295D01*
X55319047Y-58462295D02*
X55433333Y-58500390D01*
X55433333Y-58500390D02*
X55509523Y-58576580D01*
X55509523Y-58576580D02*
X55547618Y-58652771D01*
X55547618Y-58652771D02*
X55585714Y-58805152D01*
X55585714Y-58805152D02*
X55585714Y-58919438D01*
X55585714Y-58919438D02*
X55547618Y-59071819D01*
X55547618Y-59071819D02*
X55509523Y-59148009D01*
X55509523Y-59148009D02*
X55433333Y-59224200D01*
X55433333Y-59224200D02*
X55319047Y-59262295D01*
X55319047Y-59262295D02*
X55242856Y-59262295D01*
X55242856Y-59262295D02*
X55128571Y-59224200D01*
X55128571Y-59224200D02*
X55090475Y-59186104D01*
X55090475Y-59186104D02*
X55090475Y-58919438D01*
X55090475Y-58919438D02*
X55242856Y-58919438D01*
X45051190Y-51762295D02*
X45317857Y-51381342D01*
X45508333Y-51762295D02*
X45508333Y-50962295D01*
X45508333Y-50962295D02*
X45203571Y-50962295D01*
X45203571Y-50962295D02*
X45127381Y-51000390D01*
X45127381Y-51000390D02*
X45089286Y-51038485D01*
X45089286Y-51038485D02*
X45051190Y-51114676D01*
X45051190Y-51114676D02*
X45051190Y-51228961D01*
X45051190Y-51228961D02*
X45089286Y-51305152D01*
X45089286Y-51305152D02*
X45127381Y-51343247D01*
X45127381Y-51343247D02*
X45203571Y-51381342D01*
X45203571Y-51381342D02*
X45508333Y-51381342D01*
X44746429Y-51724200D02*
X44632143Y-51762295D01*
X44632143Y-51762295D02*
X44441667Y-51762295D01*
X44441667Y-51762295D02*
X44365476Y-51724200D01*
X44365476Y-51724200D02*
X44327381Y-51686104D01*
X44327381Y-51686104D02*
X44289286Y-51609914D01*
X44289286Y-51609914D02*
X44289286Y-51533723D01*
X44289286Y-51533723D02*
X44327381Y-51457533D01*
X44327381Y-51457533D02*
X44365476Y-51419438D01*
X44365476Y-51419438D02*
X44441667Y-51381342D01*
X44441667Y-51381342D02*
X44594048Y-51343247D01*
X44594048Y-51343247D02*
X44670238Y-51305152D01*
X44670238Y-51305152D02*
X44708333Y-51267057D01*
X44708333Y-51267057D02*
X44746429Y-51190866D01*
X44746429Y-51190866D02*
X44746429Y-51114676D01*
X44746429Y-51114676D02*
X44708333Y-51038485D01*
X44708333Y-51038485D02*
X44670238Y-51000390D01*
X44670238Y-51000390D02*
X44594048Y-50962295D01*
X44594048Y-50962295D02*
X44403571Y-50962295D01*
X44403571Y-50962295D02*
X44289286Y-51000390D01*
X43603571Y-51228961D02*
X43603571Y-51762295D01*
X43794047Y-50924200D02*
X43984524Y-51495628D01*
X43984524Y-51495628D02*
X43489285Y-51495628D01*
X43070238Y-51305152D02*
X43146428Y-51267057D01*
X43146428Y-51267057D02*
X43184523Y-51228961D01*
X43184523Y-51228961D02*
X43222619Y-51152771D01*
X43222619Y-51152771D02*
X43222619Y-51114676D01*
X43222619Y-51114676D02*
X43184523Y-51038485D01*
X43184523Y-51038485D02*
X43146428Y-51000390D01*
X43146428Y-51000390D02*
X43070238Y-50962295D01*
X43070238Y-50962295D02*
X42917857Y-50962295D01*
X42917857Y-50962295D02*
X42841666Y-51000390D01*
X42841666Y-51000390D02*
X42803571Y-51038485D01*
X42803571Y-51038485D02*
X42765476Y-51114676D01*
X42765476Y-51114676D02*
X42765476Y-51152771D01*
X42765476Y-51152771D02*
X42803571Y-51228961D01*
X42803571Y-51228961D02*
X42841666Y-51267057D01*
X42841666Y-51267057D02*
X42917857Y-51305152D01*
X42917857Y-51305152D02*
X43070238Y-51305152D01*
X43070238Y-51305152D02*
X43146428Y-51343247D01*
X43146428Y-51343247D02*
X43184523Y-51381342D01*
X43184523Y-51381342D02*
X43222619Y-51457533D01*
X43222619Y-51457533D02*
X43222619Y-51609914D01*
X43222619Y-51609914D02*
X43184523Y-51686104D01*
X43184523Y-51686104D02*
X43146428Y-51724200D01*
X43146428Y-51724200D02*
X43070238Y-51762295D01*
X43070238Y-51762295D02*
X42917857Y-51762295D01*
X42917857Y-51762295D02*
X42841666Y-51724200D01*
X42841666Y-51724200D02*
X42803571Y-51686104D01*
X42803571Y-51686104D02*
X42765476Y-51609914D01*
X42765476Y-51609914D02*
X42765476Y-51457533D01*
X42765476Y-51457533D02*
X42803571Y-51381342D01*
X42803571Y-51381342D02*
X42841666Y-51343247D01*
X42841666Y-51343247D02*
X42917857Y-51305152D01*
X42041666Y-50962295D02*
X42422618Y-50962295D01*
X42422618Y-50962295D02*
X42460714Y-51343247D01*
X42460714Y-51343247D02*
X42422618Y-51305152D01*
X42422618Y-51305152D02*
X42346428Y-51267057D01*
X42346428Y-51267057D02*
X42155952Y-51267057D01*
X42155952Y-51267057D02*
X42079761Y-51305152D01*
X42079761Y-51305152D02*
X42041666Y-51343247D01*
X42041666Y-51343247D02*
X42003571Y-51419438D01*
X42003571Y-51419438D02*
X42003571Y-51609914D01*
X42003571Y-51609914D02*
X42041666Y-51686104D01*
X42041666Y-51686104D02*
X42079761Y-51724200D01*
X42079761Y-51724200D02*
X42155952Y-51762295D01*
X42155952Y-51762295D02*
X42346428Y-51762295D01*
X42346428Y-51762295D02*
X42422618Y-51724200D01*
X42422618Y-51724200D02*
X42460714Y-51686104D01*
X44001189Y-55286104D02*
X44039285Y-55324200D01*
X44039285Y-55324200D02*
X44153570Y-55362295D01*
X44153570Y-55362295D02*
X44229761Y-55362295D01*
X44229761Y-55362295D02*
X44344047Y-55324200D01*
X44344047Y-55324200D02*
X44420237Y-55248009D01*
X44420237Y-55248009D02*
X44458332Y-55171819D01*
X44458332Y-55171819D02*
X44496428Y-55019438D01*
X44496428Y-55019438D02*
X44496428Y-54905152D01*
X44496428Y-54905152D02*
X44458332Y-54752771D01*
X44458332Y-54752771D02*
X44420237Y-54676580D01*
X44420237Y-54676580D02*
X44344047Y-54600390D01*
X44344047Y-54600390D02*
X44229761Y-54562295D01*
X44229761Y-54562295D02*
X44153570Y-54562295D01*
X44153570Y-54562295D02*
X44039285Y-54600390D01*
X44039285Y-54600390D02*
X44001189Y-54638485D01*
X43277380Y-55362295D02*
X43658332Y-55362295D01*
X43658332Y-55362295D02*
X43658332Y-54562295D01*
X43010713Y-55362295D02*
X43010713Y-54562295D01*
X42553570Y-55362295D02*
X42896428Y-54905152D01*
X42553570Y-54562295D02*
X43010713Y-55019438D01*
X42815476Y-48183723D02*
X42434523Y-48183723D01*
X42891666Y-48412295D02*
X42624999Y-47612295D01*
X42624999Y-47612295D02*
X42358333Y-48412295D01*
X53127380Y-52837295D02*
X53127380Y-52037295D01*
X53127380Y-52037295D02*
X52860714Y-52608723D01*
X52860714Y-52608723D02*
X52594047Y-52037295D01*
X52594047Y-52037295D02*
X52594047Y-52837295D01*
X52251190Y-52608723D02*
X51870237Y-52608723D01*
X52327380Y-52837295D02*
X52060713Y-52037295D01*
X52060713Y-52037295D02*
X51794047Y-52837295D01*
X51603571Y-52037295D02*
X51070237Y-52037295D01*
X51070237Y-52037295D02*
X51413095Y-52837295D01*
X50841666Y-52037295D02*
X50346428Y-52037295D01*
X50346428Y-52037295D02*
X50613094Y-52342057D01*
X50613094Y-52342057D02*
X50498809Y-52342057D01*
X50498809Y-52342057D02*
X50422618Y-52380152D01*
X50422618Y-52380152D02*
X50384523Y-52418247D01*
X50384523Y-52418247D02*
X50346428Y-52494438D01*
X50346428Y-52494438D02*
X50346428Y-52684914D01*
X50346428Y-52684914D02*
X50384523Y-52761104D01*
X50384523Y-52761104D02*
X50422618Y-52799200D01*
X50422618Y-52799200D02*
X50498809Y-52837295D01*
X50498809Y-52837295D02*
X50727380Y-52837295D01*
X50727380Y-52837295D02*
X50803571Y-52799200D01*
X50803571Y-52799200D02*
X50841666Y-52761104D01*
X50041666Y-52113485D02*
X50003570Y-52075390D01*
X50003570Y-52075390D02*
X49927380Y-52037295D01*
X49927380Y-52037295D02*
X49736904Y-52037295D01*
X49736904Y-52037295D02*
X49660713Y-52075390D01*
X49660713Y-52075390D02*
X49622618Y-52113485D01*
X49622618Y-52113485D02*
X49584523Y-52189676D01*
X49584523Y-52189676D02*
X49584523Y-52265866D01*
X49584523Y-52265866D02*
X49622618Y-52380152D01*
X49622618Y-52380152D02*
X50079761Y-52837295D01*
X50079761Y-52837295D02*
X49584523Y-52837295D01*
X42063094Y-60762295D02*
X42329761Y-60381342D01*
X42520237Y-60762295D02*
X42520237Y-59962295D01*
X42520237Y-59962295D02*
X42215475Y-59962295D01*
X42215475Y-59962295D02*
X42139285Y-60000390D01*
X42139285Y-60000390D02*
X42101190Y-60038485D01*
X42101190Y-60038485D02*
X42063094Y-60114676D01*
X42063094Y-60114676D02*
X42063094Y-60228961D01*
X42063094Y-60228961D02*
X42101190Y-60305152D01*
X42101190Y-60305152D02*
X42139285Y-60343247D01*
X42139285Y-60343247D02*
X42215475Y-60381342D01*
X42215475Y-60381342D02*
X42520237Y-60381342D01*
X41758333Y-60724200D02*
X41644047Y-60762295D01*
X41644047Y-60762295D02*
X41453571Y-60762295D01*
X41453571Y-60762295D02*
X41377380Y-60724200D01*
X41377380Y-60724200D02*
X41339285Y-60686104D01*
X41339285Y-60686104D02*
X41301190Y-60609914D01*
X41301190Y-60609914D02*
X41301190Y-60533723D01*
X41301190Y-60533723D02*
X41339285Y-60457533D01*
X41339285Y-60457533D02*
X41377380Y-60419438D01*
X41377380Y-60419438D02*
X41453571Y-60381342D01*
X41453571Y-60381342D02*
X41605952Y-60343247D01*
X41605952Y-60343247D02*
X41682142Y-60305152D01*
X41682142Y-60305152D02*
X41720237Y-60267057D01*
X41720237Y-60267057D02*
X41758333Y-60190866D01*
X41758333Y-60190866D02*
X41758333Y-60114676D01*
X41758333Y-60114676D02*
X41720237Y-60038485D01*
X41720237Y-60038485D02*
X41682142Y-60000390D01*
X41682142Y-60000390D02*
X41605952Y-59962295D01*
X41605952Y-59962295D02*
X41415475Y-59962295D01*
X41415475Y-59962295D02*
X41301190Y-60000390D01*
X41072618Y-59962295D02*
X40615475Y-59962295D01*
X40844047Y-60762295D02*
X40844047Y-59962295D01*
X43544046Y-56487295D02*
X43544046Y-55687295D01*
X43010713Y-55687295D02*
X42858332Y-55687295D01*
X42858332Y-55687295D02*
X42782142Y-55725390D01*
X42782142Y-55725390D02*
X42705951Y-55801580D01*
X42705951Y-55801580D02*
X42667856Y-55953961D01*
X42667856Y-55953961D02*
X42667856Y-56220628D01*
X42667856Y-56220628D02*
X42705951Y-56373009D01*
X42705951Y-56373009D02*
X42782142Y-56449200D01*
X42782142Y-56449200D02*
X42858332Y-56487295D01*
X42858332Y-56487295D02*
X43010713Y-56487295D01*
X43010713Y-56487295D02*
X43086904Y-56449200D01*
X43086904Y-56449200D02*
X43163094Y-56373009D01*
X43163094Y-56373009D02*
X43201190Y-56220628D01*
X43201190Y-56220628D02*
X43201190Y-55953961D01*
X43201190Y-55953961D02*
X43163094Y-55801580D01*
X43163094Y-55801580D02*
X43086904Y-55725390D01*
X43086904Y-55725390D02*
X43010713Y-55687295D01*
X44159523Y-53375390D02*
X44235713Y-53337295D01*
X44235713Y-53337295D02*
X44349999Y-53337295D01*
X44349999Y-53337295D02*
X44464285Y-53375390D01*
X44464285Y-53375390D02*
X44540475Y-53451580D01*
X44540475Y-53451580D02*
X44578570Y-53527771D01*
X44578570Y-53527771D02*
X44616666Y-53680152D01*
X44616666Y-53680152D02*
X44616666Y-53794438D01*
X44616666Y-53794438D02*
X44578570Y-53946819D01*
X44578570Y-53946819D02*
X44540475Y-54023009D01*
X44540475Y-54023009D02*
X44464285Y-54099200D01*
X44464285Y-54099200D02*
X44349999Y-54137295D01*
X44349999Y-54137295D02*
X44273808Y-54137295D01*
X44273808Y-54137295D02*
X44159523Y-54099200D01*
X44159523Y-54099200D02*
X44121427Y-54061104D01*
X44121427Y-54061104D02*
X44121427Y-53794438D01*
X44121427Y-53794438D02*
X44273808Y-53794438D01*
X43778570Y-54137295D02*
X43778570Y-53337295D01*
X43778570Y-53337295D02*
X43321427Y-54137295D01*
X43321427Y-54137295D02*
X43321427Y-53337295D01*
X42940475Y-54137295D02*
X42940475Y-53337295D01*
X42940475Y-53337295D02*
X42749999Y-53337295D01*
X42749999Y-53337295D02*
X42635713Y-53375390D01*
X42635713Y-53375390D02*
X42559523Y-53451580D01*
X42559523Y-53451580D02*
X42521428Y-53527771D01*
X42521428Y-53527771D02*
X42483332Y-53680152D01*
X42483332Y-53680152D02*
X42483332Y-53794438D01*
X42483332Y-53794438D02*
X42521428Y-53946819D01*
X42521428Y-53946819D02*
X42559523Y-54023009D01*
X42559523Y-54023009D02*
X42635713Y-54099200D01*
X42635713Y-54099200D02*
X42749999Y-54137295D01*
X42749999Y-54137295D02*
X42940475Y-54137295D01*
X42164285Y-40012295D02*
X42545237Y-40012295D01*
X42545237Y-40012295D02*
X42545237Y-39212295D01*
X41897618Y-39593247D02*
X41630952Y-39593247D01*
X41516666Y-40012295D02*
X41897618Y-40012295D01*
X41897618Y-40012295D02*
X41897618Y-39212295D01*
X41897618Y-39212295D02*
X41516666Y-39212295D01*
X41173808Y-40012295D02*
X41173808Y-39212295D01*
X41173808Y-39212295D02*
X40983332Y-39212295D01*
X40983332Y-39212295D02*
X40869046Y-39250390D01*
X40869046Y-39250390D02*
X40792856Y-39326580D01*
X40792856Y-39326580D02*
X40754761Y-39402771D01*
X40754761Y-39402771D02*
X40716665Y-39555152D01*
X40716665Y-39555152D02*
X40716665Y-39669438D01*
X40716665Y-39669438D02*
X40754761Y-39821819D01*
X40754761Y-39821819D02*
X40792856Y-39898009D01*
X40792856Y-39898009D02*
X40869046Y-39974200D01*
X40869046Y-39974200D02*
X40983332Y-40012295D01*
X40983332Y-40012295D02*
X41173808Y-40012295D01*
X47083332Y-44962295D02*
X47083332Y-44162295D01*
X47083332Y-44162295D02*
X46626189Y-44962295D01*
X46626189Y-44962295D02*
X46626189Y-44162295D01*
X46359523Y-44162295D02*
X45902380Y-44162295D01*
X46130952Y-44962295D02*
X46130952Y-44162295D01*
X45178570Y-44886104D02*
X45216666Y-44924200D01*
X45216666Y-44924200D02*
X45330951Y-44962295D01*
X45330951Y-44962295D02*
X45407142Y-44962295D01*
X45407142Y-44962295D02*
X45521428Y-44924200D01*
X45521428Y-44924200D02*
X45597618Y-44848009D01*
X45597618Y-44848009D02*
X45635713Y-44771819D01*
X45635713Y-44771819D02*
X45673809Y-44619438D01*
X45673809Y-44619438D02*
X45673809Y-44505152D01*
X45673809Y-44505152D02*
X45635713Y-44352771D01*
X45635713Y-44352771D02*
X45597618Y-44276580D01*
X45597618Y-44276580D02*
X45521428Y-44200390D01*
X45521428Y-44200390D02*
X45407142Y-44162295D01*
X45407142Y-44162295D02*
X45330951Y-44162295D01*
X45330951Y-44162295D02*
X45216666Y-44200390D01*
X45216666Y-44200390D02*
X45178570Y-44238485D01*
X58724705Y-45638485D02*
X58686609Y-45600390D01*
X58686609Y-45600390D02*
X58610419Y-45562295D01*
X58610419Y-45562295D02*
X58419943Y-45562295D01*
X58419943Y-45562295D02*
X58343752Y-45600390D01*
X58343752Y-45600390D02*
X58305657Y-45638485D01*
X58305657Y-45638485D02*
X58267562Y-45714676D01*
X58267562Y-45714676D02*
X58267562Y-45790866D01*
X58267562Y-45790866D02*
X58305657Y-45905152D01*
X58305657Y-45905152D02*
X58762800Y-46362295D01*
X58762800Y-46362295D02*
X58267562Y-46362295D01*
X57924704Y-46362295D02*
X57924704Y-45828961D01*
X57924704Y-45905152D02*
X57886609Y-45867057D01*
X57886609Y-45867057D02*
X57810419Y-45828961D01*
X57810419Y-45828961D02*
X57696133Y-45828961D01*
X57696133Y-45828961D02*
X57619942Y-45867057D01*
X57619942Y-45867057D02*
X57581847Y-45943247D01*
X57581847Y-45943247D02*
X57581847Y-46362295D01*
X57581847Y-45943247D02*
X57543752Y-45867057D01*
X57543752Y-45867057D02*
X57467561Y-45828961D01*
X57467561Y-45828961D02*
X57353276Y-45828961D01*
X57353276Y-45828961D02*
X57277085Y-45867057D01*
X57277085Y-45867057D02*
X57238990Y-45943247D01*
X57238990Y-45943247D02*
X57238990Y-46362295D01*
X56896133Y-46362295D02*
X56705656Y-46362295D01*
X56705656Y-46362295D02*
X56705656Y-46209914D01*
X56705656Y-46209914D02*
X56781847Y-46171819D01*
X56781847Y-46171819D02*
X56858037Y-46095628D01*
X56858037Y-46095628D02*
X56896133Y-45981342D01*
X56896133Y-45981342D02*
X56896133Y-45790866D01*
X56896133Y-45790866D02*
X56858037Y-45676580D01*
X56858037Y-45676580D02*
X56781847Y-45600390D01*
X56781847Y-45600390D02*
X56667561Y-45562295D01*
X56667561Y-45562295D02*
X56515180Y-45562295D01*
X56515180Y-45562295D02*
X56400894Y-45600390D01*
X56400894Y-45600390D02*
X56324704Y-45676580D01*
X56324704Y-45676580D02*
X56286609Y-45790866D01*
X56286609Y-45790866D02*
X56286609Y-45981342D01*
X56286609Y-45981342D02*
X56324704Y-46095628D01*
X56324704Y-46095628D02*
X56400894Y-46171819D01*
X56400894Y-46171819D02*
X56477085Y-46209914D01*
X56477085Y-46209914D02*
X56477085Y-46362295D01*
X56477085Y-46362295D02*
X56286609Y-46362295D01*
X54953275Y-45562295D02*
X55334227Y-45562295D01*
X55334227Y-45562295D02*
X55372323Y-45943247D01*
X55372323Y-45943247D02*
X55334227Y-45905152D01*
X55334227Y-45905152D02*
X55258037Y-45867057D01*
X55258037Y-45867057D02*
X55067561Y-45867057D01*
X55067561Y-45867057D02*
X54991370Y-45905152D01*
X54991370Y-45905152D02*
X54953275Y-45943247D01*
X54953275Y-45943247D02*
X54915180Y-46019438D01*
X54915180Y-46019438D02*
X54915180Y-46209914D01*
X54915180Y-46209914D02*
X54953275Y-46286104D01*
X54953275Y-46286104D02*
X54991370Y-46324200D01*
X54991370Y-46324200D02*
X55067561Y-46362295D01*
X55067561Y-46362295D02*
X55258037Y-46362295D01*
X55258037Y-46362295D02*
X55334227Y-46324200D01*
X55334227Y-46324200D02*
X55372323Y-46286104D01*
X54648513Y-45562295D02*
X54458037Y-46362295D01*
X54458037Y-46362295D02*
X54305656Y-45790866D01*
X54305656Y-45790866D02*
X54153275Y-46362295D01*
X54153275Y-46362295D02*
X53962799Y-45562295D01*
X59346895Y-45328961D02*
X59537371Y-45328961D01*
X59537371Y-45328961D02*
X59537371Y-44186104D01*
X59537371Y-44186104D02*
X59346895Y-44186104D01*
X58889752Y-44262295D02*
X58813562Y-44262295D01*
X58813562Y-44262295D02*
X58737371Y-44300390D01*
X58737371Y-44300390D02*
X58699276Y-44338485D01*
X58699276Y-44338485D02*
X58661181Y-44414676D01*
X58661181Y-44414676D02*
X58623086Y-44567057D01*
X58623086Y-44567057D02*
X58623086Y-44757533D01*
X58623086Y-44757533D02*
X58661181Y-44909914D01*
X58661181Y-44909914D02*
X58699276Y-44986104D01*
X58699276Y-44986104D02*
X58737371Y-45024200D01*
X58737371Y-45024200D02*
X58813562Y-45062295D01*
X58813562Y-45062295D02*
X58889752Y-45062295D01*
X58889752Y-45062295D02*
X58965943Y-45024200D01*
X58965943Y-45024200D02*
X59004038Y-44986104D01*
X59004038Y-44986104D02*
X59042133Y-44909914D01*
X59042133Y-44909914D02*
X59080229Y-44757533D01*
X59080229Y-44757533D02*
X59080229Y-44567057D01*
X59080229Y-44567057D02*
X59042133Y-44414676D01*
X59042133Y-44414676D02*
X59004038Y-44338485D01*
X59004038Y-44338485D02*
X58965943Y-44300390D01*
X58965943Y-44300390D02*
X58889752Y-44262295D01*
X58165943Y-44605152D02*
X58242133Y-44567057D01*
X58242133Y-44567057D02*
X58280228Y-44528961D01*
X58280228Y-44528961D02*
X58318324Y-44452771D01*
X58318324Y-44452771D02*
X58318324Y-44414676D01*
X58318324Y-44414676D02*
X58280228Y-44338485D01*
X58280228Y-44338485D02*
X58242133Y-44300390D01*
X58242133Y-44300390D02*
X58165943Y-44262295D01*
X58165943Y-44262295D02*
X58013562Y-44262295D01*
X58013562Y-44262295D02*
X57937371Y-44300390D01*
X57937371Y-44300390D02*
X57899276Y-44338485D01*
X57899276Y-44338485D02*
X57861181Y-44414676D01*
X57861181Y-44414676D02*
X57861181Y-44452771D01*
X57861181Y-44452771D02*
X57899276Y-44528961D01*
X57899276Y-44528961D02*
X57937371Y-44567057D01*
X57937371Y-44567057D02*
X58013562Y-44605152D01*
X58013562Y-44605152D02*
X58165943Y-44605152D01*
X58165943Y-44605152D02*
X58242133Y-44643247D01*
X58242133Y-44643247D02*
X58280228Y-44681342D01*
X58280228Y-44681342D02*
X58318324Y-44757533D01*
X58318324Y-44757533D02*
X58318324Y-44909914D01*
X58318324Y-44909914D02*
X58280228Y-44986104D01*
X58280228Y-44986104D02*
X58242133Y-45024200D01*
X58242133Y-45024200D02*
X58165943Y-45062295D01*
X58165943Y-45062295D02*
X58013562Y-45062295D01*
X58013562Y-45062295D02*
X57937371Y-45024200D01*
X57937371Y-45024200D02*
X57899276Y-44986104D01*
X57899276Y-44986104D02*
X57861181Y-44909914D01*
X57861181Y-44909914D02*
X57861181Y-44757533D01*
X57861181Y-44757533D02*
X57899276Y-44681342D01*
X57899276Y-44681342D02*
X57937371Y-44643247D01*
X57937371Y-44643247D02*
X58013562Y-44605152D01*
X56946895Y-44224200D02*
X57632609Y-45252771D01*
X56527847Y-44262295D02*
X56451657Y-44262295D01*
X56451657Y-44262295D02*
X56375466Y-44300390D01*
X56375466Y-44300390D02*
X56337371Y-44338485D01*
X56337371Y-44338485D02*
X56299276Y-44414676D01*
X56299276Y-44414676D02*
X56261181Y-44567057D01*
X56261181Y-44567057D02*
X56261181Y-44757533D01*
X56261181Y-44757533D02*
X56299276Y-44909914D01*
X56299276Y-44909914D02*
X56337371Y-44986104D01*
X56337371Y-44986104D02*
X56375466Y-45024200D01*
X56375466Y-45024200D02*
X56451657Y-45062295D01*
X56451657Y-45062295D02*
X56527847Y-45062295D01*
X56527847Y-45062295D02*
X56604038Y-45024200D01*
X56604038Y-45024200D02*
X56642133Y-44986104D01*
X56642133Y-44986104D02*
X56680228Y-44909914D01*
X56680228Y-44909914D02*
X56718324Y-44757533D01*
X56718324Y-44757533D02*
X56718324Y-44567057D01*
X56718324Y-44567057D02*
X56680228Y-44414676D01*
X56680228Y-44414676D02*
X56642133Y-44338485D01*
X56642133Y-44338485D02*
X56604038Y-44300390D01*
X56604038Y-44300390D02*
X56527847Y-44262295D01*
X55880228Y-45062295D02*
X55727847Y-45062295D01*
X55727847Y-45062295D02*
X55651657Y-45024200D01*
X55651657Y-45024200D02*
X55613561Y-44986104D01*
X55613561Y-44986104D02*
X55537371Y-44871819D01*
X55537371Y-44871819D02*
X55499276Y-44719438D01*
X55499276Y-44719438D02*
X55499276Y-44414676D01*
X55499276Y-44414676D02*
X55537371Y-44338485D01*
X55537371Y-44338485D02*
X55575466Y-44300390D01*
X55575466Y-44300390D02*
X55651657Y-44262295D01*
X55651657Y-44262295D02*
X55804038Y-44262295D01*
X55804038Y-44262295D02*
X55880228Y-44300390D01*
X55880228Y-44300390D02*
X55918323Y-44338485D01*
X55918323Y-44338485D02*
X55956419Y-44414676D01*
X55956419Y-44414676D02*
X55956419Y-44605152D01*
X55956419Y-44605152D02*
X55918323Y-44681342D01*
X55918323Y-44681342D02*
X55880228Y-44719438D01*
X55880228Y-44719438D02*
X55804038Y-44757533D01*
X55804038Y-44757533D02*
X55651657Y-44757533D01*
X55651657Y-44757533D02*
X55575466Y-44719438D01*
X55575466Y-44719438D02*
X55537371Y-44681342D01*
X55537371Y-44681342D02*
X55499276Y-44605152D01*
X54584990Y-44224200D02*
X55270704Y-45252771D01*
X54356419Y-44338485D02*
X54318323Y-44300390D01*
X54318323Y-44300390D02*
X54242133Y-44262295D01*
X54242133Y-44262295D02*
X54051657Y-44262295D01*
X54051657Y-44262295D02*
X53975466Y-44300390D01*
X53975466Y-44300390D02*
X53937371Y-44338485D01*
X53937371Y-44338485D02*
X53899276Y-44414676D01*
X53899276Y-44414676D02*
X53899276Y-44490866D01*
X53899276Y-44490866D02*
X53937371Y-44605152D01*
X53937371Y-44605152D02*
X54394514Y-45062295D01*
X54394514Y-45062295D02*
X53899276Y-45062295D01*
X53213561Y-44528961D02*
X53213561Y-45062295D01*
X53404037Y-44224200D02*
X53594514Y-44795628D01*
X53594514Y-44795628D02*
X53099275Y-44795628D01*
X52870704Y-45328961D02*
X52680228Y-45328961D01*
X52680228Y-45328961D02*
X52680228Y-44186104D01*
X52680228Y-44186104D02*
X52870704Y-44186104D01*
X40841666Y-50962295D02*
X40841666Y-51533723D01*
X40841666Y-51533723D02*
X40879761Y-51648009D01*
X40879761Y-51648009D02*
X40955952Y-51724200D01*
X40955952Y-51724200D02*
X41070237Y-51762295D01*
X41070237Y-51762295D02*
X41146428Y-51762295D01*
X40498809Y-51724200D02*
X40384523Y-51762295D01*
X40384523Y-51762295D02*
X40194047Y-51762295D01*
X40194047Y-51762295D02*
X40117856Y-51724200D01*
X40117856Y-51724200D02*
X40079761Y-51686104D01*
X40079761Y-51686104D02*
X40041666Y-51609914D01*
X40041666Y-51609914D02*
X40041666Y-51533723D01*
X40041666Y-51533723D02*
X40079761Y-51457533D01*
X40079761Y-51457533D02*
X40117856Y-51419438D01*
X40117856Y-51419438D02*
X40194047Y-51381342D01*
X40194047Y-51381342D02*
X40346428Y-51343247D01*
X40346428Y-51343247D02*
X40422618Y-51305152D01*
X40422618Y-51305152D02*
X40460713Y-51267057D01*
X40460713Y-51267057D02*
X40498809Y-51190866D01*
X40498809Y-51190866D02*
X40498809Y-51114676D01*
X40498809Y-51114676D02*
X40460713Y-51038485D01*
X40460713Y-51038485D02*
X40422618Y-51000390D01*
X40422618Y-51000390D02*
X40346428Y-50962295D01*
X40346428Y-50962295D02*
X40155951Y-50962295D01*
X40155951Y-50962295D02*
X40041666Y-51000390D01*
X39813094Y-50962295D02*
X39355951Y-50962295D01*
X39584523Y-51762295D02*
X39584523Y-50962295D01*
X39089284Y-51457533D02*
X38479761Y-51457533D01*
X38136904Y-51724200D02*
X38022618Y-51762295D01*
X38022618Y-51762295D02*
X37832142Y-51762295D01*
X37832142Y-51762295D02*
X37755951Y-51724200D01*
X37755951Y-51724200D02*
X37717856Y-51686104D01*
X37717856Y-51686104D02*
X37679761Y-51609914D01*
X37679761Y-51609914D02*
X37679761Y-51533723D01*
X37679761Y-51533723D02*
X37717856Y-51457533D01*
X37717856Y-51457533D02*
X37755951Y-51419438D01*
X37755951Y-51419438D02*
X37832142Y-51381342D01*
X37832142Y-51381342D02*
X37984523Y-51343247D01*
X37984523Y-51343247D02*
X38060713Y-51305152D01*
X38060713Y-51305152D02*
X38098808Y-51267057D01*
X38098808Y-51267057D02*
X38136904Y-51190866D01*
X38136904Y-51190866D02*
X38136904Y-51114676D01*
X38136904Y-51114676D02*
X38098808Y-51038485D01*
X38098808Y-51038485D02*
X38060713Y-51000390D01*
X38060713Y-51000390D02*
X37984523Y-50962295D01*
X37984523Y-50962295D02*
X37794046Y-50962295D01*
X37794046Y-50962295D02*
X37679761Y-51000390D01*
X37336903Y-51762295D02*
X37336903Y-50962295D01*
X37336903Y-51343247D02*
X36879760Y-51343247D01*
X36879760Y-51762295D02*
X36879760Y-50962295D01*
X46676190Y-45987295D02*
X47133333Y-45987295D01*
X46904761Y-45987295D02*
X46904761Y-45187295D01*
X46904761Y-45187295D02*
X46980952Y-45301580D01*
X46980952Y-45301580D02*
X47057142Y-45377771D01*
X47057142Y-45377771D02*
X47133333Y-45415866D01*
X46180951Y-45187295D02*
X46104761Y-45187295D01*
X46104761Y-45187295D02*
X46028570Y-45225390D01*
X46028570Y-45225390D02*
X45990475Y-45263485D01*
X45990475Y-45263485D02*
X45952380Y-45339676D01*
X45952380Y-45339676D02*
X45914285Y-45492057D01*
X45914285Y-45492057D02*
X45914285Y-45682533D01*
X45914285Y-45682533D02*
X45952380Y-45834914D01*
X45952380Y-45834914D02*
X45990475Y-45911104D01*
X45990475Y-45911104D02*
X46028570Y-45949200D01*
X46028570Y-45949200D02*
X46104761Y-45987295D01*
X46104761Y-45987295D02*
X46180951Y-45987295D01*
X46180951Y-45987295D02*
X46257142Y-45949200D01*
X46257142Y-45949200D02*
X46295237Y-45911104D01*
X46295237Y-45911104D02*
X46333332Y-45834914D01*
X46333332Y-45834914D02*
X46371428Y-45682533D01*
X46371428Y-45682533D02*
X46371428Y-45492057D01*
X46371428Y-45492057D02*
X46333332Y-45339676D01*
X46333332Y-45339676D02*
X46295237Y-45263485D01*
X46295237Y-45263485D02*
X46257142Y-45225390D01*
X46257142Y-45225390D02*
X46180951Y-45187295D01*
X45571427Y-45987295D02*
X45571427Y-45187295D01*
X45495237Y-45682533D02*
X45266665Y-45987295D01*
X45266665Y-45453961D02*
X45571427Y-45758723D01*
D11*
X50778641Y-44730000D02*
X50471359Y-44730000D01*
X50778641Y-43970000D02*
X50471359Y-43970000D01*
X62612836Y-44810000D02*
X62397164Y-44810000D01*
X62612836Y-44090000D02*
X62397164Y-44090000D01*
X53707836Y-53860000D02*
X53492164Y-53860000D01*
X53707836Y-53140000D02*
X53492164Y-53140000D01*
X48496359Y-52170000D02*
X48803641Y-52170000D01*
X48496359Y-52930000D02*
X48803641Y-52930000D01*
X50778641Y-41890000D02*
X50471359Y-41890000D01*
X50778641Y-41130000D02*
X50471359Y-41130000D01*
X49642164Y-47090000D02*
X49857836Y-47090000D01*
X49642164Y-47810000D02*
X49857836Y-47810000D01*
X50517164Y-40190000D02*
X50732836Y-40190000D01*
X50517164Y-40910000D02*
X50732836Y-40910000D01*
X62607836Y-59210000D02*
X62392164Y-59210000D01*
X62607836Y-58490000D02*
X62392164Y-58490000D01*
X49080000Y-41846359D02*
X49080000Y-42153641D01*
X48320000Y-41846359D02*
X48320000Y-42153641D01*
D12*
X44984923Y-49974264D02*
G75*
G03*
X44984923Y-49974264I-99999J0D01*
G01*
D11*
X42640000Y-43307836D02*
X42640000Y-43092164D01*
X43360000Y-43307836D02*
X43360000Y-43092164D01*
X50471359Y-43020000D02*
X50778641Y-43020000D01*
X50471359Y-43780000D02*
X50778641Y-43780000D01*
X47310000Y-51742164D02*
X47310000Y-51957836D01*
X46590000Y-51742164D02*
X46590000Y-51957836D01*
X50753641Y-56380000D02*
X50446359Y-56380000D01*
X50753641Y-55620000D02*
X50446359Y-55620000D01*
X43180000Y-45846359D02*
X43180000Y-46153641D01*
X42420000Y-45846359D02*
X42420000Y-46153641D01*
D13*
X41175000Y-58550000D02*
X38900000Y-58550000D01*
X41175000Y-57750000D02*
X41175000Y-58550000D01*
X36925000Y-57350000D02*
X36925000Y-53750000D01*
X41175000Y-53350000D02*
X41175000Y-52550000D01*
X41175000Y-52550000D02*
X38900000Y-52550000D01*
D14*
X41985000Y-58000000D02*
G75*
G03*
X41985000Y-58000000I-100000J0D01*
G01*
D11*
X62627836Y-52010000D02*
X62412164Y-52010000D01*
X62627836Y-51290000D02*
X62412164Y-51290000D01*
X57925000Y-57700000D02*
X54975000Y-57700000D01*
X57900000Y-54400000D02*
X54950000Y-54400000D01*
X44930000Y-45546359D02*
X44930000Y-45853641D01*
X44170000Y-45546359D02*
X44170000Y-45853641D01*
D15*
X41155000Y-50000000D02*
X38942000Y-50000000D01*
X41155000Y-50000000D02*
X41155000Y-49145000D01*
X36905000Y-48767000D02*
X36905000Y-47278000D01*
X41155000Y-46000000D02*
X41155000Y-46900000D01*
X41155000Y-46000000D02*
X38808000Y-46000000D01*
D11*
X60803641Y-52030000D02*
X60496359Y-52030000D01*
X60803641Y-51270000D02*
X60496359Y-51270000D01*
X54877836Y-47210000D02*
X54662164Y-47210000D01*
X54877836Y-46490000D02*
X54662164Y-46490000D01*
X50471359Y-42080000D02*
X50778641Y-42080000D01*
X50471359Y-42840000D02*
X50778641Y-42840000D01*
X48230000Y-55296359D02*
X48230000Y-55603641D01*
X47470000Y-55296359D02*
X47470000Y-55603641D01*
X60803641Y-59230000D02*
X60496359Y-59230000D01*
X60803641Y-58470000D02*
X60496359Y-58470000D01*
X44930000Y-47446359D02*
X44930000Y-47753641D01*
X44170000Y-47446359D02*
X44170000Y-47753641D01*
X48903641Y-46030000D02*
X48596359Y-46030000D01*
X48903641Y-45270000D02*
X48596359Y-45270000D01*
D15*
X41155000Y-45000000D02*
X38942000Y-45000000D01*
X41155000Y-45000000D02*
X41155000Y-44145000D01*
X36905000Y-43767000D02*
X36905000Y-42278000D01*
X41155000Y-41000000D02*
X41155000Y-41900000D01*
X41155000Y-41000000D02*
X38808000Y-41000000D01*
D11*
X50446359Y-54020000D02*
X50753641Y-54020000D01*
X50446359Y-54780000D02*
X50753641Y-54780000D01*
X57925000Y-43700000D02*
X54975000Y-43700000D01*
X57900000Y-40400000D02*
X54950000Y-40400000D01*
X54540000Y-51490000D02*
X58300000Y-51490000D01*
X54540000Y-53510000D02*
X54540000Y-51490000D01*
X54540000Y-53510000D02*
X58300000Y-53510000D01*
X50753641Y-57380000D02*
X50446359Y-57380000D01*
X50753641Y-56620000D02*
X50446359Y-56620000D01*
X45646359Y-55270000D02*
X45953641Y-55270000D01*
X45646359Y-56030000D02*
X45953641Y-56030000D01*
X60808641Y-44830000D02*
X60501359Y-44830000D01*
X60808641Y-44070000D02*
X60501359Y-44070000D01*
X44330000Y-43046359D02*
X44330000Y-43353641D01*
X43570000Y-43046359D02*
X43570000Y-43353641D01*
X41837836Y-59610000D02*
X41622164Y-59610000D01*
X41837836Y-58890000D02*
X41622164Y-58890000D01*
D16*
X51613000Y-51663600D02*
X51146341Y-51663600D01*
X51613000Y-51196941D02*
X51613000Y-51663600D01*
X51613000Y-48310800D02*
X51613000Y-48777459D01*
X51146341Y-48310800D02*
X51613000Y-48310800D01*
X48726859Y-51663600D02*
X48260200Y-51663600D01*
X48260200Y-51663600D02*
X48260200Y-51196941D01*
X48260200Y-48777459D02*
X48260200Y-48310800D01*
X48260200Y-48310800D02*
X48726859Y-48310800D01*
D17*
X52086600Y-48937200D02*
G75*
G03*
X52086600Y-48937200I-100000J0D01*
G01*
D11*
X41420000Y-46153641D02*
X41420000Y-45846359D01*
X42180000Y-46153641D02*
X42180000Y-45846359D01*
X57925000Y-50900000D02*
X54975000Y-50900000D01*
X57900000Y-47600000D02*
X54950000Y-47600000D01*
%LPC*%
D18*
X61850000Y-53550000D03*
X61850000Y-49750000D03*
X56450000Y-38100000D03*
X61850000Y-46350000D03*
X61850000Y-42550000D03*
X56450000Y-61900000D03*
X61850000Y-56950000D03*
D19*
X51135000Y-44350000D03*
X50115000Y-44350000D03*
D20*
X62985000Y-44450000D03*
X62025000Y-44450000D03*
X54080000Y-53500000D03*
X53120000Y-53500000D03*
D21*
X51500000Y-60850000D03*
X51500000Y-62750000D03*
D22*
X48140000Y-52550000D03*
X49160000Y-52550000D03*
D19*
X51135000Y-41510000D03*
X50115000Y-41510000D03*
D23*
X49270000Y-47450000D03*
X50230000Y-47450000D03*
D24*
X45500000Y-39150000D03*
X45500000Y-37250000D03*
X51500000Y-39150000D03*
X51500000Y-37250000D03*
D23*
X50145000Y-40550000D03*
X51105000Y-40550000D03*
D20*
X62980000Y-58850000D03*
X62020000Y-58850000D03*
D25*
X48700000Y-41490000D03*
X48700000Y-42510000D03*
D26*
X44453589Y-49542929D03*
X44100036Y-49896482D03*
X43746482Y-50250036D03*
X43392929Y-50603589D03*
X42346411Y-49557071D03*
X42699964Y-49203518D03*
X43053518Y-48849964D03*
X43407071Y-48496411D03*
D27*
X43000000Y-43680000D03*
X43000000Y-42720000D03*
D24*
X49500000Y-39150000D03*
X49500000Y-37250000D03*
D22*
X50115000Y-43400000D03*
X51135000Y-43400000D03*
D28*
X46950000Y-51370000D03*
X46950000Y-52330000D03*
D21*
X45500000Y-60850000D03*
X45500000Y-62750000D03*
D24*
X43500000Y-39150000D03*
X43500000Y-37250000D03*
X47500000Y-39150000D03*
X47500000Y-37250000D03*
D29*
X44050000Y-40900000D03*
X42150000Y-40900000D03*
D19*
X51110000Y-56000000D03*
X50090000Y-56000000D03*
D29*
X47450000Y-40900000D03*
X45550000Y-40900000D03*
D25*
X42800000Y-45490000D03*
X42800000Y-46510000D03*
D30*
X41500000Y-57050000D03*
X41500000Y-56050000D03*
X41500000Y-55050000D03*
X41500000Y-54050000D03*
D31*
X37625000Y-58350000D03*
X37625000Y-52750000D03*
D20*
X63000000Y-51650000D03*
X62040000Y-51650000D03*
D32*
X59150000Y-56050000D03*
X53750000Y-56050000D03*
D21*
X47500000Y-60850000D03*
X47500000Y-62750000D03*
D25*
X44550000Y-45190000D03*
X44550000Y-46210000D03*
D33*
X41650000Y-61750000D03*
D30*
X41480000Y-48500000D03*
X41480000Y-47500000D03*
D31*
X37605000Y-49800000D03*
X37605000Y-46200000D03*
D34*
X46485000Y-43250000D03*
X45215000Y-43250000D03*
D19*
X61160000Y-51650000D03*
X60140000Y-51650000D03*
D24*
X47150000Y-59350000D03*
X47150000Y-57450000D03*
D20*
X55250000Y-46850000D03*
X54290000Y-46850000D03*
D22*
X50115000Y-42460000D03*
X51135000Y-42460000D03*
D25*
X47850000Y-54940000D03*
X47850000Y-55960000D03*
D21*
X49500000Y-60850000D03*
X49500000Y-62750000D03*
D19*
X61160000Y-58850000D03*
X60140000Y-58850000D03*
D25*
X44550000Y-47090000D03*
X44550000Y-48110000D03*
D19*
X49260000Y-45650000D03*
X48240000Y-45650000D03*
D30*
X41480000Y-43500000D03*
X41480000Y-42500000D03*
D31*
X37605000Y-44800000D03*
X37605000Y-41200000D03*
D22*
X50090000Y-54400000D03*
X51110000Y-54400000D03*
D32*
X59150000Y-42050000D03*
X53750000Y-42050000D03*
D35*
X55450000Y-52500000D03*
X58350000Y-52500000D03*
D19*
X51110000Y-57000000D03*
X50090000Y-57000000D03*
D24*
X53500000Y-39150000D03*
X53500000Y-37250000D03*
D21*
X43500000Y-60850000D03*
X43500000Y-62750000D03*
D22*
X45290000Y-55650000D03*
X46310000Y-55650000D03*
D19*
X61165000Y-44450000D03*
X60145000Y-44450000D03*
D25*
X43950000Y-42690000D03*
X43950000Y-43710000D03*
D20*
X42210000Y-59250000D03*
X41250000Y-59250000D03*
D24*
X45150000Y-59350000D03*
X45150000Y-57450000D03*
D36*
X51384400Y-49237199D03*
X51384400Y-49737200D03*
X51384400Y-50237200D03*
X51384400Y-50737201D03*
D37*
X50686601Y-51435000D03*
X50186600Y-51435000D03*
X49686600Y-51435000D03*
X49186599Y-51435000D03*
D36*
X48488800Y-50737201D03*
X48488800Y-50237200D03*
X48488800Y-49737200D03*
X48488800Y-49237199D03*
D37*
X49186599Y-48539400D03*
X49686600Y-48539400D03*
X50186600Y-48539400D03*
X50686601Y-48539400D03*
D38*
X49936600Y-49987200D03*
D29*
X50800000Y-59100000D03*
X48900000Y-59100000D03*
D33*
X41550000Y-38300000D03*
D39*
X41800000Y-46510000D03*
X41800000Y-45490000D03*
D21*
X53500000Y-60850000D03*
X53500000Y-62750000D03*
D32*
X59150000Y-49250000D03*
X53750000Y-49250000D03*
%LPD*%
M02*
