G04 #@! TF.GenerationSoftware,KiCad,Pcbnew,7.0.7*
G04 #@! TF.CreationDate,2024-08-09T21:04:11-05:00*
G04 #@! TF.ProjectId,O32controller,4f333263-6f6e-4747-926f-6c6c65722e6b,3.1*
G04 #@! TF.SameCoordinates,Original*
G04 #@! TF.FileFunction,Soldermask,Top*
G04 #@! TF.FilePolarity,Negative*
%FSLAX46Y46*%
G04 Gerber Fmt 4.6, Leading zero omitted, Abs format (unit mm)*
G04 Created by KiCad (PCBNEW 7.0.7) date 2024-08-09 21:04:11*
%MOMM*%
%LPD*%
G01*
G04 APERTURE LIST*
G04 Aperture macros list*
%AMRoundRect*
0 Rectangle with rounded corners*
0 $1 Rounding radius*
0 $2 $3 $4 $5 $6 $7 $8 $9 X,Y pos of 4 corners*
0 Add a 4 corners polygon primitive as box body*
4,1,4,$2,$3,$4,$5,$6,$7,$8,$9,$2,$3,0*
0 Add four circle primitives for the rounded corners*
1,1,$1+$1,$2,$3*
1,1,$1+$1,$4,$5*
1,1,$1+$1,$6,$7*
1,1,$1+$1,$8,$9*
0 Add four rect primitives between the rounded corners*
20,1,$1+$1,$2,$3,$4,$5,0*
20,1,$1+$1,$4,$5,$6,$7,0*
20,1,$1+$1,$6,$7,$8,$9,0*
20,1,$1+$1,$8,$9,$2,$3,0*%
%AMFreePoly0*
4,1,78,0.535355,2.120355,0.550000,2.085000,0.550000,1.935000,0.535355,1.899645,0.500000,1.885000,0.150000,1.885000,0.150000,1.635000,0.500000,1.635000,0.535355,1.620355,0.550000,1.585000,0.550000,1.435000,0.535355,1.399645,0.500000,1.385000,0.150000,1.385000,0.150000,1.135000,0.500000,1.135000,0.535355,1.120355,0.550000,1.085000,0.550000,0.935000,0.535355,0.899645,
0.500000,0.885000,0.150000,0.885000,0.150000,0.635000,0.500000,0.635000,0.535355,0.620355,0.550000,0.585000,0.550000,0.435000,0.535355,0.399645,0.500000,0.385000,0.150000,0.385000,0.150000,0.135000,0.500000,0.135000,0.535355,0.120355,0.550000,0.085000,0.550000,-0.065000,0.535355,-0.100355,0.500000,-0.115000,0.150000,-0.115000,0.150000,-0.365000,0.500000,-0.365000,
0.535355,-0.379645,0.550000,-0.415000,0.550000,-0.565000,0.535355,-0.600355,0.500000,-0.615000,0.150000,-0.615000,0.150000,-0.865000,0.500000,-0.865000,0.535355,-0.879645,0.550000,-0.915000,0.550000,-1.065000,0.535355,-1.100355,0.500000,-1.115000,0.150000,-1.115000,0.150000,-1.365000,0.500000,-1.365000,0.535355,-1.379645,0.550000,-1.415000,0.550000,-1.565000,0.535355,-1.600355,
0.500000,-1.615000,0.150000,-1.615000,0.150000,-1.865000,0.500000,-1.865000,0.535355,-1.879645,0.550000,-1.915000,0.550000,-2.065000,0.535355,-2.100355,0.500000,-2.115000,-0.100000,-2.115000,-0.102414,-2.114000,-0.150000,-2.114000,-0.150000,2.114000,-0.137987,2.114000,-0.135355,2.120355,-0.100000,2.135000,0.500000,2.135000,0.535355,2.120355,0.535355,2.120355,$1*%
G04 Aperture macros list end*
%ADD10RoundRect,0.250000X-0.475000X0.250000X-0.475000X-0.250000X0.475000X-0.250000X0.475000X0.250000X0*%
%ADD11RoundRect,0.250000X0.475000X-0.250000X0.475000X0.250000X-0.475000X0.250000X-0.475000X-0.250000X0*%
%ADD12R,0.385000X0.690000*%
%ADD13R,1.035000X0.690000*%
%ADD14RoundRect,0.150000X-0.850000X-0.150000X0.850000X-0.150000X0.850000X0.150000X-0.850000X0.150000X0*%
%ADD15RoundRect,0.269607X-1.105393X-1.105393X1.105393X-1.105393X1.105393X1.105393X-1.105393X1.105393X0*%
%ADD16RoundRect,0.218750X0.256250X-0.218750X0.256250X0.218750X-0.256250X0.218750X-0.256250X-0.218750X0*%
%ADD17RoundRect,0.150000X-0.600000X-0.150000X0.600000X-0.150000X0.600000X0.150000X-0.600000X0.150000X0*%
%ADD18RoundRect,0.140000X0.140000X0.170000X-0.140000X0.170000X-0.140000X-0.170000X0.140000X-0.170000X0*%
%ADD19RoundRect,0.225000X0.250000X-0.225000X0.250000X0.225000X-0.250000X0.225000X-0.250000X-0.225000X0*%
%ADD20RoundRect,0.135000X0.135000X0.185000X-0.135000X0.185000X-0.135000X-0.185000X0.135000X-0.185000X0*%
%ADD21RoundRect,0.062500X-0.375000X-0.062500X0.375000X-0.062500X0.375000X0.062500X-0.375000X0.062500X0*%
%ADD22RoundRect,0.062500X-0.062500X-0.375000X0.062500X-0.375000X0.062500X0.375000X-0.062500X0.375000X0*%
%ADD23R,2.800000X2.800000*%
%ADD24RoundRect,0.135000X0.185000X-0.135000X0.185000X0.135000X-0.185000X0.135000X-0.185000X-0.135000X0*%
%ADD25RoundRect,0.140000X-0.170000X0.140000X-0.170000X-0.140000X0.170000X-0.140000X0.170000X0.140000X0*%
%ADD26RoundRect,0.135000X-0.135000X-0.185000X0.135000X-0.185000X0.135000X0.185000X-0.135000X0.185000X0*%
%ADD27R,0.700001X0.249999*%
%ADD28FreePoly0,0.000000*%
%ADD29FreePoly0,180.000000*%
%ADD30R,0.429999X0.375001*%
%ADD31R,3.300001X5.399999*%
%ADD32R,1.600000X0.650000*%
%ADD33RoundRect,0.135000X-0.185000X0.135000X-0.185000X-0.135000X0.185000X-0.135000X0.185000X0.135000X0*%
%ADD34RoundRect,0.140000X0.170000X-0.140000X0.170000X0.140000X-0.170000X0.140000X-0.170000X-0.140000X0*%
%ADD35RoundRect,0.225000X-0.250000X0.225000X-0.250000X-0.225000X0.250000X-0.225000X0.250000X0.225000X0*%
%ADD36R,0.690000X0.385000*%
%ADD37R,0.690000X1.035000*%
G04 APERTURE END LIST*
D10*
X50425000Y-60850000D03*
X50425000Y-62750000D03*
D11*
X50275000Y-39150000D03*
X50275000Y-37250000D03*
D12*
X40108500Y-45900000D03*
D13*
X39116500Y-45900000D03*
D14*
X38074800Y-55041800D03*
X38074800Y-56311800D03*
X38074800Y-57581800D03*
X38074800Y-58851800D03*
D15*
X61850000Y-53550000D03*
X61850000Y-49750000D03*
X56450000Y-38100000D03*
D16*
X37250000Y-45775000D03*
X37250000Y-44200000D03*
D10*
X44350000Y-40650000D03*
X44350000Y-42550000D03*
D17*
X41935600Y-58216800D03*
D18*
X43180000Y-44450000D03*
X42220000Y-44450000D03*
D19*
X37550000Y-50925000D03*
X37550000Y-49375000D03*
D20*
X51060000Y-49200000D03*
X50040000Y-49200000D03*
D10*
X48450000Y-60850000D03*
X48450000Y-62750000D03*
X44500000Y-60850000D03*
X44500000Y-62750000D03*
D20*
X45310000Y-54900000D03*
X44290000Y-54900000D03*
D21*
X41562500Y-47250000D03*
X41562500Y-47750000D03*
X41562500Y-48250000D03*
X41562500Y-48750000D03*
X41562500Y-49250000D03*
X41562500Y-49750000D03*
X41562500Y-50250000D03*
X41562500Y-50750000D03*
X41562500Y-51250000D03*
X41562500Y-51750000D03*
X41562500Y-52250000D03*
X41562500Y-52750000D03*
D22*
X42250000Y-53437500D03*
X42750000Y-53437500D03*
X43250000Y-53437500D03*
X43750000Y-53437500D03*
X44250000Y-53437500D03*
X44750000Y-53437500D03*
X45250000Y-53437500D03*
X45750000Y-53437500D03*
X46250000Y-53437500D03*
X46750000Y-53437500D03*
X47250000Y-53437500D03*
X47750000Y-53437500D03*
D21*
X48437500Y-52750000D03*
X48437500Y-52250000D03*
X48437500Y-51750000D03*
X48437500Y-51250000D03*
X48437500Y-50750000D03*
X48437500Y-50250000D03*
X48437500Y-49750000D03*
X48437500Y-49250000D03*
X48437500Y-48750000D03*
X48437500Y-48250000D03*
X48437500Y-47750000D03*
X48437500Y-47250000D03*
D22*
X47750000Y-46562500D03*
X47250000Y-46562500D03*
X46750000Y-46562500D03*
X46250000Y-46562500D03*
X45750000Y-46562500D03*
X45250000Y-46562500D03*
X44750000Y-46562500D03*
X44250000Y-46562500D03*
X43750000Y-46562500D03*
X43250000Y-46562500D03*
X42750000Y-46562500D03*
X42250000Y-46562500D03*
D23*
X45000000Y-50000000D03*
D10*
X46325000Y-40650000D03*
X46325000Y-42550000D03*
D18*
X45280000Y-55850000D03*
X44320000Y-55850000D03*
D10*
X42375000Y-40650000D03*
X42375000Y-42550000D03*
D24*
X47600000Y-55920000D03*
X47600000Y-54900000D03*
D25*
X50550000Y-50120000D03*
X50550000Y-51080000D03*
D11*
X44350000Y-39150000D03*
X44350000Y-37250000D03*
D20*
X43060000Y-55550000D03*
X42040000Y-55550000D03*
D26*
X49540000Y-54300000D03*
X50560000Y-54300000D03*
D27*
X58800000Y-52500000D03*
X58800000Y-52000001D03*
D28*
X58600000Y-49511000D03*
D29*
X54300000Y-49490000D03*
D27*
X54100000Y-52000001D03*
X54100000Y-52500000D03*
D30*
X58565000Y-53012999D03*
X58565000Y-46987001D03*
X54335000Y-46987001D03*
X54335000Y-53012999D03*
D31*
X56450000Y-50000000D03*
D24*
X38450000Y-42810000D03*
X38450000Y-41790000D03*
D25*
X49900000Y-46640000D03*
X49900000Y-47600000D03*
D18*
X43030000Y-54600000D03*
X42070000Y-54600000D03*
D32*
X38050000Y-52225000D03*
X38050000Y-53575000D03*
D15*
X61850000Y-46350000D03*
D24*
X38450000Y-44860000D03*
X38450000Y-43840000D03*
D27*
X58800000Y-59500000D03*
X58800000Y-59000001D03*
D28*
X58600000Y-56511000D03*
D29*
X54300000Y-56490000D03*
D27*
X54100000Y-59000001D03*
X54100000Y-59500000D03*
D30*
X58565000Y-60012999D03*
X58565000Y-53987001D03*
X54335000Y-53987001D03*
X54335000Y-60012999D03*
D31*
X56450000Y-57000000D03*
D20*
X43210000Y-45400000D03*
X42190000Y-45400000D03*
D15*
X61850000Y-42550000D03*
D33*
X40200000Y-46960000D03*
X40200000Y-47980000D03*
D34*
X41250000Y-45400000D03*
X41250000Y-44440000D03*
D11*
X49500000Y-59350000D03*
X49500000Y-57450000D03*
D25*
X48600000Y-54940000D03*
X48600000Y-55900000D03*
X40400000Y-51900000D03*
X40400000Y-52860000D03*
D26*
X50930000Y-47550000D03*
X51950000Y-47550000D03*
D11*
X48300000Y-39150000D03*
X48300000Y-37250000D03*
X52250000Y-39150000D03*
X52250000Y-37250000D03*
D10*
X46475000Y-60850000D03*
X46475000Y-62750000D03*
X48300000Y-40650000D03*
X48300000Y-42550000D03*
D16*
X37250000Y-42800000D03*
X37250000Y-41225000D03*
D11*
X46325000Y-39150000D03*
X46325000Y-37250000D03*
X42375000Y-39150000D03*
X42375000Y-37250000D03*
X47525000Y-59350000D03*
X47525000Y-57450000D03*
D26*
X42040000Y-56500000D03*
X43060000Y-56500000D03*
D10*
X50550000Y-40650000D03*
X50550000Y-42550000D03*
D27*
X58800000Y-45500000D03*
X58800000Y-45000001D03*
D28*
X58600000Y-42511000D03*
D29*
X54300000Y-42490000D03*
D27*
X54100000Y-45000001D03*
X54100000Y-45500000D03*
D30*
X58565000Y-46012999D03*
X58565000Y-39987001D03*
X54335000Y-39987001D03*
X54335000Y-46012999D03*
D31*
X56450000Y-43000000D03*
D20*
X52760000Y-45200000D03*
X51740000Y-45200000D03*
D12*
X39825500Y-54700000D03*
D13*
X40817500Y-54700000D03*
D15*
X56450000Y-61900000D03*
D11*
X45550000Y-59350000D03*
X45550000Y-57450000D03*
D10*
X42525000Y-60850000D03*
X42525000Y-62750000D03*
X52400000Y-60850000D03*
X52400000Y-62750000D03*
D35*
X39050000Y-49375000D03*
X39050000Y-50925000D03*
D36*
X37500000Y-48224500D03*
D37*
X37500000Y-47232500D03*
D15*
X61850000Y-56950000D03*
D25*
X39250000Y-46970000D03*
X39250000Y-47930000D03*
D20*
X50560000Y-53350000D03*
X49540000Y-53350000D03*
D26*
X51890000Y-53250000D03*
X52910000Y-53250000D03*
M02*
