G04 #@! TF.GenerationSoftware,KiCad,Pcbnew,7.0.7*
G04 #@! TF.CreationDate,2024-08-09T21:04:11-05:00*
G04 #@! TF.ProjectId,O32controller,4f333263-6f6e-4747-926f-6c6c65722e6b,3.1*
G04 #@! TF.SameCoordinates,Original*
G04 #@! TF.FileFunction,Copper,L1,Top*
G04 #@! TF.FilePolarity,Positive*
%FSLAX46Y46*%
G04 Gerber Fmt 4.6, Leading zero omitted, Abs format (unit mm)*
G04 Created by KiCad (PCBNEW 7.0.7) date 2024-08-09 21:04:11*
%MOMM*%
%LPD*%
G01*
G04 APERTURE LIST*
G04 Aperture macros list*
%AMRoundRect*
0 Rectangle with rounded corners*
0 $1 Rounding radius*
0 $2 $3 $4 $5 $6 $7 $8 $9 X,Y pos of 4 corners*
0 Add a 4 corners polygon primitive as box body*
4,1,4,$2,$3,$4,$5,$6,$7,$8,$9,$2,$3,0*
0 Add four circle primitives for the rounded corners*
1,1,$1+$1,$2,$3*
1,1,$1+$1,$4,$5*
1,1,$1+$1,$6,$7*
1,1,$1+$1,$8,$9*
0 Add four rect primitives between the rounded corners*
20,1,$1+$1,$2,$3,$4,$5,0*
20,1,$1+$1,$4,$5,$6,$7,0*
20,1,$1+$1,$6,$7,$8,$9,0*
20,1,$1+$1,$8,$9,$2,$3,0*%
%AMFreePoly0*
4,1,78,0.535355,2.120355,0.550000,2.085000,0.550000,1.935000,0.535355,1.899645,0.500000,1.885000,0.150000,1.885000,0.150000,1.635000,0.500000,1.635000,0.535355,1.620355,0.550000,1.585000,0.550000,1.435000,0.535355,1.399645,0.500000,1.385000,0.150000,1.385000,0.150000,1.135000,0.500000,1.135000,0.535355,1.120355,0.550000,1.085000,0.550000,0.935000,0.535355,0.899645,
0.500000,0.885000,0.150000,0.885000,0.150000,0.635000,0.500000,0.635000,0.535355,0.620355,0.550000,0.585000,0.550000,0.435000,0.535355,0.399645,0.500000,0.385000,0.150000,0.385000,0.150000,0.135000,0.500000,0.135000,0.535355,0.120355,0.550000,0.085000,0.550000,-0.065000,0.535355,-0.100355,0.500000,-0.115000,0.150000,-0.115000,0.150000,-0.365000,0.500000,-0.365000,
0.535355,-0.379645,0.550000,-0.415000,0.550000,-0.565000,0.535355,-0.600355,0.500000,-0.615000,0.150000,-0.615000,0.150000,-0.865000,0.500000,-0.865000,0.535355,-0.879645,0.550000,-0.915000,0.550000,-1.065000,0.535355,-1.100355,0.500000,-1.115000,0.150000,-1.115000,0.150000,-1.365000,0.500000,-1.365000,0.535355,-1.379645,0.550000,-1.415000,0.550000,-1.565000,0.535355,-1.600355,
0.500000,-1.615000,0.150000,-1.615000,0.150000,-1.865000,0.500000,-1.865000,0.535355,-1.879645,0.550000,-1.915000,0.550000,-2.065000,0.535355,-2.100355,0.500000,-2.115000,-0.100000,-2.115000,-0.102414,-2.114000,-0.150000,-2.114000,-0.150000,2.114000,-0.137987,2.114000,-0.135355,2.120355,-0.100000,2.135000,0.500000,2.135000,0.535355,2.120355,0.535355,2.120355,$1*%
G04 Aperture macros list end*
G04 #@! TA.AperFunction,SMDPad,CuDef*
%ADD10RoundRect,0.250000X-0.475000X0.250000X-0.475000X-0.250000X0.475000X-0.250000X0.475000X0.250000X0*%
G04 #@! TD*
G04 #@! TA.AperFunction,SMDPad,CuDef*
%ADD11RoundRect,0.250000X0.475000X-0.250000X0.475000X0.250000X-0.475000X0.250000X-0.475000X-0.250000X0*%
G04 #@! TD*
G04 #@! TA.AperFunction,SMDPad,CuDef*
%ADD12R,0.385000X0.690000*%
G04 #@! TD*
G04 #@! TA.AperFunction,SMDPad,CuDef*
%ADD13R,1.035000X0.690000*%
G04 #@! TD*
G04 #@! TA.AperFunction,SMDPad,CuDef*
%ADD14RoundRect,0.150000X-0.850000X-0.150000X0.850000X-0.150000X0.850000X0.150000X-0.850000X0.150000X0*%
G04 #@! TD*
G04 #@! TA.AperFunction,ComponentPad*
%ADD15RoundRect,0.269607X-1.105393X-1.105393X1.105393X-1.105393X1.105393X1.105393X-1.105393X1.105393X0*%
G04 #@! TD*
G04 #@! TA.AperFunction,SMDPad,CuDef*
%ADD16RoundRect,0.218750X0.256250X-0.218750X0.256250X0.218750X-0.256250X0.218750X-0.256250X-0.218750X0*%
G04 #@! TD*
G04 #@! TA.AperFunction,SMDPad,CuDef*
%ADD17RoundRect,0.150000X-0.600000X-0.150000X0.600000X-0.150000X0.600000X0.150000X-0.600000X0.150000X0*%
G04 #@! TD*
G04 #@! TA.AperFunction,SMDPad,CuDef*
%ADD18RoundRect,0.140000X0.140000X0.170000X-0.140000X0.170000X-0.140000X-0.170000X0.140000X-0.170000X0*%
G04 #@! TD*
G04 #@! TA.AperFunction,SMDPad,CuDef*
%ADD19RoundRect,0.225000X0.250000X-0.225000X0.250000X0.225000X-0.250000X0.225000X-0.250000X-0.225000X0*%
G04 #@! TD*
G04 #@! TA.AperFunction,SMDPad,CuDef*
%ADD20RoundRect,0.135000X0.135000X0.185000X-0.135000X0.185000X-0.135000X-0.185000X0.135000X-0.185000X0*%
G04 #@! TD*
G04 #@! TA.AperFunction,SMDPad,CuDef*
%ADD21RoundRect,0.062500X-0.375000X-0.062500X0.375000X-0.062500X0.375000X0.062500X-0.375000X0.062500X0*%
G04 #@! TD*
G04 #@! TA.AperFunction,SMDPad,CuDef*
%ADD22RoundRect,0.062500X-0.062500X-0.375000X0.062500X-0.375000X0.062500X0.375000X-0.062500X0.375000X0*%
G04 #@! TD*
G04 #@! TA.AperFunction,SMDPad,CuDef*
%ADD23R,2.800000X2.800000*%
G04 #@! TD*
G04 #@! TA.AperFunction,SMDPad,CuDef*
%ADD24RoundRect,0.135000X0.185000X-0.135000X0.185000X0.135000X-0.185000X0.135000X-0.185000X-0.135000X0*%
G04 #@! TD*
G04 #@! TA.AperFunction,SMDPad,CuDef*
%ADD25RoundRect,0.140000X-0.170000X0.140000X-0.170000X-0.140000X0.170000X-0.140000X0.170000X0.140000X0*%
G04 #@! TD*
G04 #@! TA.AperFunction,SMDPad,CuDef*
%ADD26RoundRect,0.135000X-0.135000X-0.185000X0.135000X-0.185000X0.135000X0.185000X-0.135000X0.185000X0*%
G04 #@! TD*
G04 #@! TA.AperFunction,SMDPad,CuDef*
%ADD27R,0.700001X0.249999*%
G04 #@! TD*
G04 #@! TA.AperFunction,SMDPad,CuDef*
%ADD28FreePoly0,0.000000*%
G04 #@! TD*
G04 #@! TA.AperFunction,SMDPad,CuDef*
%ADD29FreePoly0,180.000000*%
G04 #@! TD*
G04 #@! TA.AperFunction,SMDPad,CuDef*
%ADD30R,0.429999X0.375001*%
G04 #@! TD*
G04 #@! TA.AperFunction,SMDPad,CuDef*
%ADD31R,3.300001X5.399999*%
G04 #@! TD*
G04 #@! TA.AperFunction,SMDPad,CuDef*
%ADD32R,1.600000X0.650000*%
G04 #@! TD*
G04 #@! TA.AperFunction,SMDPad,CuDef*
%ADD33RoundRect,0.135000X-0.185000X0.135000X-0.185000X-0.135000X0.185000X-0.135000X0.185000X0.135000X0*%
G04 #@! TD*
G04 #@! TA.AperFunction,SMDPad,CuDef*
%ADD34RoundRect,0.140000X0.170000X-0.140000X0.170000X0.140000X-0.170000X0.140000X-0.170000X-0.140000X0*%
G04 #@! TD*
G04 #@! TA.AperFunction,SMDPad,CuDef*
%ADD35RoundRect,0.225000X-0.250000X0.225000X-0.250000X-0.225000X0.250000X-0.225000X0.250000X0.225000X0*%
G04 #@! TD*
G04 #@! TA.AperFunction,SMDPad,CuDef*
%ADD36R,0.690000X0.385000*%
G04 #@! TD*
G04 #@! TA.AperFunction,SMDPad,CuDef*
%ADD37R,0.690000X1.035000*%
G04 #@! TD*
G04 #@! TA.AperFunction,ViaPad*
%ADD38C,0.550000*%
G04 #@! TD*
G04 #@! TA.AperFunction,Conductor*
%ADD39C,0.250000*%
G04 #@! TD*
G04 #@! TA.AperFunction,Conductor*
%ADD40C,0.200000*%
G04 #@! TD*
G04 #@! TA.AperFunction,Conductor*
%ADD41C,0.500000*%
G04 #@! TD*
G04 APERTURE END LIST*
D10*
X50425000Y-60850000D03*
X50425000Y-62750000D03*
D11*
X50275000Y-39150000D03*
X50275000Y-37250000D03*
D12*
X40108500Y-45900000D03*
D13*
X39116500Y-45900000D03*
D14*
X38074800Y-55041800D03*
X38074800Y-56311800D03*
X38074800Y-57581800D03*
X38074800Y-58851800D03*
D15*
X61850000Y-53550000D03*
X61850000Y-49750000D03*
X56450000Y-38100000D03*
D16*
X37250000Y-45775000D03*
X37250000Y-44200000D03*
D10*
X44350000Y-40650000D03*
X44350000Y-42550000D03*
D17*
X41935600Y-58216800D03*
D18*
X43180000Y-44450000D03*
X42220000Y-44450000D03*
D19*
X37550000Y-50925000D03*
X37550000Y-49375000D03*
D20*
X51060000Y-49200000D03*
X50040000Y-49200000D03*
D10*
X48450000Y-60850000D03*
X48450000Y-62750000D03*
X44500000Y-60850000D03*
X44500000Y-62750000D03*
D20*
X45310000Y-54900000D03*
X44290000Y-54900000D03*
D21*
X41562500Y-47250000D03*
X41562500Y-47750000D03*
X41562500Y-48250000D03*
X41562500Y-48750000D03*
X41562500Y-49250000D03*
X41562500Y-49750000D03*
X41562500Y-50250000D03*
X41562500Y-50750000D03*
X41562500Y-51250000D03*
X41562500Y-51750000D03*
X41562500Y-52250000D03*
X41562500Y-52750000D03*
D22*
X42250000Y-53437500D03*
X42750000Y-53437500D03*
X43250000Y-53437500D03*
X43750000Y-53437500D03*
X44250000Y-53437500D03*
X44750000Y-53437500D03*
X45250000Y-53437500D03*
X45750000Y-53437500D03*
X46250000Y-53437500D03*
X46750000Y-53437500D03*
X47250000Y-53437500D03*
X47750000Y-53437500D03*
D21*
X48437500Y-52750000D03*
X48437500Y-52250000D03*
X48437500Y-51750000D03*
X48437500Y-51250000D03*
X48437500Y-50750000D03*
X48437500Y-50250000D03*
X48437500Y-49750000D03*
X48437500Y-49250000D03*
X48437500Y-48750000D03*
X48437500Y-48250000D03*
X48437500Y-47750000D03*
X48437500Y-47250000D03*
D22*
X47750000Y-46562500D03*
X47250000Y-46562500D03*
X46750000Y-46562500D03*
X46250000Y-46562500D03*
X45750000Y-46562500D03*
X45250000Y-46562500D03*
X44750000Y-46562500D03*
X44250000Y-46562500D03*
X43750000Y-46562500D03*
X43250000Y-46562500D03*
X42750000Y-46562500D03*
X42250000Y-46562500D03*
D23*
X45000000Y-50000000D03*
D10*
X46325000Y-40650000D03*
X46325000Y-42550000D03*
D18*
X45280000Y-55850000D03*
X44320000Y-55850000D03*
D10*
X42375000Y-40650000D03*
X42375000Y-42550000D03*
D24*
X47600000Y-55920000D03*
X47600000Y-54900000D03*
D25*
X50550000Y-50120000D03*
X50550000Y-51080000D03*
D11*
X44350000Y-39150000D03*
X44350000Y-37250000D03*
D20*
X43060000Y-55550000D03*
X42040000Y-55550000D03*
D26*
X49540000Y-54300000D03*
X50560000Y-54300000D03*
D27*
X58800000Y-52500000D03*
X58800000Y-52000001D03*
D28*
X58600000Y-49511000D03*
D29*
X54300000Y-49490000D03*
D27*
X54100000Y-52000001D03*
X54100000Y-52500000D03*
D30*
X58565000Y-53012999D03*
X58565000Y-46987001D03*
X54335000Y-46987001D03*
X54335000Y-53012999D03*
D31*
X56450000Y-50000000D03*
D24*
X38450000Y-42810000D03*
X38450000Y-41790000D03*
D25*
X49900000Y-46640000D03*
X49900000Y-47600000D03*
D18*
X43030000Y-54600000D03*
X42070000Y-54600000D03*
D32*
X38050000Y-52225000D03*
X38050000Y-53575000D03*
D15*
X61850000Y-46350000D03*
D24*
X38450000Y-44860000D03*
X38450000Y-43840000D03*
D27*
X58800000Y-59500000D03*
X58800000Y-59000001D03*
D28*
X58600000Y-56511000D03*
D29*
X54300000Y-56490000D03*
D27*
X54100000Y-59000001D03*
X54100000Y-59500000D03*
D30*
X58565000Y-60012999D03*
X58565000Y-53987001D03*
X54335000Y-53987001D03*
X54335000Y-60012999D03*
D31*
X56450000Y-57000000D03*
D20*
X43210000Y-45400000D03*
X42190000Y-45400000D03*
D15*
X61850000Y-42550000D03*
D33*
X40200000Y-46960000D03*
X40200000Y-47980000D03*
D34*
X41250000Y-45400000D03*
X41250000Y-44440000D03*
D11*
X49500000Y-59350000D03*
X49500000Y-57450000D03*
D25*
X48600000Y-54940000D03*
X48600000Y-55900000D03*
X40400000Y-51900000D03*
X40400000Y-52860000D03*
D26*
X50930000Y-47550000D03*
X51950000Y-47550000D03*
D11*
X48300000Y-39150000D03*
X48300000Y-37250000D03*
X52250000Y-39150000D03*
X52250000Y-37250000D03*
D10*
X46475000Y-60850000D03*
X46475000Y-62750000D03*
X48300000Y-40650000D03*
X48300000Y-42550000D03*
D16*
X37250000Y-42800000D03*
X37250000Y-41225000D03*
D11*
X46325000Y-39150000D03*
X46325000Y-37250000D03*
X42375000Y-39150000D03*
X42375000Y-37250000D03*
X47525000Y-59350000D03*
X47525000Y-57450000D03*
D26*
X42040000Y-56500000D03*
X43060000Y-56500000D03*
D10*
X50550000Y-40650000D03*
X50550000Y-42550000D03*
D27*
X58800000Y-45500000D03*
X58800000Y-45000001D03*
D28*
X58600000Y-42511000D03*
D29*
X54300000Y-42490000D03*
D27*
X54100000Y-45000001D03*
X54100000Y-45500000D03*
D30*
X58565000Y-46012999D03*
X58565000Y-39987001D03*
X54335000Y-39987001D03*
X54335000Y-46012999D03*
D31*
X56450000Y-43000000D03*
D20*
X52760000Y-45200000D03*
X51740000Y-45200000D03*
D12*
X39825500Y-54700000D03*
D13*
X40817500Y-54700000D03*
D15*
X56450000Y-61900000D03*
D11*
X45550000Y-59350000D03*
X45550000Y-57450000D03*
D10*
X42525000Y-60850000D03*
X42525000Y-62750000D03*
X52400000Y-60850000D03*
X52400000Y-62750000D03*
D35*
X39050000Y-49375000D03*
X39050000Y-50925000D03*
D36*
X37500000Y-48224500D03*
D37*
X37500000Y-47232500D03*
D15*
X61850000Y-56950000D03*
D25*
X39250000Y-46970000D03*
X39250000Y-47930000D03*
D20*
X50560000Y-53350000D03*
X49540000Y-53350000D03*
D26*
X51890000Y-53250000D03*
X52910000Y-53250000D03*
D38*
X39395600Y-56286400D03*
X39763615Y-57645585D03*
X41173600Y-57784502D03*
X50700000Y-57550000D03*
X58550000Y-60650000D03*
X49450000Y-45200000D03*
X57450000Y-46150000D03*
X58450000Y-39300000D03*
X49408628Y-41258628D03*
X55050000Y-57000000D03*
X49500000Y-60200000D03*
X55050000Y-59450000D03*
X56450000Y-41700000D03*
X56450000Y-50000000D03*
X55050000Y-43000000D03*
X47650000Y-39900000D03*
X56400000Y-56950000D03*
X56450000Y-54550000D03*
X56450000Y-45450000D03*
X56450000Y-51350000D03*
X55050000Y-50000000D03*
X56450000Y-47550000D03*
X56450000Y-43000000D03*
X56450000Y-40550000D03*
X44650000Y-59300000D03*
X56450000Y-59450000D03*
X55050000Y-58300000D03*
X56450000Y-58300000D03*
X55050000Y-44350000D03*
X55450000Y-45250000D03*
X56450000Y-48700000D03*
X40350000Y-49850000D03*
X51500000Y-60200000D03*
X43866000Y-56642000D03*
X55050000Y-41700000D03*
X55050000Y-48700000D03*
X47500000Y-60200000D03*
X56450000Y-44300000D03*
X45500000Y-60200000D03*
X55350000Y-47750000D03*
X44500000Y-39900000D03*
X55050000Y-55700000D03*
X56450000Y-52450000D03*
X49775000Y-39950000D03*
X55050000Y-51350000D03*
X56450000Y-55700000D03*
X39250000Y-43000000D03*
X39000000Y-41050000D03*
X47050000Y-55850000D03*
X40750000Y-45150000D03*
X39695591Y-52292587D03*
X37540500Y-54508400D03*
X37262000Y-51650000D03*
X40500000Y-59350000D03*
X47450000Y-43475000D03*
X41350000Y-46482000D03*
X40650000Y-46634400D03*
X47300000Y-44300000D03*
X40659364Y-50697700D03*
X43750000Y-58200000D03*
X46080000Y-54870000D03*
X48300000Y-43500000D03*
X46800000Y-54800000D03*
X49425000Y-42025000D03*
X49600000Y-43700000D03*
X48550000Y-54400000D03*
X53000000Y-62150000D03*
X38939100Y-50300858D03*
X49375000Y-55100000D03*
X50250000Y-37850000D03*
X44900000Y-58200000D03*
X42350000Y-37850000D03*
X46300000Y-37850000D03*
X47300000Y-42475000D03*
X37350000Y-45350000D03*
X44350000Y-37850000D03*
X41325500Y-54174500D03*
X37400000Y-59275000D03*
X50950000Y-62150000D03*
X47300000Y-58200000D03*
X43575000Y-59475000D03*
X51350000Y-46850000D03*
X45350000Y-41875000D03*
X43950000Y-45500000D03*
X47000000Y-62100000D03*
X52250000Y-37850000D03*
X45750000Y-54200000D03*
X39649600Y-55524400D03*
X37100000Y-40200000D03*
X50200000Y-45150000D03*
X48300000Y-37850000D03*
X39750500Y-53109763D03*
X45000000Y-62100000D03*
X39968945Y-50534250D03*
X43000000Y-62100000D03*
X49750000Y-58200000D03*
X48950000Y-62150000D03*
X43100000Y-41875000D03*
X46800000Y-45675000D03*
X46925000Y-48125000D03*
X49500000Y-55825000D03*
X43866000Y-47599600D03*
X49200000Y-56475000D03*
X43035561Y-47549500D03*
X57900000Y-46850000D03*
X52080000Y-47040000D03*
X52700000Y-52750000D03*
X57900000Y-53650000D03*
X50650000Y-55150000D03*
X59350000Y-59750000D03*
X52050000Y-45950000D03*
X59700000Y-46450000D03*
X47450000Y-51350000D03*
X51350000Y-52050000D03*
X59700000Y-53500000D03*
X59400000Y-59000000D03*
X47400000Y-52250000D03*
X52340000Y-41200000D03*
X52810000Y-43090000D03*
X52340000Y-43360000D03*
X53270000Y-44440000D03*
X52340000Y-43900000D03*
X52810000Y-43630000D03*
X52810000Y-42550000D03*
X53730000Y-44170000D03*
X51870000Y-43090000D03*
X52810000Y-40390000D03*
X52340000Y-42820000D03*
X51870000Y-40930000D03*
X51870000Y-41470000D03*
X52810000Y-40930000D03*
X52810000Y-44170000D03*
X51870000Y-40390000D03*
X53270000Y-43900000D03*
X52810000Y-41470000D03*
X52340000Y-40660000D03*
X52810000Y-42010000D03*
X52340000Y-42280000D03*
X51870000Y-43630000D03*
X51870000Y-42010000D03*
X51870000Y-44170000D03*
X51870000Y-42550000D03*
X52340000Y-44430000D03*
X52340000Y-41740000D03*
X46150000Y-48100000D03*
X53630000Y-51350000D03*
X52700000Y-48100000D03*
X52710000Y-50790000D03*
X53170000Y-48370000D03*
X53160000Y-51610000D03*
X52710000Y-49180000D03*
X53640000Y-47580000D03*
X53180000Y-50530000D03*
X51760000Y-48650000D03*
X53180000Y-49990000D03*
X52230000Y-48920000D03*
X53180000Y-48900000D03*
X52700000Y-48650000D03*
X52710000Y-50250000D03*
X52240000Y-49450000D03*
X52230000Y-48380000D03*
X53170000Y-47840000D03*
X53180000Y-51070000D03*
X53170000Y-47310000D03*
X52700000Y-47570000D03*
X52710000Y-49710000D03*
X52240000Y-50510000D03*
X52700000Y-51320000D03*
X52230000Y-51050000D03*
X53180000Y-49450000D03*
X52230000Y-49980000D03*
X52790000Y-56540000D03*
X52790000Y-56000000D03*
X51840000Y-55460000D03*
X52320000Y-55720000D03*
X52320000Y-56800000D03*
X52790000Y-57070000D03*
X53250000Y-58400000D03*
X52780000Y-57600000D03*
X52310000Y-58390000D03*
X52320000Y-55190000D03*
X52320000Y-56260000D03*
X51850000Y-56530000D03*
X51850000Y-57060000D03*
X51840000Y-56000000D03*
X52790000Y-54930000D03*
X51840000Y-54930000D03*
X52320000Y-57330000D03*
X52790000Y-58130000D03*
X51850000Y-57590000D03*
X52780000Y-54400000D03*
X51840000Y-58120000D03*
X53250000Y-57860000D03*
X52310000Y-57860000D03*
X52310000Y-54660000D03*
X51830000Y-54400000D03*
X53710000Y-58130000D03*
X52790000Y-55460000D03*
X40000000Y-49150000D03*
X50050000Y-52600000D03*
X39249115Y-44025245D03*
X40450000Y-44450000D03*
X40450000Y-42800000D03*
X45100000Y-52300000D03*
X44408181Y-52470879D03*
X47350000Y-50600000D03*
X46050000Y-45550000D03*
X41626500Y-53040500D03*
X39750000Y-53900000D03*
X44650000Y-43525000D03*
X46550000Y-47450000D03*
D39*
X43866000Y-47599600D02*
X43750000Y-47483600D01*
X43750000Y-47483600D02*
X43750000Y-46562500D01*
D40*
X45100000Y-52300000D02*
X45100000Y-52590883D01*
X45100000Y-52590883D02*
X44890000Y-52800883D01*
X44890000Y-52800883D02*
X44890000Y-52903916D01*
X44890000Y-52903916D02*
X44750000Y-53043916D01*
X44750000Y-53043916D02*
X44750000Y-53437500D01*
D39*
X44408181Y-52470879D02*
X44250000Y-52629060D01*
X44250000Y-52629060D02*
X44250000Y-53437500D01*
X38000000Y-53575000D02*
X38633600Y-53575000D01*
X38633600Y-53575000D02*
X38633600Y-53633600D01*
X38633600Y-53633600D02*
X39700000Y-54700000D01*
X39700000Y-54700000D02*
X39825500Y-54700000D01*
D41*
X39750500Y-53109763D02*
X39795263Y-53065000D01*
X39795263Y-53065000D02*
X40195000Y-53065000D01*
X40195000Y-53065000D02*
X40400000Y-52860000D01*
X39705977Y-52292587D02*
X40098564Y-51900000D01*
X40098564Y-51900000D02*
X40400000Y-51900000D01*
X39695591Y-52292587D02*
X39705977Y-52292587D01*
D39*
X38050000Y-53575000D02*
X38395000Y-53575000D01*
X38395000Y-53575000D02*
X39134500Y-52835500D01*
X39134500Y-52043609D02*
X39920909Y-51257200D01*
X39134500Y-52835500D02*
X39134500Y-52043609D01*
X39920909Y-51257200D02*
X41529200Y-51257200D01*
D41*
X39050000Y-50411758D02*
X39050000Y-50875000D01*
D39*
X38939100Y-50300858D02*
X38939100Y-50814100D01*
D41*
X38939100Y-50300858D02*
X39050000Y-50411758D01*
D39*
X38939100Y-50814100D02*
X39050000Y-50925000D01*
D41*
X40350000Y-49850000D02*
X40335000Y-49835000D01*
X40335000Y-49835000D02*
X39510000Y-49835000D01*
X39510000Y-49835000D02*
X39050000Y-49375000D01*
D39*
X43150000Y-47435061D02*
X43150000Y-47148008D01*
X43035561Y-47549500D02*
X43150000Y-47435061D01*
X43150000Y-47148008D02*
X43250000Y-47048008D01*
X43250000Y-47048008D02*
X43250000Y-46562500D01*
X42750000Y-46562500D02*
X42700000Y-46612500D01*
X42700000Y-46612500D02*
X42700000Y-47041439D01*
X42342000Y-47904400D02*
X43250000Y-48812400D01*
X42700000Y-47041439D02*
X42342000Y-47399439D01*
X42342000Y-47399439D02*
X42342000Y-47904400D01*
X43250000Y-48812400D02*
X43250000Y-51986396D01*
X43250000Y-51986396D02*
X42750000Y-52486396D01*
X42750000Y-52486396D02*
X42750000Y-53437500D01*
X41100000Y-45550000D02*
X41250000Y-45400000D01*
X40750000Y-45150000D02*
X41100000Y-45550000D01*
X39572830Y-57454800D02*
X38836800Y-57454800D01*
X39763615Y-57645585D02*
X39572830Y-57454800D01*
X39395600Y-56286400D02*
X38532000Y-56286400D01*
X41350902Y-57784502D02*
X41783200Y-58216800D01*
X41173600Y-57784502D02*
X41350902Y-57784502D01*
X41626500Y-53040500D02*
X41626500Y-52814000D01*
X41626500Y-52814000D02*
X41562500Y-52750000D01*
D41*
X39440750Y-50534250D02*
X39050000Y-50925000D01*
X39968945Y-50534250D02*
X39440750Y-50534250D01*
D39*
X41107064Y-50250000D02*
X41562500Y-50250000D01*
X40659364Y-50697700D02*
X41107064Y-50250000D01*
X42048008Y-49750000D02*
X41562500Y-49750000D01*
X43060000Y-55550000D02*
X43866000Y-56356000D01*
X41562500Y-50750000D02*
X42048008Y-50750000D01*
X44700000Y-59350000D02*
X44650000Y-59300000D01*
X42325000Y-50026992D02*
X42048008Y-49750000D01*
X45550000Y-59350000D02*
X44700000Y-59350000D01*
X42325000Y-50473008D02*
X42325000Y-50026992D01*
X41562500Y-49750000D02*
X40450000Y-49750000D01*
X43866000Y-56356000D02*
X43866000Y-56642000D01*
X42048008Y-50750000D02*
X42325000Y-50473008D01*
X38073900Y-55041800D02*
X37540500Y-54508400D01*
X42529600Y-59350000D02*
X40500000Y-59350000D01*
X39250000Y-43050000D02*
X38460000Y-43840000D01*
X44918396Y-56600000D02*
X44540000Y-56978396D01*
X47050000Y-55850000D02*
X47530000Y-55850000D01*
X38460000Y-43840000D02*
X38450000Y-43840000D01*
X38074800Y-55041800D02*
X38073900Y-55041800D01*
X43190000Y-58689600D02*
X42529600Y-59350000D01*
D41*
X37550000Y-50925000D02*
X37725000Y-50925000D01*
D39*
X43190000Y-57968040D02*
X43190000Y-58689600D01*
X47530000Y-55850000D02*
X47600000Y-55920000D01*
X44540000Y-56978396D02*
X44540000Y-56984000D01*
D41*
X37600000Y-52025000D02*
X37600000Y-51612800D01*
D39*
X40550000Y-51750000D02*
X41562500Y-51750000D01*
X47050000Y-55850000D02*
X46300000Y-56600000D01*
X39250000Y-43000000D02*
X39250000Y-43050000D01*
X46300000Y-56600000D02*
X44918396Y-56600000D01*
X44540000Y-56984000D02*
X43884000Y-57640000D01*
D41*
X39000000Y-41050000D02*
X37425000Y-41050000D01*
D39*
X37562800Y-51650000D02*
X37600000Y-51612800D01*
X41250000Y-45400000D02*
X41250000Y-45562500D01*
X43518040Y-57640000D02*
X43190000Y-57968040D01*
X41250000Y-45562500D02*
X42250000Y-46562500D01*
X43884000Y-57640000D02*
X43518040Y-57640000D01*
D41*
X37600000Y-50975000D02*
X37550000Y-50925000D01*
X37425000Y-41050000D02*
X37250000Y-41225000D01*
X37800000Y-52225000D02*
X37600000Y-52025000D01*
X37600000Y-51612800D02*
X37600000Y-50975000D01*
D39*
X37262000Y-51650000D02*
X37562800Y-51650000D01*
X40400000Y-51900000D02*
X40550000Y-51750000D01*
X41562500Y-46812500D02*
X41350000Y-46600000D01*
X41562500Y-47250000D02*
X41562500Y-46812500D01*
X40200000Y-46960000D02*
X40200000Y-47009462D01*
X41562500Y-47750000D02*
X40940538Y-47750000D01*
X40410000Y-46750000D02*
X40200000Y-46960000D01*
X40650000Y-46750000D02*
X40410000Y-46750000D01*
X39260000Y-46960000D02*
X39250000Y-46970000D01*
X40200000Y-47009462D02*
X40720538Y-47530000D01*
X40940538Y-47750000D02*
X40720538Y-47530000D01*
X40200000Y-46960000D02*
X39260000Y-46960000D01*
X42350000Y-52250000D02*
X41562500Y-52250000D01*
X42048008Y-48250000D02*
X42800000Y-49001992D01*
X41562500Y-48250000D02*
X42048008Y-48250000D01*
X40586396Y-48250000D02*
X41562500Y-48250000D01*
X40316396Y-47980000D02*
X40586396Y-48250000D01*
X42800000Y-49001992D02*
X42800000Y-51800000D01*
X40200000Y-47980000D02*
X40316396Y-47980000D01*
X42800000Y-51800000D02*
X42350000Y-52250000D01*
X40150000Y-47930000D02*
X40200000Y-47980000D01*
X39250000Y-47930000D02*
X40150000Y-47930000D01*
D40*
X45998008Y-52700000D02*
X46250000Y-52951992D01*
D39*
X44320000Y-54930000D02*
X44290000Y-54900000D01*
D40*
X45250000Y-53437500D02*
X45250000Y-52950000D01*
D39*
X46250000Y-52951992D02*
X46250000Y-53437500D01*
D40*
X45250000Y-52950000D02*
X45500000Y-52700000D01*
D39*
X45200000Y-53487500D02*
X45250000Y-53437500D01*
D40*
X45500000Y-52700000D02*
X45998008Y-52700000D01*
D39*
X45200000Y-53990000D02*
X45200000Y-53487500D01*
X44320000Y-55850000D02*
X44320000Y-54930000D01*
X45200000Y-53990000D02*
X44350000Y-54840000D01*
X45280000Y-55850000D02*
X45280000Y-54930000D01*
X46080000Y-54870000D02*
X46075000Y-54875000D01*
X46080000Y-54870000D02*
X46080000Y-54720000D01*
X46080000Y-54720000D02*
X46750000Y-54050000D01*
X45280000Y-54930000D02*
X45310000Y-54900000D01*
X46075000Y-54875000D02*
X45305000Y-54875000D01*
X45305000Y-54875000D02*
X45300000Y-54870000D01*
X46750000Y-54050000D02*
X46750000Y-53437500D01*
X47250000Y-53437500D02*
X47250000Y-54223223D01*
X46800000Y-54800000D02*
X46800000Y-54673223D01*
X46800000Y-54673223D02*
X47250000Y-54223223D01*
X47750000Y-53650000D02*
X47750000Y-53437500D01*
X48500000Y-54400000D02*
X47750000Y-53650000D01*
X48600000Y-54550000D02*
X48600000Y-54940000D01*
X48550000Y-54400000D02*
X48500000Y-54400000D01*
X47600000Y-54900000D02*
X48560000Y-54900000D01*
X48550000Y-54400000D02*
X48600000Y-54550000D01*
X48607609Y-55900000D02*
X48600000Y-55900000D01*
X45250000Y-46562500D02*
X45250000Y-46076992D01*
X36825000Y-48650000D02*
X37550000Y-49375000D01*
X49375000Y-55132609D02*
X48607609Y-55900000D01*
X45750000Y-54200000D02*
X45750000Y-53437500D01*
X40817500Y-54700000D02*
X40817500Y-54682500D01*
X45250000Y-46076992D02*
X44973008Y-45800000D01*
X44973008Y-45800000D02*
X44500000Y-45800000D01*
X45000000Y-50000000D02*
X45250000Y-49750000D01*
D41*
X44200000Y-45500000D02*
X44425108Y-45725108D01*
X42070000Y-54600000D02*
X40917500Y-54600000D01*
D39*
X37250000Y-45775000D02*
X37225000Y-45775000D01*
X37225000Y-45775000D02*
X36825000Y-46175000D01*
D41*
X43950000Y-45500000D02*
X44200000Y-45500000D01*
X40917500Y-54600000D02*
X40817500Y-54700000D01*
X39050000Y-50875000D02*
X37550000Y-49375000D01*
D39*
X44500000Y-45800000D02*
X44250000Y-46050000D01*
X49375000Y-55100000D02*
X49375000Y-55132609D01*
X36825000Y-46175000D02*
X36825000Y-48650000D01*
X44250000Y-46050000D02*
X44250000Y-46562500D01*
X44500000Y-45800000D02*
X44425108Y-45725108D01*
X45250000Y-49750000D02*
X45250000Y-46562500D01*
X39050000Y-50925000D02*
X39050000Y-50875000D01*
X40817500Y-54682500D02*
X41325500Y-54174500D01*
X47750000Y-46076992D02*
X47750000Y-46562500D01*
X46800000Y-45675000D02*
X47348008Y-45675000D01*
X47348008Y-45675000D02*
X47750000Y-46076992D01*
X46925000Y-48125000D02*
X47250000Y-47800000D01*
X47250000Y-47800000D02*
X47250000Y-46562500D01*
X43250000Y-46562500D02*
X43250000Y-45440000D01*
X43210000Y-45400000D02*
X43210000Y-44480000D01*
X43250000Y-45440000D02*
X43210000Y-45400000D01*
X43210000Y-44480000D02*
X43180000Y-44450000D01*
X57900000Y-46850000D02*
X57800000Y-46850000D01*
X58800000Y-45500000D02*
X59104500Y-45500000D01*
X57800000Y-46850000D02*
X58150000Y-46500000D01*
X58150000Y-46500000D02*
X58200000Y-46500000D01*
X59104999Y-46345001D02*
X58950000Y-46500000D01*
X59104500Y-45500000D02*
X59104999Y-45500499D01*
X52080000Y-47040000D02*
X51950000Y-47170000D01*
D40*
X58250000Y-46500000D02*
X58950000Y-46500000D01*
D39*
X59104999Y-45500499D02*
X59104999Y-46345001D01*
X51950000Y-47170000D02*
X51950000Y-47550000D01*
X52760000Y-45200000D02*
X53060000Y-45500000D01*
X53060000Y-45500000D02*
X54100000Y-45500000D01*
X57900000Y-53650000D02*
X58050000Y-53500000D01*
X59064999Y-53385001D02*
X58950000Y-53500000D01*
X58050000Y-53500000D02*
X58150000Y-53500000D01*
D40*
X58150000Y-53500000D02*
X58950000Y-53500000D01*
D39*
X59064999Y-52540499D02*
X59064999Y-53385001D01*
X54100000Y-52500000D02*
X53286827Y-52500000D01*
X52911827Y-52125000D02*
X52275000Y-52125000D01*
X51225000Y-49365000D02*
X51060000Y-49200000D01*
X53286827Y-52500000D02*
X52911827Y-52125000D01*
X52275000Y-52125000D02*
X51225000Y-51075000D01*
X51225000Y-51075000D02*
X51225000Y-49365000D01*
X59100000Y-59500000D02*
X59350000Y-59750000D01*
X50650000Y-54340000D02*
X50560000Y-54250000D01*
X50650000Y-55150000D02*
X50650000Y-54340000D01*
X58800000Y-59500000D02*
X59100000Y-59500000D01*
X52428040Y-59500000D02*
X51260000Y-58331960D01*
X54100000Y-59500000D02*
X52428040Y-59500000D01*
X51260000Y-58331960D02*
X51260000Y-53950000D01*
X51260000Y-53950000D02*
X50560000Y-53250000D01*
X51136827Y-46250000D02*
X50775000Y-46611827D01*
X50775000Y-46732609D02*
X50262609Y-47245000D01*
X59554500Y-45313604D02*
X59240897Y-45000001D01*
X50255000Y-47245000D02*
X49900000Y-47600000D01*
X50775000Y-46611827D02*
X50775000Y-46732609D01*
X51750000Y-46250000D02*
X51136827Y-46250000D01*
X49250000Y-48250000D02*
X48437500Y-48250000D01*
X49900000Y-47600000D02*
X49250000Y-48250000D01*
X59700000Y-46450000D02*
X59554500Y-46304500D01*
X59554500Y-46304500D02*
X59554500Y-45313604D01*
X59240897Y-45000001D02*
X58800000Y-45000001D01*
X50262609Y-47245000D02*
X50255000Y-47245000D01*
X52050000Y-45950000D02*
X51750000Y-46250000D01*
X47850000Y-51750000D02*
X47450000Y-51350000D01*
X48437500Y-51750000D02*
X47850000Y-51750000D01*
X49259462Y-49850000D02*
X49159462Y-49750000D01*
X49259462Y-49850000D02*
X50280000Y-49850000D01*
X49159462Y-49750000D02*
X48437500Y-49750000D01*
X50280000Y-49850000D02*
X50550000Y-50120000D01*
X49519462Y-48750000D02*
X49714462Y-48555000D01*
X49912609Y-48555000D02*
X50917609Y-47550000D01*
X48437500Y-48750000D02*
X49519462Y-48750000D01*
X49714462Y-48555000D02*
X49912609Y-48555000D01*
X50917609Y-47550000D02*
X50930000Y-47550000D01*
X49200000Y-47332391D02*
X49200000Y-47513604D01*
X48437500Y-47750000D02*
X48963604Y-47750000D01*
X49900000Y-46640000D02*
X49892391Y-46640000D01*
X49200000Y-47513604D02*
X48963604Y-47750000D01*
X49892391Y-46640000D02*
X49200000Y-47332391D01*
X49537391Y-46035000D02*
X48437500Y-47134891D01*
X50428173Y-46035000D02*
X49537391Y-46035000D01*
X51740000Y-45200000D02*
X51263173Y-45200000D01*
X51263173Y-45200000D02*
X50428173Y-46035000D01*
X48437500Y-47134891D02*
X48437500Y-47250000D01*
X50542391Y-51080000D02*
X49762391Y-50300000D01*
X59650000Y-53500000D02*
X59554999Y-53404999D01*
X49762391Y-50300000D02*
X48487500Y-50300000D01*
X59554999Y-52314103D02*
X59240897Y-52000001D01*
X59240897Y-52000001D02*
X58800000Y-52000001D01*
X51350000Y-52050000D02*
X50542391Y-51080000D01*
X48487500Y-50300000D02*
X48437500Y-50250000D01*
X59554999Y-53404999D02*
X59554999Y-52314103D01*
X59700000Y-53500000D02*
X59650000Y-53500000D01*
X47400000Y-52250000D02*
X48437500Y-52250000D01*
X59400000Y-59000000D02*
X58800000Y-59000001D01*
X49540000Y-54300000D02*
X49519462Y-54300000D01*
X49519462Y-54300000D02*
X48945000Y-53725538D01*
X48437500Y-52887500D02*
X48437500Y-52750000D01*
X48945000Y-53725538D02*
X48945000Y-53395000D01*
X48945000Y-53395000D02*
X48437500Y-52887500D01*
X48923008Y-51250000D02*
X48437500Y-51250000D01*
X49200000Y-51526992D02*
X48923008Y-51250000D01*
X49540000Y-53350000D02*
X49200000Y-53010000D01*
X49200000Y-53010000D02*
X49200000Y-51526992D01*
X49200000Y-50750000D02*
X48437500Y-50750000D01*
X51650000Y-53200000D02*
X49200000Y-50750000D01*
X51890000Y-53200000D02*
X51650000Y-53200000D01*
X48437500Y-49250000D02*
X49990000Y-49250000D01*
X49990000Y-49250000D02*
X50040000Y-49200000D01*
X45750000Y-47111827D02*
X45750000Y-46562500D01*
X45898508Y-47848508D02*
X45898508Y-47260335D01*
X46150000Y-48100000D02*
X45898508Y-47848508D01*
X45898508Y-47260335D02*
X45750000Y-47111827D01*
X42037200Y-55575200D02*
X43002400Y-56540400D01*
X43250000Y-54311600D02*
X43002400Y-54559200D01*
X43250000Y-53437500D02*
X43250000Y-54311600D01*
X43245000Y-53442500D02*
X43250000Y-53437500D01*
X41990000Y-55500000D02*
X42040000Y-55550000D01*
X43012400Y-54600000D02*
X42037200Y-55575200D01*
X43030000Y-54600000D02*
X43012400Y-54600000D01*
X42750000Y-46050000D02*
X42750000Y-46562500D01*
X42220000Y-44450000D02*
X42220000Y-45370000D01*
X42190000Y-45400000D02*
X42190000Y-45490000D01*
X42220000Y-45370000D02*
X42190000Y-45400000D01*
X42190000Y-45490000D02*
X42750000Y-46050000D01*
X41512500Y-49200000D02*
X40050000Y-49200000D01*
X40050000Y-49200000D02*
X40000000Y-49150000D01*
X41562500Y-49250000D02*
X41512500Y-49200000D01*
X38275000Y-46630375D02*
X38275000Y-48009000D01*
X39249115Y-44025245D02*
X39116500Y-44157860D01*
X38475000Y-48575000D02*
X38275000Y-48375000D01*
X40275000Y-48575000D02*
X38475000Y-48575000D01*
X38916500Y-45988875D02*
X38916500Y-45900000D01*
X38275000Y-46630375D02*
X38916500Y-45988875D01*
X39116500Y-44157860D02*
X39116500Y-45900000D01*
X38275000Y-48375000D02*
X38092000Y-48192000D01*
X38275000Y-48009000D02*
X38092000Y-48192000D01*
X41562500Y-48750000D02*
X40450000Y-48750000D01*
X38092000Y-48192000D02*
X37500000Y-48192000D01*
X40450000Y-48750000D02*
X40275000Y-48575000D01*
D40*
X45050000Y-52300000D02*
X45100000Y-52300000D01*
D39*
X43600000Y-52450000D02*
X43600000Y-52801992D01*
X46600000Y-51725000D02*
X44325000Y-51725000D01*
X47350000Y-50600000D02*
X46875000Y-51075000D01*
X43750000Y-52951992D02*
X43750000Y-53437500D01*
X43600000Y-52801992D02*
X43750000Y-52951992D01*
X44325000Y-51725000D02*
X43600000Y-52450000D01*
X46875000Y-51450000D02*
X46600000Y-51725000D01*
X46875000Y-51075000D02*
X46875000Y-51450000D01*
X38050000Y-46218979D02*
X38050000Y-45260000D01*
X37500000Y-47200000D02*
X37500000Y-46768979D01*
X37500000Y-46768979D02*
X38050000Y-46218979D01*
X37250000Y-44200000D02*
X37790000Y-44200000D01*
X37790000Y-44200000D02*
X38450000Y-44860000D01*
X38050000Y-45260000D02*
X38450000Y-44860000D01*
X40108500Y-45900000D02*
X40108500Y-45108500D01*
X39488173Y-42425000D02*
X38835000Y-42425000D01*
X38835000Y-42425000D02*
X38450000Y-42810000D01*
X39875000Y-42811827D02*
X39488173Y-42425000D01*
X39875000Y-44875000D02*
X39875000Y-42811827D01*
X37250000Y-42800000D02*
X38440000Y-42800000D01*
X38440000Y-42800000D02*
X38450000Y-42810000D01*
X40108500Y-45108500D02*
X39875000Y-44875000D01*
X46050000Y-45738173D02*
X46250000Y-45938173D01*
X46250000Y-45938173D02*
X46250000Y-46562500D01*
X46050000Y-45550000D02*
X46050000Y-45738173D01*
X42087500Y-53600000D02*
X40050000Y-53600000D01*
X40050000Y-53600000D02*
X39750000Y-53900000D01*
X42250000Y-53437500D02*
X42087500Y-53600000D01*
X46550000Y-47450000D02*
X46750000Y-47250000D01*
X46750000Y-47250000D02*
X46750000Y-46562500D01*
G04 #@! TA.AperFunction,Conductor*
G36*
X44424500Y-46963397D02*
G01*
X44424501Y-46963406D01*
X44439759Y-47040117D01*
X44497887Y-47127112D01*
X44518125Y-47140634D01*
X44584883Y-47185240D01*
X44661599Y-47200500D01*
X44838400Y-47200499D01*
X44838403Y-47200498D01*
X44838406Y-47200498D01*
X44915117Y-47185240D01*
X45002112Y-47127112D01*
X45006429Y-47120651D01*
X45060240Y-47040117D01*
X45075500Y-46963401D01*
X45075500Y-46600000D01*
X45400000Y-46600000D01*
X45400000Y-48700000D01*
X44100000Y-48700000D01*
X44100000Y-48014445D01*
X44180589Y-47962655D01*
X44270130Y-47859318D01*
X44326931Y-47734942D01*
X44346390Y-47599600D01*
X44326931Y-47464258D01*
X44270130Y-47339882D01*
X44180589Y-47236545D01*
X44180588Y-47236544D01*
X44133379Y-47206205D01*
X44100000Y-47167683D01*
X44100000Y-46600000D01*
X44424500Y-46600000D01*
X44424500Y-46963397D01*
G37*
G04 #@! TD.AperFunction*
G04 #@! TA.AperFunction,Conductor*
G36*
X60271317Y-46525684D02*
G01*
X60308717Y-46574108D01*
X60314500Y-46607449D01*
X60314500Y-47507199D01*
X60317224Y-47536254D01*
X60317225Y-47536259D01*
X60360046Y-47658634D01*
X60360048Y-47658638D01*
X60437040Y-47762960D01*
X60541362Y-47839952D01*
X60663742Y-47882775D01*
X60692801Y-47885500D01*
X63007198Y-47885499D01*
X63007199Y-47885499D01*
X63013009Y-47884954D01*
X63036258Y-47882775D01*
X63158638Y-47839952D01*
X63158637Y-47839952D01*
X63165640Y-47837502D01*
X63166563Y-47840139D01*
X63214490Y-47831797D01*
X63269425Y-47858738D01*
X63298032Y-47912824D01*
X63299499Y-47929803D01*
X63299499Y-51970196D01*
X63280592Y-52028387D01*
X63231092Y-52064351D01*
X63169906Y-52064351D01*
X63164978Y-52062266D01*
X63036262Y-52017226D01*
X63036253Y-52017224D01*
X63007207Y-52014500D01*
X60692800Y-52014500D01*
X60663745Y-52017224D01*
X60663740Y-52017225D01*
X60541365Y-52060046D01*
X60541364Y-52060047D01*
X60541363Y-52060047D01*
X60541362Y-52060048D01*
X60437040Y-52137040D01*
X60361353Y-52239595D01*
X60360047Y-52241364D01*
X60360046Y-52241365D01*
X60317226Y-52363737D01*
X60317224Y-52363746D01*
X60314500Y-52392790D01*
X60314500Y-53342550D01*
X60295593Y-53400741D01*
X60246093Y-53436705D01*
X60184907Y-53436705D01*
X60135407Y-53400741D01*
X60126192Y-53381984D01*
X60125097Y-53382485D01*
X60122156Y-53376045D01*
X60122156Y-53376044D01*
X60070133Y-53262130D01*
X59988124Y-53167487D01*
X59885974Y-53101839D01*
X59847244Y-53054474D01*
X59840499Y-53018556D01*
X59840499Y-52373147D01*
X59840974Y-52366300D01*
X59842658Y-52354227D01*
X59840552Y-52308676D01*
X59840499Y-52306389D01*
X59840499Y-52287655D01*
X59840499Y-52287649D01*
X59839907Y-52284484D01*
X59839119Y-52277695D01*
X59837729Y-52247606D01*
X59834189Y-52239589D01*
X59827440Y-52217793D01*
X59825831Y-52209182D01*
X59809973Y-52183572D01*
X59806778Y-52177507D01*
X59800988Y-52164396D01*
X59794615Y-52149961D01*
X59794614Y-52149960D01*
X59794613Y-52149958D01*
X59788416Y-52143761D01*
X59774250Y-52125876D01*
X59769640Y-52118431D01*
X59745613Y-52100286D01*
X59740436Y-52095781D01*
X59484525Y-51839870D01*
X59480019Y-51834692D01*
X59472677Y-51824969D01*
X59438970Y-51794241D01*
X59437318Y-51792663D01*
X59424072Y-51779418D01*
X59424064Y-51779411D01*
X59421417Y-51777597D01*
X59416047Y-51773343D01*
X59406663Y-51764789D01*
X59393797Y-51753060D01*
X59393793Y-51753058D01*
X59393791Y-51753057D01*
X59385622Y-51749892D01*
X59365448Y-51739259D01*
X59364238Y-51738430D01*
X59358214Y-51734304D01*
X59358213Y-51734303D01*
X59358212Y-51734303D01*
X59328901Y-51727408D01*
X59322347Y-51725379D01*
X59294270Y-51714502D01*
X59294267Y-51714501D01*
X59294266Y-51714501D01*
X59294264Y-51714501D01*
X59285502Y-51714501D01*
X59262835Y-51711871D01*
X59254310Y-51709866D01*
X59224487Y-51714026D01*
X59217641Y-51714501D01*
X58499000Y-51714501D01*
X58440809Y-51695594D01*
X58404845Y-51646094D01*
X58400000Y-51615501D01*
X58400000Y-47434002D01*
X58418907Y-47375811D01*
X58468407Y-47339847D01*
X58499000Y-47335002D01*
X58795805Y-47335002D01*
X58795806Y-47335002D01*
X58795807Y-47335001D01*
X58795814Y-47335001D01*
X58823796Y-47329434D01*
X58842624Y-47325689D01*
X58895714Y-47290216D01*
X58931187Y-47237126D01*
X58934932Y-47218298D01*
X58940499Y-47190316D01*
X58940500Y-47190306D01*
X58940500Y-46879020D01*
X58959407Y-46820829D01*
X59008907Y-46784865D01*
X59016404Y-46782770D01*
X59016494Y-46782730D01*
X59016497Y-46782730D01*
X59114141Y-46739617D01*
X59178844Y-46674913D01*
X59233359Y-46647136D01*
X59293791Y-46656707D01*
X59323746Y-46683804D01*
X59325230Y-46682519D01*
X59411875Y-46782512D01*
X59411875Y-46782513D01*
X59517225Y-46850217D01*
X59517227Y-46850218D01*
X59637385Y-46885500D01*
X59637386Y-46885500D01*
X59762614Y-46885500D01*
X59762615Y-46885500D01*
X59882773Y-46850218D01*
X59988124Y-46782513D01*
X60070133Y-46687870D01*
X60122156Y-46573956D01*
X60122156Y-46573954D01*
X60125097Y-46567515D01*
X60127889Y-46568790D01*
X60154985Y-46529098D01*
X60212596Y-46508492D01*
X60271317Y-46525684D01*
G37*
G04 #@! TD.AperFunction*
G04 #@! TA.AperFunction,Conductor*
G36*
X61315616Y-36700605D02*
G01*
X61569921Y-36717273D01*
X61576342Y-36718119D01*
X61824701Y-36767521D01*
X61830958Y-36769197D01*
X62070745Y-36850593D01*
X62076718Y-36853067D01*
X62303840Y-36965072D01*
X62309448Y-36968310D01*
X62519998Y-37108994D01*
X62525140Y-37112940D01*
X62715519Y-37279897D01*
X62720102Y-37284480D01*
X62887059Y-37474859D01*
X62891005Y-37480001D01*
X63031689Y-37690551D01*
X63034930Y-37696164D01*
X63146928Y-37923273D01*
X63149406Y-37929256D01*
X63230801Y-38169038D01*
X63232478Y-38175298D01*
X63281880Y-38423657D01*
X63282726Y-38430083D01*
X63299394Y-38684381D01*
X63299500Y-38687619D01*
X63299500Y-44551000D01*
X63280593Y-44609191D01*
X63231093Y-44645155D01*
X63200500Y-44650000D01*
X58499000Y-44650000D01*
X58440809Y-44631093D01*
X58404845Y-44581593D01*
X58400000Y-44551000D01*
X58400000Y-40434002D01*
X58418907Y-40375811D01*
X58468407Y-40339847D01*
X58499000Y-40335002D01*
X58795805Y-40335002D01*
X58795806Y-40335002D01*
X58795807Y-40335001D01*
X58795814Y-40335001D01*
X58823796Y-40329434D01*
X58842624Y-40325689D01*
X58895714Y-40290216D01*
X58931187Y-40237126D01*
X58934932Y-40218298D01*
X58940499Y-40190316D01*
X58940500Y-40190306D01*
X58940500Y-39783695D01*
X58940499Y-39783685D01*
X58931187Y-39736877D01*
X58931186Y-39736874D01*
X58895715Y-39683787D01*
X58895712Y-39683784D01*
X58856797Y-39657782D01*
X58818917Y-39609732D01*
X58816515Y-39548594D01*
X58821742Y-39534345D01*
X58872156Y-39423956D01*
X58874691Y-39406325D01*
X58889978Y-39300002D01*
X58889978Y-39299997D01*
X58872157Y-39176048D01*
X58872156Y-39176046D01*
X58872156Y-39176044D01*
X58820133Y-39062130D01*
X58738124Y-38967487D01*
X58738124Y-38967486D01*
X58632774Y-38899782D01*
X58512616Y-38864500D01*
X58512615Y-38864500D01*
X58499000Y-38864500D01*
X58440809Y-38845593D01*
X58404845Y-38796093D01*
X58400000Y-38765500D01*
X58400000Y-38686000D01*
X60108357Y-38686000D01*
X60128885Y-38907536D01*
X60189771Y-39121528D01*
X60288942Y-39320689D01*
X60423019Y-39498236D01*
X60587438Y-39648124D01*
X60776599Y-39765247D01*
X60984060Y-39845618D01*
X61202757Y-39886500D01*
X61425243Y-39886500D01*
X61643940Y-39845618D01*
X61851401Y-39765247D01*
X62040562Y-39648124D01*
X62204981Y-39498236D01*
X62339058Y-39320689D01*
X62438229Y-39121528D01*
X62499115Y-38907536D01*
X62519643Y-38686000D01*
X62499115Y-38464464D01*
X62438229Y-38250472D01*
X62339058Y-38051311D01*
X62204981Y-37873764D01*
X62040562Y-37723876D01*
X61851401Y-37606753D01*
X61643940Y-37526382D01*
X61643939Y-37526381D01*
X61643937Y-37526381D01*
X61425243Y-37485500D01*
X61202757Y-37485500D01*
X60984062Y-37526381D01*
X60907797Y-37555926D01*
X60776599Y-37606753D01*
X60641260Y-37690551D01*
X60587438Y-37723876D01*
X60423020Y-37873763D01*
X60288943Y-38051309D01*
X60288938Y-38051318D01*
X60189772Y-38250469D01*
X60189771Y-38250472D01*
X60128885Y-38464464D01*
X60108357Y-38686000D01*
X58400000Y-38686000D01*
X58400000Y-36799500D01*
X58418907Y-36741309D01*
X58468407Y-36705345D01*
X58499000Y-36700500D01*
X61274118Y-36700500D01*
X61312380Y-36700500D01*
X61315616Y-36700605D01*
G37*
G04 #@! TD.AperFunction*
G04 #@! TA.AperFunction,Conductor*
G36*
X36879593Y-51865739D02*
G01*
X36889551Y-51882799D01*
X36890531Y-51884944D01*
X36891868Y-51887872D01*
X36973875Y-51982512D01*
X36973875Y-51982513D01*
X37044023Y-52027594D01*
X37082755Y-52074960D01*
X37089500Y-52110878D01*
X37089500Y-52565814D01*
X37098812Y-52612622D01*
X37098813Y-52612625D01*
X37134284Y-52665712D01*
X37134287Y-52665715D01*
X37187374Y-52701186D01*
X37187375Y-52701186D01*
X37187376Y-52701187D01*
X37195535Y-52702810D01*
X37234185Y-52710499D01*
X37234192Y-52710499D01*
X37234194Y-52710500D01*
X38616734Y-52710500D01*
X38674925Y-52729407D01*
X38710889Y-52778907D01*
X38710889Y-52840093D01*
X38686738Y-52879504D01*
X38505738Y-53060504D01*
X38451221Y-53088281D01*
X38435734Y-53089500D01*
X37234185Y-53089500D01*
X37187377Y-53098812D01*
X37187374Y-53098813D01*
X37134287Y-53134284D01*
X37134284Y-53134287D01*
X37098813Y-53187374D01*
X37098812Y-53187377D01*
X37089500Y-53234185D01*
X37089500Y-53915814D01*
X37098812Y-53962622D01*
X37098813Y-53962625D01*
X37134284Y-54015712D01*
X37134287Y-54015715D01*
X37187374Y-54051186D01*
X37187881Y-54051396D01*
X37188572Y-54051986D01*
X37195483Y-54056604D01*
X37194936Y-54057421D01*
X37234407Y-54091132D01*
X37248692Y-54150626D01*
X37225279Y-54207155D01*
X37224816Y-54207692D01*
X37170368Y-54270527D01*
X37118343Y-54384446D01*
X37118342Y-54384448D01*
X37100522Y-54508397D01*
X37100522Y-54508401D01*
X37103200Y-54527028D01*
X37092767Y-54587317D01*
X37053493Y-54625485D01*
X37053856Y-54626015D01*
X37050779Y-54628122D01*
X37048889Y-54629960D01*
X37046410Y-54631115D01*
X37046289Y-54631198D01*
X36964201Y-54713286D01*
X36917311Y-54819482D01*
X36914300Y-54845438D01*
X36914300Y-55238152D01*
X36914300Y-55238154D01*
X36914301Y-55238156D01*
X36917312Y-55264120D01*
X36964201Y-55370314D01*
X37046286Y-55452399D01*
X37152480Y-55499288D01*
X37178443Y-55502300D01*
X38971156Y-55502299D01*
X38997120Y-55499288D01*
X39103314Y-55452399D01*
X39185399Y-55370314D01*
X39232288Y-55264120D01*
X39235300Y-55238157D01*
X39235299Y-54878064D01*
X39254206Y-54819874D01*
X39303706Y-54783910D01*
X39364891Y-54783910D01*
X39404303Y-54808061D01*
X39443504Y-54847262D01*
X39471281Y-54901779D01*
X39472500Y-54917266D01*
X39472500Y-55060814D01*
X39481812Y-55107622D01*
X39481813Y-55107625D01*
X39517284Y-55160712D01*
X39517287Y-55160715D01*
X39570374Y-55196186D01*
X39570375Y-55196186D01*
X39570376Y-55196187D01*
X39579789Y-55198059D01*
X39617185Y-55205499D01*
X39617192Y-55205499D01*
X39617194Y-55205500D01*
X39617195Y-55205500D01*
X40033805Y-55205500D01*
X40033806Y-55205500D01*
X40033807Y-55205499D01*
X40033814Y-55205499D01*
X40067734Y-55198751D01*
X40080624Y-55196187D01*
X40133714Y-55160714D01*
X40169187Y-55107624D01*
X40175677Y-55074997D01*
X40178499Y-55060814D01*
X40178500Y-55060804D01*
X40178500Y-54339195D01*
X40178499Y-54339185D01*
X40171059Y-54301789D01*
X40169187Y-54292376D01*
X40168793Y-54291786D01*
X40128808Y-54231943D01*
X40112200Y-54173054D01*
X40121071Y-54135815D01*
X40172156Y-54023956D01*
X40172276Y-54023120D01*
X40179855Y-53970411D01*
X40206851Y-53915504D01*
X40260965Y-53886950D01*
X40277847Y-53885500D01*
X41915161Y-53885500D01*
X41973352Y-53904407D01*
X41997474Y-53929496D01*
X42026726Y-53973274D01*
X42100490Y-54022562D01*
X42165535Y-54035500D01*
X42334464Y-54035499D01*
X42334468Y-54035498D01*
X42334470Y-54035498D01*
X42367271Y-54028974D01*
X42399510Y-54022562D01*
X42444999Y-53992166D01*
X42503883Y-53975558D01*
X42555001Y-53992167D01*
X42559150Y-53994939D01*
X42600490Y-54022562D01*
X42645685Y-54031551D01*
X42699068Y-54061446D01*
X42724686Y-54117011D01*
X42712750Y-54177021D01*
X42696376Y-54198652D01*
X42637795Y-54257233D01*
X42592414Y-54360011D01*
X42589500Y-54385130D01*
X42589500Y-54578133D01*
X42570593Y-54636324D01*
X42560503Y-54648137D01*
X42168135Y-55040504D01*
X42113619Y-55068281D01*
X42098132Y-55069500D01*
X41860882Y-55069500D01*
X41860877Y-55069501D01*
X41836173Y-55072366D01*
X41735109Y-55116990D01*
X41656990Y-55195109D01*
X41612365Y-55296175D01*
X41609500Y-55320872D01*
X41609500Y-55779118D01*
X41609500Y-55779120D01*
X41609501Y-55779122D01*
X41612366Y-55803827D01*
X41656990Y-55904891D01*
X41735109Y-55983010D01*
X41836173Y-56027634D01*
X41860877Y-56030500D01*
X42047732Y-56030499D01*
X42105923Y-56049406D01*
X42117737Y-56059495D01*
X42600504Y-56542262D01*
X42628281Y-56596779D01*
X42629500Y-56612265D01*
X42629500Y-56729117D01*
X42629501Y-56729122D01*
X42632366Y-56753827D01*
X42676990Y-56854891D01*
X42755109Y-56933010D01*
X42856173Y-56977634D01*
X42880877Y-56980500D01*
X43239122Y-56980499D01*
X43263827Y-56977634D01*
X43364891Y-56933010D01*
X43384545Y-56913355D01*
X43439060Y-56885580D01*
X43499492Y-56895151D01*
X43529366Y-56918530D01*
X43577875Y-56974512D01*
X43577875Y-56974513D01*
X43683225Y-57042217D01*
X43683227Y-57042218D01*
X43803385Y-57077500D01*
X43803386Y-57077500D01*
X43803735Y-57077500D01*
X43804011Y-57077589D01*
X43810391Y-57078507D01*
X43810232Y-57079611D01*
X43861926Y-57096407D01*
X43897890Y-57145907D01*
X43897890Y-57207093D01*
X43873741Y-57246500D01*
X43794736Y-57325505D01*
X43740222Y-57353281D01*
X43724735Y-57354500D01*
X43577091Y-57354500D01*
X43570244Y-57354025D01*
X43558164Y-57352339D01*
X43519641Y-57354120D01*
X43512583Y-57354447D01*
X43510307Y-57354500D01*
X43491580Y-57354500D01*
X43488432Y-57355089D01*
X43481623Y-57355878D01*
X43451547Y-57357268D01*
X43451540Y-57357269D01*
X43443516Y-57360812D01*
X43421736Y-57367556D01*
X43413122Y-57369166D01*
X43413118Y-57369168D01*
X43387516Y-57385019D01*
X43381448Y-57388218D01*
X43353902Y-57400381D01*
X43353895Y-57400385D01*
X43347700Y-57406581D01*
X43329821Y-57420743D01*
X43322367Y-57425358D01*
X43304223Y-57449385D01*
X43299718Y-57454561D01*
X43029867Y-57724412D01*
X43024691Y-57728917D01*
X43014967Y-57736259D01*
X42984230Y-57769975D01*
X42982654Y-57771626D01*
X42969414Y-57784867D01*
X42967601Y-57787513D01*
X42963345Y-57792886D01*
X42943060Y-57815136D01*
X42943057Y-57815141D01*
X42939890Y-57823317D01*
X42929257Y-57843489D01*
X42924334Y-57850677D01*
X42875853Y-57888003D01*
X42814692Y-57889704D01*
X42772653Y-57864740D01*
X42714114Y-57806201D01*
X42607920Y-57759312D01*
X42607917Y-57759311D01*
X42607919Y-57759311D01*
X42581961Y-57756300D01*
X42581957Y-57756300D01*
X41767466Y-57756300D01*
X41709275Y-57737393D01*
X41697462Y-57727304D01*
X41594529Y-57624370D01*
X41590021Y-57619190D01*
X41582680Y-57609468D01*
X41580073Y-57607091D01*
X41556711Y-57575052D01*
X41543733Y-57546632D01*
X41543732Y-57546631D01*
X41543732Y-57546630D01*
X41461724Y-57451989D01*
X41461724Y-57451988D01*
X41356374Y-57384284D01*
X41236216Y-57349002D01*
X41236215Y-57349002D01*
X41110985Y-57349002D01*
X41110983Y-57349002D01*
X40990825Y-57384284D01*
X40885475Y-57451988D01*
X40885475Y-57451989D01*
X40803468Y-57546630D01*
X40751443Y-57660548D01*
X40751442Y-57660550D01*
X40733622Y-57784499D01*
X40733622Y-57784504D01*
X40751442Y-57908453D01*
X40751443Y-57908455D01*
X40751443Y-57908456D01*
X40751444Y-57908458D01*
X40803467Y-58022372D01*
X40803468Y-58022373D01*
X40885475Y-58117014D01*
X40885475Y-58117015D01*
X40979623Y-58177520D01*
X41018355Y-58224886D01*
X41025100Y-58260803D01*
X41025100Y-58413151D01*
X41025101Y-58413156D01*
X41028112Y-58439120D01*
X41075001Y-58545314D01*
X41157086Y-58627399D01*
X41263280Y-58674288D01*
X41289243Y-58677300D01*
X42559534Y-58677299D01*
X42617725Y-58696206D01*
X42653689Y-58745706D01*
X42653689Y-58806892D01*
X42629538Y-58846302D01*
X42440338Y-59035503D01*
X42385821Y-59063281D01*
X42370334Y-59064500D01*
X40874072Y-59064500D01*
X40815881Y-59045593D01*
X40799253Y-59030331D01*
X40788124Y-59017487D01*
X40788121Y-59017485D01*
X40788119Y-59017483D01*
X40682774Y-58949782D01*
X40562616Y-58914500D01*
X40562615Y-58914500D01*
X40437385Y-58914500D01*
X40437383Y-58914500D01*
X40317225Y-58949782D01*
X40211875Y-59017486D01*
X40211875Y-59017487D01*
X40129868Y-59112128D01*
X40077843Y-59226046D01*
X40077842Y-59226048D01*
X40060022Y-59349997D01*
X40060022Y-59350002D01*
X40077842Y-59473951D01*
X40077843Y-59473953D01*
X40077843Y-59473954D01*
X40077844Y-59473956D01*
X40129867Y-59587870D01*
X40129868Y-59587871D01*
X40211875Y-59682512D01*
X40211875Y-59682513D01*
X40317225Y-59750217D01*
X40317227Y-59750218D01*
X40437385Y-59785500D01*
X40437386Y-59785500D01*
X40562614Y-59785500D01*
X40562615Y-59785500D01*
X40682773Y-59750218D01*
X40788124Y-59682513D01*
X40799253Y-59669668D01*
X40851649Y-59638073D01*
X40874072Y-59635500D01*
X42470549Y-59635500D01*
X42477396Y-59635975D01*
X42489470Y-59637659D01*
X42489473Y-59637660D01*
X42489475Y-59637659D01*
X42489476Y-59637660D01*
X42513340Y-59636556D01*
X42535045Y-59635552D01*
X42537326Y-59635500D01*
X42556048Y-59635500D01*
X42556054Y-59635500D01*
X42559202Y-59634911D01*
X42566002Y-59634120D01*
X42596097Y-59632730D01*
X42604106Y-59629193D01*
X42625906Y-59622441D01*
X42634521Y-59620832D01*
X42660123Y-59604978D01*
X42666180Y-59601785D01*
X42693741Y-59589617D01*
X42699937Y-59583419D01*
X42717823Y-59569252D01*
X42725272Y-59564641D01*
X42743421Y-59540605D01*
X42747918Y-59535439D01*
X43350131Y-58933226D01*
X43355313Y-58928717D01*
X43365026Y-58921382D01*
X43365032Y-58921380D01*
X43395774Y-58887656D01*
X43397328Y-58886028D01*
X43410585Y-58872773D01*
X43412400Y-58870122D01*
X43416639Y-58864768D01*
X43436941Y-58842500D01*
X43440103Y-58834336D01*
X43450746Y-58814144D01*
X43455698Y-58806917D01*
X43462594Y-58777590D01*
X43464617Y-58771057D01*
X43475500Y-58742969D01*
X43475500Y-58734204D01*
X43478129Y-58711540D01*
X43480135Y-58703013D01*
X43480134Y-58703007D01*
X43480167Y-58702307D01*
X43480523Y-58701362D01*
X43482236Y-58694080D01*
X43483182Y-58694302D01*
X43501739Y-58645050D01*
X43552845Y-58611408D01*
X43606953Y-58611882D01*
X43687385Y-58635500D01*
X43687386Y-58635500D01*
X43812614Y-58635500D01*
X43812615Y-58635500D01*
X43932773Y-58600218D01*
X44038124Y-58532513D01*
X44120133Y-58437870D01*
X44172156Y-58323956D01*
X44177701Y-58285388D01*
X44189978Y-58200002D01*
X44189978Y-58199997D01*
X44172157Y-58076048D01*
X44172156Y-58076046D01*
X44172156Y-58076044D01*
X44120133Y-57962130D01*
X44108765Y-57949010D01*
X44084947Y-57892654D01*
X44098804Y-57833058D01*
X44113576Y-57814180D01*
X44700130Y-57227626D01*
X44705313Y-57223117D01*
X44715026Y-57215782D01*
X44715032Y-57215780D01*
X44745774Y-57182056D01*
X44747328Y-57180428D01*
X44760585Y-57167173D01*
X44762392Y-57164534D01*
X44766649Y-57159157D01*
X44786941Y-57136900D01*
X44786941Y-57136898D01*
X44793128Y-57130113D01*
X44793193Y-57130172D01*
X44797807Y-57124345D01*
X45007657Y-56914496D01*
X45062174Y-56886719D01*
X45077661Y-56885500D01*
X46240949Y-56885500D01*
X46247796Y-56885975D01*
X46259870Y-56887659D01*
X46259873Y-56887660D01*
X46259875Y-56887659D01*
X46259876Y-56887660D01*
X46283740Y-56886556D01*
X46305445Y-56885552D01*
X46307726Y-56885500D01*
X46326448Y-56885500D01*
X46326454Y-56885500D01*
X46329602Y-56884911D01*
X46336402Y-56884120D01*
X46366497Y-56882730D01*
X46374506Y-56879193D01*
X46396306Y-56872441D01*
X46404921Y-56870832D01*
X46430523Y-56854978D01*
X46436580Y-56851785D01*
X46464141Y-56839617D01*
X46470337Y-56833419D01*
X46488223Y-56819252D01*
X46495672Y-56814641D01*
X46513821Y-56790605D01*
X46518318Y-56785439D01*
X46828756Y-56475002D01*
X48760022Y-56475002D01*
X48777842Y-56598951D01*
X48777843Y-56598953D01*
X48777843Y-56598954D01*
X48777844Y-56598956D01*
X48829867Y-56712870D01*
X48829868Y-56712871D01*
X48911875Y-56807512D01*
X48911875Y-56807513D01*
X49017225Y-56875217D01*
X49017227Y-56875218D01*
X49137385Y-56910500D01*
X49137386Y-56910500D01*
X49262614Y-56910500D01*
X49262615Y-56910500D01*
X49382773Y-56875218D01*
X49488124Y-56807513D01*
X49570133Y-56712870D01*
X49622156Y-56598956D01*
X49622469Y-56596779D01*
X49639978Y-56475002D01*
X49639978Y-56474997D01*
X49622157Y-56351047D01*
X49620847Y-56346586D01*
X49622591Y-56285425D01*
X49659951Y-56236970D01*
X49676725Y-56229020D01*
X49676332Y-56228159D01*
X49682765Y-56225220D01*
X49682773Y-56225218D01*
X49788124Y-56157513D01*
X49870133Y-56062870D01*
X49922156Y-55948956D01*
X49922157Y-55948951D01*
X49939978Y-55825002D01*
X49939978Y-55824997D01*
X49922157Y-55701048D01*
X49922156Y-55701046D01*
X49922156Y-55701044D01*
X49870133Y-55587130D01*
X49788124Y-55492487D01*
X49788124Y-55492486D01*
X49682774Y-55424782D01*
X49562616Y-55389500D01*
X49562615Y-55389500D01*
X49437385Y-55389500D01*
X49437383Y-55389500D01*
X49317225Y-55424782D01*
X49211875Y-55492486D01*
X49211875Y-55492487D01*
X49129868Y-55587128D01*
X49129867Y-55587129D01*
X49129867Y-55587130D01*
X49119418Y-55610011D01*
X49077843Y-55701046D01*
X49077842Y-55701048D01*
X49060022Y-55824997D01*
X49060022Y-55825002D01*
X49077843Y-55948954D01*
X49079154Y-55953419D01*
X49077406Y-56014579D01*
X49040043Y-56063032D01*
X49023278Y-56070981D01*
X49023670Y-56071839D01*
X49017227Y-56074781D01*
X48911875Y-56142486D01*
X48911875Y-56142487D01*
X48829868Y-56237128D01*
X48777843Y-56351046D01*
X48777842Y-56351048D01*
X48760022Y-56474997D01*
X48760022Y-56475002D01*
X46828756Y-56475002D01*
X46989263Y-56314496D01*
X47043779Y-56286719D01*
X47059266Y-56285500D01*
X47112612Y-56285500D01*
X47112615Y-56285500D01*
X47145140Y-56275949D01*
X47206295Y-56277694D01*
X47243031Y-56300932D01*
X47245109Y-56303010D01*
X47346173Y-56347634D01*
X47370877Y-56350500D01*
X47829122Y-56350499D01*
X47853827Y-56347634D01*
X47954891Y-56303010D01*
X48033010Y-56224891D01*
X48077634Y-56123827D01*
X48080500Y-56099123D01*
X48080499Y-55740878D01*
X48077634Y-55716173D01*
X48033010Y-55615109D01*
X47954891Y-55536990D01*
X47872392Y-55500563D01*
X47826799Y-55459764D01*
X47813893Y-55399955D01*
X47838607Y-55343983D01*
X47872390Y-55319437D01*
X47954891Y-55283010D01*
X48016592Y-55221308D01*
X48071106Y-55193532D01*
X48131538Y-55203103D01*
X48174803Y-55246367D01*
X48177159Y-55251327D01*
X48177794Y-55252765D01*
X48257235Y-55332206D01*
X48360009Y-55377585D01*
X48385135Y-55380500D01*
X48814864Y-55380499D01*
X48839991Y-55377585D01*
X48942765Y-55332206D01*
X49022206Y-55252765D01*
X49067585Y-55149991D01*
X49070500Y-55124865D01*
X49070499Y-54807406D01*
X49089406Y-54749217D01*
X49138906Y-54713253D01*
X49200091Y-54713252D01*
X49226455Y-54729407D01*
X49227540Y-54727825D01*
X49235107Y-54733008D01*
X49235109Y-54733010D01*
X49336173Y-54777634D01*
X49360877Y-54780500D01*
X49719122Y-54780499D01*
X49743827Y-54777634D01*
X49844891Y-54733010D01*
X49923010Y-54654891D01*
X49959436Y-54572391D01*
X50000234Y-54526799D01*
X50060043Y-54513893D01*
X50116015Y-54538606D01*
X50140563Y-54572393D01*
X50174008Y-54648137D01*
X50176990Y-54654891D01*
X50255109Y-54733010D01*
X50262690Y-54736357D01*
X50308286Y-54777155D01*
X50321193Y-54836964D01*
X50297524Y-54891752D01*
X50279868Y-54912128D01*
X50279867Y-54912129D01*
X50279867Y-54912130D01*
X50273991Y-54924997D01*
X50227843Y-55026046D01*
X50227842Y-55026048D01*
X50210022Y-55149997D01*
X50210022Y-55150002D01*
X50227842Y-55273951D01*
X50227843Y-55273953D01*
X50227843Y-55273954D01*
X50227844Y-55273956D01*
X50279867Y-55387870D01*
X50302942Y-55414500D01*
X50361875Y-55482512D01*
X50361875Y-55482513D01*
X50465131Y-55548871D01*
X50467227Y-55550218D01*
X50587385Y-55585500D01*
X50587386Y-55585500D01*
X50712614Y-55585500D01*
X50712615Y-55585500D01*
X50832773Y-55550218D01*
X50832775Y-55550216D01*
X50834367Y-55549490D01*
X50835820Y-55549323D01*
X50839567Y-55548223D01*
X50839757Y-55548871D01*
X50895152Y-55542510D01*
X50948432Y-55572593D01*
X50973854Y-55628247D01*
X50974500Y-55639540D01*
X50974500Y-57044466D01*
X50955593Y-57102657D01*
X50906093Y-57138621D01*
X50847609Y-57139456D01*
X50762618Y-57114500D01*
X50762615Y-57114500D01*
X50637385Y-57114500D01*
X50637383Y-57114500D01*
X50517225Y-57149782D01*
X50411875Y-57217486D01*
X50411875Y-57217487D01*
X50329868Y-57312128D01*
X50329867Y-57312129D01*
X50329867Y-57312130D01*
X50309888Y-57355878D01*
X50277843Y-57426046D01*
X50277842Y-57426048D01*
X50260022Y-57549997D01*
X50260022Y-57550002D01*
X50277842Y-57673951D01*
X50277843Y-57673953D01*
X50277843Y-57673954D01*
X50277844Y-57673956D01*
X50329867Y-57787870D01*
X50343947Y-57804119D01*
X50411875Y-57882512D01*
X50411875Y-57882513D01*
X50510217Y-57945713D01*
X50517227Y-57950218D01*
X50637385Y-57985500D01*
X50637386Y-57985500D01*
X50762614Y-57985500D01*
X50762615Y-57985500D01*
X50847609Y-57960543D01*
X50908768Y-57962290D01*
X50957221Y-57999652D01*
X50974500Y-58055533D01*
X50974500Y-58272903D01*
X50974025Y-58279747D01*
X50972339Y-58291831D01*
X50974447Y-58337397D01*
X50974500Y-58339684D01*
X50974500Y-58358415D01*
X50975088Y-58361562D01*
X50975879Y-58368378D01*
X50977269Y-58398453D01*
X50977269Y-58398455D01*
X50977270Y-58398457D01*
X50980810Y-58406475D01*
X50987557Y-58428262D01*
X50989168Y-58436883D01*
X50989169Y-58436885D01*
X51005016Y-58462476D01*
X51008217Y-58468548D01*
X51020383Y-58496101D01*
X51026584Y-58502302D01*
X51040748Y-58520185D01*
X51045359Y-58527632D01*
X51048922Y-58533387D01*
X51063477Y-58592816D01*
X51040321Y-58649450D01*
X50988299Y-58681658D01*
X50964748Y-58684500D01*
X44499000Y-58684500D01*
X44473112Y-58686537D01*
X44462914Y-58688152D01*
X44442517Y-58691382D01*
X44371129Y-58720951D01*
X44321627Y-58756917D01*
X44321628Y-58756917D01*
X44303305Y-58772376D01*
X44303299Y-58772382D01*
X44261508Y-58839664D01*
X44261505Y-58839671D01*
X44242599Y-58897855D01*
X44234500Y-58948995D01*
X44234500Y-59139933D01*
X44228226Y-59168778D01*
X44229838Y-59169252D01*
X44227843Y-59176045D01*
X44210022Y-59299997D01*
X44210022Y-59300002D01*
X44227843Y-59423955D01*
X44229838Y-59430749D01*
X44228223Y-59431223D01*
X44234500Y-59460067D01*
X44234500Y-60085500D01*
X44215593Y-60143691D01*
X44166093Y-60179655D01*
X44135500Y-60184500D01*
X41899000Y-60184500D01*
X41873112Y-60186537D01*
X41862914Y-60188152D01*
X41842517Y-60191382D01*
X41771129Y-60220951D01*
X41721627Y-60256917D01*
X41721628Y-60256917D01*
X41703303Y-60272377D01*
X41661506Y-60339670D01*
X41642599Y-60397857D01*
X41634500Y-60448996D01*
X41634500Y-61250994D01*
X41636537Y-61276887D01*
X41641382Y-61307482D01*
X41670951Y-61378870D01*
X41706917Y-61428373D01*
X41706917Y-61428372D01*
X41722378Y-61446697D01*
X41789668Y-61488493D01*
X41828462Y-61501097D01*
X41847858Y-61507400D01*
X41847856Y-61507400D01*
X41898997Y-61515500D01*
X41899000Y-61515500D01*
X53285500Y-61515500D01*
X53343691Y-61534407D01*
X53379655Y-61583907D01*
X53384500Y-61614500D01*
X53384500Y-63200500D01*
X53365593Y-63258691D01*
X53316093Y-63294655D01*
X53285500Y-63299500D01*
X38687620Y-63299500D01*
X38684383Y-63299394D01*
X38664196Y-63298070D01*
X38430083Y-63282726D01*
X38423657Y-63281880D01*
X38175298Y-63232478D01*
X38169038Y-63230801D01*
X37929256Y-63149406D01*
X37923273Y-63146928D01*
X37696164Y-63034930D01*
X37690551Y-63031689D01*
X37480001Y-62891005D01*
X37474859Y-62887059D01*
X37284480Y-62720102D01*
X37279897Y-62715519D01*
X37112940Y-62525140D01*
X37108994Y-62519998D01*
X37105320Y-62514500D01*
X36968310Y-62309448D01*
X36965069Y-62303835D01*
X36853067Y-62076718D01*
X36850593Y-62070743D01*
X36835163Y-62025289D01*
X36769197Y-61830958D01*
X36767521Y-61824701D01*
X36718119Y-61576342D01*
X36717273Y-61569916D01*
X36711936Y-61488493D01*
X36700606Y-61315617D01*
X36700553Y-61314000D01*
X37480357Y-61314000D01*
X37500885Y-61535536D01*
X37561771Y-61749528D01*
X37660942Y-61948689D01*
X37795019Y-62126236D01*
X37959438Y-62276124D01*
X38148599Y-62393247D01*
X38356060Y-62473618D01*
X38574757Y-62514500D01*
X38797243Y-62514500D01*
X39015940Y-62473618D01*
X39223401Y-62393247D01*
X39412562Y-62276124D01*
X39576981Y-62126236D01*
X39711058Y-61948689D01*
X39810229Y-61749528D01*
X39871115Y-61535536D01*
X39891643Y-61314000D01*
X39871115Y-61092464D01*
X39810229Y-60878472D01*
X39711058Y-60679311D01*
X39576981Y-60501764D01*
X39412562Y-60351876D01*
X39223401Y-60234753D01*
X39015940Y-60154382D01*
X39015939Y-60154381D01*
X39015937Y-60154381D01*
X38797243Y-60113500D01*
X38574757Y-60113500D01*
X38356062Y-60154381D01*
X38290823Y-60179655D01*
X38148599Y-60234753D01*
X37959437Y-60351875D01*
X37959438Y-60351876D01*
X37795020Y-60501763D01*
X37660943Y-60679309D01*
X37660938Y-60679318D01*
X37561772Y-60878469D01*
X37500885Y-61092464D01*
X37484053Y-61274118D01*
X37480357Y-61314000D01*
X36700553Y-61314000D01*
X36700500Y-61312379D01*
X36700500Y-57778154D01*
X36914300Y-57778154D01*
X36914301Y-57778156D01*
X36917312Y-57804120D01*
X36964201Y-57910314D01*
X37046286Y-57992399D01*
X37152480Y-58039288D01*
X37178443Y-58042300D01*
X38971156Y-58042299D01*
X38997120Y-58039288D01*
X39103314Y-57992399D01*
X39185399Y-57910314D01*
X39204675Y-57866657D01*
X39245473Y-57821064D01*
X39305281Y-57808158D01*
X39361254Y-57832871D01*
X39385291Y-57865520D01*
X39393482Y-57883455D01*
X39475490Y-57978097D01*
X39475490Y-57978098D01*
X39575391Y-58042300D01*
X39580842Y-58045803D01*
X39701000Y-58081085D01*
X39701001Y-58081085D01*
X39826229Y-58081085D01*
X39826230Y-58081085D01*
X39946388Y-58045803D01*
X40051739Y-57978098D01*
X40133748Y-57883455D01*
X40185771Y-57769541D01*
X40199514Y-57673956D01*
X40203593Y-57645587D01*
X40203593Y-57645582D01*
X40185772Y-57521633D01*
X40185771Y-57521631D01*
X40185771Y-57521629D01*
X40133748Y-57407715D01*
X40051739Y-57313072D01*
X40051739Y-57313071D01*
X39946389Y-57245367D01*
X39826231Y-57210085D01*
X39826230Y-57210085D01*
X39751434Y-57210085D01*
X39695489Y-57192762D01*
X39690147Y-57189103D01*
X39690145Y-57189102D01*
X39660834Y-57182207D01*
X39654280Y-57180178D01*
X39626203Y-57169301D01*
X39626200Y-57169300D01*
X39626199Y-57169300D01*
X39626197Y-57169300D01*
X39617435Y-57169300D01*
X39594768Y-57166670D01*
X39586243Y-57164665D01*
X39556420Y-57168825D01*
X39549574Y-57169300D01*
X39119893Y-57169300D01*
X39079906Y-57160865D01*
X38997119Y-57124311D01*
X38971159Y-57121300D01*
X37178447Y-57121300D01*
X37178444Y-57121301D01*
X37152480Y-57124312D01*
X37046286Y-57171201D01*
X36964201Y-57253286D01*
X36917311Y-57359482D01*
X36914300Y-57385438D01*
X36914300Y-57778152D01*
X36914300Y-57778154D01*
X36700500Y-57778154D01*
X36700500Y-56508154D01*
X36914300Y-56508154D01*
X36914301Y-56508156D01*
X36917312Y-56534120D01*
X36964201Y-56640314D01*
X37046286Y-56722399D01*
X37152480Y-56769288D01*
X37178443Y-56772300D01*
X38971156Y-56772299D01*
X38997120Y-56769288D01*
X39103314Y-56722399D01*
X39114295Y-56711417D01*
X39168808Y-56683640D01*
X39212190Y-56686431D01*
X39212827Y-56686618D01*
X39332985Y-56721900D01*
X39332986Y-56721900D01*
X39458214Y-56721900D01*
X39458215Y-56721900D01*
X39578373Y-56686618D01*
X39683724Y-56618913D01*
X39765733Y-56524270D01*
X39817756Y-56410356D01*
X39821350Y-56385359D01*
X39835578Y-56286402D01*
X39835578Y-56286397D01*
X39817757Y-56162448D01*
X39817756Y-56162446D01*
X39817756Y-56162444D01*
X39765733Y-56048530D01*
X39683724Y-55953887D01*
X39683724Y-55953886D01*
X39578374Y-55886182D01*
X39458216Y-55850900D01*
X39458215Y-55850900D01*
X39332985Y-55850900D01*
X39332983Y-55850900D01*
X39247353Y-55876044D01*
X39228204Y-55881667D01*
X39212824Y-55886183D01*
X39199167Y-55894959D01*
X39139991Y-55910510D01*
X39105660Y-55902237D01*
X39069301Y-55886183D01*
X38997120Y-55854312D01*
X38997117Y-55854311D01*
X38997119Y-55854311D01*
X38971159Y-55851300D01*
X37178447Y-55851300D01*
X37178444Y-55851301D01*
X37152480Y-55854312D01*
X37046286Y-55901201D01*
X36964201Y-55983286D01*
X36917311Y-56089482D01*
X36914300Y-56115438D01*
X36914300Y-56508152D01*
X36914300Y-56508154D01*
X36700500Y-56508154D01*
X36700500Y-51923930D01*
X36719407Y-51865739D01*
X36768907Y-51829775D01*
X36830093Y-51829775D01*
X36879593Y-51865739D01*
G37*
G04 #@! TD.AperFunction*
G04 #@! TA.AperFunction,Conductor*
G36*
X45907289Y-52979407D02*
G01*
X45919102Y-52989496D01*
X45935504Y-53005898D01*
X45963281Y-53060415D01*
X45964500Y-53075902D01*
X45964500Y-53834460D01*
X45964501Y-53834470D01*
X45977437Y-53899508D01*
X45977438Y-53899511D01*
X46020863Y-53964500D01*
X46026726Y-53973274D01*
X46100490Y-54022562D01*
X46146695Y-54031752D01*
X46200079Y-54061647D01*
X46225696Y-54117212D01*
X46213760Y-54177222D01*
X46197386Y-54198854D01*
X45956477Y-54439763D01*
X45914368Y-54464748D01*
X45897226Y-54469781D01*
X45794163Y-54536016D01*
X45734988Y-54551571D01*
X45677971Y-54529372D01*
X45670646Y-54522745D01*
X45614891Y-54466990D01*
X45513827Y-54422366D01*
X45513826Y-54422365D01*
X45513824Y-54422365D01*
X45489127Y-54419500D01*
X45489123Y-54419500D01*
X45413265Y-54419500D01*
X45355074Y-54400593D01*
X45319110Y-54351093D01*
X45319110Y-54289907D01*
X45343259Y-54250499D01*
X45360129Y-54233628D01*
X45365312Y-54229118D01*
X45375026Y-54221782D01*
X45375032Y-54221780D01*
X45405774Y-54188056D01*
X45407328Y-54186428D01*
X45420585Y-54173173D01*
X45422400Y-54170522D01*
X45426639Y-54165168D01*
X45446941Y-54142900D01*
X45450108Y-54134723D01*
X45460746Y-54114543D01*
X45465698Y-54107316D01*
X45472592Y-54077998D01*
X45474619Y-54071453D01*
X45485500Y-54043369D01*
X45485500Y-54034604D01*
X45488129Y-54011940D01*
X45490135Y-54003413D01*
X45488952Y-53994939D01*
X45499638Y-53934694D01*
X45504676Y-53926277D01*
X45522562Y-53899510D01*
X45535500Y-53834465D01*
X45535499Y-53482108D01*
X45538130Y-53459438D01*
X45540135Y-53450914D01*
X45535974Y-53421083D01*
X45535499Y-53414237D01*
X45535499Y-53073909D01*
X45554406Y-53015718D01*
X45564498Y-53003903D01*
X45578908Y-52989494D01*
X45633425Y-52961718D01*
X45648909Y-52960500D01*
X45849098Y-52960500D01*
X45907289Y-52979407D01*
G37*
G04 #@! TD.AperFunction*
G04 #@! TA.AperFunction,Conductor*
G36*
X40910444Y-52221267D02*
G01*
X40953709Y-52264531D01*
X40964500Y-52309474D01*
X40964500Y-52334458D01*
X40964501Y-52334470D01*
X40977437Y-52399508D01*
X40977438Y-52399511D01*
X41007832Y-52444998D01*
X41024441Y-52503886D01*
X41007832Y-52555002D01*
X40977437Y-52600489D01*
X40977437Y-52600490D01*
X40964500Y-52665530D01*
X40964500Y-52834460D01*
X40964501Y-52834470D01*
X40977437Y-52899508D01*
X40977438Y-52899511D01*
X41019004Y-52961718D01*
X41026726Y-52973274D01*
X41026729Y-52973276D01*
X41100490Y-53022562D01*
X41117689Y-53025983D01*
X41171073Y-53055878D01*
X41196369Y-53108992D01*
X41204342Y-53164451D01*
X41204344Y-53164456D01*
X41208873Y-53174373D01*
X41215848Y-53235160D01*
X41185762Y-53288437D01*
X41130106Y-53313855D01*
X41118820Y-53314500D01*
X40109041Y-53314500D01*
X40102193Y-53314025D01*
X40090124Y-53312340D01*
X40051632Y-53314120D01*
X40044565Y-53314447D01*
X40042289Y-53314500D01*
X40023546Y-53314500D01*
X40023532Y-53314501D01*
X40020380Y-53315090D01*
X40013575Y-53315879D01*
X39983500Y-53317270D01*
X39975482Y-53320810D01*
X39953698Y-53327556D01*
X39945079Y-53329167D01*
X39945076Y-53329168D01*
X39919474Y-53345020D01*
X39913406Y-53348219D01*
X39885862Y-53360381D01*
X39885855Y-53360385D01*
X39879660Y-53366581D01*
X39861781Y-53380743D01*
X39854327Y-53385358D01*
X39836180Y-53409388D01*
X39831677Y-53414563D01*
X39810739Y-53435502D01*
X39756224Y-53463281D01*
X39740734Y-53464500D01*
X39687383Y-53464500D01*
X39567225Y-53499782D01*
X39461875Y-53567486D01*
X39461875Y-53567487D01*
X39379867Y-53662129D01*
X39340663Y-53747972D01*
X39299291Y-53793049D01*
X39239324Y-53805200D01*
X39183668Y-53779782D01*
X39180606Y-53776848D01*
X39158898Y-53755140D01*
X39039496Y-53635737D01*
X39011719Y-53581221D01*
X39010500Y-53565734D01*
X39010500Y-53404264D01*
X39029407Y-53346073D01*
X39039484Y-53334273D01*
X39294627Y-53079129D01*
X39299808Y-53074622D01*
X39309527Y-53067282D01*
X39309532Y-53067280D01*
X39340274Y-53033556D01*
X39341828Y-53031928D01*
X39355085Y-53018673D01*
X39356900Y-53016022D01*
X39361139Y-53010668D01*
X39381441Y-52988400D01*
X39384603Y-52980236D01*
X39395246Y-52960044D01*
X39400198Y-52952817D01*
X39407094Y-52923490D01*
X39409117Y-52916957D01*
X39420000Y-52888869D01*
X39420000Y-52880104D01*
X39422629Y-52857440D01*
X39424635Y-52848913D01*
X39420475Y-52819089D01*
X39420000Y-52812242D01*
X39420000Y-52797800D01*
X39438907Y-52739609D01*
X39488407Y-52703645D01*
X39546891Y-52702810D01*
X39632976Y-52728087D01*
X39632977Y-52728087D01*
X39758205Y-52728087D01*
X39758206Y-52728087D01*
X39878364Y-52692805D01*
X39983715Y-52625100D01*
X40065724Y-52530457D01*
X40072661Y-52515265D01*
X40092712Y-52486386D01*
X40209604Y-52369495D01*
X40264120Y-52341718D01*
X40279607Y-52340499D01*
X40614861Y-52340499D01*
X40614864Y-52340499D01*
X40639991Y-52337585D01*
X40742765Y-52292206D01*
X40795498Y-52239472D01*
X40850012Y-52211696D01*
X40910444Y-52221267D01*
G37*
G04 #@! TD.AperFunction*
G04 #@! TA.AperFunction,Conductor*
G36*
X53043691Y-36719407D02*
G01*
X53079655Y-36768907D01*
X53084500Y-36799500D01*
X53084500Y-37985500D01*
X53065593Y-38043691D01*
X53016093Y-38079655D01*
X52985500Y-38084500D01*
X52447748Y-38084500D01*
X52424208Y-38086183D01*
X52424209Y-38086183D01*
X52410257Y-38088188D01*
X52396312Y-38090193D01*
X52396310Y-38090193D01*
X52396306Y-38090194D01*
X52396304Y-38090194D01*
X52380924Y-38093539D01*
X52373234Y-38095212D01*
X52373236Y-38095211D01*
X52302476Y-38115989D01*
X52274583Y-38120000D01*
X52225418Y-38120000D01*
X52197526Y-38115990D01*
X52126763Y-38095211D01*
X52126764Y-38095212D01*
X52103692Y-38090194D01*
X52103690Y-38090193D01*
X52103687Y-38090193D01*
X52078253Y-38086537D01*
X52075791Y-38086183D01*
X52075792Y-38086183D01*
X52052252Y-38084500D01*
X52052250Y-38084500D01*
X50447750Y-38084500D01*
X50447748Y-38084500D01*
X50424208Y-38086183D01*
X50424209Y-38086183D01*
X50410257Y-38088188D01*
X50396312Y-38090193D01*
X50396310Y-38090193D01*
X50396306Y-38090194D01*
X50396304Y-38090194D01*
X50380924Y-38093539D01*
X50373234Y-38095212D01*
X50373236Y-38095211D01*
X50302476Y-38115989D01*
X50274583Y-38120000D01*
X50225418Y-38120000D01*
X50197526Y-38115990D01*
X50126763Y-38095211D01*
X50126764Y-38095212D01*
X50103692Y-38090194D01*
X50103690Y-38090193D01*
X50103687Y-38090193D01*
X50078253Y-38086537D01*
X50075791Y-38086183D01*
X50075792Y-38086183D01*
X50052252Y-38084500D01*
X50052250Y-38084500D01*
X48497750Y-38084500D01*
X48497748Y-38084500D01*
X48474208Y-38086183D01*
X48474209Y-38086183D01*
X48460257Y-38088188D01*
X48446312Y-38090193D01*
X48446310Y-38090193D01*
X48446306Y-38090194D01*
X48446304Y-38090194D01*
X48430924Y-38093539D01*
X48423234Y-38095212D01*
X48423236Y-38095211D01*
X48352476Y-38115989D01*
X48324583Y-38120000D01*
X48275418Y-38120000D01*
X48247526Y-38115990D01*
X48176763Y-38095211D01*
X48176764Y-38095212D01*
X48153692Y-38090194D01*
X48153690Y-38090193D01*
X48153687Y-38090193D01*
X48128253Y-38086537D01*
X48125791Y-38086183D01*
X48125792Y-38086183D01*
X48102252Y-38084500D01*
X48102250Y-38084500D01*
X46497750Y-38084500D01*
X46497748Y-38084500D01*
X46474208Y-38086183D01*
X46474209Y-38086183D01*
X46460257Y-38088188D01*
X46446312Y-38090193D01*
X46446310Y-38090193D01*
X46446306Y-38090194D01*
X46446304Y-38090194D01*
X46430924Y-38093539D01*
X46423234Y-38095212D01*
X46423236Y-38095211D01*
X46352476Y-38115989D01*
X46324583Y-38120000D01*
X46275418Y-38120000D01*
X46247526Y-38115990D01*
X46176763Y-38095211D01*
X46176764Y-38095212D01*
X46153692Y-38090194D01*
X46153690Y-38090193D01*
X46153687Y-38090193D01*
X46128253Y-38086537D01*
X46125791Y-38086183D01*
X46125792Y-38086183D01*
X46102252Y-38084500D01*
X46102250Y-38084500D01*
X44547750Y-38084500D01*
X44547748Y-38084500D01*
X44524208Y-38086183D01*
X44524209Y-38086183D01*
X44510257Y-38088188D01*
X44496312Y-38090193D01*
X44496310Y-38090193D01*
X44496306Y-38090194D01*
X44496304Y-38090194D01*
X44480924Y-38093539D01*
X44473234Y-38095212D01*
X44473236Y-38095211D01*
X44402476Y-38115989D01*
X44374583Y-38120000D01*
X44325418Y-38120000D01*
X44297526Y-38115990D01*
X44226763Y-38095211D01*
X44226764Y-38095212D01*
X44203692Y-38090194D01*
X44203690Y-38090193D01*
X44203687Y-38090193D01*
X44178253Y-38086537D01*
X44175791Y-38086183D01*
X44175792Y-38086183D01*
X44152252Y-38084500D01*
X44152250Y-38084500D01*
X42547750Y-38084500D01*
X42547748Y-38084500D01*
X42524208Y-38086183D01*
X42524209Y-38086183D01*
X42510257Y-38088188D01*
X42496312Y-38090193D01*
X42496310Y-38090193D01*
X42496306Y-38090194D01*
X42496304Y-38090194D01*
X42480924Y-38093539D01*
X42473234Y-38095212D01*
X42473236Y-38095211D01*
X42402476Y-38115989D01*
X42374583Y-38120000D01*
X42325418Y-38120000D01*
X42297526Y-38115990D01*
X42226763Y-38095211D01*
X42226764Y-38095212D01*
X42203692Y-38090194D01*
X42203690Y-38090193D01*
X42203687Y-38090193D01*
X42178253Y-38086537D01*
X42175791Y-38086183D01*
X42175792Y-38086183D01*
X42152252Y-38084500D01*
X42152250Y-38084500D01*
X41749000Y-38084500D01*
X41723112Y-38086537D01*
X41712914Y-38088152D01*
X41692517Y-38091382D01*
X41621129Y-38120951D01*
X41571627Y-38156917D01*
X41571628Y-38156917D01*
X41553303Y-38172377D01*
X41511506Y-38239670D01*
X41492599Y-38297857D01*
X41484500Y-38348996D01*
X41484500Y-38348999D01*
X41484500Y-38349000D01*
X41484500Y-41051000D01*
X41484759Y-41054286D01*
X41486537Y-41076887D01*
X41491382Y-41107482D01*
X41520951Y-41178870D01*
X41556917Y-41228373D01*
X41556917Y-41228372D01*
X41572378Y-41246697D01*
X41639668Y-41288493D01*
X41678462Y-41301097D01*
X41697858Y-41307400D01*
X41697856Y-41307400D01*
X41748997Y-41315500D01*
X47501000Y-41315500D01*
X47559191Y-41334407D01*
X47595155Y-41383907D01*
X47600000Y-41414499D01*
X47600000Y-41450000D01*
X48954555Y-41450000D01*
X49012746Y-41468907D01*
X49033798Y-41491198D01*
X49033858Y-41491147D01*
X49035070Y-41492545D01*
X49037842Y-41495481D01*
X49038497Y-41496501D01*
X49116421Y-41586430D01*
X49140239Y-41642789D01*
X49126380Y-41702384D01*
X49116421Y-41716092D01*
X49054868Y-41787127D01*
X49002843Y-41901046D01*
X49002842Y-41901048D01*
X48985022Y-42024997D01*
X48985022Y-42025002D01*
X49002842Y-42148951D01*
X49002843Y-42148953D01*
X49002843Y-42148954D01*
X49002844Y-42148956D01*
X49054867Y-42262870D01*
X49054868Y-42262871D01*
X49136875Y-42357512D01*
X49136875Y-42357513D01*
X49209656Y-42404286D01*
X49242227Y-42425218D01*
X49362385Y-42460500D01*
X49362386Y-42460500D01*
X49487614Y-42460500D01*
X49487615Y-42460500D01*
X49607773Y-42425218D01*
X49713124Y-42357513D01*
X49795133Y-42262870D01*
X49847156Y-42148956D01*
X49847157Y-42148951D01*
X49864978Y-42025002D01*
X49864978Y-42024997D01*
X49847157Y-41901048D01*
X49847156Y-41901046D01*
X49847156Y-41901044D01*
X49795133Y-41787130D01*
X49762959Y-41749999D01*
X49717206Y-41697197D01*
X49693388Y-41640838D01*
X49707246Y-41581243D01*
X49717197Y-41567545D01*
X49778761Y-41496498D01*
X49778765Y-41496489D01*
X49779414Y-41495481D01*
X49780195Y-41494842D01*
X49783398Y-41491146D01*
X49784037Y-41491700D01*
X49826778Y-41456747D01*
X49862701Y-41450000D01*
X51251000Y-41450000D01*
X51309191Y-41468907D01*
X51345155Y-41518407D01*
X51350000Y-41549000D01*
X51350000Y-44815500D01*
X51331093Y-44873691D01*
X51281593Y-44909655D01*
X51251000Y-44914500D01*
X51236719Y-44914500D01*
X51236705Y-44914501D01*
X51233553Y-44915090D01*
X51226748Y-44915879D01*
X51196673Y-44917270D01*
X51188655Y-44920810D01*
X51166871Y-44927556D01*
X51158255Y-44929167D01*
X51158249Y-44929169D01*
X51132645Y-44945021D01*
X51126578Y-44948219D01*
X51099031Y-44960383D01*
X51099030Y-44960383D01*
X51092833Y-44966581D01*
X51074954Y-44980743D01*
X51067500Y-44985358D01*
X51049356Y-45009385D01*
X51044852Y-45014561D01*
X50338911Y-45720503D01*
X50284394Y-45748281D01*
X50268907Y-45749500D01*
X49737649Y-45749500D01*
X49679458Y-45730593D01*
X49643494Y-45681093D01*
X49643494Y-45619907D01*
X49679458Y-45570407D01*
X49684125Y-45567216D01*
X49738124Y-45532513D01*
X49820133Y-45437870D01*
X49872156Y-45323956D01*
X49872276Y-45323121D01*
X49889978Y-45200002D01*
X49889978Y-45199997D01*
X49872157Y-45076048D01*
X49872156Y-45076046D01*
X49872156Y-45076044D01*
X49820133Y-44962130D01*
X49738124Y-44867487D01*
X49738124Y-44867486D01*
X49632774Y-44799782D01*
X49512616Y-44764500D01*
X49512615Y-44764500D01*
X49387385Y-44764500D01*
X49387383Y-44764500D01*
X49267225Y-44799782D01*
X49161875Y-44867486D01*
X49161875Y-44867487D01*
X49079868Y-44962128D01*
X49027843Y-45076046D01*
X49027842Y-45076048D01*
X49010022Y-45199997D01*
X49010022Y-45200002D01*
X49027842Y-45323951D01*
X49027843Y-45323953D01*
X49027843Y-45323954D01*
X49027844Y-45323956D01*
X49079867Y-45437870D01*
X49079868Y-45437871D01*
X49161875Y-45532512D01*
X49161875Y-45532513D01*
X49244325Y-45585500D01*
X49267227Y-45600218D01*
X49339103Y-45621323D01*
X49340704Y-45621793D01*
X49391211Y-45656329D01*
X49411772Y-45713956D01*
X49394534Y-45772663D01*
X49379024Y-45788185D01*
X49379736Y-45788897D01*
X49367051Y-45801581D01*
X49349172Y-45815743D01*
X49341718Y-45820358D01*
X49323574Y-45844385D01*
X49319069Y-45849561D01*
X48277367Y-46891263D01*
X48272191Y-46895768D01*
X48262468Y-46903110D01*
X48235950Y-46932198D01*
X48182774Y-46962462D01*
X48162790Y-46964500D01*
X48134500Y-46964500D01*
X48076309Y-46945593D01*
X48040345Y-46896093D01*
X48035500Y-46865500D01*
X48035500Y-46136043D01*
X48035975Y-46129196D01*
X48037659Y-46117121D01*
X48037660Y-46117119D01*
X48035552Y-46071536D01*
X48035500Y-46069256D01*
X48035500Y-46050541D01*
X48035499Y-46050535D01*
X48034913Y-46047401D01*
X48034121Y-46040585D01*
X48032731Y-46010495D01*
X48029189Y-46002473D01*
X48022440Y-45980675D01*
X48022158Y-45979168D01*
X48020832Y-45972071D01*
X48007166Y-45950000D01*
X48004980Y-45946470D01*
X48001779Y-45940397D01*
X47995874Y-45927023D01*
X47989617Y-45912851D01*
X47989616Y-45912850D01*
X47989616Y-45912849D01*
X47983417Y-45906650D01*
X47969251Y-45888765D01*
X47964641Y-45881320D01*
X47940614Y-45863175D01*
X47935437Y-45858670D01*
X47591636Y-45514869D01*
X47587130Y-45509691D01*
X47579788Y-45499968D01*
X47546081Y-45469240D01*
X47544429Y-45467662D01*
X47531183Y-45454417D01*
X47531175Y-45454410D01*
X47528528Y-45452596D01*
X47523158Y-45448342D01*
X47511670Y-45437870D01*
X47500908Y-45428059D01*
X47500904Y-45428057D01*
X47500902Y-45428056D01*
X47492733Y-45424891D01*
X47472559Y-45414258D01*
X47471703Y-45413671D01*
X47465325Y-45409303D01*
X47465324Y-45409302D01*
X47465323Y-45409302D01*
X47436012Y-45402407D01*
X47429458Y-45400378D01*
X47401381Y-45389501D01*
X47401378Y-45389500D01*
X47401377Y-45389500D01*
X47401375Y-45389500D01*
X47392613Y-45389500D01*
X47369946Y-45386870D01*
X47361421Y-45384865D01*
X47331598Y-45389025D01*
X47324752Y-45389500D01*
X47174072Y-45389500D01*
X47115881Y-45370593D01*
X47099253Y-45355331D01*
X47088124Y-45342487D01*
X47088121Y-45342485D01*
X47088119Y-45342483D01*
X46982774Y-45274782D01*
X46862616Y-45239500D01*
X46862615Y-45239500D01*
X46737385Y-45239500D01*
X46737383Y-45239500D01*
X46617225Y-45274782D01*
X46542009Y-45323121D01*
X46482834Y-45338676D01*
X46425818Y-45316477D01*
X46413667Y-45304668D01*
X46401389Y-45290499D01*
X46338124Y-45217487D01*
X46338124Y-45217486D01*
X46232774Y-45149782D01*
X46112616Y-45114500D01*
X46112615Y-45114500D01*
X45987385Y-45114500D01*
X45987383Y-45114500D01*
X45867225Y-45149782D01*
X45761875Y-45217486D01*
X45761875Y-45217487D01*
X45679868Y-45312128D01*
X45627843Y-45426046D01*
X45627842Y-45426048D01*
X45610022Y-45549997D01*
X45610022Y-45550002D01*
X45627842Y-45673951D01*
X45627843Y-45673953D01*
X45627843Y-45673954D01*
X45627844Y-45673956D01*
X45678785Y-45785500D01*
X45679868Y-45787872D01*
X45696786Y-45807396D01*
X45720604Y-45863755D01*
X45706746Y-45923350D01*
X45660505Y-45963418D01*
X45641279Y-45969325D01*
X45600491Y-45977437D01*
X45600488Y-45977438D01*
X45526729Y-46026723D01*
X45526723Y-46026729D01*
X45477437Y-46100489D01*
X45464500Y-46165532D01*
X45464500Y-47052770D01*
X45464025Y-47059614D01*
X45462339Y-47071698D01*
X45464447Y-47117264D01*
X45464500Y-47119551D01*
X45464500Y-47138282D01*
X45465088Y-47141429D01*
X45465879Y-47148245D01*
X45467269Y-47178320D01*
X45467269Y-47178322D01*
X45467270Y-47178324D01*
X45470810Y-47186342D01*
X45477557Y-47208129D01*
X45479168Y-47216750D01*
X45479169Y-47216752D01*
X45495016Y-47242343D01*
X45498217Y-47248415D01*
X45510383Y-47275968D01*
X45516584Y-47282169D01*
X45530746Y-47300049D01*
X45535359Y-47307499D01*
X45559380Y-47325639D01*
X45564559Y-47330145D01*
X45584011Y-47349596D01*
X45611788Y-47404113D01*
X45613007Y-47419600D01*
X45613007Y-47789449D01*
X45612532Y-47796291D01*
X45610847Y-47808376D01*
X45612955Y-47853945D01*
X45613008Y-47856232D01*
X45613008Y-47874963D01*
X45613596Y-47878110D01*
X45614386Y-47884924D01*
X45614489Y-47887130D01*
X45615777Y-47915001D01*
X45615777Y-47915003D01*
X45615778Y-47915005D01*
X45619318Y-47923023D01*
X45626064Y-47944807D01*
X45626287Y-47946000D01*
X45627676Y-47953431D01*
X45627677Y-47953433D01*
X45643524Y-47979024D01*
X45646725Y-47985096D01*
X45653306Y-48000000D01*
X45658891Y-48012649D01*
X45665092Y-48018850D01*
X45679254Y-48036730D01*
X45683867Y-48044180D01*
X45683868Y-48044181D01*
X45684889Y-48045301D01*
X45685939Y-48047526D01*
X45688698Y-48051982D01*
X45688190Y-48052296D01*
X45709721Y-48097910D01*
X45727842Y-48223951D01*
X45727843Y-48223953D01*
X45727843Y-48223954D01*
X45727844Y-48223956D01*
X45779867Y-48337870D01*
X45779868Y-48337871D01*
X45861875Y-48432512D01*
X45861875Y-48432513D01*
X45967225Y-48500217D01*
X45967227Y-48500218D01*
X46087385Y-48535500D01*
X46087386Y-48535500D01*
X46212614Y-48535500D01*
X46212615Y-48535500D01*
X46332773Y-48500218D01*
X46438124Y-48432513D01*
X46451848Y-48416674D01*
X46504242Y-48385077D01*
X46565203Y-48390312D01*
X46601486Y-48416671D01*
X46615212Y-48432512D01*
X46636877Y-48457514D01*
X46732570Y-48519012D01*
X46742227Y-48525218D01*
X46862385Y-48560500D01*
X46862386Y-48560500D01*
X46987614Y-48560500D01*
X46987615Y-48560500D01*
X47107773Y-48525218D01*
X47213124Y-48457513D01*
X47295133Y-48362870D01*
X47347156Y-48248956D01*
X47350028Y-48228984D01*
X47365986Y-48117992D01*
X47368684Y-48118379D01*
X47383885Y-48071596D01*
X47393972Y-48059786D01*
X47410129Y-48043628D01*
X47415312Y-48039118D01*
X47425026Y-48031782D01*
X47425032Y-48031780D01*
X47455774Y-47998056D01*
X47457328Y-47996428D01*
X47470585Y-47983173D01*
X47472400Y-47980522D01*
X47476639Y-47975168D01*
X47496941Y-47952900D01*
X47500107Y-47944727D01*
X47510744Y-47924547D01*
X47515697Y-47917317D01*
X47522593Y-47887994D01*
X47524617Y-47881459D01*
X47535500Y-47853369D01*
X47535500Y-47844605D01*
X47538130Y-47821936D01*
X47538498Y-47820372D01*
X47540135Y-47813413D01*
X47535975Y-47783589D01*
X47535500Y-47776742D01*
X47535500Y-47255266D01*
X47554407Y-47197075D01*
X47603907Y-47161111D01*
X47653816Y-47158169D01*
X47665535Y-47160500D01*
X47740500Y-47160499D01*
X47798690Y-47179406D01*
X47834654Y-47228905D01*
X47839500Y-47259498D01*
X47839500Y-47334459D01*
X47839501Y-47334470D01*
X47852437Y-47399508D01*
X47852438Y-47399511D01*
X47882832Y-47444998D01*
X47899441Y-47503886D01*
X47882832Y-47555002D01*
X47852437Y-47600489D01*
X47852437Y-47600490D01*
X47839500Y-47665530D01*
X47839500Y-47834460D01*
X47839501Y-47834470D01*
X47852437Y-47899508D01*
X47852438Y-47899511D01*
X47882832Y-47944998D01*
X47899441Y-48003886D01*
X47882832Y-48055002D01*
X47852437Y-48100489D01*
X47852437Y-48100490D01*
X47839500Y-48165530D01*
X47839500Y-48334460D01*
X47839501Y-48334470D01*
X47852437Y-48399508D01*
X47852438Y-48399511D01*
X47882832Y-48444998D01*
X47899441Y-48503886D01*
X47882832Y-48555002D01*
X47852437Y-48600489D01*
X47852437Y-48600490D01*
X47839500Y-48665530D01*
X47839500Y-48834460D01*
X47839501Y-48834470D01*
X47852437Y-48899508D01*
X47852438Y-48899511D01*
X47882832Y-48944997D01*
X47899441Y-49003884D01*
X47882833Y-49055000D01*
X47852437Y-49100490D01*
X47839500Y-49165530D01*
X47839500Y-49334460D01*
X47839501Y-49334470D01*
X47852437Y-49399508D01*
X47852438Y-49399511D01*
X47882832Y-49444998D01*
X47899441Y-49503886D01*
X47882832Y-49555002D01*
X47852437Y-49600489D01*
X47852437Y-49600490D01*
X47839500Y-49665530D01*
X47839500Y-49834460D01*
X47839501Y-49834470D01*
X47852437Y-49899508D01*
X47852438Y-49899511D01*
X47882832Y-49944998D01*
X47899441Y-50003886D01*
X47882832Y-50055002D01*
X47852437Y-50100489D01*
X47852437Y-50100490D01*
X47839500Y-50165530D01*
X47839500Y-50234458D01*
X47820593Y-50292649D01*
X47771093Y-50328613D01*
X47709907Y-50328613D01*
X47665681Y-50299289D01*
X47638124Y-50267487D01*
X47638124Y-50267486D01*
X47532774Y-50199782D01*
X47412616Y-50164500D01*
X47412615Y-50164500D01*
X47287385Y-50164500D01*
X47287383Y-50164500D01*
X47167225Y-50199782D01*
X47061875Y-50267486D01*
X47061875Y-50267487D01*
X46979868Y-50362128D01*
X46927843Y-50476046D01*
X46927842Y-50476048D01*
X46909014Y-50607008D01*
X46906315Y-50606619D01*
X46891115Y-50653402D01*
X46881025Y-50665215D01*
X46714866Y-50831373D01*
X46709691Y-50835877D01*
X46699967Y-50843219D01*
X46669230Y-50876935D01*
X46667654Y-50878586D01*
X46654414Y-50891827D01*
X46652601Y-50894473D01*
X46648345Y-50899846D01*
X46628060Y-50922096D01*
X46628057Y-50922101D01*
X46624890Y-50930277D01*
X46614257Y-50950450D01*
X46609303Y-50957682D01*
X46609302Y-50957683D01*
X46602408Y-50986992D01*
X46600379Y-50993545D01*
X46589500Y-51021630D01*
X46589500Y-51030395D01*
X46586870Y-51053061D01*
X46585967Y-51056899D01*
X46584865Y-51061586D01*
X46589025Y-51091409D01*
X46589500Y-51098255D01*
X46589500Y-51290733D01*
X46570593Y-51348924D01*
X46560504Y-51360736D01*
X46510738Y-51410503D01*
X46456222Y-51438281D01*
X46440734Y-51439500D01*
X44384051Y-51439500D01*
X44377204Y-51439025D01*
X44365123Y-51437339D01*
X44323943Y-51439244D01*
X44319554Y-51439447D01*
X44317274Y-51439500D01*
X44298543Y-51439500D01*
X44295387Y-51440090D01*
X44288578Y-51440879D01*
X44258506Y-51442269D01*
X44258498Y-51442271D01*
X44250482Y-51445810D01*
X44228698Y-51452556D01*
X44220079Y-51454167D01*
X44220076Y-51454168D01*
X44194474Y-51470020D01*
X44188406Y-51473219D01*
X44160862Y-51485381D01*
X44160855Y-51485385D01*
X44154660Y-51491581D01*
X44136781Y-51505743D01*
X44129327Y-51510358D01*
X44111183Y-51534385D01*
X44106679Y-51539561D01*
X43704504Y-51941736D01*
X43649987Y-51969514D01*
X43589555Y-51959943D01*
X43546290Y-51916678D01*
X43535500Y-51871733D01*
X43535500Y-48871451D01*
X43535975Y-48864604D01*
X43537659Y-48852529D01*
X43537660Y-48852527D01*
X43537594Y-48851108D01*
X43535553Y-48806960D01*
X43535500Y-48804674D01*
X43535500Y-48785948D01*
X43535500Y-48785946D01*
X43534909Y-48782790D01*
X43534120Y-48775984D01*
X43532730Y-48745903D01*
X43529190Y-48737886D01*
X43522441Y-48716090D01*
X43520832Y-48707479D01*
X43504978Y-48681874D01*
X43501781Y-48675810D01*
X43489617Y-48648259D01*
X43489616Y-48648258D01*
X43489616Y-48648257D01*
X43483417Y-48642058D01*
X43469251Y-48624173D01*
X43464641Y-48616728D01*
X43440614Y-48598583D01*
X43435437Y-48594078D01*
X42995362Y-48154004D01*
X42967585Y-48099487D01*
X42977156Y-48039055D01*
X43020421Y-47995790D01*
X43065366Y-47985000D01*
X43098175Y-47985000D01*
X43098176Y-47985000D01*
X43218334Y-47949718D01*
X43323685Y-47882013D01*
X43354255Y-47846733D01*
X43406650Y-47815137D01*
X43467611Y-47820372D01*
X43503893Y-47846733D01*
X43577875Y-47932112D01*
X43577875Y-47932113D01*
X43683225Y-47999817D01*
X43683227Y-47999818D01*
X43803385Y-48035100D01*
X43803386Y-48035100D01*
X43928614Y-48035100D01*
X43928615Y-48035100D01*
X44048773Y-47999818D01*
X44154124Y-47932113D01*
X44236133Y-47837470D01*
X44288156Y-47723556D01*
X44292499Y-47693351D01*
X44305978Y-47599602D01*
X44305978Y-47599597D01*
X44288157Y-47475648D01*
X44288156Y-47475646D01*
X44288156Y-47475644D01*
X44236133Y-47361730D01*
X44163782Y-47278233D01*
X44154125Y-47267088D01*
X44154124Y-47267087D01*
X44094712Y-47228905D01*
X44080976Y-47220077D01*
X44042245Y-47172710D01*
X44035500Y-47136793D01*
X44035500Y-46959460D01*
X44464500Y-46959460D01*
X44464501Y-46959470D01*
X44477437Y-47024508D01*
X44477438Y-47024511D01*
X44526626Y-47098125D01*
X44526726Y-47098274D01*
X44600490Y-47147562D01*
X44665535Y-47160500D01*
X44834464Y-47160499D01*
X44834468Y-47160498D01*
X44834470Y-47160498D01*
X44862821Y-47154859D01*
X44899510Y-47147562D01*
X44973274Y-47098274D01*
X45022562Y-47024510D01*
X45035500Y-46959465D01*
X45035499Y-46165536D01*
X45022562Y-46100490D01*
X45010060Y-46081780D01*
X44973276Y-46026729D01*
X44973274Y-46026726D01*
X44973270Y-46026723D01*
X44899509Y-45977437D01*
X44834466Y-45964500D01*
X44665539Y-45964500D01*
X44665529Y-45964501D01*
X44600491Y-45977437D01*
X44600488Y-45977438D01*
X44526729Y-46026723D01*
X44526723Y-46026729D01*
X44477437Y-46100489D01*
X44464500Y-46165532D01*
X44464500Y-46959460D01*
X44035500Y-46959460D01*
X44035500Y-46528072D01*
X44035499Y-46528058D01*
X44035499Y-46165539D01*
X44035498Y-46165529D01*
X44025869Y-46117119D01*
X44022562Y-46100490D01*
X44010060Y-46081780D01*
X43973276Y-46026729D01*
X43973274Y-46026726D01*
X43973270Y-46026723D01*
X43899509Y-45977437D01*
X43834466Y-45964500D01*
X43665539Y-45964500D01*
X43665532Y-45964501D01*
X43653809Y-45966833D01*
X43593048Y-45959638D01*
X43548120Y-45918103D01*
X43535500Y-45869734D01*
X43535500Y-45853408D01*
X43554407Y-45795217D01*
X43564490Y-45783410D01*
X43593010Y-45754891D01*
X43637634Y-45653827D01*
X43640500Y-45629123D01*
X43640499Y-45170878D01*
X43637634Y-45146173D01*
X43593010Y-45045109D01*
X43526437Y-44978536D01*
X43498662Y-44924022D01*
X43508233Y-44863590D01*
X43526436Y-44838534D01*
X43572206Y-44792765D01*
X43617585Y-44689991D01*
X43620500Y-44664865D01*
X43620499Y-44300002D01*
X46860022Y-44300002D01*
X46877842Y-44423951D01*
X46877843Y-44423953D01*
X46877843Y-44423954D01*
X46877844Y-44423956D01*
X46929867Y-44537870D01*
X46929868Y-44537871D01*
X47011875Y-44632512D01*
X47011875Y-44632513D01*
X47101313Y-44689991D01*
X47117227Y-44700218D01*
X47237385Y-44735500D01*
X47237386Y-44735500D01*
X47362614Y-44735500D01*
X47362615Y-44735500D01*
X47482773Y-44700218D01*
X47588124Y-44632513D01*
X47670133Y-44537870D01*
X47722156Y-44423956D01*
X47736233Y-44326046D01*
X47739978Y-44300002D01*
X47739978Y-44299997D01*
X47722157Y-44176048D01*
X47722156Y-44176046D01*
X47722156Y-44176044D01*
X47670133Y-44062130D01*
X47627559Y-44012997D01*
X47603741Y-43956638D01*
X47617599Y-43897043D01*
X47648850Y-43864885D01*
X47738124Y-43807513D01*
X47789350Y-43748394D01*
X47841744Y-43716800D01*
X47902705Y-43722036D01*
X47938987Y-43748395D01*
X47990212Y-43807512D01*
X48011877Y-43832514D01*
X48116886Y-43899999D01*
X48117227Y-43900218D01*
X48237385Y-43935500D01*
X48237386Y-43935500D01*
X48362614Y-43935500D01*
X48362615Y-43935500D01*
X48482773Y-43900218D01*
X48588124Y-43832513D01*
X48670133Y-43737870D01*
X48687427Y-43700002D01*
X49160022Y-43700002D01*
X49177842Y-43823951D01*
X49177843Y-43823953D01*
X49177843Y-43823954D01*
X49177844Y-43823956D01*
X49229867Y-43937870D01*
X49229868Y-43937871D01*
X49311875Y-44032512D01*
X49311875Y-44032513D01*
X49410217Y-44095713D01*
X49417227Y-44100218D01*
X49537385Y-44135500D01*
X49537386Y-44135500D01*
X49662614Y-44135500D01*
X49662615Y-44135500D01*
X49782773Y-44100218D01*
X49888124Y-44032513D01*
X49970133Y-43937870D01*
X50022156Y-43823956D01*
X50022157Y-43823951D01*
X50039978Y-43700002D01*
X50039978Y-43699997D01*
X50022157Y-43576048D01*
X50022156Y-43576046D01*
X50022156Y-43576044D01*
X49970133Y-43462130D01*
X49888124Y-43367487D01*
X49888124Y-43367486D01*
X49782774Y-43299782D01*
X49662616Y-43264500D01*
X49662615Y-43264500D01*
X49537385Y-43264500D01*
X49537383Y-43264500D01*
X49417225Y-43299782D01*
X49311875Y-43367486D01*
X49311875Y-43367487D01*
X49229868Y-43462128D01*
X49229867Y-43462129D01*
X49229867Y-43462130D01*
X49223989Y-43475002D01*
X49177843Y-43576046D01*
X49177842Y-43576048D01*
X49160022Y-43699997D01*
X49160022Y-43700002D01*
X48687427Y-43700002D01*
X48722156Y-43623956D01*
X48722157Y-43623951D01*
X48739978Y-43500002D01*
X48739978Y-43499997D01*
X48722157Y-43376048D01*
X48722156Y-43376046D01*
X48722156Y-43376044D01*
X48670133Y-43262130D01*
X48588124Y-43167487D01*
X48588124Y-43167486D01*
X48482774Y-43099782D01*
X48362616Y-43064500D01*
X48362615Y-43064500D01*
X48237385Y-43064500D01*
X48237383Y-43064500D01*
X48117225Y-43099782D01*
X48011877Y-43167485D01*
X47960650Y-43226604D01*
X47908253Y-43258199D01*
X47847292Y-43252963D01*
X47811012Y-43226603D01*
X47738124Y-43142487D01*
X47738124Y-43142486D01*
X47632774Y-43074782D01*
X47512616Y-43039500D01*
X47512615Y-43039500D01*
X47387385Y-43039500D01*
X47387383Y-43039500D01*
X47267225Y-43074782D01*
X47161875Y-43142486D01*
X47161875Y-43142487D01*
X47079868Y-43237128D01*
X47079867Y-43237129D01*
X47079867Y-43237130D01*
X47064391Y-43271018D01*
X47027843Y-43351046D01*
X47027842Y-43351048D01*
X47010022Y-43474997D01*
X47010022Y-43475002D01*
X47027842Y-43598951D01*
X47027843Y-43598953D01*
X47027843Y-43598954D01*
X47027844Y-43598956D01*
X47079867Y-43712870D01*
X47079868Y-43712871D01*
X47122440Y-43762002D01*
X47146258Y-43818361D01*
X47132400Y-43877956D01*
X47101145Y-43910117D01*
X47011874Y-43967488D01*
X46929868Y-44062128D01*
X46877843Y-44176046D01*
X46877842Y-44176048D01*
X46860022Y-44299997D01*
X46860022Y-44300002D01*
X43620499Y-44300002D01*
X43620499Y-44235136D01*
X43617585Y-44210009D01*
X43572206Y-44107235D01*
X43492765Y-44027794D01*
X43389991Y-43982415D01*
X43389990Y-43982414D01*
X43389988Y-43982414D01*
X43364868Y-43979500D01*
X42995140Y-43979500D01*
X42995135Y-43979501D01*
X42970009Y-43982414D01*
X42867235Y-44027794D01*
X42787792Y-44107237D01*
X42782610Y-44114803D01*
X42779863Y-44112921D01*
X42749755Y-44146561D01*
X42689945Y-44159460D01*
X42633976Y-44134740D01*
X42618792Y-44113842D01*
X42617390Y-44114803D01*
X42612207Y-44107237D01*
X42612206Y-44107236D01*
X42612206Y-44107235D01*
X42532765Y-44027794D01*
X42429991Y-43982415D01*
X42429990Y-43982414D01*
X42429988Y-43982414D01*
X42404868Y-43979500D01*
X42035140Y-43979500D01*
X42035135Y-43979501D01*
X42010009Y-43982414D01*
X41907235Y-44027794D01*
X41827794Y-44107235D01*
X41782414Y-44210011D01*
X41779500Y-44235130D01*
X41779500Y-44664860D01*
X41779501Y-44664863D01*
X41782414Y-44689990D01*
X41800818Y-44731670D01*
X41827794Y-44792765D01*
X41873562Y-44838533D01*
X41901338Y-44893048D01*
X41891767Y-44953480D01*
X41873563Y-44978535D01*
X41839968Y-45012131D01*
X41806987Y-45045112D01*
X41802443Y-45051746D01*
X41753957Y-45089065D01*
X41692795Y-45090758D01*
X41650769Y-45065798D01*
X41592765Y-45007794D01*
X41489991Y-44962415D01*
X41489990Y-44962414D01*
X41489988Y-44962414D01*
X41464869Y-44959500D01*
X41464865Y-44959500D01*
X41204634Y-44959500D01*
X41146443Y-44940593D01*
X41121350Y-44914024D01*
X41120131Y-44912127D01*
X41038124Y-44817487D01*
X41038124Y-44817486D01*
X40932772Y-44749781D01*
X40918142Y-44745485D01*
X40867636Y-44710948D01*
X40847076Y-44653320D01*
X40855983Y-44609369D01*
X40858787Y-44603229D01*
X40872156Y-44573956D01*
X40872157Y-44573951D01*
X40889978Y-44450002D01*
X40889978Y-44449997D01*
X40872157Y-44326048D01*
X40872156Y-44326046D01*
X40872156Y-44326044D01*
X40820133Y-44212130D01*
X40738124Y-44117487D01*
X40738124Y-44117486D01*
X40632774Y-44049782D01*
X40512616Y-44014500D01*
X40512615Y-44014500D01*
X40387385Y-44014500D01*
X40387381Y-44014500D01*
X40287391Y-44043860D01*
X40226231Y-44042112D01*
X40177778Y-44004750D01*
X40160500Y-43948870D01*
X40160500Y-43525002D01*
X44210022Y-43525002D01*
X44227842Y-43648951D01*
X44227843Y-43648953D01*
X44227843Y-43648954D01*
X44227844Y-43648956D01*
X44279867Y-43762870D01*
X44279868Y-43762871D01*
X44361875Y-43857512D01*
X44361875Y-43857513D01*
X44443729Y-43910117D01*
X44467227Y-43925218D01*
X44587385Y-43960500D01*
X44587386Y-43960500D01*
X44712614Y-43960500D01*
X44712615Y-43960500D01*
X44832773Y-43925218D01*
X44938124Y-43857513D01*
X45020133Y-43762870D01*
X45072156Y-43648956D01*
X45074477Y-43632812D01*
X45089978Y-43525002D01*
X45089978Y-43524997D01*
X45072157Y-43401048D01*
X45072156Y-43401046D01*
X45072156Y-43401044D01*
X45020133Y-43287130D01*
X44938124Y-43192487D01*
X44938124Y-43192486D01*
X44832774Y-43124782D01*
X44712616Y-43089500D01*
X44712615Y-43089500D01*
X44587385Y-43089500D01*
X44587383Y-43089500D01*
X44467225Y-43124782D01*
X44361875Y-43192486D01*
X44361875Y-43192487D01*
X44279868Y-43287128D01*
X44227843Y-43401046D01*
X44227842Y-43401048D01*
X44210022Y-43524997D01*
X44210022Y-43525002D01*
X40160500Y-43525002D01*
X40160500Y-43301129D01*
X40179407Y-43242938D01*
X40228907Y-43206974D01*
X40287392Y-43206139D01*
X40387385Y-43235500D01*
X40387386Y-43235500D01*
X40512614Y-43235500D01*
X40512615Y-43235500D01*
X40632773Y-43200218D01*
X40738124Y-43132513D01*
X40820133Y-43037870D01*
X40872156Y-42923956D01*
X40874984Y-42904289D01*
X40889978Y-42800002D01*
X40889978Y-42799997D01*
X40872157Y-42676048D01*
X40872156Y-42676046D01*
X40872156Y-42676044D01*
X40820133Y-42562130D01*
X40738124Y-42467487D01*
X40738124Y-42467486D01*
X40632774Y-42399782D01*
X40512616Y-42364500D01*
X40512615Y-42364500D01*
X40387385Y-42364500D01*
X40387383Y-42364500D01*
X40267225Y-42399782D01*
X40161876Y-42467486D01*
X40125913Y-42508989D01*
X40073516Y-42540584D01*
X40012556Y-42535347D01*
X39981091Y-42514160D01*
X39731801Y-42264869D01*
X39727295Y-42259691D01*
X39719953Y-42249968D01*
X39708537Y-42239561D01*
X39686241Y-42219235D01*
X39684594Y-42217662D01*
X39671348Y-42204417D01*
X39671340Y-42204410D01*
X39668693Y-42202596D01*
X39663323Y-42198342D01*
X39649107Y-42185383D01*
X39641073Y-42178059D01*
X39641069Y-42178057D01*
X39641067Y-42178056D01*
X39632898Y-42174891D01*
X39612724Y-42164258D01*
X39611868Y-42163671D01*
X39605490Y-42159303D01*
X39605489Y-42159302D01*
X39605488Y-42159302D01*
X39576177Y-42152407D01*
X39569623Y-42150378D01*
X39541546Y-42139501D01*
X39541543Y-42139500D01*
X39541542Y-42139500D01*
X39541540Y-42139500D01*
X39532778Y-42139500D01*
X39510111Y-42136870D01*
X39501586Y-42134865D01*
X39471763Y-42139025D01*
X39464917Y-42139500D01*
X38894041Y-42139500D01*
X38887193Y-42139025D01*
X38875124Y-42137340D01*
X38836632Y-42139120D01*
X38829565Y-42139447D01*
X38827289Y-42139500D01*
X38808546Y-42139500D01*
X38808532Y-42139501D01*
X38805380Y-42140090D01*
X38798575Y-42140879D01*
X38768500Y-42142270D01*
X38760482Y-42145810D01*
X38738698Y-42152556D01*
X38730082Y-42154167D01*
X38730076Y-42154169D01*
X38704472Y-42170021D01*
X38698405Y-42173219D01*
X38670858Y-42185383D01*
X38670857Y-42185383D01*
X38664660Y-42191581D01*
X38646781Y-42205743D01*
X38639327Y-42210358D01*
X38621183Y-42234385D01*
X38616678Y-42239561D01*
X38505736Y-42350504D01*
X38451219Y-42378281D01*
X38435732Y-42379500D01*
X38220882Y-42379500D01*
X38220877Y-42379501D01*
X38196172Y-42382366D01*
X38196173Y-42382366D01*
X38097252Y-42426044D01*
X38095107Y-42426991D01*
X38036594Y-42485504D01*
X37982077Y-42513281D01*
X37966591Y-42514500D01*
X37957561Y-42514500D01*
X37899370Y-42495593D01*
X37868620Y-42458981D01*
X37852981Y-42426991D01*
X37819170Y-42357829D01*
X37729671Y-42268330D01*
X37660235Y-42234385D01*
X37615960Y-42212740D01*
X37615961Y-42212740D01*
X37599610Y-42210358D01*
X37542243Y-42202000D01*
X37542239Y-42202000D01*
X36957762Y-42202000D01*
X36957756Y-42202001D01*
X36884043Y-42212739D01*
X36884036Y-42212741D01*
X36842980Y-42232812D01*
X36782397Y-42241383D01*
X36728348Y-42212707D01*
X36701476Y-42157738D01*
X36700500Y-42143871D01*
X36700500Y-41881128D01*
X36719407Y-41822937D01*
X36768907Y-41786973D01*
X36830093Y-41786973D01*
X36842981Y-41792188D01*
X36884033Y-41812257D01*
X36884037Y-41812258D01*
X36884040Y-41812260D01*
X36957757Y-41823000D01*
X37542242Y-41822999D01*
X37615960Y-41812260D01*
X37729671Y-41756670D01*
X37819170Y-41667171D01*
X37874760Y-41553460D01*
X37875959Y-41545225D01*
X37903059Y-41490370D01*
X37957227Y-41461918D01*
X37973925Y-41460500D01*
X38838009Y-41460500D01*
X38865900Y-41464509D01*
X38937385Y-41485500D01*
X38937386Y-41485500D01*
X39062614Y-41485500D01*
X39062615Y-41485500D01*
X39182773Y-41450218D01*
X39288124Y-41382513D01*
X39370133Y-41287870D01*
X39422156Y-41173956D01*
X39427380Y-41137622D01*
X39439978Y-41050002D01*
X39439978Y-41049997D01*
X39422157Y-40926048D01*
X39422156Y-40926046D01*
X39422156Y-40926044D01*
X39370133Y-40812130D01*
X39288124Y-40717487D01*
X39288124Y-40717486D01*
X39182774Y-40649782D01*
X39062616Y-40614500D01*
X39062615Y-40614500D01*
X38937385Y-40614500D01*
X38937383Y-40614500D01*
X38865901Y-40635490D01*
X38838009Y-40639500D01*
X37635213Y-40639500D01*
X37620940Y-40638466D01*
X37615961Y-40637740D01*
X37615960Y-40637740D01*
X37542243Y-40627000D01*
X37542239Y-40627000D01*
X36957762Y-40627000D01*
X36957756Y-40627001D01*
X36884043Y-40637739D01*
X36884036Y-40637741D01*
X36842980Y-40657812D01*
X36782397Y-40666383D01*
X36728348Y-40637707D01*
X36701476Y-40582738D01*
X36700500Y-40568871D01*
X36700500Y-38687620D01*
X36700553Y-38686000D01*
X37480357Y-38686000D01*
X37500885Y-38907536D01*
X37561771Y-39121528D01*
X37660942Y-39320689D01*
X37795019Y-39498236D01*
X37959438Y-39648124D01*
X38148599Y-39765247D01*
X38356060Y-39845618D01*
X38574757Y-39886500D01*
X38797243Y-39886500D01*
X39015940Y-39845618D01*
X39223401Y-39765247D01*
X39412562Y-39648124D01*
X39576981Y-39498236D01*
X39711058Y-39320689D01*
X39810229Y-39121528D01*
X39871115Y-38907536D01*
X39891643Y-38686000D01*
X39871115Y-38464464D01*
X39810229Y-38250472D01*
X39711058Y-38051311D01*
X39576981Y-37873764D01*
X39412562Y-37723876D01*
X39223401Y-37606753D01*
X39015940Y-37526382D01*
X39015939Y-37526381D01*
X39015937Y-37526381D01*
X38797243Y-37485500D01*
X38574757Y-37485500D01*
X38356062Y-37526381D01*
X38279797Y-37555926D01*
X38148599Y-37606753D01*
X38013260Y-37690551D01*
X37959438Y-37723876D01*
X37795020Y-37873763D01*
X37660943Y-38051309D01*
X37660938Y-38051318D01*
X37561772Y-38250469D01*
X37561771Y-38250472D01*
X37500885Y-38464464D01*
X37480357Y-38686000D01*
X36700553Y-38686000D01*
X36700606Y-38684382D01*
X36701981Y-38663410D01*
X36717273Y-38430076D01*
X36718119Y-38423657D01*
X36767521Y-38175298D01*
X36769196Y-38169044D01*
X36850595Y-37929249D01*
X36853065Y-37923286D01*
X36965075Y-37696152D01*
X36968310Y-37690551D01*
X37024302Y-37606753D01*
X37109001Y-37479991D01*
X37112931Y-37474869D01*
X37279907Y-37284469D01*
X37284469Y-37279907D01*
X37474869Y-37112931D01*
X37479991Y-37109001D01*
X37690555Y-36968307D01*
X37696152Y-36965075D01*
X37923286Y-36853065D01*
X37929249Y-36850595D01*
X38169044Y-36769196D01*
X38175298Y-36767521D01*
X38417182Y-36719407D01*
X38423659Y-36718118D01*
X38430076Y-36717273D01*
X38684383Y-36700605D01*
X38687620Y-36700500D01*
X38725882Y-36700500D01*
X52985500Y-36700500D01*
X53043691Y-36719407D01*
G37*
G04 #@! TD.AperFunction*
G04 #@! TA.AperFunction,Conductor*
G36*
X37868734Y-44689347D02*
G01*
X37893793Y-44707553D01*
X37940503Y-44754262D01*
X37968281Y-44808778D01*
X37969500Y-44824266D01*
X37969500Y-44895733D01*
X37950593Y-44953924D01*
X37940503Y-44965737D01*
X37889866Y-45016373D01*
X37884690Y-45020877D01*
X37874968Y-45028218D01*
X37844230Y-45061935D01*
X37842654Y-45063586D01*
X37829414Y-45076827D01*
X37827601Y-45079473D01*
X37823345Y-45084846D01*
X37803060Y-45107096D01*
X37803057Y-45107101D01*
X37799890Y-45115277D01*
X37789257Y-45135450D01*
X37784303Y-45142682D01*
X37784302Y-45142683D01*
X37777408Y-45171992D01*
X37775379Y-45178545D01*
X37764500Y-45206630D01*
X37764500Y-45215395D01*
X37761870Y-45238063D01*
X37759865Y-45246586D01*
X37764025Y-45276409D01*
X37764500Y-45283255D01*
X37764500Y-46059713D01*
X37745593Y-46117904D01*
X37735503Y-46129717D01*
X37339874Y-46525345D01*
X37334707Y-46529843D01*
X37328558Y-46534489D01*
X37270731Y-46554483D01*
X37268877Y-46554500D01*
X37139185Y-46554500D01*
X37092377Y-46563812D01*
X37092374Y-46563813D01*
X37039287Y-46599284D01*
X37039284Y-46599287D01*
X37003813Y-46652374D01*
X37003812Y-46652377D01*
X36994500Y-46699185D01*
X36994500Y-47765814D01*
X37003812Y-47812622D01*
X37003814Y-47812628D01*
X37019431Y-47836000D01*
X37036039Y-47894888D01*
X37019431Y-47946000D01*
X37003814Y-47969371D01*
X37003812Y-47969377D01*
X36994500Y-48016185D01*
X36994500Y-48432814D01*
X37003812Y-48479622D01*
X37003813Y-48479625D01*
X37039284Y-48532712D01*
X37039287Y-48532715D01*
X37092374Y-48568186D01*
X37092375Y-48568186D01*
X37092376Y-48568187D01*
X37101789Y-48570059D01*
X37139185Y-48577499D01*
X37139192Y-48577499D01*
X37139194Y-48577500D01*
X37139195Y-48577500D01*
X37860805Y-48577500D01*
X37860806Y-48577500D01*
X37860807Y-48577499D01*
X37860814Y-48577499D01*
X37888796Y-48571932D01*
X37907624Y-48568187D01*
X37934066Y-48550518D01*
X37992954Y-48533910D01*
X38050358Y-48555087D01*
X38059072Y-48562830D01*
X38231370Y-48735129D01*
X38235875Y-48740306D01*
X38243218Y-48750030D01*
X38243219Y-48750031D01*
X38243220Y-48750032D01*
X38266240Y-48771018D01*
X38276925Y-48780758D01*
X38278577Y-48782336D01*
X38291824Y-48795582D01*
X38291827Y-48795585D01*
X38294474Y-48797398D01*
X38299840Y-48801648D01*
X38322100Y-48821941D01*
X38330267Y-48825105D01*
X38350454Y-48835746D01*
X38357683Y-48840698D01*
X38386984Y-48847588D01*
X38393510Y-48849607D01*
X38396194Y-48850645D01*
X38397392Y-48851109D01*
X38444844Y-48889732D01*
X38460533Y-48948871D01*
X38450623Y-48986923D01*
X38425418Y-49038480D01*
X38425417Y-49038482D01*
X38425418Y-49038482D01*
X38414500Y-49113418D01*
X38414500Y-49636582D01*
X38425418Y-49711518D01*
X38481924Y-49827102D01*
X38572898Y-49918076D01*
X38688482Y-49974582D01*
X38763418Y-49985500D01*
X39038957Y-49985500D01*
X39097148Y-50004407D01*
X39108961Y-50014496D01*
X39173758Y-50079294D01*
X39226986Y-50132521D01*
X39265706Y-50171241D01*
X39287910Y-50182554D01*
X39301152Y-50190668D01*
X39321314Y-50205317D01*
X39345015Y-50213017D01*
X39359358Y-50218958D01*
X39381567Y-50230275D01*
X39406179Y-50234172D01*
X39421287Y-50237800D01*
X39444982Y-50245500D01*
X39444983Y-50245500D01*
X39477693Y-50245500D01*
X40136924Y-50245500D01*
X40164816Y-50249510D01*
X40167226Y-50250217D01*
X40167227Y-50250218D01*
X40261469Y-50277890D01*
X40311975Y-50312426D01*
X40332537Y-50370053D01*
X40315299Y-50428760D01*
X40308397Y-50437710D01*
X40289232Y-50459827D01*
X40237207Y-50573746D01*
X40237206Y-50573748D01*
X40219386Y-50697697D01*
X40219386Y-50697702D01*
X40237206Y-50821651D01*
X40237208Y-50821656D01*
X40241737Y-50831573D01*
X40248712Y-50892360D01*
X40218626Y-50945637D01*
X40162970Y-50971055D01*
X40151684Y-50971700D01*
X39979950Y-50971700D01*
X39973102Y-50971225D01*
X39961033Y-50969540D01*
X39922541Y-50971320D01*
X39915474Y-50971647D01*
X39913198Y-50971700D01*
X39894455Y-50971700D01*
X39894441Y-50971701D01*
X39891289Y-50972290D01*
X39884484Y-50973079D01*
X39854409Y-50974470D01*
X39846391Y-50978010D01*
X39824607Y-50984756D01*
X39815991Y-50986367D01*
X39815985Y-50986369D01*
X39790381Y-51002221D01*
X39784314Y-51005419D01*
X39756767Y-51017583D01*
X39756766Y-51017583D01*
X39750569Y-51023781D01*
X39732690Y-51037943D01*
X39725236Y-51042558D01*
X39707092Y-51066585D01*
X39702587Y-51071761D01*
X39037760Y-51736589D01*
X38983243Y-51764366D01*
X38922811Y-51754795D01*
X38912751Y-51748898D01*
X38912624Y-51748813D01*
X38912622Y-51748812D01*
X38865814Y-51739500D01*
X38865806Y-51739500D01*
X38109500Y-51739500D01*
X38051309Y-51720593D01*
X38015345Y-51671093D01*
X38010500Y-51640500D01*
X38010500Y-51525685D01*
X38029407Y-51467494D01*
X38039490Y-51455687D01*
X38118076Y-51377102D01*
X38174582Y-51261518D01*
X38185500Y-51186582D01*
X38185500Y-50663418D01*
X38174582Y-50588482D01*
X38118076Y-50472898D01*
X38027102Y-50381924D01*
X37911518Y-50325418D01*
X37836582Y-50314500D01*
X37263418Y-50314500D01*
X37188481Y-50325418D01*
X37188482Y-50325418D01*
X37072899Y-50381923D01*
X36981923Y-50472899D01*
X36926876Y-50585500D01*
X36925418Y-50588482D01*
X36914500Y-50663418D01*
X36914500Y-51186582D01*
X36920206Y-51225742D01*
X36925418Y-51261519D01*
X36925419Y-51261521D01*
X36931630Y-51274226D01*
X36940201Y-51334808D01*
X36917510Y-51382535D01*
X36891867Y-51412129D01*
X36891864Y-51412134D01*
X36889552Y-51417198D01*
X36848179Y-51462274D01*
X36788212Y-51474423D01*
X36732557Y-51449005D01*
X36702471Y-51395727D01*
X36700500Y-51376069D01*
X36700500Y-44856128D01*
X36719407Y-44797937D01*
X36768907Y-44761973D01*
X36830093Y-44761973D01*
X36842981Y-44767188D01*
X36884033Y-44787257D01*
X36884037Y-44787258D01*
X36884040Y-44787260D01*
X36957757Y-44798000D01*
X37542242Y-44797999D01*
X37615960Y-44787260D01*
X37729671Y-44731670D01*
X37753787Y-44707553D01*
X37808301Y-44679776D01*
X37868734Y-44689347D01*
G37*
G04 #@! TD.AperFunction*
G04 #@! TA.AperFunction,Conductor*
G36*
X51295946Y-46591382D02*
G01*
X51339210Y-46634646D01*
X51350000Y-46679591D01*
X51350000Y-47015882D01*
X51331093Y-47074073D01*
X51281593Y-47110037D01*
X51220407Y-47110037D01*
X51211021Y-47106450D01*
X51133827Y-47072366D01*
X51133826Y-47072365D01*
X51133824Y-47072365D01*
X51109127Y-47069500D01*
X51109123Y-47069500D01*
X51078424Y-47069500D01*
X51020233Y-47050593D01*
X50984269Y-47001093D01*
X50984269Y-46939907D01*
X51005263Y-46903803D01*
X51016695Y-46891263D01*
X51021941Y-46885509D01*
X51025107Y-46877336D01*
X51035744Y-46857156D01*
X51040697Y-46849926D01*
X51047593Y-46820603D01*
X51049617Y-46814068D01*
X51060500Y-46785978D01*
X51060500Y-46777213D01*
X51063130Y-46754547D01*
X51065013Y-46746541D01*
X51091378Y-46699205D01*
X51180998Y-46609586D01*
X51235514Y-46581810D01*
X51295946Y-46591382D01*
G37*
G04 #@! TD.AperFunction*
G04 #@! TA.AperFunction,Conductor*
G36*
X60273692Y-54418907D02*
G01*
X60309656Y-54468407D01*
X60314501Y-54499000D01*
X60314501Y-54707199D01*
X60317224Y-54736254D01*
X60317225Y-54736259D01*
X60360046Y-54858634D01*
X60360048Y-54858638D01*
X60437040Y-54962960D01*
X60541362Y-55039952D01*
X60663742Y-55082775D01*
X60692801Y-55085500D01*
X63007198Y-55085499D01*
X63007199Y-55085499D01*
X63013009Y-55084954D01*
X63036258Y-55082775D01*
X63158638Y-55039952D01*
X63158637Y-55039952D01*
X63165640Y-55037502D01*
X63166563Y-55040139D01*
X63214490Y-55031797D01*
X63269425Y-55058738D01*
X63298032Y-55112824D01*
X63299499Y-55129803D01*
X63299500Y-61274117D01*
X63299500Y-61312379D01*
X63299394Y-61315617D01*
X63282726Y-61569916D01*
X63281880Y-61576342D01*
X63232478Y-61824701D01*
X63230801Y-61830961D01*
X63149406Y-62070743D01*
X63146926Y-62076732D01*
X63034930Y-62303835D01*
X63031689Y-62309448D01*
X62891005Y-62519998D01*
X62887059Y-62525140D01*
X62720102Y-62715519D01*
X62715519Y-62720102D01*
X62525140Y-62887059D01*
X62519998Y-62891005D01*
X62309448Y-63031689D01*
X62303835Y-63034930D01*
X62076732Y-63146926D01*
X62070743Y-63149406D01*
X61830961Y-63230801D01*
X61824701Y-63232478D01*
X61576342Y-63281880D01*
X61569916Y-63282726D01*
X61333822Y-63298200D01*
X61315616Y-63299394D01*
X61312380Y-63299500D01*
X58499000Y-63299500D01*
X58440809Y-63280593D01*
X58404845Y-63231093D01*
X58400000Y-63200500D01*
X58400000Y-61314000D01*
X60108357Y-61314000D01*
X60128885Y-61535536D01*
X60189771Y-61749528D01*
X60288942Y-61948689D01*
X60423019Y-62126236D01*
X60587438Y-62276124D01*
X60776599Y-62393247D01*
X60984060Y-62473618D01*
X61202757Y-62514500D01*
X61425243Y-62514500D01*
X61643940Y-62473618D01*
X61851401Y-62393247D01*
X62040562Y-62276124D01*
X62204981Y-62126236D01*
X62339058Y-61948689D01*
X62438229Y-61749528D01*
X62499115Y-61535536D01*
X62519643Y-61314000D01*
X62499115Y-61092464D01*
X62438229Y-60878472D01*
X62339058Y-60679311D01*
X62204981Y-60501764D01*
X62040562Y-60351876D01*
X61851401Y-60234753D01*
X61643940Y-60154382D01*
X61643939Y-60154381D01*
X61643937Y-60154381D01*
X61425243Y-60113500D01*
X61202757Y-60113500D01*
X60984062Y-60154381D01*
X60907797Y-60183926D01*
X60776599Y-60234753D01*
X60607155Y-60339668D01*
X60587438Y-60351876D01*
X60423020Y-60501763D01*
X60288943Y-60679309D01*
X60288938Y-60679318D01*
X60189772Y-60878469D01*
X60128885Y-61092464D01*
X60112053Y-61274118D01*
X60108357Y-61314000D01*
X58400000Y-61314000D01*
X58400000Y-61184500D01*
X58418907Y-61126309D01*
X58468407Y-61090345D01*
X58499000Y-61085500D01*
X58612614Y-61085500D01*
X58612615Y-61085500D01*
X58732773Y-61050218D01*
X58838124Y-60982513D01*
X58920133Y-60887870D01*
X58972156Y-60773956D01*
X58972157Y-60773951D01*
X58989978Y-60650002D01*
X58989978Y-60649997D01*
X58972157Y-60526048D01*
X58972156Y-60526046D01*
X58972156Y-60526044D01*
X58920133Y-60412130D01*
X58919597Y-60411511D01*
X58919331Y-60410881D01*
X58916305Y-60406173D01*
X58917120Y-60405649D01*
X58895783Y-60355151D01*
X58909644Y-60295556D01*
X58912105Y-60291682D01*
X58925004Y-60272378D01*
X58931187Y-60263124D01*
X58939576Y-60220953D01*
X58940499Y-60216314D01*
X58940500Y-60216304D01*
X58940500Y-60185814D01*
X58959407Y-60127623D01*
X59008907Y-60091659D01*
X59070093Y-60091659D01*
X59093020Y-60102528D01*
X59167227Y-60150218D01*
X59287385Y-60185500D01*
X59287386Y-60185500D01*
X59412614Y-60185500D01*
X59412615Y-60185500D01*
X59532773Y-60150218D01*
X59638124Y-60082513D01*
X59720133Y-59987870D01*
X59772156Y-59873956D01*
X59782106Y-59804753D01*
X59789978Y-59750002D01*
X59789978Y-59749997D01*
X59772157Y-59626048D01*
X59772156Y-59626046D01*
X59772156Y-59626044D01*
X59720133Y-59512130D01*
X59682342Y-59468517D01*
X59658525Y-59412157D01*
X59672384Y-59352562D01*
X59684225Y-59338504D01*
X59683487Y-59337865D01*
X59723123Y-59292122D01*
X59770133Y-59237870D01*
X59822156Y-59123956D01*
X59826443Y-59094138D01*
X59839978Y-59000002D01*
X59839978Y-58999997D01*
X59822157Y-58876048D01*
X59822156Y-58876046D01*
X59822156Y-58876044D01*
X59770133Y-58762130D01*
X59688124Y-58667487D01*
X59688124Y-58667486D01*
X59582774Y-58599782D01*
X59462616Y-58564500D01*
X59462615Y-58564500D01*
X59337385Y-58564500D01*
X59337383Y-58564500D01*
X59217225Y-58599782D01*
X59111876Y-58667486D01*
X59100743Y-58680334D01*
X59048346Y-58711928D01*
X59025926Y-58714500D01*
X58773546Y-58714501D01*
X58499000Y-58714501D01*
X58440809Y-58695594D01*
X58404845Y-58646094D01*
X58400000Y-58615501D01*
X58400000Y-54499000D01*
X58418907Y-54440809D01*
X58468407Y-54404845D01*
X58499000Y-54400000D01*
X60215501Y-54400000D01*
X60273692Y-54418907D01*
G37*
G04 #@! TD.AperFunction*
G04 #@! TA.AperFunction,Conductor*
G36*
X58159191Y-36719407D02*
G01*
X58195155Y-36768907D01*
X58200000Y-36799500D01*
X58200000Y-38889240D01*
X58181093Y-38947431D01*
X58165837Y-38964054D01*
X58161881Y-38967482D01*
X58161877Y-38967486D01*
X58161876Y-38967487D01*
X58079867Y-39062130D01*
X58027843Y-39176046D01*
X58027842Y-39176048D01*
X58010022Y-39299997D01*
X58010022Y-39300002D01*
X58027842Y-39423951D01*
X58027843Y-39423953D01*
X58027843Y-39423954D01*
X58027844Y-39423956D01*
X58079867Y-39537870D01*
X58079868Y-39537871D01*
X58161873Y-39632510D01*
X58165828Y-39635937D01*
X58197426Y-39688332D01*
X58200000Y-39710759D01*
X58200000Y-39721157D01*
X58198098Y-39740468D01*
X58189500Y-39783694D01*
X58189500Y-40190308D01*
X58196301Y-40224500D01*
X58198098Y-40233530D01*
X58200000Y-40252845D01*
X58200000Y-45747155D01*
X58198098Y-45766470D01*
X58189500Y-45809691D01*
X58189500Y-46117840D01*
X58170593Y-46176031D01*
X58121093Y-46211995D01*
X58095074Y-46216734D01*
X58083507Y-46217269D01*
X58083498Y-46217271D01*
X58075482Y-46220810D01*
X58053698Y-46227556D01*
X58045079Y-46229167D01*
X58041093Y-46231636D01*
X57981665Y-46246192D01*
X57925030Y-46223038D01*
X57892821Y-46171017D01*
X57891127Y-46156987D01*
X57890986Y-46157008D01*
X57872157Y-46026048D01*
X57872156Y-46026046D01*
X57872156Y-46026044D01*
X57820133Y-45912130D01*
X57738124Y-45817487D01*
X57738124Y-45817486D01*
X57632774Y-45749782D01*
X57512616Y-45714500D01*
X57512615Y-45714500D01*
X57387385Y-45714500D01*
X57387383Y-45714500D01*
X57267225Y-45749782D01*
X57161875Y-45817486D01*
X57161875Y-45817487D01*
X57079868Y-45912128D01*
X57027843Y-46026046D01*
X57027842Y-46026048D01*
X57010022Y-46149997D01*
X57010022Y-46150002D01*
X57027842Y-46273951D01*
X57027843Y-46273953D01*
X57027843Y-46273954D01*
X57027844Y-46273956D01*
X57079867Y-46387870D01*
X57079868Y-46387871D01*
X57161875Y-46482512D01*
X57161875Y-46482513D01*
X57240015Y-46532730D01*
X57267227Y-46550218D01*
X57387385Y-46585500D01*
X57387386Y-46585500D01*
X57387981Y-46585500D01*
X57388453Y-46585653D01*
X57394391Y-46586507D01*
X57394243Y-46587534D01*
X57446172Y-46604407D01*
X57482136Y-46653907D01*
X57482136Y-46715093D01*
X57478037Y-46725622D01*
X57477843Y-46726045D01*
X57477842Y-46726048D01*
X57460022Y-46849997D01*
X57460022Y-46850002D01*
X57477842Y-46973951D01*
X57477843Y-46973953D01*
X57477843Y-46973954D01*
X57477844Y-46973956D01*
X57529867Y-47087870D01*
X57529868Y-47087871D01*
X57611875Y-47182512D01*
X57611875Y-47182513D01*
X57717225Y-47250217D01*
X57717227Y-47250218D01*
X57837385Y-47285500D01*
X57837386Y-47285500D01*
X57962614Y-47285500D01*
X57962615Y-47285500D01*
X57962616Y-47285499D01*
X57962620Y-47285499D01*
X58036910Y-47263684D01*
X58073107Y-47253056D01*
X58134268Y-47254802D01*
X58182721Y-47292164D01*
X58200000Y-47348045D01*
X58200000Y-52747155D01*
X58198098Y-52766470D01*
X58189500Y-52809691D01*
X58189499Y-52809693D01*
X58189499Y-53113218D01*
X58170591Y-53171409D01*
X58121091Y-53207373D01*
X58095072Y-53212112D01*
X58061861Y-53213647D01*
X58044565Y-53214447D01*
X58042289Y-53214500D01*
X58023539Y-53214500D01*
X58020383Y-53215090D01*
X58013574Y-53215879D01*
X57990161Y-53216961D01*
X57969763Y-53214509D01*
X57969620Y-53215507D01*
X57962616Y-53214500D01*
X57962615Y-53214500D01*
X57837385Y-53214500D01*
X57837383Y-53214500D01*
X57717225Y-53249782D01*
X57611875Y-53317486D01*
X57611875Y-53317487D01*
X57529868Y-53412128D01*
X57477843Y-53526046D01*
X57477842Y-53526048D01*
X57460022Y-53649997D01*
X57460022Y-53650002D01*
X57477842Y-53773951D01*
X57477843Y-53773953D01*
X57477843Y-53773954D01*
X57477844Y-53773956D01*
X57529867Y-53887870D01*
X57529868Y-53887871D01*
X57611875Y-53982512D01*
X57611875Y-53982513D01*
X57717225Y-54050217D01*
X57717227Y-54050218D01*
X57837385Y-54085500D01*
X57837386Y-54085500D01*
X57962614Y-54085500D01*
X57962615Y-54085500D01*
X58062608Y-54056139D01*
X58123767Y-54057886D01*
X58172220Y-54095249D01*
X58189499Y-54151127D01*
X58189499Y-54190305D01*
X58189500Y-54190308D01*
X58196301Y-54224500D01*
X58198098Y-54233530D01*
X58200000Y-54252845D01*
X58200000Y-59747155D01*
X58198098Y-59766466D01*
X58194312Y-59785500D01*
X58189500Y-59809691D01*
X58189500Y-60216306D01*
X58198098Y-60259528D01*
X58200000Y-60278844D01*
X58199999Y-60351972D01*
X58182613Y-60405478D01*
X58183695Y-60406174D01*
X58179865Y-60412133D01*
X58127844Y-60526041D01*
X58127842Y-60526048D01*
X58110022Y-60649997D01*
X58110022Y-60650002D01*
X58127842Y-60773951D01*
X58127843Y-60773953D01*
X58127843Y-60773954D01*
X58127844Y-60773956D01*
X58179867Y-60887870D01*
X58179868Y-60887871D01*
X58183695Y-60893826D01*
X58181026Y-60895540D01*
X58199633Y-60939515D01*
X58200000Y-60948029D01*
X58200000Y-63200500D01*
X58181093Y-63258691D01*
X58131593Y-63294655D01*
X58101000Y-63299500D01*
X53649000Y-63299500D01*
X53590809Y-63280593D01*
X53554845Y-63231093D01*
X53550000Y-63200500D01*
X53550000Y-61350000D01*
X41899000Y-61350000D01*
X41840809Y-61331093D01*
X41804845Y-61281593D01*
X41800000Y-61251000D01*
X41800000Y-60449000D01*
X41818907Y-60390809D01*
X41868407Y-60354845D01*
X41899000Y-60350000D01*
X44399999Y-60350000D01*
X44400000Y-60350000D01*
X44400000Y-58948999D01*
X44418907Y-58890809D01*
X44468407Y-58854845D01*
X44499000Y-58850000D01*
X51333274Y-58850000D01*
X51391465Y-58868907D01*
X51403278Y-58878996D01*
X52184410Y-59660129D01*
X52188915Y-59665306D01*
X52196258Y-59675030D01*
X52229965Y-59705758D01*
X52231617Y-59707336D01*
X52244864Y-59720582D01*
X52244867Y-59720585D01*
X52247514Y-59722398D01*
X52252880Y-59726648D01*
X52275140Y-59746941D01*
X52283310Y-59750106D01*
X52303492Y-59760744D01*
X52310723Y-59765697D01*
X52340042Y-59772592D01*
X52346581Y-59774617D01*
X52374671Y-59785500D01*
X52383435Y-59785500D01*
X52406101Y-59788129D01*
X52414627Y-59790135D01*
X52438495Y-59786805D01*
X52444450Y-59785975D01*
X52451296Y-59785500D01*
X53734193Y-59785500D01*
X53860500Y-59785500D01*
X53918691Y-59804407D01*
X53954655Y-59853907D01*
X53959500Y-59884500D01*
X53959500Y-60216314D01*
X53968812Y-60263122D01*
X53968813Y-60263125D01*
X54004284Y-60316212D01*
X54004287Y-60316215D01*
X54057374Y-60351686D01*
X54057375Y-60351686D01*
X54057376Y-60351687D01*
X54066789Y-60353559D01*
X54104185Y-60360999D01*
X54104192Y-60360999D01*
X54104194Y-60361000D01*
X54104195Y-60361000D01*
X54565805Y-60361000D01*
X54565806Y-60361000D01*
X54565807Y-60360999D01*
X54565814Y-60360999D01*
X54596748Y-60354845D01*
X54612624Y-60351687D01*
X54665714Y-60316214D01*
X54701187Y-60263124D01*
X54704932Y-60244296D01*
X54710499Y-60216314D01*
X54710500Y-60216304D01*
X54710500Y-59809693D01*
X54710499Y-59809683D01*
X54701902Y-59766470D01*
X54701187Y-59762874D01*
X54690540Y-59746940D01*
X54665715Y-59709785D01*
X54665713Y-59709783D01*
X54654501Y-59702292D01*
X54616621Y-59654242D01*
X54610501Y-59619975D01*
X54610501Y-59525032D01*
X54610501Y-59359194D01*
X54610500Y-59359188D01*
X54610500Y-59359185D01*
X54601188Y-59312377D01*
X54601187Y-59312374D01*
X54596261Y-59305002D01*
X54579652Y-59246114D01*
X54596262Y-59194996D01*
X54601188Y-59187625D01*
X54610167Y-59142487D01*
X54610500Y-59140815D01*
X54610501Y-59140805D01*
X54610501Y-58949000D01*
X54629408Y-58890809D01*
X54678908Y-58854845D01*
X54709501Y-58850000D01*
X54799999Y-58850000D01*
X54800000Y-58850000D01*
X54800000Y-39950000D01*
X54799999Y-39950000D01*
X54795426Y-39945427D01*
X54751309Y-39931093D01*
X54715345Y-39881593D01*
X54710500Y-39851000D01*
X54710500Y-39783695D01*
X54710499Y-39783685D01*
X54701187Y-39736877D01*
X54701186Y-39736874D01*
X54665715Y-39683787D01*
X54665712Y-39683784D01*
X54612625Y-39648313D01*
X54612622Y-39648312D01*
X54565814Y-39639000D01*
X54565806Y-39639000D01*
X54104194Y-39639000D01*
X54104185Y-39639000D01*
X54057377Y-39648312D01*
X54057374Y-39648313D01*
X54004287Y-39683784D01*
X54004284Y-39683787D01*
X53968813Y-39736874D01*
X53968812Y-39736877D01*
X53959500Y-39783685D01*
X53959500Y-39851000D01*
X53940593Y-39909191D01*
X53891093Y-39945155D01*
X53860500Y-39950000D01*
X51350001Y-39950000D01*
X51350000Y-39950000D01*
X51350000Y-39950001D01*
X51350000Y-41051000D01*
X51331093Y-41109191D01*
X51281593Y-41145155D01*
X51251000Y-41150000D01*
X49901408Y-41150000D01*
X49843217Y-41131093D01*
X49811355Y-41092127D01*
X49792572Y-41051000D01*
X49778761Y-41020758D01*
X49696752Y-40926115D01*
X49696752Y-40926114D01*
X49591402Y-40858410D01*
X49471244Y-40823128D01*
X49471243Y-40823128D01*
X49346013Y-40823128D01*
X49346011Y-40823128D01*
X49225853Y-40858410D01*
X49120503Y-40926114D01*
X49120503Y-40926115D01*
X49038495Y-41020757D01*
X49005901Y-41092127D01*
X48964529Y-41137204D01*
X48915848Y-41150000D01*
X41749000Y-41150000D01*
X41690809Y-41131093D01*
X41654845Y-41081593D01*
X41650000Y-41051000D01*
X41650000Y-38349000D01*
X41668907Y-38290809D01*
X41718407Y-38254845D01*
X41749000Y-38250000D01*
X42152250Y-38250000D01*
X42180140Y-38254009D01*
X42287385Y-38285500D01*
X42287386Y-38285500D01*
X42412614Y-38285500D01*
X42412615Y-38285500D01*
X42519859Y-38254009D01*
X42547750Y-38250000D01*
X44152250Y-38250000D01*
X44180140Y-38254009D01*
X44287385Y-38285500D01*
X44287386Y-38285500D01*
X44412614Y-38285500D01*
X44412615Y-38285500D01*
X44519859Y-38254009D01*
X44547750Y-38250000D01*
X46102250Y-38250000D01*
X46130140Y-38254009D01*
X46237385Y-38285500D01*
X46237386Y-38285500D01*
X46362614Y-38285500D01*
X46362615Y-38285500D01*
X46469859Y-38254009D01*
X46497750Y-38250000D01*
X48102250Y-38250000D01*
X48130140Y-38254009D01*
X48237385Y-38285500D01*
X48237386Y-38285500D01*
X48362614Y-38285500D01*
X48362615Y-38285500D01*
X48469859Y-38254009D01*
X48497750Y-38250000D01*
X50052250Y-38250000D01*
X50080140Y-38254009D01*
X50187385Y-38285500D01*
X50187386Y-38285500D01*
X50312614Y-38285500D01*
X50312615Y-38285500D01*
X50419859Y-38254009D01*
X50447750Y-38250000D01*
X52052250Y-38250000D01*
X52080140Y-38254009D01*
X52187385Y-38285500D01*
X52187386Y-38285500D01*
X52312614Y-38285500D01*
X52312615Y-38285500D01*
X52419859Y-38254009D01*
X52447750Y-38250000D01*
X53249999Y-38250000D01*
X53250000Y-38250000D01*
X53250000Y-36799500D01*
X53268907Y-36741309D01*
X53318407Y-36705345D01*
X53349000Y-36700500D01*
X58101000Y-36700500D01*
X58159191Y-36719407D01*
G37*
G04 #@! TD.AperFunction*
G04 #@! TA.AperFunction,Conductor*
G36*
X53918691Y-47068907D02*
G01*
X53954655Y-47118407D01*
X53959500Y-47149000D01*
X53959500Y-47190316D01*
X53968812Y-47237124D01*
X53968813Y-47237127D01*
X54004284Y-47290214D01*
X54004287Y-47290217D01*
X54057374Y-47325688D01*
X54057375Y-47325688D01*
X54057376Y-47325689D01*
X54066789Y-47327561D01*
X54104185Y-47335001D01*
X54104192Y-47335001D01*
X54104194Y-47335002D01*
X54104195Y-47335002D01*
X54501000Y-47335002D01*
X54559191Y-47353909D01*
X54595155Y-47403409D01*
X54600000Y-47434002D01*
X54600000Y-51551000D01*
X54581093Y-51609191D01*
X54531593Y-51645155D01*
X54501000Y-51650000D01*
X52244766Y-51650000D01*
X52186575Y-51631093D01*
X52174762Y-51621004D01*
X51578996Y-51025238D01*
X51551219Y-50970721D01*
X51550000Y-50955234D01*
X51550000Y-48199000D01*
X51568907Y-48140809D01*
X51618407Y-48104845D01*
X51649000Y-48100000D01*
X52449999Y-48100000D01*
X52450000Y-48100000D01*
X52450000Y-47299697D01*
X52458946Y-47258572D01*
X52462761Y-47250218D01*
X52502156Y-47163956D01*
X52506332Y-47134910D01*
X52533326Y-47080005D01*
X52587440Y-47051450D01*
X52604324Y-47050000D01*
X53860500Y-47050000D01*
X53918691Y-47068907D01*
G37*
G04 #@! TD.AperFunction*
G04 #@! TA.AperFunction,Conductor*
G36*
X53928426Y-54168907D02*
G01*
X53964390Y-54218407D01*
X53967332Y-54229682D01*
X53968812Y-54237125D01*
X53968813Y-54237127D01*
X54004284Y-54290214D01*
X54004287Y-54290217D01*
X54057374Y-54325688D01*
X54057375Y-54325688D01*
X54057376Y-54325689D01*
X54066789Y-54327561D01*
X54104185Y-54335001D01*
X54104192Y-54335001D01*
X54104194Y-54335002D01*
X54104195Y-54335002D01*
X54401000Y-54335002D01*
X54459191Y-54353909D01*
X54495155Y-54403409D01*
X54500000Y-54434002D01*
X54500000Y-58551000D01*
X54481093Y-58609191D01*
X54431593Y-58645155D01*
X54401000Y-58650000D01*
X52022805Y-58650000D01*
X51964614Y-58631093D01*
X51952801Y-58621003D01*
X51853207Y-58521409D01*
X51628996Y-58297197D01*
X51601219Y-58242681D01*
X51600000Y-58227194D01*
X51600000Y-54249000D01*
X51618907Y-54190809D01*
X51668407Y-54154845D01*
X51699000Y-54150000D01*
X53870235Y-54150000D01*
X53928426Y-54168907D01*
G37*
G04 #@! TD.AperFunction*
G04 #@! TA.AperFunction,Conductor*
G36*
X53928426Y-40168907D02*
G01*
X53964390Y-40218407D01*
X53967332Y-40229682D01*
X53968812Y-40237125D01*
X53968813Y-40237127D01*
X54004284Y-40290214D01*
X54004287Y-40290217D01*
X54057374Y-40325688D01*
X54057375Y-40325688D01*
X54057376Y-40325689D01*
X54066789Y-40327561D01*
X54104185Y-40335001D01*
X54104192Y-40335001D01*
X54104194Y-40335002D01*
X54104195Y-40335002D01*
X54401000Y-40335002D01*
X54459191Y-40353909D01*
X54495155Y-40403409D01*
X54500000Y-40434002D01*
X54500000Y-44551000D01*
X54481093Y-44609191D01*
X54431593Y-44645155D01*
X54401000Y-44650000D01*
X51699000Y-44650000D01*
X51640809Y-44631093D01*
X51604845Y-44581593D01*
X51600000Y-44551000D01*
X51600000Y-40249000D01*
X51618907Y-40190809D01*
X51668407Y-40154845D01*
X51699000Y-40150000D01*
X53870235Y-40150000D01*
X53928426Y-40168907D01*
G37*
G04 #@! TD.AperFunction*
M02*
