G04 #@! TF.GenerationSoftware,KiCad,Pcbnew,7.0.7*
G04 #@! TF.CreationDate,2024-08-09T21:04:11-05:00*
G04 #@! TF.ProjectId,O32controller,4f333263-6f6e-4747-926f-6c6c65722e6b,3.1*
G04 #@! TF.SameCoordinates,Original*
G04 #@! TF.FileFunction,Copper,L3,Inr*
G04 #@! TF.FilePolarity,Positive*
%FSLAX46Y46*%
G04 Gerber Fmt 4.6, Leading zero omitted, Abs format (unit mm)*
G04 Created by KiCad (PCBNEW 7.0.7) date 2024-08-09 21:04:11*
%MOMM*%
%LPD*%
G01*
G04 APERTURE LIST*
G04 Aperture macros list*
%AMRoundRect*
0 Rectangle with rounded corners*
0 $1 Rounding radius*
0 $2 $3 $4 $5 $6 $7 $8 $9 X,Y pos of 4 corners*
0 Add a 4 corners polygon primitive as box body*
4,1,4,$2,$3,$4,$5,$6,$7,$8,$9,$2,$3,0*
0 Add four circle primitives for the rounded corners*
1,1,$1+$1,$2,$3*
1,1,$1+$1,$4,$5*
1,1,$1+$1,$6,$7*
1,1,$1+$1,$8,$9*
0 Add four rect primitives between the rounded corners*
20,1,$1+$1,$2,$3,$4,$5,0*
20,1,$1+$1,$4,$5,$6,$7,0*
20,1,$1+$1,$6,$7,$8,$9,0*
20,1,$1+$1,$8,$9,$2,$3,0*%
G04 Aperture macros list end*
G04 #@! TA.AperFunction,ComponentPad*
%ADD10RoundRect,0.269607X-1.105393X-1.105393X1.105393X-1.105393X1.105393X1.105393X-1.105393X1.105393X0*%
G04 #@! TD*
G04 #@! TA.AperFunction,ViaPad*
%ADD11C,0.550000*%
G04 #@! TD*
G04 APERTURE END LIST*
D10*
X61850000Y-53550000D03*
X61850000Y-49750000D03*
X56450000Y-38100000D03*
X61850000Y-46350000D03*
X61850000Y-42550000D03*
X56450000Y-61900000D03*
X61850000Y-56950000D03*
D11*
X39395600Y-56286400D03*
X39763615Y-57645585D03*
X41173600Y-57784502D03*
X50700000Y-57550000D03*
X58550000Y-60650000D03*
X49450000Y-45200000D03*
X57450000Y-46150000D03*
X58450000Y-39300000D03*
X49408628Y-41258628D03*
X55050000Y-57000000D03*
X49500000Y-60200000D03*
X55050000Y-59450000D03*
X56450000Y-41700000D03*
X56450000Y-50000000D03*
X55050000Y-43000000D03*
X47650000Y-39900000D03*
X56400000Y-56950000D03*
X56450000Y-54550000D03*
X56450000Y-45450000D03*
X56450000Y-51350000D03*
X55050000Y-50000000D03*
X56450000Y-47550000D03*
X56450000Y-43000000D03*
X56450000Y-40550000D03*
X44650000Y-59300000D03*
X56450000Y-59450000D03*
X55050000Y-58300000D03*
X56450000Y-58300000D03*
X55050000Y-44350000D03*
X55450000Y-45250000D03*
X56450000Y-48700000D03*
X40350000Y-49850000D03*
X51500000Y-60200000D03*
X43866000Y-56642000D03*
X55050000Y-41700000D03*
X55050000Y-48700000D03*
X47500000Y-60200000D03*
X56450000Y-44300000D03*
X45500000Y-60200000D03*
X55350000Y-47750000D03*
X44500000Y-39900000D03*
X55050000Y-55700000D03*
X56450000Y-52450000D03*
X49775000Y-39950000D03*
X55050000Y-51350000D03*
X56450000Y-55700000D03*
X39250000Y-43000000D03*
X39000000Y-41050000D03*
X47050000Y-55850000D03*
X40750000Y-45150000D03*
X39695591Y-52292587D03*
X37540500Y-54508400D03*
X37262000Y-51650000D03*
X40500000Y-59350000D03*
X47450000Y-43475000D03*
X41350000Y-46482000D03*
X40650000Y-46634400D03*
X47300000Y-44300000D03*
X40659364Y-50697700D03*
X43750000Y-58200000D03*
X46080000Y-54870000D03*
X48300000Y-43500000D03*
X46800000Y-54800000D03*
X49425000Y-42025000D03*
X49600000Y-43700000D03*
X48550000Y-54400000D03*
X53000000Y-62150000D03*
X38939100Y-50300858D03*
X49375000Y-55100000D03*
X50250000Y-37850000D03*
X44900000Y-58200000D03*
X42350000Y-37850000D03*
X46300000Y-37850000D03*
X47300000Y-42475000D03*
X37350000Y-45350000D03*
X44350000Y-37850000D03*
X41325500Y-54174500D03*
X37400000Y-59275000D03*
X50950000Y-62150000D03*
X47300000Y-58200000D03*
X43575000Y-59475000D03*
X51350000Y-46850000D03*
X45350000Y-41875000D03*
X43950000Y-45500000D03*
X47000000Y-62100000D03*
X52250000Y-37850000D03*
X45750000Y-54200000D03*
X39649600Y-55524400D03*
X37100000Y-40200000D03*
X50200000Y-45150000D03*
X48300000Y-37850000D03*
X39750500Y-53109763D03*
X45000000Y-62100000D03*
X39968945Y-50534250D03*
X43000000Y-62100000D03*
X49750000Y-58200000D03*
X48950000Y-62150000D03*
X43100000Y-41875000D03*
X46800000Y-45675000D03*
X46925000Y-48125000D03*
X49500000Y-55825000D03*
X43866000Y-47599600D03*
X49200000Y-56475000D03*
X43035561Y-47549500D03*
X57900000Y-46850000D03*
X52080000Y-47040000D03*
X52700000Y-52750000D03*
X57900000Y-53650000D03*
X50650000Y-55150000D03*
X59350000Y-59750000D03*
X52050000Y-45950000D03*
X59700000Y-46450000D03*
X47450000Y-51350000D03*
X51350000Y-52050000D03*
X59700000Y-53500000D03*
X59400000Y-59000000D03*
X47400000Y-52250000D03*
X52340000Y-41200000D03*
X52810000Y-43090000D03*
X52340000Y-43360000D03*
X53270000Y-44440000D03*
X52340000Y-43900000D03*
X52810000Y-43630000D03*
X52810000Y-42550000D03*
X53730000Y-44170000D03*
X51870000Y-43090000D03*
X52810000Y-40390000D03*
X52340000Y-42820000D03*
X51870000Y-40930000D03*
X51870000Y-41470000D03*
X52810000Y-40930000D03*
X52810000Y-44170000D03*
X51870000Y-40390000D03*
X53270000Y-43900000D03*
X52810000Y-41470000D03*
X52340000Y-40660000D03*
X52810000Y-42010000D03*
X52340000Y-42280000D03*
X51870000Y-43630000D03*
X51870000Y-42010000D03*
X51870000Y-44170000D03*
X51870000Y-42550000D03*
X52340000Y-44430000D03*
X52340000Y-41740000D03*
X46150000Y-48100000D03*
X53630000Y-51350000D03*
X52700000Y-48100000D03*
X52710000Y-50790000D03*
X53170000Y-48370000D03*
X53160000Y-51610000D03*
X52710000Y-49180000D03*
X53640000Y-47580000D03*
X53180000Y-50530000D03*
X51760000Y-48650000D03*
X53180000Y-49990000D03*
X52230000Y-48920000D03*
X53180000Y-48900000D03*
X52700000Y-48650000D03*
X52710000Y-50250000D03*
X52240000Y-49450000D03*
X52230000Y-48380000D03*
X53170000Y-47840000D03*
X53180000Y-51070000D03*
X53170000Y-47310000D03*
X52700000Y-47570000D03*
X52710000Y-49710000D03*
X52240000Y-50510000D03*
X52700000Y-51320000D03*
X52230000Y-51050000D03*
X53180000Y-49450000D03*
X52230000Y-49980000D03*
X52790000Y-56540000D03*
X52790000Y-56000000D03*
X51840000Y-55460000D03*
X52320000Y-55720000D03*
X52320000Y-56800000D03*
X52790000Y-57070000D03*
X53250000Y-58400000D03*
X52780000Y-57600000D03*
X52310000Y-58390000D03*
X52320000Y-55190000D03*
X52320000Y-56260000D03*
X51850000Y-56530000D03*
X51850000Y-57060000D03*
X51840000Y-56000000D03*
X52790000Y-54930000D03*
X51840000Y-54930000D03*
X52320000Y-57330000D03*
X52790000Y-58130000D03*
X51850000Y-57590000D03*
X52780000Y-54400000D03*
X51840000Y-58120000D03*
X53250000Y-57860000D03*
X52310000Y-57860000D03*
X52310000Y-54660000D03*
X51830000Y-54400000D03*
X53710000Y-58130000D03*
X52790000Y-55460000D03*
X40000000Y-49150000D03*
X50050000Y-52600000D03*
X39249115Y-44025245D03*
X40450000Y-44450000D03*
X40450000Y-42800000D03*
X45100000Y-52300000D03*
X44408181Y-52470879D03*
X47350000Y-50600000D03*
X46050000Y-45550000D03*
X41626500Y-53040500D03*
X39750000Y-53900000D03*
X44650000Y-43525000D03*
X46550000Y-47450000D03*
G04 #@! TA.AperFunction,Conductor*
G36*
X54910506Y-36719407D02*
G01*
X54946470Y-36768907D01*
X54946470Y-36830093D01*
X54945759Y-36832198D01*
X54917225Y-36913738D01*
X54917224Y-36913746D01*
X54914500Y-36942790D01*
X54914500Y-39257199D01*
X54917224Y-39286254D01*
X54917225Y-39286259D01*
X54960046Y-39408634D01*
X54960048Y-39408638D01*
X55037040Y-39512960D01*
X55141362Y-39589952D01*
X55263742Y-39632775D01*
X55292801Y-39635500D01*
X57607198Y-39635499D01*
X57607199Y-39635499D01*
X57613009Y-39634954D01*
X57636258Y-39632775D01*
X57758638Y-39589952D01*
X57862960Y-39512960D01*
X57890072Y-39476223D01*
X57939836Y-39440632D01*
X58001020Y-39441088D01*
X58050250Y-39477420D01*
X58059779Y-39493885D01*
X58079867Y-39537870D01*
X58079866Y-39537870D01*
X58161875Y-39632512D01*
X58161875Y-39632513D01*
X58267225Y-39700217D01*
X58267227Y-39700218D01*
X58387385Y-39735500D01*
X58387386Y-39735500D01*
X58512614Y-39735500D01*
X58512615Y-39735500D01*
X58632773Y-39700218D01*
X58738124Y-39632513D01*
X58820133Y-39537870D01*
X58872156Y-39423956D01*
X58872157Y-39423951D01*
X58889978Y-39300002D01*
X58889978Y-39299997D01*
X58872157Y-39176048D01*
X58872156Y-39176046D01*
X58872156Y-39176044D01*
X58820133Y-39062130D01*
X58738124Y-38967487D01*
X58738124Y-38967486D01*
X58632774Y-38899782D01*
X58512616Y-38864500D01*
X58512615Y-38864500D01*
X58387385Y-38864500D01*
X58387383Y-38864500D01*
X58267225Y-38899782D01*
X58161875Y-38967486D01*
X58159313Y-38970444D01*
X58106914Y-39002035D01*
X58045953Y-38996794D01*
X57999716Y-38956722D01*
X57985499Y-38905609D01*
X57985499Y-38686000D01*
X60108357Y-38686000D01*
X60128885Y-38907536D01*
X60189771Y-39121528D01*
X60288942Y-39320689D01*
X60423019Y-39498236D01*
X60587438Y-39648124D01*
X60776599Y-39765247D01*
X60984060Y-39845618D01*
X61202757Y-39886500D01*
X61425243Y-39886500D01*
X61643940Y-39845618D01*
X61851401Y-39765247D01*
X62040562Y-39648124D01*
X62204981Y-39498236D01*
X62339058Y-39320689D01*
X62438229Y-39121528D01*
X62499115Y-38907536D01*
X62519643Y-38686000D01*
X62499115Y-38464464D01*
X62438229Y-38250472D01*
X62339058Y-38051311D01*
X62204981Y-37873764D01*
X62040562Y-37723876D01*
X61851401Y-37606753D01*
X61643940Y-37526382D01*
X61643939Y-37526381D01*
X61643937Y-37526381D01*
X61425243Y-37485500D01*
X61202757Y-37485500D01*
X60984062Y-37526381D01*
X60907797Y-37555926D01*
X60776599Y-37606753D01*
X60641260Y-37690551D01*
X60587438Y-37723876D01*
X60423020Y-37873763D01*
X60288943Y-38051309D01*
X60288938Y-38051318D01*
X60189772Y-38250469D01*
X60189771Y-38250472D01*
X60128885Y-38464464D01*
X60108357Y-38686000D01*
X57985499Y-38686000D01*
X57985499Y-36942802D01*
X57982775Y-36913742D01*
X57954240Y-36832197D01*
X57952868Y-36771028D01*
X57987711Y-36720734D01*
X58045463Y-36700525D01*
X58047685Y-36700500D01*
X61274118Y-36700500D01*
X61312380Y-36700500D01*
X61315616Y-36700605D01*
X61569921Y-36717273D01*
X61576342Y-36718119D01*
X61824701Y-36767521D01*
X61830958Y-36769197D01*
X62070745Y-36850593D01*
X62076718Y-36853067D01*
X62303840Y-36965072D01*
X62309448Y-36968310D01*
X62519998Y-37108994D01*
X62525140Y-37112940D01*
X62715519Y-37279897D01*
X62720102Y-37284480D01*
X62887059Y-37474859D01*
X62891005Y-37480001D01*
X63031689Y-37690551D01*
X63034930Y-37696164D01*
X63146928Y-37923273D01*
X63149406Y-37929256D01*
X63230801Y-38169038D01*
X63232478Y-38175298D01*
X63281880Y-38423657D01*
X63282726Y-38430083D01*
X63299393Y-38684381D01*
X63299499Y-38687619D01*
X63299499Y-40970196D01*
X63280592Y-41028387D01*
X63231092Y-41064351D01*
X63169906Y-41064351D01*
X63164978Y-41062266D01*
X63036262Y-41017226D01*
X63036253Y-41017224D01*
X63007207Y-41014500D01*
X60692800Y-41014500D01*
X60663745Y-41017224D01*
X60663740Y-41017225D01*
X60541365Y-41060046D01*
X60541364Y-41060047D01*
X60541363Y-41060047D01*
X60541362Y-41060048D01*
X60437040Y-41137040D01*
X60360222Y-41241127D01*
X60360047Y-41241364D01*
X60360046Y-41241365D01*
X60317226Y-41363737D01*
X60317224Y-41363746D01*
X60314500Y-41392790D01*
X60314500Y-43707199D01*
X60317224Y-43736254D01*
X60317225Y-43736259D01*
X60360046Y-43858634D01*
X60360048Y-43858638D01*
X60437040Y-43962960D01*
X60541362Y-44039952D01*
X60663742Y-44082775D01*
X60692801Y-44085500D01*
X63007198Y-44085499D01*
X63007199Y-44085499D01*
X63013009Y-44084954D01*
X63036258Y-44082775D01*
X63158638Y-44039952D01*
X63158637Y-44039952D01*
X63165640Y-44037502D01*
X63166563Y-44040139D01*
X63214490Y-44031797D01*
X63269425Y-44058738D01*
X63298032Y-44112824D01*
X63299499Y-44129803D01*
X63299499Y-48170196D01*
X63280592Y-48228387D01*
X63231092Y-48264351D01*
X63169906Y-48264351D01*
X63164978Y-48262266D01*
X63036262Y-48217226D01*
X63036253Y-48217224D01*
X63007207Y-48214500D01*
X60692800Y-48214500D01*
X60663745Y-48217224D01*
X60663740Y-48217225D01*
X60541365Y-48260046D01*
X60541364Y-48260047D01*
X60541363Y-48260047D01*
X60541362Y-48260048D01*
X60437040Y-48337040D01*
X60381624Y-48412128D01*
X60360047Y-48441364D01*
X60360046Y-48441365D01*
X60317226Y-48563737D01*
X60317224Y-48563746D01*
X60314500Y-48592790D01*
X60314500Y-50907199D01*
X60317224Y-50936254D01*
X60317225Y-50936259D01*
X60360046Y-51058634D01*
X60360048Y-51058638D01*
X60437040Y-51162960D01*
X60541362Y-51239952D01*
X60663742Y-51282775D01*
X60692801Y-51285500D01*
X63007198Y-51285499D01*
X63007199Y-51285499D01*
X63013009Y-51284954D01*
X63036258Y-51282775D01*
X63158638Y-51239952D01*
X63158637Y-51239952D01*
X63165640Y-51237502D01*
X63166563Y-51240139D01*
X63214490Y-51231797D01*
X63269425Y-51258738D01*
X63298032Y-51312824D01*
X63299499Y-51329803D01*
X63299499Y-55370196D01*
X63280592Y-55428387D01*
X63231092Y-55464351D01*
X63169906Y-55464351D01*
X63164978Y-55462266D01*
X63036262Y-55417226D01*
X63036253Y-55417224D01*
X63007207Y-55414500D01*
X60692800Y-55414500D01*
X60663745Y-55417224D01*
X60663740Y-55417225D01*
X60541365Y-55460046D01*
X60541364Y-55460047D01*
X60541363Y-55460047D01*
X60541362Y-55460048D01*
X60437040Y-55537040D01*
X60381624Y-55612128D01*
X60360047Y-55641364D01*
X60360046Y-55641365D01*
X60317226Y-55763737D01*
X60317224Y-55763746D01*
X60314500Y-55792790D01*
X60314500Y-58107199D01*
X60317224Y-58136254D01*
X60317225Y-58136259D01*
X60360046Y-58258634D01*
X60360048Y-58258638D01*
X60437040Y-58362960D01*
X60541362Y-58439952D01*
X60663742Y-58482775D01*
X60692801Y-58485500D01*
X63007198Y-58485499D01*
X63007199Y-58485499D01*
X63013009Y-58484954D01*
X63036258Y-58482775D01*
X63158638Y-58439952D01*
X63158637Y-58439952D01*
X63165640Y-58437502D01*
X63166563Y-58440139D01*
X63214490Y-58431797D01*
X63269425Y-58458738D01*
X63298032Y-58512824D01*
X63299499Y-58529803D01*
X63299500Y-61274117D01*
X63299500Y-61312379D01*
X63299394Y-61315617D01*
X63282726Y-61569916D01*
X63281880Y-61576342D01*
X63232478Y-61824701D01*
X63230801Y-61830961D01*
X63149406Y-62070743D01*
X63146926Y-62076732D01*
X63034930Y-62303835D01*
X63031689Y-62309448D01*
X62891005Y-62519998D01*
X62887059Y-62525140D01*
X62720102Y-62715519D01*
X62715519Y-62720102D01*
X62525140Y-62887059D01*
X62519998Y-62891005D01*
X62309448Y-63031689D01*
X62303835Y-63034930D01*
X62076732Y-63146926D01*
X62070743Y-63149406D01*
X61830961Y-63230801D01*
X61824701Y-63232478D01*
X61576342Y-63281880D01*
X61569916Y-63282726D01*
X61333822Y-63298200D01*
X61315616Y-63299394D01*
X61312380Y-63299500D01*
X58047685Y-63299500D01*
X57989494Y-63280593D01*
X57953530Y-63231093D01*
X57953530Y-63169907D01*
X57954241Y-63167802D01*
X57982774Y-63086261D01*
X57982774Y-63086260D01*
X57982775Y-63086258D01*
X57985500Y-63057199D01*
X57985499Y-61314000D01*
X60108357Y-61314000D01*
X60128885Y-61535536D01*
X60189771Y-61749528D01*
X60288942Y-61948689D01*
X60423019Y-62126236D01*
X60587438Y-62276124D01*
X60776599Y-62393247D01*
X60984060Y-62473618D01*
X61202757Y-62514500D01*
X61425243Y-62514500D01*
X61643940Y-62473618D01*
X61851401Y-62393247D01*
X62040562Y-62276124D01*
X62204981Y-62126236D01*
X62339058Y-61948689D01*
X62438229Y-61749528D01*
X62499115Y-61535536D01*
X62519643Y-61314000D01*
X62499115Y-61092464D01*
X62438229Y-60878472D01*
X62339058Y-60679311D01*
X62204981Y-60501764D01*
X62040562Y-60351876D01*
X61851401Y-60234753D01*
X61643940Y-60154382D01*
X61643939Y-60154381D01*
X61643937Y-60154381D01*
X61425243Y-60113500D01*
X61202757Y-60113500D01*
X60984062Y-60154381D01*
X60907797Y-60183926D01*
X60776599Y-60234753D01*
X60587438Y-60351876D01*
X60423019Y-60501764D01*
X60398264Y-60534545D01*
X60288943Y-60679309D01*
X60288938Y-60679318D01*
X60189772Y-60878469D01*
X60128885Y-61092464D01*
X60112053Y-61274118D01*
X60108357Y-61314000D01*
X57985499Y-61314000D01*
X57985499Y-60917358D01*
X58004406Y-60859168D01*
X58053906Y-60823204D01*
X58115092Y-60823204D01*
X58164592Y-60859168D01*
X58174552Y-60876233D01*
X58179865Y-60887868D01*
X58179866Y-60887870D01*
X58261875Y-60982512D01*
X58261875Y-60982513D01*
X58367225Y-61050217D01*
X58367227Y-61050218D01*
X58487385Y-61085500D01*
X58487386Y-61085500D01*
X58612614Y-61085500D01*
X58612615Y-61085500D01*
X58732773Y-61050218D01*
X58838124Y-60982513D01*
X58920133Y-60887870D01*
X58972156Y-60773956D01*
X58972157Y-60773951D01*
X58989978Y-60650002D01*
X58989978Y-60649997D01*
X58972157Y-60526048D01*
X58972156Y-60526046D01*
X58972156Y-60526044D01*
X58920133Y-60412130D01*
X58838124Y-60317487D01*
X58838124Y-60317486D01*
X58732774Y-60249782D01*
X58612616Y-60214500D01*
X58612615Y-60214500D01*
X58487385Y-60214500D01*
X58487383Y-60214500D01*
X58367225Y-60249782D01*
X58261875Y-60317486D01*
X58261875Y-60317487D01*
X58179868Y-60412128D01*
X58127843Y-60526046D01*
X58127842Y-60526048D01*
X58123589Y-60555631D01*
X58096592Y-60610539D01*
X58042478Y-60639091D01*
X57981915Y-60630383D01*
X57946360Y-60595853D01*
X57944357Y-60597332D01*
X57939952Y-60591364D01*
X57939952Y-60591362D01*
X57862960Y-60487040D01*
X57758638Y-60410048D01*
X57758634Y-60410046D01*
X57636262Y-60367226D01*
X57636253Y-60367224D01*
X57607207Y-60364500D01*
X55292800Y-60364500D01*
X55263745Y-60367224D01*
X55263740Y-60367225D01*
X55141365Y-60410046D01*
X55141364Y-60410047D01*
X55141363Y-60410047D01*
X55141362Y-60410048D01*
X55037040Y-60487040D01*
X54986419Y-60555631D01*
X54960047Y-60591364D01*
X54960046Y-60591365D01*
X54917226Y-60713737D01*
X54917224Y-60713746D01*
X54914500Y-60742790D01*
X54914500Y-63057199D01*
X54917224Y-63086254D01*
X54917225Y-63086259D01*
X54945759Y-63167802D01*
X54947132Y-63228972D01*
X54912289Y-63279266D01*
X54854537Y-63299475D01*
X54852315Y-63299500D01*
X38687620Y-63299500D01*
X38684383Y-63299394D01*
X38664196Y-63298070D01*
X38430083Y-63282726D01*
X38423657Y-63281880D01*
X38175298Y-63232478D01*
X38169038Y-63230801D01*
X37929256Y-63149406D01*
X37923273Y-63146928D01*
X37696164Y-63034930D01*
X37690551Y-63031689D01*
X37480001Y-62891005D01*
X37474859Y-62887059D01*
X37284480Y-62720102D01*
X37279897Y-62715519D01*
X37112940Y-62525140D01*
X37108994Y-62519998D01*
X37105320Y-62514500D01*
X36968310Y-62309448D01*
X36965069Y-62303835D01*
X36853067Y-62076718D01*
X36850593Y-62070743D01*
X36835163Y-62025289D01*
X36769197Y-61830958D01*
X36767521Y-61824701D01*
X36718119Y-61576342D01*
X36717273Y-61569916D01*
X36709961Y-61458357D01*
X36700606Y-61315617D01*
X36700553Y-61314000D01*
X37480357Y-61314000D01*
X37500885Y-61535536D01*
X37561771Y-61749528D01*
X37660942Y-61948689D01*
X37795019Y-62126236D01*
X37959438Y-62276124D01*
X38148599Y-62393247D01*
X38356060Y-62473618D01*
X38574757Y-62514500D01*
X38797243Y-62514500D01*
X39015940Y-62473618D01*
X39223401Y-62393247D01*
X39412562Y-62276124D01*
X39576981Y-62126236D01*
X39711058Y-61948689D01*
X39810229Y-61749528D01*
X39871115Y-61535536D01*
X39891643Y-61314000D01*
X39871115Y-61092464D01*
X39810229Y-60878472D01*
X39711058Y-60679311D01*
X39576981Y-60501764D01*
X39412562Y-60351876D01*
X39223401Y-60234753D01*
X39133699Y-60200002D01*
X45060022Y-60200002D01*
X45077842Y-60323951D01*
X45077843Y-60323953D01*
X45077843Y-60323954D01*
X45077844Y-60323956D01*
X45129867Y-60437870D01*
X45129868Y-60437871D01*
X45211875Y-60532512D01*
X45211875Y-60532513D01*
X45312736Y-60597332D01*
X45317227Y-60600218D01*
X45437385Y-60635500D01*
X45437386Y-60635500D01*
X45562614Y-60635500D01*
X45562615Y-60635500D01*
X45682773Y-60600218D01*
X45788124Y-60532513D01*
X45870133Y-60437870D01*
X45922156Y-60323956D01*
X45923086Y-60317487D01*
X45939978Y-60200002D01*
X47060022Y-60200002D01*
X47077842Y-60323951D01*
X47077843Y-60323953D01*
X47077843Y-60323954D01*
X47077844Y-60323956D01*
X47129867Y-60437870D01*
X47129868Y-60437871D01*
X47211875Y-60532512D01*
X47211875Y-60532513D01*
X47312736Y-60597332D01*
X47317227Y-60600218D01*
X47437385Y-60635500D01*
X47437386Y-60635500D01*
X47562614Y-60635500D01*
X47562615Y-60635500D01*
X47682773Y-60600218D01*
X47788124Y-60532513D01*
X47870133Y-60437870D01*
X47922156Y-60323956D01*
X47923086Y-60317487D01*
X47939978Y-60200002D01*
X49060022Y-60200002D01*
X49077842Y-60323951D01*
X49077843Y-60323953D01*
X49077843Y-60323954D01*
X49077844Y-60323956D01*
X49129867Y-60437870D01*
X49129868Y-60437871D01*
X49211875Y-60532512D01*
X49211875Y-60532513D01*
X49312736Y-60597332D01*
X49317227Y-60600218D01*
X49437385Y-60635500D01*
X49437386Y-60635500D01*
X49562614Y-60635500D01*
X49562615Y-60635500D01*
X49682773Y-60600218D01*
X49788124Y-60532513D01*
X49870133Y-60437870D01*
X49922156Y-60323956D01*
X49923086Y-60317487D01*
X49939978Y-60200002D01*
X51060022Y-60200002D01*
X51077842Y-60323951D01*
X51077843Y-60323953D01*
X51077843Y-60323954D01*
X51077844Y-60323956D01*
X51129867Y-60437870D01*
X51129868Y-60437871D01*
X51211875Y-60532512D01*
X51211875Y-60532513D01*
X51312736Y-60597332D01*
X51317227Y-60600218D01*
X51437385Y-60635500D01*
X51437386Y-60635500D01*
X51562614Y-60635500D01*
X51562615Y-60635500D01*
X51682773Y-60600218D01*
X51788124Y-60532513D01*
X51870133Y-60437870D01*
X51922156Y-60323956D01*
X51923086Y-60317487D01*
X51939978Y-60200002D01*
X51939978Y-60199997D01*
X51922157Y-60076048D01*
X51922156Y-60076046D01*
X51922156Y-60076044D01*
X51870133Y-59962130D01*
X51788124Y-59867487D01*
X51788124Y-59867486D01*
X51682774Y-59799782D01*
X51562616Y-59764500D01*
X51562615Y-59764500D01*
X51437385Y-59764500D01*
X51437383Y-59764500D01*
X51317225Y-59799782D01*
X51211875Y-59867486D01*
X51211875Y-59867487D01*
X51129868Y-59962128D01*
X51077843Y-60076046D01*
X51077842Y-60076048D01*
X51060022Y-60199997D01*
X51060022Y-60200002D01*
X49939978Y-60200002D01*
X49939978Y-60199997D01*
X49922157Y-60076048D01*
X49922156Y-60076046D01*
X49922156Y-60076044D01*
X49870133Y-59962130D01*
X49788124Y-59867487D01*
X49788124Y-59867486D01*
X49682774Y-59799782D01*
X49562616Y-59764500D01*
X49562615Y-59764500D01*
X49437385Y-59764500D01*
X49437383Y-59764500D01*
X49317225Y-59799782D01*
X49211875Y-59867486D01*
X49211875Y-59867487D01*
X49129868Y-59962128D01*
X49077843Y-60076046D01*
X49077842Y-60076048D01*
X49060022Y-60199997D01*
X49060022Y-60200002D01*
X47939978Y-60200002D01*
X47939978Y-60199997D01*
X47922157Y-60076048D01*
X47922156Y-60076046D01*
X47922156Y-60076044D01*
X47870133Y-59962130D01*
X47788124Y-59867487D01*
X47788124Y-59867486D01*
X47682774Y-59799782D01*
X47562616Y-59764500D01*
X47562615Y-59764500D01*
X47437385Y-59764500D01*
X47437383Y-59764500D01*
X47317225Y-59799782D01*
X47211875Y-59867486D01*
X47211875Y-59867487D01*
X47129868Y-59962128D01*
X47077843Y-60076046D01*
X47077842Y-60076048D01*
X47060022Y-60199997D01*
X47060022Y-60200002D01*
X45939978Y-60200002D01*
X45939978Y-60199997D01*
X45922157Y-60076048D01*
X45922156Y-60076046D01*
X45922156Y-60076044D01*
X45870133Y-59962130D01*
X45788124Y-59867487D01*
X45788124Y-59867486D01*
X45682774Y-59799782D01*
X45562616Y-59764500D01*
X45562615Y-59764500D01*
X45437385Y-59764500D01*
X45437383Y-59764500D01*
X45317225Y-59799782D01*
X45211875Y-59867486D01*
X45211875Y-59867487D01*
X45129868Y-59962128D01*
X45077843Y-60076046D01*
X45077842Y-60076048D01*
X45060022Y-60199997D01*
X45060022Y-60200002D01*
X39133699Y-60200002D01*
X39015940Y-60154382D01*
X39015939Y-60154381D01*
X39015937Y-60154381D01*
X38797243Y-60113500D01*
X38574757Y-60113500D01*
X38356062Y-60154381D01*
X38279797Y-60183926D01*
X38148599Y-60234753D01*
X37959438Y-60351876D01*
X37795019Y-60501764D01*
X37770264Y-60534545D01*
X37660943Y-60679309D01*
X37660938Y-60679318D01*
X37561772Y-60878469D01*
X37500885Y-61092464D01*
X37484053Y-61274118D01*
X37480357Y-61314000D01*
X36700553Y-61314000D01*
X36700500Y-61312379D01*
X36700500Y-59350002D01*
X40060022Y-59350002D01*
X40077842Y-59473951D01*
X40077843Y-59473953D01*
X40077843Y-59473954D01*
X40077844Y-59473956D01*
X40129867Y-59587870D01*
X40129868Y-59587871D01*
X40211875Y-59682512D01*
X40211875Y-59682513D01*
X40317225Y-59750217D01*
X40317227Y-59750218D01*
X40437385Y-59785500D01*
X40437386Y-59785500D01*
X40562614Y-59785500D01*
X40562615Y-59785500D01*
X40682773Y-59750218D01*
X40788124Y-59682513D01*
X40870133Y-59587870D01*
X40922156Y-59473956D01*
X40925600Y-59450002D01*
X40939978Y-59350002D01*
X40939978Y-59349997D01*
X40932790Y-59300002D01*
X44210022Y-59300002D01*
X44227842Y-59423951D01*
X44227843Y-59423953D01*
X44227843Y-59423954D01*
X44227844Y-59423956D01*
X44279867Y-59537870D01*
X44279868Y-59537871D01*
X44361875Y-59632512D01*
X44361875Y-59632513D01*
X44467225Y-59700217D01*
X44467227Y-59700218D01*
X44587385Y-59735500D01*
X44587386Y-59735500D01*
X44712614Y-59735500D01*
X44712615Y-59735500D01*
X44832773Y-59700218D01*
X44938124Y-59632513D01*
X45020133Y-59537870D01*
X45060261Y-59450002D01*
X54610022Y-59450002D01*
X54627842Y-59573951D01*
X54627843Y-59573953D01*
X54627843Y-59573954D01*
X54627844Y-59573956D01*
X54679867Y-59687870D01*
X54679868Y-59687871D01*
X54761875Y-59782512D01*
X54761875Y-59782513D01*
X54867225Y-59850217D01*
X54867227Y-59850218D01*
X54987385Y-59885500D01*
X54987386Y-59885500D01*
X55112614Y-59885500D01*
X55112615Y-59885500D01*
X55232773Y-59850218D01*
X55338124Y-59782513D01*
X55420133Y-59687870D01*
X55472156Y-59573956D01*
X55477344Y-59537871D01*
X55489978Y-59450002D01*
X56010022Y-59450002D01*
X56027842Y-59573951D01*
X56027843Y-59573953D01*
X56027843Y-59573954D01*
X56027844Y-59573956D01*
X56079867Y-59687870D01*
X56079868Y-59687871D01*
X56161875Y-59782512D01*
X56161875Y-59782513D01*
X56267225Y-59850217D01*
X56267227Y-59850218D01*
X56387385Y-59885500D01*
X56387386Y-59885500D01*
X56512614Y-59885500D01*
X56512615Y-59885500D01*
X56632773Y-59850218D01*
X56738124Y-59782513D01*
X56766295Y-59750002D01*
X58910022Y-59750002D01*
X58927842Y-59873951D01*
X58927843Y-59873953D01*
X58927843Y-59873954D01*
X58927844Y-59873956D01*
X58979867Y-59987870D01*
X58979868Y-59987871D01*
X59061875Y-60082512D01*
X59061875Y-60082513D01*
X59167225Y-60150217D01*
X59167227Y-60150218D01*
X59287385Y-60185500D01*
X59287386Y-60185500D01*
X59412614Y-60185500D01*
X59412615Y-60185500D01*
X59532773Y-60150218D01*
X59638124Y-60082513D01*
X59720133Y-59987870D01*
X59772156Y-59873956D01*
X59773086Y-59867487D01*
X59789978Y-59750002D01*
X59789978Y-59749997D01*
X59772157Y-59626048D01*
X59772156Y-59626046D01*
X59772156Y-59626044D01*
X59720133Y-59512130D01*
X59682342Y-59468517D01*
X59658525Y-59412157D01*
X59672384Y-59352562D01*
X59684225Y-59338504D01*
X59683487Y-59337865D01*
X59716299Y-59299997D01*
X59770133Y-59237870D01*
X59822156Y-59123956D01*
X59823086Y-59117487D01*
X59839978Y-59000002D01*
X59839978Y-58999997D01*
X59822157Y-58876048D01*
X59822156Y-58876046D01*
X59822156Y-58876044D01*
X59770133Y-58762130D01*
X59688124Y-58667487D01*
X59688124Y-58667486D01*
X59582774Y-58599782D01*
X59462616Y-58564500D01*
X59462615Y-58564500D01*
X59337385Y-58564500D01*
X59337383Y-58564500D01*
X59217225Y-58599782D01*
X59111875Y-58667486D01*
X59111875Y-58667487D01*
X59029868Y-58762128D01*
X58977843Y-58876046D01*
X58977842Y-58876048D01*
X58960022Y-58999997D01*
X58960022Y-59000002D01*
X58977842Y-59123951D01*
X58977843Y-59123953D01*
X58977843Y-59123954D01*
X58977844Y-59123956D01*
X59029867Y-59237870D01*
X59029868Y-59237871D01*
X59067657Y-59281482D01*
X59091475Y-59337841D01*
X59077617Y-59397436D01*
X59065780Y-59411502D01*
X59066513Y-59412137D01*
X59061878Y-59417485D01*
X59061876Y-59417487D01*
X58979867Y-59512130D01*
X58927843Y-59626046D01*
X58927842Y-59626048D01*
X58910022Y-59749997D01*
X58910022Y-59750002D01*
X56766295Y-59750002D01*
X56820133Y-59687870D01*
X56872156Y-59573956D01*
X56877344Y-59537871D01*
X56889978Y-59450002D01*
X56889978Y-59449997D01*
X56872157Y-59326048D01*
X56872156Y-59326046D01*
X56872156Y-59326044D01*
X56820133Y-59212130D01*
X56738124Y-59117487D01*
X56738124Y-59117486D01*
X56632774Y-59049782D01*
X56512616Y-59014500D01*
X56512615Y-59014500D01*
X56387385Y-59014500D01*
X56387383Y-59014500D01*
X56267225Y-59049782D01*
X56161875Y-59117486D01*
X56161875Y-59117487D01*
X56079868Y-59212128D01*
X56027843Y-59326046D01*
X56027842Y-59326048D01*
X56010022Y-59449997D01*
X56010022Y-59450002D01*
X55489978Y-59450002D01*
X55489978Y-59449997D01*
X55472157Y-59326048D01*
X55472156Y-59326046D01*
X55472156Y-59326044D01*
X55420133Y-59212130D01*
X55338124Y-59117487D01*
X55338124Y-59117486D01*
X55232774Y-59049782D01*
X55112616Y-59014500D01*
X55112615Y-59014500D01*
X54987385Y-59014500D01*
X54987383Y-59014500D01*
X54867225Y-59049782D01*
X54761875Y-59117486D01*
X54761875Y-59117487D01*
X54679868Y-59212128D01*
X54627843Y-59326046D01*
X54627842Y-59326048D01*
X54610022Y-59449997D01*
X54610022Y-59450002D01*
X45060261Y-59450002D01*
X45072156Y-59423956D01*
X45073086Y-59417487D01*
X45089978Y-59300002D01*
X45089978Y-59299997D01*
X45072157Y-59176048D01*
X45072156Y-59176046D01*
X45072156Y-59176044D01*
X45020133Y-59062130D01*
X44938124Y-58967487D01*
X44938124Y-58967486D01*
X44832774Y-58899782D01*
X44712616Y-58864500D01*
X44712615Y-58864500D01*
X44587385Y-58864500D01*
X44587383Y-58864500D01*
X44467225Y-58899782D01*
X44361875Y-58967486D01*
X44361875Y-58967487D01*
X44279868Y-59062128D01*
X44227843Y-59176046D01*
X44227842Y-59176048D01*
X44210022Y-59299997D01*
X44210022Y-59300002D01*
X40932790Y-59300002D01*
X40922157Y-59226048D01*
X40922156Y-59226046D01*
X40922156Y-59226044D01*
X40870133Y-59112130D01*
X40788124Y-59017487D01*
X40788124Y-59017486D01*
X40682774Y-58949782D01*
X40562616Y-58914500D01*
X40562615Y-58914500D01*
X40437385Y-58914500D01*
X40437383Y-58914500D01*
X40317225Y-58949782D01*
X40211875Y-59017486D01*
X40211875Y-59017487D01*
X40129868Y-59112128D01*
X40077843Y-59226046D01*
X40077842Y-59226048D01*
X40060022Y-59349997D01*
X40060022Y-59350002D01*
X36700500Y-59350002D01*
X36700500Y-57645587D01*
X39323637Y-57645587D01*
X39341457Y-57769536D01*
X39341458Y-57769538D01*
X39341458Y-57769539D01*
X39341459Y-57769541D01*
X39393482Y-57883455D01*
X39415143Y-57908453D01*
X39475490Y-57978097D01*
X39475490Y-57978098D01*
X39544384Y-58022373D01*
X39580842Y-58045803D01*
X39701000Y-58081085D01*
X39701001Y-58081085D01*
X39826229Y-58081085D01*
X39826230Y-58081085D01*
X39946388Y-58045803D01*
X40051739Y-57978098D01*
X40133748Y-57883455D01*
X40178938Y-57784504D01*
X40733622Y-57784504D01*
X40751442Y-57908453D01*
X40751443Y-57908455D01*
X40751443Y-57908456D01*
X40751444Y-57908458D01*
X40803467Y-58022372D01*
X40803468Y-58022373D01*
X40885475Y-58117014D01*
X40885475Y-58117015D01*
X40977333Y-58176048D01*
X40990827Y-58184720D01*
X41110985Y-58220002D01*
X41110986Y-58220002D01*
X41236214Y-58220002D01*
X41236215Y-58220002D01*
X41304328Y-58200002D01*
X43310022Y-58200002D01*
X43327842Y-58323951D01*
X43327843Y-58323953D01*
X43327843Y-58323954D01*
X43327844Y-58323956D01*
X43379867Y-58437870D01*
X43392555Y-58452513D01*
X43461875Y-58532512D01*
X43461875Y-58532513D01*
X43567225Y-58600217D01*
X43567227Y-58600218D01*
X43687385Y-58635500D01*
X43687386Y-58635500D01*
X43812614Y-58635500D01*
X43812615Y-58635500D01*
X43932773Y-58600218D01*
X44038124Y-58532513D01*
X44120133Y-58437870D01*
X44172156Y-58323956D01*
X44175600Y-58300002D01*
X44189978Y-58200002D01*
X44189978Y-58199997D01*
X44172157Y-58076048D01*
X44172156Y-58076046D01*
X44172156Y-58076044D01*
X44120133Y-57962130D01*
X44038124Y-57867487D01*
X44038124Y-57867486D01*
X43932774Y-57799782D01*
X43812616Y-57764500D01*
X43812615Y-57764500D01*
X43687385Y-57764500D01*
X43687383Y-57764500D01*
X43567225Y-57799782D01*
X43461875Y-57867486D01*
X43461875Y-57867487D01*
X43379868Y-57962128D01*
X43327843Y-58076046D01*
X43327842Y-58076048D01*
X43310022Y-58199997D01*
X43310022Y-58200002D01*
X41304328Y-58200002D01*
X41356373Y-58184720D01*
X41461724Y-58117015D01*
X41543733Y-58022372D01*
X41595756Y-57908458D01*
X41595757Y-57908453D01*
X41613578Y-57784504D01*
X41613578Y-57784499D01*
X41595757Y-57660550D01*
X41595756Y-57660548D01*
X41595756Y-57660546D01*
X41545272Y-57550002D01*
X50260022Y-57550002D01*
X50277842Y-57673951D01*
X50277843Y-57673953D01*
X50277843Y-57673954D01*
X50277844Y-57673956D01*
X50329867Y-57787870D01*
X50329868Y-57787871D01*
X50411875Y-57882512D01*
X50411875Y-57882513D01*
X50517225Y-57950217D01*
X50517227Y-57950218D01*
X50637385Y-57985500D01*
X50637386Y-57985500D01*
X50762614Y-57985500D01*
X50762615Y-57985500D01*
X50882773Y-57950218D01*
X50988124Y-57882513D01*
X51070133Y-57787870D01*
X51122156Y-57673956D01*
X51122157Y-57673951D01*
X51139978Y-57550002D01*
X51139978Y-57549997D01*
X51122157Y-57426048D01*
X51122156Y-57426046D01*
X51122156Y-57426044D01*
X51070133Y-57312130D01*
X50988124Y-57217487D01*
X50988124Y-57217486D01*
X50882774Y-57149782D01*
X50762616Y-57114500D01*
X50762615Y-57114500D01*
X50637385Y-57114500D01*
X50637383Y-57114500D01*
X50517225Y-57149782D01*
X50411875Y-57217486D01*
X50411875Y-57217487D01*
X50329868Y-57312128D01*
X50329867Y-57312129D01*
X50329867Y-57312130D01*
X50315011Y-57344661D01*
X50277843Y-57426046D01*
X50277842Y-57426048D01*
X50260022Y-57549997D01*
X50260022Y-57550002D01*
X41545272Y-57550002D01*
X41543733Y-57546632D01*
X41461724Y-57451989D01*
X41461724Y-57451988D01*
X41356374Y-57384284D01*
X41236216Y-57349002D01*
X41236215Y-57349002D01*
X41110985Y-57349002D01*
X41110983Y-57349002D01*
X40990825Y-57384284D01*
X40885475Y-57451988D01*
X40885475Y-57451989D01*
X40803468Y-57546630D01*
X40751443Y-57660548D01*
X40751442Y-57660550D01*
X40733622Y-57784499D01*
X40733622Y-57784504D01*
X40178938Y-57784504D01*
X40185771Y-57769541D01*
X40186496Y-57764500D01*
X40203593Y-57645587D01*
X40203593Y-57645582D01*
X40185772Y-57521633D01*
X40185771Y-57521631D01*
X40185771Y-57521629D01*
X40133748Y-57407715D01*
X40051739Y-57313072D01*
X40051739Y-57313071D01*
X39946389Y-57245367D01*
X39826231Y-57210085D01*
X39826230Y-57210085D01*
X39701000Y-57210085D01*
X39700998Y-57210085D01*
X39580840Y-57245367D01*
X39475490Y-57313071D01*
X39475490Y-57313072D01*
X39393483Y-57407713D01*
X39393482Y-57407714D01*
X39393482Y-57407715D01*
X39385110Y-57426048D01*
X39341458Y-57521631D01*
X39341457Y-57521633D01*
X39323637Y-57645582D01*
X39323637Y-57645587D01*
X36700500Y-57645587D01*
X36700500Y-56286402D01*
X38955622Y-56286402D01*
X38973442Y-56410351D01*
X38973443Y-56410353D01*
X38973443Y-56410354D01*
X38973444Y-56410356D01*
X39025467Y-56524270D01*
X39030432Y-56530000D01*
X39107475Y-56618912D01*
X39107475Y-56618913D01*
X39212825Y-56686617D01*
X39212827Y-56686618D01*
X39332985Y-56721900D01*
X39332986Y-56721900D01*
X39458214Y-56721900D01*
X39458215Y-56721900D01*
X39578373Y-56686618D01*
X39647797Y-56642002D01*
X43426022Y-56642002D01*
X43443842Y-56765951D01*
X43443843Y-56765953D01*
X43443843Y-56765954D01*
X43443844Y-56765956D01*
X43495867Y-56879870D01*
X43495868Y-56879871D01*
X43577875Y-56974512D01*
X43577875Y-56974513D01*
X43683225Y-57042217D01*
X43683227Y-57042218D01*
X43803385Y-57077500D01*
X43803386Y-57077500D01*
X43928614Y-57077500D01*
X43928615Y-57077500D01*
X44048773Y-57042218D01*
X44154124Y-56974513D01*
X44236133Y-56879870D01*
X44288156Y-56765956D01*
X44288157Y-56765951D01*
X44305978Y-56642002D01*
X44305978Y-56641997D01*
X44288157Y-56518048D01*
X44288156Y-56518046D01*
X44288156Y-56518044D01*
X44268499Y-56475002D01*
X48760022Y-56475002D01*
X48777842Y-56598951D01*
X48777843Y-56598953D01*
X48777843Y-56598954D01*
X48777844Y-56598956D01*
X48829867Y-56712870D01*
X48829868Y-56712871D01*
X48911875Y-56807512D01*
X48911875Y-56807513D01*
X49017225Y-56875217D01*
X49017227Y-56875218D01*
X49137385Y-56910500D01*
X49137386Y-56910500D01*
X49262614Y-56910500D01*
X49262615Y-56910500D01*
X49382773Y-56875218D01*
X49488124Y-56807513D01*
X49570133Y-56712870D01*
X49622156Y-56598956D01*
X49629226Y-56549782D01*
X49639978Y-56475002D01*
X49639978Y-56474997D01*
X49622157Y-56351047D01*
X49620847Y-56346586D01*
X49622591Y-56285425D01*
X49659951Y-56236970D01*
X49676725Y-56229020D01*
X49676332Y-56228159D01*
X49682765Y-56225220D01*
X49682773Y-56225218D01*
X49788124Y-56157513D01*
X49870133Y-56062870D01*
X49922156Y-55948956D01*
X49923750Y-55937870D01*
X49939978Y-55825002D01*
X49939978Y-55824997D01*
X49922157Y-55701048D01*
X49922156Y-55701046D01*
X49922156Y-55701044D01*
X49870133Y-55587130D01*
X49788124Y-55492487D01*
X49788124Y-55492486D01*
X49682774Y-55424782D01*
X49562616Y-55389500D01*
X49562615Y-55389500D01*
X49437385Y-55389500D01*
X49437383Y-55389500D01*
X49317225Y-55424782D01*
X49211875Y-55492486D01*
X49211875Y-55492487D01*
X49129868Y-55587128D01*
X49077843Y-55701046D01*
X49077842Y-55701048D01*
X49060022Y-55824997D01*
X49060022Y-55825002D01*
X49077843Y-55948954D01*
X49079154Y-55953419D01*
X49077406Y-56014579D01*
X49040043Y-56063032D01*
X49023278Y-56070981D01*
X49023670Y-56071839D01*
X49017227Y-56074781D01*
X48911875Y-56142486D01*
X48911875Y-56142487D01*
X48829868Y-56237128D01*
X48829867Y-56237129D01*
X48829867Y-56237130D01*
X48823890Y-56250217D01*
X48777843Y-56351046D01*
X48777842Y-56351048D01*
X48760022Y-56474997D01*
X48760022Y-56475002D01*
X44268499Y-56475002D01*
X44236133Y-56404130D01*
X44154124Y-56309487D01*
X44154124Y-56309486D01*
X44048774Y-56241782D01*
X43928616Y-56206500D01*
X43928615Y-56206500D01*
X43803385Y-56206500D01*
X43803383Y-56206500D01*
X43683225Y-56241782D01*
X43577875Y-56309486D01*
X43577875Y-56309487D01*
X43495868Y-56404128D01*
X43495867Y-56404129D01*
X43495867Y-56404130D01*
X43490426Y-56416044D01*
X43443843Y-56518046D01*
X43443842Y-56518048D01*
X43426022Y-56641997D01*
X43426022Y-56642002D01*
X39647797Y-56642002D01*
X39683724Y-56618913D01*
X39765733Y-56524270D01*
X39817756Y-56410356D01*
X39817757Y-56410351D01*
X39835578Y-56286402D01*
X39835578Y-56286397D01*
X39817757Y-56162448D01*
X39817756Y-56162446D01*
X39817756Y-56162444D01*
X39765733Y-56048530D01*
X39683724Y-55953887D01*
X39683724Y-55953886D01*
X39578374Y-55886182D01*
X39458216Y-55850900D01*
X39458215Y-55850900D01*
X39332985Y-55850900D01*
X39332983Y-55850900D01*
X39212825Y-55886182D01*
X39107475Y-55953886D01*
X39107475Y-55953887D01*
X39025468Y-56048528D01*
X39025467Y-56048529D01*
X39025467Y-56048530D01*
X39001862Y-56100217D01*
X38973443Y-56162446D01*
X38973442Y-56162448D01*
X38955622Y-56286397D01*
X38955622Y-56286402D01*
X36700500Y-56286402D01*
X36700500Y-55850002D01*
X46610022Y-55850002D01*
X46627842Y-55973951D01*
X46627843Y-55973953D01*
X46627843Y-55973954D01*
X46627844Y-55973956D01*
X46679867Y-56087870D01*
X46679868Y-56087871D01*
X46761875Y-56182512D01*
X46761875Y-56182513D01*
X46848013Y-56237870D01*
X46867227Y-56250218D01*
X46987385Y-56285500D01*
X46987386Y-56285500D01*
X47112614Y-56285500D01*
X47112615Y-56285500D01*
X47232773Y-56250218D01*
X47338124Y-56182513D01*
X47420133Y-56087870D01*
X47472156Y-55973956D01*
X47472157Y-55973951D01*
X47489978Y-55850002D01*
X47489978Y-55849997D01*
X47472157Y-55726048D01*
X47472156Y-55726046D01*
X47472156Y-55726044D01*
X47420133Y-55612130D01*
X47338124Y-55517487D01*
X47338124Y-55517486D01*
X47232774Y-55449782D01*
X47112616Y-55414500D01*
X47112615Y-55414500D01*
X46987385Y-55414500D01*
X46987383Y-55414500D01*
X46867225Y-55449782D01*
X46761875Y-55517486D01*
X46761875Y-55517487D01*
X46679868Y-55612128D01*
X46627843Y-55726046D01*
X46627842Y-55726048D01*
X46610022Y-55849997D01*
X46610022Y-55850002D01*
X36700500Y-55850002D01*
X36700500Y-54508402D01*
X37100522Y-54508402D01*
X37118342Y-54632351D01*
X37118343Y-54632353D01*
X37118343Y-54632354D01*
X37118344Y-54632356D01*
X37170367Y-54746270D01*
X37170368Y-54746271D01*
X37252375Y-54840912D01*
X37252375Y-54840913D01*
X37357725Y-54908617D01*
X37357727Y-54908618D01*
X37477885Y-54943900D01*
X37477886Y-54943900D01*
X37603114Y-54943900D01*
X37603115Y-54943900D01*
X37723273Y-54908618D01*
X37783361Y-54870002D01*
X45640022Y-54870002D01*
X45657842Y-54993951D01*
X45657843Y-54993953D01*
X45657843Y-54993954D01*
X45657844Y-54993956D01*
X45709867Y-55107870D01*
X45709868Y-55107871D01*
X45791875Y-55202512D01*
X45791875Y-55202513D01*
X45897225Y-55270217D01*
X45897227Y-55270218D01*
X46017385Y-55305500D01*
X46017386Y-55305500D01*
X46142614Y-55305500D01*
X46142615Y-55305500D01*
X46262773Y-55270218D01*
X46368124Y-55202513D01*
X46402326Y-55163041D01*
X46454719Y-55131446D01*
X46515680Y-55136681D01*
X46530660Y-55144584D01*
X46617227Y-55200218D01*
X46737385Y-55235500D01*
X46737386Y-55235500D01*
X46862614Y-55235500D01*
X46862615Y-55235500D01*
X46982773Y-55200218D01*
X47060911Y-55150002D01*
X50210022Y-55150002D01*
X50227842Y-55273951D01*
X50227843Y-55273953D01*
X50227843Y-55273954D01*
X50227844Y-55273956D01*
X50279867Y-55387870D01*
X50302942Y-55414500D01*
X50361875Y-55482512D01*
X50361875Y-55482513D01*
X50467225Y-55550217D01*
X50467227Y-55550218D01*
X50587385Y-55585500D01*
X50587386Y-55585500D01*
X50712614Y-55585500D01*
X50712615Y-55585500D01*
X50832773Y-55550218D01*
X50938124Y-55482513D01*
X51020133Y-55387870D01*
X51072156Y-55273956D01*
X51072157Y-55273951D01*
X51089978Y-55150002D01*
X51089978Y-55149997D01*
X51072157Y-55026048D01*
X51072156Y-55026046D01*
X51072156Y-55026044D01*
X51020133Y-54912130D01*
X50938124Y-54817487D01*
X50938124Y-54817486D01*
X50832774Y-54749782D01*
X50712616Y-54714500D01*
X50712615Y-54714500D01*
X50587385Y-54714500D01*
X50587383Y-54714500D01*
X50467225Y-54749782D01*
X50361875Y-54817486D01*
X50361875Y-54817487D01*
X50279868Y-54912128D01*
X50227843Y-55026046D01*
X50227842Y-55026048D01*
X50210022Y-55149997D01*
X50210022Y-55150002D01*
X47060911Y-55150002D01*
X47088124Y-55132513D01*
X47170133Y-55037870D01*
X47222156Y-54923956D01*
X47222157Y-54923951D01*
X47239978Y-54800002D01*
X47239978Y-54799997D01*
X47222157Y-54676048D01*
X47222156Y-54676046D01*
X47222156Y-54676044D01*
X47170133Y-54562130D01*
X47088124Y-54467487D01*
X47088124Y-54467486D01*
X46983116Y-54400002D01*
X48110022Y-54400002D01*
X48127842Y-54523951D01*
X48127843Y-54523953D01*
X48127843Y-54523954D01*
X48127844Y-54523956D01*
X48179867Y-54637870D01*
X48179868Y-54637871D01*
X48261875Y-54732512D01*
X48261875Y-54732513D01*
X48367225Y-54800217D01*
X48367227Y-54800218D01*
X48487385Y-54835500D01*
X48487386Y-54835500D01*
X48612614Y-54835500D01*
X48612615Y-54835500D01*
X48732773Y-54800218D01*
X48838124Y-54732513D01*
X48920133Y-54637870D01*
X48972156Y-54523956D01*
X48972157Y-54523951D01*
X48989978Y-54400002D01*
X51390022Y-54400002D01*
X51407842Y-54523951D01*
X51407843Y-54523953D01*
X51407843Y-54523954D01*
X51407844Y-54523956D01*
X51455981Y-54629360D01*
X51458475Y-54634822D01*
X51465449Y-54695609D01*
X51458475Y-54717074D01*
X51417843Y-54806046D01*
X51417842Y-54806048D01*
X51400022Y-54929997D01*
X51400022Y-54930002D01*
X51417842Y-55053951D01*
X51417843Y-55053953D01*
X51417843Y-55053954D01*
X51417844Y-55053956D01*
X51442466Y-55107870D01*
X51463475Y-55153874D01*
X51470449Y-55214661D01*
X51463475Y-55236126D01*
X51417843Y-55336046D01*
X51417842Y-55336048D01*
X51400022Y-55459997D01*
X51400022Y-55460002D01*
X51417842Y-55583951D01*
X51417843Y-55583953D01*
X51417843Y-55583954D01*
X51417844Y-55583956D01*
X51465759Y-55688874D01*
X51472733Y-55749660D01*
X51465759Y-55771123D01*
X51441155Y-55825000D01*
X51417843Y-55876046D01*
X51417842Y-55876048D01*
X51400022Y-55999997D01*
X51400022Y-56000002D01*
X51417842Y-56123951D01*
X51417843Y-56123953D01*
X51417843Y-56123954D01*
X51417844Y-56123956D01*
X51426307Y-56142487D01*
X51468475Y-56234822D01*
X51475449Y-56295609D01*
X51468475Y-56317074D01*
X51427843Y-56406046D01*
X51427842Y-56406048D01*
X51410022Y-56529997D01*
X51410022Y-56530002D01*
X51427842Y-56653951D01*
X51427843Y-56653953D01*
X51427843Y-56653954D01*
X51427844Y-56653956D01*
X51442760Y-56686617D01*
X51473475Y-56753874D01*
X51480449Y-56814661D01*
X51473475Y-56836126D01*
X51427843Y-56936046D01*
X51427842Y-56936048D01*
X51410022Y-57059997D01*
X51410022Y-57060002D01*
X51427842Y-57183951D01*
X51427843Y-57183953D01*
X51427843Y-57183954D01*
X51427844Y-57183956D01*
X51432411Y-57193956D01*
X51473475Y-57283874D01*
X51480449Y-57344661D01*
X51473475Y-57366126D01*
X51427843Y-57466046D01*
X51427842Y-57466048D01*
X51410022Y-57589997D01*
X51410022Y-57590002D01*
X51427842Y-57713951D01*
X51427843Y-57713953D01*
X51427843Y-57713954D01*
X51427844Y-57713956D01*
X51467040Y-57799782D01*
X51468475Y-57802925D01*
X51475449Y-57863712D01*
X51468475Y-57885177D01*
X51417843Y-57996046D01*
X51417842Y-57996048D01*
X51400022Y-58119997D01*
X51400022Y-58120002D01*
X51417842Y-58243951D01*
X51417843Y-58243953D01*
X51417843Y-58243954D01*
X51417844Y-58243956D01*
X51469867Y-58357870D01*
X51469868Y-58357871D01*
X51551875Y-58452512D01*
X51551875Y-58452513D01*
X51657225Y-58520217D01*
X51657227Y-58520218D01*
X51777385Y-58555500D01*
X51777386Y-58555500D01*
X51843193Y-58555500D01*
X51901384Y-58574407D01*
X51933247Y-58613374D01*
X51939867Y-58627870D01*
X51939867Y-58627871D01*
X52021875Y-58722512D01*
X52021875Y-58722513D01*
X52083521Y-58762130D01*
X52127227Y-58790218D01*
X52247385Y-58825500D01*
X52247386Y-58825500D01*
X52372614Y-58825500D01*
X52372615Y-58825500D01*
X52492773Y-58790218D01*
X52598124Y-58722513D01*
X52680133Y-58627870D01*
X52682185Y-58623375D01*
X52723556Y-58578297D01*
X52772240Y-58565500D01*
X52783193Y-58565500D01*
X52841384Y-58584407D01*
X52873246Y-58623373D01*
X52879867Y-58637870D01*
X52879866Y-58637870D01*
X52961875Y-58732512D01*
X52961875Y-58732513D01*
X53067225Y-58800217D01*
X53067227Y-58800218D01*
X53187385Y-58835500D01*
X53187386Y-58835500D01*
X53312614Y-58835500D01*
X53312615Y-58835500D01*
X53432773Y-58800218D01*
X53538124Y-58732513D01*
X53620133Y-58637870D01*
X53624700Y-58627870D01*
X53626754Y-58623373D01*
X53668127Y-58578295D01*
X53716807Y-58565500D01*
X53772614Y-58565500D01*
X53772615Y-58565500D01*
X53892773Y-58530218D01*
X53998124Y-58462513D01*
X54080133Y-58367870D01*
X54111127Y-58300002D01*
X54610022Y-58300002D01*
X54627842Y-58423951D01*
X54627843Y-58423953D01*
X54627843Y-58423954D01*
X54627844Y-58423956D01*
X54679867Y-58537870D01*
X54679868Y-58537871D01*
X54761875Y-58632512D01*
X54761875Y-58632513D01*
X54867225Y-58700217D01*
X54867227Y-58700218D01*
X54987385Y-58735500D01*
X54987386Y-58735500D01*
X55112614Y-58735500D01*
X55112615Y-58735500D01*
X55232773Y-58700218D01*
X55338124Y-58632513D01*
X55420133Y-58537870D01*
X55472156Y-58423956D01*
X55480926Y-58362959D01*
X55489978Y-58300002D01*
X56010022Y-58300002D01*
X56027842Y-58423951D01*
X56027843Y-58423953D01*
X56027843Y-58423954D01*
X56027844Y-58423956D01*
X56079867Y-58537870D01*
X56079868Y-58537871D01*
X56161875Y-58632512D01*
X56161875Y-58632513D01*
X56267225Y-58700217D01*
X56267227Y-58700218D01*
X56387385Y-58735500D01*
X56387386Y-58735500D01*
X56512614Y-58735500D01*
X56512615Y-58735500D01*
X56632773Y-58700218D01*
X56738124Y-58632513D01*
X56820133Y-58537870D01*
X56872156Y-58423956D01*
X56880926Y-58362959D01*
X56889978Y-58300002D01*
X56889978Y-58299997D01*
X56872157Y-58176048D01*
X56872156Y-58176046D01*
X56872156Y-58176044D01*
X56820133Y-58062130D01*
X56738124Y-57967487D01*
X56738124Y-57967486D01*
X56632774Y-57899782D01*
X56512616Y-57864500D01*
X56512615Y-57864500D01*
X56387385Y-57864500D01*
X56387383Y-57864500D01*
X56267225Y-57899782D01*
X56161875Y-57967486D01*
X56161875Y-57967487D01*
X56079868Y-58062128D01*
X56027843Y-58176046D01*
X56027842Y-58176048D01*
X56010022Y-58299997D01*
X56010022Y-58300002D01*
X55489978Y-58300002D01*
X55489978Y-58299997D01*
X55472157Y-58176048D01*
X55472156Y-58176046D01*
X55472156Y-58176044D01*
X55420133Y-58062130D01*
X55338124Y-57967487D01*
X55338124Y-57967486D01*
X55232774Y-57899782D01*
X55112616Y-57864500D01*
X55112615Y-57864500D01*
X54987385Y-57864500D01*
X54987383Y-57864500D01*
X54867225Y-57899782D01*
X54761875Y-57967486D01*
X54761875Y-57967487D01*
X54679868Y-58062128D01*
X54627843Y-58176046D01*
X54627842Y-58176048D01*
X54610022Y-58299997D01*
X54610022Y-58300002D01*
X54111127Y-58300002D01*
X54132156Y-58253956D01*
X54133594Y-58243953D01*
X54149978Y-58130002D01*
X54149978Y-58129997D01*
X54132157Y-58006048D01*
X54132156Y-58006046D01*
X54132156Y-58006044D01*
X54080133Y-57892130D01*
X53998124Y-57797487D01*
X53998124Y-57797486D01*
X53892774Y-57729782D01*
X53772616Y-57694500D01*
X53772615Y-57694500D01*
X53716807Y-57694500D01*
X53658616Y-57675593D01*
X53626754Y-57636627D01*
X53623592Y-57629705D01*
X53620133Y-57622130D01*
X53620132Y-57622129D01*
X53620133Y-57622129D01*
X53538124Y-57527487D01*
X53538124Y-57527486D01*
X53432774Y-57459782D01*
X53312616Y-57424500D01*
X53312615Y-57424500D01*
X53260917Y-57424500D01*
X53202726Y-57405593D01*
X53166762Y-57356093D01*
X53166762Y-57294907D01*
X53170863Y-57284374D01*
X53212156Y-57193956D01*
X53213594Y-57183953D01*
X53229978Y-57070002D01*
X53229978Y-57069997D01*
X53219914Y-57000002D01*
X54610022Y-57000002D01*
X54627842Y-57123951D01*
X54627843Y-57123953D01*
X54627843Y-57123954D01*
X54627844Y-57123956D01*
X54679867Y-57237870D01*
X54679868Y-57237871D01*
X54761875Y-57332512D01*
X54761875Y-57332513D01*
X54844325Y-57385500D01*
X54867227Y-57400218D01*
X54987385Y-57435500D01*
X54987386Y-57435500D01*
X55112614Y-57435500D01*
X55112615Y-57435500D01*
X55232773Y-57400218D01*
X55338124Y-57332513D01*
X55420133Y-57237870D01*
X55472156Y-57123956D01*
X55473516Y-57114500D01*
X55489978Y-57000002D01*
X55489978Y-56999997D01*
X55482790Y-56950002D01*
X55960022Y-56950002D01*
X55977842Y-57073951D01*
X55977843Y-57073953D01*
X55977843Y-57073954D01*
X55977844Y-57073956D01*
X56029867Y-57187870D01*
X56055530Y-57217486D01*
X56111875Y-57282512D01*
X56111875Y-57282513D01*
X56217225Y-57350217D01*
X56217227Y-57350218D01*
X56337385Y-57385500D01*
X56337386Y-57385500D01*
X56462614Y-57385500D01*
X56462615Y-57385500D01*
X56582773Y-57350218D01*
X56688124Y-57282513D01*
X56770133Y-57187870D01*
X56822156Y-57073956D01*
X56822157Y-57073951D01*
X56839978Y-56950002D01*
X56839978Y-56949997D01*
X56822157Y-56826048D01*
X56822156Y-56826046D01*
X56822156Y-56826044D01*
X56770133Y-56712130D01*
X56688124Y-56617487D01*
X56688124Y-56617486D01*
X56582774Y-56549782D01*
X56462616Y-56514500D01*
X56462615Y-56514500D01*
X56337385Y-56514500D01*
X56337383Y-56514500D01*
X56217225Y-56549782D01*
X56111875Y-56617486D01*
X56111875Y-56617487D01*
X56029868Y-56712128D01*
X55977843Y-56826046D01*
X55977842Y-56826048D01*
X55960022Y-56949997D01*
X55960022Y-56950002D01*
X55482790Y-56950002D01*
X55472157Y-56876048D01*
X55472156Y-56876046D01*
X55472156Y-56876044D01*
X55420133Y-56762130D01*
X55338124Y-56667487D01*
X55338124Y-56667486D01*
X55232774Y-56599782D01*
X55112616Y-56564500D01*
X55112615Y-56564500D01*
X54987385Y-56564500D01*
X54987383Y-56564500D01*
X54867225Y-56599782D01*
X54761875Y-56667486D01*
X54761875Y-56667487D01*
X54679868Y-56762128D01*
X54627843Y-56876046D01*
X54627842Y-56876048D01*
X54610022Y-56999997D01*
X54610022Y-57000002D01*
X53219914Y-57000002D01*
X53212157Y-56946048D01*
X53212155Y-56946040D01*
X53166525Y-56846126D01*
X53159550Y-56785340D01*
X53166525Y-56763874D01*
X53212155Y-56663959D01*
X53212157Y-56663951D01*
X53229978Y-56540002D01*
X53229978Y-56539997D01*
X53212157Y-56416048D01*
X53212156Y-56416046D01*
X53212156Y-56416044D01*
X53164240Y-56311124D01*
X53157266Y-56250340D01*
X53164239Y-56228879D01*
X53212156Y-56123956D01*
X53217344Y-56087871D01*
X53229978Y-56000002D01*
X53229978Y-55999997D01*
X53212157Y-55876048D01*
X53212156Y-55876046D01*
X53212156Y-55876044D01*
X53164240Y-55771124D01*
X53157266Y-55710340D01*
X53160625Y-55700002D01*
X54610022Y-55700002D01*
X54627842Y-55823951D01*
X54627843Y-55823953D01*
X54627843Y-55823954D01*
X54627844Y-55823956D01*
X54679867Y-55937870D01*
X54679868Y-55937871D01*
X54761875Y-56032512D01*
X54761875Y-56032513D01*
X54867225Y-56100217D01*
X54867227Y-56100218D01*
X54987385Y-56135500D01*
X54987386Y-56135500D01*
X55112614Y-56135500D01*
X55112615Y-56135500D01*
X55232773Y-56100218D01*
X55338124Y-56032513D01*
X55420133Y-55937870D01*
X55472156Y-55823956D01*
X55472157Y-55823951D01*
X55489978Y-55700002D01*
X56010022Y-55700002D01*
X56027842Y-55823951D01*
X56027843Y-55823953D01*
X56027843Y-55823954D01*
X56027844Y-55823956D01*
X56079867Y-55937870D01*
X56079868Y-55937871D01*
X56161875Y-56032512D01*
X56161875Y-56032513D01*
X56267225Y-56100217D01*
X56267227Y-56100218D01*
X56387385Y-56135500D01*
X56387386Y-56135500D01*
X56512614Y-56135500D01*
X56512615Y-56135500D01*
X56632773Y-56100218D01*
X56738124Y-56032513D01*
X56820133Y-55937870D01*
X56872156Y-55823956D01*
X56872157Y-55823951D01*
X56889978Y-55700002D01*
X56889978Y-55699997D01*
X56872157Y-55576048D01*
X56872156Y-55576046D01*
X56872156Y-55576044D01*
X56820133Y-55462130D01*
X56738124Y-55367487D01*
X56738124Y-55367486D01*
X56632774Y-55299782D01*
X56512616Y-55264500D01*
X56512615Y-55264500D01*
X56387385Y-55264500D01*
X56387383Y-55264500D01*
X56267225Y-55299782D01*
X56161875Y-55367486D01*
X56161875Y-55367487D01*
X56079868Y-55462128D01*
X56027843Y-55576046D01*
X56027842Y-55576048D01*
X56010022Y-55699997D01*
X56010022Y-55700002D01*
X55489978Y-55700002D01*
X55489978Y-55699997D01*
X55472157Y-55576048D01*
X55472156Y-55576046D01*
X55472156Y-55576044D01*
X55420133Y-55462130D01*
X55338124Y-55367487D01*
X55338124Y-55367486D01*
X55232774Y-55299782D01*
X55112616Y-55264500D01*
X55112615Y-55264500D01*
X54987385Y-55264500D01*
X54987383Y-55264500D01*
X54867225Y-55299782D01*
X54761875Y-55367486D01*
X54761875Y-55367487D01*
X54679868Y-55462128D01*
X54627843Y-55576046D01*
X54627842Y-55576048D01*
X54610022Y-55699997D01*
X54610022Y-55700002D01*
X53160625Y-55700002D01*
X53164241Y-55688874D01*
X53212156Y-55583956D01*
X53213293Y-55576048D01*
X53229978Y-55460002D01*
X53229978Y-55459997D01*
X53212157Y-55336048D01*
X53212155Y-55336040D01*
X53166525Y-55236126D01*
X53159550Y-55175340D01*
X53166525Y-55153874D01*
X53212155Y-55053959D01*
X53212157Y-55053951D01*
X53229978Y-54930002D01*
X53229978Y-54929997D01*
X53212157Y-54806048D01*
X53212156Y-54806047D01*
X53212156Y-54806046D01*
X53212156Y-54806044D01*
X53161523Y-54695175D01*
X53154550Y-54634391D01*
X53161523Y-54612927D01*
X53190261Y-54550002D01*
X56010022Y-54550002D01*
X56027842Y-54673951D01*
X56027843Y-54673953D01*
X56027843Y-54673954D01*
X56027844Y-54673956D01*
X56079867Y-54787870D01*
X56090566Y-54800217D01*
X56161875Y-54882512D01*
X56161875Y-54882513D01*
X56235767Y-54930000D01*
X56267227Y-54950218D01*
X56387385Y-54985500D01*
X56387386Y-54985500D01*
X56512614Y-54985500D01*
X56512615Y-54985500D01*
X56632773Y-54950218D01*
X56738124Y-54882513D01*
X56820133Y-54787870D01*
X56872156Y-54673956D01*
X56872614Y-54670770D01*
X56889978Y-54550002D01*
X56889978Y-54549997D01*
X56872157Y-54426048D01*
X56872156Y-54426046D01*
X56872156Y-54426044D01*
X56820133Y-54312130D01*
X56738124Y-54217487D01*
X56738124Y-54217486D01*
X56632774Y-54149782D01*
X56512616Y-54114500D01*
X56512615Y-54114500D01*
X56387385Y-54114500D01*
X56387383Y-54114500D01*
X56267225Y-54149782D01*
X56161875Y-54217486D01*
X56161875Y-54217487D01*
X56079868Y-54312128D01*
X56027843Y-54426046D01*
X56027842Y-54426048D01*
X56010022Y-54549997D01*
X56010022Y-54550002D01*
X53190261Y-54550002D01*
X53202156Y-54523956D01*
X53202157Y-54523951D01*
X53219978Y-54400002D01*
X53219978Y-54399997D01*
X53202157Y-54276048D01*
X53202156Y-54276046D01*
X53202156Y-54276044D01*
X53150133Y-54162130D01*
X53068124Y-54067487D01*
X53068124Y-54067486D01*
X52962774Y-53999782D01*
X52842616Y-53964500D01*
X52842615Y-53964500D01*
X52717385Y-53964500D01*
X52717383Y-53964500D01*
X52597225Y-53999782D01*
X52491875Y-54067486D01*
X52491875Y-54067487D01*
X52409867Y-54162128D01*
X52409866Y-54162131D01*
X52407814Y-54166625D01*
X52366443Y-54211703D01*
X52317760Y-54224500D01*
X52292240Y-54224500D01*
X52234049Y-54205593D01*
X52202187Y-54166628D01*
X52200132Y-54162128D01*
X52118124Y-54067487D01*
X52118124Y-54067486D01*
X52012774Y-53999782D01*
X51892616Y-53964500D01*
X51892615Y-53964500D01*
X51767385Y-53964500D01*
X51767383Y-53964500D01*
X51647225Y-53999782D01*
X51541875Y-54067486D01*
X51541875Y-54067487D01*
X51459868Y-54162128D01*
X51407843Y-54276046D01*
X51407842Y-54276048D01*
X51390022Y-54399997D01*
X51390022Y-54400002D01*
X48989978Y-54400002D01*
X48989978Y-54399997D01*
X48972157Y-54276048D01*
X48972156Y-54276046D01*
X48972156Y-54276044D01*
X48920133Y-54162130D01*
X48838124Y-54067487D01*
X48838124Y-54067486D01*
X48732774Y-53999782D01*
X48612616Y-53964500D01*
X48612615Y-53964500D01*
X48487385Y-53964500D01*
X48487383Y-53964500D01*
X48367225Y-53999782D01*
X48261875Y-54067486D01*
X48261875Y-54067487D01*
X48179868Y-54162128D01*
X48127843Y-54276046D01*
X48127842Y-54276048D01*
X48110022Y-54399997D01*
X48110022Y-54400002D01*
X46983116Y-54400002D01*
X46982774Y-54399782D01*
X46862616Y-54364500D01*
X46862615Y-54364500D01*
X46737385Y-54364500D01*
X46737383Y-54364500D01*
X46617225Y-54399782D01*
X46511877Y-54467485D01*
X46477674Y-54506958D01*
X46425278Y-54538553D01*
X46364317Y-54533317D01*
X46349335Y-54525412D01*
X46297554Y-54492134D01*
X46262772Y-54469781D01*
X46142616Y-54434500D01*
X46142615Y-54434500D01*
X46017385Y-54434500D01*
X46017383Y-54434500D01*
X45897225Y-54469782D01*
X45791875Y-54537486D01*
X45791875Y-54537487D01*
X45709868Y-54632128D01*
X45709867Y-54632129D01*
X45709867Y-54632130D01*
X45708638Y-54634822D01*
X45657843Y-54746046D01*
X45657842Y-54746048D01*
X45640022Y-54869997D01*
X45640022Y-54870002D01*
X37783361Y-54870002D01*
X37828624Y-54840913D01*
X37910633Y-54746270D01*
X37962656Y-54632356D01*
X37962657Y-54632351D01*
X37980478Y-54508402D01*
X37980478Y-54508397D01*
X37962657Y-54384448D01*
X37962656Y-54384446D01*
X37962656Y-54384444D01*
X37910633Y-54270530D01*
X37828624Y-54175887D01*
X37828624Y-54175886D01*
X37723274Y-54108182D01*
X37603116Y-54072900D01*
X37603115Y-54072900D01*
X37477885Y-54072900D01*
X37477883Y-54072900D01*
X37357725Y-54108182D01*
X37252375Y-54175886D01*
X37252375Y-54175887D01*
X37170368Y-54270528D01*
X37118343Y-54384446D01*
X37118342Y-54384448D01*
X37100522Y-54508397D01*
X37100522Y-54508402D01*
X36700500Y-54508402D01*
X36700500Y-53900002D01*
X39310022Y-53900002D01*
X39327842Y-54023951D01*
X39327843Y-54023953D01*
X39327843Y-54023954D01*
X39327844Y-54023956D01*
X39379867Y-54137870D01*
X39404786Y-54166628D01*
X39461875Y-54232512D01*
X39461875Y-54232513D01*
X39567225Y-54300217D01*
X39567227Y-54300218D01*
X39687385Y-54335500D01*
X39687386Y-54335500D01*
X39812614Y-54335500D01*
X39812615Y-54335500D01*
X39932773Y-54300218D01*
X40038124Y-54232513D01*
X40120133Y-54137870D01*
X40172156Y-54023956D01*
X40178115Y-53982512D01*
X40189978Y-53900002D01*
X40189978Y-53899997D01*
X40172157Y-53776048D01*
X40172156Y-53776046D01*
X40172156Y-53776044D01*
X40120133Y-53662130D01*
X40109624Y-53650002D01*
X57460022Y-53650002D01*
X57477842Y-53773951D01*
X57477843Y-53773953D01*
X57477843Y-53773954D01*
X57477844Y-53773956D01*
X57529867Y-53887870D01*
X57540566Y-53900217D01*
X57611875Y-53982512D01*
X57611875Y-53982513D01*
X57717225Y-54050217D01*
X57717227Y-54050218D01*
X57837385Y-54085500D01*
X57837386Y-54085500D01*
X57962614Y-54085500D01*
X57962615Y-54085500D01*
X58082773Y-54050218D01*
X58188124Y-53982513D01*
X58270133Y-53887870D01*
X58322156Y-53773956D01*
X58327344Y-53737871D01*
X58339978Y-53650002D01*
X58339978Y-53649997D01*
X58322157Y-53526048D01*
X58322156Y-53526046D01*
X58322156Y-53526044D01*
X58310263Y-53500002D01*
X59260022Y-53500002D01*
X59277842Y-53623951D01*
X59277843Y-53623953D01*
X59277843Y-53623954D01*
X59277844Y-53623956D01*
X59329867Y-53737870D01*
X59329868Y-53737871D01*
X59411875Y-53832512D01*
X59411875Y-53832513D01*
X59517225Y-53900217D01*
X59517227Y-53900218D01*
X59637385Y-53935500D01*
X59637386Y-53935500D01*
X59762614Y-53935500D01*
X59762615Y-53935500D01*
X59882773Y-53900218D01*
X59988124Y-53832513D01*
X60070133Y-53737870D01*
X60122156Y-53623956D01*
X60136233Y-53526046D01*
X60139978Y-53500002D01*
X60139978Y-53499997D01*
X60122157Y-53376048D01*
X60122156Y-53376046D01*
X60122156Y-53376044D01*
X60070133Y-53262130D01*
X59988124Y-53167487D01*
X59988124Y-53167486D01*
X59882774Y-53099782D01*
X59762616Y-53064500D01*
X59762615Y-53064500D01*
X59637385Y-53064500D01*
X59637383Y-53064500D01*
X59517225Y-53099782D01*
X59411875Y-53167486D01*
X59411875Y-53167487D01*
X59329868Y-53262128D01*
X59277843Y-53376046D01*
X59277842Y-53376048D01*
X59260022Y-53499997D01*
X59260022Y-53500002D01*
X58310263Y-53500002D01*
X58270133Y-53412130D01*
X58188124Y-53317487D01*
X58188124Y-53317486D01*
X58082774Y-53249782D01*
X57962616Y-53214500D01*
X57962615Y-53214500D01*
X57837385Y-53214500D01*
X57837383Y-53214500D01*
X57717225Y-53249782D01*
X57611875Y-53317486D01*
X57611875Y-53317487D01*
X57529868Y-53412128D01*
X57477843Y-53526046D01*
X57477842Y-53526048D01*
X57460022Y-53649997D01*
X57460022Y-53650002D01*
X40109624Y-53650002D01*
X40038124Y-53567487D01*
X40038124Y-53567486D01*
X39932774Y-53499782D01*
X39812616Y-53464500D01*
X39812615Y-53464500D01*
X39687385Y-53464500D01*
X39687383Y-53464500D01*
X39567225Y-53499782D01*
X39461875Y-53567486D01*
X39461875Y-53567487D01*
X39379868Y-53662128D01*
X39327843Y-53776046D01*
X39327842Y-53776048D01*
X39310022Y-53899997D01*
X39310022Y-53900002D01*
X36700500Y-53900002D01*
X36700500Y-53040502D01*
X41186522Y-53040502D01*
X41204342Y-53164451D01*
X41204343Y-53164453D01*
X41204343Y-53164454D01*
X41204344Y-53164456D01*
X41256367Y-53278370D01*
X41256368Y-53278371D01*
X41338375Y-53373012D01*
X41338375Y-53373013D01*
X41399243Y-53412130D01*
X41443727Y-53440718D01*
X41563885Y-53476000D01*
X41563886Y-53476000D01*
X41689114Y-53476000D01*
X41689115Y-53476000D01*
X41809273Y-53440718D01*
X41914624Y-53373013D01*
X41996633Y-53278370D01*
X42048656Y-53164456D01*
X42050703Y-53150218D01*
X42066478Y-53040502D01*
X42066478Y-53040497D01*
X42048657Y-52916548D01*
X42048656Y-52916546D01*
X42048656Y-52916544D01*
X41996633Y-52802630D01*
X41914624Y-52707987D01*
X41914624Y-52707986D01*
X41809274Y-52640282D01*
X41689116Y-52605000D01*
X41689115Y-52605000D01*
X41563885Y-52605000D01*
X41563883Y-52605000D01*
X41443725Y-52640282D01*
X41338375Y-52707986D01*
X41338375Y-52707987D01*
X41256368Y-52802628D01*
X41256367Y-52802629D01*
X41256367Y-52802630D01*
X41256019Y-52803392D01*
X41204343Y-52916546D01*
X41204342Y-52916548D01*
X41186522Y-53040497D01*
X41186522Y-53040502D01*
X36700500Y-53040502D01*
X36700500Y-52292589D01*
X39255613Y-52292589D01*
X39273433Y-52416538D01*
X39273434Y-52416540D01*
X39273434Y-52416541D01*
X39273435Y-52416543D01*
X39325458Y-52530457D01*
X39331882Y-52537871D01*
X39407466Y-52625099D01*
X39407466Y-52625100D01*
X39512040Y-52692305D01*
X39512818Y-52692805D01*
X39632976Y-52728087D01*
X39632977Y-52728087D01*
X39758205Y-52728087D01*
X39758206Y-52728087D01*
X39878364Y-52692805D01*
X39983715Y-52625100D01*
X40065724Y-52530457D01*
X40092932Y-52470881D01*
X43968203Y-52470881D01*
X43986023Y-52594830D01*
X43986024Y-52594832D01*
X43986024Y-52594833D01*
X43986025Y-52594835D01*
X44038048Y-52708749D01*
X44038049Y-52708750D01*
X44120056Y-52803391D01*
X44120056Y-52803392D01*
X44225406Y-52871096D01*
X44225408Y-52871097D01*
X44345566Y-52906379D01*
X44345567Y-52906379D01*
X44470795Y-52906379D01*
X44470796Y-52906379D01*
X44590954Y-52871097D01*
X44696305Y-52803392D01*
X44776575Y-52710755D01*
X44828967Y-52679162D01*
X44889928Y-52684397D01*
X44904909Y-52692302D01*
X44917227Y-52700218D01*
X45037385Y-52735500D01*
X45037386Y-52735500D01*
X45162614Y-52735500D01*
X45162615Y-52735500D01*
X45282773Y-52700218D01*
X45388124Y-52632513D01*
X45470133Y-52537870D01*
X45522156Y-52423956D01*
X45523086Y-52417487D01*
X45539978Y-52300002D01*
X45539978Y-52299997D01*
X45522157Y-52176048D01*
X45522156Y-52176046D01*
X45522156Y-52176044D01*
X45470133Y-52062130D01*
X45388124Y-51967487D01*
X45388124Y-51967486D01*
X45282774Y-51899782D01*
X45162616Y-51864500D01*
X45162615Y-51864500D01*
X45037385Y-51864500D01*
X45037383Y-51864500D01*
X44917225Y-51899782D01*
X44811875Y-51967486D01*
X44811875Y-51967487D01*
X44731608Y-52060120D01*
X44679212Y-52091716D01*
X44618251Y-52086480D01*
X44603266Y-52078573D01*
X44590958Y-52070663D01*
X44590955Y-52070662D01*
X44590954Y-52070661D01*
X44530874Y-52053019D01*
X44470797Y-52035379D01*
X44470796Y-52035379D01*
X44345566Y-52035379D01*
X44345564Y-52035379D01*
X44225406Y-52070661D01*
X44120056Y-52138365D01*
X44120056Y-52138366D01*
X44038049Y-52233007D01*
X43986024Y-52346925D01*
X43986023Y-52346927D01*
X43968203Y-52470876D01*
X43968203Y-52470881D01*
X40092932Y-52470881D01*
X40117747Y-52416543D01*
X40123870Y-52373956D01*
X40135569Y-52292589D01*
X40135569Y-52292584D01*
X40117748Y-52168635D01*
X40117747Y-52168633D01*
X40117747Y-52168631D01*
X40065724Y-52054717D01*
X39983715Y-51960074D01*
X39983715Y-51960073D01*
X39878365Y-51892369D01*
X39758207Y-51857087D01*
X39758206Y-51857087D01*
X39632976Y-51857087D01*
X39632974Y-51857087D01*
X39512816Y-51892369D01*
X39407466Y-51960073D01*
X39407466Y-51960074D01*
X39325459Y-52054715D01*
X39325458Y-52054716D01*
X39325458Y-52054717D01*
X39322073Y-52062130D01*
X39273434Y-52168633D01*
X39273433Y-52168635D01*
X39255613Y-52292584D01*
X39255613Y-52292589D01*
X36700500Y-52292589D01*
X36700500Y-51923930D01*
X36719407Y-51865739D01*
X36768907Y-51829775D01*
X36830093Y-51829775D01*
X36879593Y-51865739D01*
X36889551Y-51882799D01*
X36891867Y-51887870D01*
X36891868Y-51887872D01*
X36973875Y-51982512D01*
X36973875Y-51982513D01*
X37079225Y-52050217D01*
X37079227Y-52050218D01*
X37199385Y-52085500D01*
X37199386Y-52085500D01*
X37324614Y-52085500D01*
X37324615Y-52085500D01*
X37444773Y-52050218D01*
X37550124Y-51982513D01*
X37632133Y-51887870D01*
X37684156Y-51773956D01*
X37690076Y-51732781D01*
X37701978Y-51650002D01*
X37701978Y-51649997D01*
X37684157Y-51526048D01*
X37684156Y-51526046D01*
X37684156Y-51526044D01*
X37632133Y-51412130D01*
X37550124Y-51317487D01*
X37550124Y-51317486D01*
X37444774Y-51249782D01*
X37324616Y-51214500D01*
X37324615Y-51214500D01*
X37199385Y-51214500D01*
X37199383Y-51214500D01*
X37079225Y-51249782D01*
X36973875Y-51317486D01*
X36973875Y-51317487D01*
X36891866Y-51412129D01*
X36891866Y-51412130D01*
X36889552Y-51417198D01*
X36848179Y-51462274D01*
X36788212Y-51474423D01*
X36732557Y-51449005D01*
X36702471Y-51395727D01*
X36700500Y-51376069D01*
X36700500Y-49150002D01*
X39560022Y-49150002D01*
X39577842Y-49273951D01*
X39577843Y-49273953D01*
X39577843Y-49273954D01*
X39577844Y-49273956D01*
X39629867Y-49387870D01*
X39629868Y-49387871D01*
X39711875Y-49482512D01*
X39711875Y-49482513D01*
X39817225Y-49550217D01*
X39817227Y-49550218D01*
X39855662Y-49561503D01*
X39875943Y-49567459D01*
X39926450Y-49601995D01*
X39947011Y-49659623D01*
X39938105Y-49703573D01*
X39927845Y-49726040D01*
X39927842Y-49726048D01*
X39910022Y-49849997D01*
X39910022Y-49850002D01*
X39927842Y-49973951D01*
X39927843Y-49973953D01*
X39927843Y-49973954D01*
X39927844Y-49973956D01*
X39979867Y-50087870D01*
X39979868Y-50087871D01*
X40061875Y-50182512D01*
X40061875Y-50182513D01*
X40167225Y-50250217D01*
X40167227Y-50250218D01*
X40261469Y-50277890D01*
X40311975Y-50312426D01*
X40332537Y-50370053D01*
X40315299Y-50428760D01*
X40308397Y-50437710D01*
X40289232Y-50459827D01*
X40237207Y-50573746D01*
X40237206Y-50573748D01*
X40219386Y-50697697D01*
X40219386Y-50697702D01*
X40237206Y-50821651D01*
X40237207Y-50821653D01*
X40237207Y-50821654D01*
X40237208Y-50821656D01*
X40289231Y-50935570D01*
X40289232Y-50935571D01*
X40371239Y-51030212D01*
X40371239Y-51030213D01*
X40465093Y-51090529D01*
X40476591Y-51097918D01*
X40596749Y-51133200D01*
X40596750Y-51133200D01*
X40721978Y-51133200D01*
X40721979Y-51133200D01*
X40842137Y-51097918D01*
X40947488Y-51030213D01*
X41029497Y-50935570D01*
X41081520Y-50821656D01*
X41082890Y-50812130D01*
X41099342Y-50697702D01*
X41099342Y-50697697D01*
X41085296Y-50600002D01*
X46910022Y-50600002D01*
X46927842Y-50723951D01*
X46927843Y-50723953D01*
X46927843Y-50723954D01*
X46927844Y-50723956D01*
X46979867Y-50837870D01*
X46979868Y-50837871D01*
X47061875Y-50932512D01*
X47061875Y-50932513D01*
X47077285Y-50942416D01*
X47116016Y-50989782D01*
X47119510Y-51050867D01*
X47098583Y-51090529D01*
X47079868Y-51112128D01*
X47027843Y-51226046D01*
X47027842Y-51226048D01*
X47010022Y-51349997D01*
X47010022Y-51350002D01*
X47027842Y-51473951D01*
X47027843Y-51473953D01*
X47027843Y-51473954D01*
X47027844Y-51473956D01*
X47079867Y-51587870D01*
X47079868Y-51587871D01*
X47161875Y-51682512D01*
X47161875Y-51682513D01*
X47190096Y-51700649D01*
X47228827Y-51748015D01*
X47232321Y-51809100D01*
X47199242Y-51860573D01*
X47190097Y-51867217D01*
X47111874Y-51917488D01*
X47029868Y-52012128D01*
X47029867Y-52012129D01*
X47029867Y-52012130D01*
X47014628Y-52045499D01*
X46977843Y-52126046D01*
X46977842Y-52126048D01*
X46960022Y-52249997D01*
X46960022Y-52250002D01*
X46977842Y-52373951D01*
X46977843Y-52373953D01*
X46977843Y-52373954D01*
X46977844Y-52373956D01*
X47029867Y-52487870D01*
X47029868Y-52487871D01*
X47111875Y-52582512D01*
X47111875Y-52582513D01*
X47201766Y-52640282D01*
X47217227Y-52650218D01*
X47337385Y-52685500D01*
X47337386Y-52685500D01*
X47462614Y-52685500D01*
X47462615Y-52685500D01*
X47582773Y-52650218D01*
X47660911Y-52600002D01*
X49610022Y-52600002D01*
X49627842Y-52723951D01*
X49627843Y-52723953D01*
X49627843Y-52723954D01*
X49627844Y-52723956D01*
X49679867Y-52837870D01*
X49711132Y-52873951D01*
X49761875Y-52932512D01*
X49761875Y-52932513D01*
X49867225Y-53000217D01*
X49867227Y-53000218D01*
X49987385Y-53035500D01*
X49987386Y-53035500D01*
X50112614Y-53035500D01*
X50112615Y-53035500D01*
X50232773Y-53000218D01*
X50338124Y-52932513D01*
X50420133Y-52837870D01*
X50460261Y-52750002D01*
X52260022Y-52750002D01*
X52277842Y-52873951D01*
X52277843Y-52873953D01*
X52277843Y-52873954D01*
X52277844Y-52873956D01*
X52329867Y-52987870D01*
X52329868Y-52987871D01*
X52411875Y-53082512D01*
X52411875Y-53082513D01*
X52517225Y-53150217D01*
X52517227Y-53150218D01*
X52637385Y-53185500D01*
X52637386Y-53185500D01*
X52762614Y-53185500D01*
X52762615Y-53185500D01*
X52882773Y-53150218D01*
X52988124Y-53082513D01*
X53070133Y-52987870D01*
X53122156Y-52873956D01*
X53127344Y-52837871D01*
X53139978Y-52750002D01*
X53139978Y-52749997D01*
X53122157Y-52626048D01*
X53122156Y-52626046D01*
X53122156Y-52626044D01*
X53070133Y-52512130D01*
X53016299Y-52450002D01*
X56010022Y-52450002D01*
X56027842Y-52573951D01*
X56027843Y-52573953D01*
X56027843Y-52573954D01*
X56027844Y-52573956D01*
X56079867Y-52687870D01*
X56079868Y-52687871D01*
X56161875Y-52782512D01*
X56161875Y-52782513D01*
X56267225Y-52850217D01*
X56267227Y-52850218D01*
X56387385Y-52885500D01*
X56387386Y-52885500D01*
X56512614Y-52885500D01*
X56512615Y-52885500D01*
X56632773Y-52850218D01*
X56738124Y-52782513D01*
X56820133Y-52687870D01*
X56872156Y-52573956D01*
X56877344Y-52537871D01*
X56889978Y-52450002D01*
X56889978Y-52449997D01*
X56872157Y-52326048D01*
X56872156Y-52326046D01*
X56872156Y-52326044D01*
X56820133Y-52212130D01*
X56738124Y-52117487D01*
X56738124Y-52117486D01*
X56632774Y-52049782D01*
X56512616Y-52014500D01*
X56512615Y-52014500D01*
X56387385Y-52014500D01*
X56387383Y-52014500D01*
X56267225Y-52049782D01*
X56161875Y-52117486D01*
X56161875Y-52117487D01*
X56079868Y-52212128D01*
X56027843Y-52326046D01*
X56027842Y-52326048D01*
X56010022Y-52449997D01*
X56010022Y-52450002D01*
X53016299Y-52450002D01*
X52988124Y-52417487D01*
X52988124Y-52417486D01*
X52882774Y-52349782D01*
X52762616Y-52314500D01*
X52762615Y-52314500D01*
X52637385Y-52314500D01*
X52637383Y-52314500D01*
X52517225Y-52349782D01*
X52411875Y-52417486D01*
X52411875Y-52417487D01*
X52329868Y-52512128D01*
X52277843Y-52626046D01*
X52277842Y-52626048D01*
X52260022Y-52749997D01*
X52260022Y-52750002D01*
X50460261Y-52750002D01*
X50472156Y-52723956D01*
X50474054Y-52710758D01*
X50489978Y-52600002D01*
X50489978Y-52599997D01*
X50472157Y-52476048D01*
X50472156Y-52476046D01*
X50472156Y-52476044D01*
X50420133Y-52362130D01*
X50338124Y-52267487D01*
X50338124Y-52267486D01*
X50232774Y-52199782D01*
X50112616Y-52164500D01*
X50112615Y-52164500D01*
X49987385Y-52164500D01*
X49987383Y-52164500D01*
X49867225Y-52199782D01*
X49761875Y-52267486D01*
X49761875Y-52267487D01*
X49679868Y-52362128D01*
X49627843Y-52476046D01*
X49627842Y-52476048D01*
X49610022Y-52599997D01*
X49610022Y-52600002D01*
X47660911Y-52600002D01*
X47688124Y-52582513D01*
X47770133Y-52487870D01*
X47822156Y-52373956D01*
X47822157Y-52373951D01*
X47839978Y-52250002D01*
X47839978Y-52249997D01*
X47822157Y-52126048D01*
X47822156Y-52126046D01*
X47822156Y-52126044D01*
X47787429Y-52050002D01*
X50910022Y-52050002D01*
X50927842Y-52173951D01*
X50927843Y-52173953D01*
X50927843Y-52173954D01*
X50927844Y-52173956D01*
X50979867Y-52287870D01*
X51002942Y-52314500D01*
X51061875Y-52382512D01*
X51061875Y-52382513D01*
X51167225Y-52450217D01*
X51167227Y-52450218D01*
X51287385Y-52485500D01*
X51287386Y-52485500D01*
X51412614Y-52485500D01*
X51412615Y-52485500D01*
X51532773Y-52450218D01*
X51638124Y-52382513D01*
X51720133Y-52287870D01*
X51772156Y-52173956D01*
X51772921Y-52168635D01*
X51789978Y-52050002D01*
X51789978Y-52049997D01*
X51772157Y-51926048D01*
X51772156Y-51926046D01*
X51772156Y-51926044D01*
X51720133Y-51812130D01*
X51638124Y-51717487D01*
X51638124Y-51717486D01*
X51532774Y-51649782D01*
X51412616Y-51614500D01*
X51412615Y-51614500D01*
X51287385Y-51614500D01*
X51287383Y-51614500D01*
X51167225Y-51649782D01*
X51061875Y-51717486D01*
X51061875Y-51717487D01*
X50979868Y-51812128D01*
X50927843Y-51926046D01*
X50927842Y-51926048D01*
X50910022Y-52049997D01*
X50910022Y-52050002D01*
X47787429Y-52050002D01*
X47770133Y-52012130D01*
X47695542Y-51926048D01*
X47688125Y-51917488D01*
X47688124Y-51917487D01*
X47659901Y-51899349D01*
X47621171Y-51851984D01*
X47617679Y-51790898D01*
X47650758Y-51739426D01*
X47659883Y-51732794D01*
X47738124Y-51682513D01*
X47820133Y-51587870D01*
X47872156Y-51473956D01*
X47875569Y-51450217D01*
X47889978Y-51350002D01*
X47889978Y-51349997D01*
X47872157Y-51226048D01*
X47872156Y-51226046D01*
X47872156Y-51226044D01*
X47820133Y-51112130D01*
X47738124Y-51017487D01*
X47722712Y-51007582D01*
X47683982Y-50960216D01*
X47680490Y-50899131D01*
X47701419Y-50859467D01*
X47720131Y-50837872D01*
X47720130Y-50837872D01*
X47720133Y-50837870D01*
X47772156Y-50723956D01*
X47775931Y-50697700D01*
X47789978Y-50600002D01*
X47789978Y-50599997D01*
X47772157Y-50476048D01*
X47772156Y-50476046D01*
X47772156Y-50476044D01*
X47720133Y-50362130D01*
X47638124Y-50267487D01*
X47638124Y-50267486D01*
X47532774Y-50199782D01*
X47412616Y-50164500D01*
X47412615Y-50164500D01*
X47287385Y-50164500D01*
X47287383Y-50164500D01*
X47167225Y-50199782D01*
X47061875Y-50267486D01*
X47061875Y-50267487D01*
X46979868Y-50362128D01*
X46927843Y-50476046D01*
X46927842Y-50476048D01*
X46910022Y-50599997D01*
X46910022Y-50600002D01*
X41085296Y-50600002D01*
X41081521Y-50573748D01*
X41081520Y-50573746D01*
X41081520Y-50573744D01*
X41029497Y-50459830D01*
X40947488Y-50365187D01*
X40947488Y-50365186D01*
X40842138Y-50297482D01*
X40747894Y-50269809D01*
X40697387Y-50235273D01*
X40676826Y-50177645D01*
X40694065Y-50118938D01*
X40700957Y-50109999D01*
X40720133Y-50087870D01*
X40772156Y-49973956D01*
X40786233Y-49876046D01*
X40789978Y-49850002D01*
X40789978Y-49849997D01*
X40772157Y-49726048D01*
X40772156Y-49726046D01*
X40772156Y-49726044D01*
X40720133Y-49612130D01*
X40638124Y-49517487D01*
X40638124Y-49517486D01*
X40532772Y-49449781D01*
X40532770Y-49449780D01*
X40474055Y-49432539D01*
X40423549Y-49398003D01*
X40402988Y-49340375D01*
X40411894Y-49296426D01*
X40422156Y-49273956D01*
X40431045Y-49212130D01*
X40439978Y-49150002D01*
X40439978Y-49149997D01*
X40422157Y-49026048D01*
X40422156Y-49026046D01*
X40422156Y-49026044D01*
X40370133Y-48912130D01*
X40288124Y-48817487D01*
X40288124Y-48817486D01*
X40182774Y-48749782D01*
X40062616Y-48714500D01*
X40062615Y-48714500D01*
X39937385Y-48714500D01*
X39937383Y-48714500D01*
X39817225Y-48749782D01*
X39711875Y-48817486D01*
X39711875Y-48817487D01*
X39629868Y-48912128D01*
X39577843Y-49026046D01*
X39577842Y-49026048D01*
X39560022Y-49149997D01*
X39560022Y-49150002D01*
X36700500Y-49150002D01*
X36700500Y-48650002D01*
X51320022Y-48650002D01*
X51337842Y-48773951D01*
X51337843Y-48773953D01*
X51337843Y-48773954D01*
X51337844Y-48773956D01*
X51389867Y-48887870D01*
X51410887Y-48912128D01*
X51471875Y-48982512D01*
X51471875Y-48982513D01*
X51549677Y-49032513D01*
X51577227Y-49050218D01*
X51697385Y-49085500D01*
X51697386Y-49085500D01*
X51763193Y-49085500D01*
X51821384Y-49104407D01*
X51853247Y-49143375D01*
X51858475Y-49154823D01*
X51865449Y-49215609D01*
X51858475Y-49237074D01*
X51817843Y-49326046D01*
X51817842Y-49326048D01*
X51800022Y-49449997D01*
X51800022Y-49450002D01*
X51817842Y-49573951D01*
X51817843Y-49573953D01*
X51817843Y-49573954D01*
X51817844Y-49573956D01*
X51830649Y-49601995D01*
X51858475Y-49662925D01*
X51865449Y-49723712D01*
X51858475Y-49745177D01*
X51807843Y-49856046D01*
X51807842Y-49856048D01*
X51790022Y-49979997D01*
X51790022Y-49980002D01*
X51807842Y-50103951D01*
X51807843Y-50103953D01*
X51807843Y-50103954D01*
X51807844Y-50103956D01*
X51843720Y-50182513D01*
X51858475Y-50214822D01*
X51865449Y-50275609D01*
X51858475Y-50297074D01*
X51817843Y-50386046D01*
X51817842Y-50386048D01*
X51800022Y-50509997D01*
X51800022Y-50510002D01*
X51817842Y-50633951D01*
X51817843Y-50633953D01*
X51817843Y-50633954D01*
X51817844Y-50633956D01*
X51858946Y-50723956D01*
X51860759Y-50727926D01*
X51867733Y-50788713D01*
X51860758Y-50810178D01*
X51807844Y-50926040D01*
X51807842Y-50926048D01*
X51790022Y-51049997D01*
X51790022Y-51050002D01*
X51807842Y-51173951D01*
X51807843Y-51173953D01*
X51807843Y-51173954D01*
X51807844Y-51173956D01*
X51859867Y-51287870D01*
X51859868Y-51287871D01*
X51941875Y-51382512D01*
X51941875Y-51382513D01*
X52047225Y-51450217D01*
X52047227Y-51450218D01*
X52167385Y-51485500D01*
X52167386Y-51485500D01*
X52233193Y-51485500D01*
X52291384Y-51504407D01*
X52323247Y-51543374D01*
X52329867Y-51557870D01*
X52329867Y-51557871D01*
X52411875Y-51652512D01*
X52411875Y-51652513D01*
X52512977Y-51717487D01*
X52517227Y-51720218D01*
X52637385Y-51755500D01*
X52684059Y-51755500D01*
X52742250Y-51774407D01*
X52774112Y-51813373D01*
X52789867Y-51847870D01*
X52789866Y-51847870D01*
X52871875Y-51942512D01*
X52871875Y-51942513D01*
X52934117Y-51982513D01*
X52977227Y-52010218D01*
X53097385Y-52045500D01*
X53097386Y-52045500D01*
X53222614Y-52045500D01*
X53222615Y-52045500D01*
X53342773Y-52010218D01*
X53448124Y-51942513D01*
X53530133Y-51847870D01*
X53532186Y-51843373D01*
X53573555Y-51798297D01*
X53622239Y-51785500D01*
X53692614Y-51785500D01*
X53692615Y-51785500D01*
X53812773Y-51750218D01*
X53918124Y-51682513D01*
X54000133Y-51587870D01*
X54052156Y-51473956D01*
X54055569Y-51450217D01*
X54069978Y-51350002D01*
X54610022Y-51350002D01*
X54627842Y-51473951D01*
X54627843Y-51473953D01*
X54627843Y-51473954D01*
X54627844Y-51473956D01*
X54679867Y-51587870D01*
X54679868Y-51587871D01*
X54761875Y-51682512D01*
X54761875Y-51682513D01*
X54850434Y-51739426D01*
X54867227Y-51750218D01*
X54987385Y-51785500D01*
X54987386Y-51785500D01*
X55112614Y-51785500D01*
X55112615Y-51785500D01*
X55232773Y-51750218D01*
X55338124Y-51682513D01*
X55420133Y-51587870D01*
X55472156Y-51473956D01*
X55475569Y-51450217D01*
X55489978Y-51350002D01*
X56010022Y-51350002D01*
X56027842Y-51473951D01*
X56027843Y-51473953D01*
X56027843Y-51473954D01*
X56027844Y-51473956D01*
X56079867Y-51587870D01*
X56079868Y-51587871D01*
X56161875Y-51682512D01*
X56161875Y-51682513D01*
X56250434Y-51739426D01*
X56267227Y-51750218D01*
X56387385Y-51785500D01*
X56387386Y-51785500D01*
X56512614Y-51785500D01*
X56512615Y-51785500D01*
X56632773Y-51750218D01*
X56738124Y-51682513D01*
X56820133Y-51587870D01*
X56872156Y-51473956D01*
X56875569Y-51450217D01*
X56889978Y-51350002D01*
X56889978Y-51349997D01*
X56872157Y-51226048D01*
X56872156Y-51226046D01*
X56872156Y-51226044D01*
X56820133Y-51112130D01*
X56738124Y-51017487D01*
X56738124Y-51017486D01*
X56632774Y-50949782D01*
X56512616Y-50914500D01*
X56512615Y-50914500D01*
X56387385Y-50914500D01*
X56387383Y-50914500D01*
X56267225Y-50949782D01*
X56161875Y-51017486D01*
X56161875Y-51017487D01*
X56079868Y-51112128D01*
X56027843Y-51226046D01*
X56027842Y-51226048D01*
X56010022Y-51349997D01*
X56010022Y-51350002D01*
X55489978Y-51350002D01*
X55489978Y-51349997D01*
X55472157Y-51226048D01*
X55472156Y-51226046D01*
X55472156Y-51226044D01*
X55420133Y-51112130D01*
X55338124Y-51017487D01*
X55338124Y-51017486D01*
X55232774Y-50949782D01*
X55112616Y-50914500D01*
X55112615Y-50914500D01*
X54987385Y-50914500D01*
X54987383Y-50914500D01*
X54867225Y-50949782D01*
X54761875Y-51017486D01*
X54761875Y-51017487D01*
X54679868Y-51112128D01*
X54627843Y-51226046D01*
X54627842Y-51226048D01*
X54610022Y-51349997D01*
X54610022Y-51350002D01*
X54069978Y-51350002D01*
X54069978Y-51349997D01*
X54052157Y-51226048D01*
X54052156Y-51226046D01*
X54052156Y-51226044D01*
X54000133Y-51112130D01*
X53918124Y-51017487D01*
X53918124Y-51017486D01*
X53812774Y-50949782D01*
X53692616Y-50914500D01*
X53692615Y-50914500D01*
X53651374Y-50914500D01*
X53593183Y-50895593D01*
X53561322Y-50856631D01*
X53554241Y-50841126D01*
X53547265Y-50780343D01*
X53554237Y-50758881D01*
X53602156Y-50653956D01*
X53605032Y-50633953D01*
X53619978Y-50530002D01*
X53619978Y-50529997D01*
X53602157Y-50406048D01*
X53602156Y-50406046D01*
X53602156Y-50406044D01*
X53554240Y-50301124D01*
X53547266Y-50240340D01*
X53554239Y-50218879D01*
X53602156Y-50113956D01*
X53603594Y-50103953D01*
X53618540Y-50000002D01*
X54610022Y-50000002D01*
X54627842Y-50123951D01*
X54627843Y-50123953D01*
X54627843Y-50123954D01*
X54627844Y-50123956D01*
X54679867Y-50237870D01*
X54679868Y-50237871D01*
X54761875Y-50332512D01*
X54761875Y-50332513D01*
X54867225Y-50400217D01*
X54867227Y-50400218D01*
X54987385Y-50435500D01*
X54987386Y-50435500D01*
X55112614Y-50435500D01*
X55112615Y-50435500D01*
X55232773Y-50400218D01*
X55338124Y-50332513D01*
X55420133Y-50237870D01*
X55472156Y-50123956D01*
X55472157Y-50123951D01*
X55489978Y-50000002D01*
X56010022Y-50000002D01*
X56027842Y-50123951D01*
X56027843Y-50123953D01*
X56027843Y-50123954D01*
X56027844Y-50123956D01*
X56079867Y-50237870D01*
X56079868Y-50237871D01*
X56161875Y-50332512D01*
X56161875Y-50332513D01*
X56267225Y-50400217D01*
X56267227Y-50400218D01*
X56387385Y-50435500D01*
X56387386Y-50435500D01*
X56512614Y-50435500D01*
X56512615Y-50435500D01*
X56632773Y-50400218D01*
X56738124Y-50332513D01*
X56820133Y-50237870D01*
X56872156Y-50123956D01*
X56872157Y-50123951D01*
X56889978Y-50000002D01*
X56889978Y-49999997D01*
X56872157Y-49876048D01*
X56872156Y-49876046D01*
X56872156Y-49876044D01*
X56820133Y-49762130D01*
X56738124Y-49667487D01*
X56738124Y-49667486D01*
X56632774Y-49599782D01*
X56512616Y-49564500D01*
X56512615Y-49564500D01*
X56387385Y-49564500D01*
X56387383Y-49564500D01*
X56267225Y-49599782D01*
X56161875Y-49667486D01*
X56161875Y-49667487D01*
X56079868Y-49762128D01*
X56027843Y-49876046D01*
X56027842Y-49876048D01*
X56010022Y-49999997D01*
X56010022Y-50000002D01*
X55489978Y-50000002D01*
X55489978Y-49999997D01*
X55472157Y-49876048D01*
X55472156Y-49876046D01*
X55472156Y-49876044D01*
X55420133Y-49762130D01*
X55338124Y-49667487D01*
X55338124Y-49667486D01*
X55232774Y-49599782D01*
X55112616Y-49564500D01*
X55112615Y-49564500D01*
X54987385Y-49564500D01*
X54987383Y-49564500D01*
X54867225Y-49599782D01*
X54761875Y-49667486D01*
X54761875Y-49667487D01*
X54679868Y-49762128D01*
X54627843Y-49876046D01*
X54627842Y-49876048D01*
X54610022Y-49999997D01*
X54610022Y-50000002D01*
X53618540Y-50000002D01*
X53619978Y-49990002D01*
X53619978Y-49989997D01*
X53602157Y-49866048D01*
X53602156Y-49866046D01*
X53602156Y-49866044D01*
X53554240Y-49761124D01*
X53547266Y-49700340D01*
X53554239Y-49678879D01*
X53602156Y-49573956D01*
X53610275Y-49517486D01*
X53619978Y-49450002D01*
X53619978Y-49449997D01*
X53602157Y-49326048D01*
X53602155Y-49326041D01*
X53551958Y-49216126D01*
X53544983Y-49155340D01*
X53551958Y-49133874D01*
X53601201Y-49026048D01*
X53602156Y-49023956D01*
X53618234Y-48912130D01*
X53619978Y-48900002D01*
X53619978Y-48899997D01*
X53602157Y-48776048D01*
X53602156Y-48776047D01*
X53602156Y-48776044D01*
X53567428Y-48700002D01*
X54610022Y-48700002D01*
X54627842Y-48823951D01*
X54627843Y-48823953D01*
X54627843Y-48823954D01*
X54627844Y-48823956D01*
X54679867Y-48937870D01*
X54679868Y-48937871D01*
X54761875Y-49032512D01*
X54761875Y-49032513D01*
X54844325Y-49085500D01*
X54867227Y-49100218D01*
X54987385Y-49135500D01*
X54987386Y-49135500D01*
X55112614Y-49135500D01*
X55112615Y-49135500D01*
X55232773Y-49100218D01*
X55338124Y-49032513D01*
X55420133Y-48937870D01*
X55472156Y-48823956D01*
X55473086Y-48817487D01*
X55489978Y-48700002D01*
X56010022Y-48700002D01*
X56027842Y-48823951D01*
X56027843Y-48823953D01*
X56027843Y-48823954D01*
X56027844Y-48823956D01*
X56079867Y-48937870D01*
X56079868Y-48937871D01*
X56161875Y-49032512D01*
X56161875Y-49032513D01*
X56244325Y-49085500D01*
X56267227Y-49100218D01*
X56387385Y-49135500D01*
X56387386Y-49135500D01*
X56512614Y-49135500D01*
X56512615Y-49135500D01*
X56632773Y-49100218D01*
X56738124Y-49032513D01*
X56820133Y-48937870D01*
X56872156Y-48823956D01*
X56873086Y-48817487D01*
X56889978Y-48700002D01*
X56889978Y-48699997D01*
X56872157Y-48576048D01*
X56872156Y-48576046D01*
X56872156Y-48576044D01*
X56820133Y-48462130D01*
X56738124Y-48367487D01*
X56738124Y-48367486D01*
X56632774Y-48299782D01*
X56512616Y-48264500D01*
X56512615Y-48264500D01*
X56387385Y-48264500D01*
X56387383Y-48264500D01*
X56267225Y-48299782D01*
X56161875Y-48367486D01*
X56161875Y-48367487D01*
X56079868Y-48462128D01*
X56079867Y-48462129D01*
X56079867Y-48462130D01*
X56062473Y-48500217D01*
X56027843Y-48576046D01*
X56027842Y-48576048D01*
X56010022Y-48699997D01*
X56010022Y-48700002D01*
X55489978Y-48700002D01*
X55489978Y-48699997D01*
X55472157Y-48576048D01*
X55472156Y-48576046D01*
X55472156Y-48576044D01*
X55420133Y-48462130D01*
X55338124Y-48367487D01*
X55332774Y-48362851D01*
X55333688Y-48361795D01*
X55299854Y-48320415D01*
X55296363Y-48259330D01*
X55329444Y-48207858D01*
X55386461Y-48185661D01*
X55392110Y-48185500D01*
X55412614Y-48185500D01*
X55412615Y-48185500D01*
X55532773Y-48150218D01*
X55638124Y-48082513D01*
X55720133Y-47987870D01*
X55772156Y-47873956D01*
X55772157Y-47873951D01*
X55789978Y-47750002D01*
X55789978Y-47749997D01*
X55772157Y-47626048D01*
X55772156Y-47626046D01*
X55772156Y-47626044D01*
X55737429Y-47550002D01*
X56010022Y-47550002D01*
X56027842Y-47673951D01*
X56027843Y-47673953D01*
X56027843Y-47673954D01*
X56027844Y-47673956D01*
X56079867Y-47787870D01*
X56079868Y-47787871D01*
X56161875Y-47882512D01*
X56161875Y-47882513D01*
X56266447Y-47949717D01*
X56267227Y-47950218D01*
X56387385Y-47985500D01*
X56387386Y-47985500D01*
X56512614Y-47985500D01*
X56512615Y-47985500D01*
X56632773Y-47950218D01*
X56738124Y-47882513D01*
X56820133Y-47787870D01*
X56872156Y-47673956D01*
X56872228Y-47673456D01*
X56889978Y-47550002D01*
X56889978Y-47549997D01*
X56872157Y-47426048D01*
X56872156Y-47426046D01*
X56872156Y-47426044D01*
X56820133Y-47312130D01*
X56738124Y-47217487D01*
X56738124Y-47217486D01*
X56632774Y-47149782D01*
X56512616Y-47114500D01*
X56512615Y-47114500D01*
X56387385Y-47114500D01*
X56387383Y-47114500D01*
X56267225Y-47149782D01*
X56161875Y-47217486D01*
X56161875Y-47217487D01*
X56079868Y-47312128D01*
X56027843Y-47426046D01*
X56027842Y-47426048D01*
X56010022Y-47549997D01*
X56010022Y-47550002D01*
X55737429Y-47550002D01*
X55720133Y-47512130D01*
X55638124Y-47417487D01*
X55638124Y-47417486D01*
X55532774Y-47349782D01*
X55412616Y-47314500D01*
X55412615Y-47314500D01*
X55287385Y-47314500D01*
X55287383Y-47314500D01*
X55167225Y-47349782D01*
X55061875Y-47417486D01*
X55061875Y-47417487D01*
X54979868Y-47512128D01*
X54927843Y-47626046D01*
X54927842Y-47626048D01*
X54910022Y-47749997D01*
X54910022Y-47750002D01*
X54927842Y-47873951D01*
X54927843Y-47873953D01*
X54927843Y-47873954D01*
X54927844Y-47873956D01*
X54979867Y-47987870D01*
X54979868Y-47987871D01*
X55061875Y-48082512D01*
X55067226Y-48087149D01*
X55066311Y-48088204D01*
X55100146Y-48129585D01*
X55103637Y-48190670D01*
X55070556Y-48242142D01*
X55013539Y-48264339D01*
X55007890Y-48264500D01*
X54987383Y-48264500D01*
X54867225Y-48299782D01*
X54761875Y-48367486D01*
X54761875Y-48367487D01*
X54679868Y-48462128D01*
X54679867Y-48462129D01*
X54679867Y-48462130D01*
X54662473Y-48500217D01*
X54627843Y-48576046D01*
X54627842Y-48576048D01*
X54610022Y-48699997D01*
X54610022Y-48700002D01*
X53567428Y-48700002D01*
X53551523Y-48665175D01*
X53544550Y-48604391D01*
X53551523Y-48582927D01*
X53592156Y-48493956D01*
X53597396Y-48457512D01*
X53609978Y-48370002D01*
X53609978Y-48369997D01*
X53592157Y-48246048D01*
X53592156Y-48246046D01*
X53592156Y-48246044D01*
X53550862Y-48155625D01*
X53543889Y-48094840D01*
X53573976Y-48041563D01*
X53629632Y-48016145D01*
X53640917Y-48015500D01*
X53702614Y-48015500D01*
X53702615Y-48015500D01*
X53822773Y-47980218D01*
X53928124Y-47912513D01*
X54010133Y-47817870D01*
X54062156Y-47703956D01*
X54062756Y-47699782D01*
X54079978Y-47580002D01*
X54079978Y-47579997D01*
X54062157Y-47456048D01*
X54062156Y-47456046D01*
X54062156Y-47456044D01*
X54010133Y-47342130D01*
X53928124Y-47247487D01*
X53928124Y-47247486D01*
X53822774Y-47179782D01*
X53702616Y-47144500D01*
X53702615Y-47144500D01*
X53636807Y-47144500D01*
X53578616Y-47125593D01*
X53546754Y-47086627D01*
X53540133Y-47072131D01*
X53540133Y-47072130D01*
X53540132Y-47072129D01*
X53540133Y-47072129D01*
X53458124Y-46977487D01*
X53458124Y-46977486D01*
X53352774Y-46909782D01*
X53232616Y-46874500D01*
X53232615Y-46874500D01*
X53107385Y-46874500D01*
X53107383Y-46874500D01*
X52987225Y-46909782D01*
X52881875Y-46977486D01*
X52881875Y-46977487D01*
X52799867Y-47072128D01*
X52799866Y-47072131D01*
X52797814Y-47076625D01*
X52756443Y-47121703D01*
X52707760Y-47134500D01*
X52637383Y-47134500D01*
X52633063Y-47135121D01*
X52572775Y-47124685D01*
X52530134Y-47080806D01*
X52522233Y-47046828D01*
X52520986Y-47047008D01*
X52502157Y-46916048D01*
X52502156Y-46916046D01*
X52502156Y-46916044D01*
X52450133Y-46802130D01*
X52368124Y-46707487D01*
X52368124Y-46707486D01*
X52262774Y-46639782D01*
X52142616Y-46604500D01*
X52142615Y-46604500D01*
X52017385Y-46604500D01*
X52017383Y-46604500D01*
X51897225Y-46639782D01*
X51791875Y-46707486D01*
X51791875Y-46707487D01*
X51709868Y-46802128D01*
X51709867Y-46802129D01*
X51709867Y-46802130D01*
X51687906Y-46850217D01*
X51657843Y-46916046D01*
X51657842Y-46916048D01*
X51640022Y-47039997D01*
X51640022Y-47040002D01*
X51657842Y-47163951D01*
X51657843Y-47163953D01*
X51657843Y-47163954D01*
X51657844Y-47163956D01*
X51709867Y-47277870D01*
X51731093Y-47302366D01*
X51791875Y-47372512D01*
X51791875Y-47372513D01*
X51897225Y-47440217D01*
X51897227Y-47440218D01*
X52017385Y-47475500D01*
X52017386Y-47475500D01*
X52142610Y-47475500D01*
X52142615Y-47475500D01*
X52142619Y-47475498D01*
X52146928Y-47474879D01*
X52207218Y-47485310D01*
X52249862Y-47529186D01*
X52257766Y-47563171D01*
X52259014Y-47562992D01*
X52277842Y-47693951D01*
X52277843Y-47693953D01*
X52277843Y-47693954D01*
X52277844Y-47693956D01*
X52306754Y-47757260D01*
X52323475Y-47793874D01*
X52330449Y-47854661D01*
X52323478Y-47876118D01*
X52318684Y-47886618D01*
X52277317Y-47931699D01*
X52228627Y-47944500D01*
X52167383Y-47944500D01*
X52047225Y-47979782D01*
X51941875Y-48047486D01*
X51941875Y-48047487D01*
X51859867Y-48142128D01*
X51859867Y-48142129D01*
X51859867Y-48142130D01*
X51853704Y-48155626D01*
X51853247Y-48156626D01*
X51811875Y-48201704D01*
X51763193Y-48214500D01*
X51697383Y-48214500D01*
X51577225Y-48249782D01*
X51471875Y-48317486D01*
X51471875Y-48317487D01*
X51389868Y-48412128D01*
X51337843Y-48526046D01*
X51337842Y-48526048D01*
X51320022Y-48649997D01*
X51320022Y-48650002D01*
X36700500Y-48650002D01*
X36700500Y-48100002D01*
X45710022Y-48100002D01*
X45727842Y-48223951D01*
X45727843Y-48223953D01*
X45727843Y-48223954D01*
X45727844Y-48223956D01*
X45779867Y-48337870D01*
X45779868Y-48337871D01*
X45861875Y-48432512D01*
X45861875Y-48432513D01*
X45957475Y-48493951D01*
X45967227Y-48500218D01*
X46087385Y-48535500D01*
X46087386Y-48535500D01*
X46212614Y-48535500D01*
X46212615Y-48535500D01*
X46332773Y-48500218D01*
X46438124Y-48432513D01*
X46451848Y-48416674D01*
X46504242Y-48385077D01*
X46565203Y-48390312D01*
X46601486Y-48416671D01*
X46615212Y-48432512D01*
X46636877Y-48457514D01*
X46703326Y-48500218D01*
X46742227Y-48525218D01*
X46862385Y-48560500D01*
X46862386Y-48560500D01*
X46987614Y-48560500D01*
X46987615Y-48560500D01*
X47107773Y-48525218D01*
X47213124Y-48457513D01*
X47295133Y-48362870D01*
X47347156Y-48248956D01*
X47347574Y-48246048D01*
X47364978Y-48125002D01*
X47364978Y-48124997D01*
X47347157Y-48001048D01*
X47347156Y-48001046D01*
X47347156Y-48001044D01*
X47295133Y-47887130D01*
X47213124Y-47792487D01*
X47213124Y-47792486D01*
X47107774Y-47724782D01*
X47037079Y-47704024D01*
X46986572Y-47669488D01*
X46966011Y-47611860D01*
X46972211Y-47581347D01*
X46970162Y-47580746D01*
X46972157Y-47573951D01*
X46989978Y-47450002D01*
X46989978Y-47449997D01*
X46972157Y-47326048D01*
X46972156Y-47326046D01*
X46972156Y-47326044D01*
X46920133Y-47212130D01*
X46838124Y-47117487D01*
X46838124Y-47117486D01*
X46732774Y-47049782D01*
X46612616Y-47014500D01*
X46612615Y-47014500D01*
X46487385Y-47014500D01*
X46487383Y-47014500D01*
X46367225Y-47049782D01*
X46261875Y-47117486D01*
X46261875Y-47117487D01*
X46179868Y-47212128D01*
X46127843Y-47326046D01*
X46127842Y-47326048D01*
X46110022Y-47449997D01*
X46110022Y-47450002D01*
X46126487Y-47564522D01*
X46116054Y-47624811D01*
X46072176Y-47667454D01*
X46056388Y-47673600D01*
X45967229Y-47699780D01*
X45967227Y-47699781D01*
X45861875Y-47767486D01*
X45861875Y-47767487D01*
X45779868Y-47862128D01*
X45727843Y-47976046D01*
X45727842Y-47976048D01*
X45710022Y-48099997D01*
X45710022Y-48100002D01*
X36700500Y-48100002D01*
X36700500Y-47549502D01*
X42595583Y-47549502D01*
X42613403Y-47673451D01*
X42613404Y-47673453D01*
X42613404Y-47673454D01*
X42613405Y-47673456D01*
X42665428Y-47787370D01*
X42689488Y-47815137D01*
X42747436Y-47882012D01*
X42747436Y-47882013D01*
X42852786Y-47949717D01*
X42852788Y-47949718D01*
X42972946Y-47985000D01*
X42972947Y-47985000D01*
X43098175Y-47985000D01*
X43098176Y-47985000D01*
X43218334Y-47949718D01*
X43323685Y-47882013D01*
X43354255Y-47846733D01*
X43406650Y-47815137D01*
X43467611Y-47820372D01*
X43503893Y-47846733D01*
X43577875Y-47932112D01*
X43577875Y-47932113D01*
X43664637Y-47987871D01*
X43683227Y-47999818D01*
X43803385Y-48035100D01*
X43803386Y-48035100D01*
X43928614Y-48035100D01*
X43928615Y-48035100D01*
X44048773Y-47999818D01*
X44154124Y-47932113D01*
X44236133Y-47837470D01*
X44288156Y-47723556D01*
X44290313Y-47708555D01*
X44305978Y-47599602D01*
X44305978Y-47599597D01*
X44288157Y-47475648D01*
X44288156Y-47475646D01*
X44288156Y-47475644D01*
X44236133Y-47361730D01*
X44154124Y-47267087D01*
X44154124Y-47267086D01*
X44048774Y-47199382D01*
X43928616Y-47164100D01*
X43928615Y-47164100D01*
X43803385Y-47164100D01*
X43803383Y-47164100D01*
X43683225Y-47199382D01*
X43577875Y-47267086D01*
X43577874Y-47267088D01*
X43547304Y-47302367D01*
X43494908Y-47333963D01*
X43433947Y-47328726D01*
X43397667Y-47302366D01*
X43323685Y-47216987D01*
X43323685Y-47216986D01*
X43218335Y-47149282D01*
X43098177Y-47114000D01*
X43098176Y-47114000D01*
X42972946Y-47114000D01*
X42972944Y-47114000D01*
X42852786Y-47149282D01*
X42747436Y-47216986D01*
X42747436Y-47216987D01*
X42665429Y-47311628D01*
X42665428Y-47311629D01*
X42665428Y-47311630D01*
X42642549Y-47361728D01*
X42613404Y-47425546D01*
X42613403Y-47425548D01*
X42595583Y-47549497D01*
X42595583Y-47549502D01*
X36700500Y-47549502D01*
X36700500Y-46634402D01*
X40210022Y-46634402D01*
X40227842Y-46758351D01*
X40227843Y-46758353D01*
X40227843Y-46758354D01*
X40227844Y-46758356D01*
X40279867Y-46872270D01*
X40317798Y-46916044D01*
X40361875Y-46966912D01*
X40361875Y-46966913D01*
X40467225Y-47034617D01*
X40467227Y-47034618D01*
X40587385Y-47069900D01*
X40587386Y-47069900D01*
X40712614Y-47069900D01*
X40712615Y-47069900D01*
X40832773Y-47034618D01*
X40938124Y-46966913D01*
X41011032Y-46882772D01*
X41063429Y-46851176D01*
X41124390Y-46856412D01*
X41139375Y-46864319D01*
X41167225Y-46882217D01*
X41167227Y-46882218D01*
X41287385Y-46917500D01*
X41287386Y-46917500D01*
X41412614Y-46917500D01*
X41412615Y-46917500D01*
X41532773Y-46882218D01*
X41638124Y-46814513D01*
X41720133Y-46719870D01*
X41772156Y-46605956D01*
X41772157Y-46605951D01*
X41789978Y-46482002D01*
X41789978Y-46481997D01*
X41772157Y-46358048D01*
X41772156Y-46358046D01*
X41772156Y-46358044D01*
X41720133Y-46244130D01*
X41638124Y-46149487D01*
X41638124Y-46149486D01*
X41532774Y-46081782D01*
X41412616Y-46046500D01*
X41412615Y-46046500D01*
X41287385Y-46046500D01*
X41287383Y-46046500D01*
X41167225Y-46081782D01*
X41061875Y-46149486D01*
X41061874Y-46149488D01*
X40988965Y-46233628D01*
X40936569Y-46265223D01*
X40875608Y-46259987D01*
X40860624Y-46252081D01*
X40832771Y-46234181D01*
X40712616Y-46198900D01*
X40712615Y-46198900D01*
X40587385Y-46198900D01*
X40587383Y-46198900D01*
X40467225Y-46234182D01*
X40361875Y-46301886D01*
X40361875Y-46301887D01*
X40279868Y-46396528D01*
X40227843Y-46510446D01*
X40227842Y-46510448D01*
X40210022Y-46634397D01*
X40210022Y-46634402D01*
X36700500Y-46634402D01*
X36700500Y-44025247D01*
X38809137Y-44025247D01*
X38826957Y-44149196D01*
X38826958Y-44149198D01*
X38826958Y-44149199D01*
X38826959Y-44149201D01*
X38878982Y-44263115D01*
X38878983Y-44263116D01*
X38960990Y-44357757D01*
X38960990Y-44357758D01*
X39038968Y-44407871D01*
X39066342Y-44425463D01*
X39186500Y-44460745D01*
X39186501Y-44460745D01*
X39311729Y-44460745D01*
X39311730Y-44460745D01*
X39348317Y-44450002D01*
X40010022Y-44450002D01*
X40027842Y-44573951D01*
X40027843Y-44573953D01*
X40027843Y-44573954D01*
X40027844Y-44573956D01*
X40079867Y-44687870D01*
X40079868Y-44687871D01*
X40161875Y-44782512D01*
X40161875Y-44782513D01*
X40267226Y-44850218D01*
X40281854Y-44854513D01*
X40332361Y-44889049D01*
X40352923Y-44946676D01*
X40344017Y-44990627D01*
X40327845Y-45026040D01*
X40327842Y-45026048D01*
X40310022Y-45149997D01*
X40310022Y-45150002D01*
X40327842Y-45273951D01*
X40327843Y-45273953D01*
X40327843Y-45273954D01*
X40327844Y-45273956D01*
X40379867Y-45387870D01*
X40379868Y-45387871D01*
X40461875Y-45482512D01*
X40461875Y-45482513D01*
X40567225Y-45550217D01*
X40567227Y-45550218D01*
X40687385Y-45585500D01*
X40687386Y-45585500D01*
X40812614Y-45585500D01*
X40812615Y-45585500D01*
X40932773Y-45550218D01*
X40933109Y-45550002D01*
X45610022Y-45550002D01*
X45627842Y-45673951D01*
X45627843Y-45673953D01*
X45627843Y-45673954D01*
X45627844Y-45673956D01*
X45679867Y-45787870D01*
X45679868Y-45787871D01*
X45761875Y-45882512D01*
X45761875Y-45882513D01*
X45867225Y-45950217D01*
X45867227Y-45950218D01*
X45987385Y-45985500D01*
X45987386Y-45985500D01*
X46112614Y-45985500D01*
X46112615Y-45985500D01*
X46232773Y-45950218D01*
X46307993Y-45901876D01*
X46367164Y-45886323D01*
X46424180Y-45908521D01*
X46436332Y-45920331D01*
X46511875Y-46007512D01*
X46511875Y-46007513D01*
X46615263Y-46073956D01*
X46617227Y-46075218D01*
X46737385Y-46110500D01*
X46737386Y-46110500D01*
X46862614Y-46110500D01*
X46862615Y-46110500D01*
X46982773Y-46075218D01*
X47088124Y-46007513D01*
X47137958Y-45950002D01*
X51610022Y-45950002D01*
X51627842Y-46073951D01*
X51627843Y-46073953D01*
X51627843Y-46073954D01*
X51627844Y-46073956D01*
X51679867Y-46187870D01*
X51679868Y-46187871D01*
X51761875Y-46282512D01*
X51761875Y-46282513D01*
X51860808Y-46346093D01*
X51867227Y-46350218D01*
X51987385Y-46385500D01*
X51987386Y-46385500D01*
X52112614Y-46385500D01*
X52112615Y-46385500D01*
X52232773Y-46350218D01*
X52338124Y-46282513D01*
X52420133Y-46187870D01*
X52437427Y-46150002D01*
X57010022Y-46150002D01*
X57027842Y-46273951D01*
X57027843Y-46273953D01*
X57027843Y-46273954D01*
X57027844Y-46273956D01*
X57079867Y-46387870D01*
X57079868Y-46387871D01*
X57161875Y-46482512D01*
X57161875Y-46482513D01*
X57267225Y-46550217D01*
X57267227Y-46550218D01*
X57387385Y-46585500D01*
X57387386Y-46585500D01*
X57387981Y-46585500D01*
X57388453Y-46585653D01*
X57394391Y-46586507D01*
X57394243Y-46587534D01*
X57446172Y-46604407D01*
X57482136Y-46653907D01*
X57482136Y-46715093D01*
X57478037Y-46725622D01*
X57477843Y-46726045D01*
X57477842Y-46726048D01*
X57460022Y-46849997D01*
X57460022Y-46850002D01*
X57477842Y-46973951D01*
X57477843Y-46973953D01*
X57477843Y-46973954D01*
X57477844Y-46973956D01*
X57529867Y-47087870D01*
X57529868Y-47087871D01*
X57611875Y-47182512D01*
X57611875Y-47182513D01*
X57712977Y-47247487D01*
X57717227Y-47250218D01*
X57837385Y-47285500D01*
X57837386Y-47285500D01*
X57962614Y-47285500D01*
X57962615Y-47285500D01*
X58082773Y-47250218D01*
X58188124Y-47182513D01*
X58270133Y-47087870D01*
X58322156Y-46973956D01*
X58330482Y-46916046D01*
X58339978Y-46850002D01*
X58339978Y-46849997D01*
X58322157Y-46726048D01*
X58322156Y-46726046D01*
X58322156Y-46726045D01*
X58322156Y-46726044D01*
X58270133Y-46612130D01*
X58188124Y-46517487D01*
X58188124Y-46517486D01*
X58083116Y-46450002D01*
X59260022Y-46450002D01*
X59277842Y-46573951D01*
X59277843Y-46573953D01*
X59277843Y-46573954D01*
X59277844Y-46573956D01*
X59329867Y-46687870D01*
X59346865Y-46707487D01*
X59411875Y-46782512D01*
X59411875Y-46782513D01*
X59517225Y-46850217D01*
X59517227Y-46850218D01*
X59637385Y-46885500D01*
X59637386Y-46885500D01*
X59762614Y-46885500D01*
X59762615Y-46885500D01*
X59882773Y-46850218D01*
X59988124Y-46782513D01*
X60070133Y-46687870D01*
X60122156Y-46573956D01*
X60131287Y-46510448D01*
X60139978Y-46450002D01*
X60139978Y-46449997D01*
X60122157Y-46326048D01*
X60122156Y-46326046D01*
X60122156Y-46326044D01*
X60070133Y-46212130D01*
X59988124Y-46117487D01*
X59988124Y-46117486D01*
X59882774Y-46049782D01*
X59762616Y-46014500D01*
X59762615Y-46014500D01*
X59637385Y-46014500D01*
X59637383Y-46014500D01*
X59517225Y-46049782D01*
X59411875Y-46117486D01*
X59411875Y-46117487D01*
X59329868Y-46212128D01*
X59277843Y-46326046D01*
X59277842Y-46326048D01*
X59260022Y-46449997D01*
X59260022Y-46450002D01*
X58083116Y-46450002D01*
X58082774Y-46449782D01*
X57962616Y-46414500D01*
X57962615Y-46414500D01*
X57962019Y-46414500D01*
X57961546Y-46414346D01*
X57955609Y-46413493D01*
X57955756Y-46412465D01*
X57903828Y-46395593D01*
X57867864Y-46346093D01*
X57867864Y-46284907D01*
X57871963Y-46274378D01*
X57872156Y-46273956D01*
X57873412Y-46265223D01*
X57889978Y-46150002D01*
X57889978Y-46149997D01*
X57872157Y-46026048D01*
X57872156Y-46026046D01*
X57872156Y-46026044D01*
X57820133Y-45912130D01*
X57738124Y-45817487D01*
X57738124Y-45817486D01*
X57632774Y-45749782D01*
X57512616Y-45714500D01*
X57512615Y-45714500D01*
X57387385Y-45714500D01*
X57387383Y-45714500D01*
X57267225Y-45749782D01*
X57161875Y-45817486D01*
X57161875Y-45817487D01*
X57079868Y-45912128D01*
X57027843Y-46026046D01*
X57027842Y-46026048D01*
X57010022Y-46149997D01*
X57010022Y-46150002D01*
X52437427Y-46150002D01*
X52472156Y-46073956D01*
X52479044Y-46026048D01*
X52489978Y-45950002D01*
X52489978Y-45949997D01*
X52472157Y-45826048D01*
X52472156Y-45826046D01*
X52472156Y-45826044D01*
X52420133Y-45712130D01*
X52338124Y-45617487D01*
X52338124Y-45617486D01*
X52232774Y-45549782D01*
X52112616Y-45514500D01*
X52112615Y-45514500D01*
X51987385Y-45514500D01*
X51987383Y-45514500D01*
X51867225Y-45549782D01*
X51761875Y-45617486D01*
X51761875Y-45617487D01*
X51679868Y-45712128D01*
X51627843Y-45826046D01*
X51627842Y-45826048D01*
X51610022Y-45949997D01*
X51610022Y-45950002D01*
X47137958Y-45950002D01*
X47170133Y-45912870D01*
X47222156Y-45798956D01*
X47224520Y-45782513D01*
X47239978Y-45675002D01*
X47239978Y-45674997D01*
X47222157Y-45551048D01*
X47222156Y-45551046D01*
X47222156Y-45551044D01*
X47170133Y-45437130D01*
X47088124Y-45342487D01*
X47088124Y-45342486D01*
X46982774Y-45274782D01*
X46862616Y-45239500D01*
X46862615Y-45239500D01*
X46737385Y-45239500D01*
X46737383Y-45239500D01*
X46617225Y-45274782D01*
X46542009Y-45323121D01*
X46482834Y-45338676D01*
X46425818Y-45316477D01*
X46413667Y-45304668D01*
X46387050Y-45273951D01*
X46338124Y-45217487D01*
X46338124Y-45217486D01*
X46310918Y-45200002D01*
X49010022Y-45200002D01*
X49027842Y-45323951D01*
X49027843Y-45323953D01*
X49027843Y-45323954D01*
X49027844Y-45323956D01*
X49079867Y-45437870D01*
X49107068Y-45469261D01*
X49161875Y-45532512D01*
X49161875Y-45532513D01*
X49244325Y-45585500D01*
X49267227Y-45600218D01*
X49387385Y-45635500D01*
X49387386Y-45635500D01*
X49512614Y-45635500D01*
X49512615Y-45635500D01*
X49632773Y-45600218D01*
X49738124Y-45532513D01*
X49820133Y-45437870D01*
X49872156Y-45323956D01*
X49872276Y-45323121D01*
X49889978Y-45200002D01*
X49889978Y-45199997D01*
X49872157Y-45076048D01*
X49872156Y-45076046D01*
X49872156Y-45076044D01*
X49820133Y-44962130D01*
X49738124Y-44867487D01*
X49738124Y-44867486D01*
X49632774Y-44799782D01*
X49512616Y-44764500D01*
X49512615Y-44764500D01*
X49387385Y-44764500D01*
X49387383Y-44764500D01*
X49267225Y-44799782D01*
X49161875Y-44867486D01*
X49161875Y-44867487D01*
X49079868Y-44962128D01*
X49027843Y-45076046D01*
X49027842Y-45076048D01*
X49010022Y-45199997D01*
X49010022Y-45200002D01*
X46310918Y-45200002D01*
X46232774Y-45149782D01*
X46112616Y-45114500D01*
X46112615Y-45114500D01*
X45987385Y-45114500D01*
X45987383Y-45114500D01*
X45867225Y-45149782D01*
X45761875Y-45217486D01*
X45761875Y-45217487D01*
X45679868Y-45312128D01*
X45627843Y-45426046D01*
X45627842Y-45426048D01*
X45610022Y-45549997D01*
X45610022Y-45550002D01*
X40933109Y-45550002D01*
X41038124Y-45482513D01*
X41120133Y-45387870D01*
X41172156Y-45273956D01*
X41175600Y-45250002D01*
X41189978Y-45150002D01*
X41189978Y-45149997D01*
X41172157Y-45026048D01*
X41172156Y-45026046D01*
X41172156Y-45026044D01*
X41120133Y-44912130D01*
X41038124Y-44817487D01*
X41038124Y-44817486D01*
X40932772Y-44749781D01*
X40918142Y-44745485D01*
X40867636Y-44710948D01*
X40847076Y-44653320D01*
X40855983Y-44609369D01*
X40857750Y-44605500D01*
X40872156Y-44573956D01*
X40872157Y-44573951D01*
X40889978Y-44450002D01*
X40889978Y-44449997D01*
X40872157Y-44326048D01*
X40872156Y-44326046D01*
X40872156Y-44326044D01*
X40860263Y-44300002D01*
X46860022Y-44300002D01*
X46877842Y-44423951D01*
X46877843Y-44423953D01*
X46877843Y-44423954D01*
X46877844Y-44423956D01*
X46929867Y-44537870D01*
X46929868Y-44537871D01*
X47011875Y-44632512D01*
X47011875Y-44632513D01*
X47117225Y-44700217D01*
X47117227Y-44700218D01*
X47237385Y-44735500D01*
X47237386Y-44735500D01*
X47362614Y-44735500D01*
X47362615Y-44735500D01*
X47482773Y-44700218D01*
X47588124Y-44632513D01*
X47670133Y-44537870D01*
X47722156Y-44423956D01*
X47736233Y-44326046D01*
X47739978Y-44300002D01*
X47739978Y-44299997D01*
X47722157Y-44176048D01*
X47722156Y-44176046D01*
X47722156Y-44176044D01*
X47719397Y-44170002D01*
X51430022Y-44170002D01*
X51447842Y-44293951D01*
X51447843Y-44293953D01*
X51447843Y-44293954D01*
X51447844Y-44293956D01*
X51499867Y-44407870D01*
X51536370Y-44449997D01*
X51581875Y-44502512D01*
X51581875Y-44502513D01*
X51687225Y-44570217D01*
X51687227Y-44570218D01*
X51807385Y-44605500D01*
X51807386Y-44605500D01*
X51877760Y-44605500D01*
X51935951Y-44624407D01*
X51967813Y-44663372D01*
X51969867Y-44667871D01*
X52051875Y-44762512D01*
X52051875Y-44762513D01*
X52137417Y-44817487D01*
X52157227Y-44830218D01*
X52277385Y-44865500D01*
X52277386Y-44865500D01*
X52402614Y-44865500D01*
X52402615Y-44865500D01*
X52522773Y-44830218D01*
X52628124Y-44762513D01*
X52710133Y-44667870D01*
X52712186Y-44663373D01*
X52753555Y-44618297D01*
X52802239Y-44605500D01*
X52803193Y-44605500D01*
X52861384Y-44624407D01*
X52893246Y-44663373D01*
X52899867Y-44677870D01*
X52899866Y-44677870D01*
X52981875Y-44772512D01*
X52981875Y-44772513D01*
X53087225Y-44840217D01*
X53087227Y-44840218D01*
X53207385Y-44875500D01*
X53207386Y-44875500D01*
X53332614Y-44875500D01*
X53332615Y-44875500D01*
X53452773Y-44840218D01*
X53558124Y-44772513D01*
X53640133Y-44677870D01*
X53644700Y-44667870D01*
X53646754Y-44663373D01*
X53688127Y-44618295D01*
X53736807Y-44605500D01*
X53792614Y-44605500D01*
X53792615Y-44605500D01*
X53912773Y-44570218D01*
X54018124Y-44502513D01*
X54100133Y-44407870D01*
X54126561Y-44350002D01*
X54610022Y-44350002D01*
X54627842Y-44473951D01*
X54627843Y-44473953D01*
X54627843Y-44473954D01*
X54627844Y-44473956D01*
X54679867Y-44587870D01*
X54679868Y-44587871D01*
X54761875Y-44682512D01*
X54761875Y-44682513D01*
X54867225Y-44750217D01*
X54867227Y-44750218D01*
X54987385Y-44785500D01*
X54987386Y-44785500D01*
X55059463Y-44785500D01*
X55117654Y-44804407D01*
X55153618Y-44853907D01*
X55153618Y-44915093D01*
X55134282Y-44949331D01*
X55079868Y-45012127D01*
X55027843Y-45126046D01*
X55027842Y-45126048D01*
X55010022Y-45249997D01*
X55010022Y-45250002D01*
X55027842Y-45373951D01*
X55027843Y-45373953D01*
X55027843Y-45373954D01*
X55027844Y-45373956D01*
X55079867Y-45487870D01*
X55079868Y-45487871D01*
X55161875Y-45582512D01*
X55161875Y-45582513D01*
X55244325Y-45635500D01*
X55267227Y-45650218D01*
X55387385Y-45685500D01*
X55387386Y-45685500D01*
X55512614Y-45685500D01*
X55512615Y-45685500D01*
X55632773Y-45650218D01*
X55738124Y-45582513D01*
X55820133Y-45487870D01*
X55828632Y-45469257D01*
X55870001Y-45424183D01*
X55929967Y-45412030D01*
X55985624Y-45437446D01*
X56015713Y-45490722D01*
X56016677Y-45496295D01*
X56027842Y-45573951D01*
X56027843Y-45573953D01*
X56027843Y-45573954D01*
X56027844Y-45573956D01*
X56079867Y-45687870D01*
X56079868Y-45687871D01*
X56161875Y-45782512D01*
X56161875Y-45782513D01*
X56267225Y-45850217D01*
X56267227Y-45850218D01*
X56387385Y-45885500D01*
X56387386Y-45885500D01*
X56512614Y-45885500D01*
X56512615Y-45885500D01*
X56632773Y-45850218D01*
X56738124Y-45782513D01*
X56820133Y-45687870D01*
X56872156Y-45573956D01*
X56875600Y-45550002D01*
X56889978Y-45450002D01*
X56889978Y-45449997D01*
X56872157Y-45326048D01*
X56872156Y-45326046D01*
X56872156Y-45326044D01*
X56820133Y-45212130D01*
X56738124Y-45117487D01*
X56738124Y-45117486D01*
X56632774Y-45049782D01*
X56512616Y-45014500D01*
X56512615Y-45014500D01*
X56387385Y-45014500D01*
X56387383Y-45014500D01*
X56267225Y-45049782D01*
X56161875Y-45117486D01*
X56161875Y-45117487D01*
X56079867Y-45212128D01*
X56071367Y-45230742D01*
X56029994Y-45275819D01*
X55970027Y-45287968D01*
X55914371Y-45262550D01*
X55884285Y-45209273D01*
X55883322Y-45203703D01*
X55872157Y-45126048D01*
X55872156Y-45126046D01*
X55872156Y-45126044D01*
X55820133Y-45012130D01*
X55738124Y-44917487D01*
X55738124Y-44917486D01*
X55632774Y-44849782D01*
X55512616Y-44814500D01*
X55512615Y-44814500D01*
X55440537Y-44814500D01*
X55382346Y-44795593D01*
X55346382Y-44746093D01*
X55346382Y-44684907D01*
X55365718Y-44650669D01*
X55420131Y-44587872D01*
X55420130Y-44587872D01*
X55420133Y-44587870D01*
X55472156Y-44473956D01*
X55472157Y-44473951D01*
X55489978Y-44350002D01*
X55489978Y-44349997D01*
X55482790Y-44300002D01*
X56010022Y-44300002D01*
X56027842Y-44423951D01*
X56027843Y-44423953D01*
X56027843Y-44423954D01*
X56027844Y-44423956D01*
X56079867Y-44537870D01*
X56079868Y-44537871D01*
X56161875Y-44632512D01*
X56161875Y-44632513D01*
X56267225Y-44700217D01*
X56267227Y-44700218D01*
X56387385Y-44735500D01*
X56387386Y-44735500D01*
X56512614Y-44735500D01*
X56512615Y-44735500D01*
X56632773Y-44700218D01*
X56738124Y-44632513D01*
X56820133Y-44537870D01*
X56872156Y-44423956D01*
X56886233Y-44326046D01*
X56889978Y-44300002D01*
X56889978Y-44299997D01*
X56872157Y-44176048D01*
X56872156Y-44176046D01*
X56872156Y-44176044D01*
X56820133Y-44062130D01*
X56738124Y-43967487D01*
X56738124Y-43967486D01*
X56632774Y-43899782D01*
X56512616Y-43864500D01*
X56512615Y-43864500D01*
X56387385Y-43864500D01*
X56387383Y-43864500D01*
X56267225Y-43899782D01*
X56161875Y-43967486D01*
X56161875Y-43967487D01*
X56079868Y-44062128D01*
X56027843Y-44176046D01*
X56027842Y-44176048D01*
X56010022Y-44299997D01*
X56010022Y-44300002D01*
X55482790Y-44300002D01*
X55472157Y-44226048D01*
X55472156Y-44226046D01*
X55472156Y-44226044D01*
X55420133Y-44112130D01*
X55338124Y-44017487D01*
X55338124Y-44017486D01*
X55232774Y-43949782D01*
X55112616Y-43914500D01*
X55112615Y-43914500D01*
X54987385Y-43914500D01*
X54987383Y-43914500D01*
X54867225Y-43949782D01*
X54761875Y-44017486D01*
X54761875Y-44017487D01*
X54679868Y-44112128D01*
X54627843Y-44226046D01*
X54627842Y-44226048D01*
X54610022Y-44349997D01*
X54610022Y-44350002D01*
X54126561Y-44350002D01*
X54152156Y-44293956D01*
X54156590Y-44263116D01*
X54169978Y-44170002D01*
X54169978Y-44169997D01*
X54152157Y-44046048D01*
X54152156Y-44046046D01*
X54152156Y-44046044D01*
X54100133Y-43932130D01*
X54018124Y-43837487D01*
X54018124Y-43837486D01*
X53912774Y-43769782D01*
X53792616Y-43734500D01*
X53792615Y-43734500D01*
X53736807Y-43734500D01*
X53678616Y-43715593D01*
X53646754Y-43676627D01*
X53643592Y-43669705D01*
X53640133Y-43662130D01*
X53640132Y-43662129D01*
X53640133Y-43662129D01*
X53558124Y-43567487D01*
X53558124Y-43567486D01*
X53452774Y-43499782D01*
X53332616Y-43464500D01*
X53332615Y-43464500D01*
X53276807Y-43464500D01*
X53218616Y-43445593D01*
X53186758Y-43406637D01*
X53184244Y-43401133D01*
X53177264Y-43340350D01*
X53184237Y-43318881D01*
X53232156Y-43213956D01*
X53234131Y-43200218D01*
X53249978Y-43090002D01*
X53249978Y-43089997D01*
X53237039Y-43000002D01*
X54610022Y-43000002D01*
X54627842Y-43123951D01*
X54627843Y-43123953D01*
X54627843Y-43123954D01*
X54627844Y-43123956D01*
X54679867Y-43237870D01*
X54679868Y-43237871D01*
X54761875Y-43332512D01*
X54761875Y-43332513D01*
X54867225Y-43400217D01*
X54867227Y-43400218D01*
X54987385Y-43435500D01*
X54987386Y-43435500D01*
X55112614Y-43435500D01*
X55112615Y-43435500D01*
X55232773Y-43400218D01*
X55338124Y-43332513D01*
X55420133Y-43237870D01*
X55472156Y-43123956D01*
X55479226Y-43074782D01*
X55489978Y-43000002D01*
X56010022Y-43000002D01*
X56027842Y-43123951D01*
X56027843Y-43123953D01*
X56027843Y-43123954D01*
X56027844Y-43123956D01*
X56079867Y-43237870D01*
X56079868Y-43237871D01*
X56161875Y-43332512D01*
X56161875Y-43332513D01*
X56267225Y-43400217D01*
X56267227Y-43400218D01*
X56387385Y-43435500D01*
X56387386Y-43435500D01*
X56512614Y-43435500D01*
X56512615Y-43435500D01*
X56632773Y-43400218D01*
X56738124Y-43332513D01*
X56820133Y-43237870D01*
X56872156Y-43123956D01*
X56879226Y-43074782D01*
X56889978Y-43000002D01*
X56889978Y-42999997D01*
X56872157Y-42876048D01*
X56872156Y-42876046D01*
X56872156Y-42876044D01*
X56820133Y-42762130D01*
X56738124Y-42667487D01*
X56738124Y-42667486D01*
X56632774Y-42599782D01*
X56512616Y-42564500D01*
X56512615Y-42564500D01*
X56387385Y-42564500D01*
X56387383Y-42564500D01*
X56267225Y-42599782D01*
X56161875Y-42667486D01*
X56161875Y-42667487D01*
X56079868Y-42762128D01*
X56027843Y-42876046D01*
X56027842Y-42876048D01*
X56010022Y-42999997D01*
X56010022Y-43000002D01*
X55489978Y-43000002D01*
X55489978Y-42999997D01*
X55472157Y-42876048D01*
X55472156Y-42876046D01*
X55472156Y-42876044D01*
X55420133Y-42762130D01*
X55338124Y-42667487D01*
X55338124Y-42667486D01*
X55232774Y-42599782D01*
X55112616Y-42564500D01*
X55112615Y-42564500D01*
X54987385Y-42564500D01*
X54987383Y-42564500D01*
X54867225Y-42599782D01*
X54761875Y-42667486D01*
X54761875Y-42667487D01*
X54679868Y-42762128D01*
X54627843Y-42876046D01*
X54627842Y-42876048D01*
X54610022Y-42999997D01*
X54610022Y-43000002D01*
X53237039Y-43000002D01*
X53232157Y-42966048D01*
X53232156Y-42966046D01*
X53232156Y-42966044D01*
X53184240Y-42861124D01*
X53177266Y-42800340D01*
X53184241Y-42778874D01*
X53232156Y-42673956D01*
X53233086Y-42667487D01*
X53249978Y-42550002D01*
X53249978Y-42549997D01*
X53232157Y-42426048D01*
X53232156Y-42426046D01*
X53232156Y-42426044D01*
X53184240Y-42321124D01*
X53177266Y-42260340D01*
X53184241Y-42238874D01*
X53232156Y-42133956D01*
X53246741Y-42032513D01*
X53249978Y-42010002D01*
X53249978Y-42009997D01*
X53232157Y-41886048D01*
X53232156Y-41886046D01*
X53232156Y-41886044D01*
X53184240Y-41781124D01*
X53177266Y-41720340D01*
X53183874Y-41700002D01*
X54610022Y-41700002D01*
X54627842Y-41823951D01*
X54627843Y-41823953D01*
X54627843Y-41823954D01*
X54627844Y-41823956D01*
X54679867Y-41937870D01*
X54679868Y-41937871D01*
X54761875Y-42032512D01*
X54761875Y-42032513D01*
X54867225Y-42100217D01*
X54867227Y-42100218D01*
X54987385Y-42135500D01*
X54987386Y-42135500D01*
X55112614Y-42135500D01*
X55112615Y-42135500D01*
X55232773Y-42100218D01*
X55338124Y-42032513D01*
X55420133Y-41937870D01*
X55472156Y-41823956D01*
X55478314Y-41781126D01*
X55489978Y-41700002D01*
X56010022Y-41700002D01*
X56027842Y-41823951D01*
X56027843Y-41823953D01*
X56027843Y-41823954D01*
X56027844Y-41823956D01*
X56079867Y-41937870D01*
X56079868Y-41937871D01*
X56161875Y-42032512D01*
X56161875Y-42032513D01*
X56267225Y-42100217D01*
X56267227Y-42100218D01*
X56387385Y-42135500D01*
X56387386Y-42135500D01*
X56512614Y-42135500D01*
X56512615Y-42135500D01*
X56632773Y-42100218D01*
X56738124Y-42032513D01*
X56820133Y-41937870D01*
X56872156Y-41823956D01*
X56878314Y-41781126D01*
X56889978Y-41700002D01*
X56889978Y-41699997D01*
X56872157Y-41576048D01*
X56872156Y-41576046D01*
X56872156Y-41576044D01*
X56820133Y-41462130D01*
X56738124Y-41367487D01*
X56738124Y-41367486D01*
X56632774Y-41299782D01*
X56512616Y-41264500D01*
X56512615Y-41264500D01*
X56387385Y-41264500D01*
X56387383Y-41264500D01*
X56267225Y-41299782D01*
X56161875Y-41367486D01*
X56161875Y-41367487D01*
X56079868Y-41462128D01*
X56027843Y-41576046D01*
X56027842Y-41576048D01*
X56010022Y-41699997D01*
X56010022Y-41700002D01*
X55489978Y-41700002D01*
X55489978Y-41699997D01*
X55472157Y-41576048D01*
X55472156Y-41576046D01*
X55472156Y-41576044D01*
X55420133Y-41462130D01*
X55338124Y-41367487D01*
X55338124Y-41367486D01*
X55232774Y-41299782D01*
X55112616Y-41264500D01*
X55112615Y-41264500D01*
X54987385Y-41264500D01*
X54987383Y-41264500D01*
X54867225Y-41299782D01*
X54761875Y-41367486D01*
X54761875Y-41367487D01*
X54679868Y-41462128D01*
X54627843Y-41576046D01*
X54627842Y-41576048D01*
X54610022Y-41699997D01*
X54610022Y-41700002D01*
X53183874Y-41700002D01*
X53184241Y-41698874D01*
X53232156Y-41593956D01*
X53234731Y-41576046D01*
X53249978Y-41470002D01*
X53249978Y-41469997D01*
X53232157Y-41346048D01*
X53232156Y-41346046D01*
X53232156Y-41346044D01*
X53184240Y-41241124D01*
X53177266Y-41180340D01*
X53184241Y-41158874D01*
X53232156Y-41053956D01*
X53232157Y-41053951D01*
X53249978Y-40930002D01*
X53249978Y-40929997D01*
X53232157Y-40806048D01*
X53232156Y-40806046D01*
X53232156Y-40806044D01*
X53184240Y-40701124D01*
X53177266Y-40640340D01*
X53184241Y-40618874D01*
X53215694Y-40550002D01*
X56010022Y-40550002D01*
X56027842Y-40673951D01*
X56027843Y-40673953D01*
X56027843Y-40673954D01*
X56027844Y-40673956D01*
X56079867Y-40787870D01*
X56079868Y-40787871D01*
X56161875Y-40882512D01*
X56161875Y-40882513D01*
X56235767Y-40930000D01*
X56267227Y-40950218D01*
X56387385Y-40985500D01*
X56387386Y-40985500D01*
X56512614Y-40985500D01*
X56512615Y-40985500D01*
X56632773Y-40950218D01*
X56738124Y-40882513D01*
X56820133Y-40787870D01*
X56872156Y-40673956D01*
X56880076Y-40618873D01*
X56889978Y-40550002D01*
X56889978Y-40549997D01*
X56872157Y-40426048D01*
X56872156Y-40426046D01*
X56872156Y-40426044D01*
X56820133Y-40312130D01*
X56738124Y-40217487D01*
X56738124Y-40217486D01*
X56632774Y-40149782D01*
X56512616Y-40114500D01*
X56512615Y-40114500D01*
X56387385Y-40114500D01*
X56387383Y-40114500D01*
X56267225Y-40149782D01*
X56161875Y-40217486D01*
X56161875Y-40217487D01*
X56079868Y-40312128D01*
X56027843Y-40426046D01*
X56027842Y-40426048D01*
X56010022Y-40549997D01*
X56010022Y-40550002D01*
X53215694Y-40550002D01*
X53232156Y-40513956D01*
X53244795Y-40426048D01*
X53249978Y-40390002D01*
X53249978Y-40389997D01*
X53232157Y-40266048D01*
X53232156Y-40266046D01*
X53232156Y-40266044D01*
X53180133Y-40152130D01*
X53098124Y-40057487D01*
X53098124Y-40057486D01*
X52992774Y-39989782D01*
X52872616Y-39954500D01*
X52872615Y-39954500D01*
X52747385Y-39954500D01*
X52747383Y-39954500D01*
X52627225Y-39989782D01*
X52521875Y-40057486D01*
X52521875Y-40057487D01*
X52439867Y-40152128D01*
X52439867Y-40152129D01*
X52433247Y-40166626D01*
X52391875Y-40211704D01*
X52343193Y-40224500D01*
X52336807Y-40224500D01*
X52278616Y-40205593D01*
X52246754Y-40166627D01*
X52244027Y-40160657D01*
X52240133Y-40152130D01*
X52240132Y-40152129D01*
X52240133Y-40152129D01*
X52158124Y-40057487D01*
X52158124Y-40057486D01*
X52052774Y-39989782D01*
X51932616Y-39954500D01*
X51932615Y-39954500D01*
X51807385Y-39954500D01*
X51807383Y-39954500D01*
X51687225Y-39989782D01*
X51581875Y-40057486D01*
X51581875Y-40057487D01*
X51499868Y-40152128D01*
X51447843Y-40266046D01*
X51447842Y-40266048D01*
X51430022Y-40389997D01*
X51430022Y-40390002D01*
X51447842Y-40513951D01*
X51447843Y-40513953D01*
X51447843Y-40513954D01*
X51447844Y-40513956D01*
X51495759Y-40618874D01*
X51502733Y-40679660D01*
X51495759Y-40701123D01*
X51488287Y-40717487D01*
X51447843Y-40806046D01*
X51447842Y-40806048D01*
X51430022Y-40929997D01*
X51430022Y-40930002D01*
X51447842Y-41053951D01*
X51447843Y-41053953D01*
X51447843Y-41053954D01*
X51447844Y-41053956D01*
X51495759Y-41158874D01*
X51502733Y-41219660D01*
X51495759Y-41241123D01*
X51487767Y-41258625D01*
X51447843Y-41346046D01*
X51447842Y-41346048D01*
X51430022Y-41469997D01*
X51430022Y-41470002D01*
X51447842Y-41593951D01*
X51447843Y-41593953D01*
X51447843Y-41593954D01*
X51447844Y-41593956D01*
X51495759Y-41698874D01*
X51502733Y-41759660D01*
X51495759Y-41781123D01*
X51493018Y-41787127D01*
X51447843Y-41886046D01*
X51447842Y-41886048D01*
X51430022Y-42009997D01*
X51430022Y-42010002D01*
X51447842Y-42133951D01*
X51447843Y-42133953D01*
X51447843Y-42133954D01*
X51447844Y-42133956D01*
X51495759Y-42238874D01*
X51502733Y-42299660D01*
X51495759Y-42321123D01*
X51479142Y-42357512D01*
X51447843Y-42426046D01*
X51447842Y-42426048D01*
X51430022Y-42549997D01*
X51430022Y-42550002D01*
X51447842Y-42673951D01*
X51447843Y-42673953D01*
X51447843Y-42673954D01*
X51447844Y-42673956D01*
X51495759Y-42778874D01*
X51502733Y-42839660D01*
X51495759Y-42861123D01*
X51488946Y-42876044D01*
X51447843Y-42966046D01*
X51447842Y-42966048D01*
X51430022Y-43089997D01*
X51430022Y-43090002D01*
X51447842Y-43213951D01*
X51447843Y-43213953D01*
X51447843Y-43213954D01*
X51447844Y-43213956D01*
X51470927Y-43264500D01*
X51495759Y-43318874D01*
X51502733Y-43379660D01*
X51495759Y-43401123D01*
X51457287Y-43485365D01*
X51447843Y-43506046D01*
X51447842Y-43506048D01*
X51430022Y-43629997D01*
X51430022Y-43630002D01*
X51447842Y-43753951D01*
X51447843Y-43753953D01*
X51447843Y-43753954D01*
X51447844Y-43753956D01*
X51495651Y-43858638D01*
X51495759Y-43858874D01*
X51502733Y-43919660D01*
X51495759Y-43941123D01*
X51462936Y-44012997D01*
X51447843Y-44046046D01*
X51447842Y-44046048D01*
X51430022Y-44169997D01*
X51430022Y-44170002D01*
X47719397Y-44170002D01*
X47670133Y-44062130D01*
X47638169Y-44025242D01*
X47627559Y-44012997D01*
X47603741Y-43956638D01*
X47617599Y-43897043D01*
X47648850Y-43864885D01*
X47738124Y-43807513D01*
X47789350Y-43748394D01*
X47841744Y-43716800D01*
X47902705Y-43722036D01*
X47938987Y-43748395D01*
X47990212Y-43807512D01*
X48011877Y-43832514D01*
X48116886Y-43899999D01*
X48117227Y-43900218D01*
X48237385Y-43935500D01*
X48237386Y-43935500D01*
X48362614Y-43935500D01*
X48362615Y-43935500D01*
X48482773Y-43900218D01*
X48588124Y-43832513D01*
X48670133Y-43737870D01*
X48687427Y-43700002D01*
X49160022Y-43700002D01*
X49177842Y-43823951D01*
X49177843Y-43823953D01*
X49177843Y-43823954D01*
X49177844Y-43823956D01*
X49229867Y-43937870D01*
X49229868Y-43937871D01*
X49311875Y-44032512D01*
X49311875Y-44032513D01*
X49394325Y-44085500D01*
X49417227Y-44100218D01*
X49537385Y-44135500D01*
X49537386Y-44135500D01*
X49662614Y-44135500D01*
X49662615Y-44135500D01*
X49782773Y-44100218D01*
X49888124Y-44032513D01*
X49970133Y-43937870D01*
X50022156Y-43823956D01*
X50022157Y-43823951D01*
X50039978Y-43700002D01*
X50039978Y-43699997D01*
X50022157Y-43576048D01*
X50022156Y-43576046D01*
X50022156Y-43576044D01*
X49970133Y-43462130D01*
X49888124Y-43367487D01*
X49888124Y-43367486D01*
X49782774Y-43299782D01*
X49662616Y-43264500D01*
X49662615Y-43264500D01*
X49537385Y-43264500D01*
X49537383Y-43264500D01*
X49417225Y-43299782D01*
X49311875Y-43367486D01*
X49311875Y-43367487D01*
X49229868Y-43462128D01*
X49229867Y-43462129D01*
X49229867Y-43462130D01*
X49223989Y-43475002D01*
X49177843Y-43576046D01*
X49177842Y-43576048D01*
X49160022Y-43699997D01*
X49160022Y-43700002D01*
X48687427Y-43700002D01*
X48722156Y-43623956D01*
X48724776Y-43605734D01*
X48739978Y-43500002D01*
X48739978Y-43499997D01*
X48722157Y-43376048D01*
X48722156Y-43376046D01*
X48722156Y-43376044D01*
X48670133Y-43262130D01*
X48588124Y-43167487D01*
X48588124Y-43167486D01*
X48482774Y-43099782D01*
X48362616Y-43064500D01*
X48362615Y-43064500D01*
X48237385Y-43064500D01*
X48237383Y-43064500D01*
X48117225Y-43099782D01*
X48011877Y-43167485D01*
X47960650Y-43226604D01*
X47908253Y-43258199D01*
X47847292Y-43252963D01*
X47811012Y-43226603D01*
X47738124Y-43142487D01*
X47738124Y-43142486D01*
X47632774Y-43074782D01*
X47512616Y-43039500D01*
X47512615Y-43039500D01*
X47387385Y-43039500D01*
X47387383Y-43039500D01*
X47267225Y-43074782D01*
X47161875Y-43142486D01*
X47161875Y-43142487D01*
X47079868Y-43237128D01*
X47079867Y-43237129D01*
X47079867Y-43237130D01*
X47057034Y-43287128D01*
X47027843Y-43351046D01*
X47027842Y-43351048D01*
X47010022Y-43474997D01*
X47010022Y-43475002D01*
X47027842Y-43598951D01*
X47027843Y-43598953D01*
X47027843Y-43598954D01*
X47027844Y-43598956D01*
X47079867Y-43712870D01*
X47079868Y-43712871D01*
X47122440Y-43762002D01*
X47146258Y-43818361D01*
X47132400Y-43877956D01*
X47101145Y-43910117D01*
X47011874Y-43967488D01*
X46929868Y-44062128D01*
X46877843Y-44176046D01*
X46877842Y-44176048D01*
X46860022Y-44299997D01*
X46860022Y-44300002D01*
X40860263Y-44300002D01*
X40820133Y-44212130D01*
X40738124Y-44117487D01*
X40738124Y-44117486D01*
X40632774Y-44049782D01*
X40512616Y-44014500D01*
X40512615Y-44014500D01*
X40387385Y-44014500D01*
X40387383Y-44014500D01*
X40267225Y-44049782D01*
X40161875Y-44117486D01*
X40161875Y-44117487D01*
X40079868Y-44212128D01*
X40027843Y-44326046D01*
X40027842Y-44326048D01*
X40010022Y-44449997D01*
X40010022Y-44450002D01*
X39348317Y-44450002D01*
X39431888Y-44425463D01*
X39537239Y-44357758D01*
X39619248Y-44263115D01*
X39671271Y-44149201D01*
X39676601Y-44112130D01*
X39689093Y-44025247D01*
X39689093Y-44025242D01*
X39671272Y-43901293D01*
X39671271Y-43901291D01*
X39671271Y-43901289D01*
X39619248Y-43787375D01*
X39537239Y-43692732D01*
X39537239Y-43692731D01*
X39431889Y-43625027D01*
X39373022Y-43607742D01*
X39322515Y-43573206D01*
X39305316Y-43525002D01*
X44210022Y-43525002D01*
X44227842Y-43648951D01*
X44227843Y-43648953D01*
X44227843Y-43648954D01*
X44227844Y-43648956D01*
X44279867Y-43762870D01*
X44279868Y-43762871D01*
X44361875Y-43857512D01*
X44361875Y-43857513D01*
X44467225Y-43925217D01*
X44467227Y-43925218D01*
X44587385Y-43960500D01*
X44587386Y-43960500D01*
X44712614Y-43960500D01*
X44712615Y-43960500D01*
X44832773Y-43925218D01*
X44938124Y-43857513D01*
X45020133Y-43762870D01*
X45072156Y-43648956D01*
X45074881Y-43630002D01*
X45089978Y-43525002D01*
X45089978Y-43524997D01*
X45072157Y-43401048D01*
X45072156Y-43401046D01*
X45072156Y-43401044D01*
X45020133Y-43287130D01*
X44938124Y-43192487D01*
X44938124Y-43192486D01*
X44832774Y-43124782D01*
X44712616Y-43089500D01*
X44712615Y-43089500D01*
X44587385Y-43089500D01*
X44587383Y-43089500D01*
X44467225Y-43124782D01*
X44361875Y-43192486D01*
X44361875Y-43192487D01*
X44279868Y-43287128D01*
X44227843Y-43401046D01*
X44227842Y-43401048D01*
X44210022Y-43524997D01*
X44210022Y-43525002D01*
X39305316Y-43525002D01*
X39301954Y-43515578D01*
X39319193Y-43456872D01*
X39367646Y-43419509D01*
X39373010Y-43417766D01*
X39432773Y-43400218D01*
X39538124Y-43332513D01*
X39620133Y-43237870D01*
X39672156Y-43123956D01*
X39679226Y-43074782D01*
X39689978Y-43000002D01*
X39689978Y-42999997D01*
X39672157Y-42876048D01*
X39672156Y-42876046D01*
X39672156Y-42876044D01*
X39637429Y-42800002D01*
X40010022Y-42800002D01*
X40027842Y-42923951D01*
X40027843Y-42923953D01*
X40027843Y-42923954D01*
X40027844Y-42923956D01*
X40079867Y-43037870D01*
X40102942Y-43064500D01*
X40161875Y-43132512D01*
X40161875Y-43132513D01*
X40255197Y-43192487D01*
X40267227Y-43200218D01*
X40387385Y-43235500D01*
X40387386Y-43235500D01*
X40512614Y-43235500D01*
X40512615Y-43235500D01*
X40632773Y-43200218D01*
X40738124Y-43132513D01*
X40820133Y-43037870D01*
X40872156Y-42923956D01*
X40879044Y-42876048D01*
X40889978Y-42800002D01*
X40889978Y-42799997D01*
X40872157Y-42676048D01*
X40872156Y-42676046D01*
X40872156Y-42676044D01*
X40820133Y-42562130D01*
X40738124Y-42467487D01*
X40738124Y-42467486D01*
X40632774Y-42399782D01*
X40512616Y-42364500D01*
X40512615Y-42364500D01*
X40387385Y-42364500D01*
X40387383Y-42364500D01*
X40267225Y-42399782D01*
X40161875Y-42467486D01*
X40161875Y-42467487D01*
X40079868Y-42562128D01*
X40027843Y-42676046D01*
X40027842Y-42676048D01*
X40010022Y-42799997D01*
X40010022Y-42800002D01*
X39637429Y-42800002D01*
X39620133Y-42762130D01*
X39538124Y-42667487D01*
X39538124Y-42667486D01*
X39432774Y-42599782D01*
X39312616Y-42564500D01*
X39312615Y-42564500D01*
X39187385Y-42564500D01*
X39187383Y-42564500D01*
X39067225Y-42599782D01*
X38961875Y-42667486D01*
X38961875Y-42667487D01*
X38879868Y-42762128D01*
X38827843Y-42876046D01*
X38827842Y-42876048D01*
X38810022Y-42999997D01*
X38810022Y-43000002D01*
X38827842Y-43123951D01*
X38827843Y-43123953D01*
X38827843Y-43123954D01*
X38827844Y-43123956D01*
X38879867Y-43237870D01*
X38879868Y-43237871D01*
X38961875Y-43332512D01*
X38961875Y-43332513D01*
X39067226Y-43400218D01*
X39089088Y-43406637D01*
X39126091Y-43417502D01*
X39176598Y-43452038D01*
X39197160Y-43509665D01*
X39179922Y-43568372D01*
X39131469Y-43605734D01*
X39126093Y-43607481D01*
X39066344Y-43625025D01*
X39066342Y-43625026D01*
X38960990Y-43692731D01*
X38960990Y-43692732D01*
X38878983Y-43787373D01*
X38826958Y-43901291D01*
X38826957Y-43901293D01*
X38809137Y-44025242D01*
X38809137Y-44025247D01*
X36700500Y-44025247D01*
X36700500Y-41050002D01*
X38560022Y-41050002D01*
X38577842Y-41173951D01*
X38577843Y-41173953D01*
X38577843Y-41173954D01*
X38577844Y-41173956D01*
X38629867Y-41287870D01*
X38629868Y-41287871D01*
X38711875Y-41382512D01*
X38711875Y-41382513D01*
X38727884Y-41392801D01*
X38817227Y-41450218D01*
X38937385Y-41485500D01*
X38937386Y-41485500D01*
X39062614Y-41485500D01*
X39062615Y-41485500D01*
X39182773Y-41450218D01*
X39288124Y-41382513D01*
X39370133Y-41287870D01*
X39383487Y-41258630D01*
X48968650Y-41258630D01*
X48986470Y-41382579D01*
X48986471Y-41382581D01*
X48986471Y-41382582D01*
X48986472Y-41382584D01*
X49026394Y-41470000D01*
X49038496Y-41496500D01*
X49116421Y-41586430D01*
X49140239Y-41642789D01*
X49126380Y-41702384D01*
X49116421Y-41716092D01*
X49054868Y-41787127D01*
X49002843Y-41901046D01*
X49002842Y-41901048D01*
X48985022Y-42024997D01*
X48985022Y-42025002D01*
X49002842Y-42148951D01*
X49002843Y-42148953D01*
X49002843Y-42148954D01*
X49002844Y-42148956D01*
X49054867Y-42262870D01*
X49054868Y-42262871D01*
X49136875Y-42357512D01*
X49136875Y-42357513D01*
X49242225Y-42425217D01*
X49242227Y-42425218D01*
X49362385Y-42460500D01*
X49362386Y-42460500D01*
X49487614Y-42460500D01*
X49487615Y-42460500D01*
X49607773Y-42425218D01*
X49713124Y-42357513D01*
X49795133Y-42262870D01*
X49847156Y-42148956D01*
X49849313Y-42133953D01*
X49864978Y-42025002D01*
X49864978Y-42024997D01*
X49847157Y-41901048D01*
X49847156Y-41901046D01*
X49847156Y-41901044D01*
X49795133Y-41787130D01*
X49771330Y-41759660D01*
X49717206Y-41697197D01*
X49693388Y-41640838D01*
X49707246Y-41581243D01*
X49717197Y-41567545D01*
X49778761Y-41496498D01*
X49830784Y-41382584D01*
X49830794Y-41382513D01*
X49848606Y-41258630D01*
X49848606Y-41258625D01*
X49830785Y-41134676D01*
X49830784Y-41134674D01*
X49830784Y-41134672D01*
X49778761Y-41020758D01*
X49696752Y-40926115D01*
X49696752Y-40926114D01*
X49591402Y-40858410D01*
X49471244Y-40823128D01*
X49471243Y-40823128D01*
X49346013Y-40823128D01*
X49346011Y-40823128D01*
X49225853Y-40858410D01*
X49120503Y-40926114D01*
X49120503Y-40926115D01*
X49038496Y-41020756D01*
X48986471Y-41134674D01*
X48986470Y-41134676D01*
X48968650Y-41258625D01*
X48968650Y-41258630D01*
X39383487Y-41258630D01*
X39422156Y-41173956D01*
X39423031Y-41167870D01*
X39439978Y-41050002D01*
X39439978Y-41049997D01*
X39422157Y-40926048D01*
X39422156Y-40926046D01*
X39422156Y-40926044D01*
X39370133Y-40812130D01*
X39288124Y-40717487D01*
X39288124Y-40717486D01*
X39182774Y-40649782D01*
X39062616Y-40614500D01*
X39062615Y-40614500D01*
X38937385Y-40614500D01*
X38937383Y-40614500D01*
X38817225Y-40649782D01*
X38711875Y-40717486D01*
X38711875Y-40717487D01*
X38629868Y-40812128D01*
X38577843Y-40926046D01*
X38577842Y-40926048D01*
X38560022Y-41049997D01*
X38560022Y-41050002D01*
X36700500Y-41050002D01*
X36700500Y-39900002D01*
X44060022Y-39900002D01*
X44077842Y-40023951D01*
X44077843Y-40023953D01*
X44077843Y-40023954D01*
X44077844Y-40023956D01*
X44129867Y-40137870D01*
X44154784Y-40166626D01*
X44211875Y-40232512D01*
X44211875Y-40232513D01*
X44289677Y-40282513D01*
X44317227Y-40300218D01*
X44437385Y-40335500D01*
X44437386Y-40335500D01*
X44562614Y-40335500D01*
X44562615Y-40335500D01*
X44682773Y-40300218D01*
X44788124Y-40232513D01*
X44870133Y-40137870D01*
X44922156Y-40023956D01*
X44922157Y-40023951D01*
X44939978Y-39900002D01*
X47210022Y-39900002D01*
X47227842Y-40023951D01*
X47227843Y-40023953D01*
X47227843Y-40023954D01*
X47227844Y-40023956D01*
X47279867Y-40137870D01*
X47304784Y-40166626D01*
X47361875Y-40232512D01*
X47361875Y-40232513D01*
X47439677Y-40282513D01*
X47467227Y-40300218D01*
X47587385Y-40335500D01*
X47587386Y-40335500D01*
X47712614Y-40335500D01*
X47712615Y-40335500D01*
X47832773Y-40300218D01*
X47938124Y-40232513D01*
X48020133Y-40137870D01*
X48072156Y-40023956D01*
X48072157Y-40023951D01*
X48082789Y-39950002D01*
X49335022Y-39950002D01*
X49352842Y-40073951D01*
X49352843Y-40073953D01*
X49352843Y-40073954D01*
X49352844Y-40073956D01*
X49404867Y-40187870D01*
X49404868Y-40187871D01*
X49486875Y-40282512D01*
X49486875Y-40282513D01*
X49569325Y-40335500D01*
X49592227Y-40350218D01*
X49712385Y-40385500D01*
X49712386Y-40385500D01*
X49837614Y-40385500D01*
X49837615Y-40385500D01*
X49957773Y-40350218D01*
X50063124Y-40282513D01*
X50145133Y-40187870D01*
X50197156Y-40073956D01*
X50204345Y-40023956D01*
X50214978Y-39950002D01*
X50214978Y-39949997D01*
X50197157Y-39826048D01*
X50197156Y-39826046D01*
X50197156Y-39826044D01*
X50145133Y-39712130D01*
X50063124Y-39617487D01*
X50063124Y-39617486D01*
X49957774Y-39549782D01*
X49837616Y-39514500D01*
X49837615Y-39514500D01*
X49712385Y-39514500D01*
X49712383Y-39514500D01*
X49592225Y-39549782D01*
X49486875Y-39617486D01*
X49486875Y-39617487D01*
X49404868Y-39712128D01*
X49352843Y-39826046D01*
X49352842Y-39826048D01*
X49335022Y-39949997D01*
X49335022Y-39950002D01*
X48082789Y-39950002D01*
X48089978Y-39900002D01*
X48089978Y-39899997D01*
X48072157Y-39776048D01*
X48072156Y-39776046D01*
X48072156Y-39776044D01*
X48020133Y-39662130D01*
X47938124Y-39567487D01*
X47938124Y-39567486D01*
X47832774Y-39499782D01*
X47712616Y-39464500D01*
X47712615Y-39464500D01*
X47587385Y-39464500D01*
X47587383Y-39464500D01*
X47467225Y-39499782D01*
X47361875Y-39567486D01*
X47361875Y-39567487D01*
X47279868Y-39662128D01*
X47227843Y-39776046D01*
X47227842Y-39776048D01*
X47210022Y-39899997D01*
X47210022Y-39900002D01*
X44939978Y-39900002D01*
X44939978Y-39899997D01*
X44922157Y-39776048D01*
X44922156Y-39776046D01*
X44922156Y-39776044D01*
X44870133Y-39662130D01*
X44788124Y-39567487D01*
X44788124Y-39567486D01*
X44682774Y-39499782D01*
X44562616Y-39464500D01*
X44562615Y-39464500D01*
X44437385Y-39464500D01*
X44437383Y-39464500D01*
X44317225Y-39499782D01*
X44211875Y-39567486D01*
X44211875Y-39567487D01*
X44129868Y-39662128D01*
X44077843Y-39776046D01*
X44077842Y-39776048D01*
X44060022Y-39899997D01*
X44060022Y-39900002D01*
X36700500Y-39900002D01*
X36700500Y-38687620D01*
X36700553Y-38686000D01*
X37480357Y-38686000D01*
X37500885Y-38907536D01*
X37561771Y-39121528D01*
X37660942Y-39320689D01*
X37795019Y-39498236D01*
X37959438Y-39648124D01*
X38148599Y-39765247D01*
X38356060Y-39845618D01*
X38574757Y-39886500D01*
X38797243Y-39886500D01*
X39015940Y-39845618D01*
X39223401Y-39765247D01*
X39412562Y-39648124D01*
X39576981Y-39498236D01*
X39711058Y-39320689D01*
X39810229Y-39121528D01*
X39871115Y-38907536D01*
X39891643Y-38686000D01*
X39871115Y-38464464D01*
X39810229Y-38250472D01*
X39711058Y-38051311D01*
X39576981Y-37873764D01*
X39412562Y-37723876D01*
X39223401Y-37606753D01*
X39015940Y-37526382D01*
X39015939Y-37526381D01*
X39015937Y-37526381D01*
X38797243Y-37485500D01*
X38574757Y-37485500D01*
X38356062Y-37526381D01*
X38279797Y-37555926D01*
X38148599Y-37606753D01*
X38013260Y-37690551D01*
X37959438Y-37723876D01*
X37795020Y-37873763D01*
X37660943Y-38051309D01*
X37660938Y-38051318D01*
X37561772Y-38250469D01*
X37561771Y-38250472D01*
X37500885Y-38464464D01*
X37480357Y-38686000D01*
X36700553Y-38686000D01*
X36700606Y-38684382D01*
X36701981Y-38663410D01*
X36717273Y-38430076D01*
X36718119Y-38423657D01*
X36767521Y-38175298D01*
X36769196Y-38169044D01*
X36850595Y-37929249D01*
X36853065Y-37923286D01*
X36965075Y-37696152D01*
X36968310Y-37690551D01*
X37024302Y-37606753D01*
X37109001Y-37479991D01*
X37112931Y-37474869D01*
X37279907Y-37284469D01*
X37284469Y-37279907D01*
X37474869Y-37112931D01*
X37479991Y-37109001D01*
X37690555Y-36968307D01*
X37696152Y-36965075D01*
X37923286Y-36853065D01*
X37929249Y-36850595D01*
X38169044Y-36769196D01*
X38175298Y-36767521D01*
X38417182Y-36719407D01*
X38423659Y-36718118D01*
X38430076Y-36717273D01*
X38684383Y-36700605D01*
X38687620Y-36700500D01*
X38725882Y-36700500D01*
X54852315Y-36700500D01*
X54910506Y-36719407D01*
G37*
G04 #@! TD.AperFunction*
M02*
